<svg width="24" height="15" viewBox="0 0 24 15" fill="none" xmlns="http://www.w3.org/2000/svg">
<path fill-rule="evenodd" clip-rule="evenodd" d="M2.08098 0.0629328C1.88733 0.148413 1.68975 0.367028 1.63471 0.556716C1.56496 0.797211 1.57312 7.53027 1.64329 7.66062C1.77351 7.90237 2.03645 7.94919 2.22372 7.76395L2.3388 7.65019V4.19454V0.738941H9.58126H16.8237V4.14916C16.8237 6.65289 16.8382 7.58627 16.8782 7.66062C17.0085 7.90237 17.2714 7.94919 17.4587 7.76395C17.5555 7.66827 17.5738 7.60569 17.5738 7.36992V7.0897L19.8824 7.08998C21.2844 7.09012 22.2577 7.10852 22.3607 7.1368C22.5988 7.20221 22.8176 7.35861 22.9978 7.59215C23.2493 7.91831 23.2409 7.92411 22.5171 7.92411C21.9055 7.92411 21.8779 7.92828 21.7671 8.03791C21.6575 8.14625 21.652 8.17865 21.652 8.71628C21.652 9.4303 21.7021 9.59927 22.002 9.89581C22.275 10.1658 22.4802 10.2419 22.9349 10.2419H23.2458V11.0763V11.9107H22.7637H22.2815L22.1364 11.621C21.2698 9.89169 18.7525 9.89247 17.8856 11.6223C17.7899 11.8134 17.7153 11.9088 17.6685 11.8999C17.607 11.8882 17.594 11.6805 17.5738 10.3935C17.548 8.75559 17.5544 8.78948 17.2586 8.73093C17.1328 8.70609 17.0859 8.72393 16.9662 8.84223L16.8237 8.98316V10.4469V11.9107H12.9352H9.04659L8.94904 11.6927C8.5338 10.7644 7.48353 10.1926 6.4558 10.3353C5.7144 10.4381 4.96789 10.9718 4.65723 11.6211L4.51857 11.9109L3.44041 11.8992L2.36224 11.8875V11.4703V11.0531L3.26199 11.0406L4.16179 11.028L4.25812 10.9068C4.38516 10.7471 4.37986 10.6007 4.24139 10.4415L4.12823 10.3114H2.17473H0.221236L0.108076 10.4415C-0.0306794 10.601 -0.0356484 10.7472 0.0921377 10.9078L0.189266 11.03H0.889043H1.58877L1.5898 11.5051C1.5906 11.8664 1.61146 12.0247 1.67695 12.1657C1.87838 12.5995 2.04484 12.6478 3.34782 12.6504L4.38024 12.6524L4.43738 13.0076C4.75207 14.9633 7.20508 15.69 8.54599 14.2248C8.81356 13.9323 9.07931 13.4002 9.1162 13.0828C9.1304 12.9608 9.15159 12.8141 9.16331 12.7567L9.18459 12.6524H13.3929H17.6011L17.6742 13.0348C17.7695 13.5335 17.9449 13.8909 18.2591 14.2265C18.7717 14.774 19.258 14.9843 20.0113 14.9843C20.7646 14.9843 21.251 14.774 21.7634 14.2267C22.0853 13.8829 22.2502 13.5499 22.3453 13.0519L22.4203 12.6589L23.0951 12.6441L23.7698 12.6292L23.8849 12.4968L24 12.3644L23.9862 10.1095C23.9728 7.91549 23.9697 7.8479 23.8703 7.60824C23.6393 7.05081 23.1098 6.56806 22.5829 6.43455C22.4248 6.39446 22.3301 6.34207 22.3033 6.27986C22.2811 6.22808 22.1356 5.67891 21.98 5.05941L21.6971 3.93305L21.8435 3.81118L21.99 3.68931L21.9709 3.19919C21.9546 2.77772 21.934 2.67476 21.8238 2.46412C21.6725 2.17482 21.3979 1.89038 21.15 1.76642C20.8185 1.60051 20.5199 1.57335 19.0286 1.57335H17.5816L17.566 1.02867C17.552 0.541697 17.5384 0.467435 17.4378 0.327903C17.3758 0.242099 17.2387 0.133023 17.1331 0.0855545C16.9483 0.0025774 16.6593 -0.000667599 9.58126 7.40955e-05C3.53505 0.000723078 2.19653 0.0119413 2.08098 0.0629328ZM20.7941 2.4193C20.9943 2.52754 21.1815 2.77818 21.2151 2.98289L21.2424 3.14945H19.4081H17.5738V2.72988V2.31036L19.109 2.32427C20.4654 2.3366 20.6617 2.34768 20.7941 2.4193ZM10.9077 5.26931L9.18183 6.97196L8.27992 6.08313C7.70572 5.51726 7.33109 5.18313 7.24882 5.16343C6.98499 5.10034 6.73397 5.40198 6.83986 5.65475C6.86846 5.72304 7.37229 6.25112 7.95952 6.82835C8.93118 7.78337 9.04153 7.87775 9.18642 7.87775C9.33357 7.87775 9.49014 7.73484 11.2565 5.9881C12.9967 4.26723 13.1673 4.08491 13.1673 3.94635C13.1673 3.74318 12.9898 3.56665 12.7854 3.56665C12.6484 3.56665 12.4661 3.73191 10.9077 5.26931ZM21.2205 5.10799C21.3818 5.75173 21.5132 6.29414 21.5126 6.31324C21.5119 6.33234 20.6254 6.34801 19.5426 6.34801H17.5738V5.14275V3.9375H19.2505H20.9273L21.2205 5.10799ZM23.2458 9.08301V9.50021H22.9475C22.6877 9.50021 22.6333 9.48445 22.5256 9.37802C22.418 9.27158 22.4021 9.21772 22.4021 8.96081V8.6658H22.824H23.2458V9.08301ZM0.928888 8.84766C0.759804 9.01486 0.752116 9.18698 0.90695 9.34005L1.02199 9.45385H3.55164C4.94295 9.45385 6.11543 9.44087 6.15715 9.42507C6.24261 9.39262 6.3702 9.17312 6.3702 9.05858C6.3702 9.01709 6.30856 8.9222 6.23318 8.84766L6.09616 8.71216H3.58104H1.06591L0.928888 8.84766ZM9.85352 10.3345C9.69288 10.3994 9.59134 10.5861 9.62772 10.7499C9.69236 11.0409 9.56678 11.03 12.8228 11.03H15.7856L15.8828 10.9078C16.0106 10.7472 16.0056 10.601 15.8668 10.4415L15.7537 10.3114L12.855 10.3023C11.2337 10.2971 9.911 10.3113 9.85352 10.3345ZM7.14367 11.1003C7.55028 11.1657 8.02692 11.5338 8.24003 11.9469C8.44942 12.3528 8.45046 12.949 8.24256 13.3541C7.62257 14.562 5.92956 14.5645 5.32917 13.3584C5.1905 13.0798 5.17503 13.0084 5.17672 12.6534C5.17827 12.3198 5.19852 12.2176 5.30713 11.9958C5.53739 11.5255 6.01483 11.1598 6.50765 11.0763C6.72066 11.0402 6.78586 11.0427 7.14367 11.1003ZM20.2704 11.0804C20.991 11.2122 21.5413 11.7831 21.6309 12.4922C21.6914 12.9712 21.4282 13.602 21.0416 13.9049C20.096 14.6455 18.7371 14.1877 18.4381 13.0278C18.212 12.1507 18.8268 11.232 19.7407 11.0815C19.8767 11.0591 19.9893 11.0383 19.991 11.0354C19.9927 11.0324 20.1185 11.0527 20.2704 11.0804ZM6.3815 12.0005C5.80614 12.3575 5.93627 13.2016 6.59685 13.3973C6.9721 13.5085 7.45212 13.2282 7.52258 12.8567C7.62364 12.3241 7.34168 11.9504 6.81666 11.9213C6.59432 11.909 6.50179 11.9258 6.3815 12.0005ZM19.6433 11.9893C19.1782 12.216 19.111 12.9293 19.5245 13.251C19.8469 13.5017 20.2652 13.4768 20.5556 13.1897C20.8245 12.9237 20.8542 12.5131 20.6274 12.1981C20.4317 11.9263 19.9726 11.8289 19.6433 11.9893Z" fill="#25343F"/>
</svg>
