<svg width="22" height="22" viewBox="0 0 22 22" fill="none" xmlns="http://www.w3.org/2000/svg">
<g clip-path="url(#clip0_1_4)">
<path fill-rule="evenodd" clip-rule="evenodd" d="M0.218197 0.0588048C-0.0050894 0.182543 0.00170159 0.0633607 6.83186e-05 3.8757C-0.00104919 6.5428 0.0113723 7.4584 0.0499262 7.54294C0.160645 7.7859 0.0333786 7.77812 3.88834 7.77812C7.7433 7.77812 7.61604 7.7859 7.72676 7.54294C7.76355 7.46222 7.77812 6.99151 7.77812 5.885V4.33975L11.5712 4.34026C15.7308 4.34082 15.5578 4.33081 16.1145 4.60326C16.5176 4.80053 16.9725 5.26446 17.1694 5.67891C17.3284 6.01389 17.4473 6.47975 17.4473 6.7681C17.4473 7.05645 17.3284 7.52231 17.1694 7.85729C16.9838 8.2481 16.5242 8.72341 16.1344 8.92778C15.6172 9.19898 15.54 9.20831 13.5875 9.23586L11.8107 9.26092L11.7071 9.38152C11.5608 9.55168 11.5689 9.75823 11.7289 9.93716L11.8544 10.0775L13.6523 10.0747C15.3624 10.0721 15.467 10.0673 15.7941 9.97808C16.7783 9.70937 17.5715 9.04972 17.984 8.15681C18.2041 7.68056 18.2807 7.32189 18.2807 6.7681C18.2807 6.18332 18.198 5.82474 17.9437 5.30679C17.5571 4.51936 16.9024 3.94429 16.0417 3.63639L15.6651 3.50165L11.7324 3.48016L7.79961 3.45867L7.77812 1.86842C7.7663 0.993784 7.73978 0.243617 7.71919 0.201368C7.61896 -0.00420338 7.67479 -0.00128075 3.87975 0.000309497C1.00832 0.00155591 0.301064 0.0128596 0.218197 0.0588048ZM2.23357 2.10696C2.23357 3.48114 2.24492 3.54996 2.48858 3.65087C2.67172 3.72673 2.75902 3.69437 3.3629 3.32633L3.89775 3.00042L4.42277 3.32625C5.01195 3.69187 5.10449 3.72695 5.28398 3.65259C5.5386 3.54712 5.54311 3.52064 5.54311 2.1278V0.858398H6.2308H6.9185V3.88846V6.91853H3.88834H0.858183V3.88846V0.858398H1.54588H2.23357V2.10696ZM4.68349 1.65352C4.68349 2.09084 4.67416 2.44864 4.66277 2.44864C4.65134 2.44864 4.51114 2.36733 4.35116 2.26792C3.9691 2.03058 3.80883 2.02693 3.46915 2.24771C3.0607 2.51324 3.09319 2.56422 3.09319 1.65812V0.858398H3.88834H4.68349V1.65352ZM3.69007 9.34159C2.78175 9.66222 2.21638 10.4566 2.2181 11.4099C2.21978 12.3479 2.73933 13.0874 3.66291 13.4664C3.88473 13.5574 3.93841 13.5592 7.00545 13.5804L10.1226 13.6019L10.4135 13.7452C10.6208 13.8472 10.7524 13.9491 10.8711 14.0991C11.0857 14.3707 11.1498 14.563 11.1493 14.9342C11.1488 15.339 11.0227 15.6193 10.7142 15.9012C10.3225 16.2592 10.4774 16.245 6.94291 16.2458C3.53138 16.2467 3.48939 16.2495 3.00448 16.5079C1.91255 17.0899 1.52667 18.3553 2.09513 19.4898C2.23963 19.7782 2.71303 20.2422 3.00723 20.3837C3.54015 20.6402 3.25648 20.6289 9.23775 20.63L14.7195 20.6309L14.8485 20.8253C15.4832 21.782 17.8307 22.2645 19.8415 21.8515C21.2158 21.5692 22.0693 20.8828 21.9956 20.1193C21.9415 19.5601 21.4375 19.0677 20.6196 18.7751C20.3776 18.6885 20.2548 18.6238 20.2736 18.5927C20.2897 18.5662 20.4312 18.3705 20.588 18.1577C21.6232 16.7533 22.0286 15.5481 21.8791 14.3189C21.7818 13.5184 21.4632 12.8374 20.9146 12.2575C19.3144 10.5657 16.585 10.8167 15.3102 12.7729C14.5643 13.9175 14.5435 15.4803 15.2554 16.8921C15.4737 17.3251 15.646 17.5984 16.0618 18.171C16.2388 18.4147 16.3766 18.6207 16.3682 18.6288C16.3597 18.6368 16.1953 18.704 16.0028 18.778C15.4497 18.9907 14.9861 19.3232 14.7974 19.6427L14.7225 19.7694H9.28099C4.58523 19.7694 3.8099 19.7607 3.62379 19.7054C2.84545 19.4743 2.46868 18.595 2.83187 17.8573C2.97723 17.562 3.16188 17.381 3.47869 17.2232L3.67344 17.1262L7.00446 17.1047C10.2906 17.0835 10.3385 17.082 10.5609 16.9907C11.3752 16.6566 11.8808 16.0354 11.9992 15.2235C12.1681 14.0644 11.3224 12.9334 10.1612 12.7656C9.98566 12.7402 8.68377 12.7221 7.00137 12.7216C3.75299 12.7206 3.90205 12.7355 3.50564 12.3732C2.9318 11.8488 2.92161 11.0029 3.48256 10.4535C3.84403 10.0994 3.84704 10.099 6.14785 10.099C8.31611 10.099 8.37439 10.0936 8.52465 9.87909C8.63683 9.71895 8.61427 9.5102 8.46912 9.36506L8.34349 9.23943L6.1589 9.24033C3.98096 9.24123 3.97344 9.24153 3.69007 9.34159ZM9.79491 9.36506C9.49267 9.66729 9.79212 10.1611 10.21 10.0497C10.4114 9.99596 10.5074 9.86362 10.5074 9.63948C10.5074 9.48175 10.4856 9.42811 10.3868 9.34314C10.2099 9.19095 9.95979 9.20019 9.79491 9.36506ZM19.1369 12.1132C19.5914 12.2742 19.9111 12.4745 20.2485 12.8096C20.873 13.4299 21.1359 14.245 21.0171 15.1921C20.8844 16.2496 20.3963 17.1107 18.94 18.8561C18.5531 19.3198 18.4049 19.4686 18.3297 19.4686C18.2178 19.4686 18.0739 19.3188 17.4283 18.5308C16.4778 17.3704 15.9314 16.4837 15.7285 15.7723C15.5969 15.3109 15.5666 14.5543 15.6625 14.1235C15.8817 13.1376 16.6469 12.3405 17.6294 12.0742C18.0411 11.9626 18.7645 11.9814 19.1369 12.1132ZM17.8786 13.13C17.1498 13.3311 16.6309 14.0688 16.6851 14.8267C16.7258 15.3942 17.0861 15.9314 17.5921 16.179C18.7863 16.7633 20.1352 15.7664 19.9336 14.4486C19.7887 13.5018 18.8091 12.8732 17.8786 13.13ZM18.5993 13.9907C18.9184 14.124 19.092 14.3736 19.092 14.6991C19.092 15.215 18.614 15.6001 18.1341 15.4708C17.9126 15.4112 17.6404 15.167 17.5752 14.9693C17.457 14.6114 17.6355 14.1829 17.9718 14.0164C18.1922 13.9074 18.3813 13.8996 18.5993 13.9907ZM17.2736 19.701C17.6747 20.18 17.923 20.3285 18.322 20.3277C18.7262 20.327 18.9589 20.1718 19.503 19.5398L19.6445 19.3755L20.0375 19.4883C20.6801 19.6726 21.1452 19.9711 21.1452 20.1992C21.1452 20.4394 20.535 20.8033 19.8558 20.9684C18.3574 21.3326 16.374 21.0945 15.6796 20.4672C15.5662 20.3648 15.5147 20.2821 15.5147 20.2027C15.5147 19.972 15.9614 19.6734 16.5892 19.4843C16.7665 19.4309 16.9331 19.3862 16.9593 19.3849C16.9855 19.3837 17.1269 19.5259 17.2736 19.701Z" fill="#25343F"/>
</g>
<defs>
<clipPath id="clip0_1_4">
<rect width="22" height="22" fill="white"/>
</clipPath>
</defs>
</svg>
