<svg xmlns="http://www.w3.org/2000/svg" width="60" height="60" viewBox="0 0 60 60" fill="none"><path d="M39.7201 29.5799L32.7001 24.7199C33.4801 23.9999 34.0201 22.9799 34.0201 21.7799C34.0201 20.2199 33.1801 18.7799 31.7401 18.1199C31.2001 17.8799 30.8401 17.3999 30.8401 16.7999V13.8599H34.3201C34.8001 13.8599 35.2201 13.4399 35.2201 12.9599C35.2201 12.4799 34.8001 12.0599 34.3201 12.0599H25.5601C25.0801 12.0599 24.6601 12.4799 24.6601 12.9599C24.6601 13.4399 25.0801 13.8599 25.5601 13.8599H29.0401V16.7999C29.0401 18.0599 29.7601 19.1999 30.9601 19.7999C31.7401 20.1599 32.2201 20.9999 32.2201 21.8399C32.2201 22.6199 31.8001 23.2799 31.1401 23.6999L30.9001 23.5199C30.3601 23.1599 29.6401 23.1599 29.0401 23.5199L28.8001 23.6999C28.6801 23.6399 28.5001 23.5199 28.3801 23.3999C27.9601 22.9799 27.7201 22.3799 27.7201 21.7799C27.7201 21.2999 27.3001 20.8799 26.8201 20.8799C26.3401 20.8799 25.9201 21.2999 25.9201 21.7799C25.9201 22.8599 26.3401 23.8799 27.1201 24.6599C27.1801 24.7199 27.1801 24.7199 27.2401 24.7799L20.3401 29.5799H15.0601V47.88H44.8801V29.5799H39.7201ZM29.0401 25.7399C29.3401 25.7999 29.6401 25.8599 29.9401 25.8599H30.0001C30.3001 25.8599 30.6001 25.7999 30.9001 25.7399L36.5401 29.6399H23.5201L29.0401 25.7399ZM39.1201 31.3799L40.8001 32.5199H19.2601L20.8801 31.3799H39.1201ZM16.8601 31.3799H17.8201C17.5801 31.6799 17.5201 32.0999 17.7601 32.4599L17.8201 32.5199H16.8601V31.3799ZM43.1401 46.08H16.8601V34.3199H43.0801L43.1401 46.08ZM42.2401 32.5199C42.5401 32.0999 42.4801 31.6799 42.2401 31.3799H43.1401V32.5199H42.2401Z" fill="#005AFF"></path><path d="M20.5801 44.82C21.0601 44.82 21.4801 44.4 21.4801 43.92V36.54C21.4801 36.06 21.0601 35.64 20.5801 35.64C20.1001 35.64 19.6801 36.06 19.6801 36.54V43.92C19.6801 44.4 20.0401 44.82 20.5801 44.82Z" fill="#005AFF"></path><path d="M25.2601 44.82C25.7401 44.82 26.1601 44.4 26.1601 43.92V36.54C26.1601 36.06 25.7401 35.64 25.2601 35.64C24.7801 35.64 24.3601 36.06 24.3601 36.54V43.92C24.3601 44.4 24.7201 44.82 25.2601 44.82Z" fill="#005AFF"></path><path d="M34.6201 44.82C35.1001 44.82 35.5201 44.4 35.5201 43.92V36.54C35.5201 36.06 35.1001 35.64 34.6201 35.64C34.1401 35.64 33.7201 36.06 33.7201 36.54V43.92C33.7201 44.4 34.0801 44.82 34.6201 44.82Z" fill="#005AFF"></path><path d="M39.2401 44.82C39.7201 44.82 40.1401 44.4 40.1401 43.92V36.54C40.1401 36.06 39.7201 35.64 39.2401 35.64C38.7601 35.64 38.3401 36.06 38.3401 36.54V43.92C38.3401 44.4 38.7601 44.82 39.2401 44.82Z" fill="#005AFF"></path><path d="M29.9401 44.82C30.4201 44.82 30.8401 44.4 30.8401 43.92V36.54C30.8401 36.06 30.4201 35.64 29.9401 35.64C29.4601 35.64 29.0401 36.06 29.0401 36.54V43.92C29.0401 44.4 29.4601 44.82 29.9401 44.82Z" fill="#005AFF"></path></svg>