<svg xmlns="http://www.w3.org/2000/svg" width="60" height="60" viewBox="0 0 60 60" fill="none"><path d="M43.44 28.8C42.96 28.8 42.54 29.22 42.54 29.7V51.96H14.16V14.64C14.16 13.86 13.92 13.14 13.56 12.54H29.88C30.36 12.54 30.78 12.12 30.78 11.64C30.78 11.16 30.36 10.74 29.88 10.74H10.26C10.2 10.74 10.14 10.74 10.14 10.74C8.09998 10.86 6.47998 12.54 6.47998 14.64V16.38H12.36V53.7H44.34V29.7C44.34 29.22 43.98 28.8 43.44 28.8ZM10.32 12.54C11.4 12.6 12.3 13.5 12.36 14.58H8.27998C8.33998 13.5 9.23998 12.6 10.32 12.54Z" fill="#005AFF"></path><path d="M31.92 45.8401C31.86 45.3601 31.38 45.0001 30.9 45.0601C30.42 45.1201 30.06 45.6001 30.12 46.0801C30.24 46.8601 30.96 48.3601 32.94 48.3601C33.78 48.3601 34.62 48.0001 35.34 47.4001C36 47.9401 36.84 48.3601 37.56 48.3601C38.04 48.3601 38.46 47.9401 38.46 47.4601C38.46 46.9801 38.04 46.5601 37.56 46.5601C37.26 46.5601 36.9 46.3801 36.54 46.0801C36.96 45.4801 37.2 44.8201 37.2 44.2201C37.2 43.6201 36.96 43.2001 36.72 43.0201C36.48 42.7801 36.12 42.5401 35.4 42.5401C34.86 42.5401 34.38 42.7201 34.02 43.0201C33.78 43.2601 33.48 43.6201 33.48 44.2801C33.48 44.8201 33.72 45.4801 34.14 46.0801C33.72 46.3801 33.3 46.5601 32.94 46.5601C32.16 46.5601 31.98 46.0201 31.92 45.8401Z" fill="#005AFF"></path><path d="M19.4999 20.4H29.8799C30.3599 20.4 30.7799 19.98 30.7799 19.5C30.7799 19.02 30.3599 18.6 29.8799 18.6H19.4999C19.0199 18.6 18.5999 19.02 18.5999 19.5C18.5999 19.98 19.0199 20.4 19.4999 20.4Z" fill="#005AFF"></path><path d="M18.5999 24.6C18.5999 25.08 19.0199 25.5 19.4999 25.5H32.6999C33.1799 25.5 33.5999 25.08 33.5999 24.6C33.5999 24.12 33.1799 23.7 32.6999 23.7H19.4999C19.0199 23.7 18.5999 24.12 18.5999 24.6Z" fill="#005AFF"></path><path d="M37.5599 28.8H19.4999C19.0199 28.8 18.5999 29.22 18.5999 29.7C18.5999 30.18 19.0199 30.6 19.4999 30.6H37.5599C38.0399 30.6 38.4599 30.18 38.4599 29.7C38.4599 29.22 38.0999 28.8 37.5599 28.8Z" fill="#005AFF"></path><path d="M38.0399 33.9H19.4999C19.0199 33.9 18.5999 34.32 18.5999 34.8C18.5999 35.28 19.0199 35.7 19.4999 35.7H38.0399C38.5199 35.7 38.9399 35.28 38.9399 34.8C38.9399 34.32 38.5799 33.9 38.0399 33.9Z" fill="#005AFF"></path><path d="M38.9399 39.8401C38.9399 39.3601 38.5199 38.9401 38.0399 38.9401H19.4999C19.0199 38.9401 18.5999 39.3601 18.5999 39.8401C18.5999 40.3201 19.0199 40.7401 19.4999 40.7401H38.0399C38.5799 40.7401 38.9399 40.3201 38.9399 39.8401Z" fill="#005AFF"></path><path d="M19.4999 43.9801C19.0199 43.9801 18.5999 44.4001 18.5999 44.8801C18.5999 45.3601 19.0199 45.7801 19.4999 45.7801H26.8799C27.3599 45.7801 27.7799 45.3601 27.7799 44.8801C27.7799 44.4001 27.3599 43.9801 26.8799 43.9801H19.4999Z" fill="#005AFF"></path><path d="M52.9199 5.94004C52.4399 5.40004 51.7799 5.04004 50.9999 5.04004H35.88C35.16 5.04004 34.44 5.34004 33.96 5.94004C33.48 6.48004 33.3 7.26004 33.42 7.98004L35.1 17.46C35.88 21.66 39.06 24.9 43.1999 25.74H43.4399L43.6199 25.68C47.6999 24.84 50.8799 21.6 51.5999 17.46L53.3399 7.92004C53.5799 7.26004 53.3999 6.48004 52.9199 5.94004ZM51.5399 7.08004C51.5999 7.14004 51.7199 7.38004 51.6599 7.62004L50.6399 13.26L47.4599 13.62C46.4399 13.74 45.3599 13.8 44.3399 13.8V6.84004H50.9999C51.2999 6.84004 51.4799 7.02004 51.5399 7.08004ZM35.4 7.08004C35.46 7.02004 35.64 6.84004 35.94 6.84004H42.5999V13.86C41.34 13.86 40.0799 13.74 38.82 13.62L36.3 13.32L35.28 7.62004C35.22 7.38004 35.34 7.20004 35.4 7.08004ZM36.96 17.1L36.6 15.18L38.58 15.42C39.9 15.6 41.2199 15.66 42.5399 15.66V23.64C39.66 22.68 37.5 20.22 36.96 17.1ZM44.3399 23.64V15.66C45.4799 15.6 46.5599 15.54 47.6999 15.42L50.3399 15.12L49.9799 17.16C49.3799 20.22 47.2199 22.68 44.3399 23.64Z" fill="#005AFF"></path></svg>