<svg xmlns="http://www.w3.org/2000/svg" width="60" height="60" viewBox="0 0 60 60" fill="none"><path d="M49.1111 29.1111H41.1111V10.8889C41.1111 10.6531 41.0175 10.427 40.8508 10.2603C40.6841 10.0937 40.458 10 40.2222 10H21.1111C20.8754 10 20.6493 10.0937 20.4826 10.2603C20.3159 10.427 20.2222 10.6531 20.2222 10.8889V29.1111H10.8889C10.6531 29.1111 10.427 29.2048 10.2603 29.3715C10.0937 29.5382 10 29.7643 10 30V49.1111C10 49.3469 10.0937 49.573 10.2603 49.7397C10.427 49.9063 10.6531 50 10.8889 50H49.1111C49.3469 50 49.573 49.9063 49.7397 49.7397C49.9063 49.573 50 49.3469 50 49.1111V30C50 29.7643 49.9063 29.5382 49.7397 29.3715C49.573 29.2048 49.3469 29.1111 49.1111 29.1111ZM38.32 30.8889H41.0444V36.5378L40.1556 35.9911C40.0209 35.9112 39.8676 35.8683 39.7111 35.8667C39.5546 35.8683 39.4013 35.9112 39.2667 35.9911L38.3778 36.5333L38.32 30.8889ZM32.1556 11.7778V17.4267L31.2667 16.88C31.1321 16.8001 30.9787 16.7572 30.8222 16.7556C30.6657 16.7572 30.5124 16.8001 30.3778 16.88L29.4889 17.4222V11.7778H32.1556ZM22 11.7778H27.6533V18.9956C27.6527 19.1522 27.6935 19.3062 27.7715 19.442C27.8496 19.5778 27.9621 19.6906 28.0978 19.7689C28.2337 19.8445 28.3867 19.8843 28.5422 19.8844C28.6992 19.8815 28.8525 19.837 28.9867 19.7556L30.7644 18.68L32.5422 19.7556C32.6766 19.8332 32.829 19.8742 32.9842 19.8747C33.1394 19.8751 33.2921 19.8349 33.4269 19.758C33.5617 19.6812 33.6741 19.5703 33.7528 19.4366C33.8315 19.3028 33.8738 19.1508 33.8756 18.9956V11.7778H39.3333V29.1111H22V11.7778ZM21.1111 30.8889H21.9333V36.5378L21.0444 35.9911C20.9098 35.9112 20.7565 35.8683 20.6 35.8667C20.4435 35.8683 20.2902 35.9112 20.1556 35.9911L19.2667 36.5333V30.8889H21.1111ZM11.7778 30.8889H17.4311V38.1067C17.4305 38.2633 17.4713 38.4173 17.5493 38.5531C17.6274 38.6889 17.7399 38.8017 17.8756 38.88C18.0115 38.9557 18.1644 38.9954 18.32 38.9956C18.4769 38.9926 18.6303 38.9481 18.7644 38.8667L20.5422 37.7911L22.32 38.8667C22.4544 38.9443 22.6068 38.9853 22.762 38.9858C22.9172 38.9862 23.0698 38.946 23.2047 38.8691C23.3395 38.7923 23.4519 38.6815 23.5306 38.5477C23.6093 38.4139 23.6516 38.2619 23.6533 38.1067V30.8889H29.1111V48.2222H11.7778V30.8889ZM48.2222 48.2222H30.8889V30.8889H36.5422V38.1067C36.5416 38.2633 36.5824 38.4173 36.6604 38.5531C36.7385 38.6889 36.851 38.8017 36.9867 38.88C37.1226 38.9557 37.2756 38.9954 37.4311 38.9956C37.588 38.9926 37.7414 38.9481 37.8756 38.8667L39.6533 37.7911L41.4311 38.8667C41.5655 38.9443 41.7179 38.9853 41.8731 38.9858C42.0283 38.9862 42.1809 38.946 42.3158 38.8691C42.4506 38.7923 42.563 38.6815 42.6417 38.5477C42.7204 38.4139 42.7627 38.2619 42.7644 38.1067V30.8889H48.2222V48.2222Z" fill="#005AFF"></path></svg>