<svg xmlns="http://www.w3.org/2000/svg" width="60" height="60" viewBox="0 0 60 60" fill="none"><path d="M39.6602 28.08C39.0602 28.32 38.7002 28.86 38.7002 29.46V33.3L33.7802 28.38C33.3602 27.96 32.7002 27.84 32.1002 28.08C31.5602 28.32 31.1402 28.86 31.1402 29.46V33.3L26.2202 28.38C25.8002 27.96 25.1402 27.84 24.5402 28.08C23.9402 28.32 23.5802 28.86 23.5802 29.46V34.5H21.6002L18.8402 18.72C18.6602 17.7 17.8202 16.98 16.8002 16.98H12.7802C11.6402 16.98 10.6802 17.94 10.6802 19.08V53.7H47.9402V35.04L41.3402 28.44C40.8602 27.96 40.2002 27.84 39.6602 28.08ZM18.2402 25.92H12.4802V23.34H17.8202L18.2402 25.92ZM12.4802 27.72H18.5402L19.0202 30.3H12.4802V27.72ZM12.7802 18.84H16.8002C16.9202 18.84 17.0402 18.96 17.1002 19.08L17.5202 21.48H12.5402V19.08C12.4802 18.96 12.6002 18.84 12.7802 18.84ZM46.1402 51.96H12.4802V32.1H19.3202L20.0402 36.36H25.5002V30.18L31.4402 36.12L31.7402 36.36H33.0002V30.18L38.9402 36.12L39.2402 36.36H40.5002V30.18L46.0802 35.76L46.1402 51.96Z" fill="#005AFF"></path><path d="M20.4601 40.56H17.9401C16.8001 40.56 15.8401 41.52 15.8401 42.66V45.18C15.8401 46.32 16.8001 47.28 17.9401 47.28H20.4601C21.6001 47.28 22.5601 46.32 22.5601 45.18V42.66C22.5601 41.52 21.6001 40.56 20.4601 40.56ZM20.7601 45.18C20.7601 45.36 20.6401 45.48 20.4601 45.48H17.9401C17.7601 45.48 17.6401 45.36 17.6401 45.18V42.66C17.6401 42.48 17.7601 42.36 17.9401 42.36H20.4601C20.6401 42.36 20.7601 42.48 20.7601 42.66V45.18Z" fill="#005AFF"></path><path d="M30.1803 40.56H27.6603C26.5203 40.56 25.5602 41.52 25.5602 42.66V45.18C25.5602 46.32 26.5203 47.28 27.6603 47.28H30.1803C31.3203 47.28 32.2803 46.32 32.2803 45.18V42.66C32.2803 41.52 31.3203 40.56 30.1803 40.56ZM30.4803 45.18C30.4803 45.36 30.3603 45.48 30.1803 45.48H27.6603C27.4803 45.48 27.3603 45.36 27.3603 45.18V42.66C27.3603 42.48 27.4803 42.36 27.6603 42.36H30.1803C30.3603 42.36 30.4803 42.48 30.4803 42.66V45.18Z" fill="#005AFF"></path><path d="M37.7402 40.56C36.6002 40.56 35.6402 41.52 35.6402 42.66V45.18C35.6402 46.32 36.6002 47.28 37.7402 47.28H40.2602C41.4002 47.28 42.3602 46.32 42.3602 45.18V42.66C42.3602 41.52 41.4002 40.56 40.2602 40.56H37.7402ZM40.5602 42.66V45.18C40.5602 45.36 40.4402 45.48 40.2602 45.48H37.7402C37.5602 45.48 37.4402 45.36 37.4402 45.18V42.66C37.4402 42.48 37.5602 42.36 37.7402 42.36H40.2602C40.4402 42.36 40.5602 42.54 40.5602 42.66Z" fill="#005AFF"></path><path d="M13.2603 12.9C13.2603 13.86 13.6803 14.76 14.4003 15.42C14.5803 15.6 14.7603 15.66 15.0003 15.66C15.2403 15.66 15.4803 15.54 15.6603 15.36C16.0203 15 15.9603 14.4 15.6003 14.1C15.2403 13.8 15.0603 13.38 15.0603 12.9C15.0603 12.42 15.2403 12 15.5403 11.64C16.2603 10.92 16.6203 9.95998 16.5603 8.99998C16.5003 8.03998 16.0203 7.07998 15.2403 6.47998C14.8203 6.17998 14.2803 6.23998 13.9803 6.65998C13.6803 7.07998 13.7403 7.61998 14.1603 7.91998C14.5203 8.21998 14.7603 8.63998 14.8203 9.11998C14.8203 9.59998 14.7003 10.08 14.3403 10.38C13.6203 11.04 13.2603 11.94 13.2603 12.9Z" fill="#005AFF"></path><path d="M49.3202 20.16C49.2002 18.42 47.7002 17.04 45.9002 16.98C45.8402 13.26 42.8402 10.32 39.1202 10.32C36.2402 10.32 33.7202 12.12 32.7602 14.82H32.4002C29.8802 14.82 27.8402 16.8 27.7802 19.26C27.7802 20.46 28.2002 21.66 29.1002 22.5C29.9402 23.4 31.0802 23.88 32.3402 23.88H45.9602C46.9202 23.88 47.8202 23.46 48.4802 22.8C49.0802 22.02 49.3802 21.12 49.3202 20.16ZM47.1002 21.48C46.8002 21.78 46.3802 22.02 45.9002 22.02H32.2802C31.5602 22.02 30.8402 21.72 30.3602 21.18C29.8202 20.64 29.5802 19.98 29.5802 19.2C29.5802 17.76 30.9002 16.56 32.4002 16.56C33.6602 16.56 34.6202 17.64 34.6202 18.96C34.6202 19.44 35.0402 19.86 35.5202 19.86C36.0002 19.86 36.4202 19.44 36.4202 18.96C36.4202 17.46 35.6402 16.14 34.5002 15.42C35.2202 13.44 37.0202 12.12 39.1802 12.12C41.9402 12.12 44.1602 14.34 44.1602 17.1C44.1602 17.1 44.1602 17.1 44.1602 17.16C44.1602 17.88 43.9802 18.6 43.5602 19.26C43.3202 19.68 43.4402 20.22 43.9202 20.46C44.0402 20.52 44.2202 20.58 44.3402 20.58C44.6402 20.58 44.9402 20.4 45.1202 20.1C45.3602 19.68 45.5402 19.26 45.6602 18.78H45.8402C46.7402 18.78 47.4602 19.44 47.5202 20.28C47.5802 20.7 47.4002 21.12 47.1002 21.48Z" fill="#005AFF"></path><path d="M24.0603 20.1H26.4003C26.8803 20.1 27.3003 19.68 27.3003 19.2C27.3003 18.72 26.8803 18.3 26.4003 18.3H24.0603C23.6403 18.3 23.2803 18.12 22.9803 17.82C22.6803 17.52 22.5603 17.1 22.5603 16.74C22.5603 15.9 23.2803 15.24 24.1803 15.24C24.7203 15.24 25.1403 15.6 25.3203 16.14C25.4403 16.5 25.8003 16.74 26.1603 16.74C26.2803 16.74 26.3403 16.74 26.4603 16.68C26.9403 16.5 27.1803 16.02 27.0603 15.54C26.8803 14.94 26.4603 14.4 25.9803 14.04C26.4603 12.96 27.5403 12.18 28.7403 12.18C29.7003 12.18 30.6603 12.66 31.2003 13.44C31.5003 13.86 32.0403 13.92 32.4603 13.62C32.8803 13.32 32.9403 12.78 32.6403 12.36C31.7403 11.1 30.2403 10.38 28.7403 10.38C26.7603 10.38 24.9603 11.58 24.2403 13.38H24.1803C22.3203 13.38 20.8203 14.88 20.7603 16.68C20.7603 17.58 21.0603 18.42 21.7203 19.08C22.3203 19.74 23.1603 20.1 24.0603 20.1Z" fill="#005AFF"></path><path d="M42.6002 15.42C41.8202 14.1 40.4402 13.32 38.9402 13.32C38.4602 13.32 38.0402 13.74 38.0402 14.22C38.0402 14.7 38.4602 15.12 38.9402 15.12C39.7802 15.12 40.6202 15.6 41.0402 16.32C41.1602 16.56 41.2802 16.8 41.3402 17.1C41.4002 17.52 41.8202 17.82 42.2402 17.82C42.3002 17.82 42.3601 17.82 42.4201 17.82C42.9002 17.7 43.2002 17.28 43.1402 16.74C42.9602 16.26 42.8402 15.84 42.6002 15.42Z" fill="#005AFF"></path></svg>