<svg xmlns="http://www.w3.org/2000/svg" width="60" height="60" viewBox="0 0 60 60" fill="none"><path d="M15.1798 13.44C15.7198 12.6 16.0198 11.64 16.0198 10.62C16.0198 7.80002 13.7398 5.52002 10.9198 5.52002C8.09983 5.52002 5.81982 7.80002 5.81982 10.62C5.81982 11.64 6.11982 12.6 6.65982 13.44L10.9198 20.52L15.1798 13.44ZM7.61982 10.62C7.61982 8.82002 9.11982 7.32002 10.9198 7.32002C12.7198 7.32002 14.2198 8.82002 14.2198 10.62C14.2198 11.28 14.0398 11.88 13.6798 12.42L10.9198 16.98L8.15982 12.42C7.79982 11.88 7.61982 11.28 7.61982 10.62Z" fill="#005AFF"></path><path d="M43.4999 33.9C40.6799 33.9 38.3999 36.18 38.3999 39C38.3999 40.02 38.6999 40.98 39.2399 41.82L43.4999 48.9L47.7599 41.82C48.2999 40.98 48.5999 40.02 48.5999 39C48.5999 36.24 46.2599 33.9 43.4999 33.9ZM46.1999 40.86L43.4399 45.42L40.6799 40.86C40.3199 40.32 40.1399 39.66 40.1399 39.06C40.1399 37.26 41.6399 35.76 43.4399 35.76C45.2399 35.76 46.7999 37.2 46.7999 39C46.7999 39.66 46.5599 40.32 46.1999 40.86Z" fill="#005AFF"></path><path d="M43.3798 50.94C41.9998 50.94 40.8598 51.84 40.4998 53.1H24.2998C19.6798 53.1 15.8998 49.32 15.8998 44.7C15.8998 40.08 19.6798 36.3 24.2998 36.3H28.6198C31.9798 36.3 34.6798 33.6 34.6798 30.24C34.6798 26.88 31.9798 24.18 28.6198 24.18H13.8598C13.4998 22.92 12.2998 22.02 10.9798 22.02C9.29982 22.02 7.91982 23.4 7.91982 25.08C7.91982 26.76 9.29982 28.14 10.9798 28.14C12.3598 28.14 13.4998 27.24 13.8598 25.98H28.6798C31.0198 25.98 32.9398 27.9 32.9398 30.24C32.9398 32.58 31.0198 34.5 28.6798 34.5H24.3598C18.7798 34.5 14.1598 39.06 14.1598 44.7C14.1598 50.34 18.7198 54.9 24.3598 54.9H40.4998C40.8598 56.16 42.0598 57.06 43.3798 57.06C45.0598 57.06 46.4398 55.68 46.4398 54C46.4398 52.26 45.0598 50.94 43.3798 50.94ZM10.9198 26.34C10.1998 26.34 9.65982 25.8 9.65982 25.08C9.65982 24.36 10.1998 23.82 10.9198 23.82C11.6398 23.82 12.1798 24.36 12.1798 25.08C12.1798 25.8 11.6398 26.34 10.9198 26.34ZM43.3798 55.26C42.6598 55.26 42.1198 54.72 42.1198 54C42.1198 53.28 42.6598 52.74 43.3798 52.74C44.0998 52.74 44.6398 53.28 44.6398 54C44.6398 54.66 44.0998 55.26 43.3798 55.26Z" fill="#005AFF"></path><path d="M43.4998 40.74C44.3945 40.74 45.1198 40.0147 45.1198 39.12C45.1198 38.2253 44.3945 37.5 43.4998 37.5C42.6051 37.5 41.8798 38.2253 41.8798 39.12C41.8798 40.0147 42.6051 40.74 43.4998 40.74Z" fill="#005AFF"></path><path d="M10.9199 12.3C11.8146 12.3 12.5399 11.5747 12.5399 10.68C12.5399 9.78526 11.8146 9.05996 10.9199 9.05996C10.0252 9.05996 9.2999 9.78526 9.2999 10.68C9.2999 11.5747 10.0252 12.3 10.9199 12.3Z" fill="#005AFF"></path><path d="M50.9998 6.12C50.7598 5.88 50.5198 5.7 50.2798 5.46C50.0398 5.28 49.7998 5.1 49.5597 4.92C47.8197 3.72 45.7197 3 43.4398 3C41.9398 3 40.5597 3.3 39.2998 3.84C38.6998 4.08 38.1598 4.38 37.6198 4.74C35.8798 5.88 34.4398 7.5 33.5998 9.42C33.2998 10.02 33.1198 10.68 32.9398 11.34C32.7598 12.12 32.6398 12.96 32.6398 13.8C32.6398 15.78 33.1798 17.64 34.1398 19.26C34.3198 19.56 34.4998 19.8 34.6798 20.04C34.8598 20.28 35.0398 20.58 35.2798 20.82C37.2598 23.1 40.1997 24.6 43.4398 24.6C49.3798 24.6 54.2398 19.74 54.2398 13.8C54.1798 10.74 52.9198 8.04 50.9998 6.12ZM44.3398 22.68V20.94C44.3398 20.46 43.9198 20.04 43.4398 20.04C42.9598 20.04 42.5398 20.46 42.5398 20.94V22.68C40.3798 22.5 38.4598 21.54 37.0198 20.1C36.7798 19.86 36.5997 19.62 36.3597 19.38C36.1797 19.14 35.9998 18.9 35.8198 18.6C35.0398 17.46 34.5598 16.08 34.4398 14.64H36.2398C36.7198 14.58 37.0798 14.22 37.0798 13.74C37.0798 13.26 36.6597 12.84 36.1798 12.84H34.4998C34.5597 12.12 34.7397 11.46 34.9797 10.8C35.6997 8.76 37.0798 7.08 38.9398 6.06C39.4798 5.76 40.0798 5.46 40.6798 5.28C41.2798 5.1 41.9398 4.98 42.5998 4.86V6.6C42.5998 7.08 43.0198 7.5 43.4998 7.5C43.9798 7.5 44.3998 7.08 44.3998 6.6V4.8C46.0798 4.98 47.5798 5.64 48.8398 6.6C49.0798 6.78 49.3197 7.02 49.5597 7.2C49.7998 7.44 49.9797 7.62 50.2197 7.86C51.4198 9.24 52.1998 10.92 52.3798 12.84H50.6398C50.1598 12.84 49.7398 13.26 49.7398 13.74C49.7398 14.22 50.1598 14.64 50.6398 14.64H52.3798C51.8998 18.84 48.5398 22.2 44.3398 22.68Z" fill="#005AFF"></path><path d="M46.7998 12.96C46.6798 12.9 46.4998 12.84 46.3798 12.84H44.0998C43.9198 12.72 43.7398 12.6 43.4998 12.6L40.3198 9.42C39.9598 9.06 39.4198 9.06 39.0598 9.42C38.6998 9.78 38.6998 10.32 39.0598 10.68L42.2398 13.86C42.2398 14.1 42.3598 14.34 42.5398 14.58C42.5398 14.58 42.5398 14.58 42.5998 14.64C42.8998 14.94 43.3198 15 43.6798 14.88C43.7998 14.82 43.9798 14.76 44.0998 14.64H46.3798C46.8598 14.64 47.2798 14.22 47.2798 13.74C47.2798 13.44 47.0998 13.14 46.7998 12.96Z" fill="#005AFF"></path></svg>