<svg xmlns="http://www.w3.org/2000/svg" width="60" height="60" viewBox="0 0 60 60" fill="none"><path d="M19.32 12.18C19.86 11.34 20.16 10.38 20.16 9.36001C20.16 6.54001 17.88 4.26001 15.06 4.26001C12.24 4.26001 9.95996 6.54001 9.95996 9.36001C9.95996 10.38 10.26 11.34 10.8 12.18L15.06 19.2L19.32 12.18ZM11.76 9.36001C11.76 7.56001 13.26 6.06001 15.06 6.06001C16.86 6.06001 18.36 7.56001 18.36 9.36001C18.36 10.02 18.18 10.62 17.82 11.16L15.06 15.72L12.3 11.16C11.94 10.62 11.76 10.02 11.76 9.36001Z" fill="#005AFF"></path><path d="M44.94 32.64C42.12 32.64 39.84 34.9201 39.84 37.7401C39.84 38.7601 40.1401 39.72 40.6801 40.56L44.94 47.64L49.2 40.56C49.74 39.72 50.04 38.7601 50.04 37.7401C50.04 34.9201 47.76 32.64 44.94 32.64ZM47.7 39.6L44.94 44.16L42.18 39.6C41.82 39.06 41.6401 38.4 41.6401 37.8C41.6401 36 43.14 34.5 44.94 34.5C46.74 34.5 48.24 36 48.24 37.8C48.24 38.4 48.06 39.06 47.7 39.6Z" fill="#005AFF"></path><path d="M44.88 49.62C43.5 49.62 42.36 50.52 42 51.78H28.44C23.82 51.78 20.04 48 20.04 43.38C20.04 38.76 23.82 34.98 28.44 34.98H32.76C36.12 34.98 38.82 32.28 38.82 28.92C38.82 25.56 36.12 22.86 32.76 22.86H17.94C17.58 21.6 16.38 20.7 15.06 20.7C13.38 20.7 12 22.08 12 23.76C12 25.44 13.38 26.82 15.06 26.82C16.44 26.82 17.58 25.92 17.94 24.66H32.76C35.1 24.66 37.02 26.58 37.02 28.92C37.02 31.26 35.1 33.18 32.76 33.18H28.44C22.8 33.18 18.24 37.74 18.24 43.38C18.24 49.02 22.8 53.58 28.44 53.58H41.94C42.3 54.84 43.5 55.74 44.82 55.74C46.5 55.74 47.88 54.36 47.88 52.68C47.94 51 46.56 49.62 44.88 49.62ZM15.06 25.08C14.34 25.08 13.8 24.54 13.8 23.82C13.8 23.1 14.34 22.56 15.06 22.56C15.78 22.56 16.32 23.1 16.32 23.82C16.32 24.54 15.72 25.08 15.06 25.08ZM44.88 53.94C44.16 53.94 43.62 53.4 43.62 52.68C43.62 51.96 44.16 51.42 44.88 51.42C45.6 51.42 46.14 51.96 46.14 52.68C46.14 53.4 45.54 53.94 44.88 53.94Z" fill="#005AFF"></path><path d="M44.9999 39.48C45.8946 39.48 46.6199 38.7547 46.6199 37.86C46.6199 36.9653 45.8946 36.24 44.9999 36.24C44.1052 36.24 43.3799 36.9653 43.3799 37.86C43.3799 38.7547 44.1052 39.48 44.9999 39.48Z" fill="#005AFF"></path><path d="M15.06 10.98C15.9547 10.98 16.68 10.2547 16.68 9.35999C16.68 8.46529 15.9547 7.73999 15.06 7.73999C14.1653 7.73999 13.44 8.46529 13.44 9.35999C13.44 10.2547 14.1653 10.98 15.06 10.98Z" fill="#005AFF"></path></svg>