<svg xmlns="http://www.w3.org/2000/svg" width="60" height="60" viewBox="0 0 60 60" fill="none"><path d="M32.34 27.8399L33.66 29.1599H22.8C22.32 29.1599 21.9 29.5799 21.9 30.0599C21.9 30.5399 22.32 30.9599 22.8 30.9599H33.66L32.34 32.2799C31.98 32.6399 31.98 33.1799 32.34 33.5399C32.52 33.7199 32.76 33.7799 33 33.7799C33.24 33.7799 33.48 33.7199 33.66 33.5399L37.14 30.0599L33.66 26.5799C33.3 26.2199 32.76 26.2199 32.4 26.5799C32.04 26.9399 31.98 27.5399 32.34 27.8399Z" fill="#005AFF"></path><path d="M56.04 26.5799C55.68 26.2199 55.14 26.2199 54.78 26.5799C54.42 26.9399 54.42 27.4799 54.78 27.8399L56.1 29.1599H51.3C48.48 29.1599 46.2 26.8799 46.2 24.0599C46.2 20.2799 43.14 17.1599 39.3 17.1599H37.62C37.14 17.1599 36.72 17.5799 36.72 18.0599C36.72 18.5399 37.14 18.9599 37.62 18.9599H39.3C42.12 18.9599 44.4 21.2399 44.4 24.0599C44.4 26.0999 45.3 27.8999 46.68 29.1599H45.36C41.58 29.1599 38.46 32.2199 38.46 36.0599C38.46 38.8799 36.18 41.1599 33.36 41.1599H31.5C31.02 41.1599 30.6 41.5799 30.6 42.0599C30.6 42.5399 31.02 42.9599 31.5 42.9599H33.36C37.14 42.9599 40.26 39.8999 40.26 36.0599C40.26 33.2399 42.54 30.9599 45.36 30.9599H56.1L54.78 32.2799C54.42 32.6399 54.42 33.1799 54.78 33.5399C54.96 33.7199 55.2 33.7799 55.44 33.7799C55.68 33.7799 55.92 33.7199 56.1 33.5399L59.58 30.0599L56.04 26.5799Z" fill="#005AFF"></path><path d="M10.44 30.9599H13.56C17.34 30.9599 20.46 27.8999 20.46 24.0599C20.46 21.2399 22.74 18.9599 25.56 18.9599H29.28L27.96 20.2799C27.6 20.6399 27.6 21.1799 27.96 21.5399C28.14 21.7199 28.38 21.7799 28.62 21.7799C28.86 21.7799 29.1 21.7199 29.28 21.5399L32.76 18.0599L29.28 14.5799C28.92 14.2199 28.38 14.2199 28.02 14.5799C27.66 14.9399 27.66 15.4799 28.02 15.8399L29.34 17.1599H25.62C21.84 17.1599 18.72 20.2199 18.72 24.0599C18.72 26.8799 16.44 29.1599 13.62 29.1599H10.5C10.02 29.1599 9.6 29.5799 9.6 30.0599C9.6 30.5399 9.96 30.9599 10.44 30.9599Z" fill="#005AFF"></path><path d="M22.14 38.5799C21.78 38.9399 21.78 39.4799 22.14 39.8399L23.46 41.1599H13.56C10.74 41.1599 8.45998 38.8799 8.45998 36.0599C8.45998 32.2799 5.39998 29.1599 1.55998 29.1599H1.37998C0.89998 29.1599 0.47998 29.5799 0.47998 30.0599C0.47998 30.5399 0.89998 30.9599 1.37998 30.9599H1.55998C4.37998 30.9599 6.65998 33.2399 6.65998 36.0599C6.65998 39.8399 9.71998 42.9599 13.56 42.9599H23.46L22.14 44.2799C21.78 44.6399 21.78 45.1799 22.14 45.5399C22.32 45.7199 22.56 45.7799 22.8 45.7799C23.04 45.7799 23.28 45.7199 23.46 45.5399L26.94 42.0599L23.4 38.5799C23.04 38.2199 22.5 38.2199 22.14 38.5799Z" fill="#005AFF"></path></svg>