<svg xmlns="http://www.w3.org/2000/svg" width="60" height="60" viewBox="0 0 60 60" fill="none"><path d="M44.875 14H38.5H30H21.5H15.125C13.9509 14 13 14.9547 13 16.1333V43.8667C13 45.0453 13.9509 46 15.125 46H21.5H30H38.5H44.875C46.0491 46 47 45.0453 47 43.8667V16.1333C47 14.9547 46.0491 14 44.875 14ZM16.1875 16.1333H17.2946C17.8811 16.1333 18.3571 16.6112 18.3571 17.2V30.0224C18.3571 30.5995 18.8225 31.0667 19.3973 31.0667C19.9721 31.0667 20.4375 31.5339 20.4375 32.1109V42.8C20.4375 43.3888 19.9615 43.8667 19.375 43.8667H16.1875C15.601 43.8667 15.125 43.3888 15.125 42.8V17.2C15.125 16.6112 15.601 16.1333 16.1875 16.1333ZM23.6027 31.0667H23.6473C24.2221 31.0667 24.6875 30.5995 24.6875 30.0224V17.1776C24.6875 16.6005 25.1529 16.1333 25.7277 16.1333H25.7723C26.3471 16.1333 26.8125 16.6005 26.8125 17.1776V30.0224C26.8125 30.5995 27.2779 31.0667 27.8527 31.0667H27.8973C28.4721 31.0667 28.9375 31.5339 28.9375 32.1109V42.8C28.9375 43.3888 28.4615 43.8667 27.875 43.8667H23.625C23.0385 43.8667 22.5625 43.3888 22.5625 42.8V32.1109C22.5625 31.5339 23.0279 31.0667 23.6027 31.0667ZM32.1027 31.0667C32.6775 31.0667 33.1429 30.5995 33.1429 30.0224V17.1776C33.1429 16.6005 33.6093 16.1333 34.1831 16.1333H34.2712C34.8471 16.1333 35.3125 16.6005 35.3125 17.1776V30.0224C35.3125 30.5995 35.7779 31.0667 36.3527 31.0667H36.3973C36.9721 31.0667 37.4375 31.5339 37.4375 32.1109V42.8C37.4375 43.3888 36.9615 43.8667 36.375 43.8667H32.125C31.5385 43.8667 31.0625 43.3888 31.0625 42.8V32.1109C31.0625 31.5339 31.5279 31.0667 32.1027 31.0667ZM43.8125 43.8667H40.625C40.0385 43.8667 39.5625 43.3888 39.5625 42.8V32.1109C39.5625 31.5339 40.0279 31.0667 40.6027 31.0667C41.1775 31.0667 41.6429 30.5995 41.6429 30.0224V17.2C41.6429 16.6112 42.1189 16.1333 42.7054 16.1333H43.8125C44.399 16.1333 44.875 16.6112 44.875 17.2V42.8C44.875 43.3888 44.399 43.8667 43.8125 43.8667Z" fill="#005AFF"></path></svg>