<svg xmlns="http://www.w3.org/2000/svg" width="60" height="60" viewBox="0 0 60 60" fill="none"><path d="M29.6999 13.62L13.8599 23.64V46.38H46.1999V23.64L29.6999 13.62ZM21.6599 33H38.3399V34.44H21.6599V33ZM38.3399 37.92H21.6599V36.24H38.3399V37.92ZM21.6599 39.72H38.3399V41.4H21.6599V39.72ZM21.6599 43.2H38.3399V44.58H21.6599V43.2ZM44.3399 44.58H40.1399V33C40.1399 32.04 39.3599 31.2 38.3399 31.2H21.6599C20.6999 31.2 19.8599 31.98 19.8599 33V44.64H15.6599V24.66L29.7599 15.78L44.3999 24.72L44.3399 44.58Z" fill="#005AFF"></path><path d="M24.0599 25.74C24.0599 26.22 24.4799 26.64 24.9599 26.64H34.5599C35.0399 26.64 35.4599 26.22 35.4599 25.74C35.4599 25.26 35.0399 24.84 34.5599 24.84H24.9599C24.4799 24.84 24.0599 25.26 24.0599 25.74Z" fill="#005AFF"></path></svg>