<svg xmlns="http://www.w3.org/2000/svg" width="60" height="60" viewBox="0 0 60 60" fill="none"><path d="M20.9399 37.92C18.7799 37.92 17.0399 39.66 17.0399 41.82C17.0399 43.98 18.7799 45.72 20.9399 45.72C23.0999 45.72 24.8399 43.98 24.8399 41.82C24.8399 39.66 23.0999 37.92 20.9399 37.92ZM20.9399 43.92C19.7999 43.92 18.8399 42.96 18.8399 41.82C18.8399 40.68 19.7999 39.72 20.9399 39.72C22.0799 39.72 23.0399 40.68 23.0399 41.82C23.0399 42.96 22.0799 43.92 20.9399 43.92Z" fill="#005AFF"></path><path d="M20.94 42.9C21.5365 42.9 22.02 42.4164 22.02 41.82C22.02 41.2235 21.5365 40.74 20.94 40.74C20.3435 40.74 19.86 41.2235 19.86 41.82C19.86 42.4164 20.3435 42.9 20.94 42.9Z" fill="#005AFF"></path><path d="M45.96 37.92C43.8 37.92 42.06 39.66 42.06 41.82C42.06 43.98 43.8 45.72 45.96 45.72C48.12 45.72 49.86 43.98 49.86 41.82C49.86 39.66 48.12 37.92 45.96 37.92ZM45.96 43.92C44.82 43.92 43.86 42.96 43.86 41.82C43.86 40.68 44.82 39.72 45.96 39.72C47.1 39.72 48.06 40.68 48.06 41.82C48.06 42.96 47.16 43.92 45.96 43.92Z" fill="#005AFF"></path><path d="M45.96 42.9C46.5564 42.9 47.04 42.4164 47.04 41.82C47.04 41.2235 46.5564 40.74 45.96 40.74C45.3635 40.74 44.88 41.2235 44.88 41.82C44.88 42.4164 45.3635 42.9 45.96 42.9Z" fill="#005AFF"></path><path d="M40.0799 41.22H26.6399C26.1599 41.22 25.7399 41.64 25.7399 42.12C25.7399 42.6 26.1599 43.02 26.6399 43.02H40.0199C40.4999 43.02 40.9199 42.6 40.9199 42.12C40.9199 41.64 40.5599 41.22 40.0799 41.22Z" fill="#005AFF"></path><path d="M51.78 19.14C51.78 19.08 51.78 19.02 51.78 18.96C51.66 18.24 51.12 17.58 50.34 17.46L36.36 14.64C35.82 14.52 35.28 14.7 34.86 15C34.44 15.3 34.2 15.84 34.2 16.38V18.36C33.24 18.72 32.52 19.68 32.52 20.76V34.98H27.54V34.32H29.76C30.78 34.32 31.56 33.54 31.56 32.52V16.08C31.56 15.06 30.78 14.28 29.76 14.28H9.11997C8.63997 14.28 8.21997 14.7 8.21997 15.18C8.21997 15.66 8.63997 16.08 9.11997 16.08H29.82V32.52H17.94C17.46 32.52 17.04 32.94 17.04 33.42C17.04 33.9 17.46 34.32 17.94 34.32H22.74V34.98H20.4C16.92 34.98 14.1 37.8 14.1 41.28V41.76C14.1 42.24 14.52 42.66 15 42.66C15.48 42.66 15.9 42.24 15.9 41.76V41.28C15.9 38.82 17.94 36.78 20.4 36.78H34.32V20.82C34.32 20.4 34.68 20.04 35.1 20.04H41.1V26.82C41.1 28.56 42.54 30 44.28 30H50.04V38.82C50.04 39.3 50.46 39.72 50.94 39.72C51.42 39.72 51.84 39.3 51.84 38.82V19.2C51.78 19.14 51.78 19.14 51.78 19.14ZM24.54 34.32H25.74V34.98H24.54V34.32ZM36 16.38L45.18 18.24H36V16.38ZM44.22 28.14C43.5 28.14 42.84 27.54 42.84 26.76V20.04H49.92V28.2L44.22 28.14Z" fill="#005AFF"></path><path d="M25.14 23.88H16.86C16.38 23.88 15.96 24.3 15.96 24.78C15.96 25.26 16.38 25.68 16.86 25.68H25.14C25.62 25.68 26.04 25.26 26.04 24.78C26.04 24.3 25.62 23.88 25.14 23.88Z" fill="#005AFF"></path><path d="M25.14 27.9H21.36C20.88 27.9 20.46 28.32 20.46 28.8C20.46 29.28 20.88 29.7 21.36 29.7H25.14C25.62 29.7 26.04 29.28 26.04 28.8C26.04 28.32 25.62 27.9 25.14 27.9Z" fill="#005AFF"></path><path d="M26.04 19.92C26.04 19.44 25.62 19.02 25.14 19.02H12.36C11.88 19.02 11.46 19.44 11.46 19.92C11.46 20.4 11.88 20.82 12.36 20.82H25.14C25.62 20.82 26.04 20.4 26.04 19.92Z" fill="#005AFF"></path><path d="M45.9 32.6399C46.38 32.6399 46.8 32.2199 46.8 31.7399C46.8 31.2599 46.38 30.8399 45.9 30.8399H43.86C43.38 30.8399 42.96 31.2599 42.96 31.7399C42.96 32.2199 43.38 32.6399 43.86 32.6399H45.9Z" fill="#005AFF"></path></svg>