<svg xmlns="http://www.w3.org/2000/svg" width="60" height="60" viewBox="0 0 60 60" fill="none"><path d="M30.8398 38.22V34.26C30.8398 33.78 30.4198 33.36 29.9398 33.36C29.4598 33.36 29.0398 33.78 29.0398 34.26V38.22C29.0398 38.7 29.4598 39.12 29.9398 39.12C30.4198 39.12 30.8398 38.7 30.8398 38.22Z" fill="#005AFF"></path><path d="M25.9198 33.5399C25.4998 33.2399 24.9598 33.3599 24.6598 33.7799L23.0398 36.1199C22.7398 36.5399 22.8598 37.0799 23.2798 37.3799C23.4598 37.4999 23.6398 37.5599 23.7598 37.5599C24.0598 37.5599 24.3598 37.4399 24.4798 37.1399L26.0998 34.7999C26.4598 34.3799 26.3398 33.7799 25.9198 33.5399Z" fill="#005AFF"></path><path d="M35.2799 33.7799C34.9799 33.3599 34.4399 33.2399 34.0199 33.5399C33.5999 33.8399 33.4799 34.3799 33.7799 34.7999L35.3999 37.1399C35.5799 37.3799 35.8799 37.5599 36.1199 37.5599C36.2999 37.5599 36.4799 37.4999 36.5999 37.3799C37.0199 37.0799 37.1399 36.5399 36.8399 36.1199L35.2799 33.7799Z" fill="#005AFF"></path><path d="M29.9998 30.2399C31.6198 30.2399 32.9998 29.1599 33.3598 27.6599H37.9198C38.3998 27.6599 38.8198 27.2399 38.8198 26.7599C38.8198 26.2799 38.3998 25.8599 37.9198 25.8599H33.3598C32.9398 24.3599 31.6198 23.2799 29.9998 23.2799C28.3798 23.2799 26.9998 24.3599 26.6398 25.8599H21.8398C21.3598 25.8599 20.9398 26.2799 20.9398 26.7599C20.9398 27.2399 21.3598 27.6599 21.8398 27.6599H26.6398C27.0598 29.1599 28.3798 30.2399 29.9998 30.2399ZM29.9998 25.0199C30.9598 25.0199 31.6798 25.7999 31.6798 26.6999C31.6798 27.5999 30.8998 28.3799 29.9998 28.3799C29.0998 28.3799 28.3198 27.5999 28.3198 26.6999C28.3198 25.7999 29.0998 25.0199 29.9998 25.0199Z" fill="#005AFF"></path><path d="M49.3199 50.5199L37.3199 40.1399L43.4999 37.9799L41.6999 34.2599C42.8399 33.6599 43.5599 32.5199 43.5599 31.2599V24.0599C43.5599 22.4999 42.4799 21.1799 40.7999 20.6999V15.5999C40.7999 13.9199 39.4799 12.4799 37.6799 12.1799L35.4599 11.8199V9.83992C35.4599 8.75992 34.4999 7.91992 33.2999 7.91992H26.6999C25.4999 7.91992 24.5399 8.75992 24.5399 9.83992V11.8199L22.3199 12.1799C20.5199 12.4799 19.1999 13.9199 19.1999 15.5999V20.7599C17.5799 21.1799 16.4399 22.5599 16.4399 24.1199V31.3199C16.4399 32.5799 17.2199 33.7199 18.3599 34.3199L16.6199 38.0399L22.7999 40.1999L10.7999 50.5799C10.4399 50.8799 10.3799 51.4799 10.6799 51.8399C10.8599 52.0199 11.0999 52.1399 11.3399 52.1399C11.5199 52.1399 11.7599 52.0799 11.9399 51.8999L15.8999 48.4799H44.2199L48.1799 51.8999C48.3599 52.0199 48.5399 52.1399 48.7799 52.1399C49.0199 52.1399 49.2599 52.0199 49.4399 51.8399C49.7399 51.4199 49.6799 50.8799 49.3199 50.5199ZM38.9999 15.5999V20.2799L37.6199 19.9199L33.7199 16.4999C33.3599 16.1999 32.7599 16.1999 32.4599 16.5599C32.1599 16.9199 32.1599 17.5199 32.5199 17.8199L33.7199 18.8399L30.8399 18.0599V12.8399L37.3799 13.9799C38.3399 14.0999 38.9999 14.8199 38.9999 15.5999ZM26.2799 9.83992C26.2799 9.77992 26.4599 9.71992 26.6399 9.71992H33.2399C33.4799 9.71992 33.5999 9.83992 33.5999 9.83992V11.5199L29.9399 10.8599L26.2799 11.5199V9.83992ZM20.9399 15.5999C20.9399 14.8199 21.5999 14.0999 22.5599 13.9799L29.0999 12.8399V18.0599L27.8399 18.4199L25.6199 16.4399C25.2599 16.1399 24.6599 16.1399 24.3599 16.4999C24.0599 16.8599 24.0599 17.4599 24.4199 17.7599L25.7399 18.9599L20.9399 20.2799V15.5999ZM20.0399 34.7399C20.0999 34.7399 20.1599 34.7399 20.2199 34.7399C20.6999 34.7399 21.1199 34.3199 21.1199 33.8399C21.1199 33.3599 20.6999 32.9399 20.2199 32.9399C19.0799 32.9399 18.1799 32.1599 18.1799 31.2599V24.0599C18.1799 23.3399 18.7199 22.6799 19.6199 22.4399L29.9999 19.6199L40.3799 22.4399C41.2199 22.6799 41.8199 23.2799 41.8199 24.0599V31.2599C41.8199 32.1599 40.9199 32.9399 39.7799 32.9399C39.2999 32.9399 38.8799 33.3599 38.8799 33.8399C38.8799 34.3199 39.2999 34.7399 39.7799 34.7399C39.8399 34.7399 39.9599 34.7399 40.0199 34.7399L41.0399 36.9599L29.9999 40.7999L19.0199 36.9599L20.0399 34.7399ZM29.9999 42.7199L35.3399 40.8599L38.0399 43.1999H21.9599L24.6599 40.8599L29.9999 42.7199ZM17.9399 46.6799L19.9199 44.9999H40.1399L42.1199 46.6799H17.9399Z" fill="#005AFF"></path></svg>