<svg xmlns="http://www.w3.org/2000/svg" width="60" height="60" viewBox="0 0 60 60" fill="none"><path d="M11.8802 40.08C10.3802 40.08 9.18018 41.28 9.18018 42.78C9.18018 44.28 10.3802 45.48 11.8802 45.48C13.3802 45.48 14.5802 44.28 14.5802 42.78C14.5802 41.28 13.3202 40.08 11.8802 40.08ZM11.8802 43.62C11.4002 43.62 10.9802 43.2 10.9802 42.72C10.9802 42.24 11.4002 41.82 11.8802 41.82C12.3602 41.82 12.7802 42.24 12.7802 42.72C12.7802 43.2 12.3602 43.62 11.8802 43.62Z" fill="#005AFF"></path><path d="M29.5201 37.02C26.3401 37.02 23.8201 39.6 23.8201 42.72C23.8201 43.08 23.8801 43.44 23.9401 43.74H17.5201C17.5801 43.38 17.6401 43.08 17.6401 42.72C17.6401 39.54 15.0601 37.02 11.9401 37.02C8.82013 37.02 6.24013 39.6 6.24013 42.72C6.24013 45.9 8.82013 48.42 11.9401 48.42C14.0401 48.42 15.9001 47.28 16.9201 45.54H24.6001C25.5601 47.28 27.4201 48.42 29.5801 48.42C32.7601 48.42 35.2801 45.84 35.2801 42.72C35.2801 39.6 32.7001 37.02 29.5201 37.02ZM11.8801 46.68C9.72013 46.68 7.98013 44.94 7.98013 42.78C7.98013 40.62 9.72013 38.88 11.8801 38.88C14.0401 38.88 15.7801 40.62 15.7801 42.78C15.7801 44.94 14.0401 46.68 11.8801 46.68ZM29.5201 46.68C27.3601 46.68 25.6201 44.94 25.6201 42.78C25.6201 40.62 27.3601 38.88 29.5201 38.88C31.6801 38.88 33.4201 40.62 33.4201 42.78C33.4801 44.94 31.7401 46.68 29.5201 46.68Z" fill="#005AFF"></path><path d="M29.5202 40.08C28.0202 40.08 26.8202 41.28 26.8202 42.78C26.8202 44.28 28.0202 45.48 29.5202 45.48C31.0202 45.48 32.2202 44.28 32.2202 42.78C32.2202 41.28 31.0202 40.08 29.5202 40.08ZM29.5202 43.62C29.0402 43.62 28.6202 43.2 28.6202 42.72C28.6202 42.24 29.0402 41.82 29.5202 41.82C30.0002 41.82 30.4202 42.24 30.4202 42.72C30.4202 43.2 30.0002 43.62 29.5202 43.62Z" fill="#005AFF"></path><path d="M38.9402 11.52C38.4602 11.52 38.0402 11.94 38.0402 12.42V34.38H34.0202V30.9H31.6202C30.3002 30.9 29.2202 31.98 29.2202 33.3C29.2202 33.72 29.3402 34.08 29.5202 34.38H28.8002L24.1802 18.78C23.7602 17.34 22.4402 16.38 20.9402 16.38H11.8802C10.9202 16.38 10.1402 17.1 10.0202 18.06L8.40018 30.72H8.10018C7.08018 30.72 6.18018 31.56 6.18018 32.64V35.34C6.18018 35.82 6.60018 36.24 7.08018 36.24C7.56018 36.24 7.98018 35.82 7.98018 35.34V32.64C7.98018 32.58 8.04018 32.52 8.10018 32.52H16.4402L20.4602 36.18H35.3402V39.18C35.3402 40.32 36.3002 41.28 37.4402 41.28H38.0402V44.88C38.0402 45.36 38.4602 45.78 38.9402 45.78C39.4202 45.78 39.8402 45.36 39.8402 44.88V12.42C39.8402 11.94 39.4202 11.52 38.9402 11.52ZM31.6202 32.7H32.2202V33.9H31.6202C31.3202 33.9 31.0202 33.66 31.0202 33.3C31.0202 32.94 31.3202 32.7 31.6202 32.7ZM17.1002 30.72H16.0202L15.2402 23.94C15.1802 23.46 14.7602 23.1 14.2202 23.16C13.7402 23.22 13.3802 23.64 13.4402 24.18L14.1602 30.78H10.2002L11.7602 18.3C11.7602 18.24 11.8202 18.24 11.8802 18.24H20.9402C21.6602 18.24 22.2602 18.72 22.4402 19.38L26.8802 34.5H21.0602L17.1002 30.72Z" fill="#005AFF"></path><path d="M52.9803 40.0801H42.1803C42.1203 40.0801 42.0602 40.0201 42.0602 39.9601V27.4801C42.0602 27.0001 41.6402 26.5801 41.1602 26.5801C40.6802 26.5801 40.2602 27.0001 40.2602 27.4801V39.9601C40.2602 40.9801 41.1003 41.8801 42.1803 41.8801H52.9803C53.4603 41.8801 53.8803 41.4601 53.8803 40.9801C53.8803 40.5001 53.4603 40.0801 52.9803 40.0801Z" fill="#005AFF"></path></svg>