<svg width="50" height="50" viewBox="0 0 50 50" fill="none" xmlns="http://www.w3.org/2000/svg">
<path fill-rule="evenodd" clip-rule="evenodd" d="M3.66048 0.170585C1.95651 0.628466 0.619996 1.98317 0.170492 3.70791C-0.0568307 4.58005 -0.0568307 45.4116 0.170492 46.2837C0.625843 48.0307 1.96508 49.3734 3.70382 49.8261C4.59497 50.058 22.8651 50.058 23.7562 49.8261C25.495 49.3734 26.8342 48.0307 27.2895 46.2837C27.4164 45.7971 27.44 44.5258 27.44 38.1721V30.6375H32.0313H36.6227L36.8701 30.3901L37.1176 30.1429V25.3678V20.5926L37.6468 20.7421C38.4168 20.9595 40.6227 20.9623 41.4019 20.7468C43.5586 20.1505 45.1485 19.019 46.3022 17.2594C47.1902 15.9049 47.5468 14.658 47.5468 12.9065C47.5468 11.1551 47.1902 9.90819 46.3022 8.55369C43.4551 4.21112 37.443 3.59527 33.8079 7.27384C32.969 8.12271 32.267 9.27602 31.9111 10.3895L31.6235 11.2898L29.5317 11.2922L27.44 11.2946V7.78975C27.44 4.96761 27.4099 4.16951 27.2856 3.69269C26.8327 1.95506 25.4891 0.616679 23.741 0.161618C22.892 -0.0594139 4.48549 -0.0511528 3.66048 0.170585ZM23.9729 1.94509C24.7377 2.34827 25.0508 2.65191 25.4275 3.35591C25.7497 3.95775 25.7695 4.05477 25.8093 5.22481L25.8513 6.45892H13.73H1.60872L1.65389 5.22481C1.69189 4.18866 1.73786 3.9099 1.94089 3.48697C2.35471 2.62471 3.19041 1.94005 4.10282 1.71569C4.26916 1.67479 8.69212 1.6486 13.9316 1.65746L23.458 1.67358L23.9729 1.94509ZM11.3106 4.04107V4.84702H13.73H16.1494V4.04107V3.23511H13.73H11.3106V4.04107ZM40.8979 6.60913C43.0759 7.06218 45.0208 8.8524 45.7144 11.0428C46.0311 12.0429 46.0311 13.7702 45.7144 14.7703C45.0804 16.7727 43.4056 18.4464 41.4019 19.08C40.4012 19.3966 38.6727 19.3966 37.672 19.08C34.9813 18.2291 33.0887 15.6798 33.0887 12.9065C33.0887 10.5293 34.4959 8.24461 36.6135 7.18387C37.998 6.49035 39.4135 6.30045 40.8979 6.60913ZM25.827 9.68273V11.2946H21.2357H16.6443L16.3969 11.542L16.1494 11.7892V20.966V30.1429L16.3969 30.3901L16.6443 30.6375H21.2357H25.827V34.6672V38.697H13.73H1.63302V23.3839V8.07082H13.73H25.827V9.68273ZM40.0172 12.0734L37.9275 14.1617L37.4435 13.6853C37.1772 13.4231 36.9139 13.2088 36.8583 13.2088C36.7256 13.2088 35.807 14.1422 35.807 14.277C35.807 14.3343 36.2095 14.7748 36.7013 15.2558C38.0201 16.5454 37.7389 16.6571 40.7672 13.6396C42.142 12.2697 43.2669 11.1006 43.2669 11.0417C43.2669 10.9086 42.3384 9.98496 42.2046 9.98496C42.1509 9.98496 41.1666 10.9247 40.0172 12.0734ZM6.88564 13.066C6.06707 13.2859 5.38228 13.6958 4.70898 14.3686C3.44817 15.6287 3.01026 17.1679 3.39555 18.9853C3.61229 20.0076 3.94445 20.5844 5.86032 23.2651C7.09613 24.9943 7.67245 25.7202 7.84352 25.7631C8.39 25.9002 8.52055 25.7679 10.3092 23.2651C12.2251 20.5844 12.5572 20.0076 12.774 18.9853C13.0409 17.7266 12.8901 16.5073 12.3412 15.4856C11.9893 14.8302 10.9992 13.8405 10.3441 13.4891C9.29637 12.9271 7.99493 12.7678 6.88564 13.066ZM23.4076 16.689V20.4715L23.6551 20.7187C23.8144 20.878 24.017 20.966 24.2242 20.966C24.4965 20.966 24.7058 20.8086 25.5896 19.9395L26.6335 18.9129L27.6774 19.9395C28.5611 20.8086 28.7705 20.966 29.0428 20.966C29.25 20.966 29.4526 20.878 29.6119 20.7187L29.8594 20.4715V16.689V12.9065H30.6658H31.4723V13.2503C31.4723 13.7414 31.7257 14.9703 31.9727 15.676C32.4473 17.033 33.7123 18.6577 34.9656 19.5204L35.5046 19.8913V22.8465V25.8018H26.6335H17.7624V19.3541V12.9065H20.585H23.4076V16.689ZM28.2464 15.5419V18.1772L27.5999 17.5568C27.0851 17.0627 26.8881 16.9363 26.6335 16.9363C26.3788 16.9363 26.1819 17.0627 25.667 17.5568L25.0206 18.1772V15.5419V12.9065H26.6335H28.2464V15.5419ZM9.31834 14.7986C9.97199 15.0875 10.6529 15.7509 10.981 16.4183C11.3628 17.1955 11.3718 18.4049 11.0022 19.2861C10.7871 19.7992 8.21832 23.5781 8.08475 23.5781C7.95078 23.5781 5.3841 19.8013 5.18238 19.3075C5.05536 18.9964 4.92481 18.4577 4.89235 18.1104C4.66664 15.695 7.14734 13.8388 9.31834 14.7986ZM7.27829 28.2196V29.0256H8.08475H8.89122V28.2196V27.4137H8.08475H7.27829V28.2196ZM35.5046 28.2196V29.0256H26.6335H17.7624V28.2196V27.4137H26.6335H35.5046V28.2196ZM7.27829 31.4434V32.2494H8.08475H8.89122V31.4434V30.6375H8.08475H7.27829V31.4434ZM7.27829 34.6672V35.4732H8.08475H8.89122V34.6672V33.8613H8.08475H7.27829V34.6672ZM10.5042 34.6672V35.4732H11.3106H12.1171V34.6672V33.8613H11.3106H10.5042V34.6672ZM13.73 34.6672V35.4732H14.5365H15.343V34.6672V33.8613H14.5365H13.73V34.6672ZM16.9559 34.6672V35.4732H17.7624H18.5688V34.6672V33.8613H17.7624H16.9559V34.6672ZM20.1818 34.6672V35.4732H20.9882H21.7947V34.6672V33.8613H20.9882H20.1818V34.6672ZM23.4076 34.6672V35.4732H24.2141H25.0206V34.6672V33.8613H24.2141H23.4076V34.6672ZM28.2464 34.6672V35.4732H29.0529H29.8594V34.6672V33.8613H29.0529H28.2464V34.6672ZM31.4723 34.6672V35.4732H32.2788H33.0852V34.6672V33.8613H32.2788H31.4723V34.6672ZM43.9831 35.6327C43.1645 35.8526 42.4798 36.2624 41.8065 36.9353C40.5456 38.1954 40.1077 39.7345 40.493 41.552C40.7098 42.5742 41.0419 43.1511 42.9578 45.8318C44.1936 47.5609 44.7699 48.2868 44.941 48.3297C45.4875 48.4668 45.618 48.3346 47.4067 45.8318C49.3225 43.1511 49.6547 42.5742 49.8714 41.552C50.1384 40.2933 49.9876 39.074 49.4387 38.0522C49.0867 37.3969 48.0967 36.4072 47.4415 36.0558C46.3938 35.4937 45.0924 35.3345 43.9831 35.6327ZM31.4723 37.891V38.697H32.2788H33.0852V37.891V37.0851H32.2788H31.4723V37.891ZM46.4158 37.3653C47.0695 37.6542 47.7504 38.3176 48.0784 38.9849C48.4603 39.7622 48.4693 40.9716 48.0997 41.8528C47.8846 42.3659 45.3158 46.1448 45.1822 46.1448C45.0482 46.1448 42.4816 42.368 42.2798 41.8741C42.1528 41.563 42.0223 41.0244 41.9898 40.677C41.7641 38.2617 44.2448 36.4055 46.4158 37.3653ZM25.8089 43.1549L25.7766 46.0009L25.4322 46.6357C25.0496 47.3408 24.7357 47.6445 23.9729 48.0465L23.458 48.318H13.73H4.00202L3.48719 48.0465C2.72437 47.6445 2.41045 47.3408 2.02789 46.6357L1.68342 46.0009L1.65117 43.1549L1.61901 40.3089H13.73H25.841L25.8089 43.1549ZM31.4723 41.1148V41.9208H32.2788H33.0852V41.1148V40.3089H32.2788H31.4723V41.1148ZM12.9236 42.0525C12.7295 42.1136 12.3424 42.3924 12.0633 42.6718C11.3508 43.3854 11.1541 44.1383 11.4332 45.0825C11.5968 45.6359 12.4319 46.4705 12.9857 46.634C13.9308 46.9131 14.6844 46.7163 15.3968 46.0043C16.3819 45.0199 16.4113 43.7675 15.4739 42.7255C14.8215 42.0004 13.8789 41.7515 12.9236 42.0525ZM14.289 43.78C14.7891 44.2797 14.4348 45.1446 13.73 45.1446C13.3156 45.1446 12.9236 44.7528 12.9236 44.3386C12.9236 43.9245 13.3156 43.5327 13.73 43.5327C13.9264 43.5327 14.1331 43.6241 14.289 43.78ZM31.4723 44.3386V45.1446H32.2788H33.0852V44.3386V43.5327H32.2788H31.4723V44.3386ZM31.4723 47.5625V48.3684H32.2788H33.0852V47.5625V46.7565H32.2788H31.4723V47.5625ZM34.6982 47.5625V48.3684H35.5046H36.3111V47.5625V46.7565H35.5046H34.6982V47.5625ZM37.924 47.5625V48.3684H38.7305H39.537V47.5625V46.7565H38.7305H37.924V47.5625ZM41.1499 47.5625V48.3684H41.9564H42.7628V47.5625V46.7565H41.9564H41.1499V47.5625Z" fill="#D41D12"/>
</svg>
