<svg width="61" height="61" viewBox="0 0 61 61" fill="none" xmlns="http://www.w3.org/2000/svg">
<g clip-path="url(#clip0_7_3)">
<path d="M60.9992 31.4967C60.1214 33.4258 58.5556 34.8405 57.2443 36.4397C54.7303 39.506 52.1697 42.5342 49.6008 45.5529C47.9061 47.5416 45.6895 48.6097 43.1205 48.955C42.371 49.0412 41.6166 49.0786 40.8621 49.067C36.0145 49.0753 31.1656 49.1277 26.3191 49.042C24.5026 49.0098 23.3561 49.9541 22.2585 51.1366C22.1797 51.2223 22.1845 51.4236 22.2096 51.5617C22.4556 52.949 22.1116 54.1338 21.0833 55.1341C19.2608 56.9013 17.461 58.6922 15.6457 60.4689C14.9148 61.1834 14.3129 61.1834 13.5867 60.451C9.23231 56.0848 4.88029 51.7121 0.530651 47.3332C-0.177568 46.6187 -0.17518 46.0042 0.542594 45.2826C2.33006 43.4821 4.12469 41.6852 5.92649 39.8918C6.70756 39.1107 7.63434 38.6737 8.75698 38.757C9.12602 38.7844 9.31472 38.6546 9.50342 38.3414C11.9314 34.3106 15.5454 32.073 20.1697 31.374C22.9284 30.9401 25.7529 31.2353 28.3614 32.2302C28.6424 32.3203 28.9371 32.3606 29.232 32.3493C33.1458 32.3565 37.0607 32.3838 40.9744 32.341C42.7981 32.3207 44.4486 32.628 45.6823 34.0974C46.0561 33.7402 46.406 33.4222 46.7369 33.084C48.7648 31.0152 50.7891 28.944 52.8099 26.8704C55.3752 24.234 59.3296 24.9342 60.8451 28.2994C60.889 28.3789 60.9406 28.4539 60.9992 28.5233V31.4967ZM20.5925 49.3337C20.8158 49.1372 20.9603 49.0324 21.0774 48.9038C22.5738 47.2486 24.4369 46.6103 26.6643 46.6413C31.5693 46.708 36.4766 46.6604 41.384 46.6639C44.1452 46.6639 46.4478 45.7113 48.1915 43.5143C49.1768 42.2735 50.2218 41.0791 51.243 39.8645C53.5376 37.132 55.8311 34.3983 58.1233 31.6634C59.0393 30.5643 58.9474 29.1472 57.9418 28.2601C56.9625 27.3991 55.5532 27.498 54.5762 28.4983C52.0969 31.0386 49.6199 33.5822 47.1453 36.1289C46.9721 36.3075 46.8073 36.5874 46.8037 36.8232C46.7596 39.9359 44.7567 41.9293 41.6253 41.9341C38.6451 41.9341 35.6653 41.9341 32.6859 41.9341C32.429 41.9409 32.1723 41.9133 31.9228 41.8519C31.6595 41.7875 31.4286 41.6301 31.2727 41.409C31.1168 41.1879 31.0465 40.918 31.0748 40.6492C31.1131 40.0621 31.4331 39.6966 32.004 39.5703C32.2572 39.5209 32.5152 39.4993 32.7731 39.506C35.8711 39.506 38.9703 39.5156 42.0696 39.4941C43.2722 39.4858 44.1811 38.6391 44.3387 37.4698C44.4964 36.3004 43.8395 35.2346 42.7061 34.9024C42.341 34.813 41.9651 34.7753 41.5894 34.7905C37.358 34.7833 33.1266 34.7905 28.8952 34.7797C28.5392 34.792 28.1841 34.7363 27.849 34.6154C25.4604 33.6151 22.9763 33.3782 20.436 33.7568C16.6143 34.3284 13.6082 36.1777 11.5827 39.5203C11.3653 39.8776 11.3964 40.0788 11.6926 40.3705C14.3033 42.949 16.9033 45.5382 19.4925 48.1381C19.8735 48.5144 20.2175 48.9217 20.5925 49.3337ZM2.8655 46.3531L14.7488 57.9408C14.7619 57.9301 14.8825 57.8337 14.9876 57.7265C16.4367 56.3158 17.8822 54.9007 19.3241 53.4813C20.1064 52.712 20.1052 52.1333 19.3241 51.3497C17.5 49.5294 15.6763 47.7106 13.8531 45.8935C12.4199 44.4645 10.9867 43.0387 9.55358 41.6161C8.95643 41.0207 8.33659 40.9326 7.81826 41.4375C6.17132 43.0356 4.55902 44.667 2.8655 46.3531Z" fill="#D41D12"/>
<path d="M37.0356 0C37.7247 0.155995 38.4281 0.265549 39.1005 0.476321C44.4677 2.15654 47.7413 5.74443 48.5904 11.2971C49.6987 18.5551 44.4331 25.2712 37.1252 26.1238C30.0573 26.949 23.5854 21.9477 22.6001 14.9005C21.5909 7.71163 26.687 1.01694 33.8492 0.11908C33.9616 0.0915825 34.0705 0.051641 34.174 0L37.0356 0ZM35.6024 23.7875C41.5238 23.7875 46.3344 19.0135 46.3404 13.1274C46.3475 7.2103 41.525 2.3816 35.6072 2.3816C29.7133 2.3816 24.874 7.19363 24.8681 13.0631C24.864 14.4708 25.1387 15.8654 25.6764 17.167C26.2142 18.4686 27.0044 19.6515 28.0017 20.6479C28.999 21.6442 30.1838 22.4345 31.4881 22.9733C32.7924 23.512 34.1906 23.7887 35.6024 23.7875V23.7875Z" fill="#D41D12"/>
<path d="M27.3023 39.3335C27.4607 39.3311 27.6178 39.3616 27.7638 39.4229C27.9097 39.4842 28.0414 39.575 28.1503 39.6896C28.2593 39.8042 28.3433 39.9401 28.3969 40.0886C28.4506 40.2372 28.4727 40.3953 28.4619 40.5529C28.4609 40.706 28.4295 40.8573 28.3698 40.9984C28.31 41.1394 28.2229 41.2673 28.1136 41.3748C28.0042 41.4823 27.8747 41.5672 27.7324 41.6248C27.5902 41.6824 27.4379 41.7114 27.2844 41.7103C26.9651 41.7069 26.6599 41.5788 26.4344 41.3534C26.2088 41.1281 26.0809 40.8236 26.0781 40.5052C26.0782 40.3472 26.1102 40.1908 26.1724 40.0455C26.2345 39.9001 26.3255 39.7688 26.4398 39.6593C26.5542 39.5499 26.6895 39.4646 26.8377 39.4086C26.9859 39.3526 27.1439 39.3271 27.3023 39.3335V39.3335Z" fill="#D41D12"/>
<path d="M41.4418 11.6437C41.4478 12.1361 41.3611 12.6252 41.1862 13.0857C41.0212 13.5128 40.7625 13.8977 40.4291 14.2122C40.0754 14.5402 39.6556 14.7891 39.1977 14.9422C38.6614 15.1195 38.099 15.2056 37.5341 15.197H35.3199V18.8826C35.3199 19.0416 35.2884 19.1991 35.2274 19.346C35.1664 19.4929 35.0769 19.6264 34.9641 19.7389C34.8513 19.8514 34.7174 19.9406 34.5701 20.0014C34.4227 20.0623 34.2648 20.0936 34.1053 20.0936C33.9457 20.0936 33.7878 20.0623 33.6404 20.0014C33.4931 19.9406 33.3592 19.8514 33.2464 19.7389C33.1336 19.6264 33.0441 19.4929 32.9831 19.346C32.9221 19.1991 32.8906 19.0416 32.8906 18.8826V8.33563C32.8897 8.17678 32.9209 8.01936 32.9825 7.87285C33.044 7.72633 33.1347 7.59373 33.2489 7.48302C33.3598 7.3669 33.4938 7.27515 33.6423 7.21363C33.7907 7.15211 33.9505 7.12219 34.1112 7.12578H37.4373C38.2001 7.12578 38.8371 7.23454 39.3482 7.45206C39.814 7.63833 40.234 7.92266 40.5795 8.28562C40.8859 8.61855 41.1143 9.01508 41.2484 9.44665C41.3782 9.86791 41.4434 10.3063 41.4418 10.747V11.6437ZM39.0305 10.8101C39.0311 10.6375 39.0041 10.4658 38.9505 10.3016C38.8952 10.1339 38.7982 9.98271 38.6687 9.86224C38.5085 9.71897 38.3196 9.61139 38.1145 9.54668C37.8241 9.45842 37.5211 9.41819 37.2176 9.4276H35.3199V12.9905H37.4493C38.0472 12.9905 38.4609 12.85 38.6902 12.5689C38.9149 12.3024 39.0369 11.9645 39.0341 11.6163L39.0305 10.8101Z" fill="#D41D12"/>
<path d="M35.1944 13.0381H31.9519C31.3669 13.0381 30.8926 13.511 30.8926 14.0943C30.8926 14.6777 31.3669 15.1506 31.9519 15.1506H35.1944C35.7795 15.1506 36.2538 14.6777 36.2538 14.0943C36.2538 13.511 35.7795 13.0381 35.1944 13.0381Z" fill="#D41D12"/>
<path d="M37.2415 15.8496H31.9519C31.3669 15.8496 30.8926 16.3225 30.8926 16.9058C30.8926 17.4892 31.3669 17.9621 31.9519 17.9621H37.2415C37.8265 17.9621 38.3008 17.4892 38.3008 16.9058C38.3008 16.3225 37.8265 15.8496 37.2415 15.8496Z" fill="#D41D12"/>
</g>
<defs>
<clipPath id="clip0_7_3">
<rect width="61" height="61" fill="white"/>
</clipPath>
</defs>
</svg>
