<svg width="65" height="50" viewBox="0 0 65 50" fill="none" xmlns="http://www.w3.org/2000/svg">
<path d="M42.1054 0C43.538 0.260764 44.9885 0.44167 46.3966 0.796961C56.1752 3.26607 63.2827 11.1183 64.7104 21.0975C65.8724 29.2089 63.5288 36.2772 57.8327 42.1102C53.729 46.3118 48.6049 48.6293 42.7312 49.2307C38.0326 49.7196 33.5816 48.8787 29.3475 46.8121C28.3696 46.3362 28.0437 45.6566 28.4348 44.8971C28.8259 44.1376 29.5105 43.9877 30.4574 44.4489C32.9089 45.6699 35.5704 46.4132 38.2998 46.6394C38.5101 46.6556 38.722 46.6394 39.0235 46.6394C39.0235 45.8522 39.0235 45.1025 39.0235 44.3577C39.0349 43.4466 39.5124 42.9088 40.2898 42.8909C41.1047 42.8762 41.6018 43.4238 41.6164 44.3805C41.6262 45.0845 41.6295 45.787 41.6393 46.491C41.6393 46.5139 41.6653 46.535 41.755 46.6752C46.7128 46.3493 51.0936 44.5157 55.0377 41.1633C54.4379 40.5945 53.8626 40.0779 53.3215 39.5335C52.6892 38.893 52.6451 38.1433 53.1699 37.5908C53.6947 37.0383 54.4998 37.0514 55.1762 37.6886C55.4516 37.9494 55.7222 38.2167 55.9813 38.4921C56.2404 38.7675 56.4849 39.0593 56.7962 39.4097C60.1731 35.5243 61.9952 31.1385 62.3374 25.995H60.838C59.0828 25.995 58.5156 25.669 58.5286 24.6765C58.5417 23.6839 59.0991 23.402 60.8804 23.402H62.3244C61.974 18.2812 60.1568 13.8906 56.7946 9.9775C56.2111 10.5936 55.6945 11.1852 55.1354 11.7344C54.508 12.3505 53.7289 12.3651 53.1895 11.8224C52.65 11.2797 52.6761 10.5186 53.2971 9.87971C53.843 9.32559 54.4265 8.80569 55.0426 8.22386C51.1311 4.83881 46.7307 3.05746 41.6148 2.69076C41.6148 3.54314 41.6148 4.29283 41.6148 5.04416C41.6018 5.94706 41.1177 6.48652 40.3338 6.49629C39.5499 6.50607 39.0381 5.96499 39.03 5.0735C39.0169 4.32054 39.03 3.56758 39.03 2.74455C37.1362 2.72988 35.3777 3.11125 33.6631 3.67026C32.563 4.02718 31.4988 4.50471 30.4329 4.9643C29.4876 5.37175 28.7901 5.21366 28.4267 4.44766C28.0844 3.72404 28.3729 3.04768 29.2415 2.61416C31.9013 1.27499 34.7876 0.443711 37.7522 0.162978C37.9611 0.125412 38.1666 0.0709058 38.3667 0L42.1054 0Z" fill="#D41D12"/>
<path d="M0 24.2039C0.409074 23.5911 0.959939 23.3776 1.7129 23.3793C10.1052 23.4042 18.4963 23.4097 26.8864 23.3955C27.1038 23.3792 27.3222 23.3852 27.5384 23.4135C28.1903 23.5553 28.5765 23.9643 28.6075 24.6505C28.6264 24.9641 28.5271 25.2735 28.3292 25.5175C28.1313 25.7616 27.8491 25.9227 27.5384 25.969C27.2963 25.9937 27.0528 25.9997 26.8098 25.9869C18.4719 25.9869 10.1345 25.9918 1.79764 26.0016C1.03165 26.0016 0.428632 25.8386 0.00488933 25.1867L0 24.2039Z" fill="#D41D12"/>
<path d="M35.8262 27.4458C35.1351 26.1664 34.9477 24.9197 35.2052 23.6386C35.8245 20.5421 39.0694 18.8227 42.1921 19.9488C42.7576 20.1526 43.0917 20.0988 43.5187 19.6604C45.4044 17.7209 47.3324 15.8206 49.2507 13.9105C50.002 13.1608 50.7924 13.0842 51.3694 13.6889C51.9235 14.2674 51.8387 15.0318 51.1184 15.7538C49.0371 17.8415 46.9494 19.9228 44.8519 22.0187C45.4811 23.1501 45.6852 24.4691 45.4272 25.7378C44.8062 28.8165 41.6168 30.5571 38.5218 29.4602C37.8308 29.2157 37.4168 29.2972 37.0126 29.8432C36.894 29.9912 36.7577 30.1242 36.6068 30.2392C36.0283 30.7119 35.2557 30.6842 34.7766 30.1806C34.5522 29.9423 34.4256 29.6284 34.422 29.3011C34.4183 28.9738 34.5379 28.6571 34.757 28.4139C35.096 28.0725 35.4529 27.7493 35.8262 27.4458V27.4458ZM40.3586 22.2452C38.7761 22.2305 37.72 23.2084 37.7183 24.6899C37.7183 26.129 38.7581 27.1247 40.2771 27.1345C41.8531 27.1492 42.9173 26.1567 42.9173 24.6899C42.9173 23.2491 41.8857 22.2582 40.3586 22.2452Z" fill="#D41D12"/>
<path d="M19.0169 18.1901C15.7687 18.1901 12.5206 18.1901 9.27406 18.1901C8.64008 18.1901 8.07943 17.9994 7.93438 17.3752C7.84429 16.9186 7.9249 16.4448 8.16092 16.0437C8.3239 15.7764 8.84706 15.6053 9.2105 15.6037C15.7872 15.5776 22.3606 15.5727 28.9308 15.589C29.8076 15.589 30.3797 16.1268 30.3732 16.8928C30.3666 17.6588 29.7946 18.1754 28.9064 18.1771C25.6191 18.195 22.327 18.1901 19.0169 18.1901Z" fill="#D41D12"/>
<path d="M19.0677 33.785C15.8473 33.785 12.6269 33.785 9.40643 33.785C8.36826 33.785 7.81087 33.3222 7.8125 32.4812C7.81413 31.6402 8.36989 31.1904 9.41295 31.1904C15.9082 31.1904 22.4034 31.1904 28.8986 31.1904C29.7298 31.1904 30.2806 31.5962 30.3654 32.2856C30.4501 32.975 30.1405 33.4509 29.5228 33.7003C29.2635 33.7744 28.9929 33.8009 28.7242 33.7785C25.5037 33.7861 22.2849 33.7883 19.0677 33.785Z" fill="#D41D12"/>
<path d="M23.901 10.3929C21.6568 10.3929 19.4126 10.3929 17.1668 10.3929C16.1482 10.3929 15.5892 9.90401 15.612 9.05815C15.6348 8.25304 16.1775 7.80322 17.1652 7.80322C21.6818 7.80322 26.1974 7.80322 30.7119 7.80322C31.6735 7.80322 32.2276 8.29216 32.2276 9.09727C32.2276 9.90238 31.6735 10.3897 30.7152 10.3929C28.4432 10.3978 26.1713 10.3929 23.901 10.3929Z" fill="#D41D12"/>
<path d="M23.9891 38.9893C26.2056 38.9893 28.4226 38.9893 30.6402 38.9893C31.6686 38.9893 32.2325 39.4603 32.2276 40.2931C32.2227 41.1259 31.6621 41.5806 30.6239 41.5823C26.1094 41.5823 21.5938 41.5823 17.0772 41.5823C16.2395 41.5823 15.713 41.1683 15.6104 40.4822C15.5637 40.1722 15.6303 39.8558 15.7979 39.5909C15.9655 39.326 16.2229 39.1303 16.523 39.0398C16.7619 38.9937 17.0055 38.9778 17.2483 38.9925C19.4985 38.9882 21.7454 38.9871 23.9891 38.9893Z" fill="#D41D12"/>
</svg>
