<svg width="43" height="45" viewBox="0 0 43 45" fill="none" xmlns="http://www.w3.org/2000/svg">
<path d="M29.8395 3.17017C30.6445 1.46891 31.9188 0.394671 33.7685 0.0774708C37.6505 -0.588281 40.7857 3.15265 39.4274 6.85301C39.1443 7.62296 38.7257 8.3468 38.3209 9.06604C38.1439 9.38231 38.0987 9.57595 38.3458 9.89592C40.716 12.9695 42.1875 16.6402 42.5966 20.5C43.8092 31.3945 36.5477 41.402 25.7878 43.7137C14.1925 46.1969 2.66908 38.6191 0.415484 27.0044C-0.420855 22.6937 0.000541696 18.5018 1.72393 14.4529C1.77944 14.3486 1.8035 14.2305 1.79319 14.1128C1.78288 13.9951 1.73864 13.883 1.66584 13.7899C0.969662 12.7397 0.351859 11.6488 0.107505 10.3911C-0.40979 7.72623 1.45468 5.00698 4.13705 4.50721C5.49161 4.25455 6.99554 4.41039 8.59353 5.67458C15.2209 1.06596 22.3029 0.231153 29.8395 3.17017ZM22.8399 42.5933C23.0086 42.5933 23.1294 42.6044 23.2484 42.5933C27.1212 42.1895 30.6048 40.8174 33.6606 38.3932C33.7935 38.2612 33.8696 38.0825 33.8727 37.8953C33.8921 36.7759 33.8967 35.6564 33.8727 34.5379C33.8579 34.3048 33.7635 34.0838 33.6053 33.9118C32.6012 32.8782 31.561 31.8832 30.5624 30.8367C30.3572 30.6024 30.2356 30.3066 30.2166 29.9957C30.1733 29.0469 30.2166 28.0944 30.1899 27.1446C30.1788 26.9402 30.0996 26.7454 29.9649 26.5913C29.5038 26.0962 29.0622 25.5724 28.5301 25.1667C27.4817 24.3673 27.2005 23.3686 27.2078 22.0676C27.2152 20.8071 27.4319 19.7992 28.484 19.0422C28.6242 18.9417 28.7136 18.6844 28.7173 18.4972C28.7394 17.4522 28.7394 16.4096 28.7173 15.3695C28.709 15.165 28.6306 14.9696 28.4951 14.8162C27.5767 13.8701 26.6441 12.9382 25.6974 12.0204C25.5324 11.8765 25.3233 11.7929 25.1045 11.7834C24.1695 11.7585 23.2327 11.7991 22.2995 11.7567C21.9882 11.7413 21.6907 11.6237 21.453 11.422C20.5263 10.5497 19.6282 9.64603 18.7522 8.72394C18.5685 8.50895 18.4597 8.23997 18.4424 7.95768C18.3991 7.2698 18.4277 6.57454 18.4277 5.8885V3.18308C16.3644 3.47681 14.3634 4.10796 12.5051 5.05124C12.7383 5.19509 12.9919 5.30021 13.1763 5.47633C13.8513 6.12179 14.5217 6.7774 15.1551 7.46528C15.339 7.68024 15.4477 7.94924 15.465 8.23154C15.5037 9.10384 15.5083 9.98352 15.465 10.8521C15.4439 11.1628 15.3225 11.4582 15.1192 11.694C14.3677 12.5018 13.5599 13.2616 12.7955 14.0536C12.6493 14.2164 12.562 14.4236 12.5475 14.6419C12.518 15.3612 12.5613 16.0841 12.5226 16.8024C12.5082 17.0707 12.4058 17.3267 12.2312 17.5309C11.3312 18.4732 10.4091 19.3953 9.46491 20.2971C9.28694 20.4668 8.99003 20.5645 8.73738 20.5922C8.30215 20.6392 7.85862 20.6051 7.42708 20.6051C7.29061 21.6692 7.29061 21.6692 7.96374 22.3442C8.67928 23.0597 9.35702 23.8195 10.1233 24.4761C10.8499 25.0966 11.0823 25.7947 11.0989 26.749C11.1182 27.8555 10.8997 28.7288 9.97759 29.3678C9.01677 30.0335 8.64978 30.9381 8.85264 32.0889C8.92733 32.5186 8.74199 32.8431 8.4294 33.1428C7.6364 33.9035 6.86829 34.6901 6.09466 35.461C9.22977 39.4315 14.3363 41.9765 18.4277 42.4117C18.4277 41.4287 18.3502 40.443 18.4479 39.4748C18.5632 38.3259 18.2801 37.4195 17.3202 36.7454C17.0205 36.5352 16.9385 36.2208 16.9514 35.8556C16.9717 35.2028 16.9569 34.5481 16.9569 33.8565C16.6637 33.8565 16.4156 33.8242 16.1796 33.862C14.932 34.0621 13.9887 33.6334 13.1819 32.6523C12.7913 32.2011 12.556 31.6364 12.5106 31.0414C12.3566 29.6407 12.7623 28.5609 13.902 27.755C14.5613 27.2875 14.6526 26.8053 14.3529 25.9745C12.9845 22.1782 16.1796 18.5055 20.1538 19.2432C20.814 19.3667 21.4383 19.6849 22.0736 19.9108C22.199 19.222 22.1658 18.5488 21.4623 18.0666C20.7587 17.5843 20.4959 16.9195 20.6324 16.0813C20.6463 15.8972 20.6482 15.7124 20.6379 15.5281C20.6499 14.9803 20.9081 14.7194 21.4678 14.7175C22.878 14.7132 24.2885 14.7132 25.6993 14.7175C26.2525 14.7175 26.5209 14.9831 26.5227 15.5318C26.5282 16.9573 26.5282 18.3835 26.5227 19.8103C26.5227 19.9569 26.5089 20.1607 26.4167 20.2409C25.6209 20.9361 25.1746 22.1054 23.844 22.1173C24.5679 23.6895 24.4084 25.2054 23.7186 26.7112C23.6688 26.8219 23.7518 27.0579 23.8514 27.1603C24.6075 27.9431 25.4024 28.69 26.141 29.4886C26.3461 29.7401 26.4742 30.0456 26.5098 30.3682C26.5707 30.8348 26.4683 31.3244 26.5365 31.7901C26.7117 32.9814 26.342 33.9109 25.3572 34.6043C25.1119 34.7768 25.0363 35.0128 25.0464 35.3162C25.0823 35.9902 25.0789 36.6657 25.0363 37.3393C25.0047 37.6627 24.8762 37.969 24.6675 38.218C24.1741 38.7823 23.6126 39.2867 23.087 39.8243C22.9865 39.9267 22.8611 40.0668 22.8574 40.1931C22.8288 40.9871 22.8399 41.7801 22.8399 42.5933ZM35.3518 36.8681C42.4989 29.8795 43.1462 18.4465 37.1379 10.8143C36.5053 11.5216 35.8838 12.238 35.2383 12.9351C34.828 13.3759 34.4214 13.3768 34.0073 12.9471C32.6537 11.5409 31.4107 10.0453 30.4684 8.32467C29.8902 7.27072 29.4199 6.18173 29.4541 4.93506C29.4541 4.80228 29.2696 4.58651 29.1267 4.5404C27.8662 4.12454 26.6131 3.6598 25.3221 3.36197C23.5456 2.94408 21.7111 2.83059 19.8966 3.02633C19.8966 4.57636 19.8919 6.10704 19.9048 7.63679C19.9048 7.75205 20.009 7.88483 20.0985 7.97612C20.7974 8.68613 21.4973 9.39615 22.2193 10.0859C22.3618 10.2123 22.5435 10.2859 22.7338 10.2943C23.6993 10.3136 24.6702 10.2795 25.6311 10.3192C25.9282 10.3362 26.211 10.4525 26.4342 10.6493C27.5936 11.7662 28.7308 12.9035 29.8459 14.061C30.0469 14.281 30.1666 14.5631 30.1853 14.8605C30.2185 16.2399 30.2185 17.6197 30.1853 18.9997C30.1797 19.2598 30.0599 19.6157 29.8681 19.7568C28.8768 20.4843 28.5292 21.4332 28.7256 22.6153C28.7385 22.69 28.7062 22.7766 28.7311 22.844C28.8169 23.0717 28.8658 23.3437 29.0234 23.5097C29.7519 24.276 30.5034 25.0229 31.266 25.755C31.4069 25.8819 31.5174 26.0391 31.5889 26.2148C31.6604 26.3904 31.6913 26.58 31.6791 26.7693C31.656 27.673 31.6551 28.5794 31.6846 29.483C31.6981 29.7157 31.7904 29.9369 31.9465 30.1101C32.9396 31.1336 33.9502 32.1387 34.9682 33.1382C35.0985 33.255 35.2012 33.3993 35.2688 33.5607C35.3364 33.7221 35.3673 33.8966 35.3591 34.0714C35.337 34.9769 35.3518 35.8796 35.3518 36.8681ZM9.53314 6.80783C10.8573 8.99688 10.352 11.0107 9.19566 12.9859C8.26711 14.5691 7.11449 15.978 5.85122 17.3003C5.35698 17.8185 4.98353 17.8158 4.49114 17.2893C3.95909 16.7213 3.44456 16.1366 2.89315 15.5281C1.47958 19.15 1.14117 22.8357 1.8687 26.6116C2.39872 29.3862 3.52988 32.0111 5.18271 34.3019C5.90286 33.5697 6.58521 32.8883 7.24912 32.1903C7.29728 32.1342 7.33349 32.0689 7.35553 31.9983C7.37757 31.9278 7.38497 31.8535 7.37729 31.78C7.1191 30.3424 7.65945 29.2516 8.81575 28.4318C9.48335 27.9588 9.69635 27.3318 9.60968 26.5332C9.57464 26.2087 9.50732 25.9689 9.2685 25.7366C8.2542 24.7527 7.25281 23.7614 6.28 22.7407C6.07741 22.5043 5.95476 22.21 5.9296 21.8997C5.87797 21.2755 5.91116 20.6438 5.91485 20.015C5.91854 19.3861 6.16658 19.1381 6.81205 19.1353C7.28785 19.1353 7.76365 19.1537 8.2376 19.1252C8.42735 19.1123 8.6077 19.0379 8.75121 18.9131C9.45938 18.2332 10.1528 17.5388 10.8315 16.8301C10.9658 16.6757 11.0449 16.4811 11.0564 16.2768C11.0823 15.5567 11.0389 14.8337 11.0813 14.1154C11.1045 13.8344 11.214 13.5674 11.3948 13.351C11.8282 12.8558 12.2727 12.3505 12.7937 11.9568C13.8034 11.1924 14.2063 10.2463 14.0302 8.9895C13.9749 8.59208 13.9288 8.27211 13.6116 7.99364C13.1173 7.56118 12.7337 6.90188 12.1694 6.67874C11.5848 6.44729 10.8397 6.60774 10.1666 6.62526C9.96929 6.62987 9.77473 6.7313 9.5313 6.80414L9.53314 6.80783ZM15.4345 28.3406C14.7135 29.0976 13.7194 29.6748 13.9869 31.0202C14.0966 31.5734 14.5143 31.7753 14.8167 32.1119C14.9854 32.273 15.207 32.3671 15.4401 32.3766C16.1593 32.4088 16.8804 32.3849 17.6015 32.3904C18.1547 32.3904 18.4184 32.655 18.4313 33.2C18.4369 33.4914 18.4692 33.7883 18.4258 34.0732C18.2478 35.2415 18.5687 36.1774 19.5508 36.8985C19.761 37.0525 19.8809 37.4518 19.8892 37.7367C19.9261 38.9621 19.9048 40.1895 19.9048 41.4158V42.6247L21.3802 42.6985C21.3802 41.8151 21.4134 41.0027 21.3691 40.1931C21.3387 39.6353 21.5213 39.236 21.9279 38.8672C22.495 38.3526 23.2262 37.8741 23.4955 37.2194C23.7721 36.549 23.6006 35.6841 23.5785 34.9049C23.5646 34.4513 23.6781 34.0843 24.0395 33.8233C24.8906 33.2184 25.158 32.4208 25.087 31.3798C25.0428 30.7343 24.9026 30.2603 24.4148 29.8371C23.8616 29.3632 23.3775 28.8164 22.8473 28.2843C22.7191 28.4687 22.6407 28.6006 22.5448 28.7177C21.6568 29.8113 20.7827 30.9169 19.8707 31.9865C19.3682 32.573 18.9975 32.5398 18.4479 31.9791C18.2774 31.803 18.1022 31.6297 17.9482 31.4397C17.1081 30.4171 16.2847 29.3945 15.429 28.3369L15.4345 28.3406ZM34.6178 11.434C35.8718 10.0066 37.053 8.61052 37.7907 6.92309C38.0673 6.29607 38.2886 5.56761 38.2517 4.90002C38.1706 3.3426 37.3177 2.22595 35.8349 1.69851C34.3946 1.18029 33.0631 1.49657 31.9972 2.5911C30.9045 3.71513 30.6518 5.06231 31.2595 6.53028C32.0212 8.38553 33.278 9.90145 34.6178 11.434ZM5.17533 15.849C5.53034 15.4331 5.85768 15.0716 6.16197 14.6908C7.13847 13.469 8.079 12.2214 8.61013 10.7258C8.874 10.01 8.90045 9.22825 8.68556 8.49623C8.47067 7.76422 8.02586 7.12082 7.41694 6.66122C6.80836 6.18802 6.0659 5.91907 5.29544 5.89274C4.52499 5.86642 3.7659 6.08405 3.12644 6.5146C1.88438 7.34449 0.950298 9.14441 1.90466 11.1841C2.71242 12.9093 3.88071 14.3773 5.17533 15.849ZM19.1626 30.5711C19.5194 30.1534 19.8468 29.791 20.151 29.4102C21.1275 28.1875 22.0644 26.938 22.5992 25.4452C23.0971 24.0537 22.7984 22.8015 21.8007 21.7568C20.803 20.7121 19.5581 20.3921 18.1437 20.7646C16.3373 21.2404 14.7448 23.423 15.8725 25.873C16.6775 27.6176 17.8569 29.0948 19.1626 30.5711ZM25.0492 16.2123H21.9925C22.1326 16.4714 22.2046 16.6807 22.3392 16.8338C22.6158 17.1427 22.9551 17.3935 23.1967 17.7217C23.3927 17.9786 23.5171 18.2827 23.5573 18.6032C23.6117 19.2533 23.5739 19.9117 23.5739 20.6623C23.8016 20.5811 24.0045 20.5609 24.1345 20.453C24.4121 20.2135 24.6728 19.955 24.9146 19.6793C24.9926 19.5908 25.0382 19.4782 25.0437 19.3603C25.0529 18.3229 25.0492 17.2856 25.0492 16.2123Z" fill="#D41D12"/>
<path d="M34.6007 7.35307C34.308 7.3538 34.0181 7.29629 33.7479 7.1839C33.4777 7.07151 33.2325 6.90648 33.0266 6.69843C32.8208 6.49037 32.6584 6.24345 32.5489 5.97202C32.4394 5.7006 32.385 5.41011 32.3889 5.11746C32.3927 4.82481 32.4548 4.53585 32.5714 4.26741C32.688 3.99896 32.8568 3.7564 33.068 3.55383C33.2793 3.35127 33.5287 3.19276 33.8018 3.08752C34.0749 2.98228 34.3662 2.93243 34.6588 2.94086C35.8806 2.95192 36.8359 3.94963 36.8239 5.19999C36.8137 5.78002 36.574 6.33236 36.1572 6.73595C35.7405 7.13954 35.1808 7.36146 34.6007 7.35307ZM34.633 5.87772C34.8243 5.86531 35.004 5.78162 35.1367 5.64318C35.2693 5.50473 35.3452 5.32159 35.3494 5.12991C35.3475 5.03376 35.3266 4.93894 35.2881 4.85085C35.2495 4.76276 35.1939 4.68314 35.1246 4.61653C34.9845 4.48199 34.7967 4.4086 34.6025 4.41252C34.4084 4.41643 34.2237 4.49732 34.0892 4.63739C33.9546 4.77746 33.8812 4.96524 33.8852 5.15941C33.8973 5.35109 33.9808 5.53125 34.1193 5.66438C34.2577 5.79751 34.441 5.87396 34.633 5.87865V5.87772Z" fill="#D41D12"/>
<path d="M5.1517 7.35742C5.73163 7.35672 6.28852 7.58436 6.70191 7.99108C7.1153 8.39781 7.35196 8.95093 7.36068 9.53079C7.36941 10.1107 7.1495 10.6706 6.74854 11.0896C6.34757 11.5086 5.79778 11.7529 5.21809 11.7696C3.9705 11.7789 2.97648 10.819 2.96726 9.59534C2.96126 9.30431 3.01327 9.01499 3.12026 8.74426C3.22724 8.47354 3.38707 8.22682 3.5904 8.01851C3.79373 7.8102 4.03651 7.64446 4.30457 7.53096C4.57263 7.41745 4.8606 7.35846 5.1517 7.35742ZM5.18766 10.2952C5.36775 10.2715 5.53277 10.1823 5.65112 10.0445C5.76947 9.90671 5.83282 9.73011 5.82905 9.54852C5.82529 9.36693 5.75465 9.19311 5.63069 9.06036C5.50673 8.92761 5.33814 8.84526 5.15723 8.82908C4.97715 8.85275 4.81213 8.94203 4.69378 9.07981C4.57543 9.21759 4.51207 9.39418 4.51584 9.57578C4.51961 9.75737 4.59024 9.93119 4.71421 10.0639C4.83817 10.1967 5.00675 10.279 5.18766 10.2952Z" fill="#D41D12"/>
<path d="M19.1809 22.0808C19.6167 22.0852 20.0413 22.2186 20.4014 22.4641C20.7614 22.7096 21.0406 23.0562 21.2039 23.4602C21.3671 23.8643 21.407 24.3076 21.3185 24.7343C21.23 25.161 21.0171 25.5519 20.7066 25.8577C20.3962 26.1635 20.0022 26.3705 19.5742 26.4526C19.1462 26.5346 18.7036 26.4881 18.302 26.3188C17.9005 26.1496 17.5581 25.8652 17.318 25.5015C17.0779 25.1378 16.951 24.7112 16.9532 24.2754C16.9529 23.9843 17.0105 23.6961 17.1228 23.4276C17.2351 23.159 17.3997 22.9155 17.6071 22.7112C17.8144 22.5069 18.0604 22.346 18.3306 22.2378C18.6008 22.1295 18.8899 22.0762 19.1809 22.0808ZM19.157 23.5562C19.0108 23.5562 18.8679 23.5996 18.7465 23.681C18.625 23.7623 18.5305 23.8779 18.4748 24.0131C18.4192 24.1483 18.405 24.2969 18.434 24.4402C18.463 24.5834 18.5339 24.7149 18.6377 24.8178C18.7415 24.9207 18.8735 24.9904 19.017 25.0181C19.1606 25.0459 19.3091 25.0303 19.4438 24.9735C19.5784 24.9167 19.6932 24.8211 19.7735 24.699C19.8537 24.5768 19.8959 24.4336 19.8946 24.2874C19.8865 24.0948 19.8062 23.9123 19.6697 23.7762C19.5332 23.64 19.3505 23.5602 19.1579 23.5525L19.157 23.5562Z" fill="#D41D12"/>
</svg>
