<svg width="62" height="45" viewBox="0 0 62 45" fill="none" xmlns="http://www.w3.org/2000/svg">
<path fill-rule="evenodd" clip-rule="evenodd" d="M2.44938 0.195558C1.23229 0.608264 0.368964 1.5476 0.105459 2.74569C0.0110813 3.17498 -0.0169048 8.00772 0.00938517 19.2802L0.0467 35.2082L0.384714 35.8811C0.767675 36.6434 1.35466 37.1996 2.16068 37.5641C2.64614 37.7837 2.98088 37.8181 4.96026 37.852L7.2086 37.8906L7.34453 38.8022C7.52008 39.9797 7.87735 40.8988 8.5283 41.8476L9.05095 42.6097H5.00884C2.13306 42.6097 0.875137 42.6505 0.649067 42.7512C-0.183731 43.1221 -0.208204 44.3961 0.609451 44.8094C1.11223 45.0635 60.8898 45.0635 61.3926 44.8094C61.9689 44.5181 62.1648 43.8268 61.8433 43.219C61.5708 42.7039 61.1938 42.6097 59.4057 42.6097H57.7759L58.1983 42.0351C58.9896 40.9584 59.577 39.3073 59.5948 38.1096C59.6004 37.7371 59.6647 37.659 60.2288 37.3398C60.5742 37.1444 61.0353 36.7546 61.2535 36.4734C61.981 35.5362 62.0293 35.1608 61.9903 30.7509L61.9553 26.8001L58.5025 20.072C54.8189 12.8941 54.6984 12.7018 53.5401 12.1438C52.9984 11.8828 52.9064 11.8783 47.4527 11.8447L41.9153 11.8105L41.8797 7.22613C41.8458 2.85417 41.8322 2.61673 41.589 2.10277C41.2161 1.3149 40.647 0.741135 39.8672 0.366798L39.1788 0.0363963L21.1271 0.00986957C4.0452 -0.0152362 3.04182 -0.00528855 2.44938 0.195558ZM38.8583 2.51441C39.042 2.60725 39.2573 2.8229 39.3369 2.99367C39.4469 3.22957 39.4816 7.17402 39.4816 19.4042V35.5043L30.4255 35.4976L21.3694 35.4909L20.9557 34.6391C20.3823 33.4581 19.0442 32.152 17.7955 31.5544C15.6549 30.5299 13.3938 30.5299 11.2533 31.5544C10.0045 32.152 8.66642 33.4581 8.093 34.6391L7.67927 35.4909L5.53452 35.4976C4.11583 35.502 3.28218 35.4564 3.07211 35.3627C2.62094 35.1619 2.40916 34.6793 2.40916 33.8523V33.1358H4.3419C6.4497 33.1358 6.80165 33.0575 7.0826 32.5265C7.33265 32.0539 7.33265 27.1123 7.0826 26.6397C6.80165 26.1087 6.4497 26.0304 4.3419 26.0304H2.40916L2.4134 14.6321C2.41801 2.40084 2.39511 2.85393 3.02825 2.51098C3.47663 2.26797 38.3776 2.27141 38.8583 2.51441ZM12.7204 7.24792C11.6701 7.81694 12.1096 9.45107 13.3128 9.45107C13.9267 9.45107 14.5244 8.87257 14.5244 8.27832C14.5244 7.3892 13.5192 6.81508 12.7204 7.24792ZM17.5665 7.24792C16.7545 7.68774 16.7812 8.94031 17.6103 9.30955C18.066 9.51253 33.517 9.51253 33.9726 9.30955C34.3199 9.15489 34.6356 8.65834 34.6356 8.26684C34.6356 7.87533 34.3199 7.37878 33.9726 7.22412C33.4873 7.00787 17.9679 7.03038 17.5665 7.24792ZM22.4126 11.9849C21.6006 12.4247 21.6272 13.6773 22.4564 14.0465C22.9088 14.2479 33.5202 14.2479 33.9726 14.0465C34.3199 13.8918 34.6356 13.3953 34.6356 13.0038C34.6356 12.6123 34.3199 12.1157 33.9726 11.9611C33.4912 11.7466 22.8117 11.7685 22.4126 11.9849ZM52.7365 14.4374C52.9149 14.5746 53.2772 15.1075 53.5417 15.6217L54.0225 16.5565H49.6654C44.9789 16.5565 44.8123 16.5761 44.5004 17.1658C44.2687 17.6036 44.2433 27.2591 44.4725 27.7508C44.7784 28.4071 44.6763 28.3988 52.4388 28.3988H59.5929V31.5239C59.5929 34.5122 59.582 34.6613 59.3428 34.9286C59.2052 35.0824 59.068 35.1522 59.0377 35.0836C58.7437 34.4162 57.9296 33.3268 57.2706 32.7192C55.0413 30.6631 51.8578 30.2119 49.0526 31.5544C47.8039 32.152 46.4658 33.4581 45.8924 34.6391L45.4787 35.4909L43.6917 35.4976L41.9047 35.5043V24.8461V14.188H47.1584C52.3166 14.188 52.4181 14.1925 52.7365 14.4374ZM57.0487 22.4777L58.8667 26.0304H52.8087H46.7508V22.4777V18.925H50.9907H55.2307L57.0487 22.4777ZM4.8322 29.5831V30.7673H3.62068H2.40916V29.5831V28.3988H3.62068H4.8322V29.5831ZM16.5148 33.5882C17.6079 34.0883 18.3152 34.7683 18.8574 35.8406C19.2849 36.6861 19.3099 36.798 19.3099 37.8727C19.3099 38.9474 19.2849 39.0593 18.8574 39.9049C18.3124 40.9828 17.6109 41.6541 16.4846 42.1757C15.7527 42.5146 15.5652 42.5505 14.5244 42.5505C13.4835 42.5505 13.296 42.5146 12.5641 42.1757C11.4378 41.6541 10.7363 40.9828 10.1914 39.9049C9.76429 39.0603 9.73885 38.9465 9.73885 37.8789C9.73885 36.8545 9.77508 36.673 10.1223 35.9566C10.6091 34.9522 11.3022 34.2169 12.2062 33.7459C13.1605 33.2488 13.6827 33.1363 14.7968 33.1881C15.524 33.222 15.9113 33.3121 16.5148 33.5882ZM54.3142 33.5882C55.4073 34.0883 56.1146 34.7683 56.6567 35.8406C57.0843 36.6861 57.1092 36.798 57.1092 37.8727C57.1092 38.9474 57.0843 39.0593 56.6567 39.9049C56.1118 40.9828 55.4103 41.6541 54.284 42.1757C53.5521 42.5146 53.3646 42.5505 52.3237 42.5505C51.2829 42.5505 51.0954 42.5146 50.3635 42.1757C49.2372 41.6541 48.5357 40.9828 47.9907 39.9049C47.5637 39.0603 47.5382 38.9465 47.5382 37.8789C47.5382 36.8545 47.5745 36.673 47.9217 35.9566C48.4085 34.9522 49.1016 34.2169 50.0056 33.7459C50.9599 33.2488 51.4821 33.1363 52.5962 33.1881C53.3234 33.222 53.7107 33.3121 54.3142 33.5882ZM13.7019 35.6311C13.1246 35.8038 12.3831 36.5791 12.2164 37.1843C11.9264 38.2371 12.3573 39.3437 13.2744 39.901C13.9616 40.3185 15.1448 40.3015 15.8207 39.8643C16.5769 39.3751 16.8868 38.7962 16.8868 37.8727C16.8868 36.9611 16.5775 36.3708 15.8552 35.9036C15.3356 35.5674 14.3371 35.441 13.7019 35.6311ZM51.5012 35.6311C50.924 35.8038 50.1825 36.5791 50.0158 37.1843C49.7258 38.2371 50.1567 39.3437 51.0738 39.901C51.4398 40.1234 51.7047 40.182 52.3436 40.182C53.0456 40.182 53.2181 40.1356 53.6655 39.8267C54.3665 39.3427 54.6867 38.7099 54.6844 37.8133C54.6821 36.9639 54.3544 36.3562 53.6546 35.9036C53.135 35.5674 52.1364 35.441 51.5012 35.6311ZM45.1426 38.7934C45.3195 39.9795 45.6754 40.8969 46.3277 41.8476L46.8503 42.6097H33.4241H19.9978L20.5204 41.8476C21.1727 40.8969 21.5286 39.9795 21.7055 38.7934L21.8428 37.8727H33.4241H45.0053L45.1426 38.7934Z" fill="#D41D12"/>
</svg>
