<svg width="64" height="63" viewBox="0 0 64 63" fill="none" xmlns="http://www.w3.org/2000/svg">
<path d="M0 30.8856C0.335348 29.6758 0.848306 28.5791 1.82702 27.7308C4.22538 25.6492 8.02599 26.1957 9.71018 28.8785C9.97473 29.2995 10.0704 29.7193 9.74744 30.1379C9.3177 30.6943 8.62217 30.6111 8.15765 29.9367C7.36275 28.7828 6.28218 28.2289 4.88117 28.3717C3.33361 28.5307 2.20336 29.6336 1.90776 31.2396C1.65935 32.5909 2.42941 34.0838 3.71367 34.7396C4.35946 35.0766 5.09713 35.1951 5.81599 35.0773C6.53485 34.9595 7.19612 34.6118 7.70058 34.0863C7.86785 33.904 8.02263 33.7106 8.16386 33.5075C8.56131 32.966 9.07551 32.8182 9.54002 33.1175C10.0045 33.4168 10.094 34.0105 9.70273 34.5868C8.61223 36.1903 7.09447 37.0274 5.15194 36.9839C2.70514 36.9281 0.745217 35.3246 0.132897 32.9523C0.0957069 32.8391 0.0513174 32.7283 0 32.6207L0 30.8856Z" fill="#D41D12"/>
<path d="M24.8907 41.5157C24.5988 40.7034 24.0411 40.1048 23.3704 39.6167C20.816 37.752 19.5553 35.2426 19.5885 32.0887C19.5972 31.1808 19.5885 30.2716 19.5885 29.3637C19.5947 27.0585 21.1 25.4588 23.3891 25.3197C23.4909 25.3135 23.5915 25.2985 23.7704 25.2787V24.5484C23.7704 22.2146 23.7555 19.8808 23.7865 17.547C23.8051 16.1982 24.5119 15.2331 25.7166 14.6904C26.9214 14.1476 28.1026 14.3178 29.1421 15.1537C29.9681 15.8119 30.3432 16.7112 30.3506 17.7619C30.3606 19.1865 30.3506 20.6111 30.3506 22.0357V22.7524C32.2013 22.2444 33.6358 22.7077 34.6443 24.367C35.5138 23.9497 36.403 23.787 37.3346 24.0727C38.2661 24.3583 38.9033 24.9508 39.3392 25.7817C39.8422 25.701 40.3204 25.5668 40.8023 25.5556C41.2161 25.5459 41.6276 25.6187 42.0129 25.7696C42.3983 25.9206 42.7497 26.1468 43.0467 26.435C43.3437 26.7233 43.5804 27.0677 43.7429 27.4484C43.9053 27.829 43.9904 28.2382 43.9931 28.652C44.0117 30.7784 44.0204 32.906 43.9869 35.0323C43.9645 36.4706 43.4764 37.7785 42.6654 38.9633C42.124 39.7156 41.7778 40.5905 41.6581 41.5095C43.2243 41.8324 43.2243 41.8324 43.2243 43.4508C43.2243 44.8965 43.2243 46.341 43.2243 47.7867C43.2243 48.758 42.8914 49.0822 41.9102 49.0822C38.8747 49.0822 35.8392 49.0822 32.8036 49.0822C32.5801 49.0822 32.2882 49.1008 32.1491 48.9766C31.9007 48.7481 31.5604 48.4065 31.579 48.1333C31.5989 47.8265 31.933 47.4936 32.2087 47.2638C32.3677 47.1334 32.6832 47.1732 32.9278 47.1732C35.4483 47.1682 37.968 47.1682 40.4868 47.1732H41.2668V43.534H25.426V47.1645C26.1166 47.1645 26.7922 47.1645 27.4654 47.1645C27.714 47.1549 27.963 47.1624 28.2106 47.1868C28.7422 47.2638 29.1161 47.6737 29.08 48.1482C29.0366 48.6661 28.7285 49.0312 28.2193 49.0474C26.9409 49.0896 25.6612 49.0896 24.3802 49.0474C23.8064 49.0288 23.4859 48.6176 23.481 48.0538C23.4648 46.2367 23.4586 44.4196 23.481 42.6025C23.4872 41.9057 23.7716 41.7219 24.8907 41.5157ZM39.6596 41.5642C39.8745 40.8189 40.0087 40.1271 40.2807 39.49C40.5576 38.8305 40.9961 38.2405 41.3053 37.5922C41.5873 37.0009 41.9673 36.3824 41.9971 35.7602C42.1102 33.3916 42.1213 31.0168 42.1213 28.6446C42.1184 28.472 42.08 28.3018 42.0086 28.1446C41.9371 27.9874 41.8342 27.8466 41.7061 27.7309C41.578 27.6151 41.4275 27.5269 41.2639 27.4717C41.1003 27.4165 40.9272 27.3955 40.7551 27.41C40.1254 27.4572 39.6808 28.0062 39.6621 28.7588C39.6621 28.8619 39.6621 28.9663 39.6621 29.0693C39.636 29.6767 39.2572 30.1015 38.7356 30.1089C38.2139 30.1164 37.8202 29.6928 37.8028 29.083C37.7854 28.4732 37.8202 27.841 37.7867 27.22C37.7395 26.3394 37.1234 25.7618 36.3161 25.7929C35.5361 25.8214 34.9822 26.4139 34.9598 27.2696C34.9449 27.8273 34.9598 28.3875 34.9598 28.9427C34.9598 29.6568 34.5996 30.0891 34.027 30.0853C33.4545 30.0816 33.1092 29.6481 33.1055 28.9302C33.0993 27.8981 33.1216 26.8635 33.0868 25.8326C33.0558 24.9284 32.4745 24.3968 31.6262 24.4167C30.8599 24.4341 30.373 24.9818 30.3618 25.8662C30.3506 26.7964 30.3618 27.7292 30.3618 28.6545C30.3618 29.5798 30.0575 30.0568 29.4365 30.0853C28.7969 30.1089 28.4665 29.6258 28.4652 28.652C28.4652 25.1619 28.4652 21.6714 28.4652 18.1805C28.4652 16.9385 27.9448 16.2516 27.0319 16.269C26.119 16.2864 25.6508 16.9347 25.6508 18.1569C25.6508 22.7623 25.6508 27.3682 25.6508 31.9745C25.6508 32.8215 25.349 33.2413 24.7354 33.2562C24.0933 33.2724 23.7803 32.8538 23.7753 31.962C23.7753 31.2802 23.7753 30.5958 23.7753 29.9177V27.2858C22.4874 27.0945 21.4987 27.9366 21.4602 29.2209C21.4316 30.1698 21.4602 31.1199 21.4527 32.0701C21.4453 34.5989 22.4215 36.6259 24.4957 38.1101C25.5428 38.8309 26.3301 39.8695 26.7413 41.0723C26.8817 41.4921 27.0667 41.5965 27.4803 41.5952C31.384 41.5803 35.2877 41.5865 39.1914 41.5853C39.3516 41.5853 39.5143 41.5704 39.6596 41.5642Z" fill="#D41D12"/>
<path d="M31.7203 10.5448C28.8375 10.5386 26.4329 8.12537 26.4454 5.25007C26.4559 3.85209 27.0193 2.51511 28.0127 1.53134C29.006 0.54757 30.3483 -0.00298155 31.7463 1.21453e-05C34.6564 0.00746432 37.0386 2.38968 37.0237 5.27615C37.0068 6.67425 36.4415 8.0098 35.4496 8.99522C34.4577 9.98065 33.1184 10.5371 31.7203 10.5448ZM28.3568 5.25131C28.3576 5.91934 28.5564 6.57214 28.9282 7.12714C29.3 7.68214 29.8281 8.11441 30.4456 8.36925C31.0631 8.6241 31.7423 8.69008 32.3973 8.55885C33.0523 8.42762 33.6537 8.10508 34.1254 7.63202C34.5971 7.15895 34.9178 6.55663 35.0471 5.90124C35.1764 5.24584 35.1085 4.56682 34.8518 3.95007C34.5951 3.33331 34.1613 2.80654 33.6052 2.43637C33.0491 2.0662 32.3957 1.86928 31.7277 1.87051C30.8336 1.87574 29.9777 2.23393 29.3464 2.86711C28.7151 3.50028 28.3594 4.35719 28.3568 5.25131V5.25131Z" fill="#D41D12"/>
<path d="M13.0333 7.81008C15.9434 7.81878 18.3256 10.2035 18.3069 13.0887C18.2897 14.4868 17.7239 15.8221 16.7314 16.807C15.7389 17.7918 14.3992 18.3473 13.001 18.3537C10.1195 18.3475 7.71368 15.9292 7.72858 13.0564C7.73974 11.6583 8.30407 10.3216 9.29815 9.33841C10.2922 8.35527 11.6352 7.80577 13.0333 7.81008V7.81008ZM16.3967 13.1098C16.3994 12.4421 16.2041 11.7885 15.8356 11.2317C15.4671 10.6749 14.9418 10.2397 14.3261 9.98128C13.7104 9.72281 13.0319 9.65259 12.3764 9.7795C11.7208 9.9064 11.1175 10.2247 10.6428 10.6943C10.168 11.1638 9.84306 11.7636 9.70894 12.4177C9.57482 13.0718 9.63756 13.751 9.88923 14.3695C10.1409 14.988 10.5702 15.5181 11.123 15.8927C11.6757 16.2674 12.3271 16.4698 12.9948 16.4745C13.8914 16.4771 14.7526 16.1247 15.3901 15.4942C16.0276 14.8637 16.3895 14.0064 16.3967 13.1098V13.1098Z" fill="#D41D12"/>
<path d="M13.0205 55.9139C11.9788 55.9112 10.9613 55.6 10.0963 55.0196C9.23131 54.4392 8.55765 53.6155 8.16033 52.6526C7.763 51.6897 7.65982 50.6307 7.86379 49.6091C8.06776 48.5876 8.56975 47.6494 9.30641 46.913C10.0431 46.1765 10.9814 45.6747 12.0029 45.471C13.0245 45.2672 14.0835 45.3707 15.0463 45.7682C16.0092 46.1658 16.8327 46.8396 17.4129 47.7047C17.9931 48.5698 18.3041 49.5874 18.3065 50.6291C18.3103 53.5081 15.9057 55.9127 13.0205 55.9139ZM9.63965 50.5869C9.63191 51.0304 9.71159 51.471 9.87414 51.8837C10.0367 52.2964 10.2789 52.6731 10.5871 52.9921C11.2093 53.6365 12.0621 54.0073 12.9577 54.023C13.8534 54.0386 14.7186 53.6978 15.363 53.0756C16.0074 52.4533 16.3782 51.6005 16.3938 50.7049C16.4224 48.7797 14.9431 47.2496 13.0403 47.2409C12.5966 47.2346 12.1561 47.3165 11.7442 47.4818C11.3324 47.647 10.9575 47.8924 10.6411 48.2036C10.3248 48.5148 10.0734 48.8858 9.90152 49.2949C9.7296 49.704 9.6406 50.1431 9.63965 50.5869V50.5869Z" fill="#D41D12"/>
<path d="M50.7007 45.3691C52.0988 45.3701 53.4397 45.9244 54.4304 46.9109C55.4211 47.8975 55.9811 49.236 55.988 50.6341C55.988 53.5156 53.5834 55.9152 50.6982 55.914C49.2999 55.914 47.9588 55.3585 46.97 54.3697C45.9813 53.3809 45.4258 52.0399 45.4258 50.6416C45.4258 49.2432 45.9813 47.9022 46.97 46.9134C47.9588 45.9246 49.2999 45.3691 50.6982 45.3691H50.7007ZM54.0778 50.6552C54.0775 49.9875 53.8794 49.3348 53.5084 48.7796C53.1374 48.2244 52.6102 47.7915 51.9934 47.5358C51.3766 47.28 50.6978 47.2128 50.0428 47.3426C49.3878 47.4724 48.7859 47.7934 48.3132 48.265C47.8406 48.7367 47.5182 49.3378 47.387 49.9925C47.2558 50.6472 47.3215 51.3262 47.5759 51.9436C47.8303 52.5609 48.262 53.0891 48.8164 53.4613C49.3707 53.8335 50.023 54.0331 50.6907 54.0348C51.1359 54.0384 51.5774 53.9535 51.9895 53.7851C52.4015 53.6166 52.776 53.3679 53.0912 53.0535C53.4063 52.739 53.6558 52.3651 53.8252 51.9534C53.9945 51.5417 54.0804 51.1004 54.0778 50.6552V50.6552Z" fill="#D41D12"/>
<path d="M58.2133 36.9927C57.169 36.9968 56.147 36.6911 55.2767 36.114C54.4063 35.537 53.7268 34.7146 53.3241 33.7512C52.9214 32.7877 52.8137 31.7263 53.0146 30.7016C53.2155 29.6768 53.7159 28.7347 54.4526 27.9946C55.1892 27.2544 56.129 26.7495 57.1528 26.5438C58.1766 26.3381 59.2384 26.4408 60.2038 26.839C61.1691 27.2371 61.9947 27.9128 62.5758 28.7804C63.1569 29.648 63.4675 30.6685 63.4683 31.7128C63.4724 32.4052 63.3394 33.0916 63.0771 33.7324C62.8148 34.3732 62.4283 34.9558 61.9398 35.4466C61.4513 35.9373 60.8706 36.3266 60.231 36.592C59.5914 36.8573 58.9057 36.9935 58.2133 36.9927V36.9927ZM58.1922 35.1122C58.8626 35.1103 59.5175 34.9095 60.0738 34.5353C60.6302 34.1611 61.0631 33.6303 61.3177 33.0101C61.5724 32.3898 61.6373 31.708 61.5044 31.0508C61.3715 30.3937 61.0467 29.7907 60.571 29.3181C60.0953 28.8456 59.4902 28.5247 58.8322 28.3962C58.1741 28.2676 57.4928 28.3371 56.8742 28.5958C56.2557 28.8545 55.7277 29.2909 55.3572 29.8497C54.9867 30.4085 54.7903 31.0647 54.7927 31.7352C54.8019 32.6319 55.1636 33.4889 55.7998 34.1209C56.436 34.7529 57.2954 35.109 58.1922 35.1122V35.1122Z" fill="#D41D12"/>
<path d="M54.231 12.9752C53.9689 12.3418 53.7491 11.686 53.4324 11.0811C53.0983 10.4452 53.1194 9.93597 53.6162 9.61677C54.0931 9.30999 54.585 9.44909 54.9936 10.0043C56.2592 11.7282 56.299 14.1837 55.0905 15.9896C54.4922 16.8889 53.633 17.5836 52.6283 17.9801C51.6236 18.3767 50.5215 18.4562 49.4703 18.2079C47.3824 17.7111 45.7442 15.9089 45.4884 13.8074C45.1369 10.9681 46.8745 8.50888 49.6591 7.90028C50.377 7.74255 50.885 8.00213 51.0191 8.59458C51.1433 9.13362 50.7968 9.54721 50.0777 9.72855C48.4245 10.1459 47.3825 11.3432 47.3253 12.8771C47.2669 14.4917 48.1587 15.7983 49.6492 16.2902C50.1595 16.4596 50.703 16.5044 51.2342 16.4208C51.7653 16.3371 52.2688 16.1274 52.7023 15.8093C53.1358 15.4912 53.4869 15.0738 53.726 14.5922C53.9652 14.1106 54.0855 13.5787 54.077 13.041L54.231 12.9752Z" fill="#D41D12"/>
<path d="M31.168 52.9302C33.9464 52.9302 35.8964 54.279 36.6714 56.3296C37.0515 57.3408 37.1124 58.4443 36.8459 59.4912C36.5794 60.5381 35.9983 61.4781 35.181 62.1845C35.0412 62.3069 34.893 62.4193 34.7376 62.5211C34.2408 62.8428 33.744 62.7782 33.4161 62.3584C33.0882 61.9386 33.2062 61.4691 33.5937 61.0319C34.0768 60.4854 34.6469 59.9427 34.9102 59.2931C35.5722 57.6549 34.6929 55.7682 33.0807 55.0702C32.2993 54.7287 31.4179 54.6937 30.6119 54.9723C29.8058 55.2508 29.1341 55.8225 28.7302 56.5736C28.3263 57.3247 28.2198 58.2003 28.4319 59.0263C28.6441 59.8524 29.1592 60.5683 29.8751 61.0319C29.9781 61.1002 30.0874 61.1561 30.1918 61.2257C30.7333 61.5735 30.8948 62.0591 30.629 62.5323C30.3632 63.0055 29.813 63.1409 29.2304 62.8403C26.3415 61.3499 25.5441 57.4002 27.6357 54.8789C28.7013 53.5984 30.0688 52.9351 31.168 52.9302Z" fill="#D41D12"/>
</svg>
