<svg width="70" height="70" viewBox="0 0 70 70" fill="none" xmlns="http://www.w3.org/2000/svg">
<path d="M34.1259 69.936C33.5783 69.401 32.9924 68.896 32.4832 68.324C21.8879 56.3941 11.2981 44.4592 0.713731 32.5192C-0.244499 31.4395 -0.234917 30.977 0.724682 29.8891C4.35638 25.7838 8.0045 21.6786 11.602 17.5404C12.3384 16.692 13.116 16.3499 14.2494 16.3526C27.8627 16.3901 41.4769 16.3901 55.0919 16.3526C56.0187 16.3526 56.673 16.6386 57.2822 17.3311C61.0138 21.5964 64.7783 25.8331 68.5236 30.0875C68.7577 30.3612 68.9137 30.691 69.1067 30.9962V31.5435C68.833 31.8952 68.577 32.2633 68.2854 32.5958C57.7211 44.5121 47.1551 56.4219 36.5871 68.3254C36.0793 68.8974 35.492 69.401 34.9445 69.936H34.1259ZM34.5365 63.0255C34.7049 62.604 34.8007 62.3769 34.887 62.1456C37.0051 56.4174 39.1219 50.6891 41.2373 44.9609C41.6849 43.7471 42.1148 42.5265 42.598 41.3264C42.9238 40.5176 43.6233 40.207 44.3584 40.4574C45.0428 40.6914 45.3864 41.4345 45.1715 42.2501C45.1263 42.4252 45.0511 42.5922 44.9881 42.7632C42.922 48.3409 40.8581 53.9191 38.7965 59.4977C38.3736 60.639 37.9615 61.7843 37.544 62.9283L37.6467 62.9885L64.5606 32.6492H23.5265L34.5365 63.0255ZM31.4045 62.9639L31.5332 62.9064C31.4894 62.76 31.4524 62.6109 31.3963 62.4685C27.8563 52.6953 24.3177 42.9201 20.7804 33.1432C20.6258 32.7135 20.4191 32.6082 19.9988 32.6082C15.058 32.6209 10.1172 32.6241 5.17635 32.6177C5.00524 32.6177 4.83412 32.6342 4.51106 32.6506L31.4045 62.9639ZM34.6159 20.3211L25.0213 29.7742H44.2064L34.6159 20.3211ZM15.7511 19.136L21.6086 28.5781L31.2416 19.136H15.7511ZM53.3083 19.1538H37.6713L47.3987 28.6821C49.3015 25.6169 51.2713 22.4421 53.3083 19.1579V19.1538ZM19.1241 29.7974L13.0817 20.0652L4.48368 29.7974H19.1241ZM49.9586 29.7837H64.5798L55.9872 20.0679L49.9586 29.7837Z" fill="#D41D12"/>
<path d="M33.1716 4.85531C33.1716 3.74279 33.1634 2.63026 33.1716 1.51773C33.1839 0.591306 33.7438 -0.0108006 34.5556 0.000146823C35.3413 0.0110942 35.8916 0.602253 35.8957 1.49173C35.9067 3.73868 35.9067 5.98655 35.8957 8.23532C35.8957 9.1549 35.3153 9.77206 34.5145 9.75701C33.7137 9.74196 33.1853 9.14806 33.1757 8.26132C33.162 7.1269 33.1716 5.99111 33.1716 4.85531Z" fill="#D41D12"/>
<path d="M29.1425 11.1361C29.1055 12.4128 27.9543 13.03 27.0549 12.4799C26.938 12.41 26.8292 12.3274 26.7305 12.2336C25.107 10.6134 23.4793 8.99588 21.8709 7.36198C21.3986 6.88167 21.2562 6.30419 21.6245 5.6843C21.9708 5.10272 22.5033 4.89335 23.1303 5.06714C23.4295 5.16501 23.7002 5.33461 23.9187 5.56114C25.4724 7.08967 27.022 8.62504 28.5415 10.1864C28.8454 10.4929 29.0206 10.9267 29.1425 11.1361Z" fill="#D41D12"/>
<path d="M40.9516 12.8375C40.5888 12.5638 40.0878 12.364 39.9085 12.0028C39.7291 11.6415 39.8195 11.1106 39.8784 10.6658C39.903 10.4756 40.1302 10.2991 40.289 10.1403C41.7948 8.62139 43.2992 7.11613 44.8215 5.61086C45.0533 5.36583 45.3393 5.17839 45.6565 5.06349C45.9281 4.96759 46.2247 4.96983 46.4947 5.06983C46.7648 5.16983 46.9913 5.36126 47.1349 5.61086C47.5031 6.15823 47.4949 6.76718 46.9816 7.29402C45.3325 8.98722 43.662 10.6572 41.97 12.3038C41.751 12.5255 41.3883 12.6145 40.9516 12.8375Z" fill="#D41D12"/>
<path d="M45.5674 37.996C45.2146 37.9734 44.8845 37.8143 44.647 37.5525C44.4096 37.2906 44.2836 36.9466 44.2957 36.5934C44.3395 35.8435 45.0322 35.225 45.7522 35.2893C46.1047 35.3199 46.4321 35.4843 46.6671 35.7487C46.9021 36.0132 47.0269 36.3575 47.0157 36.7111C47.0087 36.8918 46.9653 37.0692 46.8879 37.2326C46.8106 37.3961 46.701 37.5423 46.5657 37.6623C46.4304 37.7823 46.2722 37.8738 46.1007 37.9311C45.9291 37.9885 45.7477 38.0105 45.5674 37.996V37.996Z" fill="#D41D12"/>
</svg>
