<svg width="24" height="24" viewBox="0 0 24 24" fill="none" xmlns="http://www.w3.org/2000/svg">
<path fill-rule="evenodd" clip-rule="evenodd" d="M3.94231 0.937216V1.87443L3.25131 1.87523C2.82655 1.87574 2.43397 1.9026 2.23239 1.94491C1.17796 2.16638 0.299013 3.04558 0.0776139 4.10032C-0.0258713 4.59353 -0.0258713 21.2736 0.0776139 21.7668C0.299013 22.8216 1.17796 23.7008 2.23239 23.9223C2.72597 24.0259 21.274 24.0259 21.7676 23.9223C22.822 23.7008 23.701 22.8216 23.9224 21.7668C24.0259 21.2736 24.0259 4.59353 23.9224 4.10032C23.701 3.04558 22.822 2.16638 21.7676 1.94491C21.566 1.9026 21.1734 1.87574 20.7487 1.87523L20.0577 1.87443V0.937216V0H19.1208H18.1838V0.937216V1.87443H12H5.81619V0.937216V0H4.87925H3.94231V0.937216ZM3.94231 4.68608V5.6233H4.87925H5.81619V4.68608V3.74886H12H18.1838V4.68608V5.6233H19.1208H20.0577V4.68186V3.74048L20.7757 3.75636C21.4507 3.77136 21.504 3.77932 21.6665 3.88945C21.7616 3.95388 21.897 4.08907 21.9675 4.18992L22.0955 4.37324L22.11 5.65432L22.1245 6.9354H12.0028H1.88104L1.88132 5.75216C1.88146 5.09672 1.90278 4.49259 1.9291 4.39779C1.98705 4.18908 2.30744 3.85782 2.50738 3.79985C2.58805 3.77647 2.9439 3.75543 3.29816 3.75308L3.94231 3.74886V4.68608ZM22.1079 15.1518L22.0955 21.4937L21.9675 21.6772C21.897 21.778 21.7616 21.9133 21.6664 21.9777L21.4934 22.0949H12H2.50659L2.33363 21.9777C2.23843 21.9133 2.10295 21.778 2.03254 21.6772L1.90446 21.4937L1.89209 15.1518L1.87973 8.80983H12H22.1203L22.1079 15.1518ZM3.56753 11.7152V12.6524H4.50447H5.44141V11.7152V10.778H4.50447H3.56753V11.7152ZM7.3153 11.7152V12.6524H8.25224H9.18918V11.7152V10.778H8.25224H7.3153V11.7152ZM11.0631 11.7152V12.6524H12H12.9369V11.7152V10.778H12H11.0631V11.7152ZM14.8108 11.7152V12.6524H15.7478H16.6847V11.7152V10.778H15.7478H14.8108V11.7152ZM18.5586 11.7152V12.6524H19.4955H20.4325V11.7152V10.778H19.4955H18.5586V11.7152ZM3.56753 15.4641V16.4013H4.50447H5.44141V15.4641V14.5269H4.50447H3.56753V15.4641ZM7.3153 15.4641V16.4013H8.25224H9.18918V15.4641V14.5269H8.25224H7.3153V15.4641ZM11.0631 15.4641V16.4013H12H12.9369V15.4641V14.5269H12H11.0631V15.4641ZM14.8108 15.4641V16.4013H15.7478H16.6847V15.4641V14.5269H15.7478H14.8108V15.4641ZM18.5586 15.4641V16.4013H19.4955H20.4325V15.4641V14.5269H19.4955H18.5586V15.4641ZM3.56753 19.2129V20.1501H4.50447H5.44141V19.2129V18.2757H4.50447H3.56753V19.2129ZM7.3153 19.2129V20.1501H8.25224H9.18918V19.2129V18.2757H8.25224H7.3153V19.2129ZM11.0631 19.2129V20.1501H12H12.9369V19.2129V18.2757H12H11.0631V19.2129ZM14.8108 19.2129V20.1501H15.7478H16.6847V19.2129V18.2757H15.7478H14.8108V19.2129Z" fill="#F2F2F2"/>
</svg>
