<svg width="213" height="80" viewBox="0 0 213 80" fill="none" xmlns="http://www.w3.org/2000/svg">
<g opacity="0.7" filter="url(#filter0_d_2_3)">
<path d="M79.2765 41.7041C78.7242 41.7041 78.2765 42.1519 78.2765 42.7041C78.2765 43.2564 78.7242 43.7041 79.2765 43.7041L79.2765 41.7041ZM124.827 43.4113C125.218 43.0207 125.218 42.3876 124.827 41.997L118.463 35.6331C118.073 35.2426 117.439 35.2426 117.049 35.6331C116.658 36.0236 116.658 36.6568 117.049 37.0473L122.706 42.7042L117.049 48.361C116.658 48.7515 116.658 49.3847 117.049 49.7752C117.439 50.1657 118.073 50.1657 118.463 49.7752L124.827 43.4113ZM79.2765 43.7041L124.12 43.7042L124.12 41.7042L79.2765 41.7041L79.2765 43.7041Z" fill="#25343F"/>
<path d="M124.119 22.8838C124.671 22.8838 125.119 22.436 125.119 21.8838C125.119 21.3315 124.671 20.8838 124.119 20.8838L124.119 22.8838ZM78.5685 21.1766C78.178 21.5672 78.178 22.2003 78.5685 22.5909L84.9325 28.9548C85.323 29.3453 85.9561 29.3453 86.3467 28.9548C86.7372 28.5643 86.7372 27.9311 86.3467 27.5406L80.6898 21.8838L86.3467 16.2269C86.7372 15.8364 86.7372 15.2032 86.3467 14.8127C85.9561 14.4222 85.323 14.4222 84.9325 14.8127L78.5685 21.1766ZM124.119 20.8838L79.2756 20.8838L79.2756 22.8838L124.119 22.8838L124.119 20.8838Z" fill="#25343F"/>
<path d="M73.6239 65.6128C73.2649 66.179 72.7415 66.3188 72.0927 66.3145C68.3744 66.2943 64.656 66.3764 60.9406 66.2828C57.7557 66.2021 54.6385 66.6833 51.507 67.1026C48.139 67.5536 44.7724 68.019 41.4044 68.4757C38.0134 68.9368 34.6214 69.3955 31.2284 69.8518C30.9682 69.8932 30.7058 69.9197 30.4426 69.931C29.7217 69.9483 29.3295 69.5823 29.3151 68.8518C29.2978 68.0406 29.3151 67.228 29.3151 66.3044H5.70744C5.46714 66.3157 5.22636 66.3119 4.98655 66.2928C4.39109 66.2136 3.98595 65.8894 4.00037 65.2641C4.01479 64.6387 4.40263 64.3189 5.02404 64.2872C5.23886 64.2771 5.45657 64.2771 5.66995 64.2771H14.5398V5.40525C14.5398 5.16607 14.5311 4.92545 14.5398 4.68482C14.5787 3.80158 14.9031 3.48315 15.7869 3.48171C20.0084 3.48171 24.2295 3.48171 28.4501 3.48171H29.3079C29.3079 2.80883 29.3079 2.19359 29.3079 1.5769C29.3151 0.612972 29.6612 0.239791 30.6055 0.320479C32.8374 0.510671 35.0462 0.742649 37.2622 0.961659C40.338 1.27 43.4138 1.58363 46.4896 1.90254L55.926 2.86359C57.9503 3.06915 59.9755 3.27519 62.0017 3.48171C62.799 3.56384 63.1148 3.89236 63.1162 4.68194C63.1162 9.97948 63.1162 15.277 63.1162 20.5746C63.1162 21.3065 62.7399 21.7272 62.1329 21.7402C61.4956 21.7532 61.1237 21.3209 61.1237 20.5429C61.1237 15.8197 61.1237 11.0976 61.1237 6.37639V5.41246L31.3524 2.40395V67.8029L61.1078 63.7685V62.9155C61.1078 57.9782 61.1078 53.0399 61.1078 48.1006C61.1078 47.909 61.0991 47.7174 61.1078 47.5243C61.1438 46.9249 61.5475 46.5042 62.0882 46.4955C62.3541 46.4955 62.6093 46.6004 62.7983 46.7874C62.9873 46.9743 63.0948 47.2283 63.0975 47.494C63.1248 48.1165 63.1061 48.7404 63.1061 49.3671V64.2843H63.9164C66.6558 64.2843 69.385 64.2973 72.1187 64.2728C72.7357 64.2728 73.2346 64.4097 73.6167 64.901L73.6239 65.6128ZM29.269 64.2425V11.3171H22.272V64.2425H29.269ZM20.1757 64.2295V10.8891C20.1757 9.51745 20.4381 9.25954 21.8136 9.25954H29.2632V5.52196H16.6231V64.2295H20.1757Z" fill="#25343F"/>
<path d="M40.8174 35.0744C40.827 35.7853 40.6254 36.483 40.2382 37.0794C39.8509 37.6757 39.2953 38.1439 38.6417 38.4246C37.9881 38.7053 37.2658 38.786 36.5664 38.6564C35.8669 38.5268 35.2216 38.1927 34.7121 37.6965C34.2027 37.2003 33.852 36.5642 33.7044 35.8687C33.5567 35.1733 33.6189 34.4497 33.8829 33.7895C34.1469 33.1293 34.601 32.5622 35.1876 32.16C35.7742 31.7578 36.467 31.5385 37.1783 31.5299C37.6514 31.519 38.122 31.6025 38.5624 31.7756C39.0028 31.9487 39.4042 32.2079 39.7431 32.538C40.082 32.8681 40.3516 33.2624 40.536 33.698C40.7205 34.1335 40.8161 34.6014 40.8174 35.0744V35.0744ZM38.8104 35.1464C38.8146 34.8338 38.7261 34.5269 38.5562 34.2644C38.3863 34.0019 38.1424 33.7955 37.8554 33.6712C37.5684 33.5468 37.251 33.5101 36.9431 33.5656C36.6352 33.6211 36.3506 33.7663 36.1251 33.983C35.8997 34.1998 35.7434 34.4783 35.6759 34.7836C35.6085 35.0889 35.6329 35.4073 35.7461 35.6988C35.8593 35.9902 36.0562 36.2417 36.3121 36.4216C36.5679 36.6015 36.8713 36.7018 37.1841 36.7097C37.3939 36.7151 37.6027 36.6788 37.7984 36.6029C37.9941 36.527 38.1728 36.413 38.324 36.2676C38.4753 36.1222 38.5962 35.9482 38.6797 35.7557C38.7632 35.5633 38.8076 35.3562 38.8104 35.1464V35.1464Z" fill="#25343F"/>
<path d="M63.1152 39.0482C63.1152 39.5266 63.1311 40.0064 63.1152 40.4891C63.0893 41.1245 62.6423 41.6 62.0887 41.5438C61.4932 41.4818 61.1256 41.1403 61.1198 40.5078C61.1111 39.5511 61.1039 38.5929 61.1198 37.6376C61.1313 37.0008 61.5754 36.5397 62.1391 36.5872C62.7504 36.6377 63.0893 37.0022 63.1123 37.6189C63.1253 38.0915 63.1152 38.5699 63.1152 39.0482Z" fill="#25343F"/>
<path d="M63.1151 29.1927C63.1151 29.648 63.1295 30.1033 63.1151 30.5572C63.0892 31.1955 62.6451 31.6739 62.0929 31.6177C61.496 31.5572 61.1255 31.2157 61.1197 30.5817C61.1111 29.6235 61.0995 28.6654 61.1197 27.7C61.1356 27.0948 61.5724 26.6914 62.129 26.7231C62.7129 26.7591 63.0416 27.0905 63.1065 27.6755C63.1065 27.7231 63.1065 27.772 63.1065 27.8196L63.1151 29.1927Z" fill="#25343F"/>
<path d="M136.014 60.3307C136.646 58.9154 137.751 58.3699 139.268 58.4827C140.069 58.5413 140.879 58.4927 141.745 58.4927V53.9569C141.01 53.8755 140.156 53.8012 140.174 52.7701C140.197 51.8204 140.979 51.7318 141.754 51.6933V47.3003C141.253 47.0632 140.78 46.8889 140.372 46.619C140.229 46.5205 140.167 46.1906 140.169 45.9706C140.169 45.3237 140.589 45.0509 141.81 44.8681C141.81 44.4825 141.798 44.0826 141.81 43.6842C141.834 42.9244 142.185 42.3646 142.888 42.0661C144.677 41.3091 146.444 40.4822 148.279 39.8596C148.979 39.6225 149.905 39.6868 150.617 39.9296C152.34 40.518 153.998 41.2949 155.683 41.9932C156.495 42.3303 156.894 42.9501 156.922 43.8156C156.934 44.1669 156.922 44.5182 156.922 44.8567C158.194 45.068 158.636 45.3894 158.608 46.0563C158.579 46.7233 158.154 47.0332 156.985 47.1289V51.699C157.756 51.7204 158.556 51.7975 158.602 52.8315C158.631 53.4799 158.158 53.7869 156.961 53.974V58.497H205.87C206.131 58.497 206.394 58.4856 206.654 58.507C207.289 58.5446 207.886 58.8247 208.321 59.2894C208.757 59.7541 208.997 60.3681 208.993 61.0048C209.004 63.4741 209 65.9448 208.993 68.4141C208.993 69.9979 208.016 71.0005 206.445 71.0447C206.232 71.0519 206.017 71.0447 205.804 71.0447H148.439C148.154 71.0447 147.868 71.0447 147.582 71.029C146.968 70.9819 146.62 70.6206 146.583 70.0293C146.545 69.4381 146.904 69.051 147.48 68.9211C147.738 68.884 148 68.8749 148.261 68.8939H169.886C169.886 67.84 169.924 66.826 169.877 65.8163C169.786 63.8454 170.2 62.9814 172.701 62.9999C181.227 63.0642 189.754 63.0242 198.282 63.0257C200.038 63.0257 200.59 63.5712 200.591 65.3107C200.591 66.4704 200.591 67.6315 200.591 68.8311C200.737 68.8613 200.885 68.8818 201.034 68.8925C202.748 68.8925 204.461 68.8854 206.164 68.9025C206.628 68.9025 206.868 68.7897 206.865 68.2684C206.848 65.9415 206.848 63.6141 206.865 61.2862C206.865 60.812 206.646 60.6464 206.214 60.6606C206.048 60.6606 205.882 60.6606 205.715 60.6606H139.299C138.147 60.6606 138.147 60.6606 138.147 61.776C138.147 63.8897 138.162 66.0048 138.137 68.1185C138.137 68.6897 138.289 68.9339 138.902 68.9068C139.875 68.8639 140.85 68.8882 141.823 68.8982C142.628 68.9068 143.132 69.3452 143.122 70.0008C143.111 70.632 142.637 71.0362 141.855 71.0462C140.953 71.059 140.046 70.9976 139.142 71.0619C137.625 71.1718 136.571 70.5963 136 69.171L136.014 60.3307ZM144.012 51.6533H154.677V47.1389H144.012V51.6533ZM154.683 58.4598V53.9412H144.021V58.4598H154.683ZM144.042 44.8924H154.677C154.904 44.1783 154.637 43.8598 154.01 43.6242C152.685 43.1272 151.404 42.5059 150.073 42.0232C149.617 41.8704 149.123 41.8704 148.666 42.0232C147.334 42.4959 146.057 43.13 144.726 43.6156C144.053 43.8613 143.825 44.2069 144.039 44.8867L144.042 44.8924ZM184.102 68.8711V65.2136H178.817V68.8711H184.102ZM191.587 68.8639V65.2064H186.36V68.8639H191.587ZM172.082 68.8554H176.574V65.2164H172.082V68.8554ZM198.425 65.2093H193.869V68.8368H198.425V65.2093Z" fill="#25343F"/>
<path d="M174.052 20.4224L169.346 12.4491C167.393 9.13955 165.441 5.83052 163.491 2.52197C162.648 1.09381 163.248 0.0212677 164.898 0.0155551C166.656 0.0155551 168.414 0.0441181 170.171 0.00127351C171.142 -0.0230051 171.884 0.299758 172.581 0.978131C179.011 7.24677 185.449 13.5049 191.896 19.7526C192.368 20.2139 192.828 20.4596 193.512 20.4239C194.72 20.3596 195.94 20.4367 197.145 20.3853C198.716 20.3218 200.279 20.6281 201.71 21.2793C203.095 21.8949 204.522 22.4133 205.92 22.9931C207.391 23.6101 208.171 24.7455 208.135 26.2365C208.098 27.7746 207.318 28.82 205.907 29.4013C204.199 30.1058 202.489 30.8061 200.777 31.5021C199.026 32.2161 197.167 32.1519 195.365 32.0048C193.422 31.8448 192.057 32.4775 190.712 33.8785C187.753 36.9605 184.609 39.8653 181.54 42.843C181.437 42.9416 181.34 43.0458 181.229 43.1358C180.747 43.5228 180.148 43.5114 179.746 43.113C179.318 42.6845 179.294 42.0618 179.763 41.5877C180.763 40.5751 181.796 39.5883 182.818 38.5971C184.863 36.612 186.91 34.6278 188.959 32.6446C189.102 32.5018 189.245 32.3475 189.473 32.1076C189.134 32.0876 188.909 32.0633 188.687 32.0633C184.862 32.0633 181.037 32.0686 177.213 32.079C176.85 32.079 176.566 32.0905 176.333 32.4861C172.913 38.3186 169.479 44.1427 166.032 49.9581C165.975 50.0552 165.929 50.1595 165.827 50.3594C167.448 50.3594 168.979 50.3751 170.51 50.3408C170.723 50.3408 170.957 50.1066 171.136 49.9352C172.778 48.3538 174.416 46.7671 176.049 45.1752C176.447 44.7882 176.897 44.6554 177.406 44.9439C177.611 45.0442 177.774 45.2141 177.866 45.4233C177.957 45.6325 177.972 45.8674 177.907 46.0864C177.821 46.3548 177.669 46.5968 177.463 46.789C175.749 48.4685 174.019 50.1309 172.304 51.8076C171.777 52.3231 171.162 52.5216 170.433 52.5216C168.557 52.5074 166.68 52.5216 164.804 52.5216C163.303 52.5116 162.673 51.4063 163.435 50.1123C166.784 44.4321 170.137 38.7547 173.495 33.0802C173.661 32.7945 173.821 32.5089 174.025 32.1547C173.878 32.1203 173.728 32.0993 173.577 32.0919C170.266 32.3418 167.069 31.5749 163.847 31.0265C162.677 30.828 161.514 30.5866 160.341 30.4395C159.953 30.4045 159.565 30.5055 159.244 30.7251C157.156 32.2518 155.093 33.8142 153.036 35.3852C152.54 35.796 151.911 36.0096 151.267 35.985C150.319 35.9479 149.367 35.9693 148.411 35.985C147.741 35.9993 147.189 35.8079 146.867 35.1838C146.546 34.5597 146.702 34.0028 147.067 33.4472C148.495 31.265 149.902 29.0628 151.36 26.8991C151.684 26.4178 151.646 26.1094 151.337 25.6581C149.895 23.5158 148.497 21.335 147.066 19.18C146.682 18.6016 146.513 18.0203 146.853 17.3833C147.193 16.7464 147.787 16.5636 148.478 16.5879C149.049 16.6313 149.622 16.6279 150.192 16.5779C151.62 16.4008 152.74 16.9035 153.832 17.7932C155.563 19.1999 157.38 20.5067 159.192 21.8035C159.531 22.034 159.942 22.1353 160.349 22.0891C163.435 21.5821 166.506 20.9694 169.598 20.4996C170.76 20.3239 171.967 20.4439 173.154 20.4296C173.401 20.4224 173.657 20.4224 174.052 20.4224ZM165.8 2.16921C166.003 2.53053 166.125 2.75904 166.257 2.98183C169.399 8.3117 172.59 13.6187 175.67 18.9872C176.306 20.094 176.956 20.5438 178.25 20.4596C180.283 20.3268 182.331 20.4124 184.373 20.4224C185.088 20.4224 185.55 20.8637 185.549 21.4821C185.547 22.1005 185.075 22.5261 184.372 22.5533C184.206 22.5604 184.039 22.5533 183.874 22.5533C180.502 22.5533 177.128 22.5461 173.757 22.5533C172.43 22.5533 171.083 22.4776 169.779 22.6689C166.616 23.1302 163.468 23.7058 160.323 24.2899C159.954 24.369 159.572 24.3639 159.205 24.2752C158.837 24.1864 158.495 24.0162 158.203 23.7772C156.27 22.319 154.277 20.9366 152.407 19.4027C151.48 18.643 150.538 18.6887 149.422 18.7529C149.591 19.0386 149.708 19.2614 149.851 19.467C151.033 21.2736 152.197 23.0917 153.421 24.8754C154.064 25.8194 154.084 26.6749 153.438 27.6289C152.19 29.4769 150.996 31.3607 149.781 33.2301C149.675 33.3944 149.592 33.5729 149.495 33.7357C150.78 34.0213 151.78 33.6857 152.758 32.8788C154.554 31.4192 156.437 30.0496 158.334 28.7057C158.781 28.3887 159.439 28.1445 159.962 28.2059C161.7 28.4087 163.42 28.7771 165.149 29.0628C167.671 29.4812 170.169 29.9697 172.761 29.9411C180.739 29.854 188.719 29.8554 196.698 29.8797C198.324 29.8797 199.84 29.6512 201.319 28.9728C202.478 28.4387 203.679 27.9888 204.868 27.5161C205.479 27.2719 205.984 26.9263 205.986 26.2022C205.987 25.4781 205.492 25.1296 204.876 24.8854C203.312 24.267 201.771 23.5844 200.187 23.0288C199.41 22.7488 198.594 22.5922 197.768 22.5647C195.205 22.509 192.638 22.5732 190.075 22.5175C189.685 22.509 189.169 22.1934 188.949 21.8635C188.654 21.4179 188.856 20.9023 189.319 20.5596C189.367 20.5101 189.407 20.4544 189.439 20.3939C189.366 20.3082 189.312 20.2311 189.245 20.1668C183.162 14.2638 177.078 8.36073 170.992 2.4577C170.851 2.30481 170.662 2.20415 170.456 2.17207C168.944 2.15921 167.434 2.16921 165.8 2.16921Z" fill="#25343F"/>
<path d="M174.406 24.8054C174.678 24.8055 174.945 24.887 175.171 25.0394C175.397 25.1918 175.572 25.4082 175.675 25.6609C175.777 25.9135 175.801 26.191 175.745 26.4578C175.689 26.7245 175.554 26.9684 175.359 27.1582C175.163 27.348 174.915 27.475 174.647 27.5231C174.378 27.5712 174.102 27.5381 173.852 27.428C173.603 27.318 173.392 27.136 173.247 26.9054C173.101 26.6748 173.028 26.406 173.036 26.1335C173.038 25.956 173.074 25.7806 173.144 25.6174C173.214 25.4542 173.316 25.3065 173.443 25.183C173.571 25.0594 173.721 24.9624 173.887 24.8975C174.052 24.8327 174.228 24.8014 174.406 24.8054V24.8054Z" fill="#25343F"/>
<path d="M180.87 26.135C180.877 26.5039 180.738 26.8606 180.482 27.1265C180.226 27.3925 179.875 27.546 179.506 27.5532C179.137 27.5603 178.781 27.4207 178.515 27.1649C178.249 26.9091 178.095 26.5582 178.088 26.1893C178.085 26.0066 178.117 25.825 178.184 25.6549C178.25 25.4847 178.35 25.3294 178.476 25.1977C178.603 25.066 178.754 24.9606 178.922 24.8874C179.089 24.8142 179.269 24.7747 179.452 24.7711C179.635 24.7675 179.816 24.8 179.986 24.8666C180.157 24.9332 180.312 25.0327 180.444 25.1593C180.575 25.286 180.681 25.4373 180.754 25.6047C180.827 25.7721 180.867 25.9523 180.87 26.135V26.135Z" fill="#25343F"/>
<path d="M185.84 26.1552C185.829 26.5151 185.677 26.8564 185.419 27.1069C185.16 27.3573 184.814 27.4974 184.454 27.4974C184.094 27.4974 183.748 27.3573 183.489 27.1069C183.231 26.8564 183.08 26.5151 183.068 26.1552C183.08 25.7953 183.231 25.454 183.489 25.2035C183.748 24.953 184.094 24.8129 184.454 24.8129C184.814 24.8129 185.16 24.953 185.419 25.2035C185.677 25.454 185.829 25.7953 185.84 26.1552V26.1552Z" fill="#25343F"/>
<path d="M190.902 26.1865C190.891 26.4529 190.803 26.7102 190.647 26.9265C190.491 27.1429 190.275 27.3086 190.025 27.4032C189.776 27.4978 189.505 27.5171 189.244 27.4587C188.984 27.4003 188.747 27.2668 188.562 27.0747C188.377 26.8826 188.253 26.6404 188.204 26.3782C188.156 26.116 188.185 25.8453 188.289 25.5998C188.393 25.3543 188.567 25.1448 188.789 24.9972C189.011 24.8496 189.272 24.7705 189.538 24.7697C189.722 24.7688 189.904 24.8052 190.074 24.8767C190.243 24.9483 190.396 25.0535 190.524 25.1859C190.651 25.3184 190.751 25.4754 190.816 25.6474C190.881 25.8194 190.91 26.0028 190.902 26.1865V26.1865Z" fill="#25343F"/>
</g>
<defs>
<filter id="filter0_d_2_3" x="0" y="0" width="213" height="79.075" filterUnits="userSpaceOnUse" color-interpolation-filters="sRGB">
<feFlood flood-opacity="0" result="BackgroundImageFix"/>
<feColorMatrix in="SourceAlpha" type="matrix" values="0 0 0 0 0 0 0 0 0 0 0 0 0 0 0 0 0 0 127 0" result="hardAlpha"/>
<feOffset dy="4"/>
<feGaussianBlur stdDeviation="2"/>
<feComposite in2="hardAlpha" operator="out"/>
<feColorMatrix type="matrix" values="0 0 0 0 0 0 0 0 0 0 0 0 0 0 0 0 0 0 0.25 0"/>
<feBlend mode="normal" in2="BackgroundImageFix" result="effect1_dropShadow_2_3"/>
<feBlend mode="normal" in="SourceGraphic" in2="effect1_dropShadow_2_3" result="shape"/>
</filter>
</defs>
</svg>
