<svg width="215" height="82" viewBox="0 0 215 82" fill="none" xmlns="http://www.w3.org/2000/svg">
<g opacity="0.7" filter="url(#filter0_d_3_35)">
<path d="M83.4414 43.7401C82.8891 43.7401 82.4414 44.1878 82.4414 44.7401C82.4414 45.2924 82.8891 45.7401 83.4414 45.7401L83.4414 43.7401ZM131.473 45.4472C131.864 45.0567 131.864 44.4235 131.473 44.033L125.109 37.669C124.719 37.2785 124.086 37.2785 123.695 37.669C123.305 38.0595 123.305 38.6927 123.695 39.0832L129.352 44.7401L123.695 50.3969C123.305 50.7874 123.305 51.4206 123.695 51.8111C124.086 52.2017 124.719 52.2017 125.109 51.8111L131.473 45.4472ZM83.4414 45.7401L130.766 45.7401L130.766 43.7401L83.4414 43.7401L83.4414 45.7401Z" fill="#25343F"/>
<path d="M130.766 23.7678C131.318 23.7678 131.766 23.3201 131.766 22.7678C131.766 22.2155 131.318 21.7678 130.766 21.7678L130.766 23.7678ZM82.7337 22.0607C82.3431 22.4512 82.3431 23.0844 82.7337 23.4749L89.0976 29.8389C89.4882 30.2294 90.1213 30.2294 90.5118 29.8389C90.9024 29.4484 90.9024 28.8152 90.5118 28.4247L84.855 22.7678L90.5118 17.111C90.9024 16.7204 90.9024 16.0873 90.5118 15.6968C90.1213 15.3062 89.4882 15.3062 89.0976 15.6968L82.7337 22.0607ZM130.766 21.7678L83.4408 21.7678L83.4408 23.7678L130.766 23.7678L130.766 21.7678Z" fill="#25343F"/>
<path d="M77.4763 68.9163C77.0975 69.5139 76.5451 69.6614 75.8604 69.6569C71.9364 69.6356 68.0123 69.7222 64.0912 69.6234C60.7301 69.5383 57.4405 70.0461 54.1357 70.4886C50.5813 70.9646 47.0285 71.4557 43.4741 71.9377C39.8954 72.4243 36.3157 72.9084 32.735 73.3899C32.4604 73.4336 32.1835 73.4615 31.9057 73.4735C31.145 73.4918 30.7311 73.1055 30.7159 72.3346C30.6976 71.4785 30.7159 70.6209 30.7159 69.6462H5.80192C5.54832 69.6582 5.29422 69.6542 5.04114 69.6341C4.41274 69.5504 3.98518 69.2083 4.00039 68.5484C4.01561 67.8884 4.42491 67.5509 5.0807 67.5174C5.30741 67.5068 5.53717 67.5068 5.76236 67.5068H15.123V5.37738C15.123 5.12497 15.1138 4.87103 15.123 4.61709C15.1641 3.68498 15.5064 3.34893 16.4391 3.34741C20.8942 3.34741 25.3488 3.34741 29.8029 3.34741H30.7083C30.7083 2.6373 30.7083 1.98801 30.7083 1.3372C30.7159 0.319932 31.0811 -0.0738983 32.0777 0.0112542C34.433 0.211971 36.7641 0.456784 39.1027 0.687912C42.3487 1.01332 45.5947 1.3443 48.8407 1.68085L58.7992 2.69508C60.9355 2.91201 63.0728 3.12946 65.2111 3.34741C66.0525 3.43408 66.3857 3.78077 66.3872 4.61405C66.3872 10.2047 66.3872 15.7954 66.3872 21.386C66.3872 22.1585 65.9901 22.6025 65.3495 22.6162C64.677 22.6299 64.2844 22.1737 64.2844 21.3526C64.2844 16.3681 64.2844 11.3847 64.2844 6.40225V5.38498L32.8658 2.21001V71.2276L64.2677 66.97V66.0698C64.2677 60.8593 64.2677 55.6478 64.2677 50.4352C64.2677 50.233 64.2586 50.0307 64.2677 49.827C64.3057 49.1944 64.7318 48.7504 65.3024 48.7413C65.583 48.7413 65.8523 48.8519 66.0518 49.0493C66.2512 49.2466 66.3647 49.5146 66.3675 49.795C66.3964 50.4519 66.3766 51.1103 66.3766 51.7718V67.5144H67.2317C70.1227 67.5144 73.003 67.528 75.8878 67.5022C76.5391 67.5022 77.0655 67.6467 77.4687 68.1652L77.4763 68.9163ZM30.6672 67.4703V11.6163H23.2831V67.4703H30.6672ZM21.0707 67.4566V11.1647C21.0707 9.71712 21.3477 9.44493 22.7992 9.44493H30.6611V5.50055H17.3216V67.4566H21.0707Z" fill="#25343F"/>
<path d="M42.8548 36.6879C42.865 37.4381 42.6523 38.1745 42.2435 38.8039C41.8348 39.4332 41.2485 39.9273 40.5587 40.2235C39.869 40.5198 39.1068 40.6049 38.3686 40.4681C37.6304 40.3313 36.9494 39.9788 36.4118 39.4551C35.8741 38.9315 35.504 38.2602 35.3482 37.5262C35.1924 36.7923 35.258 36.0286 35.5366 35.3319C35.8153 34.6352 36.2944 34.0368 36.9135 33.6123C37.5325 33.1878 38.2637 32.9564 39.0144 32.9473C39.5137 32.9358 40.0103 33.0239 40.475 33.2066C40.9398 33.3893 41.3634 33.6628 41.7211 34.0112C42.0787 34.3595 42.3632 34.7757 42.5579 35.2353C42.7526 35.695 42.8535 36.1888 42.8548 36.6879V36.6879ZM40.7368 36.7639C40.7412 36.434 40.6478 36.1102 40.4685 35.8332C40.2892 35.5561 40.0319 35.3383 39.729 35.2071C39.426 35.0758 39.0911 35.037 38.7661 35.0956C38.4412 35.1542 38.1409 35.3075 37.903 35.5362C37.665 35.7649 37.5001 36.0589 37.4289 36.3811C37.3577 36.7032 37.3835 37.0393 37.5029 37.3469C37.6224 37.6545 37.8302 37.9199 38.1002 38.1097C38.3702 38.2996 38.6904 38.4053 39.0205 38.4138C39.2419 38.4194 39.4623 38.3811 39.6688 38.301C39.8753 38.2209 40.0639 38.1006 40.2235 37.9472C40.3832 37.7937 40.5107 37.6101 40.5988 37.407C40.687 37.2039 40.7338 36.9853 40.7368 36.7639V36.7639Z" fill="#25343F"/>
<path d="M66.3833 40.8817C66.3833 41.3865 66.4 41.8929 66.3833 42.4023C66.3559 43.0729 65.8842 43.5747 65.3 43.5154C64.6716 43.45 64.2836 43.0896 64.2775 42.4221C64.2684 41.4124 64.2607 40.4012 64.2775 39.3931C64.2897 38.721 64.7583 38.2344 65.3532 38.2846C65.9984 38.3378 66.3559 38.7225 66.3803 39.3733C66.394 39.872 66.3833 40.3769 66.3833 40.8817Z" fill="#25343F"/>
<path d="M66.3852 30.4812C66.3852 30.9617 66.4005 31.4422 66.3852 31.9212C66.3579 32.5948 65.8892 33.0996 65.3065 33.0403C64.6765 32.9764 64.2855 32.6161 64.2794 31.947C64.2703 30.9358 64.2581 29.9246 64.2794 28.9058C64.2962 28.2672 64.7572 27.8414 65.3445 27.8749C65.9607 27.9129 66.3076 28.2626 66.3761 28.88C66.3761 28.9302 66.3761 28.9819 66.3761 29.032L66.3852 30.4812Z" fill="#25343F"/>
<path d="M211 68.9163C210.621 69.5139 210.069 69.6614 209.384 69.6569C205.46 69.6356 201.536 69.7222 197.615 69.6234C194.254 69.5383 190.964 70.0461 187.659 70.4886C184.105 70.9646 180.552 71.4557 176.998 71.9377C173.419 72.4243 169.839 72.9084 166.259 73.3899C165.984 73.4336 165.707 73.4615 165.429 73.4735C164.669 73.4918 164.255 73.1055 164.24 72.3346C164.221 71.4785 164.24 70.6209 164.24 69.6462H139.326C139.072 69.6582 138.818 69.6542 138.565 69.6341C137.936 69.5504 137.509 69.2083 137.524 68.5484C137.539 67.8884 137.949 67.5509 138.604 67.5174C138.831 67.5068 139.061 67.5068 139.286 67.5068H148.647V5.37738C148.647 5.12497 148.638 4.87103 148.647 4.61709C148.688 3.68498 149.03 3.34893 149.963 3.34741C154.418 3.34741 158.873 3.34741 163.327 3.34741H164.232C164.232 2.6373 164.232 1.98801 164.232 1.3372C164.24 0.319932 164.605 -0.0738983 165.601 0.0112542C167.957 0.211971 170.288 0.456784 172.626 0.687912C175.872 1.01332 179.118 1.3443 182.364 1.68085L192.323 2.69508C194.459 2.91201 196.596 3.12946 198.735 3.34741C199.576 3.43408 199.909 3.78077 199.911 4.61405C199.911 10.2047 199.911 15.7954 199.911 21.386C199.911 22.1585 199.514 22.6025 198.873 22.6162C198.201 22.6299 197.808 22.1737 197.808 21.3526C197.808 16.3681 197.808 11.3847 197.808 6.40225V5.38498L166.39 2.21001V71.2276L197.791 66.97V66.0698C197.791 60.8593 197.791 55.6478 197.791 50.4352C197.791 50.233 197.782 50.0307 197.791 49.827C197.829 49.1944 198.255 48.7504 198.826 48.7413C199.107 48.7413 199.376 48.8519 199.575 49.0493C199.775 49.2466 199.888 49.5146 199.891 49.795C199.92 50.4519 199.9 51.1103 199.9 51.7718V67.5144H200.755C203.646 67.5144 206.527 67.528 209.412 67.5022C210.063 67.5022 210.589 67.6467 210.992 68.1652L211 68.9163ZM164.191 67.4703V11.6163H156.807V67.4703H164.191ZM154.594 67.4566V11.1647C154.594 9.71712 154.871 9.44493 156.323 9.44493H164.185V5.50055H150.845V67.4566H154.594Z" fill="#25343F"/>
<path d="M176.378 36.6879C176.389 37.4381 176.176 38.1745 175.767 38.8039C175.358 39.4332 174.772 39.9273 174.082 40.2235C173.393 40.5198 172.63 40.6049 171.892 40.4681C171.154 40.3313 170.473 39.9788 169.935 39.4551C169.398 38.9315 169.028 38.2602 168.872 37.5262C168.716 36.7923 168.782 36.0286 169.06 35.3319C169.339 34.6352 169.818 34.0368 170.437 33.6123C171.056 33.1878 171.787 32.9564 172.538 32.9473C173.037 32.9358 173.534 33.0239 173.999 33.2066C174.463 33.3893 174.887 33.6628 175.245 34.0112C175.602 34.3595 175.887 34.7757 176.082 35.2353C176.276 35.695 176.377 36.1888 176.378 36.6879V36.6879ZM174.26 36.7639C174.265 36.434 174.172 36.1102 173.992 35.8332C173.813 35.5561 173.556 35.3383 173.253 35.2071C172.95 35.0758 172.615 35.037 172.29 35.0956C171.965 35.1542 171.665 35.3075 171.427 35.5362C171.189 35.7649 171.024 36.0589 170.953 36.3811C170.881 36.7032 170.907 37.0393 171.027 37.3469C171.146 37.6545 171.354 37.9199 171.624 38.1097C171.894 38.2996 172.214 38.4053 172.544 38.4138C172.766 38.4194 172.986 38.3811 173.192 38.301C173.399 38.2209 173.588 38.1006 173.747 37.9472C173.907 37.7937 174.034 37.6101 174.123 37.407C174.211 37.2039 174.258 36.9853 174.26 36.7639V36.7639Z" fill="#25343F"/>
<path d="M199.909 40.8817C199.909 41.3865 199.926 41.8929 199.909 42.4023C199.882 43.0729 199.41 43.5747 198.826 43.5154C198.197 43.45 197.809 43.0896 197.803 42.4221C197.794 41.4124 197.786 40.4012 197.803 39.3931C197.815 38.721 198.284 38.2344 198.879 38.2846C199.524 38.3378 199.882 38.7225 199.906 39.3733C199.92 39.872 199.909 40.3769 199.909 40.8817Z" fill="#25343F"/>
<path d="M199.911 30.4812C199.911 30.9617 199.926 31.4422 199.911 31.9212C199.883 32.5948 199.415 33.0996 198.832 33.0403C198.202 32.9764 197.811 32.6161 197.805 31.947C197.796 30.9358 197.784 29.9246 197.805 28.9058C197.822 28.2672 198.283 27.8414 198.87 27.8749C199.486 27.9129 199.833 28.2626 199.902 28.88C199.902 28.9302 199.902 28.9819 199.902 29.032L199.911 30.4812Z" fill="#25343F"/>
</g>
<defs>
<filter id="filter0_d_3_35" x="0" y="0" width="215" height="81.4741" filterUnits="userSpaceOnUse" color-interpolation-filters="sRGB">
<feFlood flood-opacity="0" result="BackgroundImageFix"/>
<feColorMatrix in="SourceAlpha" type="matrix" values="0 0 0 0 0 0 0 0 0 0 0 0 0 0 0 0 0 0 127 0" result="hardAlpha"/>
<feOffset dy="4"/>
<feGaussianBlur stdDeviation="2"/>
<feComposite in2="hardAlpha" operator="out"/>
<feColorMatrix type="matrix" values="0 0 0 0 0 0 0 0 0 0 0 0 0 0 0 0 0 0 0.25 0"/>
<feBlend mode="normal" in2="BackgroundImageFix" result="effect1_dropShadow_3_35"/>
<feBlend mode="normal" in="SourceGraphic" in2="effect1_dropShadow_3_35" result="shape"/>
</filter>
</defs>
</svg>
