<svg width="61" height="60" viewBox="0 0 61 60" fill="none" xmlns="http://www.w3.org/2000/svg">
<path d="M4.56687 60C4.34002 59.924 4.11316 59.8411 3.88631 59.773C1.69376 59.1544 0.0501928 57.058 0.0479242 54.7891C0.0380939 43.1777 0.0362034 31.5671 0.0422529 19.9573C0.0422529 19.3115 0.382535 18.9256 0.917913 18.9437C1.45329 18.9619 1.73572 19.3364 1.73572 20.0129C1.73572 31.4533 1.73572 42.8936 1.73572 54.3339C1.73572 56.1999 2.68625 57.604 4.31507 58.1C4.74836 58.2311 5.19858 58.2976 5.65124 58.2975C13.1601 58.3088 20.6687 58.3111 28.1768 58.3043C30.2593 58.3043 31.8065 56.982 32.0152 54.9888C31.7793 54.9764 31.5456 54.9548 31.3119 54.9548C23.6896 54.9548 16.0677 54.9525 8.44609 54.948C8.01352 54.9646 7.58057 54.9265 7.15756 54.8345C5.89171 54.5042 5.04894 53.3896 5.04781 52.0185C5.03722 44.8065 5.03722 37.5945 5.04781 30.3825C5.04781 28.747 6.1991 27.5733 7.82451 27.461C8.06838 27.444 8.31452 27.4474 8.55952 27.4474H32.0787V26.7663C32.0787 20.4223 32.0787 14.079 32.0787 7.73644C32.0787 5.24732 30.544 3.71049 28.0588 3.70708C26.7953 3.70708 25.5305 3.72638 24.267 3.69573C23.8643 3.68552 23.6613 3.83307 23.4877 4.16791C23.1678 4.7865 22.8071 5.38239 22.4669 5.9953C21.8294 7.16665 20.8256 7.73644 19.5177 7.75233C17.7823 7.77352 16.0469 7.77352 14.3114 7.75233C12.9764 7.73757 11.9669 7.15076 11.326 5.95444C10.9789 5.30672 10.616 4.6677 10.2371 4.03738C10.1532 3.8989 9.9785 3.72184 9.84579 3.7207C8.20563 3.71503 6.55639 3.61401 4.92757 3.7854C2.96414 3.99425 1.7516 5.55037 1.73913 7.5537C1.73005 10.4798 1.73913 13.4059 1.73005 16.332C1.73005 16.5851 1.71871 16.9324 1.56445 17.0686C1.33759 17.265 0.951941 17.4432 0.694461 17.3808C0.43698 17.3184 0.0774154 16.9381 0.0740125 16.7009C0.0422529 13.3594 -0.0995315 10.0042 0.121652 6.68086C0.307673 3.88869 2.70553 2 5.52193 2C13.108 2 20.6921 2 28.2743 2C31.4435 2 33.7688 4.32454 33.7722 7.50262C33.779 13.9208 33.779 20.3394 33.7722 26.7584V27.4394H45.3531C47.5752 27.4394 48.6902 28.5597 48.6902 30.7855C48.6902 37.7886 48.6902 44.7925 48.6902 51.7971C48.6902 53.3294 47.9404 54.4418 46.6144 54.8095C46.1868 54.9287 45.7218 54.9332 45.2726 54.9423C44.3652 54.9616 43.4577 54.9571 42.556 54.9423C41.9015 54.9332 41.5091 54.5904 41.517 54.0751C41.5249 53.5598 41.9344 53.2227 42.5753 53.2182C43.5757 53.2114 44.575 53.2182 45.5754 53.2182C46.552 53.2182 46.9366 52.83 46.9434 51.8414C46.9502 49.4817 46.9434 47.122 46.9434 44.7622C46.9434 40.0806 46.9434 35.3986 46.9434 30.7162C46.9434 29.5052 46.6088 29.1715 45.4019 29.1715H8.33267C7.1224 29.1715 6.78438 29.5052 6.78325 30.7117C6.78325 37.6967 6.78325 44.682 6.78325 51.6677C6.78325 52.88 7.12353 53.2182 8.32359 53.2182H38.434C38.6231 53.21 38.8124 53.2126 39.0012 53.2261C39.498 53.2818 39.7952 53.5667 39.8428 54.0638C39.8859 54.5178 39.5127 54.9173 38.991 54.931C37.8567 54.9593 36.7224 54.9457 35.5961 54.948H34.0285C33.5601 55.9797 33.2345 56.9683 32.6935 57.8219C31.9823 58.9467 30.856 59.5789 29.5572 59.8808C29.453 59.9117 29.3511 59.9496 29.2521 59.9943L4.56687 60ZM12.0406 3.71957C12.4024 4.34497 12.6656 4.93746 13.0615 5.42779C13.2804 5.70133 13.708 5.95444 14.0483 5.96352C15.9482 6.0146 17.8504 6.01233 19.7503 5.96352C20.12 5.93596 20.4644 5.76489 20.7099 5.48681C21.1216 4.96697 21.4109 4.35178 21.7852 3.71503L12.0406 3.71957Z" fill="#D41D12"/>
<path d="M57.9996 42.1006C57.7727 42.7919 57.6162 43.5183 57.2952 44.163C56.9742 44.8077 56.533 45.3672 56.077 45.9121C55.7095 46.3513 55.2013 46.3434 54.8293 45.9983C54.4788 45.6737 54.464 45.147 54.8554 44.7396C55.7739 43.7865 56.2867 42.5138 56.2857 41.1898C56.2846 39.8657 55.7698 38.5938 54.8497 37.6422C54.4606 37.2382 54.4811 36.716 54.835 36.3835C55.1889 36.0509 55.6834 36.06 56.0827 36.4697C57.0128 37.4152 57.6386 38.6178 57.8794 39.9225C57.9106 40.0466 57.9485 40.169 57.9928 40.2891L57.9996 42.1006Z" fill="#D41D12"/>
<path d="M24.3983 17.913C24.3915 22.006 21.0408 25.3248 16.9121 25.3259C12.7629 25.3259 9.40546 21.9833 9.42587 17.8642C9.44629 13.7452 12.7845 10.4865 16.9938 10.4979C18.9571 10.5027 20.8385 11.2857 22.2263 12.6754C23.614 14.0651 24.395 15.9484 24.3983 17.913V17.913ZM11.1273 17.896C11.1273 21.0389 13.7645 23.6359 16.9302 23.6063C20.1141 23.578 22.6855 21.0321 22.6878 17.9074C22.6878 14.7611 20.0654 12.1777 16.886 12.1936C13.7066 12.2095 11.1307 14.7792 11.1284 17.896H11.1273Z" fill="#D41D12"/>
<path d="M14.1311 45.7236C13.2645 45.7236 12.3979 45.7316 11.5313 45.7236C10.4481 45.7123 9.6677 44.962 9.65635 43.8849C9.63896 42.0938 9.63896 40.3027 9.65635 38.5116C9.66656 37.4322 10.4503 36.6763 11.5279 36.6706C13.2996 36.6615 15.0706 36.6615 16.8408 36.6706C17.8787 36.6774 18.6863 37.4447 18.6999 38.4787C18.7249 40.2887 18.7249 42.0987 18.6999 43.9087C18.6863 44.9439 17.8798 45.7077 16.8431 45.7248C15.9402 45.7327 15.0351 45.7236 14.1311 45.7236ZM16.9974 42.1097C16.3009 42.0325 15.4548 42.1937 15.4094 41.2527C15.355 40.1745 16.3089 40.3833 16.9974 40.28C16.9974 39.7261 17.0235 39.2165 16.9804 38.7137C16.969 38.5866 16.7388 38.3788 16.6072 38.3732C14.9867 38.349 13.3658 38.349 11.7446 38.3732C11.613 38.3732 11.3827 38.5786 11.3736 38.7023C11.3317 39.2233 11.3555 39.7488 11.3555 40.2823C12.0213 40.3799 12.8788 40.162 12.9265 41.1256C12.9809 42.2096 12.0429 42.0087 11.3555 42.1097C11.3555 42.6556 11.3305 43.1641 11.3725 43.6681C11.3986 43.7508 11.4452 43.8254 11.5082 43.885C11.5711 43.9446 11.6482 43.9871 11.7321 44.0086C13.353 44.0313 14.9738 44.0336 16.5947 44.0086C16.7308 44.0086 16.9656 43.7725 16.9804 43.6284C17.028 43.1471 16.9974 42.6568 16.9974 42.1097V42.1097Z" fill="#D41D12"/>
<path d="M20.7637 48.4658C24.0274 48.4658 27.2911 48.4658 30.5548 48.4658C30.7952 48.4658 31.1038 48.442 31.2603 48.5725C31.4872 48.7689 31.7741 49.1094 31.7492 49.3591C31.7197 49.6383 31.4089 49.9266 31.1491 50.1286C30.9983 50.2421 30.7136 50.2013 30.489 50.2013C23.9805 50.2013 17.4721 50.2013 10.9636 50.2013C10.8887 50.2013 10.8127 50.2013 10.7367 50.2013C10.0063 50.1786 9.6535 49.8914 9.65577 49.325C9.65804 48.7586 10.0289 48.4624 10.7447 48.4624C14.0847 48.4632 17.4244 48.4643 20.7637 48.4658Z" fill="#D41D12"/>
<path d="M39.7279 38.5127C39.0541 38.4673 38.3668 38.498 37.7089 38.3606C36.0631 38.0133 34.9129 36.4481 35.049 34.842C35.1976 33.0952 36.4895 31.7627 38.225 31.664C39.2778 31.601 40.3336 31.6032 41.3862 31.6708C42.2501 31.74 43.0542 32.1392 43.632 32.7856C44.2097 33.432 44.5168 34.276 44.4896 35.1428C44.4045 36.9816 42.9436 38.4344 41.1435 38.465C40.6727 38.473 40.2009 38.465 39.7302 38.465L39.7279 38.5127ZM39.7891 33.3631C39.374 33.3631 38.9589 33.3574 38.5414 33.3631C37.5421 33.3767 36.8219 34.0441 36.7844 34.9748C36.7697 35.1974 36.7999 35.4206 36.873 35.6312C36.9462 35.8419 37.061 36.0356 37.2105 36.201C37.36 36.3664 37.5412 36.5 37.7434 36.5939C37.9455 36.6879 38.1644 36.7402 38.3872 36.7477C39.3102 36.7977 40.2352 36.7977 41.1582 36.7477C42.1348 36.6921 42.778 35.9214 42.7462 34.9623C42.711 34.0543 41.9976 33.3835 41.0357 33.3654C40.6194 33.3563 40.2043 33.3631 39.7891 33.3631Z" fill="#D41D12"/>
<path d="M37.6039 50.2067C36.8303 50.2067 36.0567 50.2135 35.2831 50.2067C34.5572 50.1977 34.1239 49.8492 34.1432 49.3123C34.1625 48.7755 34.5822 48.4701 35.2775 48.4679C36.8655 48.4679 38.4466 48.4611 40.0312 48.4679C40.6607 48.4679 41.0214 48.7857 41.0373 49.301C41.0532 49.8163 40.7209 50.1784 40.097 50.1965C39.2678 50.2215 38.4364 50.2033 37.6073 50.2033L37.6039 50.2067Z" fill="#D41D12"/>
<path d="M53.9471 41.1665C53.9738 41.9904 53.6774 42.7921 53.1213 43.4002C52.7119 43.8622 52.2366 43.9178 51.8339 43.5784C51.4619 43.264 51.4438 42.793 51.784 42.322C52.4113 41.4559 52.4136 40.9293 51.792 40.0769C51.4347 39.5877 51.463 39.0973 51.8646 38.7795C52.2661 38.4617 52.7164 38.5378 53.1123 38.9736C53.664 39.5687 53.9633 40.3549 53.9471 41.1665Z" fill="#D41D12"/>
<path d="M15.8896 18.8415C17.0091 17.7121 18.0696 16.6452 19.1268 15.5737C19.4387 15.2582 19.7915 15.1436 20.1975 15.3467C20.3646 15.4192 20.5002 15.5491 20.5796 15.713C20.6591 15.8769 20.6773 16.0639 20.6308 16.24C20.5836 16.4394 20.4837 16.6225 20.3416 16.7701C19.0984 18.0315 17.8466 19.2845 16.586 20.5293C16.1005 21.0083 15.6933 21.0037 15.2079 20.5361C14.6112 19.961 14.0252 19.3746 13.4497 18.7768C13.0618 18.3727 13.0652 17.8688 13.4236 17.5214C13.7821 17.1741 14.2483 17.1912 14.6362 17.5589C15.0445 17.9505 15.4268 18.367 15.8896 18.8415Z" fill="#D41D12"/>
<circle cx="49.5" cy="11.5" r="10.5" fill="white" stroke="#D41D12" stroke-width="2"/>
<path d="M44 11L48.5 15.5L55.5 7" stroke="#D41D12" stroke-width="2"/>
</svg>
