<svg width="72" height="71" viewBox="0 0 72 71" fill="none" xmlns="http://www.w3.org/2000/svg">
<g clip-path="url(#clip0_20_135)">
<path d="M0 68.5447V54.8717C0.660714 52.8922 2.12049 52.1966 4.13754 52.4358V51.5682C4.13754 38.4662 4.13754 25.3617 4.13754 12.2546C4.13754 9.7346 5.66326 7.77577 8.10699 7.1293C8.20422 7.09473 8.29813 7.05146 8.38757 7L59.7448 7C59.8123 7.04806 59.8852 7.08799 59.962 7.11895C62.5338 7.80422 64.0026 9.71521 64.0026 12.3903C64.0026 27.3783 64.0026 42.3658 64.0026 57.3529C64.0131 57.739 63.9858 58.1253 63.9211 58.5062C63.4039 61.0714 61.3675 62.7393 58.7492 62.7393C47.0072 62.7393 35.2665 62.7393 23.5271 62.7393H22.7112C22.7112 64.4538 22.7112 66.101 22.7112 67.7547C22.7112 69.6941 21.4182 70.9961 19.4865 70.9961C14.0655 70.9996 8.64746 71.0013 3.23245 71.0013C2.93287 71.0054 2.63384 70.9742 2.34159 70.9082C1.08093 70.5979 0.409875 69.7006 0 68.5447ZM33.0628 17.0851V56.7969L45.3759 60.3137V13.5579C41.228 14.7435 37.137 15.9123 33.0628 17.0851ZM47.5171 56.4982H61.908V17.3579H47.5171V19.5223C47.6787 19.4874 47.8028 19.4589 47.9269 19.4356C49.8315 19.0775 51.6055 20.4959 51.6081 22.4237C51.6175 32.0976 51.6175 41.7719 51.6081 51.4466C51.6081 52.4358 51.1801 53.2283 50.4121 53.8347C49.5548 54.5122 48.5825 54.6196 47.5145 54.3519L47.5171 56.4982ZM6.20631 54.4825C5.23916 54.4825 4.34183 54.4825 3.4445 54.4825C2.44503 54.4825 2.07136 54.8497 2.07006 55.8349C2.07006 59.7466 2.07006 63.6586 2.07006 67.5711C2.06877 68.5654 2.43468 68.9326 3.42511 68.9326C8.7134 68.9326 14.0017 68.9326 19.29 68.9326C20.2752 68.9326 20.645 68.5563 20.6476 67.562C20.6476 65.9497 20.6476 64.3374 20.6476 62.7251C20.6476 60.3978 20.6476 58.0821 20.6476 55.7599C20.6476 54.9842 20.3102 54.5239 19.6533 54.4967C18.6306 54.4541 17.6027 54.4851 16.5075 54.4851V60.6227H6.20631V54.4825ZM10.3568 17.3501V44.1893H14.4542V42.3727C14.4542 40.0712 14.4749 37.7711 14.4452 35.4696C14.4323 34.4947 14.5447 33.587 15.2443 32.8074C14.5486 32.0316 14.4323 31.1266 14.4439 30.1452C14.4749 27.6304 14.4517 25.113 14.4555 22.5969C14.4555 20.7027 15.7627 19.3943 17.6505 19.3904C20.639 19.3904 23.6279 19.3904 26.6173 19.3904H30.9385V17.3501H10.3568ZM8.28801 52.3892V15.2607H31.1867C31.4013 15.2607 31.6302 15.3008 31.8332 15.2452C34.1153 14.6065 36.3935 13.9522 38.6718 13.3057L38.655 13.245H6.22571V52.3957L8.28801 52.3892ZM20.6554 21.4449C19.6456 21.4449 18.7056 21.4358 17.7656 21.4449C16.9096 21.4552 16.5204 21.8535 16.5178 22.7275C16.5109 25.3065 16.5109 27.886 16.5178 30.4659C16.5178 31.3709 16.9057 31.7588 17.8108 31.7679C18.9073 31.7756 20.0089 31.7679 21.0989 31.7679C23.9572 31.7679 26.816 31.7679 29.6752 31.7679C30.5014 31.7679 30.9566 31.3994 30.9682 30.6585C30.9863 27.9502 30.9863 25.2419 30.9682 22.5336C30.9682 21.9117 30.5803 21.4824 29.9842 21.4604C28.9602 21.4216 27.9336 21.4501 26.8371 21.4501V25.5229H20.6541L20.6554 21.4449ZM20.6554 33.8314H17.9505C17.8004 33.8251 17.6501 33.8286 17.5005 33.8418C16.8876 33.9219 16.523 34.324 16.5191 34.9938C16.5088 37.6581 16.5088 40.3233 16.5191 42.9894C16.5191 43.7355 16.9381 44.1531 17.6828 44.1531C21.7238 44.1634 25.7648 44.1634 29.8058 44.1531C30.5234 44.1531 30.954 43.7419 30.9579 43.0398C30.9734 40.3324 30.9734 37.6245 30.9579 34.9162C30.9579 34.2956 30.5635 33.8689 29.9674 33.8482C28.9447 33.8107 27.9181 33.8379 26.8229 33.8379V37.9094H20.6489L20.6554 33.8314ZM6.48172 11.0961H61.6248C61.6455 11.0405 61.6636 11.0172 61.6597 11.0017C61.6416 10.9399 61.6183 10.8798 61.5899 10.822C60.9434 9.54971 59.8638 9.05839 58.479 9.05839C42.2046 9.06356 25.9303 9.06356 9.65599 9.05839C9.50471 9.05839 9.35472 9.05839 9.20474 9.05839C7.91693 9.13855 6.8528 9.92079 6.48172 11.0961ZM10.3258 52.4228H11.1093C13.9539 52.4228 16.7855 52.4164 19.6236 52.4228C20.0277 52.4196 20.4285 52.4964 20.8027 52.649C21.177 52.8015 21.5173 53.0267 21.804 53.3115C22.0908 53.5963 22.3182 53.935 22.4733 54.3083C22.6283 54.6815 22.7079 55.0817 22.7073 55.4858C22.7073 55.8246 22.7073 56.162 22.7073 56.5525C23.0681 56.5525 23.3655 56.5667 23.6616 56.5525C24.3378 56.515 24.7632 56.1284 24.7671 55.4574C24.7839 52.7486 24.78 50.0386 24.7671 47.3299C24.7671 46.7713 24.4658 46.3136 23.915 46.2774C22.8341 46.2089 21.7467 46.258 20.6153 46.258V50.3114H14.4348V46.2322C13.3604 46.2322 12.3338 46.2011 11.3097 46.2438C11.1782 46.2421 11.0478 46.2672 10.9264 46.3177C10.8049 46.3682 10.6951 46.4429 10.6036 46.5373C10.5121 46.6318 10.4408 46.7439 10.3941 46.8668C10.3475 46.9898 10.3264 47.1209 10.3322 47.2523C10.3076 48.9474 10.3258 50.6437 10.3258 52.4228ZM49.5535 37.0121C49.5535 32.2626 49.5535 27.5145 49.5535 22.7676C49.5535 21.966 49.1527 21.4656 48.5321 21.4578C47.9114 21.4501 47.4977 21.9504 47.486 22.7508C47.486 22.8374 47.486 22.9227 47.486 23.0094V50.8467C47.486 51.0187 47.477 51.1906 47.486 51.3639C47.5378 51.9716 47.967 52.4099 48.5036 52.4164C49.0402 52.4228 49.485 51.9884 49.538 51.382C49.5561 51.1906 49.5445 50.9941 49.5445 50.8015C49.5514 46.2054 49.5544 41.609 49.5535 37.0121ZM26.7802 46.1921V56.5202H30.9436V46.1908L26.7802 46.1921ZM47.5339 13.2217V15.2284H61.9015V13.2152L47.5339 13.2217ZM47.5339 58.6419V60.6745C51.3986 60.6745 55.24 60.7094 59.0802 60.6538C59.6662 60.6416 60.2323 60.4385 60.6925 60.0754C61.1526 59.7124 61.4818 59.2091 61.63 58.6419H47.5339ZM38.6433 60.6719V60.5684C36.8965 60.0719 35.1394 59.6091 33.4081 59.066C32.3669 58.7394 31.2795 58.5848 30.1885 58.6083C27.9349 58.6432 25.6799 58.6187 23.4262 58.6187H22.7565V60.6719H38.6433ZM12.3906 56.5823V58.5721H14.4064V54.5329H8.28801V58.5786H10.3439V56.5823H12.3906ZM22.7345 23.4826H24.7425V21.4914H22.7332L22.7345 23.4826ZM22.7461 33.8624V35.8588H24.7309V33.8676L22.7461 33.8624ZM16.5502 46.2528V48.2543H18.5401V46.2528H16.5502Z" fill="#D41D12"/>
<path d="M59.8716 36.9358C59.8716 41.7516 59.8716 46.5675 59.8716 51.3833C59.8716 52.9542 58.7079 54.2808 57.2133 54.4683C56.4602 54.5751 55.6943 54.4002 55.0622 53.9772C54.4302 53.5542 53.9765 52.9127 53.7882 52.1759C53.7166 51.8849 53.6823 51.586 53.686 51.2863C53.6808 41.7184 53.6808 32.1506 53.686 22.5827C53.686 20.7558 55.0074 19.393 56.7633 19.3891C58.5528 19.3891 59.8665 20.7467 59.8729 22.6215C59.8738 27.3916 59.8734 32.1631 59.8716 36.9358ZM57.8119 37.0082C57.8119 32.2605 57.8119 27.5123 57.8119 22.7637C57.8119 21.9634 57.4085 21.463 56.7879 21.4578C56.1672 21.4527 55.7535 21.953 55.7444 22.7508C55.7444 22.8361 55.7444 22.9227 55.7444 23.0094V50.8493C55.7444 51.0213 55.7354 51.1945 55.7509 51.3665C55.8026 51.9716 56.2345 52.4099 56.7711 52.4151C57.3077 52.4202 57.7499 51.9858 57.8054 51.3807C57.8236 51.1893 57.8132 50.9928 57.8132 50.8015L57.8119 37.0082Z" fill="#D41D12"/>
</g>
<circle cx="60.5" cy="11.5" r="10.5" fill="white" stroke="#D41D12" stroke-width="2"/>
<path d="M55 11L59.5 15.5L66.5 7" stroke="#D41D12" stroke-width="2"/>
<defs>
<clipPath id="clip0_20_135">
<rect width="64" height="64" fill="white" transform="translate(0 7)"/>
</clipPath>
</defs>
</svg>
