<svg width="69" height="65" viewBox="0 0 69 65" fill="none" xmlns="http://www.w3.org/2000/svg">
<path d="M21.6013 0.00126602C21.2057 0.127868 20.805 0.24181 20.4133 0.381073C17.8197 1.29767 16.0695 3.62969 16.0186 6.35924C15.9703 9.01155 16.0008 11.6651 15.997 14.3187C15.997 14.5479 15.997 14.777 15.997 15.029C15.7286 15.0872 15.5009 15.1302 15.2771 15.1872C14.1475 15.4759 13.3691 16.3849 13.3322 17.5446C13.2953 18.7042 13.2915 19.8626 13.3322 21.0185C13.3579 21.9632 13.7156 22.8691 14.3432 23.5783C14.9707 24.2876 15.8282 24.7553 16.7665 24.9001C17.2575 24.9837 17.5119 25.1534 17.6569 25.6686C18.1326 27.3145 19.0128 28.7349 20.1449 30.0187C20.3611 30.2875 20.4878 30.6168 20.5074 30.9606C20.5557 31.8607 20.5239 32.7647 20.5239 33.7598C19.9757 33.7598 19.4771 33.78 18.981 33.7471C18.8538 33.7383 18.6974 33.5876 18.6147 33.4635C18.1148 32.7115 17.4012 32.3785 16.5185 32.376C14.8471 32.3697 13.1758 32.3608 11.5044 32.376C10.0976 32.3912 9.09781 33.3281 9.16014 34.7131C9.1983 35.5892 8.90574 36.0475 8.15273 36.4855C7.22674 37.0147 6.41268 37.744 5.57953 38.4225C5.07075 38.8353 5.02241 39.3923 5.37856 39.8088C5.76015 40.2583 6.28039 40.2456 6.82861 39.7974C7.53964 39.2163 8.26212 38.6492 9.09272 37.9845V55.8329H1.98112C1.95314 55.8012 1.9048 55.7696 1.9048 55.7392C1.92261 52.5742 1.53848 49.3698 2.66799 46.2985C3.03559 45.2971 3.51385 44.3323 3.97557 43.3676C4.30629 42.6789 4.24905 42.1674 3.7339 41.8813C3.21875 41.5952 2.71632 41.7889 2.33473 42.4485C0.864331 45.0185 0.032462 47.7721 0.0146544 50.7384C-0.00951307 54.8024 0.00320448 58.8676 0.00447645 62.9315C0.00447645 64.1393 0.579408 64.7039 1.78524 64.7039C13.6756 64.7039 25.5669 64.7039 37.459 64.7039C37.936 64.7039 38.3494 64.6343 38.5707 64.1595C38.8747 63.4898 38.3875 62.8441 37.5442 62.8353C35.8906 62.8188 34.2434 62.8353 32.5937 62.8353H30.4313C30.4161 62.5985 30.3932 62.3998 30.3932 62.2023C30.3932 59.3803 30.3932 56.5583 30.3843 53.7364C30.3843 53.3629 30.4441 53.0793 30.818 52.9248C30.8921 52.8838 30.958 52.8298 31.0126 52.7653C33.8657 49.9168 36.7594 47.1062 39.5552 44.2032C41.1897 42.5055 41.8358 40.3558 41.8447 38.0174C41.8447 36.9856 41.8562 35.9538 41.8447 34.922C41.8384 34.4485 42.0101 34.2358 42.5138 34.2421C44.0999 34.2611 45.6937 34.2548 47.2735 34.2421C47.6844 34.2421 47.9184 34.3687 47.9184 34.8106C47.9116 38.9598 47.9078 43.1085 47.907 47.2569C47.8938 47.3296 47.872 47.4006 47.8421 47.4683H45.3579C45.3465 47.248 45.3261 47.0442 45.3261 46.8416C45.3261 45.3034 45.3261 43.7664 45.3261 42.2295C45.3261 41.4585 45.0094 41.0559 44.4116 41.0457C43.8138 41.0356 43.4487 41.4648 43.4462 42.2599C43.4462 43.8183 43.4296 45.3768 43.4551 46.934C43.4627 47.3784 43.3431 47.5797 42.8928 47.7341C41.425 48.2406 40.5143 49.5686 40.5117 51.1208C40.5049 54.4479 40.5049 57.7754 40.5117 61.1034C40.5081 61.5781 40.5997 62.0489 40.781 62.488C40.9624 62.9271 41.2299 63.3259 41.5679 63.6609C41.9059 63.9959 42.3077 64.2605 42.7496 64.4392C43.1916 64.6178 43.6649 64.707 44.1419 64.7014C48.5014 64.7098 52.8604 64.7098 57.2191 64.7014C58.3066 64.7014 58.9172 64.1089 58.9172 63.034C58.9172 58.7802 59.0723 54.5188 58.8726 50.2738C58.5826 44.1159 55.61 39.4252 50.3415 36.1943C49.923 35.9411 49.7729 35.6879 49.778 35.2094C49.8022 33.1445 49.0009 32.3709 46.9034 32.3709H42.4604C41.5535 32.3709 40.8195 32.6938 40.298 33.4661C40.2483 33.5389 40.1846 33.6012 40.1106 33.6494C40.0366 33.6976 39.9538 33.7308 39.8668 33.7471C39.4076 33.7838 38.9421 33.7598 38.4028 33.7598C38.4028 32.6647 38.3888 31.6164 38.4168 30.5707C38.4168 30.3922 38.5885 30.1909 38.7259 30.0478C39.9711 28.7121 40.8132 27.1549 41.383 25.4319C41.4355 25.3097 41.5139 25.2002 41.613 25.111C41.712 25.0219 41.8293 24.9551 41.9567 24.9153C43.9549 24.4697 45.3058 22.8568 45.3249 20.816C45.335 19.8272 45.3312 18.8372 45.3249 17.8471C45.3249 16.3925 44.6736 15.548 43.2617 15.134C43.1493 15.0944 43.0389 15.0492 42.931 14.9986C42.931 13.2553 42.9463 11.5107 42.931 9.76484C42.9132 8.29372 43.0391 6.79095 42.7796 5.35908C42.2861 2.51685 40.4519 0.796329 37.6282 0.127868C37.5319 0.0944404 37.4391 0.0520519 37.3509 0.00126602H35.4429C35.1046 0.381073 34.7764 0.76088 35.0537 1.33692C35.3182 1.88384 35.8067 1.87498 36.3002 1.87371H36.4274C38.5783 1.91676 40.4646 3.30052 40.892 5.38946C41.1464 6.64536 41.0752 7.96709 41.1464 9.29388H33.2602C33.4764 8.84444 33.6863 8.45957 33.8491 8.05571C34.6632 6.03893 33.8033 4.07027 31.7745 3.25874C30.6794 2.8207 29.5371 2.79665 28.4 2.93717C25.3193 3.31698 23.9481 5.93132 25.3663 8.66846C25.4681 8.8647 25.5622 9.06473 25.6716 9.28502H17.8592C17.8592 8.3912 17.8452 7.55056 17.8592 6.71119C17.9177 3.80693 19.8943 1.87878 22.8198 1.87371C25.5707 1.86696 28.3216 1.86696 31.0724 1.87371C31.5812 1.87371 32.0696 1.83827 32.3164 1.3154C32.5797 0.758348 32.2592 0.363349 31.8827 0L21.6013 0.00126602ZM11.0134 62.796V50.9663C11.0134 45.6629 11.0198 40.3583 11.0058 35.0537C11.0058 34.4738 11.1584 34.2168 11.7957 34.2333C13.2966 34.2729 14.7979 34.2729 16.2997 34.2333C16.9357 34.2168 17.1087 34.4725 17.0922 35.0524C17.0629 36.0412 17.0782 37.0312 17.0858 38.0199C17.1036 40.5241 17.8973 42.741 19.6717 44.5387C22.353 47.2569 25.0751 49.9358 27.7818 52.6311C27.876 52.7449 27.9892 52.8416 28.1163 52.9172C28.4801 53.0831 28.5526 53.3553 28.5514 53.7313C28.5374 56.552 28.5437 59.3727 28.5425 62.1934C28.5425 62.3934 28.5221 62.5947 28.5119 62.7973L11.0134 62.796ZM19.0128 19.4626C19.2265 19.4309 19.4529 19.3879 19.6819 19.3651C21.5164 19.1737 23.2819 18.5637 24.841 17.5825C27.9484 15.6632 31.019 15.7177 34.162 17.5737C35.3068 18.2497 36.6118 18.6764 37.8787 19.1195C38.5402 19.3512 39.2779 19.3727 40.0055 19.4904C40.0055 20.4893 40.0436 21.4578 39.9978 22.4213C39.8706 25.1242 38.8442 27.4385 36.8599 29.3046C35.5998 30.4863 34.3278 31.6594 33.044 32.8242C30.8956 34.7751 28.0553 34.765 25.8955 32.8039C24.8016 31.8114 23.756 30.7618 22.6291 29.8085C19.3842 27.0676 18.6198 23.486 19.0128 19.4626ZM40.0004 35.6677C40.0004 36.44 40.0004 37.1325 40.0004 37.8262C40.0156 40.0861 39.2372 42.0041 37.6053 43.6006C35.0728 46.082 32.5759 48.6001 30.0625 51.1018C29.527 51.6348 29.4265 51.6335 28.8872 51.0942C26.375 48.5925 23.8959 46.0554 21.3393 43.5993C19.0281 41.3774 18.7775 38.6213 19.0128 35.6689H20.4998C20.5265 35.9044 20.5545 36.1108 20.571 36.3171C20.8394 39.4695 22.9356 42.1282 26.0265 42.7384C27.8073 43.0891 29.686 43.0119 31.5163 42.9688C34.4953 42.8992 37.0519 40.9622 38.0034 38.1465C38.268 37.3603 38.3659 36.5184 38.5478 35.6677H40.0004ZM42.407 56.0962C42.407 54.4985 42.3993 52.8995 42.407 51.3005C42.4146 50.0624 43.062 49.3825 44.3149 49.3686C46.4917 49.3441 48.668 49.3441 50.8439 49.3686C52.0091 49.3825 52.6438 50.0143 52.6514 51.1866C52.6718 54.4681 52.6718 57.7497 52.6514 61.0312C52.6425 62.2263 51.976 62.8289 50.7689 62.8315C48.6345 62.8374 46.5002 62.8374 44.3658 62.8315C43.0938 62.8315 42.4159 62.1605 42.4082 60.8919C42.3993 59.2942 42.407 57.6952 42.407 56.0962ZM17.8782 11.1942H18.7343C21.2782 11.1942 23.812 11.2119 26.3496 11.1803C26.9334 11.1727 27.3175 11.3524 27.7131 11.774C28.0845 12.1715 28.5641 12.5615 29.0703 12.7235C29.8259 12.9641 30.5484 12.6894 31.033 12.0298C31.5176 11.3702 32.0849 11.1511 32.9104 11.1714C35.3628 11.2322 37.8177 11.1942 40.2713 11.1942H41.0459C41.0637 11.4474 41.0866 11.6373 41.0866 11.8272C41.0866 13.4688 41.0866 15.1113 41.0866 16.7546C41.0866 17.5142 41.0129 17.5965 40.2497 17.5762C38.3226 17.523 36.561 16.9293 34.9405 15.9101C33.2615 14.8291 31.2974 14.2694 29.298 14.3023C27.3239 14.3314 25.533 14.9492 23.8692 15.9937C22.2761 17.0082 20.4295 17.5585 18.5384 17.5825C18.1772 17.5825 17.8846 17.5053 17.8821 17.0875C17.8731 15.1505 17.8782 13.2173 17.8782 11.1942ZM36.4834 32.2038C36.4834 33.7104 36.5699 35.1005 36.4643 36.4754C36.276 38.9062 34.1442 40.9571 31.6919 41.0863C30.1711 41.1673 28.647 41.1635 27.1267 41.0749C24.8372 40.9394 22.6965 38.8707 22.4993 36.5931C22.3797 35.2119 22.4294 33.8168 22.409 32.4279C22.409 32.3823 22.4675 32.3355 22.5222 32.2519C23.2243 32.8951 23.9061 33.518 24.5904 34.151C27.516 36.816 31.4438 36.8096 34.3744 34.1396C35.0626 33.5116 35.7431 32.885 36.4834 32.2038ZM54.5149 55.8329C54.5149 54.1478 54.5517 52.5273 54.506 50.9106C54.45 48.985 52.9681 47.5632 51.0411 47.5113C50.6481 47.4999 50.2537 47.5113 49.8493 47.5113V38.1706C49.9281 38.1706 49.9765 38.1554 50.007 38.1706C50.2054 38.2972 50.4064 38.4086 50.5921 38.5504C54.6624 41.5889 56.8756 45.6212 57.0461 50.7042C57.1033 52.4007 57.055 54.101 57.055 55.8304L54.5149 55.8329ZM9.10544 57.7649V62.7872H1.9366V57.7649H9.10544ZM29.5753 11.065C28.4305 9.85473 27.4651 8.77354 26.866 7.43409C26.3572 6.29467 26.8444 5.21728 28.0629 4.94255C28.823 4.77885 29.6041 4.73485 30.3779 4.81215C32.0671 4.97294 32.7819 6.27441 31.9335 7.72401C31.2683 8.86343 30.4173 9.88891 29.5753 11.065ZM57.0423 62.7821H54.3915C54.4576 61.0958 54.5187 59.4537 54.5861 57.7813H57.0423V62.7821ZM15.9805 16.9419C16.0008 17.7864 16.2717 18.4612 16.9103 18.9676C17.0016 19.0501 17.0564 19.1652 17.0629 19.2879C17.0731 20.521 17.0693 21.7541 17.0693 22.9885C16.6022 22.9495 16.1639 22.7479 15.8314 22.4191C15.499 22.0903 15.2937 21.6553 15.2516 21.1907C15.1638 20.0209 15.1931 18.8422 15.2007 17.6674C15.2033 17.2458 15.4475 16.9786 15.9805 16.9419ZM41.888 22.9593C41.888 21.7617 41.888 20.6083 41.888 19.455C41.888 19.3132 41.888 19.1081 41.9758 19.0423C42.6295 18.5358 42.9234 17.8547 43.0938 17.0343C43.2808 17.2635 43.4538 17.504 43.4601 17.7471C43.4881 18.8182 43.4881 19.8896 43.4601 20.9615C43.436 21.9275 42.8687 22.6251 41.888 22.9593Z" fill="#D41D12"/>
<path d="M18.6977 60.288C20.1795 60.288 21.6601 60.2956 23.142 60.288C24.2626 60.2817 24.9062 59.6474 24.9227 58.5257C24.9388 57.3677 24.9388 56.2093 24.9227 55.0505C24.9075 53.9566 24.2944 53.3033 23.1967 53.2945C20.1914 53.27 17.1866 53.27 14.1822 53.2945C13.0845 53.3021 12.4574 53.9275 12.4269 55.0315C12.3938 56.2101 12.3913 57.3913 12.4269 58.57C12.4612 59.6955 13.1137 60.2867 14.2547 60.2918C15.7353 60.2931 17.2171 60.288 18.6977 60.288ZM14.3132 55.1733H23.0008V58.3814H14.3132V55.1733Z" fill="#D41D12"/>
<path d="M29.4869 29.1034C30.2679 29.1034 31.0488 29.1148 31.8286 29.1034C32.4722 29.092 32.8919 28.7109 32.8894 28.183C32.8868 27.6551 32.4696 27.2765 31.8209 27.2715C30.2598 27.2605 28.6982 27.2605 27.1363 27.2715C26.4926 27.2715 26.0729 27.6627 26.0754 28.1906C26.078 28.7185 26.4977 29.092 27.1439 29.1034C27.9223 29.1199 28.7033 29.1034 29.4869 29.1034Z" fill="#D41D12"/>
<path d="M34.6795 19.2131C34.3597 19.2076 34.0507 19.3282 33.8199 19.5485C33.589 19.7688 33.4549 20.071 33.4469 20.3892C33.4533 20.707 33.5822 21.0103 33.8068 21.2363C34.0315 21.4622 34.3348 21.5936 34.654 21.6033C34.8123 21.6048 34.9693 21.5752 35.116 21.5163C35.2627 21.4573 35.3963 21.3701 35.5092 21.2597C35.622 21.1493 35.7118 21.0178 35.7735 20.8728C35.8352 20.7277 35.8676 20.572 35.8688 20.4145C35.8727 20.2572 35.8448 20.1006 35.7866 19.9543C35.7285 19.8079 35.6413 19.6747 35.5303 19.5626C35.4193 19.4504 35.2868 19.3617 35.1406 19.3017C34.9944 19.2416 34.8376 19.2115 34.6795 19.2131Z" fill="#D41D12"/>
<path d="M24.3088 19.2118C24.1506 19.2063 23.9929 19.2327 23.8452 19.2895C23.6976 19.3462 23.5629 19.4321 23.4495 19.542C23.336 19.6519 23.246 19.7834 23.1849 19.9288C23.1239 20.0742 23.093 20.2303 23.0941 20.3879C23.0916 20.5454 23.1203 20.7019 23.1787 20.8484C23.2371 20.9948 23.324 21.1283 23.4344 21.2413C23.5448 21.3542 23.6765 21.4443 23.822 21.5064C23.9674 21.5686 24.1238 21.6015 24.2821 21.6033C24.6014 21.6 24.9073 21.4748 25.1367 21.2536C25.366 21.0324 25.5013 20.7321 25.5146 20.4145C25.5136 20.0962 25.3864 19.7913 25.1605 19.566C24.9347 19.3408 24.6285 19.2134 24.3088 19.2118V19.2118Z" fill="#D41D12"/>
<path d="M47.6049 57.9156C48.2409 57.9156 48.8705 57.9308 49.5027 57.9156C50.1132 57.8953 50.4974 57.5219 50.4961 57.0003C50.4948 56.4787 50.1145 56.0925 49.5027 56.0811C48.2595 56.0558 47.0155 56.0558 45.7707 56.0811C45.1347 56.0913 44.7188 56.5103 44.7404 57.0332C44.762 57.556 45.164 57.9017 45.7707 57.9194C46.3774 57.9371 46.9943 57.9156 47.6049 57.9156Z" fill="#D41D12"/>
<path d="M47.6557 61.8325C48.2675 61.8325 48.8793 61.849 49.4898 61.8325C50.1004 61.8161 50.4883 61.4527 50.496 60.9286C50.5036 60.4044 50.1246 60.0082 49.5153 59.9968C48.2509 59.9732 46.9862 59.9732 45.721 59.9968C45.127 60.0082 44.7276 60.4285 44.7403 60.9336C44.753 61.4388 45.1524 61.8135 45.7579 61.8325C46.3901 61.8477 47.0235 61.8325 47.6557 61.8325Z" fill="#D41D12"/>
<path d="M49.5407 51.5664C49.3867 51.5651 49.234 51.5945 49.0916 51.6529C48.9493 51.7113 48.8201 51.7975 48.7117 51.9064C48.6034 52.0153 48.5181 52.1448 48.4609 52.2871C48.4036 52.4294 48.3756 52.5816 48.3785 52.7349C48.3814 52.8881 48.4151 53.0393 48.4777 53.1793C48.5403 53.3194 48.6304 53.4455 48.7427 53.5503C48.8551 53.6551 48.9875 53.7365 49.1319 53.7895C49.2764 53.8426 49.4301 53.8662 49.5839 53.8592C49.8837 53.8454 50.1663 53.7158 50.3716 53.498C50.5768 53.2801 50.6886 52.9911 50.6832 52.6925C50.6777 52.3938 50.5554 52.1091 50.3423 51.8988C50.1292 51.6885 49.842 51.5692 49.542 51.5664H49.5407Z" fill="#D41D12"/>
<circle cx="57.5" cy="12.5" r="10.5" fill="white" stroke="#D41D12" stroke-width="2"/>
<path d="M52 12L56.5 16.5L63.5 8" stroke="#D41D12" stroke-width="2"/>
</svg>
