<svg width="75" height="66" viewBox="0 0 75 66" fill="none" xmlns="http://www.w3.org/2000/svg">
<path d="M63.8536 66.0009C64.3624 65.6906 64.8266 65.337 64.9677 64.7062C65.1331 63.9635 64.8406 63.3263 64.0775 62.843C61.1532 60.9828 58.228 59.1259 55.302 57.2725C55.11 57.1516 54.9205 57.0181 54.703 56.8744C55.8476 55.0722 56.9592 53.3133 58.0771 51.5442C58.9356 50.1872 59.8017 48.8353 60.655 47.4745C61.3736 46.3298 61.1752 45.3887 60.0408 44.6676C56.5831 42.4631 53.1204 40.2692 49.6526 38.086C48.5322 37.3788 47.5872 37.609 46.8546 38.7549C44.9842 41.6979 43.1189 44.6426 41.2587 47.5889C41.148 47.7632 41.0272 47.931 40.8835 48.1422C39.1805 47.0598 37.5005 46.0093 35.842 44.9245C35.4472 44.6526 35.0913 44.3283 34.7839 43.9604C34.6567 43.8167 34.6567 43.5331 34.6567 43.3131C34.6516 37.9198 34.6516 32.526 34.6567 27.1319C34.6567 20.7872 34.6567 14.4418 34.6567 8.09542C34.6567 7.71388 34.7089 7.43917 35.1006 7.23568C35.678 6.93426 35.8815 6.36322 35.8916 5.7413C35.9095 4.76837 35.9196 3.79416 35.8916 2.81614C35.8497 1.65117 35.1642 1.01526 33.9801 1.01399C23.2969 1.01314 12.6137 1.00848 1.93053 1C1.0021 1 0.452684 1.4464 0.00373499 2.15353V24.7472C0.37256 25.111 0.76682 25.4467 1.32642 25.2089C1.88601 24.9711 1.91145 24.4611 1.91018 23.9282C1.90254 18.7256 1.90254 13.5231 1.91018 8.32053V7.59433H32.7083V43.86H1.90763V43.0842C1.90763 38.4319 1.90763 33.7796 1.90763 29.1273C1.90763 28.5881 1.86185 28.1023 1.27173 27.8822C0.681609 27.6622 0.320416 28.0094 -8.02786e-05 28.4329V56.6073C0.602757 57.9122 1.65327 58.3332 3.03319 58.2378C3.91582 58.1767 4.80608 58.2263 5.69254 58.2263H9.34644C9.38447 58.2981 9.41844 58.372 9.44819 58.4476C9.47744 58.5494 9.49906 58.6524 9.52068 58.7554C10.2494 62.2694 12.3327 64.5676 15.7398 65.6702C16.157 65.805 16.5894 65.8915 17.0116 66.0009H19.3009C19.4129 65.9478 19.5295 65.9052 19.6494 65.8737C23.246 65.2493 26.1661 62.3584 26.7562 58.7707C26.8376 58.2747 27.0322 58.2098 27.4481 58.2174C28.6538 58.2365 29.8645 58.2327 31.0651 58.2174C32.543 58.2034 33.4816 57.2661 33.493 55.7934C33.5045 54.2278 33.493 52.6622 33.493 51.0978V50.2953C33.8529 50.4848 34.0946 50.5917 34.3159 50.7328C37.2987 52.6202 40.2815 54.5088 43.2643 56.3987C43.4166 56.5131 43.5813 56.61 43.7552 56.6874C44.2423 56.8553 44.6977 56.7917 44.9647 56.3059C45.2191 55.848 45.1504 55.4042 44.7231 55.0621C44.554 54.9357 44.3782 54.8186 44.1966 54.711C41.5554 53.0373 38.9147 51.3628 36.2745 49.6874C36.0926 49.5717 35.8293 49.3834 35.8268 49.2257C35.8192 48.6102 35.9018 47.9934 35.954 47.2951L62.2664 63.9711C61.4509 64.1061 60.6222 64.1432 59.7978 64.0817C59.2835 64.0515 58.7827 63.9054 58.3327 63.6544C55.0667 61.6195 51.8287 59.5516 48.5779 57.4989C47.942 57.0982 47.413 57.186 47.0912 57.7087C46.7949 58.1894 46.9475 58.7389 47.5312 59.1077C51.1915 61.4105 54.8564 63.7082 58.526 66.0009H63.8536ZM42.5305 49.1838L48.5551 39.6719L51.3836 41.4626C51.2398 41.7093 51.1292 41.909 51.002 42.0985C50.3661 43.0994 49.7302 44.0914 49.1083 45.1013C48.5996 45.9279 48.7789 46.7037 49.5801 47.243C50.1931 47.655 50.824 48.0417 51.4497 48.4372C52.705 49.2321 53.3574 49.0807 54.1637 47.8089L56.247 44.5391L59.0894 46.3476L53.0573 55.8569L42.5305 49.1838ZM11.2999 57.2954C11.2975 55.4788 12.0135 53.7349 13.2917 52.444C14.5699 51.1532 16.3067 50.4201 18.1232 50.4047C21.8394 50.3831 24.9223 53.4405 24.9783 57.2051C25.0355 60.9238 21.9017 64.0855 18.1512 64.0957C14.4273 64.1072 11.3216 61.0294 11.2999 57.2954V57.2954ZM33.9178 5.5658H1.9407V2.96622H33.9178V5.5658ZM33.8898 45.8325V48.455H1.94706V45.8325H33.8898ZM9.25106 56.2614C7.02158 56.2614 4.71706 56.2703 2.41381 56.2436C2.24466 56.2436 1.93434 55.9892 1.9318 55.8404C1.89873 54.0497 1.91018 52.2565 1.91018 50.4314H12.409C11.7603 51.2962 11.0023 52.1064 10.4898 53.0501C9.96454 54.023 9.67966 55.1218 9.25106 56.2665V56.2614ZM23.6785 50.439H31.5357C31.5357 52.2883 31.5471 54.1006 31.5128 55.9078C31.5128 56.035 31.1707 56.241 30.9825 56.2474C29.9052 56.2805 28.8204 56.2258 27.7483 56.2779C27.1009 56.3084 26.8147 56.1647 26.6876 55.4538C26.3365 53.4787 25.2809 51.8724 23.6785 50.439ZM54.6139 43.5128L52.5116 46.8258L50.9295 45.8236L53.0344 42.508L54.6139 43.5128Z" fill="#D41D12"/>
<path d="M52.8328 25.055C53.194 24.4611 53.5234 23.9206 53.8502 23.38C54.1962 22.8065 54.2216 22.2125 53.882 21.6389C53.7324 21.3674 53.5059 21.1461 53.2311 21.0027C52.9562 20.8592 52.6451 20.8001 52.3368 20.8326C49.3213 21.0386 46.3071 21.2383 43.2942 21.4787C42.1114 21.5728 41.4514 22.6844 41.9092 23.7934C43.0539 26.5621 44.2227 29.3194 45.3889 32.0779C45.6433 32.6846 46.0859 33.0738 46.7714 33.1297C47.4569 33.1857 47.9987 32.9097 48.3649 32.3107C48.6931 31.774 49.0288 31.2411 49.3824 30.6726C49.6011 30.7998 49.7843 30.8875 49.9585 30.9944C52.765 32.7172 55.571 34.4422 58.3766 36.1694C59.7133 36.9909 60.4802 36.8053 61.3145 35.4508C61.7355 34.7678 62.1577 34.0861 62.5749 33.4006C63.2871 32.228 63.0721 31.3657 61.8894 30.6357L53.4649 25.4671C53.269 25.345 53.0783 25.214 52.8328 25.055ZM51.9425 22.8014C51.6195 23.3343 51.3817 23.7285 51.1426 24.1215C50.4456 25.2661 50.6071 25.9618 51.7314 26.6537C53.3475 27.6491 54.9652 28.6441 56.5846 29.6386L60.9673 32.3348L59.5581 34.6241C59.2936 34.4677 59.0774 34.3456 58.8663 34.2159C56.0106 32.4548 53.1512 30.6955 50.2879 28.9378C49.198 28.2689 48.4934 28.4469 47.8079 29.5432C47.5535 29.9578 47.2864 30.3686 46.9672 30.8748L43.8169 23.3711L51.9425 22.8014Z" fill="#D41D12"/>
<path d="M58.2042 54.6704C57.9778 54.851 57.5798 55.0151 57.4818 55.2872C57.3737 55.5874 57.4958 56.0033 57.609 56.3365C57.665 56.5005 57.9193 56.6061 58.0961 56.718C59.8029 57.8033 61.5118 58.8856 63.2228 59.965C63.3296 60.0324 63.4352 60.1023 63.5471 60.1595C64.0673 60.4215 64.5912 60.2867 64.8672 59.8225C64.9333 59.7196 64.9778 59.6045 64.9981 59.4839C65.0185 59.3634 65.0142 59.24 64.9855 59.1212C64.9569 59.0023 64.9045 58.8905 64.8315 58.7925C64.7585 58.6944 64.6664 58.6122 64.5607 58.5507C62.653 57.3183 60.7211 56.1076 58.7956 54.8955C58.6532 54.8039 58.4828 54.7734 58.2042 54.6704Z" fill="#D41D12"/>
<path d="M64.1764 56.2348C64.3761 56.0542 64.7996 55.8634 64.8848 55.5772C64.9764 55.2605 64.8848 54.6793 64.6572 54.5204C63.3256 53.5932 61.9418 52.7398 60.553 51.8992C60.1092 51.6295 59.6818 51.819 59.3919 52.2222C59.1019 52.6254 59.1057 53.1481 59.5063 53.419C60.885 54.3512 62.3043 55.216 63.7186 56.0999C63.8012 56.1534 63.9157 56.161 64.1764 56.2348Z" fill="#D41D12"/>
<path d="M60.9162 50.0271C61.0205 50.1543 61.1859 50.4824 61.4491 50.6719C62.0977 51.1374 62.7845 51.552 63.4688 51.964C64.0156 52.2934 64.546 52.1803 64.8499 51.7097C65.1399 51.2556 65.0382 50.7278 64.5409 50.3857C63.8274 49.9012 63.105 49.4306 62.3547 49.0033C61.673 48.6128 60.9175 49.058 60.9162 50.0271Z" fill="#D41D12"/>
<path d="M23.275 25.766V40.6805C23.275 41.7107 23.5663 42.1609 24.2352 42.1736C24.9258 42.1863 25.2336 41.7209 25.2336 40.6564C25.2336 30.6955 25.2336 20.7352 25.2336 10.7752C25.2437 10.4806 25.2151 10.186 25.1484 9.89892C25.0301 9.46142 24.7033 9.24903 24.2467 9.25539C23.7901 9.26175 23.4709 9.47923 23.3564 9.92054C23.2978 10.1882 23.2722 10.4619 23.2801 10.7358C23.2742 15.745 23.2725 20.7551 23.275 25.766Z" fill="#D41D12"/>
<path d="M11.3805 25.6998C11.3805 20.7092 11.3805 15.7186 11.3805 10.7281C11.3805 9.6839 11.0982 9.25403 10.4139 9.24894C9.72969 9.24386 9.42573 9.68517 9.42573 10.709C9.42573 20.7139 9.42573 30.7162 9.42573 40.716C9.41469 40.9481 9.43004 41.1806 9.47151 41.4092C9.58725 41.8988 9.90775 42.1723 10.4241 42.1646C10.9405 42.157 11.252 41.8683 11.3385 41.3659C11.3727 41.1152 11.3859 40.8621 11.378 40.6092C11.3813 35.639 11.3822 30.6692 11.3805 25.6998Z" fill="#D41D12"/>
<path d="M20.5857 25.6947V10.7929C20.5933 10.5605 20.5882 10.3278 20.5704 10.0959C20.5119 9.5872 20.2156 9.29469 19.7018 9.25908C19.1511 9.21965 18.8242 9.51344 18.697 10.0222C18.6637 10.2324 18.6555 10.4459 18.6729 10.6581C18.6729 20.702 18.6729 30.7459 18.6729 40.7898C18.6586 40.9798 18.6641 41.1707 18.6894 41.3595C18.7988 41.8759 19.118 42.1875 19.6636 42.1684C20.2092 42.1493 20.5208 41.8505 20.5729 41.3036C20.5933 41.0937 20.5857 40.8813 20.5857 40.6677V25.6947Z" fill="#D41D12"/>
<path d="M14.0708 25.7482C14.0708 30.6955 14.0708 35.6433 14.0708 40.5915C14.0708 40.8242 14.0708 41.0569 14.0848 41.2884C14.1319 41.834 14.446 42.1304 14.9852 42.1647C15.2311 42.1801 15.4731 42.0982 15.6589 41.9366C15.8448 41.775 15.9596 41.5467 15.9785 41.3011C15.994 41.1116 15.9974 40.9213 15.9887 40.7314C15.9887 30.7087 15.9887 20.686 15.9887 10.6633C15.9976 10.4733 15.9938 10.2829 15.9773 10.0935C15.9662 9.97195 15.9314 9.85377 15.8746 9.74573C15.8179 9.63768 15.7404 9.54187 15.6466 9.4638C15.5528 9.38572 15.4446 9.32689 15.328 9.29069C15.2115 9.25449 15.089 9.24162 14.9674 9.25282C14.4206 9.29097 14.128 9.60384 14.0772 10.1431C14.0594 10.3529 14.0657 10.5653 14.0657 10.779C14.0683 15.7679 14.07 20.7576 14.0708 25.7482Z" fill="#D41D12"/>
<path d="M27.9217 25.766C27.9217 30.7354 27.9217 35.7043 27.9217 40.6729C27.9146 40.8849 27.9184 41.0972 27.9331 41.3088C27.9878 41.8569 28.3146 42.1507 28.8514 42.166C29.3881 42.1812 29.7111 41.8697 29.8167 41.3495C29.8356 41.2023 29.8398 41.0536 29.8294 40.9056V10.5183C29.8294 9.68524 29.5343 9.27699 28.9226 9.24647C28.8014 9.23498 28.6791 9.24806 28.5631 9.28491C28.447 9.32175 28.3396 9.38162 28.2473 9.46093C28.1549 9.54024 28.0795 9.63736 28.0255 9.74648C27.9715 9.85561 27.9401 9.9745 27.9331 10.096C27.9184 10.3077 27.9146 10.5199 27.9217 10.7319C27.92 15.7429 27.92 20.7542 27.9217 25.766Z" fill="#D41D12"/>
<path d="M6.73679 25.7062C6.73679 20.6105 6.73679 15.5143 6.73679 10.4178C6.73679 9.65468 6.41248 9.24898 5.80328 9.25025C5.2564 9.25025 4.94099 9.54785 4.84561 10.0731C4.82521 10.2623 4.82138 10.453 4.83416 10.6429V40.7733C4.82138 40.9632 4.82521 41.1539 4.84561 41.3431C4.93972 41.8709 5.26531 42.1748 5.80583 42.1634C6.34634 42.152 6.66938 41.8556 6.72789 41.31C6.74218 41.0984 6.74558 40.8861 6.73806 40.6741L6.73679 25.7062Z" fill="#D41D12"/>
<path d="M13.8407 57.2939C13.8426 57.8597 13.9568 58.4196 14.1767 58.9409C14.3967 59.4623 14.7179 59.9348 15.1217 60.3311C15.5256 60.7274 16.0041 61.0396 16.5295 61.2496C17.055 61.4596 17.6168 61.5632 18.1826 61.5545C19.0358 61.5481 19.8679 61.2887 20.5735 60.8091C21.2792 60.3294 21.8266 59.6511 22.1464 58.8601C22.4662 58.0691 22.5441 57.201 22.3702 56.3657C22.1962 55.5304 21.7783 54.7656 21.1693 54.168C20.5603 53.5704 19.7877 53.167 18.9492 53.0089C18.1108 52.8508 17.2443 52.9451 16.4595 53.2798C15.6747 53.6146 15.0069 54.1747 14.5407 54.8893C14.0745 55.6039 13.8309 56.4408 13.8407 57.2939V57.2939ZM18.1546 54.852C18.6297 54.8556 19.093 55.0002 19.4858 55.2674C19.8786 55.5347 20.1832 55.9126 20.361 56.3531C20.5387 56.7937 20.5817 57.2772 20.4843 57.7422C20.3869 58.2072 20.1537 58.6328 19.8141 58.9651C19.4745 59.2973 19.0439 59.5213 18.5768 59.6085C18.1098 59.6957 17.6274 59.6422 17.1908 59.4549C16.7542 59.2676 16.3831 58.9548 16.1245 58.5563C15.8658 58.1577 15.7314 57.6914 15.7382 57.2163C15.7534 56.5851 16.0145 55.9847 16.4659 55.5431C16.9172 55.1015 17.5232 54.8535 18.1546 54.852V54.852Z" fill="#D41D12"/>
<circle cx="63.5007" cy="11.5" r="10.5" fill="white" stroke="#D41D12" stroke-width="2"/>
<path d="M58.0007 11L62.5007 15.5L69.5007 7" stroke="#D41D12" stroke-width="2"/>
</svg>
