<svg width="72" height="67" viewBox="0 0 72 67" fill="none" xmlns="http://www.w3.org/2000/svg">
<path d="M31.394 66.0765H30.6176C30.4003 65.9471 30.1919 65.8021 29.9707 65.6883C20.3013 61.0205 10.6307 56.3571 0.958823 51.698C0.258792 51.3629 0 50.9216 0.00129396 50.1453C0.0219973 38.7196 0.021566 27.2931 0 15.8657C0 15.0531 0.301492 14.6274 1.01317 14.2858C10.7282 9.61632 20.4351 4.92961 30.1337 0.225636C30.76 -0.0771499 31.2711 -0.073268 31.8922 0.225636C41.6072 4.93478 51.3261 9.63616 61.0489 14.3298C61.3996 14.5006 61.6843 14.8073 62 15.0505V50.9617C61.6843 51.205 61.4009 51.5117 61.0502 51.6812C52.8905 55.6347 44.7274 59.5786 36.5608 63.5131C34.8295 64.3503 33.115 65.216 31.394 66.0765ZM30.0095 63.5338V61.9811C30.0095 51.7157 30.0134 41.4468 30.0211 31.1745C30.0211 30.6738 29.8982 30.3982 29.4168 30.2041C28.7833 29.9402 28.1639 29.6435 27.5613 29.3151C26.9674 29.0084 26.7785 28.5038 27.0256 27.9836C27.2728 27.4635 27.802 27.2952 28.3998 27.5592C29.0172 27.8083 29.6168 28.0992 30.1945 28.43C30.7846 28.7936 31.2659 28.7173 31.8585 28.4171C33.7736 27.4466 35.7184 26.5331 37.6568 25.6092C38.3723 25.2676 38.9598 25.4798 39.1772 26.1139C39.357 26.6379 39.1371 27.0572 38.4771 27.3781C36.5271 28.3291 34.5836 29.2905 32.6155 30.2002C32.1186 30.4292 31.9957 30.7178 31.9957 31.2224C32.0095 41.7285 32.013 52.2337 32.0061 62.7381V63.5002C32.2726 63.3889 32.4693 63.3177 32.653 63.2272C41.6089 58.9045 50.5653 54.584 59.5221 50.2656C59.9711 50.0495 60.0694 49.7894 60.0681 49.3301C60.056 38.7817 60.053 28.2334 60.0591 17.685V16.9966C59.8896 17.0613 59.7899 17.0898 59.6968 17.1338C56.9717 18.451 54.2505 19.7786 51.5151 21.0765C51.1269 21.2615 51.1372 21.5268 51.1372 21.8529C51.1372 25.4268 51.1269 28.9994 51.1502 32.5733C51.1502 33.2682 50.9056 33.6977 50.2819 33.9967C48.0498 35.0525 45.8294 36.1343 43.6051 37.2044C43.4731 37.2765 43.3339 37.3346 43.1897 37.3778C42.425 37.5641 41.9359 37.0866 41.9346 36.1252C41.9346 32.5953 41.9217 29.0641 41.9437 25.5342C41.9437 25.0166 41.7961 24.7371 41.3174 24.5068C32.5487 20.291 23.7851 16.0641 15.0267 11.826C14.3138 11.4779 13.5943 10.8697 12.8788 10.8697C12.1386 10.8697 11.3972 11.465 10.6648 11.8169C8.22957 12.9879 5.79823 14.1654 3.28924 15.3779C3.52215 15.5073 3.67743 15.6095 3.85082 15.691C8.45213 17.9149 13.0534 20.1375 17.6548 22.3588C19.8001 23.394 21.9481 24.4291 24.0883 25.4759C24.6667 25.7593 24.8647 26.3028 24.6421 26.8074C24.4196 27.3121 23.8593 27.4842 23.2628 27.2409C23.0842 27.1671 22.9134 27.0753 22.7387 26.9912L2.60733 17.2697C2.41064 17.1752 2.20749 17.0924 1.95129 16.9785V17.4146C1.95129 28.0915 1.94654 38.7688 1.93706 49.4465C1.93706 49.902 2.12209 50.0728 2.4844 50.2462C9.83408 53.7882 17.1807 57.3362 24.5244 60.8903C26.3178 61.7559 28.1125 62.6164 30.0095 63.5338ZM23.0506 5.83883C23.2977 5.97857 23.4388 6.06786 23.5889 6.14032C32.4973 10.444 41.4084 14.7413 50.322 19.032C50.6249 19.151 50.9624 19.1459 51.2614 19.0178C53.5906 17.9244 55.9093 16.7935 58.2281 15.6703C58.3769 15.5979 58.5141 15.4995 58.7172 15.3766C56.3338 14.2237 54.0189 13.1005 51.7014 11.9812C44.9728 8.73341 38.2442 5.48946 31.5156 2.24939C31.2931 2.14199 30.9554 2.04882 30.7613 2.1394C28.2083 3.33631 25.6864 4.56687 23.0506 5.83883ZM48.4963 20.3687C48.1663 20.1966 47.9787 20.0944 47.791 20.0025C44.2145 18.2772 40.6368 16.5519 37.0577 14.8267C31.8171 12.2922 26.5757 9.76211 21.3335 7.2363C21.1019 7.12502 20.7577 7.00727 20.5571 7.09914C18.7818 7.92598 17.022 8.7994 15.1613 9.70517C16.1266 10.1762 16.991 10.5993 17.8566 11.0172C26.0362 14.9655 34.2161 18.9095 42.3965 22.8492C42.6023 22.9488 42.9141 23.0342 43.094 22.9501C44.8628 22.1272 46.6148 21.2745 48.4963 20.3687ZM43.9027 34.8804C45.6599 34.0342 47.3045 33.2552 48.9284 32.4336C49.0837 32.3546 49.1782 32.0143 49.1795 31.7943C49.195 28.8027 49.1898 25.8124 49.1885 22.8207C49.1885 22.6564 49.173 22.4934 49.1575 22.2281C47.8557 22.8583 46.664 23.5518 45.3882 24.0176C44.168 24.4628 43.8134 25.1499 43.8678 26.4335C43.9842 29.2038 43.9027 31.982 43.9027 34.8804Z" fill="#D41D12"/>
<path d="M14.5699 44.2695C14.5427 45.2646 13.7754 45.6489 12.9809 45.2697C10.7915 44.2216 8.60862 43.1606 6.42313 42.106C5.90554 41.8537 5.37502 41.6091 4.85744 41.3478C4.21822 41.0269 3.99566 40.5235 4.24281 39.9969C4.5016 39.4392 5.05153 39.2787 5.72568 39.5996C7.83742 40.6089 9.94269 41.6311 12.0493 42.6482C12.6691 42.9471 13.3109 43.2072 13.8957 43.5617C14.2102 43.7532 14.4237 44.1104 14.5699 44.2695Z" fill="#D41D12"/>
<path d="M5.11238 43.9952C5.2174 44.0112 5.32056 44.0377 5.42034 44.0741C6.94851 44.8039 8.47797 45.5324 9.99708 46.2738C10.4137 46.4783 10.6039 46.8923 10.4448 47.3025C10.2953 47.6166 10.0484 47.8739 9.74087 48.0362C9.56489 48.1345 9.22329 48.0491 9.01367 47.9469C7.59031 47.2844 6.18896 46.596 4.78113 45.9102C4.30366 45.6773 4.00475 45.2697 4.19497 44.7677C4.32436 44.4222 4.71255 44.1724 4.97134 43.88L5.11238 43.9952Z" fill="#D41D12"/>
<circle cx="60.5" cy="11.5" r="10.5" fill="white" stroke="#D41D12" stroke-width="2"/>
<path d="M55 11L59.5 15.5L66.5 7" stroke="#D41D12" stroke-width="2"/>
</svg>
