<svg width="64" height="63" viewBox="0 0 64 63" fill="none" xmlns="http://www.w3.org/2000/svg">
<path d="M6.87557 0H36.7099C37.0004 0.251437 37.3068 0.488227 37.5778 0.755532C42.1289 5.30093 46.6808 9.84673 51.2335 14.3929C51.4846 14.6236 51.6829 14.9056 51.815 15.2199C51.9471 15.5342 52.0097 15.8733 51.9988 16.214C51.9833 28.9617 51.9792 41.7089 51.9866 54.4557C51.9866 54.6583 51.9927 54.8633 51.9731 55.066C51.9036 55.7666 51.535 56.123 50.827 56.1462C50.2595 56.1657 49.6919 56.1462 49.1182 56.1462H45.7336C45.7336 57.7549 45.7336 59.2928 45.7336 60.8295C45.7336 62.0867 45.4565 62.365 44.2067 62.365H1.53436C1.37203 62.365 1.20969 62.3723 1.04613 62.365C0.45904 62.3247 0.111178 62.0147 0.036723 61.4263C0.010523 61.1831 -0.000890013 60.9386 0.00254704 60.694C0.00254704 42.4083 0.00254704 24.1213 0.00254704 5.8331C-0.00340496 5.62957 0.00107633 5.42588 0.0159733 5.22281C0.0879868 4.5161 0.456599 4.16946 1.16819 4.14993C1.85659 4.13285 2.54743 4.14993 3.24316 4.14993H6.2543C6.2543 3.22962 6.28359 2.38011 6.24576 1.53425C6.21768 0.904441 6.35683 0.384479 6.87557 0ZM49.853 16.6595H36.8942C35.6737 16.6595 35.3502 16.3398 35.3502 15.1119C35.3502 11.0107 35.3502 6.91005 35.3502 2.80975V2.11769H8.38053V53.9919H49.853V16.6595ZM2.16051 6.26518V60.2497H43.622V56.1462H8.11689C6.43739 56.1462 6.2543 55.9667 6.2543 54.3153V6.26518H2.16051ZM37.474 3.75813V14.4808H48.1991L37.474 3.75813Z" fill="#D41D12"/>
<path d="M32.2654 25.9651H44.1378C44.3605 25.9556 44.5835 25.9659 44.8043 25.9956C45.3865 26.1006 45.7246 26.4961 45.7209 27.0331C45.7173 27.5702 45.3938 27.9437 44.7884 28.045C44.5682 28.0772 44.3457 28.091 44.1232 28.0865H20.3221C20.1182 28.0916 19.9143 28.0818 19.7118 28.0572C19.1089 27.9669 18.7097 27.5433 18.7134 27.0185C18.7171 26.4936 19.1308 26.064 19.7253 25.981C19.928 25.9611 20.132 25.9554 20.3355 25.9639L32.2654 25.9651Z" fill="#D41D12"/>
<path d="M32.2661 32.1999C36.2232 32.1999 40.1807 32.1999 44.1386 32.1999C44.4214 32.1936 44.7039 32.2228 44.9796 32.2865C45.1915 32.3286 45.3818 32.4441 45.5171 32.6127C45.6524 32.7812 45.7239 32.992 45.7192 33.208C45.7424 33.717 45.5044 34.0722 45.0235 34.2236C44.7706 34.2945 44.5086 34.3278 44.246 34.3224C36.2293 34.3273 28.2142 34.3273 20.2008 34.3224C20.0182 34.3316 19.8351 34.3234 19.654 34.298C19.0925 34.1894 18.7129 33.761 18.7166 33.263C18.7202 32.765 19.095 32.3475 19.6686 32.2487C19.911 32.2133 20.1561 32.199 20.401 32.206C24.354 32.2003 28.309 32.1982 32.2661 32.1999Z" fill="#D41D12"/>
<path d="M32.1917 21.8262H20.5633C20.4217 21.8262 20.2789 21.8262 20.1373 21.8262C19.2182 21.8262 18.7068 21.4454 18.7117 20.7838C18.7166 20.1223 19.2341 19.7415 20.1495 19.7415C28.2053 19.7415 36.261 19.7415 44.3168 19.7415C45.2225 19.7415 45.6899 20.0759 45.7192 20.735C45.7406 20.9901 45.6621 21.2436 45.5002 21.442C45.3383 21.6403 45.1057 21.768 44.8514 21.7981C44.6082 21.8241 44.3635 21.8335 44.1191 21.8262C40.1449 21.8278 36.1691 21.8278 32.1917 21.8262Z" fill="#D41D12"/>
<path d="M32.2256 40.5569C28.2278 40.5569 24.2296 40.5569 20.231 40.5569C20.0272 40.5652 19.8231 40.5566 19.6207 40.5313C19.3676 40.4922 19.1366 40.3645 18.9689 40.1709C18.8013 39.9773 18.7078 39.7304 18.7053 39.4743C18.7236 38.9568 19.1142 38.5491 19.6757 38.4832C19.898 38.462 20.1213 38.453 20.3445 38.4563C28.2587 38.4563 36.1737 38.4563 44.0895 38.4563C44.3341 38.451 44.5788 38.4625 44.8218 38.4905C45.3503 38.5625 45.6616 38.8726 45.7104 39.4084C45.7617 39.9784 45.4663 40.3397 44.9427 40.4947C44.7057 40.5475 44.4625 40.5672 44.2201 40.5533C40.2248 40.5582 36.2266 40.5594 32.2256 40.5569Z" fill="#D41D12"/>
<path d="M32.2658 44.7034H44.1981C44.4016 44.6966 44.6054 44.7015 44.8084 44.718C45.063 44.7412 45.2993 44.8602 45.4695 45.051C45.6397 45.2418 45.731 45.4902 45.725 45.7458C45.7263 46.0013 45.6316 46.2481 45.4595 46.4371C45.2875 46.6261 45.0507 46.7435 44.7961 46.7662C44.6138 46.7792 44.4308 46.7824 44.2481 46.7759H20.2029C20.0206 46.7827 19.838 46.779 19.6561 46.7649C19.3981 46.7435 19.1576 46.6255 18.9829 46.4345C18.8081 46.2435 18.7119 45.9935 18.7134 45.7346C18.7149 45.4757 18.8141 45.2269 18.9912 45.038C19.1682 44.8491 19.41 44.7339 19.6683 44.7156C19.8685 44.6961 20.0735 44.7034 20.2786 44.7034H32.2658Z" fill="#D41D12"/>
<path d="M16.6264 17.6677C15.6341 17.6677 14.6405 17.6763 13.647 17.6677C12.8878 17.658 12.4899 17.2637 12.4862 16.4984C12.4756 14.5113 12.4756 12.5242 12.4862 10.5372C12.4862 9.76942 12.8756 9.37518 13.6482 9.36908C15.6532 9.35525 17.6594 9.35525 19.6668 9.36908C20.3857 9.36908 20.7824 9.72793 20.7922 10.4456C20.8215 12.4937 20.8215 14.5414 20.7922 16.5887C20.7812 17.3211 20.365 17.6604 19.6058 17.6677C18.6135 17.675 17.6199 17.6677 16.6264 17.6677ZM14.5978 11.4733V15.5476H18.655V11.4733H14.5978Z" fill="#D41D12"/>
<path d="M14.5277 28.1158C14.131 28.0865 13.7258 28.0817 13.3303 28.0206C12.7957 27.9376 12.5199 27.5702 12.5003 27.0552C12.4808 26.5669 12.731 26.1153 13.2192 26.0787C14.117 25.9975 15.0202 25.9975 15.9179 26.0787C16.4281 26.1275 16.6661 26.5877 16.621 27.1211C16.5782 27.6264 16.2987 27.9486 15.7983 28.0218C15.3821 28.0829 14.9537 28.0853 14.5277 28.1158Z" fill="#D41D12"/>
<path d="M14.5882 34.3627C14.1305 34.326 13.7045 34.326 13.2919 34.2504C12.7634 34.1552 12.4925 33.7731 12.4961 33.2556C12.4998 32.7381 12.7756 32.3219 13.309 32.2852C14.1494 32.2273 14.9928 32.2273 15.8332 32.2852C16.3299 32.3206 16.5985 32.7027 16.6192 33.2092C16.6424 33.7426 16.391 34.1222 15.8734 34.2345C15.445 34.3309 14.9959 34.3273 14.5882 34.3627Z" fill="#D41D12"/>
<path d="M14.5748 46.7735C14.2087 46.7735 13.8425 46.7906 13.4849 46.7735C13.22 46.7633 12.969 46.6522 12.7834 46.4629C12.5978 46.2737 12.4915 46.0206 12.4864 45.7556C12.4827 45.4902 12.5826 45.2338 12.765 45.041C12.9473 44.8482 13.1977 44.7341 13.4629 44.723C14.1879 44.6949 14.9166 44.6949 15.6416 44.723C15.7733 44.7226 15.9038 44.7487 16.0253 44.7997C16.1467 44.8508 16.2566 44.9257 16.3485 45.0201C16.4404 45.1145 16.5124 45.2265 16.5602 45.3492C16.6079 45.472 16.6305 45.6031 16.6266 45.7348C16.6266 46.3219 16.2263 46.7467 15.605 46.7784C15.2596 46.7882 14.9178 46.7735 14.5748 46.7735Z" fill="#D41D12"/>
<path d="M14.5523 40.5558C14.2288 40.5558 13.9054 40.5717 13.5831 40.5558C12.9252 40.5155 12.4846 40.0761 12.4846 39.4963C12.4846 38.9166 12.8947 38.5065 13.5416 38.4772C14.2264 38.4467 14.9148 38.4467 15.5983 38.4772C16.2525 38.5101 16.626 38.9202 16.6223 39.5134C16.6223 40.0859 16.2135 40.5021 15.58 40.5485C15.2382 40.5729 14.894 40.5485 14.551 40.5485L14.5523 40.5558Z" fill="#D41D12"/>
<path d="M14.5623 21.8128C14.1961 21.8128 13.83 21.8336 13.4638 21.8128C13.2073 21.8049 12.9636 21.6994 12.7822 21.518C12.6007 21.3366 12.4953 21.0928 12.4873 20.8364C12.4642 20.325 12.8401 19.8111 13.3784 19.7757C14.1675 19.7224 14.9594 19.7216 15.7487 19.7733C16.298 19.8099 16.6422 20.2969 16.6214 20.8352C16.6007 21.3734 16.2345 21.7652 15.6559 21.8116C15.2934 21.8348 14.9273 21.8128 14.5623 21.8128Z" fill="#D41D12"/>
<circle cx="52.5" cy="11.5" r="10.5" fill="#D9D9D9" stroke="#D41D12" stroke-width="2"/>
<path d="M47 11L51.5 15.5L58.5 7" stroke="#D41D12" stroke-width="2"/>
</svg>
