<svg width="70" height="70" viewBox="0 0 70 70" fill="none" xmlns="http://www.w3.org/2000/svg">
<path fill-rule="evenodd" clip-rule="evenodd" d="M0.694262 0.187106C-0.0161935 0.580819 0.00541416 0.201603 0.000217376 12.3318C-0.00333832 20.818 0.0361846 23.7313 0.158856 24.0003C0.511144 24.7733 0.106204 24.7486 12.372 24.7486C24.6378 24.7486 24.2328 24.7733 24.5851 24.0003C24.7022 23.7434 24.7486 22.2457 24.7486 18.725V13.8083L36.8174 13.8099C50.0527 13.8117 49.5022 13.7798 51.2734 14.6467C52.5559 15.2744 54.0035 16.7505 54.6298 18.0693C55.136 19.1351 55.5142 20.6174 55.5142 21.5349C55.5142 22.4523 55.136 23.9346 54.6298 25.0005C54.0393 26.244 52.5771 27.7563 51.3368 28.4066C49.691 29.2695 49.4456 29.2992 43.233 29.3868L37.5796 29.4666L37.2498 29.8503C36.7845 30.3917 36.8102 31.0489 37.3193 31.6182L37.7186 32.0649L43.4392 32.056C48.8803 32.0475 49.2133 32.0325 50.2538 31.7484C53.3855 30.8934 55.9092 28.7946 57.2219 25.9535C57.922 24.4381 58.1658 23.2969 58.1658 21.5349C58.1658 19.6742 57.9027 18.5333 57.0936 16.8852C55.8635 14.3798 53.7803 12.55 51.0417 11.5703L49.8436 11.1416L37.3303 11.0732L24.8169 11.0048L24.7486 5.94497C24.7109 3.16204 24.6266 0.775146 24.5611 0.640717C24.2421 -0.0133744 24.4198 -0.00407511 12.3446 0.000984763C3.20828 0.00495061 0.957931 0.0409168 0.694262 0.187106ZM7.10683 6.70395C7.10683 11.0764 7.14293 11.2953 7.91821 11.6164C8.50093 11.8578 8.77869 11.7548 10.7001 10.5838L12.4019 9.54678L14.0724 10.5835C15.9471 11.7469 16.2415 11.8585 16.8126 11.6219C17.6228 11.2863 17.6372 11.202 17.6372 6.77028V2.73127H19.8253H22.0134V12.3724V22.0135H12.372H2.73058V12.3724V2.73127H4.9187H7.10683V6.70395ZM14.902 5.2612C14.902 6.65267 14.8723 7.79114 14.8361 7.79114C14.7997 7.79114 14.3536 7.53241 13.8446 7.21609C12.629 6.46094 12.119 6.44932 11.0382 7.15182C9.73859 7.99668 9.84198 8.15887 9.84198 5.27584V2.73127H12.372H14.902V5.2612ZM11.7411 29.7232C8.85103 30.7434 7.05212 33.271 7.05759 36.3042C7.06293 39.2889 8.71605 41.6418 11.6547 42.8476C12.3605 43.1371 12.5313 43.143 22.2901 43.2103L32.2081 43.2787L33.134 43.7346C33.7934 44.0594 34.2123 44.3833 34.5898 44.8609C35.2727 45.7249 35.4766 46.3367 35.4751 47.518C35.4734 48.806 35.0721 49.6979 34.0907 50.5947C32.8445 51.7337 33.3371 51.6887 22.0911 51.6913C11.2362 51.6939 11.1026 51.7028 9.55971 52.5252C6.08538 54.377 4.85757 58.4032 6.66633 62.013C7.12611 62.9307 8.63236 64.4069 9.56846 64.8574C11.2641 65.6733 10.3615 65.6376 29.3928 65.6408L46.8349 65.6439L47.2452 66.2623C49.2647 69.3065 56.734 70.8416 63.1319 69.5275C67.5047 68.6293 70.2206 66.4454 69.9859 64.0161C69.814 62.2368 68.2103 60.67 65.6078 59.7388C64.8377 59.4634 64.447 59.2575 64.507 59.1586C64.5581 59.0742 65.0083 58.4514 65.5074 57.7745C68.8012 53.3061 70.0909 49.4711 69.6154 45.5601C69.3057 43.0131 68.2919 40.8464 66.5466 39.0011C61.455 33.6181 52.7706 34.4168 48.7142 40.6411C46.3409 44.2828 46.2747 49.2556 48.5399 53.7475C49.2346 55.1253 49.7829 55.9948 51.1058 57.8168C51.6689 58.5922 52.1075 59.2476 52.0805 59.2733C52.0537 59.2989 51.5305 59.5127 50.9179 59.7481C49.158 60.4248 47.6831 61.4829 47.0827 62.4993L46.8443 62.9028H29.5304C14.5894 62.9028 12.1224 62.8749 11.5303 62.699C9.05371 61.9635 7.85489 59.166 9.01049 56.8187C9.47301 55.8792 10.0605 55.3032 11.0686 54.8011L11.6882 54.4924L22.2869 54.4241C32.7427 54.3566 32.8953 54.3517 33.6029 54.0614C36.1939 52.9983 37.8026 51.0216 38.1792 48.4384C38.7167 44.7504 36.0257 41.1519 32.3309 40.6178C31.7726 40.5372 27.6302 40.4794 22.2771 40.4779C11.9413 40.4748 12.4156 40.5221 11.1543 39.3694C9.32845 37.7006 9.29604 35.0092 11.0809 33.2611C12.231 32.1345 12.2406 32.1332 19.5613 32.1332C26.4604 32.1332 26.6458 32.1162 27.1239 31.4335C27.4808 30.9239 27.409 30.2597 26.9472 29.7979L26.5475 29.3982L19.5965 29.4011C12.6667 29.4039 12.6428 29.4049 11.7411 29.7232ZM31.1656 29.7979C30.204 30.7596 31.1567 32.3307 32.4864 31.9763C33.1273 31.8053 33.4327 31.3843 33.4327 30.6711C33.4327 30.1692 33.3632 29.9985 33.0489 29.7282C32.4859 29.2439 31.6902 29.2733 31.1656 29.7979ZM60.8902 38.5421C62.3364 39.0542 63.3536 39.6916 64.4271 40.7579C66.4139 42.7316 67.2506 45.325 66.8726 48.3385C66.4505 51.7032 64.8973 54.4432 60.2637 59.9968C59.0327 61.4722 58.561 61.9455 58.3219 61.9455C57.9659 61.9455 57.5079 61.469 55.4538 58.9615C52.4293 55.2693 50.6909 52.4482 50.0453 50.1847C49.6265 48.7167 49.5301 46.3091 49.8351 44.9383C50.5328 41.8016 52.9675 39.2652 56.0937 38.4179C57.4035 38.0629 59.7053 38.1225 60.8902 38.5421ZM56.8866 41.7772C54.5675 42.4172 52.9165 44.7643 53.0891 47.176C53.2183 48.9817 54.3648 50.691 55.975 51.4787C59.7746 53.3377 64.0665 50.166 63.425 45.973C62.964 42.9602 59.8473 40.9601 56.8866 41.7772ZM59.1797 44.516C60.195 44.9401 60.7474 45.7343 60.7474 46.7698C60.7474 48.4113 59.2265 49.6366 57.6993 49.2254C56.9945 49.0356 56.1285 48.2585 55.9209 47.6295C55.5451 46.4909 56.1128 45.1276 57.1831 44.5978C57.8842 44.2507 58.4858 44.2261 59.1797 44.516ZM54.9613 62.6849C56.2377 64.2092 57.0279 64.6817 58.2972 64.6792C59.5835 64.6769 60.3237 64.1829 62.0549 62.1722L62.5051 61.6494L63.7557 62.0081C65.8002 62.5945 67.2802 63.5446 67.2802 64.2703C67.2802 65.0343 65.3388 66.1924 63.1774 66.7176C58.4098 67.8764 52.0991 67.1189 49.8897 65.1228C49.5289 64.7969 49.3649 64.5338 49.3649 64.2812C49.3649 63.5474 50.7864 62.5973 52.7839 61.9955C53.348 61.8257 53.8779 61.6833 53.9613 61.6794C54.0449 61.6753 54.4948 62.1278 54.9613 62.6849Z" fill="#D41D12"/>
</svg>
