<svg width="60" height="60" viewBox="0 0 60 60" fill="none" xmlns="http://www.w3.org/2000/svg">
<g clip-path="url(#clip0_4_5)">
<path d="M0 57.6981V44.8797C0.619419 43.0239 1.98796 42.3718 3.87894 42.596V41.7827C3.87894 29.4996 3.87894 17.2141 3.87894 4.92616C3.87894 2.56369 5.30931 0.727287 7.60031 0.121215C7.69146 0.0888137 7.7795 0.0482439 7.86335 0L56.0107 0C56.074 0.0450572 56.1424 0.0824887 56.2144 0.111517C58.6254 0.753955 60.0024 2.54551 60.0024 5.05344C60.0024 19.1046 60.0024 33.1554 60.0024 47.2058C60.0123 47.5678 59.9867 47.93 59.9261 48.287C59.4412 50.6919 57.532 52.2556 55.0774 52.2556C44.0693 52.2556 33.0623 52.2556 22.0566 52.2556H21.2918C21.2918 53.8629 21.2918 55.4072 21.2918 56.9575C21.2918 58.7757 20.0796 59.9964 18.2686 59.9964C13.1864 59.9996 8.10699 60.0012 3.03043 60.0012C2.74957 60.0051 2.46923 59.9758 2.19524 59.9139C1.01337 59.623 0.384258 58.7818 0 57.6981ZM30.9964 9.45474V46.6846L42.5399 49.9816V6.148C38.6513 7.25954 34.816 8.35532 30.9964 9.45474ZM44.5473 46.4046H58.0387V9.7105H44.5473V11.7396C44.6988 11.7069 44.8151 11.6802 44.9315 11.6584C46.717 11.3227 48.3801 12.6524 48.3826 14.4597C48.3914 23.529 48.3914 32.5986 48.3826 41.6687C48.3826 42.596 47.9813 43.3391 47.2613 43.9076C46.4576 44.5427 45.5461 44.6433 44.5448 44.3924L44.5473 46.4046ZM5.81842 44.5148C4.91171 44.5148 4.07047 44.5148 3.22922 44.5148C2.29221 44.5148 1.9419 44.8591 1.94068 45.7827C1.94068 49.4499 1.94068 53.1174 1.94068 56.7854C1.93947 57.7175 2.28252 58.0618 3.21104 58.0618C8.16881 58.0618 13.1266 58.0618 18.0844 58.0618C19.008 58.0618 19.3547 57.709 19.3571 56.7769C19.3571 55.2654 19.3571 53.7538 19.3571 52.2423C19.3571 50.0604 19.3571 47.8895 19.3571 45.7124C19.3571 44.9852 19.0408 44.5536 18.425 44.5282C17.4662 44.4882 16.5025 44.5173 15.4758 44.5173V50.2713H5.81842V44.5148ZM9.70948 9.70323V34.8649H13.5508V33.1619C13.5508 31.0043 13.5702 28.8479 13.5424 26.6902C13.5302 25.7763 13.6357 24.9254 14.2915 24.1944C13.6393 23.4671 13.5302 22.6186 13.5412 21.6986C13.5702 19.341 13.5484 16.9809 13.5521 14.6221C13.5521 12.8463 14.7776 11.6196 16.5473 11.616C19.3491 11.616 22.1512 11.616 24.9537 11.616H29.0048V9.70323H9.70948ZM7.77001 42.5524V7.7444H29.2375C29.4388 7.7444 29.6533 7.78198 29.8436 7.72985C31.9831 7.13105 34.119 6.51771 36.2548 5.91163L36.239 5.85466H5.8366V42.5584L7.77001 42.5524ZM19.3644 13.5421C18.4177 13.5421 17.5365 13.5336 16.6552 13.5421C15.8528 13.5518 15.4879 13.9251 15.4855 14.7445C15.479 17.1624 15.479 19.5806 15.4855 21.9992C15.4855 22.8477 15.8491 23.2114 16.6976 23.2199C17.7256 23.2271 18.7583 23.2199 19.7802 23.2199C22.4599 23.2199 25.14 23.2199 27.8205 23.2199C28.5951 23.2199 29.0218 22.8744 29.0327 22.1798C29.0497 19.6408 29.0497 17.1018 29.0327 14.5627C29.0327 13.9797 28.669 13.5772 28.1102 13.5566C27.1502 13.5203 26.1877 13.5469 25.1598 13.5469V17.3652H19.3632L19.3644 13.5421ZM19.3644 25.1544H16.8286C16.6879 25.1486 16.547 25.1518 16.4067 25.1641C15.8322 25.2393 15.4903 25.6163 15.4867 26.2442C15.477 28.742 15.477 31.2406 15.4867 33.7401C15.4867 34.4395 15.8794 34.831 16.5776 34.831C20.3661 34.8407 24.1545 34.8407 27.9429 34.831C28.6157 34.831 29.0194 34.4455 29.023 33.7873C29.0375 31.2491 29.0375 28.7105 29.023 26.1714C29.023 25.5896 28.6533 25.1896 28.0945 25.1702C27.1356 25.1351 26.1732 25.1605 25.1465 25.1605V28.9776H19.3584L19.3644 25.1544ZM6.07661 3.84008H57.7732C57.7926 3.78796 57.8096 3.76614 57.806 3.75159C57.789 3.69366 57.7671 3.63729 57.7405 3.5831C57.1344 2.39035 56.1223 1.92974 54.824 1.92974C39.5668 1.93458 24.3097 1.93458 9.05249 1.92974C8.91066 1.92974 8.77005 1.92974 8.62944 1.92974C7.42212 2.00489 6.4245 2.73824 6.07661 3.84008ZM9.68039 42.5839H10.415C13.0817 42.5839 15.7364 42.5778 18.3971 42.5839C18.776 42.5808 19.1517 42.6529 19.5026 42.7959C19.8534 42.9389 20.1725 43.15 20.4413 43.417C20.7101 43.684 20.9233 44.0016 21.0687 44.3515C21.214 44.7014 21.2886 45.0766 21.2881 45.4555C21.2881 45.773 21.2881 46.0894 21.2881 46.4555C21.6263 46.4555 21.9051 46.4688 22.1827 46.4555C22.8167 46.4203 23.2155 46.0579 23.2191 45.4288C23.2349 42.8894 23.2312 40.3487 23.2191 37.8093C23.2191 37.2856 22.9367 36.8565 22.4203 36.8226C21.4069 36.7583 20.3875 36.8044 19.3268 36.8044V40.6045H13.5327V36.7801C12.5254 36.7801 11.5629 36.751 10.6029 36.791C10.4796 36.7894 10.3573 36.813 10.2435 36.8603C10.1296 36.9077 10.0266 36.9777 9.94085 37.0663C9.85505 37.1548 9.78823 37.2599 9.74449 37.3751C9.70074 37.4904 9.681 37.6134 9.68645 37.7365C9.66342 39.3256 9.68039 40.916 9.68039 42.5839ZM46.4564 28.1363C46.4564 23.6837 46.4564 19.2323 46.4564 14.7821C46.4564 14.0306 46.0806 13.5615 45.4988 13.5542C44.917 13.5469 44.5291 14.016 44.5182 14.7664C44.5182 14.8476 44.5182 14.9276 44.5182 15.0088V41.1063C44.5182 41.2675 44.5097 41.4287 44.5182 41.5911C44.5666 42.1609 44.9691 42.5718 45.4721 42.5778C45.9752 42.5839 46.3922 42.1766 46.4419 41.6081C46.4588 41.4287 46.4479 41.2445 46.4479 41.0639C46.4544 36.7551 46.4572 32.4459 46.4564 28.1363ZM25.1065 36.7426V46.4252H29.0097V36.7413L25.1065 36.7426ZM44.563 5.83285V7.7141H58.0326V5.82678L44.563 5.83285ZM44.563 48.4143V50.3198C48.1862 50.3198 51.7875 50.3525 55.3877 50.3004C55.9371 50.289 56.4678 50.0986 56.8992 49.7582C57.3306 49.4178 57.6392 48.946 57.7781 48.4143H44.563ZM36.2281 50.3174V50.2204C34.5905 49.7549 32.9431 49.321 31.3201 48.8119C30.344 48.5057 29.3245 48.3608 28.3017 48.3828C26.1889 48.4155 24.0749 48.3925 21.9621 48.3925H21.3342V50.3174H36.2281ZM11.6162 46.4834V48.3489H13.506V44.5621H7.77001V48.3549H9.69736V46.4834H11.6162ZM21.3136 15.4524H23.1961V13.5857H21.3124L21.3136 15.4524ZM21.3245 25.1835V27.0551H23.1852V25.1884L21.3245 25.1835ZM15.5158 36.7995V38.6759H17.3813V36.7995H15.5158Z" fill="#D41D12"/>
<path d="M56.1295 28.0648C56.1295 32.5796 56.1295 37.0945 56.1295 41.6093C56.1295 43.0821 55.0386 44.3257 53.6373 44.5015C52.9314 44.6016 52.2133 44.4377 51.6207 44.0411C51.0282 43.6445 50.6028 43.0432 50.4263 42.3524C50.3592 42.0796 50.327 41.7993 50.3305 41.5184C50.3257 32.5485 50.3257 23.5787 50.3305 14.6088C50.3305 12.896 51.5694 11.6184 53.2155 11.6148C54.8931 11.6148 56.1247 12.8875 56.1308 14.6451C56.1316 19.1172 56.1312 23.5904 56.1295 28.0648ZM54.1986 28.1327C54.1986 23.6817 54.1986 19.2303 54.1986 14.7785C54.1986 14.0282 53.8204 13.5591 53.2385 13.5542C52.6567 13.5494 52.2688 14.0185 52.2603 14.7664C52.2603 14.8464 52.2603 14.9276 52.2603 15.0088V41.1087C52.2603 41.2699 52.2518 41.4324 52.2664 41.5936C52.3148 42.1609 52.7197 42.5718 53.2228 42.5766C53.7258 42.5815 54.1404 42.1742 54.1925 41.6069C54.2095 41.4275 54.1998 41.2433 54.1998 41.0639L54.1986 28.1327Z" fill="#D41D12"/>
</g>
<defs>
<clipPath id="clip0_4_5">
<rect width="60" height="60" fill="white"/>
</clipPath>
</defs>
</svg>
