<svg width="69" height="67" viewBox="0 0 69 67" fill="none" xmlns="http://www.w3.org/2000/svg">
<path fill-rule="evenodd" clip-rule="evenodd" d="M29.4594 0.356073C29.2494 0.566798 29.1042 0.86276 29.1042 1.08065C29.1042 1.29853 29.2494 1.59449 29.4594 1.80522C29.8079 2.1544 29.8495 2.16129 31.6153 2.16129H33.416V4.50683C33.416 6.82752 33.4195 6.85588 33.7523 7.1894C33.9994 7.43714 34.2855 7.54696 34.8306 7.60342C35.7911 7.7027 36.8775 8.20709 37.5212 8.85224C39.1594 10.4947 39.1594 13.2795 37.5212 14.922C35.8828 16.5643 33.105 16.5643 31.4667 14.922C30.8977 14.3515 30.3793 13.3167 30.251 12.495C30.095 11.496 30.0453 11.3553 29.7509 11.0804C29.0745 10.4485 28.0263 11.0408 28.0263 12.0549C28.0263 12.7639 28.3738 14.0801 28.7656 14.8554C29.1847 15.6843 30.1794 16.7763 31.0024 17.311C31.3693 17.5494 31.6228 17.7877 31.5658 17.8405C31.5088 17.8933 25.5254 21.6814 18.2691 26.2586L5.076 34.5806H2.89318C0.714536 34.5806 0.70982 34.5813 0.35518 34.9367L0 35.2929V50.7903V66.2877L0.35518 66.6439L0.710494 67L34.4786 66.9957C60.8106 66.9923 68.2938 66.9552 68.4606 66.8268C68.5781 66.7363 68.7449 66.5295 68.8311 66.3673C69.0563 65.9433 69.0563 35.6374 68.8311 35.2134C68.5214 34.6304 68.342 34.5894 66.0793 34.585L63.9118 34.5806L50.7187 26.2586C43.4625 21.6814 37.4766 17.8909 37.4167 17.8352C37.3568 17.7794 37.6147 17.5364 37.9897 17.2952C40.4317 15.7242 41.5142 12.5818 40.5657 9.8178C40.1896 8.72189 39.9545 8.33204 39.1327 7.44227C38.352 6.5968 36.9655 5.77038 36.034 5.59518L35.5719 5.50818V3.8348V2.16129H37.3654C38.981 2.16129 39.1882 2.13414 39.4523 1.88735C39.9945 1.38106 39.9526 0.632042 39.3564 0.173173C39.198 0.0513306 37.9323 0.00742938 34.4786 0.00432253L29.8147 0L29.4594 0.356073ZM47.1822 26.5771L59.7549 34.5131L47.1245 34.5476C40.1776 34.5665 28.8101 34.5665 21.8634 34.5476L9.23278 34.5131L21.7623 26.5886C28.6535 22.2301 34.3632 18.6588 34.4507 18.6526C34.538 18.6463 40.2672 22.2124 47.1822 26.5771ZM66.832 50.7903V64.8387H34.4939H2.15587V50.7903V36.7419H34.4939H66.832V50.7903ZM6.99485 37.9958C6.87736 38.0863 6.71055 38.2931 6.62431 38.4553C6.3997 38.8782 6.3997 62.7024 6.62431 63.1254C7.00402 63.8399 7.71236 63.9592 8.2683 63.402L8.62348 63.0458V50.7903V38.5349L8.2683 38.1787C7.88792 37.7973 7.35259 37.7205 6.99485 37.9958ZM12.3845 37.9958C12.267 38.0863 12.1002 38.2931 12.014 38.4553C11.7894 38.8782 11.7894 62.7024 12.014 63.1254C12.3937 63.8399 13.102 63.9592 13.658 63.402L14.0132 63.0458V50.7903V38.5349L13.658 38.1787C13.2776 37.7973 12.7423 37.7205 12.3845 37.9958ZM17.6021 38.1787L17.247 38.5349V50.7903V63.0458L17.6021 63.402C18.1581 63.9592 18.8664 63.8399 19.2461 63.1254C19.4707 62.7024 19.4707 38.8782 19.2461 38.4553C18.8664 37.7407 18.1581 37.6214 17.6021 38.1787ZM22.9918 38.1787L22.6366 38.5349V50.7903V63.0458L22.9918 63.402C23.5478 63.9592 24.2561 63.8399 24.6358 63.1254C24.8604 62.7024 24.8604 38.8782 24.6358 38.4553C24.2561 37.7407 23.5478 37.6214 22.9918 38.1787ZM28.3815 38.1787L28.0263 38.5349V50.7903V63.0458L28.3815 63.402C28.9374 63.9592 29.6458 63.8399 30.0255 63.1254C30.2501 62.7024 30.2501 38.8782 30.0255 38.4553C29.6458 37.7407 28.9374 37.6214 28.3815 38.1787ZM33.7712 38.1787L33.416 38.5349V50.7903V63.0458L33.7712 63.402C34.3271 63.9592 35.0354 63.8399 35.4152 63.1254C35.6398 62.7024 35.6398 38.8782 35.4152 38.4553C35.0354 37.7407 34.3271 37.6214 33.7712 38.1787ZM39.1608 38.1787L38.8057 38.5349V50.7903V63.0458L39.1608 63.402C39.7168 63.9592 40.4251 63.8399 40.8048 63.1254C41.0294 62.7024 41.0294 38.8782 40.8048 38.4553C40.4251 37.7407 39.7168 37.6214 39.1608 38.1787ZM44.5505 38.1787L44.1953 38.5349V50.7903V63.0458L44.5505 63.402C45.1065 63.9592 45.8148 63.8399 46.1945 63.1254C46.4191 62.7024 46.4191 38.8782 46.1945 38.4553C45.8148 37.7407 45.1065 37.6214 44.5505 38.1787ZM49.9402 38.1787L49.585 38.5349V50.7903V63.0458L49.9402 63.402C50.4961 63.9592 51.2045 63.8399 51.5842 63.1254C51.8088 62.7024 51.8088 38.8782 51.5842 38.4553C51.2045 37.7407 50.4961 37.6214 49.9402 38.1787ZM55.3299 38.1787L54.9747 38.5349V50.7903V63.0458L55.3299 63.402C55.8858 63.9592 56.5941 63.8399 56.9738 63.1254C57.1985 62.7024 57.1985 38.8782 56.9738 38.4553C56.5941 37.7407 55.8858 37.6214 55.3299 38.1787ZM60.7195 38.1787L60.3644 38.5349V50.7903V63.0458L60.7195 63.402C61.2755 63.9592 61.9838 63.8399 62.3635 63.1254C62.5881 62.7024 62.5881 38.8782 62.3635 38.4553C61.9838 37.7407 61.2755 37.6214 60.7195 38.1787Z" fill="#D41D12"/>
</svg>
