<svg width="63" height="63" viewBox="0 0 63 63" fill="none" xmlns="http://www.w3.org/2000/svg">
<path fill-rule="evenodd" clip-rule="evenodd" d="M12.5596 0.215418C12.3275 0.333663 12.023 0.586764 11.8828 0.777851C11.6397 1.10921 11.628 1.28024 11.628 4.51062V7.89629L11.9185 8.13155C12.2619 8.40975 12.7782 8.43608 13.1118 8.19233C13.334 8.03004 13.3549 7.80585 13.4122 4.96244L13.4737 1.90702L16.273 1.87392L19.0723 1.84082V3.88556C19.0723 7.00545 19.2281 7.1835 21.898 7.11521C24.2385 7.05541 24.3634 6.88832 24.3634 3.81813V1.8455H27.1319H29.9005V8.23798V14.6306L26.6287 14.667C23.3588 14.7036 23.3567 14.7037 23.1218 14.9941C22.9013 15.2666 22.8868 15.5303 22.8868 19.2698V23.2551H18.1495H13.4122V16.9888V10.7225L13.0879 10.4675C12.6659 10.1354 12.3962 10.1456 11.9732 10.5094L11.628 10.8063L11.5939 17.0245L11.5599 23.2427L8.61873 23.2797C5.8696 23.3141 5.65489 23.3332 5.33053 23.5714C4.53356 24.1565 4.55312 23.955 4.553 31.5913L4.55275 38.5125L2.92237 38.5127C1.03864 38.5129 0.571309 38.6616 0.215579 39.3738C0.0153809 39.7744 0.000369142 40.5925 0.000246095 51.0992L0 62.3941L0.302081 62.6961L0.604039 62.9981H5.76108C10.7919 62.9981 10.926 62.9919 11.2422 62.7431C11.6485 62.4235 11.6868 61.765 11.3204 61.3986C11.083 61.1612 10.9102 61.1525 6.45999 61.1525H1.84571V50.7553V40.3581H8.36722H14.8887V42.456C14.8887 45.4916 15.0166 45.649 17.481 45.649C19.9068 45.649 20.0567 45.4635 20.0567 42.4617V40.3581H26.5782H33.0997V50.7553V61.1525H23.5772C14.5062 61.1525 14.0414 61.1632 13.7744 61.3794C13.3684 61.7082 13.3947 62.3363 13.8303 62.711L14.1663 63L38.3481 62.9682L62.5298 62.9366L62.765 62.6461C62.9918 62.3662 63.0002 62.0366 63 53.5409C62.9999 45.3954 62.9835 44.6935 62.7847 44.2955C62.3633 43.4522 62.2508 43.4346 57.2478 43.4345L52.7873 43.4342V36.1961V28.958L52.5026 28.6904C52.1247 28.3355 51.6192 28.3495 51.2437 28.725L50.9416 29.0269V36.2306V43.4342H42.9435H34.9454V41.2754C34.9454 39.1473 34.9411 39.1122 34.6434 38.8146L34.3414 38.5125H29.5369H24.7325V27.5001V16.4877H29.962H35.1915V18.4603C35.1915 20.5597 35.2824 21.0069 35.8027 21.4709C36.0515 21.6928 36.2527 21.717 37.8476 21.717H39.6166L40.0188 21.3151L40.4211 20.9132L40.4596 18.7004L40.4981 16.4877H45.7198H50.9416V21.096C50.9416 24.2114 50.9859 25.8015 51.0782 26.0042C51.2151 26.3046 51.6532 26.5773 51.9989 26.5773C52.1003 26.5773 52.3191 26.4413 52.4852 26.2752L52.7873 25.9732L52.7868 20.892C52.7865 16.1377 52.7716 15.7866 52.5552 15.432C52.0532 14.6087 52.5153 14.642 41.6022 14.642H31.7462L31.7457 7.90539C31.7454 1.36551 31.7381 1.15682 31.4969 0.761486C31.0197 -0.0211943 31.2902 -0.000153906 21.691 9.21813e-05C13.6423 0.000215225 12.9495 0.01658 12.5596 0.215418ZM22.5177 3.56811V5.29072H21.7179H20.918V3.56811V1.8455H21.7179H22.5177V3.56811ZM38.6369 18.2103V19.9329H37.8371H37.0373V18.2103V16.4877H37.8371H38.6369V18.2103ZM12.0586 27.1986C12.0586 30.2654 12.162 30.3919 14.6672 30.3911C15.9488 30.3907 16.2408 30.3541 16.5728 30.1517C17.2229 29.7552 17.2792 29.5376 17.3286 27.2232L17.374 25.1007H20.1304H22.8868V31.8066V38.5125H14.6426H6.39846V31.8066V25.1007H9.22855H12.0586V27.1986ZM15.4766 26.8541L15.5109 28.546H14.7076H13.9044V26.8174V25.089L14.6734 25.1256L15.4424 25.1623L15.4766 26.8541ZM18.211 42.0807V43.8034H17.4727H16.7344V42.0807V40.3581H17.4727H18.211V42.0807ZM45.4045 47.3162C45.4045 49.5865 45.487 49.9074 46.1795 50.3296C46.5124 50.5326 46.802 50.5699 48.05 50.5699C49.2979 50.5699 49.5876 50.5326 49.9204 50.3296C50.6129 49.9074 50.6955 49.5865 50.6955 47.3162V45.2799H55.925H61.1545V53.2162V61.1525H48.05H34.9454V53.2162V45.2799H40.175H45.4045V47.3162ZM48.8498 47.0025V48.7251H48.05H47.2502V47.0025V45.2799H48.05H48.8498V47.0025Z" fill="#D41D12"/>
</svg>
