<svg width="42" height="42" viewBox="0 0 42 42" fill="none" xmlns="http://www.w3.org/2000/svg">
<g filter="url(#filter0_d_5_2)">
<path d="M38 17C38 26.3888 30.3888 34 21 34C11.6112 34 4 26.3888 4 17C4 7.61116 11.6112 0 21 0C30.3888 0 38 7.61116 38 17Z" fill="white"/>
<path d="M37.5 17C37.5 26.1127 30.1127 33.5 21 33.5C11.8873 33.5 4.5 26.1127 4.5 17C4.5 7.8873 11.8873 0.5 21 0.5C30.1127 0.5 37.5 7.8873 37.5 17Z" stroke="#D41D12"/>
</g>
<g clip-path="url(#clip0_5_2)">
<path d="M15.4584 5H26.5426C26.7714 5.11998 26.8433 5.30735 26.8378 5.55882C26.8253 6.20104 26.8337 6.84368 26.8337 7.48591V7.70738C27.5268 7.70738 28.1862 7.70245 28.8456 7.71232C28.9625 7.71232 29.1262 7.74354 29.183 7.82079C29.2747 7.95176 29.3252 8.10637 29.3283 8.26538C29.335 13.8146 29.3369 19.3638 29.3341 24.9128V25.1774C29.7613 25.1774 30.1568 25.1741 30.5522 25.1774C30.8207 25.1807 31.0011 25.3516 30.9994 25.5883C30.9978 25.825 30.817 25.9864 30.5455 25.9942C30.5109 25.9942 30.4762 25.9942 30.4416 25.9942C24.15 25.9942 17.8585 25.9956 11.5669 25.9984C11.3118 25.9984 11.121 25.933 10.999 25.7083V25.4617C11.1088 25.2818 11.2496 25.1573 11.4834 25.1741C11.6145 25.1836 11.7469 25.1741 11.8789 25.1741H12.6673V9.34809C12.6673 8.99965 12.6673 8.65135 12.6673 8.30318C12.6673 7.82161 12.7813 7.70738 13.2623 7.70738C13.8244 7.70738 14.3864 7.70738 14.9485 7.70738C15.0161 7.70738 15.0834 7.70163 15.1673 7.69793V7.48427C15.1673 6.84245 15.1761 6.20022 15.1631 5.55841C15.1581 5.30694 15.2299 5.11998 15.4584 5ZM28.4931 8.54068H13.5158V25.1659H18.5009V24.9341C18.5009 23.4719 18.5009 22.0094 18.5009 20.5466C18.5009 20.1435 18.6382 20.0104 19.0525 20.0104H22.9485C23.3619 20.0104 23.4993 20.1443 23.4993 20.5474C23.4993 22.0102 23.4993 23.4727 23.4993 24.935V25.1659H28.4931V8.54068ZM16.0104 7.69259H25.9864V5.83042H16.0104V7.69259ZM22.6537 25.1675V20.8449H19.3435V25.1647H20.5846V24.951C20.5846 24.5479 20.5821 24.1448 20.5846 23.7417C20.5871 23.4738 20.7516 23.2959 20.993 23.2926C21.2435 23.2889 21.4105 23.4701 21.4147 23.7495C21.4147 23.8247 21.4147 23.8999 21.4147 23.9751V25.1667L22.6537 25.1675Z" fill="#D41D12"/>
<path d="M17.6663 11.8287C17.6663 12.2112 17.6663 12.5933 17.6663 12.9755C17.6663 13.2853 17.5068 13.4451 17.1965 13.4463C16.3989 13.4488 15.6013 13.4488 14.8038 13.4463C14.5023 13.4463 14.3373 13.2869 14.3361 12.9944C14.3333 12.2024 14.3333 11.4108 14.3361 10.6194C14.3361 10.3346 14.4998 10.1707 14.785 10.1695C15.5965 10.1656 16.4078 10.1656 17.2191 10.1695C17.503 10.1695 17.6634 10.3338 17.6659 10.6214C17.6688 11.0237 17.6663 11.4264 17.6663 11.8287ZM16.8207 12.6241V11.0019H15.1833V12.6241H16.8207Z" fill="#D41D12"/>
<path d="M21.0215 10.1678C21.4099 10.1678 21.7982 10.1678 22.1866 10.1678C22.5106 10.1678 22.6672 10.3256 22.6676 10.6486C22.6699 11.4194 22.6699 12.1905 22.6676 12.9619C22.6676 13.2943 22.5106 13.4451 22.1686 13.4459C21.3919 13.4459 20.6152 13.4459 19.8385 13.4459C19.4953 13.4459 19.3374 13.2947 19.3374 12.9652C19.3352 12.1938 19.3352 11.4226 19.3374 10.6514C19.3374 10.3194 19.494 10.1691 19.836 10.1674C20.2281 10.1666 20.6248 10.1678 21.0215 10.1678ZM21.8204 12.6205V10.9991H20.1789V12.6225L21.8204 12.6205Z" fill="#D41D12"/>
<path d="M26.0179 13.4472C25.6158 13.4472 25.2132 13.4472 24.8111 13.4472C24.4979 13.4451 24.3371 13.289 24.3359 12.9812C24.3336 12.1964 24.3336 11.4116 24.3359 10.6268C24.3359 10.3322 24.4996 10.1711 24.7985 10.1699C25.6028 10.1671 26.4072 10.1671 27.2117 10.1699C27.499 10.1699 27.6644 10.3342 27.6657 10.6149C27.669 11.4134 27.669 12.2119 27.6657 13.0104C27.6657 13.2812 27.4986 13.4431 27.2243 13.4464C26.8221 13.4505 26.42 13.4468 26.0179 13.4472ZM25.1827 10.9958V12.6122H26.8259V10.9958H25.1827Z" fill="#D41D12"/>
<path d="M17.6667 16.7429C17.6667 17.1321 17.6692 17.5212 17.6667 17.9099C17.6638 18.2049 17.5026 18.366 17.204 18.3672C16.3992 18.3699 15.5948 18.3699 14.7908 18.3672C14.5035 18.3672 14.3377 18.2028 14.3365 17.9222C14.3331 17.124 14.3331 16.3255 14.3365 15.5267C14.3365 15.2559 14.5035 15.092 14.7779 15.0907C15.5894 15.0866 16.4007 15.0866 17.2119 15.0907C17.4988 15.0907 17.6629 15.2551 17.6659 15.5353C17.6696 15.9376 17.6667 16.3407 17.6667 16.7429ZM15.1758 17.5356H16.8182V15.9179H15.1758V17.5356Z" fill="#D41D12"/>
<path d="M22.6668 16.7516C22.6668 17.1271 22.6668 17.5023 22.6668 17.8778C22.6668 18.2148 22.5127 18.3689 22.1761 18.3709C21.3925 18.3728 20.6088 18.3728 19.8252 18.3709C19.4965 18.3709 19.3366 18.2168 19.3358 17.8984C19.3335 17.1204 19.3335 16.3425 19.3358 15.5645C19.3358 15.2465 19.4965 15.0936 19.826 15.0928C20.6097 15.0912 21.3933 15.0912 22.177 15.0928C22.511 15.0928 22.6655 15.2485 22.6668 15.5859C22.6681 15.9709 22.6668 16.3604 22.6668 16.7516ZM20.1755 17.5413H21.8225V15.922H20.1755V17.5413Z" fill="#D41D12"/>
<path d="M27.6677 16.7389C27.6677 17.1211 27.6677 17.5032 27.6677 17.8853C27.6656 18.2095 27.5111 18.3669 27.1879 18.3677C26.3975 18.3696 25.607 18.3696 24.8164 18.3677C24.4928 18.3677 24.3375 18.2095 24.3366 17.8857C24.3344 17.1144 24.3344 16.3431 24.3366 15.572C24.3366 15.2412 24.4945 15.0904 24.8377 15.0896C25.6144 15.0896 26.3911 15.0896 27.1678 15.0896C27.519 15.0896 27.6689 15.2404 27.6689 15.5925C27.6685 15.9747 27.6677 16.3568 27.6677 16.7389ZM25.1768 17.5389H26.8229V15.9225H25.1768V17.5389Z" fill="#D41D12"/>
<path d="M17.6663 21.6663C17.6663 22.0484 17.6663 22.4306 17.6663 22.8127C17.6663 23.1328 17.5068 23.2881 17.1806 23.2889C16.3897 23.2906 15.5991 23.2906 14.8088 23.2889C14.4964 23.2889 14.3365 23.1299 14.3357 22.8213C14.3334 22.0365 14.3334 21.2517 14.3357 20.4669C14.3357 20.1727 14.5027 20.0129 14.8004 20.0116C15.5975 20.0089 16.3949 20.0089 17.1927 20.0116C17.5051 20.0116 17.6638 20.1706 17.6659 20.4792C17.6684 20.8745 17.6663 21.2714 17.6663 21.6663ZM16.8194 22.463V20.8453H15.1754V22.463H16.8194Z" fill="#D41D12"/>
<path d="M27.6673 21.6704C27.6673 22.046 27.6673 22.4211 27.6673 22.7967C27.6673 23.1336 27.5132 23.2897 27.1771 23.2897C26.3934 23.2914 25.6098 23.2914 24.8261 23.2897C24.49 23.2897 24.3367 23.134 24.3359 22.7967C24.3359 22.0324 24.3359 21.268 24.3359 20.5035C24.3359 20.1579 24.4891 20.0104 24.8474 20.0104C25.6169 20.0104 26.3866 20.0104 27.1566 20.0104C27.5203 20.0104 27.6665 20.1587 27.6673 20.524C27.6682 20.9061 27.6673 21.2883 27.6673 21.6704ZM25.1798 20.833V22.4564H26.8192V20.833H25.1798Z" fill="#D41D12"/>
<path d="M21.4153 22.0698C21.4132 22.1509 21.3866 22.2294 21.3389 22.2955C21.2912 22.3616 21.2246 22.4122 21.1475 22.4408C21.0704 22.4694 20.9865 22.4748 20.9063 22.4562C20.8261 22.4377 20.7534 22.396 20.6974 22.3366C20.6414 22.2772 20.6047 22.2027 20.5919 22.1226C20.5792 22.0425 20.5909 21.9605 20.6258 21.8871C20.6606 21.8136 20.7169 21.7521 20.7875 21.7103C20.858 21.6685 20.9396 21.6483 21.0219 21.6524C21.1296 21.6585 21.2306 21.7054 21.304 21.7832C21.3773 21.861 21.4172 21.9637 21.4153 22.0698V22.0698Z" fill="#D41D12"/>
</g>
<defs>
<filter id="filter0_d_5_2" x="0" y="0" width="42" height="42" filterUnits="userSpaceOnUse" color-interpolation-filters="sRGB">
<feFlood flood-opacity="0" result="BackgroundImageFix"/>
<feColorMatrix in="SourceAlpha" type="matrix" values="0 0 0 0 0 0 0 0 0 0 0 0 0 0 0 0 0 0 127 0" result="hardAlpha"/>
<feOffset dy="4"/>
<feGaussianBlur stdDeviation="2"/>
<feComposite in2="hardAlpha" operator="out"/>
<feColorMatrix type="matrix" values="0 0 0 0 0.831373 0 0 0 0 0.113725 0 0 0 0 0.0705882 0 0 0 0.3 0"/>
<feBlend mode="normal" in2="BackgroundImageFix" result="effect1_dropShadow_5_2"/>
<feBlend mode="normal" in="SourceGraphic" in2="effect1_dropShadow_5_2" result="shape"/>
</filter>
<clipPath id="clip0_5_2">
<rect width="20" height="21" fill="white" transform="translate(11 5)"/>
</clipPath>
</defs>
</svg>
