<svg width="27" height="36" viewBox="0 0 27 36" fill="none" xmlns="http://www.w3.org/2000/svg">
<path d="M24.4699 36.0002H2.54424C2.51535 35.9819 2.48858 35.9523 2.45758 35.9467C0.962471 35.6622 2.17156e-05 34.3232 0.00354459 32.7652C0.0270304 22.9371 0.0258561 13.1102 2.17155e-05 3.28442C-0.00631946 1.38709 1.37676 -0.0181277 3.29814 0.000176775C8.35769 0.0480501 13.4172 0.0205933 18.4768 0.00932902C18.6679 0.00246726 18.8584 0.0366191 19.0352 0.109484C19.212 0.182349 19.3712 0.292235 19.5019 0.43174C21.7819 2.72543 24.065 5.01396 26.3511 7.29733C26.5801 7.52684 26.7823 7.7831 26.9972 8.0274V33.4699C26.9694 33.5311 26.9459 33.5942 26.9267 33.6586C26.7534 34.3626 26.4124 34.9737 25.8072 35.3701C25.3999 35.6383 24.9187 35.7939 24.4699 36.0002ZM18.0061 1.53846C17.8539 1.53142 17.7497 1.52297 17.6454 1.52297C12.8444 1.52297 8.04321 1.52297 3.24177 1.52297C2.08697 1.52297 1.5219 2.09322 1.5219 3.25486C1.5219 13.0928 1.5219 22.9305 1.5219 32.768C1.5219 33.9268 2.08556 34.4915 3.25022 34.4922C10.0888 34.4922 16.9277 34.4922 23.7667 34.4922C23.9999 34.4973 24.2327 34.4691 24.4579 34.4084C25.1625 34.1972 25.4929 33.6488 25.4929 32.7328C25.4929 24.9572 25.4929 17.1808 25.4929 9.40376V9.01162H25.0554C23.7205 9.01162 22.3855 9.01162 21.0506 9.01162C20.3664 9.02339 19.6994 8.7966 19.1645 8.37026C18.3803 7.74509 18.0089 6.92279 18.0089 5.9259L18.0061 1.53846ZM24.2416 7.47263L19.5463 2.78035C19.5463 3.90255 19.516 5.10361 19.5597 6.30044C19.5809 6.88548 20.1579 7.44025 20.7462 7.45926C21.9341 7.49938 23.1242 7.47263 24.2416 7.47263V7.47263Z" fill="#25343F"/>
<path d="M14.9773 14.8236C14.9563 15.3894 14.87 15.951 14.7201 16.497C14.5369 17.1961 14.2973 17.8811 14.1064 18.5788C14.0909 18.6524 14.0907 18.7283 14.1058 18.802C14.121 18.8756 14.1511 18.9454 14.1945 19.0068C15.0619 20.0541 16.0431 21.0019 17.1199 21.8328C17.2642 21.9318 17.4388 21.9769 17.6131 21.9602C18.6115 21.8391 19.6056 21.6554 20.616 21.811C20.8819 21.8455 21.1435 21.9076 21.3966 21.9961C22.2569 22.3178 22.6156 22.9515 22.4887 23.8765C22.3704 24.758 21.7623 25.2987 20.8682 25.4676C20.0227 25.6274 19.3618 25.2529 18.7052 24.8474C18.188 24.5285 17.6934 24.1708 17.203 23.8118C17.0191 23.6766 16.8613 23.6217 16.6295 23.6851C15.1224 24.0997 13.609 24.4897 12.1047 24.9129C11.914 24.9821 11.7551 25.1185 11.658 25.2965C10.902 26.7109 10.0311 28.0373 8.77559 29.0616C8.40152 29.359 7.99269 29.6098 7.55809 29.8086C6.69639 30.2141 5.87556 30.0036 5.15126 29.4665C4.25363 28.8005 4.27688 27.5698 5.23017 26.7778C5.78422 26.3304 6.38354 25.942 7.01838 25.619C8.13584 25.034 9.28923 24.5186 10.4187 23.9561C10.5792 23.875 10.7065 23.7406 10.7787 23.5759C11.2883 22.1594 11.7815 20.7373 12.2583 19.3096C12.2964 19.1976 12.228 19.028 12.1618 18.9069C11.7151 18.1156 11.1895 17.358 10.816 16.5371C10.3369 15.4811 10.3933 14.3653 10.821 13.293C11.1782 12.3926 11.8637 11.9962 12.8283 12.0096C14.3608 12.0314 14.8286 12.8741 14.9744 14.2836C14.9836 14.459 14.9836 14.6348 14.9744 14.8102C15.0061 14.8144 14.9484 14.8186 14.9773 14.8236ZM12.91 17.3137C13.213 16.2295 13.6449 15.2298 13.4497 14.1146C13.3694 13.6591 13.2151 13.4965 12.7578 13.512C12.3823 13.5247 12.1998 13.7232 12.0934 14.1949C11.8356 15.3481 12.2534 16.3245 12.91 17.3137V17.3137ZM15.1774 22.4298L13.4645 20.5156C13.1742 21.3892 12.8974 22.2242 12.605 23.1056L15.1774 22.4298ZM9.29275 26.2758L9.2089 26.1702C8.31198 26.6631 7.41294 27.1502 6.52095 27.6487C6.38004 27.7261 6.27224 27.8599 6.1588 27.9753C5.9735 28.1647 6.03268 28.3062 6.26167 28.3978C6.56957 28.5174 6.87254 28.5308 7.17128 28.3597C8.06327 27.8486 8.70373 27.0883 9.29275 26.2758V26.2758ZM19.1899 23.2486L19.1582 23.3521C19.3816 23.4929 19.5943 23.6569 19.8318 23.7695C20.0484 23.8739 20.2795 23.9451 20.5173 23.9807C20.7287 24.0096 20.9528 23.9645 20.976 23.6766C20.9993 23.3887 20.771 23.3619 20.5786 23.3436C20.1171 23.2978 19.6563 23.2774 19.1899 23.2479V23.2486Z" fill="#25343F"/>
</svg>
