<svg width="23" height="26" viewBox="0 0 23 26" fill="none" xmlns="http://www.w3.org/2000/svg">
<path fill-rule="evenodd" clip-rule="evenodd" d="M18.262 1.17932C15.6704 0.112373 12.7545 0.560464 10.709 2.3399C9.93739 3.01125 10.2706 2.47702 5.58521 10.5547C1.75349 17.1606 1.28373 17.9895 1.14702 18.386C0.560325 20.0881 0.964627 22.0684 2.181 23.4503C2.80671 24.1612 3.5954 24.6929 4.4641 24.9893C6.38408 25.6446 8.30415 25.2545 9.80277 23.9048L10.174 23.5705L13.9058 17.1405C16.5779 12.5363 17.6682 10.6217 17.7455 10.3981C17.892 9.97389 17.929 9.20262 17.8253 8.73258C17.7147 8.23158 17.3752 7.59111 17.0064 7.1879C16.7726 6.93221 16.6123 6.80952 16.2051 6.5744C15.7978 6.33927 15.6114 6.26181 15.2731 6.18715C14.7395 6.06938 14.0151 6.09561 13.5259 6.25035C13.0911 6.38794 12.4317 6.80412 12.1458 7.12136C12.0107 7.2712 10.98 9.01921 8.83634 12.7339C5.85403 17.9017 5.72217 18.1391 5.70236 18.3738C5.67696 18.6756 5.80789 18.9882 6.06064 19.2293C6.41116 19.5636 6.96001 19.622 7.37487 19.3692L7.60671 19.2279L10.6373 13.9793C12.7445 10.3299 13.7171 8.68297 13.8291 8.57402C14.1804 8.23224 14.6988 8.17359 15.136 8.42604C15.5851 8.68533 15.7876 9.16907 15.6512 9.65722C15.6027 9.83064 14.5728 11.6407 12.0145 16.0485L8.4454 22.1979L8.14139 22.4357C7.97424 22.5664 7.72784 22.7332 7.59384 22.8063C7.04326 23.1065 6.17409 23.2228 5.53428 23.0818C5.06238 22.9778 4.17689 22.4665 3.85086 22.1099C3.22663 21.4269 2.93841 20.3586 3.13187 19.4449L3.21486 19.0532L7.39168 11.8187L11.5685 4.58423L11.9224 4.22669C13.1637 2.9729 14.9238 2.48548 16.6862 2.90747C17.144 3.0171 17.2542 3.0664 17.9864 3.4891C18.7185 3.9118 18.8163 3.98264 19.1401 4.32423C20.3773 5.6295 20.8381 7.38313 20.3909 9.08476L20.2698 9.54553L16.3719 16.3577L12.4739 23.1699L12.5183 23.4354C12.5738 23.7673 12.8066 24.1231 13.0644 24.2702C13.4674 24.5 14.0164 24.446 14.3367 24.1449C14.4437 24.0444 15.659 21.9641 18.4062 17.179C22.0628 10.8101 22.3309 10.3297 22.4389 9.95501C23.248 7.1483 22.4155 4.32959 20.2046 2.39011C19.7917 2.02782 18.7578 1.38337 18.262 1.17932Z" fill="white"/>
</svg>
