<svg width="66" height="65" viewBox="0 0 66 65" fill="none" xmlns="http://www.w3.org/2000/svg">
<path fill-rule="evenodd" clip-rule="evenodd" d="M28.1786 0.340591C27.9776 0.542155 27.8388 0.825249 27.8388 1.03366C27.8388 1.24207 27.9776 1.52517 28.1786 1.72673C28.5119 2.06073 28.5517 2.06732 30.2407 2.06732H31.9631V4.31088C31.9631 6.53067 31.9665 6.5578 32.2848 6.87682C32.5212 7.11378 32.7948 7.21883 33.3163 7.27284C34.2349 7.3678 35.2741 7.85026 35.8898 8.46736C37.4568 10.0384 37.4568 12.7021 35.8898 14.2732C34.3227 15.8441 31.6657 15.8441 30.0986 14.2732C29.5543 13.7275 29.0585 12.7377 28.9358 11.9517C28.7865 10.9962 28.739 10.8616 28.4574 10.5986C27.8104 9.99421 26.8078 10.5608 26.8078 11.5307C26.8078 12.209 27.1402 13.468 27.515 14.2095C27.9158 15.0024 28.8672 16.0469 29.6544 16.5583C30.0054 16.7864 30.2479 17.0143 30.1934 17.0648C30.1389 17.1154 24.4156 20.7387 17.4748 25.1169L4.8553 33.0771H2.76739C0.683469 33.0771 0.678958 33.0778 0.339737 33.4177L0 33.7585V48.5821V63.4056L0.339737 63.7464L0.679603 64.087L32.9795 64.0828C58.1667 64.0796 65.3245 64.0441 65.484 63.9213C65.5964 63.8347 65.756 63.6369 65.8385 63.4818C66.0538 63.0762 66.0538 34.0879 65.8385 33.6823C65.5422 33.1247 65.3706 33.0855 63.2063 33.0813L61.1331 33.0771L48.5136 25.1169C41.5728 20.7387 35.8471 17.113 35.7899 17.0598C35.7326 17.0064 35.9793 16.774 36.3379 16.5432C38.6738 15.0405 39.7093 12.0348 38.8019 9.39094C38.4422 8.34268 38.2173 7.96978 37.4313 7.11869C36.6845 6.30998 35.3583 5.51949 34.4673 5.35191L34.0253 5.2687V3.66807V2.06732H35.7408C37.2861 2.06732 37.4844 2.04135 37.737 1.80529C38.2556 1.32102 38.2155 0.604562 37.6452 0.165644C37.4938 0.0490988 36.283 0.00710636 32.9795 0.00413459L28.5184 0L28.1786 0.340591ZM45.1308 25.4216L57.1569 33.0125L45.0756 33.0455C38.4307 33.0636 27.5575 33.0636 20.9128 33.0455L8.83136 33.0125L20.8161 25.4326C27.4077 21.2636 32.8692 17.8476 32.9528 17.8416C33.0363 17.8356 38.5165 21.2466 45.1308 25.4216ZM63.9262 48.5821V62.0196H32.9942H2.06214V48.5821V35.1445H32.9942H63.9262V48.5821ZM6.69073 36.3438C6.57834 36.4303 6.41879 36.6282 6.3363 36.7833C6.12145 37.1879 6.12145 59.9762 6.3363 60.3808C6.69949 61.0643 7.37704 61.1784 7.90881 60.6454L8.24855 60.3047V48.5821V36.8594L7.90881 36.5187C7.54497 36.154 7.03292 36.0804 6.69073 36.3438ZM11.8461 36.3438C11.7337 36.4303 11.5741 36.6282 11.4916 36.7833C11.2768 37.1879 11.2768 59.9762 11.4916 60.3808C11.8548 61.0643 12.5324 61.1784 13.0641 60.6454L13.4039 60.3047V48.5821V36.8594L13.0641 36.5187C12.7003 36.154 12.1883 36.0804 11.8461 36.3438ZM16.8368 36.5187L16.4971 36.8594V48.5821V60.3047L16.8368 60.6454C17.3686 61.1784 18.0461 61.0643 18.4093 60.3808C18.6242 59.9762 18.6242 37.1879 18.4093 36.7833C18.0461 36.0998 17.3686 35.9857 16.8368 36.5187ZM21.9922 36.5187L21.6524 36.8594V48.5821V60.3047L21.9922 60.6454C22.5239 61.1784 23.2015 61.0643 23.5647 60.3808C23.7795 59.9762 23.7795 37.1879 23.5647 36.7833C23.2015 36.0998 22.5239 35.9857 21.9922 36.5187ZM27.1475 36.5187L26.8078 36.8594V48.5821V60.3047L27.1475 60.6454C27.6793 61.1784 28.3568 61.0643 28.72 60.3808C28.9349 59.9762 28.9349 37.1879 28.72 36.7833C28.3568 36.0998 27.6793 35.9857 27.1475 36.5187ZM32.3029 36.5187L31.9631 36.8594V48.5821V60.3047L32.3029 60.6454C32.8346 61.1784 33.5122 61.0643 33.8754 60.3808C34.0902 59.9762 34.0902 37.1879 33.8754 36.7833C33.5122 36.0998 32.8346 35.9857 32.3029 36.5187ZM37.4582 36.5187L37.1185 36.8594V48.5821V60.3047L37.4582 60.6454C37.99 61.1784 38.6675 61.0643 39.0307 60.3808C39.2455 59.9762 39.2455 37.1879 39.0307 36.7833C38.6675 36.0998 37.99 35.9857 37.4582 36.5187ZM42.6135 36.5187L42.2738 36.8594V48.5821V60.3047L42.6135 60.6454C43.1453 61.1784 43.8228 61.0643 44.186 60.3808C44.4009 59.9762 44.4009 37.1879 44.186 36.7833C43.8228 36.0998 43.1453 35.9857 42.6135 36.5187ZM47.7689 36.5187L47.4291 36.8594V48.5821V60.3047L47.7689 60.6454C48.3006 61.1784 48.9782 61.0643 49.3414 60.3808C49.5562 59.9762 49.5562 37.1879 49.3414 36.7833C48.9782 36.0998 48.3006 35.9857 47.7689 36.5187ZM52.9242 36.5187L52.5845 36.8594V48.5821V60.3047L52.9242 60.6454C53.456 61.1784 54.1335 61.0643 54.4967 60.3808C54.7116 59.9762 54.7116 37.1879 54.4967 36.7833C54.1335 36.0998 53.456 35.9857 52.9242 36.5187ZM58.0796 36.5187L57.7398 36.8594V48.5821V60.3047L58.0796 60.6454C58.6113 61.1784 59.2889 61.0643 59.6521 60.3808C59.8669 59.9762 59.8669 37.1879 59.6521 36.7833C59.2889 36.0998 58.6113 35.9857 58.0796 36.5187Z" fill="#D41D12"/>
</svg>
