<svg width="63" height="63" viewBox="0 0 63 63" fill="none" xmlns="http://www.w3.org/2000/svg">
<g clip-path="url(#clip0_5_9)">
<path d="M0 60.583V47.1237C0.65039 45.1751 2.08736 44.4904 4.07289 44.7258V43.8718C4.07289 30.9746 4.07289 18.0748 4.07289 5.17247C4.07289 2.69187 5.57477 0.763652 7.98032 0.127275C8.07603 0.0932544 8.16847 0.0506561 8.25652 0L58.8113 0C58.8777 0.04731 58.9495 0.0866131 59.0251 0.117093C61.5567 0.791652 63.0025 2.67278 63.0025 5.30611C63.0025 20.0599 63.0025 34.8132 63.0025 49.5661C63.0129 49.9462 62.9861 50.3265 62.9224 50.7014C62.4132 53.2265 60.4086 54.8684 57.8312 54.8684C46.2727 54.8684 34.7155 54.8684 23.1595 54.8684H22.3564C22.3564 56.5561 22.3564 58.1775 22.3564 59.8054C22.3564 61.7145 21.0836 62.9962 19.182 62.9962C13.8457 62.9996 8.51234 63.0013 3.18195 63.0013C2.88704 63.0054 2.59269 62.9746 2.305 62.9096C1.06404 62.6042 0.403471 61.7209 0 60.583ZM32.5462 9.92747V49.0188L44.6669 52.4807V6.4554C40.5838 7.62252 36.5567 8.77309 32.5462 9.92747ZM46.7746 48.7248H60.9406V10.196H46.7746V12.3266C46.9337 12.2922 47.0559 12.2642 47.1781 12.2413C49.0529 11.8888 50.7991 13.285 50.8017 15.1827C50.811 24.7054 50.811 34.2286 50.8017 43.7522C50.8017 44.7258 50.3804 45.506 49.6244 46.1029C48.7805 46.7699 47.8234 46.8755 46.7721 46.612L46.7746 48.7248ZM6.10934 46.7406C5.1573 46.7406 4.27399 46.7406 3.39068 46.7406C2.40682 46.7406 2.03899 47.102 2.03772 48.0719C2.03772 51.9224 2.03772 55.7733 2.03772 59.6247C2.03645 60.6034 2.39664 60.9649 3.37159 60.9649C8.57726 60.9649 13.7829 60.9649 18.9886 60.9649C19.9584 60.9649 20.3225 60.5945 20.325 59.6158C20.325 58.0286 20.325 56.4415 20.325 54.8544C20.325 52.5634 20.325 50.2839 20.325 47.9981C20.325 47.2344 19.9928 46.7813 19.3462 46.7546C18.3395 46.7126 17.3276 46.7431 16.2496 46.7431V52.7849H6.10934V46.7406ZM10.195 10.1884V36.6082H14.2284V34.82C14.2284 32.5545 14.2488 30.2902 14.2195 28.0247C14.2068 27.0651 14.3175 26.1716 15.0061 25.4042C14.3213 24.6405 14.2068 23.7496 14.2182 22.7836C14.2488 20.308 14.2258 17.83 14.2297 15.3532C14.2297 13.4886 15.5164 12.2006 17.3747 12.1968C20.3165 12.1968 23.2588 12.1968 26.2014 12.1968H30.455V10.1884H10.195ZM8.15851 44.68V8.13162H30.6994C30.9107 8.13162 31.136 8.17107 31.3358 8.11635C33.5823 7.48761 35.8249 6.84359 38.0675 6.20722L38.051 6.1474H6.12843V44.6864L8.15851 44.68ZM20.3326 14.2192C19.3386 14.2192 18.4133 14.2103 17.488 14.2192C16.6454 14.2294 16.2623 14.6214 16.2597 15.4818C16.253 18.0205 16.253 20.5596 16.2597 23.0992C16.2597 23.9901 16.6416 24.3719 17.5325 24.3809C18.6118 24.3885 19.6962 24.3809 20.7692 24.3809C23.5829 24.3809 26.397 24.3809 29.2115 24.3809C30.0248 24.3809 30.4729 24.0181 30.4843 23.2888C30.5021 20.6228 30.5021 17.9568 30.4843 15.2909C30.4843 14.6787 30.1025 14.2561 29.5157 14.2345C28.5077 14.1963 27.4971 14.2243 26.4178 14.2243V18.2335H20.3314L20.3326 14.2192ZM20.3326 26.4122H17.67C17.5223 26.406 17.3743 26.4094 17.2271 26.4224C16.6238 26.5013 16.2648 26.8971 16.261 27.5564C16.2508 30.1791 16.2508 32.8027 16.261 35.4271C16.261 36.1615 16.6734 36.5726 17.4065 36.5726C21.3844 36.5827 25.3622 36.5827 29.3401 36.5726C30.0465 36.5726 30.4703 36.1678 30.4741 35.4767C30.4894 32.8116 30.4894 30.146 30.4741 27.48C30.4741 26.8691 30.0859 26.4491 29.4992 26.4287C28.4924 26.3918 27.4818 26.4185 26.4038 26.4185V30.4264H20.3263L20.3326 26.4122ZM6.38044 4.03208H60.6619C60.6823 3.97735 60.7001 3.95444 60.6963 3.93917C60.6785 3.87834 60.6555 3.81915 60.6275 3.76226C59.9911 2.50987 58.9284 2.02622 57.5652 2.02622C41.5452 2.03131 25.5252 2.03131 9.50511 2.02622C9.3562 2.02622 9.20855 2.02622 9.06091 2.02622C7.79322 2.10513 6.74573 2.87515 6.38044 4.03208ZM10.1644 44.7131H10.9357C13.7358 44.7131 16.5232 44.7067 19.317 44.7131C19.7148 44.7099 20.1093 44.7856 20.4777 44.9357C20.8461 45.0858 21.1811 45.3075 21.4633 45.5878C21.7456 45.8682 21.9695 46.2017 22.1221 46.5691C22.2747 46.9364 22.3531 47.3304 22.3525 47.7282C22.3525 48.0617 22.3525 48.3939 22.3525 48.7783C22.7076 48.7783 23.0004 48.7923 23.2918 48.7783C23.9575 48.7414 24.3763 48.3608 24.3801 47.7002C24.3966 45.0338 24.3928 42.3661 24.3801 39.6997C24.3801 39.1499 24.0835 38.6993 23.5413 38.6637C22.4773 38.5962 21.4069 38.6446 20.2932 38.6446V42.6347H14.2093V38.6191C13.1516 38.6191 12.141 38.5886 11.133 38.6306C11.0036 38.6289 10.8752 38.6537 10.7556 38.7034C10.6361 38.7531 10.528 38.8266 10.4379 38.9196C10.3478 39.0125 10.2776 39.1229 10.2317 39.2439C10.1858 39.3649 10.165 39.494 10.1708 39.6233C10.1466 41.2919 10.1644 42.9618 10.1644 44.7131ZM48.7792 29.5431C48.7792 24.8679 48.7792 20.1939 48.7792 15.5212C48.7792 14.7321 48.3847 14.2396 47.7737 14.2319C47.1628 14.2243 46.7555 14.7168 46.7441 15.5047C46.7441 15.59 46.7441 15.674 46.7441 15.7592V43.1616C46.7441 43.3309 46.7352 43.5002 46.7441 43.6707C46.795 44.2689 47.2175 44.7004 47.7457 44.7067C48.2739 44.7131 48.7118 44.2854 48.764 43.6885C48.7818 43.5002 48.7703 43.3067 48.7703 43.1171C48.7771 38.5928 48.7801 34.0682 48.7792 29.5431ZM26.3618 38.5797V48.7464H30.4601V38.5784L26.3618 38.5797ZM46.7912 6.12449V8.0998H60.9343V6.11812L46.7912 6.12449ZM46.7912 50.835V52.8358C50.5955 52.8358 54.3769 52.8702 58.1571 52.8154C58.734 52.8034 59.2912 52.6035 59.7442 52.2461C60.1971 51.8887 60.5211 51.3933 60.667 50.835H46.7912ZM38.0395 52.8332V52.7314C36.32 52.2427 34.5903 51.787 32.8861 51.2525C31.8612 50.931 30.7907 50.7788 29.7168 50.8019C27.4984 50.8363 25.2787 50.8121 23.0602 50.8121H22.4009V52.8332H38.0395ZM12.197 48.8075V50.7663H14.1813V46.7902H8.15851V50.7727H10.1822V48.8075H12.197ZM22.3793 16.2251H24.3559V14.265H22.378L22.3793 16.2251ZM22.3907 26.4427V28.4078H24.3444V26.4478L22.3907 26.4427ZM16.2916 38.6395V40.6097H18.2504V38.6395H16.2916Z" fill="#D41D12"/>
<path d="M58.9365 29.4683C58.9365 34.2089 58.9365 38.9495 58.9365 43.6901C58.9365 45.2365 57.791 46.5423 56.3197 46.7268C55.5784 46.832 54.8244 46.6599 54.2022 46.2434C53.5801 45.827 53.1335 45.1956 52.9481 44.4703C52.8776 44.1838 52.8438 43.8896 52.8475 43.5946C52.8424 34.1762 52.8424 24.7579 52.8475 15.3395C52.8475 13.5411 54.1483 12.1996 55.8767 12.1958C57.6383 12.1958 58.9314 13.5322 58.9378 15.3777C58.9386 20.0733 58.9382 24.7702 58.9365 29.4683ZM56.909 29.5396C56.909 24.866 56.909 20.1921 56.909 15.5177C56.909 14.7298 56.5119 14.2373 55.9009 14.2322C55.29 14.2271 54.8827 14.7197 54.8738 15.5049C54.8738 15.5889 54.8738 15.6742 54.8738 15.7595V43.1644C54.8738 43.3337 54.8649 43.5042 54.8802 43.6735C54.9311 44.2692 55.3562 44.7006 55.8844 44.7057C56.4126 44.7108 56.8479 44.2832 56.9026 43.6875C56.9204 43.4991 56.9102 43.3057 56.9102 43.1173L56.909 29.5396Z" fill="#D41D12"/>
</g>
<defs>
<clipPath id="clip0_5_9">
<rect width="63" height="63" fill="white"/>
</clipPath>
</defs>
</svg>
