<svg width="86" height="46" viewBox="0 0 86 46" fill="none" xmlns="http://www.w3.org/2000/svg">
<path fill-rule="evenodd" clip-rule="evenodd" d="M14.8326 0.406038C14.3622 0.811401 14.3612 0.816112 14.3035 3.26782L14.2458 5.72357H11.3139C7.90948 5.72357 7.50568 5.83636 7.23878 6.86104C7.14858 7.20766 6.49015 10.7277 5.77577 14.6835L4.47687 21.8758L2.69187 22.4719C1.71009 22.7998 0.746453 23.1806 0.550602 23.3182C-0.24557 23.8771 -0.186781 24.122 2.6613 32.1089C4.13909 36.2533 5.39835 39.7721 5.45966 39.9285C5.547 40.1515 5.43211 40.2507 4.9272 40.3882C3.96692 40.6496 3.032 41.1974 2.16277 42.008C1.73562 42.4063 1.07433 42.8258 0.693039 42.9402L0 43.1485V44.5742V46L0.713867 45.8864C1.79071 45.715 3.0231 45.0868 4.01613 44.2028C5.72337 42.6832 6.76209 42.7022 8.47554 44.2851C10.2088 45.8862 12.6773 46.3451 14.6309 45.4292C15.1488 45.1864 15.9953 44.604 16.5122 44.1348C18.0523 42.7371 19.2368 42.7371 20.7769 44.1348C21.2937 44.604 22.1403 45.1864 22.6581 45.4292C24.6118 46.3451 27.0803 45.8862 28.8135 44.2851C30.5171 42.7115 31.6364 42.6856 33.2338 44.1831C34.1277 45.0211 35.4847 45.7128 36.5752 45.8864L37.2891 46V44.5742V43.1485L36.6007 42.9418C36.2223 42.8281 35.5986 42.4511 35.215 42.1041C34.1731 41.1614 33.5969 40.8013 32.6152 40.4794C32.1223 40.318 31.758 40.1047 31.7963 40.0005C34.5332 32.5481 37.2951 24.4567 37.2135 24.1304C37.0396 23.4363 36.5485 23.1236 34.6224 22.4803C33.5948 22.1373 32.7527 21.8058 32.7512 21.744C32.7381 21.1912 30.0503 6.87956 29.8961 6.5417C29.5669 5.81986 29.1016 5.72357 25.9433 5.72357H23.0117V3.61393C23.0117 1.35295 22.812 0.511756 22.1971 0.181809C21.9874 0.0693579 20.6072 0 18.581 0C15.3594 0 15.2959 0.00690304 14.8326 0.406038ZM19.9883 4.29268V5.72357H18.5605H17.1328V4.29268V2.86179H18.5605H19.9883V4.29268ZM28.5718 14.6456C29.2098 18.1722 29.5963 20.7059 29.4963 20.7059C29.4018 20.7059 26.9212 19.9062 23.9838 18.929L18.643 17.1522L13.0937 18.9999C8.78729 20.4338 7.56195 20.7846 7.62259 20.5663C7.66559 20.4116 8.17353 17.6527 8.75151 14.4352L9.80232 8.58536H18.6388H27.4753L28.5718 14.6456ZM12.9336 12.878V14.3089H18.6445H24.3555V12.878V11.4471H18.6445H12.9336V12.878ZM40.5873 13.4059L40.1445 13.8499V27.3018V40.7537L40.5569 41.1668C40.9662 41.577 40.9923 41.5801 44.2213 41.5801H47.4733L47.857 42.5079C48.3486 43.6964 49.4688 44.8482 50.6896 45.4202C51.8785 45.9774 53.6771 46.0362 55.0467 45.5628C56.261 45.1431 57.4784 44.0003 58.1352 42.6633L58.6673 41.5801H63.8202H68.9733L69.357 42.5079C69.8486 43.6964 70.9688 44.8482 72.1896 45.4202C73.3785 45.9774 75.1771 46.0362 76.5467 45.5628C77.761 45.1431 78.9784 44.0003 79.6352 42.6633L80.1673 41.5801H82.5659C83.8853 41.5801 85.0871 41.5329 85.2366 41.4755C85.9469 41.2023 86 40.7129 86 34.4328V28.4472L83.6516 23.7426C82.2798 20.9941 81.1669 18.9645 80.9752 18.8619C80.7706 18.7521 78.9719 18.6858 76.1973 18.6858H71.7475L71.6931 16.258C71.6415 13.9573 71.6173 13.8073 71.2315 13.3962L70.8242 12.9622H55.9272H41.0302L40.5873 13.4059ZM68.8672 27.2711V38.7183H63.6783H58.4896L58.3807 38.2835C58.0653 37.0241 56.4536 35.4042 54.9505 34.8355C53.6978 34.3618 51.8691 34.4424 50.6426 35.0256C49.5466 35.5467 48.3523 36.7541 47.8523 37.8463L47.4532 38.7183H45.2266H43V27.2711V15.824H55.9336H68.8672V27.2711ZM17.1328 30.5388V40.3717L16.3971 40.7286C15.9925 40.9249 15.2353 41.4594 14.7142 41.9162C13.0399 43.3847 11.8405 43.417 10.281 42.0354C9.84146 41.646 9.32361 41.2139 9.13011 41.075C8.87631 40.8929 8.01564 38.6738 6.04385 33.1178C4.54003 28.8803 3.34879 25.3739 3.39666 25.326C3.48266 25.2398 16.7629 20.7446 17.0068 20.719C17.076 20.7118 17.1328 25.1307 17.1328 30.5388ZM27.0996 22.9973C32.7574 24.8874 33.9458 25.3372 33.884 25.5645C33.8428 25.7162 32.6239 29.1734 31.1752 33.2472L28.5411 40.6542L27.5821 41.5474C25.568 43.4234 24.4306 43.5241 22.6551 41.9829C22.0661 41.4717 21.2249 40.8882 20.7861 40.6863L19.9883 40.3195V30.5127C19.9883 25.1189 20.0449 20.7059 20.1143 20.7059C20.1835 20.7059 23.327 21.7371 27.0996 22.9973ZM74.5781 25.4275V29.3072L75.0226 29.7202L75.467 30.1329H79.3058H83.1445V34.4256V38.7183H81.567C80.0109 38.7183 79.9881 38.7124 79.8807 38.2835C79.568 37.0349 77.9526 35.402 76.4863 34.852C75.072 34.3217 73.6535 34.3987 72.0166 35.0942C71.7395 35.2121 71.7227 34.8289 71.7227 28.3834V21.5476H73.1504H74.5781V25.4275ZM80.7533 24.3265C81.5142 25.8549 82.1367 27.1427 82.1367 27.1883C82.1367 27.2339 81.0785 27.2711 79.7852 27.2711H77.4336V24.4093V21.5476H78.4018H79.3699L80.7533 24.3265ZM54.136 37.599C54.4346 37.7241 54.9184 38.0996 55.211 38.4336C57.2061 40.7109 54.4123 44.1538 51.7344 42.7177C50.6659 42.1447 50.1911 41.2779 50.2672 40.0394C50.391 38.025 52.2912 36.8265 54.136 37.599ZM75.636 37.599C75.9346 37.7241 76.4184 38.0996 76.711 38.4336C78.7061 40.7109 75.9123 44.1538 73.2344 42.7177C72.1659 42.1447 71.6911 41.2779 71.7672 40.0394C71.891 38.025 73.7912 36.8265 75.636 37.599Z" fill="#D41D12"/>
</svg>
