<svg width="65" height="65" viewBox="0 0 65 65" fill="none" xmlns="http://www.w3.org/2000/svg">
<g clip-path="url(#clip0_5_13)">
<path d="M65 42.8921C62.6118 45.2849 60.2414 47.6954 57.8291 50.0628C56.8651 51.01 55.8122 51.8681 54.7949 52.7607C54.2061 53.2692 53.6364 53.2946 53.2371 52.8293C52.8378 52.364 52.97 51.8351 53.5423 51.2935C56.5841 48.4167 59.6204 45.5349 62.6512 42.648C62.9742 42.3429 63.0416 42.0263 63.0327 41.5877C62.931 36.853 62.8267 32.117 62.7962 27.3811C62.7809 25.0786 62.9234 22.7736 62.9857 20.4698C62.9857 20.2638 62.9857 20.0566 62.9857 19.8557C61.4533 19.7006 59.8586 20.5563 59.3347 22.073C58.8655 23.4334 58.5094 24.8866 58.4293 26.3157C58.2335 29.8603 58.2118 33.4151 58.1508 36.9661C58.1406 37.5433 57.9766 37.9693 57.5429 38.3469C56.7291 39.0512 55.9534 39.795 55.0301 40.6265C55.2894 40.8041 55.537 40.9982 55.7715 41.2075C56.4836 41.9347 56.476 42.4026 55.7168 43.0625C53.7669 44.7577 51.8141 46.444 49.8583 48.1213C49.1995 48.6858 48.5243 49.23 47.8554 49.7805C47.156 50.3552 46.6053 50.3959 46.1933 49.9077C45.7813 49.4194 45.9199 48.8905 46.6117 48.3032C48.9193 46.3486 51.2245 44.3915 53.527 42.4319C53.6542 42.3238 53.7724 42.203 53.8933 42.0899C52.3736 40.3976 50.7052 39.9704 48.7875 41.1033C47.0184 42.1732 45.3328 43.3755 43.7454 44.7C41.3394 46.6656 39.0326 48.7558 36.7016 50.8129C36.4782 51.0176 36.333 51.2935 36.2908 51.5935C35.9399 55.6048 35.9844 59.6186 36.2171 63.6349C36.2387 64.0087 36.1026 64.5096 35.8508 64.7588C35.29 65.3119 34.4139 64.8554 34.3248 63.9871C34.234 63.231 34.1882 62.4702 34.1875 61.7087C34.246 58.0539 34.3253 54.3991 34.4253 50.7442C34.4421 50.4331 34.5751 50.1395 34.7979 49.9216C38.4336 46.8207 42.0629 43.7134 45.7508 40.6748C46.9398 39.6958 48.317 38.9533 49.871 38.6673C50.4025 38.5694 50.9544 38.5744 51.5381 38.5299C51.4796 37.4493 51.411 36.38 51.3677 35.3095C51.2469 32.6243 51.1604 29.9353 51.8192 27.2997C52.025 26.4619 52.3285 25.6512 52.7233 24.8841C53.5906 23.2186 55.0276 22.2968 56.869 21.9662C56.9802 21.9423 57.0852 21.8951 57.177 21.8278C57.2688 21.7606 57.3454 21.6747 57.4018 21.5759C58.7142 18.4203 61.2842 17.8202 64.0297 17.8228C64.3553 17.8228 64.6808 18.2042 65.0064 18.4038V20.3109C64.9517 20.512 64.9147 20.7174 64.8957 20.925C64.8538 26.5026 64.8067 32.0802 64.794 37.6578C64.794 38.7702 64.9313 39.8827 65.0064 40.9952L65 42.8921ZM56.7405 23.989C55.4956 24.2903 54.6321 25.0265 54.2481 26.125C53.8208 27.3468 53.4393 28.6347 53.3579 29.9137C53.2167 32.0586 53.3057 34.2187 53.3388 36.3724C53.3528 37.3298 53.466 38.2795 53.5397 39.3742C54.3727 38.6177 55.0759 37.9515 55.8097 37.3209C55.9541 37.2026 56.0684 37.0517 56.1432 36.8806C56.2179 36.7095 56.2509 36.5231 56.2395 36.3368C56.2598 32.2416 56.1047 28.1388 56.7405 23.989Z" fill="#D41D12"/>
<path d="M34.28 0C35.1702 0.17291 36.0603 0.312763 36.934 0.522543C39.5947 1.15406 42.0766 2.38323 44.1914 4.11677C44.7547 4.57575 44.8425 5.14406 44.4521 5.59667C44.0617 6.04929 43.5619 6.05819 42.9935 5.60812C41.2916 4.24436 39.3425 3.22169 37.2531 2.59619C27.6826 -0.270807 17.639 6.12176 16.2261 15.984C14.9723 24.7324 20.6325 32.8236 29.2645 34.62C38.4816 36.5373 47.6109 30.1244 48.908 20.828C49.5069 16.5383 48.5773 12.6148 46.1726 9.01799C45.9529 8.67458 45.8577 8.26617 45.903 7.86103C45.9386 7.62709 46.3748 7.28254 46.6202 7.29144C46.81 7.30486 46.9951 7.35583 47.1649 7.44139C47.3348 7.52694 47.4859 7.64538 47.6096 7.78983C49.0071 9.68032 49.997 11.8402 50.5166 14.1328C52.8056 24.0891 46.9115 33.7669 37.0064 36.3224C26.9336 38.9212 16.4054 32.2451 14.4712 22.0307C12.5421 11.8481 19.0492 2.23511 29.1819 0.289878C29.7376 0.186895 30.2959 0.0978973 30.8528 0H34.28Z" fill="#D41D12"/>
<path d="M9.9195 40.5803C9.05222 39.7883 8.28668 39.0547 7.4868 38.3719C7.03282 37.9829 6.85097 37.5455 6.85097 36.9429C6.79247 33.4135 6.75559 29.8816 6.5801 26.3573C6.49291 25.0111 6.23437 23.6815 5.81074 22.4007C5.26393 20.6741 3.84475 19.7892 2.00337 19.8223C2.07077 20.9767 2.13054 22.1312 2.20684 23.283C2.50289 27.3114 2.54154 31.3546 2.32256 35.388C2.19539 37.5608 2.06823 39.7349 1.97539 41.909C1.96649 42.1505 2.17759 42.4455 2.3569 42.6425C7.249 47.793 12.515 52.52 18.3125 56.6419C18.8746 57.0411 19.0844 57.4797 19.0653 58.1752C19.0145 60.0314 19.045 61.8914 19.0653 63.749C19.0653 64.5118 18.7843 64.9364 18.1866 64.9682C17.5889 65 17.1782 64.6059 17.1693 63.8672C17.1337 62.0936 17.1464 60.32 17.0968 58.5477C17.0781 58.4129 17.0326 58.2833 16.9629 58.1665C16.8932 58.0497 16.8008 57.948 16.6911 57.8675C12.6583 54.9245 8.83182 51.7088 5.23849 48.243C3.64001 46.7034 2.12036 45.0811 0.546041 43.516C0.350969 43.3382 0.200079 43.1174 0.105372 42.8711C0.0106651 42.6248 -0.0252458 42.3597 0.000495783 42.0971C0.168356 39.4132 0.394713 36.7433 0.434134 34.0568C0.483729 30.7677 0.397256 27.4621 0.315869 24.1679C0.273904 22.4579 0.100957 20.7517 0.0144841 19.0417C-0.0312959 18.1313 0.342574 17.7639 1.26453 17.7957C2.49296 17.8377 3.70741 17.9839 4.83919 18.5204C6.14773 19.1408 6.99467 20.1834 7.56183 21.4866C7.64576 21.6798 7.8594 21.9201 8.04379 21.9506C10.6939 22.3765 12.2085 24.0217 12.955 26.4857C13.751 29.1149 13.765 31.8179 13.6429 34.5285C13.5844 35.8533 13.5158 37.1794 13.4395 38.5804C15.7921 38.3974 17.6194 39.5225 19.4023 40.7622C20.1933 41.3127 20.393 41.8365 20.0267 42.3628C19.6605 42.8892 19.0984 42.8803 18.31 42.3527C17.6702 41.9044 17.0053 41.493 16.3185 41.1207C14.2635 40.0603 12.7579 40.3426 11.0856 42.0958C12.1487 43.0202 13.2004 43.9521 14.2724 44.8611C15.6598 46.0359 17.0701 47.1789 18.4498 48.3689C18.7131 48.5965 18.9776 48.9728 18.9941 49.2932C19.0081 49.5691 18.7283 50.0077 18.4715 50.1133C18.3003 50.1674 18.1194 50.1834 17.9415 50.1601C17.7635 50.1368 17.5928 50.0748 17.4414 49.9785C16.3452 49.1508 15.2948 48.2634 14.2495 47.3709C12.6243 45.9838 11.0144 44.5801 9.40702 43.1753C8.48887 42.373 8.4787 41.9649 9.33072 41.0953C9.49222 40.93 9.68043 40.7901 9.9195 40.5803ZM8.30957 24.0026C8.4202 25.2511 8.58552 26.4246 8.61858 27.602C8.70251 30.5134 8.72413 33.4377 8.775 36.3479C8.775 36.5716 8.76737 36.873 8.90217 37.0014C9.69314 37.7795 10.5223 38.5169 11.4353 39.3573C11.6617 36.0453 11.944 32.8808 11.6261 29.7201C11.4989 28.5008 11.1568 27.279 10.7359 26.1208C10.3442 25.0299 9.50494 24.2836 8.30957 24.0026Z" fill="#D41D12"/>
<path d="M45.8008 18.4063C45.7882 21.4485 44.7268 24.3934 42.7955 26.7443C40.8641 29.0952 38.181 30.7083 35.1986 31.3117C32.2161 31.9151 29.1168 31.4718 26.4232 30.0566C23.7296 28.6413 21.6065 26.3407 20.4119 23.5427C20.0826 22.7672 20.2072 22.2205 20.768 21.9751C21.3288 21.7297 21.8336 22.0031 22.1668 22.7684C23.6928 26.2241 26.2794 28.4338 29.9354 29.367C36.2531 30.9804 42.8251 26.5267 43.6911 20.0642C44.5456 13.7199 40.2995 8.13724 33.9539 7.24726C28.0356 6.42467 22.2253 10.8148 21.4343 16.7102C21.3682 17.2112 21.3377 17.7185 21.3072 18.2232C21.2665 18.939 20.8888 19.3942 20.3178 19.3903C19.7468 19.3865 19.3666 18.9161 19.3692 18.2054C19.4009 12.0086 24.1621 6.43357 30.2661 5.45841C37.5044 4.30271 43.9924 8.73606 45.4994 15.8927C45.6723 16.7153 45.7041 17.5672 45.8008 18.4063Z" fill="#D41D12"/>
<path d="M29.0221 58.6255C28.9394 56.6281 28.8517 54.1374 28.7156 51.6493C28.6736 51.3069 28.5098 50.991 28.254 50.7593C26.363 49.0697 24.439 47.4156 22.5404 45.7348C22.3141 45.5339 22.0254 45.2402 22.0254 44.9898C22.0359 44.6277 22.1885 44.2843 22.4501 44.0337C22.8571 43.6917 23.3199 43.8659 23.7065 44.2053C25.0579 45.3877 26.4114 46.5684 27.767 47.7474C28.53 48.4149 29.3209 49.0557 30.042 49.7677C30.3328 50.0558 30.5232 50.4297 30.585 50.8344C31.0084 55.1571 30.9487 59.4798 30.7007 63.8127C30.6562 64.5908 30.262 65.004 29.6414 64.957C29.0208 64.91 28.7156 64.4345 28.7614 63.6691C28.8504 62.1612 28.9191 60.6457 29.0221 58.6255Z" fill="#D41D12"/>
<path d="M46.0952 61.0372C46.0418 59.9107 46.0087 58.919 45.9413 57.9286C45.9082 57.4315 46.0888 57.0907 46.4881 56.8034C47.5678 56.0253 48.6283 55.2218 49.6991 54.4335C50.2942 53.9962 50.8436 54.0254 51.2009 54.5009C51.5583 54.9764 51.4552 55.5002 50.8512 55.9643C49.9801 56.633 49.0823 57.2675 48.2265 57.954C48.0431 58.1276 47.9341 58.3655 47.9226 58.6177C47.8793 60.4104 47.8857 62.203 47.8437 63.9957C47.8285 64.6212 47.3846 64.9975 46.8264 64.9683C46.2681 64.9391 45.921 64.5259 45.9477 63.8774C45.9871 62.8858 46.0494 61.8953 46.0952 61.0372Z" fill="#D41D12"/>
<path d="M38.0974 16.3324C38.1037 16.8581 38.0114 17.3803 37.8253 17.872C37.6492 18.3275 37.3738 18.7379 37.0191 19.0735C36.6425 19.4236 36.1955 19.6893 35.708 19.8529C35.137 20.0427 34.5381 20.1346 33.9366 20.1249H31.5751V24.0663C31.5751 24.4092 31.4388 24.7381 31.1963 24.9805C30.9537 25.223 30.6248 25.3593 30.2818 25.3593C29.9388 25.3593 29.6098 25.223 29.3673 24.9805C29.1248 24.7381 28.9885 24.4092 28.9885 24.0663V12.8004C28.9867 12.6313 29.019 12.4635 29.0834 12.3071C29.1479 12.1507 29.2432 12.0089 29.3636 11.8901C29.4818 11.7663 29.6245 11.6685 29.7826 11.6028C29.9406 11.5372 30.1106 11.5051 30.2818 11.5087H33.8259C34.6381 11.5087 35.3163 11.6244 35.8606 11.8558C36.3566 12.0547 36.8038 12.3582 37.1717 12.7458C37.4981 13.1015 37.7414 13.5253 37.8838 13.9866C38.0256 14.4359 38.0985 14.904 38.1 15.375L38.0974 16.3324ZM35.53 15.4424C35.5306 15.2576 35.5019 15.0739 35.4448 14.8982C35.3858 14.7194 35.2826 14.5585 35.1446 14.4304C34.9745 14.2769 34.7732 14.162 34.5546 14.0934C34.2455 13.9986 33.9227 13.9556 33.5996 13.9663H31.5751V17.7703H33.8425C34.4791 17.7703 34.9196 17.6207 35.1637 17.3215C35.4028 17.0368 35.5327 16.6762 35.53 16.3044V15.4424Z" fill="#D41D12"/>
<path d="M31.4399 17.8203H27.9873C27.3644 17.8203 26.8594 18.3252 26.8594 18.948C26.8594 19.5709 27.3644 20.0758 27.9873 20.0758H31.4399C32.0629 20.0758 32.5679 19.5709 32.5679 18.948C32.5679 18.3252 32.0629 17.8203 31.4399 17.8203Z" fill="#D41D12"/>
<path d="M33.6196 20.8213H27.9873C27.3644 20.8213 26.8594 21.3262 26.8594 21.949C26.8594 22.5718 27.3644 23.0767 27.9873 23.0767H33.6196C34.2425 23.0767 34.7475 22.5718 34.7475 21.949C34.7475 21.3262 34.2425 20.8213 33.6196 20.8213Z" fill="#D41D12"/>
</g>
<defs>
<clipPath id="clip0_5_13">
<rect width="65" height="65" fill="white"/>
</clipPath>
</defs>
</svg>
