<svg width="71" height="47" viewBox="0 0 71 47" fill="none" xmlns="http://www.w3.org/2000/svg">
<path fill-rule="evenodd" clip-rule="evenodd" d="M13.062 0.291884C12.8242 0.556397 12.7929 0.86609 12.7524 3.36924L12.7073 6.15242H10.4226C7.85534 6.15242 7.33362 6.27677 6.97586 6.97379C6.79344 7.32923 6.75845 8.038 6.75845 11.3744V15.3515L4.9373 15.4085L3.11614 15.4657L2.71604 15.9169C2.31913 16.3645 2.31593 16.3824 2.31593 18.1651C2.31593 19.91 2.32634 19.9728 2.67369 20.3228C2.87041 20.521 3.16723 20.7027 3.33313 20.7266C3.6312 20.7693 3.63522 20.8072 3.67215 23.8822L3.70949 26.9945L2.56152 26.9948C1.18656 26.9949 0.559888 27.2537 0.190604 27.9736C-0.141058 28.6202 -0.0542897 29.378 0.564609 31.2415C1.41355 33.7977 2.93594 36.526 4.70934 38.6695C5.84371 40.0405 5.84801 39.9774 4.41599 42.9213C3.52499 44.753 3.45044 45.131 3.82556 45.9117C4.40058 47.1085 1.44784 46.9973 32.6436 46.9973C62.9717 46.9973 60.83 47.057 61.4239 46.1951C61.9408 45.4452 70.9292 25.9734 70.9895 25.4732C71.0682 24.8213 70.6991 24.0928 70.0785 23.6751C69.6102 23.36 69.5704 23.3576 64.6944 23.3576C59.3461 23.3576 59.1882 23.3778 58.3505 24.1693C58.1309 24.3768 57.8355 24.7984 57.6941 25.1061L57.437 25.6656L57.434 22.395C57.4294 17.5441 57.6837 17.7624 52.038 17.7624H48.1448L48.1025 13.6644C48.0546 9.04933 48.0342 8.95197 47.0547 8.67795C46.4873 8.51918 29.2014 8.46295 28.435 8.61738C28.1975 8.66522 27.8461 8.86273 27.6541 9.05618L27.3051 9.40784V18.2011V26.9945H25.6365H23.9679L24.0053 23.8822C24.0423 20.7884 24.0444 20.7696 24.3503 20.7258C24.5195 20.7016 24.8162 20.4922 25.0097 20.2604C25.3448 19.8591 25.3615 19.757 25.3615 18.1036C25.3615 16.3887 25.3568 16.3627 24.9614 15.9169L24.5613 15.4657L22.7401 15.4085L20.919 15.3515V11.4375C20.919 5.98247 21.0368 6.15242 17.2538 6.15242H14.9493V3.65543C14.9493 1.06934 14.8391 0.37763 14.3886 0.13466C13.9616 -0.0955823 13.3446 -0.0224252 13.062 0.291884ZM18.8365 11.8175V15.3845H13.8387H8.84088V11.8175V8.25062H13.8387H18.8365V11.8175ZM36.6066 14.1955V17.7624H32.9971H29.3875V14.1955V10.6286H32.9971H36.6066V14.1955ZM46.0146 14.2305L46.0517 17.7624H42.3704H38.6891V14.1931V10.624L42.3333 10.6612L45.9776 10.6985L46.0146 14.2305ZM23.2791 18.1821V18.7416H17.1706C11.2472 18.7416 11.0537 18.7501 10.7845 19.0213C10.2982 19.5113 10.4398 20.3057 11.0721 20.6351C11.3963 20.8041 12.3742 20.8398 16.6778 20.8398H21.8908V23.9171V26.9945H13.8387H5.78665V23.9353V20.8761L6.41707 20.8045C7.21381 20.714 7.59142 20.3811 7.59142 19.769C7.59142 18.9355 7.23783 18.7416 5.71724 18.7416H4.39836V18.1821V17.6225H13.8387H23.2791V18.1821ZM36.6066 23.4276V26.9945H32.9971H29.3875V23.4276V19.8606H32.9971H36.6066V23.4276ZM46.0146 23.4625L46.0517 26.9945H42.3704H38.6891V23.4252V19.856L42.3333 19.8932L45.9776 19.9306L46.0146 23.4625ZM55.3485 23.4276V26.9945H51.7389H48.1294V23.4276V19.8606H51.7389H55.3485V23.4276ZM68.8149 25.5078C68.8149 25.546 64.6086 34.5968 62.8096 38.4296L62.6618 38.7444H57.3135C52.0133 38.7444 51.9622 38.7472 51.6437 39.0485C51.0812 39.581 51.2936 40.3991 52.0717 40.6972C52.3063 40.787 54.1959 40.8426 57.0235 40.8426C59.5382 40.8426 61.5958 40.8963 61.5958 40.962C61.5958 41.0276 61.1907 41.9403 60.6956 42.9903L59.7953 44.8991H32.7962H5.79706L6.56937 43.2555C6.99418 42.3516 7.40373 41.4396 7.47953 41.2291L7.61725 40.8462L27.7307 40.8094L47.8441 40.7726L48.1487 40.4657C48.5227 40.0888 48.5471 39.4119 48.2005 39.0259C47.9492 38.7462 47.8147 38.7444 27.6466 38.7444H7.3457L7.0965 38.3597C6.95948 38.1482 6.53521 37.5974 6.15385 37.1358C5.17136 35.9466 4.19317 34.4025 3.49528 32.9394C2.91234 31.7172 2.1771 29.6798 2.1771 29.2865C2.1771 29.1219 6.3328 29.0927 29.7074 29.0927H57.2375L57.9438 28.7381C58.7912 28.3127 59.3427 27.547 59.4687 26.6214C59.6325 25.4172 59.468 25.4558 64.4418 25.4558C66.847 25.4558 68.8149 25.4792 68.8149 25.5078Z" fill="#D41D12"/>
</svg>
