<svg width="60" height="58" viewBox="0 0 60 58" fill="none" xmlns="http://www.w3.org/2000/svg">
<path fill-rule="evenodd" clip-rule="evenodd" d="M25.5721 0.231539C25.1266 0.501279 24.724 1.10272 24.7234 1.49953C24.7226 1.97134 26.1252 6.91181 26.3475 7.22021C26.6969 7.70507 27.2666 7.91867 28.2117 7.91879L29.0619 7.91902V8.60013V9.28123L28.5841 9.49519C27.8834 9.80907 27.1061 10.724 26.8779 11.5036C26.6628 12.2386 26.7235 13.1928 27.0219 13.7658C27.1228 13.9599 27.1614 14.1604 27.1076 14.2117C27.0538 14.2628 22.5242 17.2311 17.0419 20.8079L7.07415 27.311L4.00326 27.3692L0.932486 27.4274L0.581738 27.7614C0.388833 27.9451 0.173647 28.2334 0.10352 28.4019C0.0134588 28.6184 -0.0148027 32.8577 0.00700913 42.8219C0.0379678 56.889 0.038906 56.9362 0.280947 57.2639C0.414515 57.4448 0.704752 57.6844 0.925919 57.7963C1.30552 57.9886 2.9346 58 30 58C57.0654 58 58.6945 57.9886 59.0741 57.7963C59.2952 57.6844 59.5855 57.4448 59.719 57.2639C59.9611 56.9362 59.962 56.889 59.993 42.8219C60.0148 32.8577 59.9865 28.6184 59.8965 28.4019C59.8263 28.2334 59.6112 27.9451 59.4183 27.7614L59.0675 27.4274L55.9967 27.3692L52.9258 27.311L42.8637 20.7437C34.8613 15.5208 32.8182 14.1381 32.8824 13.9885C33.293 13.0348 33.3849 12.4013 33.1707 12.0037C33.1086 11.8886 32.903 11.7307 32.7137 11.6528C32.4297 11.5359 32.3072 11.5432 32.014 11.6938C31.6478 11.8817 31.5975 11.9774 31.4708 12.7233C31.43 12.9635 31.3584 13.1601 31.3119 13.1601C31.2652 13.1601 31.033 13.0291 30.7957 12.8689C30.2419 12.4952 29.7611 12.5003 29.1742 12.8859C28.9163 13.0555 28.6738 13.1629 28.6352 13.1247C28.5968 13.0864 28.5422 12.8298 28.514 12.5543C28.4416 11.8488 28.7677 11.3774 29.607 10.9747C30.6151 10.4909 30.929 9.91319 30.9353 8.53048L30.9381 7.91902L31.7883 7.91879C32.7334 7.91867 33.3031 7.70507 33.6525 7.22021C33.8748 6.91181 35.2774 1.97134 35.2766 1.49953C35.276 1.10272 34.8734 0.501279 34.4279 0.231539C34.066 0.0123456 33.8306 0 30 0C26.1694 0 25.934 0.0123456 25.5721 0.231539ZM33.3422 2.09503C33.2998 2.28685 33.0398 3.26961 32.7644 4.27881L32.2636 6.11377H30H27.7364L27.2356 4.27881C26.9602 3.26961 26.7002 2.28685 26.6577 2.09503L26.5806 1.74621H30H33.4194L33.3422 2.09503ZM29.3883 15.6134C29.8757 15.7218 30.9937 15.613 31.2955 15.4278C31.3555 15.391 35.5306 18.0497 40.5734 21.3359L49.7424 27.311L39.8711 27.3408C34.442 27.3571 25.5586 27.3571 20.1303 27.3408L10.2606 27.311L19.3974 21.3464C24.4688 18.0357 28.6083 15.4075 28.7007 15.4395C28.7923 15.4713 29.1017 15.5496 29.3883 15.6134ZM58.2615 42.6848V56.2533H30H1.73847V42.6848V29.1162H30H58.2615V42.6848ZM4.81593 31.821C4.665 31.8933 4.49895 32.1274 4.42918 32.3664C4.34744 32.6466 4.31859 36.1396 4.34205 42.9346C4.3757 52.7259 4.38485 53.093 4.60039 53.3294C4.89192 53.6493 5.5268 53.6555 5.84284 53.3416C6.07386 53.1122 6.07738 52.9534 6.07738 42.635V32.1613L5.76837 31.92C5.42724 31.6534 5.21264 31.6311 4.81593 31.821ZM11.525 31.9645C11.2574 32.2301 11.2372 32.3331 11.2372 33.4256C11.2372 34.518 11.2574 34.621 11.525 34.8867C11.6834 35.0439 11.9496 35.1726 12.1167 35.1726C12.2838 35.1726 12.55 35.0439 12.7083 34.8867C12.9759 34.621 12.9962 34.518 12.9962 33.4256C12.9962 32.3331 12.9759 32.2301 12.7083 31.9645C12.55 31.8072 12.2838 31.6785 12.1167 31.6785C11.9496 31.6785 11.6834 31.8072 11.525 31.9645ZM18.4915 31.9011L18.2146 32.1238L18.1834 42.54C18.1523 52.9496 18.1524 52.9563 18.3972 53.2653C18.7036 53.6522 19.3303 53.6894 19.6804 53.3416C19.9115 53.1122 19.915 52.9534 19.915 42.6795V32.2503L19.6271 31.9645C19.2818 31.6215 18.8679 31.5984 18.4915 31.9011ZM25.3626 31.9645L25.0748 32.2503V42.6056C25.0748 52.9053 25.076 52.9624 25.3178 53.2677C25.6318 53.6641 26.248 53.6892 26.5947 53.3196C26.8315 53.0671 26.8338 52.9701 26.8338 42.6575V32.2503L26.5459 31.9645C26.3876 31.8072 26.1214 31.6785 25.9543 31.6785C25.7872 31.6785 25.521 31.8072 25.3626 31.9645ZM32.2814 31.9645L31.9936 32.2503V42.6575C31.9936 52.9701 31.9958 53.0671 32.2327 53.3196C32.5793 53.6892 33.1955 53.6641 33.5095 53.2677C33.7513 52.9624 33.7526 52.9053 33.7526 42.6056V32.2503L33.4647 31.9645C33.3064 31.8072 33.0402 31.6785 32.8731 31.6785C32.706 31.6785 32.4398 31.8072 32.2814 31.9645ZM39.2002 31.9645L38.9123 32.2503V42.6795C38.9123 52.9534 38.9159 53.1122 39.1469 53.3416C39.4961 53.6885 40.1237 53.6522 40.4283 53.2677C40.67 52.9625 40.6714 52.9039 40.6714 42.7215C40.6714 33.9628 40.6465 32.4346 40.4998 32.1528C40.2104 31.5969 39.6518 31.5159 39.2002 31.9645ZM46.1401 31.92L45.8311 32.1613V39.8313V47.5013L46.1401 47.7426C46.6698 48.1566 47.2235 47.9951 47.4683 47.3555C47.637 46.9149 47.6358 32.7752 47.467 32.2943C47.3513 31.9643 46.9505 31.6785 46.6037 31.6785C46.5187 31.6785 46.3101 31.7872 46.1401 31.92ZM53.0589 31.92L52.7499 32.1613V42.635C52.7499 52.9534 52.7535 53.1122 52.9845 53.3416C53.3005 53.6555 53.9354 53.6493 54.2269 53.3294C54.4425 53.093 54.4516 52.7259 54.4853 42.9346C54.5087 36.1563 54.4799 32.6463 54.3985 32.3674C54.3212 32.1027 54.1669 31.9002 53.9768 31.8142C53.5603 31.6257 53.4139 31.6425 53.0589 31.92ZM11.525 37.7879L11.2372 38.0737V45.5173C11.2372 52.8713 11.2401 52.9645 11.4803 53.2677C11.7942 53.6641 12.4104 53.6892 12.7571 53.3196C12.9925 53.0686 12.9962 52.9515 12.9962 45.5692V38.0737L12.7083 37.7879C12.55 37.6306 12.2838 37.5019 12.1167 37.5019C11.9496 37.5019 11.6834 37.6306 11.525 37.7879ZM46.0861 50.583C45.8606 50.8215 45.8311 50.9827 45.8311 51.9806C45.8311 52.9534 45.8634 53.1407 46.0657 53.3416C46.379 53.6528 47.0166 53.6493 47.303 53.335C47.5451 53.0693 47.674 51.9003 47.5396 51.1889C47.3865 50.3782 46.5928 50.0473 46.0861 50.583Z" fill="#D41D12"/>
</svg>
