<svg width="71" height="71" viewBox="0 0 71 71" fill="none" xmlns="http://www.w3.org/2000/svg">
<path fill-rule="evenodd" clip-rule="evenodd" d="M26.3751 4.9938C21.5593 7.74044 17.4908 10.1146 17.3338 10.2697C17.0538 10.5466 17.0472 10.7301 16.9783 20.2251L16.9081 29.8984L8.6996 34.5795C4.18493 37.1543 0.380678 39.3931 0.245553 39.5549C0.0165573 39.8293 0 40.5444 0 50.1545C0 59.7679 0.0165573 60.4791 0.245553 60.7455C0.380538 60.9025 4.45546 63.2897 9.30072 66.0503C17.0658 70.4745 18.1638 71.0608 18.5616 70.9954C18.8098 70.9545 22.6935 68.8174 27.1919 66.2461C32.0315 63.4799 35.469 61.5965 35.6109 61.6334C35.7429 61.6678 39.4815 63.7761 43.919 66.3188C50.6989 70.2035 52.0768 70.9435 52.5484 70.9535C53.0406 70.9639 54.1806 70.3539 61.8093 65.9966C66.5941 63.2637 70.6195 60.9 70.7544 60.7438C70.9836 60.4789 71 59.7685 71 50.1545C71 40.5444 70.9834 39.8293 70.7544 39.5549C70.6193 39.3931 66.8151 37.1543 62.3004 34.5795L54.0919 29.8984L54.0217 20.2251C53.9528 10.7301 53.9462 10.5466 53.6662 10.2697C53.145 9.75453 35.8902 0 35.5 0C35.2706 0 31.8198 1.88853 26.3751 4.9938ZM38.3354 4.6131C39.8584 5.47162 41.1062 6.21402 41.1084 6.263C41.1138 6.37482 27.2079 14.3252 26.9956 14.3317C26.7079 14.3406 21.3154 11.1949 21.4278 11.0838C21.5679 10.9453 35.3886 3.05228 35.491 3.05228C35.5326 3.05228 36.8125 3.75472 38.3354 4.6131ZM46.6337 9.35856C48.0346 10.1563 49.2964 10.8927 49.4377 10.9951C49.6683 11.1622 48.9673 11.5964 42.5952 15.2342L35.4959 19.2872L32.7627 17.7253C31.2595 16.8661 30.0235 16.1067 30.016 16.0376C30.0055 15.94 43.8365 7.92413 44.0378 7.91123C44.0645 7.90956 45.2326 8.56081 46.6337 9.35856ZM22.9643 15.3488C24.6498 16.3126 27.5125 17.9471 29.3261 18.9809C31.1397 20.0148 32.9551 21.0499 33.3602 21.2813L34.0968 21.7018V29.789C34.0968 34.2368 34.0494 37.8745 33.9916 37.8725C33.9338 37.8706 30.7292 36.0649 26.8706 33.86L19.8547 29.851L19.8185 21.7238C19.7986 17.2538 19.8089 13.5965 19.8411 13.5965C19.8735 13.5965 21.279 14.3851 22.9643 15.3488ZM51.1815 21.7238L51.1453 29.851L44.1294 33.86C40.2708 36.0649 37.0663 37.8706 37.0084 37.8725C36.9504 37.8745 36.9032 34.2373 36.9032 29.79V21.7039L43.9541 17.6617C47.832 15.4384 51.0528 13.6143 51.1113 13.608C51.1698 13.6016 51.2014 17.2538 51.1815 21.7238ZM21.2759 33.8804C22.7735 34.7352 23.9817 35.4845 23.9611 35.5459C23.9147 35.6835 10.0865 43.6012 9.89229 43.6014C9.81512 43.6014 8.49783 42.8799 6.96502 41.9982C4.54007 40.6033 4.21201 40.3746 4.43932 40.2368C6.22723 39.1535 18.2205 32.3522 18.3621 32.3412C18.4672 32.3331 19.7784 33.0258 21.2759 33.8804ZM55.5268 33.9219C57.0089 34.7613 58.2229 35.4793 58.2245 35.5174C58.2288 35.6254 44.2512 43.5643 44.0569 43.5643C43.846 43.5643 38.4455 40.5048 38.4493 40.3876C38.4545 40.2311 52.407 32.3297 52.6198 32.3627C52.7364 32.3809 54.0445 33.0825 55.5268 33.9219ZM29.8634 38.7778C31.3405 39.6172 32.5343 40.3494 32.5162 40.4052C32.4751 40.5315 18.6449 48.4505 18.4493 48.4598C18.1931 48.4718 12.7677 45.3134 12.8749 45.2146C13.1661 44.9463 26.8927 37.1878 27.0241 37.2173C27.1084 37.2361 28.3861 37.9384 29.8634 38.7778ZM63.8291 38.6611C65.265 39.4746 66.5139 40.2081 66.6046 40.2913C66.7267 40.4033 65.1236 41.3814 60.4444 44.0499C56.9654 46.0339 53.7657 47.8531 53.3338 48.0925L52.5484 48.5277L49.8569 46.9826C48.3765 46.1327 47.1505 45.3749 47.1324 45.2986C47.102 45.1715 60.8057 37.2139 61.093 37.1919C61.162 37.1866 62.3933 37.8478 63.8291 38.6611ZM6.31423 44.8464C8.12782 45.8792 11.2534 47.6608 13.2599 48.8056L16.9081 50.8872L16.9443 59.0187C16.9642 63.491 16.9567 67.1501 16.9275 67.1501C16.8983 67.1501 13.7249 65.3515 9.87545 63.153L2.87648 59.1559L2.84028 51.0044C2.82036 46.521 2.85193 42.879 2.91044 42.9109C2.96895 42.9428 4.50064 43.8138 6.31423 44.8464ZM34.0629 50.9955L34.0267 59.1205L27.0109 63.1322C23.1522 65.3386 19.9476 67.1453 19.8898 67.1471C19.832 67.1487 19.7846 63.511 19.7846 59.0632V50.9764L26.8355 46.9342C30.7134 44.711 33.9342 42.8871 33.9927 42.8813C34.0512 42.8755 34.0828 46.5268 34.0629 50.9955ZM40.0857 44.6215C41.7696 45.5845 44.8521 47.3422 46.9358 48.5275C49.0195 49.7127 50.8349 50.7505 50.9699 50.8335C51.1991 50.9743 51.2154 51.5191 51.2154 59.0673C51.2154 63.5128 51.1681 67.1487 51.1102 67.1471C51.0522 67.1453 47.8478 65.3386 43.9891 63.1322L36.9733 59.1205L36.9371 50.9955C36.9172 46.5268 36.9287 42.8706 36.9625 42.8706C36.9965 42.8706 38.4019 43.6585 40.0857 44.6215ZM68.0785 59.1339C67.9546 59.2564 54.1622 67.1501 54.072 67.1501C54.0432 67.1501 54.0358 63.4908 54.0557 59.0186L54.0919 50.887L61.1077 46.883L68.1235 42.879L68.1597 50.9483C68.1796 55.3865 68.1432 59.0699 68.0785 59.1339ZM65.2849 55.4548C64.8057 55.5463 64.4051 56.1469 64.4051 56.774C64.4051 57.1934 64.5007 57.4154 64.8153 57.7265C65.9542 58.8526 67.6181 57.4991 66.8649 56.0591C66.6903 55.7253 65.9728 55.311 65.6822 55.3761C65.6357 55.3865 65.4569 55.4219 65.2849 55.4548ZM61.5287 57.4237C60.3292 57.9582 56.4573 60.247 56.0914 60.6378C55.5551 61.2107 55.5644 61.8985 56.1157 62.4436C56.8363 63.1562 57.2089 63.0548 60.2502 61.3175C61.7251 60.4751 63.0738 59.6287 63.2475 59.4367C63.6957 58.9411 63.6672 58.2455 63.1774 57.7313C62.6715 57.2005 62.219 57.116 61.5287 57.4237Z" fill="#D41D12"/>
</svg>
