<svg width="560" height="265" viewBox="0 0 560 265" fill="none" xmlns="http://www.w3.org/2000/svg">
<rect width="560" height="265" fill="url(#paint0_linear_14_55)"/>
<path fill-rule="evenodd" clip-rule="evenodd" d="M473.515 102.092L471.077 101.006H466.73L465.43 102.485H466.73V103.601L465.268 103.873L463.602 105.351C457.962 105.381 452.343 104.833 446.904 103.722L443.979 101.67L443.451 99.4973L444.182 97.4454L443.085 96.9927L442.516 98.6222L441.054 95.3633H441.988L441.419 93.9752L443.085 93.0096L442.354 89.2074L440.851 87.9401L440.119 86.4313L441.419 82.6291L443.248 83.1723L443.979 81.9351L446.01 82.2067L447.839 80.7281C446.408 81.0486 444.882 81.0486 443.451 80.7281L443.248 81.9049H441.988C442.39 80.3006 443.325 78.7964 444.71 77.5295L447.107 79.3098L448.773 78.4951L449.667 79.0382L452.226 76.8656L452.592 75.5077H451.495V74.2705H452.226L453.323 73.154V74.8137L454.826 74.7231V73.8782L454.298 72.6712L454.826 71.8564C460.128 70.015 465.726 68.6865 471.483 67.9034L473.718 68.4466C474.981 69.2465 475.883 70.3143 476.305 71.5065C476.726 72.6987 476.645 73.9581 476.074 75.1154L475.14 76.3526C472.858 77.6642 470.409 78.8063 467.827 79.7625V81.6635L472.946 82.8706L474.612 83.987L474.084 84.3793L475.343 85.6165C473.974 88.4635 474.027 91.872 474.078 95.1205C474.118 97.6564 474.156 100.095 473.515 102.092ZM535.674 143.222L534.943 146.903L533.846 147.326V148.412L532.749 148.683V150.162L531.287 150.856V153.572C530.221 154.209 529.442 155.072 529.052 156.046H529.987L529.418 157.012L527.793 157.676V158.37L526.127 158.762V159.185H525.03L524.665 160.693L525.396 161.237L523.568 161.629L523.202 162.444C520.463 164.378 517.086 165.741 513.411 166.397C510.539 167.02 507.762 166.674 504.981 166.328C503.317 166.121 501.652 165.914 499.963 165.914C496.253 166.145 492.537 165.523 489.319 164.133L490.213 163.59V163.047L489.278 162.655L484.159 163.379C486.375 162.285 488.407 160.998 490.213 159.547L490.781 159.698L491.513 159.004L495.576 157.917L495.047 155.745L492.488 156.016L493.016 157.646L490.822 158.611L489.36 158.068C487.785 158.035 486.218 158.25 484.762 158.697C483.306 159.144 481.993 159.814 480.909 160.663L479.203 160.361V161.991C474.519 163.349 469.523 164.015 464.496 163.952C458.615 163.803 452.806 164.947 447.798 167.241L442.11 165.884V165.34L440.079 165.069L438.576 163.922L439.876 162.836L438.779 161.75L437.682 162.293L438.413 159.999H439.51L440.038 161.629C441.071 162.454 442.332 163.102 443.735 163.53L443.37 164.073L444.629 163.379L444.263 161.478H445.198L445.929 160.935L443.898 159.698L444.467 159.275L444.101 158.611L442.638 157.676L443.898 156.71L444.101 155.775L446.295 154.115L445.564 152.757L443.37 153.723L440.973 153.451C442.313 149.528 447.961 146.42 457.833 144.036C458.821 143.807 458.954 144.159 459.093 144.526C459.228 144.884 459.369 145.257 460.311 145.123C460.829 145.049 461.415 144.678 462.021 144.294C462.652 143.894 463.306 143.48 463.927 143.373C464.626 143.251 465.339 143.438 465.965 143.602C466.431 143.724 466.848 143.834 467.177 143.795C468.32 143.641 469.059 143.226 469.78 142.821C470.469 142.434 471.141 142.057 472.134 141.924C474.714 141.853 477.297 141.954 479.853 142.226C481.903 142.344 483.931 142.617 485.906 143.041C487.772 143.559 489.773 143.755 491.757 143.614L490.66 144.278H493.422L494.357 145.756H492.894L494.357 147.265H495.25L494.885 146.179L497.81 147.688L501.873 148.08L502.441 148.653L505.001 146.632L507.561 146.903L508.292 146.239C512.474 145.777 516.438 144.554 519.83 142.679L523.893 138.062C525.536 136.666 527.829 135.782 530.312 135.587L534.903 136.553L535.634 137.911L534.699 138.333V139.148H535.228V140.385L532.668 141.351L534.781 143.493L535.674 143.222ZM532.018 103.45H530.921L531.49 104.446H530.556L530.759 105.382L530.19 106.196H529.255V105.382L530.19 104.567L529.621 104.144V103.33H530.718L529.987 101.821L528.524 102.485L527.224 101.127L528.524 100.04V99.4973L527.427 99.2257L529.621 97.053L529.987 95.5443L531.287 94.6088H532.018C532.283 91.616 531.829 88.6119 530.677 85.7372L528.849 84.6509L529.58 84.2586L527.752 83.293L526.818 82.2066L523.893 81.1203L524.868 80.4263L522.105 78.6459L522.471 76.4733L520.277 74.8438L519.546 75.387V76.3526H518.286L516.783 75.2663L513.126 74.3006V73.0634L515.117 72.5203C510.242 69.7039 502.482 68.2957 491.838 68.2957C489.254 68.2817 486.672 68.423 484.119 68.7181L482.859 69.5329C482.313 71.788 482.313 74.0975 482.859 76.3526C485.183 77.3327 487.338 78.5182 489.278 79.8831C490.966 81.5225 492.334 83.3308 493.341 85.2544C493.558 85.7089 493.641 86.4341 493.725 87.1669V87.1671C493.813 87.9425 493.903 88.7265 494.154 89.2074C494.494 89.8852 495.267 90.1533 496.026 90.4164C496.991 90.7506 497.932 91.0768 497.932 92.2249C497.932 93.2061 496.223 95.0703 494.439 97.0159C492.492 99.1394 490.457 101.36 490.457 102.636L492.122 103.45L490.66 105.502L492.122 105.351L494.316 104.416L495.047 104.808L491.553 106.317V106.981L490.294 106.166L490.091 108.64L491.025 108.369L491.391 107.826L492.447 108.067L491.675 109.425V110.783H490.741C490.538 111.145 490.497 111.51 490.452 111.914C490.362 112.723 490.254 113.689 488.791 115.098C486.627 116.859 484.137 118.383 481.397 119.624L481.6 120.439L479.934 122.099H479.406L477.375 123.608L476.806 122.914L477.171 124.271L475.343 123.879C475.066 123.777 474.759 123.725 474.449 123.728L475.546 124.151L475.14 125.66L474.206 126.897C472.946 125.599 471.727 125.116 470.509 125.388L471.443 125.78L471.077 126.625L471.931 127.168V127.591L470.265 127.048L468.274 127.711L466.608 127.168V128.617L465.877 129.16L465.146 128.345H464.211L464.577 129.16L463.683 128.768L462.952 129.431H462.139L461.611 130.397H460.108C458.28 131.604 456.167 133.173 453.689 135.165C451.627 136.642 450.068 138.463 449.139 140.476L451.495 141.049C455.471 139.702 459.663 138.739 463.968 138.182C468.26 137.561 472.494 136.735 476.643 135.708L497.282 128.285C497.611 128.163 497.94 128.271 498.267 128.378C498.91 128.589 499.547 128.798 500.166 127.259C500.344 126.849 501.285 126.766 502.116 126.692C502.998 126.614 503.754 126.547 503.335 126.112C500.71 123.543 507.523 122.944 511.673 122.58C512.983 122.465 514.027 122.373 514.427 122.25C523.69 118.629 528.727 114.283 529.459 109.576L528.89 109.304L528.524 108.49H529.621V108.882L532.018 103.45ZM357.565 158.853L358.093 163.108C356.387 164.858 352.162 165.763 345.418 165.763C343.346 165.763 339.852 165.763 334.977 165.341C332.27 165.238 329.558 165.238 326.851 165.341L327.257 162.836H324.698L323.438 161.659C320.896 161.955 318.539 162.83 316.694 164.164L316.288 163.621L314.907 165.492C312.936 165.318 311.016 164.91 309.219 164.284L308.569 163.379C308.077 162.044 307.939 160.65 308.163 159.275C310.461 158.303 312.648 157.192 314.704 155.956C315.15 153.663 316.004 150.283 317.304 145.877L316.613 145.093L317.141 144.308L319.213 144.821L320.026 142.709L319.051 142.256L319.579 138.273L318.076 137.881L317.791 139.601H316.694L317.629 139.329L315.597 138.394V127.35C316.112 127.168 316.112 127.078 315.597 127.078V126.022L317.101 125.63L316.694 121.375L318.766 121.918L317.385 120.711L318.076 119.534H317.101L317.913 115.038C317.411 113.932 317.231 112.759 317.385 111.598H316.857L317.101 110.27L317.791 110.029C317.71 109.086 317.478 108.154 317.101 107.253L315.76 106.166V97.9283H316.572V96.0574H316.694V94.8806L315.719 95.122V91.5612L316.694 90.7767L317.629 91.169C318.049 90.7393 318.34 90.2471 318.48 89.7263C318.62 89.2054 318.607 88.6681 318.441 88.1514L317.101 86.4012L318.319 85.8882L317.222 85.496V84.5605H317.873L317.629 83.5044L318.848 82.3275H319.376L316.004 79.3099L313.932 79.7022C312.37 78.7638 310.533 78.1125 308.569 77.8012L308.163 73.0334C308.791 72.299 309.683 71.7094 310.738 71.3309C311.793 70.9524 312.97 70.8 314.135 70.891L314.825 72.8524L315.638 72.1885L315.354 70.7401C318.055 70.527 320.778 70.527 323.479 70.7401L323.885 71.4039L324.17 70.891H324.982L326.079 71.8264V71.0117H327.176L328.273 72.0678L326.892 72.8825L327.704 73.7878L327.989 73.2748H328.882L329.248 72.8524L330.345 73.2447C330.961 72.4986 331.868 71.9092 332.945 71.5548V71.9773L335.667 72.6411L336.073 72.098L338.674 71.8264L341.071 73.1541V72.2187L343.508 73.4257L343.793 70.891C345.602 70.8418 347.412 70.9328 349.196 71.1625L350.537 72.6411L350.009 95.5746C349.857 95.7171 349.662 95.8309 349.44 95.9065C349.272 95.9551 349.128 96.0401 349.026 96.1505C348.925 96.2608 348.87 96.3914 348.87 96.5251C348.87 96.6588 348.925 96.7894 349.026 96.8998C349.128 97.0102 349.272 97.0952 349.44 97.1437C349.033 97.4757 349.074 98.4413 349.805 98.6525V102.032H350.78L350.09 105.744L347.896 106.528L348.343 107.856H349.277L350.212 106.257L349.805 110.059L351.024 112.473L349.44 113.861L348.993 117.965L351.024 119.353L347.205 130.005L350.334 130.458L349.44 133.475L350.78 140.385H349.968L350.212 149.649L348.993 152.425L347.49 151.762L347.246 153.089L348.343 153.482L348.058 156.288L346.84 155.865L347.896 154.538L347.368 153.632L346.433 155.353L344.768 155.624L346.271 158.008H346.962V156.952L349.277 157.857V156.137L351.309 156.529V157.344L353.096 157.857L353.909 157.073C354.907 157.885 356.164 158.497 357.565 158.853ZM338.633 82.237V81.6938V81.0903C338.705 80.9726 338.732 80.8423 338.71 80.7139C338.688 80.5856 338.618 80.4643 338.508 80.3639C338.399 80.2635 338.253 80.1879 338.088 80.1456C337.924 80.1033 337.747 80.0961 337.577 80.1247C337.438 80.1063 337.295 80.1115 337.159 80.14C337.023 80.1685 336.897 80.2195 336.792 80.2892C336.686 80.3589 336.603 80.4455 336.549 80.5424C336.495 80.6394 336.471 80.7442 336.48 80.8489V81.2412C336.033 81.5429 335.748 81.9352 336.277 82.3275C336.364 82.4053 336.478 82.4634 336.608 82.4954C336.737 82.5274 336.875 82.532 337.008 82.5086C337.118 82.6072 337.262 82.6813 337.426 82.7226C337.589 82.764 337.764 82.771 337.933 82.7429C338.101 82.7148 338.255 82.6526 338.379 82.5633C338.502 82.4741 338.59 82.3611 338.633 82.237ZM344.239 89.3584C343.945 89.538 343.708 89.765 343.549 90.0223C343.382 90.1784 343.305 90.3773 343.336 90.5754C343.366 90.7734 343.501 90.9544 343.711 91.0784C343.921 91.2025 344.189 91.2595 344.456 91.2368C344.723 91.2142 344.966 91.1138 345.133 90.9577L345.661 90.4447C345.898 90.4447 346.126 90.3748 346.293 90.2503C346.461 90.1258 346.555 89.957 346.555 89.7809C346.832 89.4678 346.974 89.0993 346.962 88.7247C346.962 88.5487 346.867 88.3798 346.7 88.2553C346.532 88.1308 346.305 88.0609 346.068 88.0609C345.831 88.0609 345.603 88.1308 345.436 88.2553C345.268 88.3798 345.174 88.5487 345.174 88.7247L344.239 89.3584ZM421.796 163.289L422.325 160.965L421.309 158.943C418.259 157.863 415.753 156.087 414.159 153.874C413.104 151.576 411.743 149.362 410.096 147.265V145.606L409.527 147.658L407.414 148.05V147.416L407.821 147.024L407.13 145.847H406.561V145.606L405.586 145.213L406.683 144.55V144.037L407.252 143.131L406.968 141.955H406.399V140.687C406.33 140.469 406.33 140.242 406.399 140.023L405.546 139.239L405.992 137.82L404.855 136.915V136.282L404.002 134.592L404.571 134.199L403.717 133.928L404.002 131.876C402.982 131.027 402.306 129.981 402.052 128.858H403.027C401.306 124.633 397.694 120.971 392.789 118.478L393.479 117.331L395.308 116.818L394.333 114.344L394.901 113.71L394.333 113.046L395.714 111.749L396.973 113.046V112.141V111.628L400.63 109.305L401.32 109.697L400.792 110.21V110.602L402.458 109.817L402.742 110.723L403.149 109.546L404.002 109.305L404.408 110.089C407.13 107.735 408.471 103.481 408.471 97.2644L407.211 97.6567L406.927 97.2644C407.401 95.9976 407.498 94.6693 407.211 93.3718H405.261L406.643 93.9149L407.049 94.8202H404.977V95.4539L405.952 95.7255C405.952 96.1178 406.114 96.1178 406.399 96.1178V97.9283H404.286V97.4153H403.433V98.1999H404.286V98.9844L402.458 98.4413C402.391 97.4668 402.103 96.5077 401.605 95.6048H402.742L402.458 93.9149L403.027 93.0097L402.58 91.9837L402.864 90.9577L407.496 91.6819V92.0742H408.471V91.7121L407.618 91.4405L407.211 90.656H406.074L406.48 89.3584H405.952L406.48 88.4532L406.074 87.9402L405.342 87.7591V86.703L404.367 86.3107V85.164L403.799 84.5002L403.27 82.6896L402.011 81.905L402.539 81.6033L399.492 79.9135L399.208 77.3184H397.786L398.476 77.8313L397.948 78.2236L397.217 76.5338L395.145 76.1415L394.414 74.9948V75.9001L391.204 74.844L388.563 75.1155V74.844L385.476 75.2362L385.07 74.6025L383.079 74.2103L382.673 72.9127C375.896 72.5445 369.086 72.7165 362.359 73.4257L361.384 74.4818C360.426 76.6293 360.586 78.9654 361.831 81.03C363.091 81.356 364.249 81.8693 365.234 82.5385C366.219 83.2077 367.01 84.0189 367.559 84.9226C367.636 85.1227 368.36 85.0249 369.153 84.9179C370.034 84.7989 371 84.6685 371.256 84.9226C372.45 86.8315 373.232 88.8682 373.572 90.9577L373.166 91.863H374.425L374.832 89.9016L375.847 89.2679L377.919 90.0525L380.885 88.9963L382.144 91.1991L381.169 90.9577L379.869 91.6216L378.772 91.9837L378.488 92.7683L377.35 93.2813C377.775 95.7355 377.775 98.22 377.35 100.674L375.807 101.851C375.716 102.735 375.427 103.602 374.953 104.416H374.263L374.669 103.269V102.606L375.36 101.851V101.187L375.766 100.674V100.01L376.01 99.6483C376.248 98.5287 376.248 97.3882 376.01 96.2686H375.603L375.157 97.8076L374.466 98.0792L374.872 98.9844C373.821 100.896 373.349 102.957 373.491 105.02H374.588V106.709L373.735 107.343L373.45 106.981L370.809 112.413C368.488 113.587 365.976 114.54 363.334 115.249C363.203 115.366 363.041 115.48 362.875 115.598C362.269 116.027 361.596 116.503 362.075 117.331C362.468 118.012 362.236 118.405 362.021 118.767C361.903 118.967 361.79 119.158 361.79 119.383V121.465C364.641 123.658 367.652 125.733 370.809 127.681L371.175 124.935V128.707L373.572 129.613L374.832 131.514C373.965 131.952 373.517 131.992 373.453 132.171C373.376 132.386 373.855 132.801 374.832 134.35L374.303 134.622L374.019 135.406H375.563V136.945H375.116L375.969 137.73C376.326 139.501 377.081 141.215 378.204 142.799V143.825C378.784 145.321 379.631 146.752 380.722 148.08L380.316 150.042H378.772C379.24 151.984 378.841 153.987 377.635 155.745C377.472 155.926 375.847 157.163 372.76 159.487L372.475 160.663L373.044 163.379L374.953 164.466C379.256 165.617 383.859 166.009 388.401 165.612V164.707C389.719 164.404 391.085 164.231 392.464 164.194L392.748 163.953L393.317 164.315L393.032 164.707L400.467 165.22L399.898 162.776H401.158V161.478L402.702 161.991L403.108 162.776L403.555 162.383L405.221 162.776L407.902 162.504L408.308 164.466C409.683 164.506 411.056 164.373 412.371 164.073L412.94 164.979V165.884C415.477 165.864 417.977 165.42 420.253 164.586L421.796 163.289Z" fill="white"/>
<defs>
<linearGradient id="paint0_linear_14_55" x1="4.52525" y1="155.584" x2="559.988" y2="151.194" gradientUnits="userSpaceOnUse">
<stop stop-color="white" stop-opacity="0"/>
<stop offset="0.369792" stop-color="white" stop-opacity="0.1"/>
<stop offset="1" stop-color="white" stop-opacity="0.94"/>
</linearGradient>
</defs>
</svg>
