<svg width="58" height="57" viewBox="0 0 58 57" fill="none" xmlns="http://www.w3.org/2000/svg">
<path d="M0.649902 56.9709C0.166936 56.6548 0 56.2229 0 55.6328C0.0216634 51.7156 0.0152918 47.7983 0.00637159 43.8798C0.00637159 43.3395 0.151644 42.9215 0.69068 42.7227C1.41067 42.4602 2.03891 42.9636 2.03891 43.825C2.04783 45.9633 2.03891 48.1029 2.03891 50.2412V54.9383H2.76654C6.60097 54.9383 10.4341 54.9383 14.2685 54.9383C14.8305 54.9383 15.3479 54.9817 15.5824 55.5844C15.8245 56.2101 15.4842 56.6255 15.0153 56.976L0.649902 56.9709Z" fill="#D41D12"/>
<path d="M41.9916 56.9711C41.7902 56.7366 41.5048 56.534 41.4015 56.2626C41.1327 55.5477 41.6717 54.9411 42.537 54.9411C46.3931 54.9411 50.2491 54.9411 54.1052 54.9411H54.9692V54.2555C54.9692 50.7809 54.9692 47.3067 54.9692 43.8329C54.9692 43.0683 55.493 42.5407 56.1339 42.6732C56.6691 42.7828 56.9966 43.1129 56.9979 43.6927C56.9979 47.7807 57.0132 51.8687 56.9712 55.9567C56.9712 56.2995 56.5748 56.6372 56.362 56.9762L41.9916 56.9711Z" fill="#D41D12"/>
<path d="M47.1009 11.3414L41.5628 16.8847C40.5136 17.933 39.4644 18.9818 38.4152 20.031C37.7666 20.6783 37.1893 20.7675 36.7127 20.2999C36.2361 19.8322 36.3049 19.232 36.9434 18.5948C39.6398 15.8975 42.3371 13.2002 45.0353 10.5029C45.1958 10.3436 45.3475 10.1754 45.5947 9.91545L41.7055 10.2264C40.8823 10.2926 40.0591 10.378 39.2346 10.415C38.5656 10.4443 38.0877 10.0097 38.0711 9.42738C38.0571 8.87943 38.484 8.44616 39.1314 8.39009C42.0215 8.13522 44.9104 7.88036 47.7967 7.65098C49.0404 7.55159 49.4355 7.9428 49.3374 9.18016C49.1042 12.0933 48.8493 15.0038 48.5944 17.9131C48.5396 18.5413 48.0681 18.9682 47.5176 18.9325C46.9671 18.8968 46.5288 18.4381 46.5734 17.7958C46.7008 15.9366 46.8639 14.0812 47.0143 12.2245C47.0372 11.9888 47.0614 11.7632 47.1009 11.3414Z" fill="#D41D12"/>
<path d="M47.081 45.4321C46.9357 43.6625 46.7896 41.8929 46.6426 40.1233C46.6171 39.8073 46.5801 39.4862 46.5801 39.174C46.5801 38.5483 47.0032 38.0882 47.569 38.0729C48.1017 38.0577 48.5502 38.4667 48.605 39.0644C48.7796 40.9822 48.9402 42.9001 49.1033 44.8192C49.1938 45.8947 49.297 46.969 49.3582 48.0458C49.4091 48.976 49.0013 49.394 48.0698 49.3264C45.7697 49.157 43.4708 48.9518 41.1732 48.7594C40.4978 48.7033 39.8224 48.6485 39.1496 48.581C38.4768 48.5134 38.0307 48.056 38.0779 47.4927C38.125 46.9065 38.5876 46.5077 39.286 46.5561C41.1439 46.6835 42.9993 46.8479 44.8547 46.9983C45.0599 47.0148 45.2638 47.034 45.5951 47.0633C45.3606 46.8084 45.2128 46.6402 45.0586 46.4834L37.0164 38.4412C36.8579 38.3006 36.714 38.1443 36.5869 37.9748C36.2977 37.5314 36.3244 37.0828 36.6914 36.7005C37.0814 36.2978 37.5491 36.2634 38.0167 36.5731C38.1852 36.701 38.3406 36.8453 38.4806 37.0038C41.1482 39.6688 43.814 42.3347 46.4782 45.0014C46.64 45.1633 46.7764 45.3493 46.9242 45.5252L47.081 45.4321Z" fill="#D41D12"/>
<path d="M11.4134 9.89754C11.6606 10.1639 11.8072 10.3334 11.9652 10.4901C14.631 13.1585 17.2973 15.8257 19.9641 18.4915C20.1215 18.6334 20.2669 18.7881 20.3986 18.9541C20.7248 19.4116 20.7057 19.8818 20.3132 20.2807C19.9207 20.6795 19.4518 20.7076 18.9879 20.3915C18.8205 20.262 18.6656 20.1169 18.5254 19.9583L10.5226 11.9594C10.3634 11.7988 10.1939 11.6472 9.92499 11.3923C10.0384 12.7788 10.1403 14.0301 10.2423 15.2815C10.3086 16.1047 10.3939 16.9267 10.4322 17.7512C10.4615 18.3883 10.0575 18.8496 9.49172 18.898C8.92592 18.9465 8.46462 18.5157 8.40855 17.8913C8.15368 14.9821 7.89882 12.0715 7.66689 9.1597C7.57005 7.93636 7.9447 7.55407 9.15147 7.64582C12.0633 7.87647 14.9738 8.13261 17.8844 8.38619C18.5215 8.44226 18.9472 8.89592 18.9178 9.4477C18.886 10.0364 18.4081 10.457 17.7302 10.4098C15.8926 10.2824 14.0576 10.118 12.2226 9.96762C11.9983 9.95361 11.7753 9.93067 11.4134 9.89754Z" fill="#D41D12"/>
<path d="M11.5539 47.0542L16.8538 46.6159C17.1698 46.5891 17.4909 46.5521 17.8031 46.5521C18.4403 46.5521 18.8927 46.9599 18.9169 47.527C18.9385 48.0571 18.5346 48.5171 17.9369 48.5745C16.5466 48.7083 15.1551 48.8294 13.7635 48.944C12.3516 49.0651 10.9384 49.1798 9.52515 49.2983L9.46271 49.3047C7.93353 49.4589 7.53849 49.0677 7.67866 47.5487C7.76786 46.5789 7.83923 45.6092 7.92206 44.6394C8.08135 42.8057 8.23809 40.9719 8.40502 39.1382C8.46747 38.459 8.92622 38.0219 9.49457 38.069C10.0629 38.1162 10.4809 38.5889 10.4325 39.2783C10.305 41.1134 10.1381 42.9471 9.98645 44.7808C9.96861 45.0026 9.95332 45.223 9.92528 45.5773C10.1929 45.3224 10.3598 45.1746 10.5191 45.0166L18.5167 37.0215C18.6581 36.8635 18.8133 36.7185 18.9806 36.5883C19.4444 36.2659 19.9083 36.3066 20.3021 36.7042C20.6754 37.0865 20.7149 37.53 20.4231 37.9785C20.2966 38.1481 20.1536 38.3048 19.9962 38.4462C17.332 41.1121 14.6662 43.7771 11.9986 46.4413C11.8355 46.6044 11.6507 46.7433 11.4761 46.8937L11.5539 47.0542Z" fill="#D41D12"/>
<path d="M2.04613 2.03126V2.86084C2.04613 7.18333 2.04613 11.5058 2.04613 15.8283C2.04613 16.4451 1.79763 16.8669 1.1987 16.9943C0.680057 17.1052 0.281196 16.8478 0.0824022 16.3661C0.0160994 16.144 -0.00852733 15.9115 0.00976612 15.6805C0.00976612 12.5864 0.00976612 9.49282 0.00976612 6.39962C0.00976612 4.68312 0.00976612 2.96789 0.00976612 1.25138C0.0148634 0.328774 0.348735 0 1.28281 0H14.379C15.2455 0 15.6801 0.352986 15.6686 1.03475C15.6571 1.69229 15.234 2.02871 14.4006 2.02871H2.03975L2.04613 2.03126Z" fill="#D41D12"/>
<path d="M54.9705 2.03126H52.0829C48.9243 2.03126 45.7661 2.03126 42.6084 2.03126C41.8068 2.03126 41.357 1.64897 41.3633 1.01181C41.371 0.382295 41.8094 0 42.5663 0C46.9754 0 51.3846 0 55.7937 0C56.645 0 57.0018 0.344066 57.003 1.18257C57.003 6.05726 57.003 10.9315 57.003 15.8054C57.003 16.5496 56.6093 17.0121 55.9989 17.0185C55.3885 17.0249 54.9718 16.5432 54.9718 15.7595C54.9718 11.4361 54.9718 7.11282 54.9718 2.78948L54.9705 2.03126Z" fill="#D41D12"/>
</svg>
