<svg width="52" height="52" viewBox="0 0 52 52" fill="none" xmlns="http://www.w3.org/2000/svg">
<path d="M31.0732 51.997C30.4741 51.6857 30.3104 51.1833 30.3124 50.5303C30.3253 44.2923 30.328 38.0518 30.3205 31.809C30.3205 30.6668 30.6592 30.3281 31.8014 30.3281C38.0395 30.3281 44.2776 30.3254 50.5156 30.32C51.1635 30.32 51.672 30.4807 51.9812 31.0808V51.997H31.0732ZM32.5134 49.7767H49.7803V32.5291H32.5134V49.7767Z" fill="#D41D12"/>
<path d="M51.9841 20.9274C51.6789 21.5 51.206 21.6973 50.5673 21.6892C48.6898 21.6648 46.8122 21.681 44.9337 21.679C44.7699 21.679 44.6052 21.6627 44.414 21.6526V19.5167H49.777V2.23757H32.5243V19.5035H37.8803V21.6526C37.6931 21.6627 37.5141 21.679 37.3351 21.679C35.4738 21.679 33.6129 21.679 31.7524 21.679C30.6773 21.679 30.3213 21.323 30.3203 20.249C30.3203 13.9709 30.3203 7.69284 30.3203 1.41476C30.3203 0.368182 30.6814 0.0122049 31.7178 0.0122049C37.9769 0.013222 44.2421 0.0213586 50.4961 0C51.1521 0 51.6423 0.161715 51.9841 0.722125V20.9274Z" fill="#D41D12"/>
<path d="M0.722125 51.9971C0.165784 51.6533 0 51.1662 0 50.5091C0.0223757 44.248 0.013222 37.9869 0.013222 31.7257C0.013222 30.6893 0.369199 30.3293 1.41577 30.3283C7.6925 30.3283 13.9689 30.3283 20.2449 30.3283C21.32 30.3283 21.6688 30.6832 21.6688 31.7603C21.6729 33.6392 21.6729 35.5174 21.6688 37.3949C21.6688 37.5444 21.6556 37.694 21.6455 37.8841H19.5096V32.5252H2.21926V49.787H19.5096V44.425H21.6739V44.9966C21.6739 46.8405 21.6587 48.6855 21.681 50.5295C21.6892 51.1774 21.5224 51.6879 20.9203 51.9971H0.722125Z" fill="#D41D12"/>
<path d="M21.6399 15.1545H19.5132V2.21426H2.22285V19.5046H15.1397V21.6537C14.9516 21.6638 14.7726 21.6801 14.5936 21.6801C10.2106 21.6801 5.82873 21.6801 1.44783 21.6801C0.344303 21.6791 0.0117188 21.3363 0.0117188 20.2165V1.38229C0.0117188 0.358095 0.356508 0.0133057 1.38172 0.0133057C7.7093 0.0133057 14.0365 0.0133057 20.3634 0.0133057C21.2554 0.0133057 21.6673 0.381488 21.6684 1.24906C21.6772 5.78387 21.6772 10.3187 21.6684 14.8535C21.6714 14.9359 21.6551 15.0183 21.6399 15.1545Z" fill="#D41D12"/>
<path d="M21.6717 29.2491V27.097H25.5L15.496 17.093L17.0105 15.5938L26.8853 25.4778L27.0572 25.3944V21.6811H29.2449V23.2158C29.2449 24.8432 29.2449 26.4644 29.2449 28.0897C29.2449 28.763 28.8452 29.239 28.2278 29.243C26.0604 29.2593 23.8951 29.2491 21.6717 29.2491Z" fill="#D41D12"/>
<path d="M37.6997 15.9773L36.0938 14.3499C36.8637 13.58 37.6611 12.7836 38.4574 11.9863C39.0799 11.3648 39.6932 10.7332 40.3258 10.123C40.8344 9.62866 41.4243 9.589 41.9084 10.067C43.3516 11.4909 44.7704 12.9433 46.1699 14.355L44.6301 15.8664L42.2389 13.4763V28.1486H40.0705V13.579L37.6997 15.9773Z" fill="#D41D12"/>
<path d="M13.5044 42.23C14.3719 43.0976 15.1571 43.8817 15.9281 44.6537L14.3455 46.1925C14.2748 46.1373 14.2069 46.0786 14.1421 46.0166C12.8348 44.714 11.5299 43.4108 10.2273 42.1069C9.55913 41.4346 9.56014 40.8986 10.2273 40.2274C11.5984 38.8472 12.9735 37.4711 14.3129 36.1255L15.8721 37.702L13.5166 40.0412H28.1218V42.228L13.5044 42.23Z" fill="#D41D12"/>
</svg>
