<svg width="62" height="59" viewBox="0 0 62 59" fill="none" xmlns="http://www.w3.org/2000/svg">
<path d="M24.9931 0C28.138 1.82765 31.2833 3.65436 34.4291 5.48012C39.1463 8.20886 43.8749 10.9121 48.5766 13.6692C48.7618 13.799 48.9167 13.9675 49.0306 14.163C49.1444 14.3584 49.2146 14.5762 49.2362 14.8014C49.28 18.4954 49.256 22.1894 49.2461 25.8848C49.2461 26.4722 49.0437 27.0171 48.4252 27.1175C48.0473 27.1727 47.5081 27.034 47.2547 26.7736C47.0014 26.5132 46.9476 26.0023 46.9448 25.5989C46.9193 22.9409 46.9306 20.2815 46.9306 17.6222V16.7192C46.6136 16.8848 46.3928 16.9923 46.1805 17.1141C39.5681 20.9298 32.9543 24.744 26.3391 28.5569C25.9414 28.7862 25.7291 29.0211 25.7305 29.5349C25.7503 37.2522 25.7555 44.9704 25.7461 52.6895C25.7461 52.8693 25.7659 53.049 25.7857 53.3505L28.5286 51.7767C28.8541 51.5898 29.174 51.3917 29.5066 51.2105C30.1676 50.8638 30.8342 51.028 31.1498 51.6026C31.4654 52.1772 31.2913 52.7943 30.6587 53.1708C29.3679 53.9397 28.0672 54.6946 26.7566 55.4353C24.2402 56.8619 24.9818 56.8789 22.447 55.4183C15.3015 51.2988 8.15979 47.1726 1.02186 43.0399C0.646801 42.8233 0.338262 42.4936 0 42.2162V14.2608C0.236358 14.04 0.440165 13.7626 0.70766 13.6055C8.33812 9.19817 15.9695 4.79652 23.6019 0.400536C23.791 0.277523 23.9729 0.143793 24.1468 0L24.9931 0ZM16.2578 24.7384C16.2578 26.7198 16.2507 28.5498 16.2578 30.3756C16.2578 30.8766 16.1771 31.3111 15.7129 31.5899C15.2232 31.8843 14.7844 31.7456 14.3287 31.4753C12.9742 30.6728 11.6184 29.8746 10.2427 29.1103C9.67655 28.7989 9.44302 28.3942 9.45151 27.7516C9.47698 25.6286 9.45151 23.517 9.47415 21.3996C9.49296 21.219 9.45441 21.037 9.36397 20.8795C9.27353 20.722 9.1358 20.597 8.9703 20.5221C6.90535 19.3545 4.85596 18.1571 2.79809 16.9739C2.629 16.8874 2.45564 16.8094 2.27867 16.7404C2.26876 16.9272 2.25744 17.0433 2.25744 17.165C2.25744 24.9776 2.25319 32.7897 2.2447 40.6013C2.2447 41.0599 2.44143 41.2552 2.79526 41.459C9.47463 45.3011 16.1497 49.1508 22.8206 53.008C22.9961 53.1099 23.1829 53.192 23.4561 53.3293V45.061C23.4561 39.8837 23.4523 34.707 23.4448 29.5307C23.4448 29.266 23.3514 28.8683 23.1617 28.7593C20.9298 27.4232 18.6667 26.1311 16.2578 24.7384ZM45.8054 14.6896C43.4843 13.3493 41.3033 12.1067 39.1421 10.8286C38.7387 10.5894 38.4557 10.6149 38.0608 10.8442C31.4003 14.7071 24.7337 18.5605 18.0609 22.4045C17.8727 22.5135 17.6915 22.6366 17.4467 22.7909C19.697 24.0873 21.8596 25.3173 24.001 26.5825C24.4383 26.8401 24.7554 26.8585 25.2097 26.5953C30.6709 23.4165 36.1378 20.2537 41.6104 17.107L45.8054 14.6896ZM3.42083 14.6896C5.68534 15.9988 7.82672 17.2174 9.94687 18.4728C10.4267 18.7558 10.7833 18.7671 11.2801 18.4728C17.8783 14.6372 24.4855 10.8159 31.1017 7.00867C31.3111 6.88695 31.5093 6.74825 31.7768 6.57558C29.5236 5.27773 27.3596 4.05065 25.2182 2.78252C24.7738 2.51927 24.4567 2.5221 24.0123 2.78252C18.9172 5.74431 13.8154 8.69337 8.70705 11.6297L3.42083 14.6896ZM36.3185 9.2194C35.693 8.85424 35.1495 8.57543 34.6499 8.22867C34.2408 7.94561 33.9266 8.00788 33.5176 8.24566C27.1959 11.9104 20.8713 15.5643 14.5438 19.2073C14.0287 19.5031 13.5177 19.8074 12.919 20.1584C13.563 20.5349 14.1235 20.8279 14.6457 21.1789C15.0151 21.4294 15.2968 21.3728 15.6605 21.1605C18.0312 19.7706 20.4174 18.4048 22.7966 17.0291L36.3185 9.2194ZM11.7358 22.1299C11.7358 23.8283 11.7358 25.3852 11.7443 26.9279C11.7443 27.0921 11.8165 27.3313 11.9368 27.4077C12.5765 27.8153 13.2403 28.1833 13.9862 28.6164C13.9862 26.9109 13.9947 25.3611 13.9749 23.8142C13.9721 23.7157 13.9487 23.6188 13.9063 23.5299C13.8639 23.4409 13.8034 23.3618 13.7286 23.2976C13.1243 22.907 12.4874 22.563 11.7358 22.1299Z" fill="#D41D12"/>
<path d="M31.6367 44.0915C31.6367 35.9789 38.1868 29.3821 46.2541 29.3722C48.1919 29.3645 50.112 29.7403 51.9039 30.478C53.6958 31.2156 55.3241 32.3004 56.6949 33.6701C58.0657 35.0397 59.152 36.667 59.8911 38.4583C60.6303 40.2495 61.0078 42.1693 61.0018 44.1071C61.0018 52.0725 54.2733 58.7358 46.2428 58.7358C38.2123 58.7358 31.641 52.139 31.6367 44.0915ZM58.7373 44.0618C58.7118 37.2456 53.076 31.607 46.3518 31.6523C39.4012 31.7032 33.8743 37.2357 33.897 44.1269C33.914 50.8214 39.5399 56.4869 46.1353 56.4473C53.0491 56.4062 58.7684 50.7888 58.7373 44.0618Z" fill="#D41D12"/>
<path d="M47.4428 42.9267H54.7813C55.0171 42.9119 55.2537 42.9157 55.4889 42.938C56.0989 43.0371 56.4499 43.4022 56.4797 44.0306C56.4887 44.1717 56.4698 44.3131 56.4241 44.4468C56.3783 44.5805 56.3067 44.7038 56.2132 44.8098C56.1197 44.9158 56.0063 45.0023 55.8793 45.0643C55.7524 45.1264 55.6144 45.1627 55.4734 45.1714C55.0757 45.2054 54.6737 45.187 54.2746 45.187C51.6888 45.187 49.103 45.187 46.5172 45.187C45.5534 45.187 45.1953 44.8261 45.1953 43.8806C45.1953 41.0132 45.1953 38.1457 45.1953 35.2783C45.1953 34.3796 45.6015 33.8913 46.3276 33.8955C47.0536 33.8998 47.4457 34.3909 47.4471 35.2925C47.4443 37.8018 47.4428 40.314 47.4428 42.9267Z" fill="#D41D12"/>
</svg>
