<svg width="42" height="42" viewBox="0 0 42 42" fill="none" xmlns="http://www.w3.org/2000/svg">
<g filter="url(#filter0_d_2_19)">
<path d="M38 17C38 26.3888 30.3888 34 21 34C11.6112 34 4 26.3888 4 17C4 7.61116 11.6112 0 21 0C30.3888 0 38 7.61116 38 17Z" fill="white"/>
<path d="M37.5 17C37.5 26.1127 30.1127 33.5 21 33.5C11.8873 33.5 4.5 26.1127 4.5 17C4.5 7.8873 11.8873 0.5 21 0.5C30.1127 0.5 37.5 7.8873 37.5 17Z" stroke="#D41D12"/>
</g>
<g clip-path="url(#clip0_2_19)">
<path d="M13.2633 27.0002C13.0618 26.9 12.9938 26.7385 13.0004 26.5141C13.0135 26.0789 13.0038 25.6433 13.0045 25.2081C13.0045 24.8959 13.1343 24.7635 13.4402 24.7631C13.9778 24.7631 14.5153 24.7631 15.0804 24.7631C15.0607 24.4083 15.1261 24.0815 15.3666 23.8123C15.6071 23.5431 15.8993 23.4197 16.2588 23.4134V22.7082H16.0525C15.1804 22.7082 14.3085 22.7082 13.4369 22.7082C13.1395 22.7082 13.0045 22.5736 13.0045 22.2782C13.0045 20.3254 13.0045 18.3727 13.0045 16.4199C13.0045 16.1324 13.1402 15.9937 13.4213 15.9933C14.2309 15.992 15.041 15.9914 15.8514 15.9914C16.1083 15.9914 16.267 16.1361 16.2674 16.3627C16.2677 16.5893 16.1086 16.7366 15.8521 16.7366C15.1599 16.7366 14.4674 16.7366 13.7599 16.7366V21.9499H16.2607C16.2633 21.8897 16.2688 21.8299 16.2688 21.7697C16.2688 21.235 16.2688 20.7002 16.2688 20.1653C16.2688 19.4773 16.7346 18.9871 17.3763 18.9755C17.9503 18.9651 18.5287 19.4657 18.4978 20.1746C18.4763 20.7022 18.4938 21.2316 18.4938 21.7603V21.9529H21.003V16.7392H20.812C20.1815 16.7392 19.5509 16.7392 18.9201 16.7392C18.651 16.7392 18.4908 16.593 18.4956 16.3575C18.5001 16.1331 18.6581 15.9952 18.9201 15.9952C19.7239 15.9952 20.5277 15.9952 21.3317 15.9952C21.625 15.9952 21.7581 16.1316 21.7584 16.4304C21.7584 17.3574 21.7584 18.2841 21.7584 19.2103V19.4418L23.5703 19.041C23.5075 18.9867 23.4625 18.9475 23.4168 18.909C22.8432 18.4229 22.5146 17.8097 22.496 17.0514C22.4815 16.4674 22.477 15.8815 22.5049 15.2982C22.5633 14.0823 23.6666 13.0477 24.8755 13.0021C26.1361 12.9546 27.2175 13.8385 27.4503 15.023C27.4737 15.1199 27.4879 15.2188 27.4926 15.3184C27.4926 15.954 27.5164 16.5897 27.4755 17.2189C27.4287 17.9379 27.0722 18.5111 26.5112 18.9557C26.4878 18.9744 26.4655 18.995 26.4149 19.0387C26.79 19.1225 27.1398 19.1999 27.4889 19.2784C27.7175 19.3296 27.9491 19.3707 28.174 19.4365C28.6131 19.5648 28.9718 19.8183 29.2681 20.1694C29.3265 20.2338 29.4073 20.2733 29.4938 20.2797C30.1674 20.2883 30.8417 20.2913 31.5153 20.2797C31.7384 20.2763 31.9001 20.341 31.9986 20.544V27.0002H13.2633ZM20.9956 24.7467H26.5094V20.7792C26.5094 20.3934 26.6209 20.2842 27.0064 20.2838H28.1789C28.1822 20.2599 28.1859 20.2359 28.1897 20.212L26.2369 19.7678C26.2053 19.8505 26.183 19.9073 26.1625 19.9641C25.8982 20.6723 25.6324 21.3797 25.3714 22.089C25.3042 22.2726 25.2086 22.4098 24.9934 22.4113C24.7781 22.4128 24.6767 22.2838 24.6109 22.0965C24.5064 21.7974 24.3919 21.5042 24.2815 21.2081C24.1042 20.734 23.9265 20.2599 23.7465 19.7783C23.6406 19.7985 23.5499 19.8131 23.4603 19.8333C22.9614 19.9457 22.4628 20.0591 21.9644 20.1735C21.8157 20.2075 21.7514 20.2857 21.7547 20.458C21.7674 21.0668 21.7607 21.6762 21.7592 22.2853C21.7592 22.568 21.6201 22.7044 21.3372 22.7067C21.2276 22.7067 21.1179 22.7067 20.9978 22.7067L20.9956 24.7467ZM13.7517 26.2423H31.2432V25.5169H13.7532L13.7517 26.2423ZM23.2398 16.4128C23.2398 16.6132 23.2376 16.7919 23.2398 16.9703C23.2517 17.8755 23.9194 18.6087 24.8254 18.7127C25.6729 18.8103 26.5112 18.2217 26.6912 17.3588C26.7614 17.0223 26.7384 16.6682 26.7462 16.3216C26.7462 16.2774 26.6867 16.218 26.6402 16.1892C26.3934 16.037 26.1395 15.8957 25.8926 15.7431C25.8071 15.6904 25.751 15.6871 25.6677 15.7577C25.1328 16.2146 24.5101 16.4281 23.809 16.4135C23.6257 16.4098 23.4421 16.4128 23.2398 16.4128ZM23.2543 15.6598C23.474 15.6598 23.683 15.6598 23.8919 15.6598C24.4718 15.6583 24.9597 15.4443 25.3555 15.0178C25.5722 14.7848 25.7105 14.765 25.9874 14.928C26.2294 15.0705 26.4707 15.2137 26.7227 15.3621C26.7503 14.5153 25.8517 13.7215 24.9283 13.7544C23.9451 13.7854 23.1555 14.6719 23.2543 15.6598ZM31.2491 21.7693V21.0391H27.2625V21.7689L31.2491 21.7693ZM31.2491 22.5343H27.2648V23.2597H31.2499L31.2491 22.5343ZM31.2491 24.0273H27.2651V24.7523H31.2499L31.2491 24.0273ZM17.0097 23.404H17.7532C17.7532 22.2965 17.7532 21.2036 17.7532 20.1107C17.7555 20.0384 17.7366 19.9671 17.6988 19.9057C17.6609 19.8442 17.6059 19.7953 17.5406 19.7652C17.2804 19.6355 17.0149 19.8288 17.0131 20.1541C17.0094 20.7568 17.0131 21.3595 17.0131 21.9619L17.0097 23.404ZM20.2276 24.7545V22.7216H18.5083V23.4145C18.8748 23.419 19.1692 23.5525 19.403 23.8183C19.6369 24.0841 19.703 24.405 19.683 24.7531L20.2276 24.7545ZM15.8309 24.7497H18.932C18.9588 24.3261 18.809 24.1638 18.4019 24.1638C17.7216 24.1638 17.0415 24.1638 16.3614 24.1638C15.9536 24.1638 15.8045 24.3253 15.8309 24.7497V24.7497ZM24.4224 19.444C24.6049 19.9335 24.7878 20.424 24.9897 20.9643L25.5543 19.444H24.4224Z" fill="#D41D12"/>
<path d="M17.3817 16.7369C17.3083 16.7369 17.2365 16.715 17.1754 16.6741C17.1144 16.6331 17.0667 16.5749 17.0385 16.5067C17.0103 16.4386 17.0027 16.3636 17.0168 16.2911C17.031 16.2187 17.0661 16.152 17.1178 16.0996C17.1694 16.0472 17.2354 16.0114 17.3073 15.9966C17.3792 15.9819 17.4539 15.9888 17.5219 16.0167C17.5898 16.0445 17.6481 16.092 17.6893 16.1531C17.7305 16.2142 17.7528 16.2862 17.7534 16.36C17.7547 16.4096 17.746 16.4589 17.7278 16.5051C17.7097 16.5512 17.6824 16.5931 17.6476 16.6284C17.6129 16.6636 17.5714 16.6914 17.5257 16.71C17.48 16.7287 17.431 16.7378 17.3817 16.7369V16.7369Z" fill="#D41D12"/>
</g>
<g clip-path="url(#clip1_2_19)">
<path d="M15.6945 14.0002C15.1732 13.7653 14.6526 13.5304 14.1306 13.2974C13.1561 12.8622 12.1808 12.429 11.2048 11.9979C11.0598 11.934 11 11.837 11 11.6815C11.0022 9.88808 11.0022 8.095 11 6.30223C11 6.14555 11.0612 6.04901 11.2055 5.98511C12.6618 5.34007 14.1171 4.69237 15.5714 4.04201C15.6269 4.01465 15.6879 4.00042 15.7498 4.00042C15.8117 4.00042 15.8727 4.01465 15.9282 4.04201C17.3779 4.69065 18.8289 5.33663 20.2812 5.97995C20.4339 6.04736 20.4984 6.14438 20.4972 6.3121C20.4916 7.10888 20.4949 7.9059 20.4944 8.70293C20.4944 8.87346 20.4093 8.97753 20.2654 8.98669C20.1216 8.99585 20.017 8.90987 19.9992 8.76658C19.9944 8.71976 19.9926 8.67269 19.9938 8.62564C19.9938 8.00832 19.9938 7.39108 19.9938 6.77391V6.63109L19.2001 6.98345C18.112 7.46766 17.0241 7.95242 15.9364 8.43772C15.8794 8.46629 15.8166 8.48132 15.7528 8.48164C15.6891 8.48197 15.6261 8.46758 15.5688 8.4396C14.268 7.85673 12.966 7.27652 11.6628 6.69898C11.6142 6.67737 11.5652 6.65646 11.5028 6.62851V6.76146C11.5028 8.32747 11.5021 9.89396 11.5007 11.4609C11.5007 11.5481 11.5255 11.5885 11.6058 11.6239C12.9509 12.219 14.2954 12.8171 15.6394 13.4181C15.714 13.4515 15.7715 13.4538 15.8447 13.4148C16.0089 13.3272 16.1574 13.3664 16.2252 13.5046C16.293 13.6427 16.2346 13.7768 16.0666 13.8644C15.9815 13.9088 15.8968 13.9542 15.8118 13.9993L15.6945 14.0002ZM19.6207 6.24304C19.5609 6.21438 19.5269 6.19606 19.4922 6.18149C18.9838 5.95505 18.4742 5.73048 17.9672 5.50028C17.9349 5.48407 17.8992 5.4758 17.863 5.47612C17.8269 5.47645 17.7914 5.48537 17.7593 5.50216C16.5442 6.04525 15.3286 6.58685 14.1126 7.12697C14.0785 7.142 14.0457 7.15939 13.9953 7.18382C14.5764 7.44221 15.1364 7.69402 15.6995 7.93926C15.7401 7.95688 15.8057 7.93926 15.8517 7.91812C16.6603 7.56123 17.4681 7.20269 18.275 6.8425C18.7154 6.64754 19.1555 6.45069 19.6207 6.24304ZM17.2357 5.18339C17.1799 5.15568 17.1437 5.13641 17.1062 5.1195C16.6902 4.93416 16.2731 4.75188 15.8588 4.56396C15.8247 4.54681 15.787 4.538 15.7489 4.53825C15.7108 4.53849 15.6733 4.54779 15.6394 4.56537C14.5066 5.07197 13.3726 5.57685 12.2376 6.08001C12.1254 6.13005 12.014 6.18102 11.8826 6.24022C11.9363 6.26629 11.9694 6.28367 12.0032 6.29871C12.4152 6.48287 12.829 6.66304 13.2382 6.85308C13.332 6.89724 13.409 6.89136 13.4998 6.85096C14.6504 6.33574 15.802 5.82225 16.9544 5.31048L17.2357 5.18339Z" fill="#D41D12"/>
<path d="M18.3168 14C18.1205 13.9572 17.9192 13.9295 17.7282 13.8694C16.6255 13.5217 15.9034 12.4311 16.0034 11.2798C16.104 10.1208 17.0084 9.16569 18.1491 9.01183C18.4793 8.96641 18.8152 8.98733 19.1372 9.07338C19.4592 9.15943 19.7609 9.30888 20.0246 9.51299C20.2882 9.71711 20.5086 9.9718 20.6728 10.2622C20.8371 10.5525 20.9419 10.8728 20.9811 11.2042C21.1502 12.5718 20.1346 13.8381 18.7572 13.9781C18.727 13.9833 18.6972 13.9906 18.6681 14H18.3168ZM16.5021 11.4905C16.4913 12.5739 17.3793 13.4752 18.4693 13.4872C19.5781 13.4992 20.487 12.6122 20.4945 11.5105C20.5022 10.4198 19.618 9.50818 18.5416 9.49667C17.4044 9.48422 16.5129 10.3562 16.5021 11.4905Z" fill="#D41D12"/>
<path d="M18.246 11.8872C18.5887 11.5436 18.916 11.215 19.2438 10.8866C19.2706 10.8584 19.2989 10.8315 19.3285 10.8062C19.4387 10.7172 19.5715 10.7212 19.667 10.8142C19.766 10.9103 19.7738 11.0508 19.6783 11.1614C19.6098 11.241 19.5319 11.3127 19.4575 11.3871C19.1291 11.716 18.8011 12.0444 18.4736 12.3723C18.3093 12.5367 18.1852 12.5367 18.0238 12.3756C17.8305 12.183 17.6362 11.9913 17.4462 11.7952C17.4034 11.7543 17.3765 11.6994 17.3704 11.6405C17.3644 11.5815 17.3795 11.5224 17.4131 11.4736C17.4783 11.3784 17.6078 11.335 17.713 11.3831C17.7612 11.4082 17.8049 11.4413 17.8422 11.4809C17.9752 11.6108 18.1052 11.7451 18.246 11.8872Z" fill="#D41D12"/>
</g>
<defs>
<filter id="filter0_d_2_19" x="0" y="0" width="42" height="42" filterUnits="userSpaceOnUse" color-interpolation-filters="sRGB">
<feFlood flood-opacity="0" result="BackgroundImageFix"/>
<feColorMatrix in="SourceAlpha" type="matrix" values="0 0 0 0 0 0 0 0 0 0 0 0 0 0 0 0 0 0 127 0" result="hardAlpha"/>
<feOffset dy="4"/>
<feGaussianBlur stdDeviation="2"/>
<feComposite in2="hardAlpha" operator="out"/>
<feColorMatrix type="matrix" values="0 0 0 0 0.831373 0 0 0 0 0.113725 0 0 0 0 0.0705882 0 0 0 0.3 0"/>
<feBlend mode="normal" in2="BackgroundImageFix" result="effect1_dropShadow_2_19"/>
<feBlend mode="normal" in="SourceGraphic" in2="effect1_dropShadow_2_19" result="shape"/>
</filter>
<clipPath id="clip0_2_19">
<rect width="19" height="14" fill="white" transform="translate(13 13)"/>
</clipPath>
<clipPath id="clip1_2_19">
<rect width="10" height="10" fill="white" transform="translate(11 4)"/>
</clipPath>
</defs>
</svg>
