<svg width="42" height="42" viewBox="0 0 42 42" fill="none" xmlns="http://www.w3.org/2000/svg">
<g filter="url(#filter0_d_1_7)">
<path d="M38 17C38 26.3888 30.3888 34 21 34C11.6112 34 4 26.3888 4 17C4 7.61116 11.6112 0 21 0C30.3888 0 38 7.61116 38 17Z" fill="white"/>
<path d="M37.5 17C37.5 26.1127 30.1127 33.5 21 33.5C11.8873 33.5 4.5 26.1127 4.5 17C4.5 7.8873 11.8873 0.5 21 0.5C30.1127 0.5 37.5 7.8873 37.5 17Z" stroke="#D41D12"/>
</g>
<g clip-path="url(#clip0_1_7)">
<path d="M11.291 23.0002C11.0683 22.8928 10.9931 22.7198 11.0005 22.4794C11.0149 22.0131 11.0042 21.5464 11.005 21.0801C11.005 20.7456 11.1484 20.6038 11.4866 20.6034C12.0807 20.6034 12.6748 20.6034 13.2994 20.6034C13.2776 20.2232 13.3499 19.873 13.6157 19.5846C13.8816 19.2962 14.2045 19.164 14.6018 19.1572V18.4016H14.3738C13.4099 18.4016 12.4462 18.4016 11.4829 18.4016C11.1542 18.4016 11.005 18.2574 11.005 17.9409C11.005 15.8487 11.005 13.7564 11.005 11.6642C11.005 11.3561 11.155 11.2075 11.4656 11.2071C12.3605 11.2057 13.2558 11.2051 14.1515 11.2051C14.4354 11.2051 14.6109 11.3601 14.6113 11.6029C14.6117 11.8456 14.4358 12.0035 14.1523 12.0035C13.3873 12.0035 12.6218 12.0035 11.8399 12.0035V17.5892H14.6039C14.6068 17.5247 14.6129 17.4606 14.6129 17.3961C14.6129 16.8232 14.6129 16.2502 14.6129 15.6771C14.6129 14.9399 15.1278 14.4147 15.8369 14.4023C16.4713 14.3911 17.1107 14.9275 17.0766 15.6871C17.0527 16.2523 17.072 16.8196 17.072 17.3861V17.5924H19.8455V12.0063H19.6343C18.9374 12.0063 18.2404 12.0063 17.5433 12.0063C17.2458 12.0063 17.0688 11.8496 17.0741 11.5973C17.079 11.3569 17.2537 11.2091 17.5433 11.2091C18.4316 11.2091 19.3201 11.2091 20.2087 11.2091C20.5329 11.2091 20.68 11.3553 20.6804 11.6754C20.6804 12.6686 20.6804 13.6615 20.6804 14.6539V14.9019L22.683 14.4724C22.6136 14.4143 22.5638 14.3723 22.5133 14.331C21.8793 13.8102 21.5161 13.1532 21.4956 12.3408C21.4795 11.715 21.4746 11.0873 21.5054 10.4623C21.5699 9.15956 22.7894 8.05108 24.1256 8.0022C25.5189 7.95132 26.7141 8.89836 26.9713 10.1675C26.9973 10.2713 27.013 10.3773 27.0182 10.484C27.0182 11.165 27.0445 11.846 26.9993 12.5203C26.9475 13.2906 26.5535 13.9048 25.9335 14.3811C25.9076 14.4011 25.8829 14.4232 25.827 14.47C26.2416 14.5598 26.6283 14.6427 27.0141 14.7268C27.2668 14.7817 27.5227 14.8258 27.7713 14.8963C28.2566 15.0337 28.6531 15.3053 28.9805 15.6815C29.0451 15.7505 29.1344 15.7928 29.2299 15.7997C29.9744 15.8089 30.7198 15.8121 31.4643 15.7997C31.7108 15.796 31.8896 15.8654 31.9984 16.0829V23.0002H11.291ZM19.8373 20.5857H25.9314V16.3349C25.9314 15.9214 26.0547 15.8045 26.4807 15.8041H27.7767C27.7804 15.7784 27.7845 15.7528 27.7886 15.7271L25.6302 15.2512C25.5953 15.3398 25.5707 15.4006 25.5481 15.4615C25.2559 16.2203 24.9621 16.9782 24.6737 17.7382C24.5993 17.9349 24.4937 18.0819 24.2558 18.0835C24.0179 18.0851 23.9058 17.9469 23.833 17.7462C23.7176 17.4257 23.591 17.1116 23.469 16.7944C23.273 16.2864 23.0766 15.7784 22.8778 15.2624C22.7607 15.2841 22.6604 15.2997 22.5614 15.3213C22.01 15.4418 21.4589 15.5633 20.908 15.6859C20.7437 15.7223 20.6726 15.8061 20.6763 15.9907C20.6902 16.6429 20.6828 17.2959 20.6812 17.9485C20.6812 18.2514 20.5275 18.3976 20.2149 18.4C20.0936 18.4 19.9724 18.4 19.8397 18.4L19.8373 20.5857ZM11.8309 22.1882H31.1635V21.411H11.8325L11.8309 22.1882ZM22.3177 11.6566C22.3177 11.8713 22.3153 12.0628 22.3177 12.2539C22.3309 13.2237 23.0688 14.0093 24.0701 14.1207C25.0069 14.2253 25.9335 13.5947 26.1323 12.6701C26.21 12.3095 26.1845 11.9302 26.1931 11.5588C26.1931 11.5115 26.1274 11.4478 26.076 11.417C25.8032 11.2539 25.5226 11.1025 25.2498 10.9391C25.1553 10.8826 25.0932 10.879 25.0012 10.9547C24.4099 11.4442 23.7217 11.673 22.9468 11.6574C22.7442 11.6534 22.5412 11.6566 22.3177 11.6566ZM22.3338 10.8497C22.5766 10.8497 22.8075 10.8497 23.0384 10.8497C23.6794 10.8481 24.2186 10.6188 24.656 10.1619C24.8956 9.9123 25.0484 9.89107 25.3545 10.0657C25.622 10.2184 25.8887 10.3718 26.1672 10.5308C26.1977 9.62347 25.2046 8.77297 24.1839 8.80823C23.0972 8.84148 22.2245 9.79132 22.3338 10.8497ZM31.1701 17.3957V16.6133H26.7638V17.3953L31.1701 17.3957ZM31.1701 18.2153H26.7663V18.9925H31.1709L31.1701 18.2153ZM31.1701 19.815H26.7667V20.5917H31.1709L31.1701 19.815ZM15.4318 19.1471H16.2536C16.2536 17.9605 16.2536 16.7896 16.2536 15.6186C16.2561 15.5412 16.2352 15.4648 16.1934 15.3989C16.1516 15.3331 16.0907 15.2807 16.0185 15.2484C15.7309 15.1094 15.4376 15.3165 15.4355 15.665C15.4314 16.3108 15.4355 16.9566 15.4355 17.602L15.4318 19.1471ZM18.9884 20.5941V18.416H17.0881V19.1584C17.4932 19.1632 17.8186 19.3062 18.0771 19.591C18.3355 19.8758 18.4086 20.2196 18.3864 20.5925L18.9884 20.5941ZM14.1289 20.5889H17.5565C17.5861 20.135 17.4205 19.9612 16.9706 19.9612C16.2186 19.9612 15.4669 19.9612 14.7152 19.9612C14.2645 19.9612 14.0997 20.1342 14.1289 20.5889V20.5889ZM23.6247 14.9043C23.8265 15.4287 24.0286 15.9543 24.2517 16.5332L24.8759 14.9043H23.6247Z" fill="#D41D12"/>
<path d="M15.8425 12.0039C15.7614 12.0039 15.6821 11.9804 15.6146 11.9366C15.5471 11.8927 15.4944 11.8303 15.4632 11.7573C15.432 11.6843 15.4237 11.6039 15.4393 11.5263C15.4549 11.4486 15.4937 11.3773 15.5508 11.3211C15.608 11.265 15.6809 11.2265 15.7604 11.2107C15.8398 11.1949 15.9223 11.2024 15.9975 11.2322C16.0726 11.262 16.137 11.3129 16.1825 11.3784C16.2281 11.4438 16.2527 11.5209 16.2534 11.6C16.2548 11.6532 16.2452 11.7061 16.2251 11.7555C16.205 11.8049 16.1749 11.8498 16.1365 11.8876C16.0981 11.9253 16.0522 11.9551 16.0017 11.9751C15.9512 11.9951 15.897 12.0048 15.8425 12.0039V12.0039Z" fill="#D41D12"/>
</g>
<defs>
<filter id="filter0_d_1_7" x="0" y="0" width="42" height="42" filterUnits="userSpaceOnUse" color-interpolation-filters="sRGB">
<feFlood flood-opacity="0" result="BackgroundImageFix"/>
<feColorMatrix in="SourceAlpha" type="matrix" values="0 0 0 0 0 0 0 0 0 0 0 0 0 0 0 0 0 0 127 0" result="hardAlpha"/>
<feOffset dy="4"/>
<feGaussianBlur stdDeviation="2"/>
<feComposite in2="hardAlpha" operator="out"/>
<feColorMatrix type="matrix" values="0 0 0 0 0.831373 0 0 0 0 0.113725 0 0 0 0 0.0705882 0 0 0 0.3 0"/>
<feBlend mode="normal" in2="BackgroundImageFix" result="effect1_dropShadow_1_7"/>
<feBlend mode="normal" in="SourceGraphic" in2="effect1_dropShadow_1_7" result="shape"/>
</filter>
<clipPath id="clip0_1_7">
<rect width="21" height="15" fill="white" transform="translate(11 8)"/>
</clipPath>
</defs>
</svg>
