<svg width="65" height="59" viewBox="0 0 65 59" fill="none" xmlns="http://www.w3.org/2000/svg">
<path fill-rule="evenodd" clip-rule="evenodd" d="M39.7991 0.0812565C38.721 0.362913 38.0138 0.915563 37.5578 1.83275L37.2586 2.43414V13.3501C37.2586 22.2712 37.2904 24.356 37.4328 24.7586C37.6544 25.3859 38.3641 26.1728 39.0283 26.5281L39.545 26.8046L50.9046 26.839C63.736 26.8778 63.0276 26.9281 64.0504 25.906C65.0712 24.886 65.0231 25.539 64.9841 13.2137C64.9496 2.30734 64.9496 2.30722 64.675 1.7995C64.3197 1.14277 63.6833 0.538456 63.0442 0.251088C62.5684 0.0370853 61.8253 0.0212191 51.3582 0.0020528C45.2102 -0.00911697 40.0087 0.026423 39.7991 0.0812565ZM45.6759 6.068L45.7096 9.57493L46.0425 9.90761C46.5475 10.4123 47.1847 10.3614 48.2825 9.72902L49.1701 9.21763L49.9554 9.72902C51.0011 10.4099 51.4421 10.4104 52.5162 9.73258C52.9588 9.45333 53.3444 9.22486 53.3734 9.22486C53.4022 9.22486 53.8171 9.45333 54.2953 9.73258C55.3375 10.3412 55.9261 10.3959 56.4637 9.93414L56.8201 9.62799L56.8836 6.09453L56.9472 2.56107L59.4104 2.52655C61.4593 2.49786 61.9239 2.52503 62.1731 2.68813L62.4726 2.88424V13.3747C62.4726 22.9581 62.4545 23.8853 62.2624 24.0973C62.0619 24.3188 61.5487 24.3294 51.0917 24.3294H40.131L39.9333 24.0473C39.7583 23.7977 39.7356 22.5873 39.7356 13.5205C39.7356 7.40901 39.784 3.14863 39.8553 2.96077C39.9213 2.78764 40.0784 2.61857 40.2047 2.58519C40.3309 2.55181 41.606 2.53277 43.0382 2.5428L45.6421 2.56107L45.6759 6.068ZM54.3432 4.65871V6.81968L53.9467 6.61481C53.4286 6.34712 52.9387 6.44904 52.0626 7.00677C51.6817 7.24933 51.3094 7.44785 51.2353 7.44785C51.1613 7.44785 50.8015 7.24654 50.436 7.00055C49.6046 6.44105 49.1633 6.34572 48.6447 6.61367L48.2461 6.81968V4.65871V2.49761H51.2946H54.3432V4.65871ZM9.09741 12.2813C6.14527 12.7139 3.39624 14.474 1.71154 17.0103C0.722034 18.5001 0.139253 20.2791 0.0208679 22.1716C-0.297197 27.2577 3.04871 31.7952 8.13788 33.1793C8.8647 33.377 10.5875 33.4013 28.3035 33.4637L47.6745 33.5318L48.4008 33.872C49.2582 34.2736 50.2675 35.1782 50.7213 35.9519C50.8995 36.2558 51.1383 36.9155 51.2518 37.418C51.4255 38.1864 51.4341 38.462 51.3067 39.153C50.939 41.1477 49.5514 42.6846 47.6783 43.1721C47.0553 43.3343 46.0091 43.3688 41.7211 43.3688H36.5197L37.295 42.5621C38.1504 41.6719 38.3194 41.2707 38.0811 40.6958C37.8657 40.1759 37.4925 39.9417 36.8796 39.9417C36.3856 39.9417 36.2892 40.0192 34.2742 42.0354C31.4851 44.8264 31.4835 44.4618 34.2972 47.2591C36.2921 49.2424 36.4072 49.3345 36.8887 49.3345C37.4929 49.3345 37.8666 49.0982 38.0811 48.5804C38.3194 48.0056 38.1504 47.6043 37.295 46.7142L36.5197 45.9074H41.8546C47.7778 45.9074 48.2355 45.8572 49.8829 45.0263C51.5198 44.2005 53.0413 42.3572 53.6082 40.5129C53.9619 39.3627 53.9841 37.546 53.658 36.4512C52.9345 34.0216 51.0843 32.0658 48.7633 31.2769L47.9285 30.9932L28.5576 30.9298L9.18658 30.8663L8.14309 30.5132C5.649 29.669 3.6433 27.6339 2.86148 25.1545C2.4371 23.8083 2.46758 21.5708 2.92778 20.2886C3.83244 17.7686 5.6852 15.9323 8.1704 15.0925L9.18658 14.7492L18.375 14.6842L27.5636 14.6194L27.87 14.2632C28.1986 13.8814 28.2782 13.206 28.0457 12.7719C27.7056 12.137 27.8014 12.1431 18.4974 12.1597C13.7257 12.1682 9.49575 12.2229 9.09741 12.2813ZM32.1628 12.3401C31.3991 12.7265 31.2438 13.7057 31.8504 14.3118C32.4715 14.9325 33.4529 14.7588 33.8317 13.9612C34.3481 12.8737 33.2386 11.7959 32.1628 12.3401ZM43.9908 18.6381C43.2068 19.0689 43.0488 20.0441 43.6635 20.6583L44.0348 21.0293H46.9124H49.7899L50.1612 20.6583C50.5577 20.2621 50.6607 19.602 50.4017 19.1184C50.1055 18.5652 49.6842 18.4904 46.8869 18.4945C45.2115 18.497 44.1519 18.5495 43.9908 18.6381ZM18.8403 36.6965C16.9719 37.065 15.5531 37.8111 14.2575 39.1063C13.2314 40.1323 12.5595 41.2055 12.0737 42.5951C11.773 43.4545 11.7364 43.7453 11.7364 45.2728C11.7364 46.8153 11.7714 47.0862 12.0861 47.9878C12.2784 48.5387 12.59 49.2526 12.7785 49.5744C13.0525 50.0423 19.1904 58.3947 19.5294 58.7612C19.7111 58.9575 20.3753 59.0635 20.7683 58.959C21.1103 58.868 21.6729 58.1782 24.4514 54.4421C26.2551 52.0169 27.9179 49.681 28.1464 49.2512C28.7472 48.1214 29.066 46.7426 29.0637 45.2842C29.0599 42.8107 28.2837 40.936 26.5295 39.164C25.603 38.2281 25.2702 37.9858 24.2388 37.4959C23.5751 37.1808 22.7672 36.8604 22.4434 36.7841C21.4407 36.5477 19.7974 36.5078 18.8403 36.6965ZM21.6761 39.2463C22.8822 39.5304 23.828 40.0466 24.6944 40.8937C26.6212 42.7775 27.092 45.7053 25.8574 48.1287C25.7152 48.4079 24.425 50.2186 22.9904 52.1525L20.382 55.6684L17.8554 52.2794C14.6507 47.9804 14.2022 47.1205 14.2055 45.2814C14.2107 42.3993 16.2592 39.8544 19.0643 39.2454C20.1123 39.018 20.7075 39.0181 21.6761 39.2463ZM19.1429 41.5133C17.0048 42.2767 15.9344 44.4833 16.6624 46.6272C17.3198 48.5637 19.677 49.688 21.6835 49.0221C22.5574 48.7321 23.6061 47.7668 23.9958 46.8937C24.4128 45.9593 24.4128 44.5862 23.9958 43.6519C23.6213 42.8129 22.6008 41.8607 21.7533 41.5595C21.0235 41.3 19.8006 41.2783 19.1429 41.5133ZM21.3206 44.2411C21.9731 44.8931 21.9731 45.6524 21.3206 46.3045C20.6186 47.0059 19.3485 46.6789 19.0301 45.7149C18.5831 44.3613 20.3214 43.2427 21.3206 44.2411Z" fill="#D41D12"/>
</svg>
