<svg width="64" height="64" viewBox="0 0 64 64" fill="none" xmlns="http://www.w3.org/2000/svg">
<path fill-rule="evenodd" clip-rule="evenodd" d="M31.1694 0.408764C26.5134 3.72673 21.8192 6.07153 16.616 7.67841C13.9421 8.50408 11.8864 8.95551 8.81445 9.3915C7.84664 9.52884 7.13159 9.69255 7.02278 9.80189C6.72973 10.0959 6.63468 10.8147 6.54575 13.4082C6.45895 15.9392 6.64806 20.6938 6.85743 21.2468C7.0114 21.6532 7.41501 21.8548 7.87253 21.754C8.61146 21.591 8.63385 21.4487 8.47951 17.9126C8.39446 15.9648 8.38095 14.0677 8.44461 13.0317L8.5488 11.3371L9.61192 11.1831C13.53 10.6155 17.8605 9.43431 21.5564 7.92497C24.6912 6.64473 28.9568 4.33634 31.1558 2.73034L32 2.11369L32.8442 2.73034C35.0512 4.34224 39.3239 6.65252 42.4534 7.92598C46.2019 9.45114 50.4659 10.6149 54.3881 11.1831L55.4512 11.3371L55.5539 13.0945C55.7372 16.2333 55.372 22.1597 54.753 26.0875C52.5458 40.0949 46.6047 50.2905 37.1878 56.2312C35.8826 57.0545 32.3186 58.8529 31.992 58.8529C31.8808 58.8529 30.8944 58.4053 29.8 57.8582C23.1314 54.5244 18.2442 49.6736 14.4859 42.6586C11.9743 37.9707 10.2178 32.4226 9.23432 26.072C8.96504 24.333 8.80232 23.9056 8.35531 23.7632C7.98609 23.6456 7.41939 23.9125 7.25104 24.2832C6.95099 24.944 8.09753 30.8791 9.29698 34.8747C9.71523 36.2679 10.7625 39.147 11.2377 40.2103C11.4442 40.6722 11.6131 41.1212 11.6131 41.2083C11.6131 41.2955 11.0925 41.6642 10.4562 42.0276C8.08165 43.3839 5.73465 45.3443 5.73465 45.9712C5.73465 46.1495 5.97379 46.7802 6.26621 47.3728C6.71447 48.2813 6.76838 48.4674 6.61016 48.5605C6.50698 48.6212 5.01548 49.6201 3.29573 50.7804C-0.0448496 53.0341 -0.2172 53.203 0.120872 53.8909C0.253325 54.1607 0.932221 54.5958 3.01431 55.7455L5.73465 57.2476V60.3157V63.3837L6.04171 63.6918C6.21056 63.8613 6.46958 64 6.61742 64C6.93123 64 17.4485 57.821 17.7729 57.446C18.1115 57.0547 18.0446 56.7311 17.3078 55.1977L16.6238 53.7741L17.3963 53.4221C17.8212 53.2283 18.4327 52.9759 18.7551 52.861L19.3412 52.652L20.3238 53.5766C22.4989 55.6232 25.3145 57.6532 27.8726 59.019C29.4216 59.8462 31.6963 60.8616 32 60.8616C32.3037 60.8616 34.5784 59.8462 36.1274 59.019C38.6855 57.6532 41.501 55.6232 43.6762 53.5766L44.6588 52.652L45.2449 52.861C45.5673 52.9759 46.1788 53.2283 46.6037 53.4221L47.3762 53.7741L46.6922 55.1977C45.9554 56.7311 45.8885 57.0547 46.2271 57.446C46.5515 57.821 57.0688 64 57.3826 64C57.5304 64 57.7894 63.8613 57.9583 63.6918L58.2653 63.3837V60.3157V57.2476L60.9857 55.7455C63.0678 54.5958 63.7467 54.1607 63.8791 53.8909C64.2172 53.203 64.0448 53.0341 60.7043 50.7804C58.9845 49.6201 57.493 48.6212 57.3898 48.5605C57.2316 48.4674 57.2855 48.2813 57.7338 47.3728C58.0261 46.7802 58.2653 46.1495 58.2653 45.9712C58.2653 45.3431 55.9181 43.3838 53.5338 42.0219C52.5571 41.4641 52.3767 41.3132 52.4272 41.0967C52.4604 40.9546 52.7671 40.1603 53.1088 39.3318C55.8978 32.5683 57.4125 24.2426 57.4365 15.5424C57.4476 11.5182 57.3602 10.2904 57.0339 9.88575C56.8611 9.67171 56.5248 9.58157 55.1988 9.39339C50.6812 8.75227 46.3141 7.55011 42.4436 5.88234C39.4402 4.58817 35.7258 2.51065 33.558 0.912673C32.0499 -0.198965 32.0286 -0.203485 31.1694 0.408764ZM31.1057 7.46764C25.623 11.2515 20.8246 13.1828 14.4843 14.1573C13.563 14.2989 12.8805 14.4675 12.7668 14.5816C12.2179 15.1325 12.2417 21.2336 12.8103 25.7737C13.6393 32.3921 15.8247 38.7899 18.7659 43.2079C19.745 44.6787 20.2342 44.9698 20.8494 44.4475C21.3778 43.9985 21.3164 43.6944 20.4121 42.2814C16.8937 36.7841 14.9075 30.1891 14.3694 22.2172C14.2307 20.161 14.1978 16.7783 14.3124 16.3499C14.3723 16.1261 14.5712 16.0601 15.7566 15.8704C20.8475 15.0557 26.3886 12.889 30.718 10.0201L32 9.17056L33.282 10.0206C37.6115 12.8909 43.1444 15.0544 48.2422 15.8703L49.616 16.0901L49.6985 16.5312C49.7437 16.7738 49.7634 18.1818 49.7421 19.6601C49.7033 22.348 49.7033 22.348 49.9959 22.5858C50.3787 22.897 50.9408 22.8888 51.2387 22.5678C51.5373 22.2461 51.6371 21.2655 51.6277 18.7436C51.6187 16.3168 51.4775 14.8268 51.2332 14.5816C51.1195 14.4675 50.437 14.2989 49.5157 14.1573C43.2449 13.1934 38.1989 11.1708 32.9524 7.51823C32.5476 7.2364 32.1171 7.00578 31.9957 7.00578C31.8743 7.00578 31.4738 7.21355 31.1057 7.46764ZM39.0666 21.7601C38.7915 21.8596 38.5401 21.9419 38.5078 21.9429C38.4757 21.9439 36.437 23.9618 33.9773 26.427L29.5053 30.9092L27.7196 29.1465C25.6459 27.0996 25.2816 26.8941 23.9009 26.9933C22.9527 27.0613 22.4989 27.2567 21.8903 27.859C20.9786 28.7611 20.664 30.041 21.0571 31.2488C21.2575 31.8644 21.557 32.2079 24.3948 35.0764C27.8917 38.6113 28.1755 38.8191 29.4985 38.8145C30.9025 38.8096 30.9675 38.7561 37.2157 32.4678C43.396 26.2477 43.374 26.2749 43.3789 24.8595C43.3836 23.501 42.8039 22.5532 41.5987 21.9486C40.7402 21.518 39.9076 21.4561 39.0666 21.7601ZM41.0803 23.8781C41.4464 24.2455 41.5056 24.3891 41.5056 24.9109V25.5169L35.846 31.1858C30.025 37.0164 29.9728 37.0609 29.1546 36.9118C28.6252 36.8153 23.0334 31.2047 22.8482 30.5843C22.5739 29.6653 23.2174 28.8494 24.2165 28.8494C24.7769 28.8494 24.7873 28.8575 26.9274 30.9835C28.8632 32.9065 29.1178 33.1177 29.5022 33.1177C29.8961 33.1177 30.2869 32.7595 34.6227 28.4252C37.2044 25.8444 39.4293 23.6712 39.5669 23.5959C40.0707 23.3199 40.6278 23.4239 41.0803 23.8781ZM49.7385 24.9625C49.4616 25.1247 49.3191 25.6178 49.069 27.2802C47.5561 37.3321 43.0925 45.1045 36.2532 49.5965C34.9406 50.4586 32.3477 51.8228 32.0218 51.8228C31.7491 51.8228 29.8726 50.9065 28.5985 50.1514C27.0611 49.24 25.6595 48.1783 24.2642 46.8682C23.3007 45.9635 23.0581 45.797 22.7033 45.797C22.1849 45.797 21.8274 46.1591 21.8274 46.6843C21.8274 46.985 21.9982 47.2406 22.6299 47.886C24.048 49.3343 26.2586 51.0108 28.1997 52.1102C29.2855 52.7251 31.7186 53.8314 31.9851 53.8314C32.2703 53.8314 34.2597 52.9309 35.5646 52.2111C41.4321 48.9749 45.8385 43.6691 48.6098 36.5028C49.6792 33.7377 50.915 28.6946 51.094 26.3659C51.1637 25.4584 51.1466 25.3447 50.9033 25.1006C50.6221 24.8184 50.0918 24.7556 49.7385 24.9625ZM12.7835 43.4902C13.5047 45.008 15.9899 48.7685 17.4018 50.4783C17.675 50.8091 17.8772 51.0962 17.8514 51.1164C17.8253 51.1368 16.9881 51.5515 15.9906 52.0382C14.9932 52.5251 13.7375 53.2406 13.2001 53.6284C12.6628 54.0162 12.1752 54.3336 12.1165 54.3336C12.0578 54.3336 11.0663 52.5158 9.91297 50.294L7.81624 46.2545L8.37019 45.7591C9.18267 45.0322 12.1578 43.0731 12.4967 43.0417C12.5355 43.0381 12.6647 43.2399 12.7835 43.4902ZM52.2324 43.4359C53.2966 44.0303 54.9998 45.1948 55.6298 45.7587L56.1838 46.2545L54.087 50.294C52.9337 52.5158 51.9421 54.3336 51.8835 54.3336C51.8248 54.3336 51.3372 54.0162 50.7999 53.6284C50.2625 53.2406 49.0068 52.5251 48.0094 52.0382C47.0119 51.5515 46.1784 51.1406 46.1573 51.1251C46.136 51.1095 46.6891 50.3572 47.3862 49.453C48.6872 47.7659 50.2449 45.3729 51.0144 43.8794C51.2534 43.4155 51.4637 43.0359 51.482 43.0357C51.5003 43.0354 51.838 43.2154 52.2324 43.4359ZM9.7525 54.0396C10.8636 56.1817 11.1951 56.7206 11.4655 56.8244C11.6499 56.8952 12.3623 57.0451 13.0485 57.1574C13.7348 57.2697 14.3053 57.3724 14.3163 57.3854C14.3273 57.3986 12.8371 58.2962 11.0047 59.3802L7.67328 61.3512L7.61075 58.7736C7.55271 56.3812 7.5302 56.1826 7.29807 56.0103C7.16049 55.9082 6.07297 55.2849 4.88128 54.6252L2.71464 53.4259L5.19396 51.7647L7.67328 50.1035L8.02399 50.7434C8.21685 51.0955 8.99468 52.5787 9.7525 54.0396ZM61.2432 53.3961C61.2645 53.4135 60.3077 53.9671 59.117 54.6262C57.9263 55.2854 56.8395 55.9082 56.7019 56.0103C56.4698 56.1826 56.4473 56.3812 56.3892 58.7736L56.3267 61.3512L52.9953 59.3802C51.1629 58.2962 49.6727 57.3986 49.6837 57.3854C49.6947 57.3724 50.2652 57.2697 50.9514 57.1574C51.6377 57.0451 52.3486 56.8958 52.5312 56.8258C52.8006 56.7223 53.1881 56.075 54.5849 53.3944L56.3067 50.0907L58.7556 51.7274C60.1025 52.6276 61.2219 53.3785 61.2432 53.3961ZM15.1837 55.0985C15.2937 55.312 15.3558 55.5148 15.3218 55.549C15.2876 55.5832 14.9598 55.5625 14.5933 55.503L13.9269 55.3948L14.425 55.0524C14.6989 54.8642 14.9367 54.7102 14.9533 54.7102C14.97 54.7102 15.0736 54.8849 15.1837 55.0985ZM49.8968 55.2901C49.9798 55.3895 49.826 55.4556 49.3723 55.516C49.0193 55.5631 48.7049 55.5757 48.6735 55.5441C48.642 55.5126 48.7073 55.3103 48.8183 55.0945L49.0204 54.7023L49.4 54.9259C49.6088 55.0489 49.8323 55.2128 49.8968 55.2901Z" fill="#D41D12"/>
</svg>
