<svg width="56" height="56" viewBox="0 0 56 56" fill="none" xmlns="http://www.w3.org/2000/svg">
<g clip-path="url(#clip0_21_35)">
<path d="M46.9052 0C47.1363 0.0975362 47.3719 0.184113 47.5965 0.2948C48.9604 0.962211 49.5169 2.09867 49.5169 3.57486C49.5169 11.4852 49.5169 19.3958 49.5169 27.3068V28.0071C49.8587 27.5973 50.0964 27.2827 50.3638 26.9945C50.906 26.3923 51.6559 26.0174 52.4629 25.945C53.2699 25.8726 54.0745 26.1082 54.7152 26.6044C56.0452 27.6246 56.4264 29.4998 55.4525 30.9036C54.1455 32.7875 52.7345 34.6001 51.3596 36.4369C48.6208 40.098 45.8787 43.7565 43.1333 47.4124C41.8997 49.0563 40.0209 49.4048 38.4411 48.2749C38.1492 48.0583 37.8908 47.7999 37.6743 47.5078C35.9598 45.2414 34.2453 42.9751 32.5582 40.689C31.1208 38.7416 31.9009 36.2166 34.1226 35.5119C35.4569 35.09 36.834 35.5755 37.774 36.8139C38.5332 37.8144 39.2814 38.8249 40.0362 39.8298C40.1326 39.958 40.2378 40.0797 40.3747 40.2485C41.4703 38.7909 42.5373 37.3706 43.6044 35.9481C44.8828 34.244 46.1668 32.5431 47.4277 30.8258C47.5942 30.5956 47.6881 30.3208 47.6972 30.0368C47.7111 21.1964 47.7144 12.356 47.7071 3.51569C47.7071 2.32333 47.1593 1.7688 45.9751 1.7688C33.5847 1.7688 21.1943 1.7688 8.80388 1.7688C7.6492 1.7688 7.09267 2.33539 7.09158 3.47952C7.09158 6.01327 7.09158 8.54702 7.0861 11.0808C7.09322 11.3343 7.05805 11.5873 6.98202 11.8293C6.84618 12.2117 6.51643 12.455 6.1319 12.3422C5.84268 12.2578 5.56332 12.0134 5.37598 11.7591C5.25328 11.5969 5.28067 11.3054 5.27958 11.0709C5.273 9.37553 5.27958 7.68015 5.27958 5.98587V5.35463C4.46451 5.35463 3.70092 5.30421 2.9483 5.37106C2.38191 5.42148 1.99629 5.8182 1.85277 6.3804C1.79041 6.6646 1.76245 6.95528 1.76951 7.24617C1.76951 21.081 1.76951 34.9154 1.76951 48.7494C1.7637 49.0042 1.78278 49.2589 1.82648 49.51C1.96232 50.1928 2.46408 50.6311 3.15864 50.6585C3.83129 50.6826 4.50504 50.664 5.27848 50.664V49.9144C5.27848 38.4855 5.27848 27.057 5.27848 15.6288C5.27848 15.3395 5.23795 14.9921 5.37817 14.7773C5.55455 14.5066 5.89526 14.1866 6.17024 14.1822C6.44522 14.1778 6.78921 14.4912 6.98202 14.7532C7.12006 14.9417 7.085 15.277 7.085 15.5466C7.08939 27.7952 7.08939 40.0439 7.085 52.2925C7.085 53.7468 7.56813 54.2367 9.00546 54.2367H45.7932C47.2021 54.2367 47.7027 53.738 47.7027 52.3353C47.7027 49.4925 47.7027 46.6489 47.7027 43.8047C47.7027 42.8907 47.9996 42.448 48.6043 42.4458C49.2091 42.4436 49.5082 42.8918 49.5092 43.8003C49.5092 46.7165 49.5169 49.6328 49.5092 52.549C49.5016 54.6312 48.119 55.9978 46.0386 55.9989H8.76335C7.06638 55.9989 5.81858 55.1014 5.41652 53.5824C5.32778 53.2536 5.30697 52.9019 5.23466 52.4635C2.9965 52.641 0.843793 52.5347 -0.00195312 49.876V6.12505C0.0441427 6.05141 0.0847859 5.97449 0.11965 5.89491C0.642216 4.37378 1.77499 3.54747 3.39527 3.51788C4.00877 3.50692 4.62336 3.51788 5.25767 3.51788C5.32668 2.60169 5.45157 1.72168 6.12532 1.1255C6.63912 0.671794 7.28439 0.369322 7.87159 0H46.9052ZM35.0998 37.1668C34.5027 37.1668 34.0415 37.4155 33.7698 37.9547C33.4642 38.5586 33.6044 39.1131 33.9966 39.6337C35.6589 41.8459 37.3193 44.0597 38.978 46.2749C39.8664 47.4563 40.8732 47.4486 41.7617 46.2639L50.4788 34.6473C51.6039 33.1469 52.7334 31.651 53.8486 30.1431C54.2967 29.537 54.312 28.9189 53.9417 28.3666C53.5999 27.857 52.9612 27.5731 52.3653 27.8022C51.9847 27.9616 51.6532 28.2191 51.4045 28.5485C48.0361 33.0052 44.6791 37.4732 41.3333 41.9526C40.6311 42.8885 40.0877 42.8819 39.3756 41.9329C38.359 40.5783 37.3438 39.2231 36.3301 37.867C36.02 37.4451 35.641 37.1668 35.0998 37.1668Z" fill="#D41D12"/>
<path d="M27.3882 12.3834H14.9277C13.9691 12.3834 13.5714 12.128 13.5626 11.5067C13.5539 10.8853 13.9559 10.6113 14.9003 10.6113H39.9287C40.1286 10.5962 40.3295 10.6031 40.5279 10.6321C40.9935 10.7417 41.2531 11.0453 41.2312 11.5341C41.2104 11.9921 40.9563 12.2782 40.5016 12.3505C40.2835 12.3761 40.0637 12.3845 39.8443 12.3757C35.6937 12.3808 31.5417 12.3834 27.3882 12.3834Z" fill="#D41D12"/>
<path d="M23.9455 22.4043H32.7469C32.8937 22.4043 33.0394 22.4043 33.1851 22.4043C33.7899 22.4306 34.1711 22.7627 34.1854 23.2657C34.1996 23.7687 33.78 24.1654 33.1643 24.1665C29.3563 24.1709 25.5479 24.1709 21.7391 24.1665C19.3519 24.1665 16.9648 24.1665 14.5776 24.1665C13.8228 24.1665 13.3649 23.5703 13.6234 22.961C13.8042 22.5325 14.1602 22.4054 14.5974 22.4065C16.5112 22.4065 18.424 22.4065 20.3379 22.4065L23.9455 22.4043Z" fill="#D41D12"/>
<path d="M23.8918 28.8831H14.8713C14.6885 28.8922 14.5053 28.8864 14.3235 28.8656C13.8502 28.7845 13.572 28.4984 13.5665 28.0108C13.561 27.5231 13.8316 27.2305 14.3027 27.134C14.4842 27.1103 14.6676 27.1037 14.8504 27.1143H33C33.7669 27.1209 34.1974 27.4486 34.1843 28.014C34.1711 28.562 33.7548 28.8776 33.0208 28.8776C29.9775 28.8827 26.9345 28.8846 23.8918 28.8831Z" fill="#D41D12"/>
<path d="M20.9051 41.8756C18.8839 41.8756 16.8627 41.8756 14.8414 41.8756C14.6081 41.8756 14.3057 41.9041 14.1567 41.7769C13.9069 41.5643 13.655 41.2597 13.5859 40.9528C13.4994 40.5649 13.7831 40.2657 14.172 40.1506C14.3818 40.0928 14.5986 40.0647 14.8162 40.0673C18.877 40.0622 22.9377 40.0622 26.9985 40.0673C27.0719 40.0673 27.1442 40.0673 27.2176 40.0673C27.8749 40.1013 28.3043 40.4673 28.2923 40.9901C28.2802 41.5128 27.8595 41.8767 27.1869 41.8789C25.0933 41.88 22.9987 41.8745 20.9051 41.8756Z" fill="#D41D12"/>
<path d="M27.442 17.0963C25.4408 17.0963 23.4386 17.0963 21.4352 17.0963C21.2352 17.1009 21.035 17.0929 20.836 17.0722C20.3518 17.0086 20.0198 16.6415 20.0275 16.1955C20.0394 15.9752 20.1297 15.7664 20.2819 15.6069C20.4342 15.4473 20.6385 15.3475 20.8579 15.3253C20.985 15.3138 21.1127 15.3105 21.2402 15.3154C25.355 15.3154 29.4694 15.3154 33.5835 15.3154C33.7467 15.3032 33.9108 15.3139 34.071 15.3472C34.5224 15.4809 34.793 15.7856 34.7524 16.2711C34.7152 16.7193 34.4599 17.0086 33.9943 17.0634C33.7957 17.0844 33.5959 17.0939 33.3962 17.0919C31.4111 17.0948 29.4264 17.0963 27.442 17.0963Z" fill="#D41D12"/>
<path d="M16.7891 46.5847C16.0606 46.5847 15.3332 46.5946 14.6057 46.5847C13.9638 46.5749 13.5748 46.2362 13.5628 45.708C13.5507 45.1798 13.9155 44.8028 14.563 44.7929C16.0551 44.7695 17.5472 44.7695 19.0393 44.7929C19.6966 44.8039 20.0373 45.1732 20.0187 45.719C20.0001 46.2647 19.6265 46.5738 18.9725 46.5825C18.2451 46.5935 17.5165 46.5858 16.7891 46.5847Z" fill="#D41D12"/>
<path d="M39.7758 27.124C39.9752 27.124 40.1746 27.1131 40.3729 27.124C40.8944 27.1602 41.2285 27.4999 41.2351 27.9854C41.2412 28.0989 41.2241 28.2125 41.1849 28.3193C41.1458 28.426 41.0853 28.5237 41.0072 28.6063C40.9291 28.6889 40.835 28.7548 40.7307 28.7999C40.6264 28.845 40.5139 28.8684 40.4003 28.8687C39.9843 28.8923 39.5674 28.8923 39.1514 28.8687C38.9224 28.8605 38.7056 28.7639 38.5463 28.5992C38.387 28.4346 38.2976 28.2146 38.2969 27.9854C38.3056 27.5229 38.6715 27.1591 39.1733 27.1251C39.376 27.1131 39.5764 27.124 39.7758 27.124Z" fill="#D41D12"/>
<path d="M39.7672 24.164C39.5481 24.164 39.329 24.1815 39.1099 24.164C38.8912 24.1438 38.6873 24.0448 38.536 23.8856C38.3847 23.7264 38.2963 23.5177 38.2871 23.2982C38.286 23.0784 38.3684 22.8663 38.5177 22.7049C38.667 22.5436 38.872 22.445 39.0912 22.4292C39.5253 22.4012 39.9608 22.4012 40.3949 22.4292C40.9175 22.4588 41.2341 22.8171 41.2253 23.3059C41.2166 23.7947 40.8791 24.1333 40.3599 24.1684C40.1616 24.1815 39.9622 24.1684 39.7628 24.1684L39.7672 24.164Z" fill="#D41D12"/>
</g>
<defs>
<clipPath id="clip0_21_35">
<rect width="56" height="56" fill="white"/>
</clipPath>
</defs>
</svg>
