<svg width="69" height="69" viewBox="0 0 69 69" fill="none" xmlns="http://www.w3.org/2000/svg">
<path d="M68.8096 48.6298C68.7403 48.762 68.6779 48.8977 68.6224 49.0364C67.9991 50.7983 66.5679 51.8555 64.718 51.8989C63.8254 51.9192 62.9327 51.8989 61.9163 51.8989C61.8247 52.5766 61.6699 53.2109 61.6658 53.8452C61.6429 57.8584 61.6591 61.873 61.651 65.8876C61.651 67.2538 60.8028 68.1226 59.5911 67.9572C59.1966 67.903 58.7927 67.6712 58.4629 67.4246C57.2242 66.4989 56.0152 65.5271 54.7698 64.5634C53.476 65.5664 52.2117 66.5626 50.9233 67.5452C50.1963 68.0995 49.41 68.147 48.7395 67.7092C48.069 67.2714 47.8698 66.6141 47.8711 65.8456C47.8778 61.8988 47.8846 57.9519 47.863 54.0051C47.863 53.3274 47.7163 52.6498 47.6314 51.9057H46.6459C32.5806 51.9057 18.5139 51.8867 4.44853 51.9233C1.98335 51.9274 0.404081 50.3036 0.0796104 48.5905C0.0241543 48.2805 -0.00243934 47.9661 0.000175612 47.6512C0.000175612 33.194 0.000175612 18.7368 0.000175612 4.2796C0.000175612 1.86841 1.71408 0.0576476 4.11463 0.0508708C13.3641 0.0264743 22.6144 0.0224082 31.8657 0.0386726C32.6412 0.0386726 33.0774 0.445281 33.0545 1.09179C33.0316 1.7383 32.5873 2.07172 31.7876 2.07172H4.64105C2.77232 2.07172 2.01163 2.84834 2.01163 4.75127C2.01163 18.9139 2.0049 33.0761 1.99143 47.2378C1.99143 48.6623 2.75885 49.8875 4.62355 49.8808C17.7707 49.8347 30.9192 49.8564 44.0717 49.8564H44.823C44.7785 49.0825 44.7381 48.3655 44.6883 47.5522H10.7818C9.24154 47.5522 8.84437 47.2514 8.39469 45.7564C8.02713 44.5366 7.23548 43.764 6.00895 43.4279C4.69895 43.0701 4.3085 42.5361 4.3085 41.1509V10.7745C4.3085 9.40287 4.6976 8.88919 6.0278 8.51511C7.30549 8.15594 8.0958 7.31968 8.44181 6.04293C8.78244 4.79328 9.30213 4.38532 10.596 4.38532H58.1693C59.5157 4.38532 60.0165 4.77295 60.3706 6.06868C60.7247 7.3644 61.5702 8.19389 62.8749 8.54628C64.0718 8.87157 64.5053 9.43269 64.5053 10.6661C64.5053 14.9951 64.5053 19.325 64.5053 23.6559C64.5053 24.4867 64.1202 24.9529 63.4646 24.9421C62.8587 24.9313 62.4858 24.4975 62.4817 23.7467C62.4736 21.6946 62.4817 19.6426 62.4817 17.5893C62.4817 15.4478 62.475 13.305 62.4817 11.1621C62.4817 10.7555 62.4144 10.5454 61.9593 10.3991C60.2198 9.84336 59.0512 8.65606 58.5032 6.91307C58.3686 6.4902 58.1747 6.41565 57.7937 6.41701C42.2047 6.42424 26.6158 6.42424 11.0268 6.41701C10.6579 6.41701 10.4411 6.46038 10.3052 6.89816C9.7545 8.67639 8.56298 9.86369 6.80464 10.4221C6.41824 10.5454 6.33207 10.7203 6.33207 11.0849C6.34015 21.007 6.34015 30.9296 6.33207 40.8527C6.33207 41.2593 6.46671 41.4179 6.85715 41.5439C8.5926 42.1078 9.75181 43.2937 10.3105 45.0381C10.429 45.4081 10.5704 45.5328 10.9514 45.5314C21.7698 45.5215 32.5882 45.5183 43.4066 45.5219C43.4928 45.5219 43.5789 45.5057 43.727 45.4907C43.5587 44.2113 43.8065 43.0674 44.7489 42.1457C44.8297 42.0671 44.8283 41.8638 44.8068 41.7269C44.4729 39.5963 45.2471 38.2368 47.2073 37.4819C47.3913 37.3942 47.5355 37.2397 47.6113 37.0495C48.3167 35.1412 49.795 34.2887 51.7849 34.6343C52.0133 34.6499 52.2388 34.5766 52.415 34.4296C53.896 33.1827 55.6463 33.1854 57.1192 34.4296C57.3165 34.58 57.5645 34.6462 57.8099 34.614C59.6248 34.2711 61.2337 35.1846 61.8611 36.9289C61.9432 37.1553 62.1236 37.3437 62.2582 37.551L62.479 37.467V36.7622C62.479 34.1233 62.479 31.4858 62.479 28.8469C62.479 28.0811 62.8385 27.6718 63.4632 27.6623C64.1122 27.6542 64.4864 28.0906 64.5026 28.8821C64.5026 29.0177 64.5026 29.1532 64.5026 29.2887C64.5026 32.135 64.4797 34.9718 64.5161 37.8126C64.5282 38.7248 64.8203 39.6396 64.7719 40.541C64.6957 41.4717 64.9385 42.4006 65.4599 43.1731C66.2273 44.3644 65.9136 45.8757 64.9927 47.0047C64.8311 47.2026 64.7799 47.5319 64.7678 47.8057C64.7369 48.4685 64.7571 49.1326 64.7571 49.8035C65.7601 49.8604 66.6056 49.1326 66.7766 47.9833C66.8057 47.7132 66.8152 47.4414 66.8049 47.17C66.8049 33.03 66.8049 18.889 66.8049 4.7472C66.8049 2.84969 66.0374 2.07849 64.1647 2.07849H37.3453C37.1209 2.08761 36.8962 2.08444 36.6721 2.069C36.5432 2.06126 36.4171 2.02786 36.301 1.97075C36.185 1.91364 36.0814 1.83395 35.9961 1.73628C35.9109 1.6386 35.8457 1.52489 35.8043 1.4017C35.763 1.27852 35.7463 1.14831 35.7553 1.0186C35.7903 0.443926 36.108 0.110507 36.6816 0.0562923C36.9266 0.0318958 37.1743 0.0413833 37.4207 0.0413833C46.0899 0.0359618 54.759 0.0915317 63.4255 0.000722431C66.0213 -0.0263848 67.9156 0.7028 68.8109 3.29696L68.8096 48.6298ZM62.7725 41.0113C62.7833 40.0625 62.2986 39.5421 61.4545 39.416C60.582 39.2872 60.1418 38.8657 59.9815 38.0051C59.7459 36.7473 59.0552 36.3448 57.8705 36.7758C57.0626 37.0699 56.512 36.9113 55.9721 36.2472C55.2357 35.335 54.2865 35.3269 53.5594 36.2282C52.994 36.9289 52.4824 37.0414 51.6032 36.7703C51.2293 36.6529 50.8321 36.6319 50.448 36.7094C49.8583 36.8449 49.6187 37.3274 49.5473 37.9143C49.4517 38.7112 49.0397 39.2493 48.2238 39.4052C46.8775 39.66 46.4844 40.3133 46.9354 41.5941C47.1925 42.3273 47.0391 42.9088 46.4534 43.4062C45.4517 44.2601 45.4409 45.057 46.4184 45.9177C47.0741 46.4951 47.206 47.0128 46.9058 47.8436C46.5019 48.9496 46.9206 49.7059 48.0542 49.939C49.0734 50.1478 49.3642 50.4432 49.554 51.4652C49.7493 52.5196 50.5248 52.9737 51.5278 52.6199C52.5308 52.2662 52.9132 52.3719 53.6294 53.2095C54.2945 53.9875 55.2047 53.9929 55.8792 53.2231C56.648 52.3462 56.928 52.2743 58.0334 52.643C58.9031 52.9344 59.824 52.5224 59.9183 51.6807C60.0448 50.5476 60.6157 50.0326 61.7035 49.8645C61.8995 49.8351 62.0861 49.7604 62.2486 49.6463C62.4111 49.5322 62.5452 49.3817 62.6403 49.2067C62.7353 49.0317 62.7889 48.8369 62.7966 48.6375C62.8044 48.4382 62.7662 48.2398 62.685 48.0578C62.2946 47.1023 62.4534 46.3866 63.2815 45.7537C63.8967 45.2834 64.0893 44.4498 63.5723 43.9687C62.5975 43.0511 62.0778 42.1335 62.7725 41.0113V41.0113ZM56.034 55.7481H53.515V62.9004C54.3821 62.3081 55.198 62.3108 56.034 62.9383V55.7481ZM58.1882 54.8604C58.1555 54.9224 58.1323 54.9892 58.1195 55.0582C58.1133 58.125 58.1133 61.1917 58.1195 64.2584C58.1269 64.4319 58.2002 64.5959 58.3242 64.7166C58.6877 65.0337 59.0835 65.3129 59.5453 65.6653V54.7248L58.1882 54.8604ZM49.9916 65.5894C50.9462 65.1015 51.4982 64.5458 51.4457 63.3531C51.3326 60.7657 51.412 58.1702 51.4093 55.5787C51.4093 55.3402 51.3878 55.1016 51.3757 54.859L49.9916 54.7343V65.5894Z" fill="#D41D12"/>
<path d="M34.405 10.8955C37.227 10.8955 40.0489 10.8955 42.8709 10.8955C44.6737 10.8955 45.6875 11.9324 45.6901 13.7554C45.6901 16.565 44.9429 17.3254 42.1627 17.3254C36.7647 17.3254 31.3668 17.3254 25.9688 17.3254C24.5416 17.3254 23.5036 16.7128 23.2599 15.4916C23.086 14.5891 23.0824 13.6617 23.2491 12.7578C23.4699 11.5719 24.5147 10.901 25.8072 10.8982C28.6776 10.8901 31.5373 10.8955 34.405 10.8955ZM34.3727 15.2395C37.1704 15.2395 39.9695 15.2395 42.7686 15.23C43.0378 15.23 43.5077 15.1229 43.5279 15.0036C43.6445 14.4425 43.6573 13.8644 43.5656 13.2986C43.5306 13.1278 42.9355 12.9774 42.5962 12.976C37.1327 12.957 31.6692 12.9625 26.2071 12.9625H25.8032C25.3279 12.9625 25.1125 13.2146 25.13 13.6849C25.1367 13.8882 25.13 14.0915 25.13 14.2934C25.13 15.15 25.2135 15.2422 26.0442 15.2422C28.8195 15.2431 31.5956 15.2422 34.3727 15.2395V15.2395Z" fill="#D41D12"/>
<path d="M34.3328 28.3284C28.9797 28.3284 23.627 28.3284 18.2748 28.3284C17.9873 28.3405 17.7002 28.2944 17.4306 28.1929C16.9904 27.9991 16.7575 27.5613 16.9433 27.1398C17.09 26.805 17.471 26.561 17.7807 26.3198C17.8803 26.2439 18.0863 26.3035 18.2425 26.3035H50.5644C50.721 26.2947 50.878 26.2974 51.0343 26.3117C51.5728 26.3943 51.8784 26.7183 51.9013 27.2604C51.9255 27.8364 51.6226 28.197 51.0652 28.3095C50.8419 28.3368 50.6164 28.3422 50.3921 28.3257L34.3328 28.3284Z" fill="#D41D12"/>
<path d="M34.4271 30.5927H50.2831C50.5293 30.5868 50.7756 30.5945 51.0209 30.6158C51.5675 30.6781 51.8651 31.0061 51.9014 31.551C51.9378 32.0958 51.6416 32.4496 51.1407 32.6014C50.9218 32.6479 50.6973 32.6625 50.4743 32.6448C39.7681 32.6448 29.0623 32.6448 18.357 32.6448C18.1557 32.6598 17.9533 32.6517 17.7539 32.6204C17.2153 32.493 16.8801 32.1582 16.9057 31.5713C16.9312 30.9844 17.2544 30.6619 17.8306 30.609C18.0756 30.586 18.3234 30.5914 18.5698 30.5914L34.4271 30.5927Z" fill="#D41D12"/>
<path d="M34.4046 36.7474H26.7439C26.5194 36.7537 26.2947 36.7482 26.0707 36.7312C25.4945 36.6729 25.17 36.3246 25.1457 35.7621C25.1215 35.1996 25.4608 34.8418 26.0047 34.7225C26.2045 34.6944 26.4067 34.6881 26.6079 34.7036C31.8048 34.7036 37.0013 34.7036 42.1973 34.7036C42.3985 34.6881 42.6007 34.6944 42.8005 34.7225C43.339 34.8432 43.6823 35.1861 43.6581 35.7634C43.6339 36.3408 43.3094 36.6946 42.7332 36.7271C42.1071 36.7637 41.4797 36.7461 40.8483 36.7474H34.4046Z" fill="#D41D12"/>
<path d="M34.4304 22.6351C32.7959 22.6351 31.1615 22.6351 29.527 22.6351C28.7192 22.6351 28.2264 22.2285 28.2426 21.5847C28.2574 20.9761 28.7259 20.5953 29.5095 20.5939C32.7784 20.5885 36.0474 20.5885 39.3163 20.5939C40.0945 20.5939 40.5644 20.987 40.5684 21.5996C40.5684 22.2366 40.0824 22.6324 39.2652 22.6337C37.6536 22.6351 36.042 22.6351 34.4304 22.6351Z" fill="#D41D12"/>
<path d="M61.1998 44.6578C61.1974 46.3773 60.5214 48.0265 59.3185 49.2473C58.1157 50.4681 56.483 51.162 54.775 51.1784C51.257 51.1893 48.3287 48.2509 48.3125 44.6903C48.3082 42.9692 48.9833 41.3169 50.1892 40.0968C51.3951 38.8768 53.033 38.1889 54.7427 38.1846C56.4524 38.1803 58.0937 38.8599 59.3057 40.0738C60.5176 41.2878 61.2009 42.9367 61.2052 44.6578H61.1998ZM50.3724 44.647C50.3711 45.5209 50.6273 46.3756 51.1085 47.103C51.5897 47.8304 52.2744 48.3978 53.076 48.7334C53.8776 49.069 54.76 49.1578 55.6117 48.9885C56.4634 48.8192 57.2461 48.3995 57.8608 47.7824C58.4755 47.1653 58.8947 46.3785 59.0652 45.5216C59.2357 44.6646 59.1499 43.776 58.8187 42.9682C58.4876 42.1603 57.9258 41.4695 57.2046 40.983C56.4834 40.4966 55.6351 40.2363 54.7669 40.2353C54.1897 40.2309 53.6173 40.342 53.083 40.5621C52.5487 40.7821 52.0631 41.1067 51.6543 41.5171C51.2455 41.9274 50.9218 42.4154 50.7017 42.9526C50.4817 43.4899 50.3698 44.0658 50.3724 44.647V44.647Z" fill="#D41D12"/>
</svg>
