<svg width="57" height="57" viewBox="0 0 57 57" fill="none" xmlns="http://www.w3.org/2000/svg">
<path d="M45.7312 56.9899C45.1038 56.8367 44.458 56.7331 43.8514 56.5213C39.9317 55.1549 37.5959 52.4255 36.8788 48.3262C36.8488 48.1593 36.8085 47.9935 36.7717 47.822H29.4135C29.4135 48.15 29.4135 48.4517 29.4135 48.7521C29.4132 49.4687 29.1298 50.1561 28.6251 50.6647C28.1203 51.1733 27.4351 51.4619 26.7186 51.4677C21.7793 51.4785 16.8393 51.4785 11.8985 51.4677C11.1819 51.4638 10.496 51.1769 9.98992 50.6696C9.48389 50.1623 9.19878 49.4756 9.19667 48.759C9.19667 48.4574 9.19667 48.1558 9.19667 47.7943C8.28955 47.7943 7.43308 47.7943 6.57776 47.7943C2.81575 47.7863 0.0161163 44.9901 0.00460467 41.2327C0.00153489 38.8406 0 36.4477 0 34.054C0.0103605 30.4083 2.83072 27.5822 6.47646 27.5753C10.2097 27.5672 13.9429 27.5753 17.6773 27.5753H18.383C18.383 27.2656 18.383 26.987 18.383 26.7084C18.3933 25.0968 19.5595 23.9019 21.1584 23.9007C26.0417 23.8946 30.9242 23.8946 35.8059 23.9007C37.4175 23.9007 38.5871 25.0853 38.5998 26.6923C38.5998 26.9594 38.5998 27.2253 38.5998 27.5764H39.2306C42.8867 27.5764 46.5436 27.5764 50.2012 27.5764C53.2035 27.5764 55.1455 25.6194 55.1512 22.6103C55.1512 20.6763 55.1512 18.7424 55.1512 16.8084C55.1432 13.9144 53.1747 11.9528 50.2772 11.9436C49.4714 11.9436 48.6736 11.9436 47.7941 11.9436C47.7941 12.2889 47.7941 12.6112 47.7941 12.929C47.7734 14.3909 46.5877 15.6089 45.1257 15.6123C40.1665 15.6238 35.2073 15.6238 30.248 15.6123C28.7872 15.6123 27.6004 14.3967 27.5762 12.9336C27.5704 12.6285 27.5762 12.3246 27.5762 11.9804H22.1024C22.0838 12.3352 22.0865 12.6908 22.1105 13.0452C22.168 13.5057 21.9504 13.6818 21.5349 13.7705C21.0307 13.8787 20.5345 14.0226 20.0384 14.1665C19.5238 14.315 19.3546 14.7421 19.6159 15.2025C19.9612 15.8172 20.3066 16.4274 20.6324 16.9983L17.0292 20.6326C16.4283 20.2872 15.817 19.9419 15.1988 19.5965C14.7626 19.3525 14.3286 19.5217 14.1881 19.996C14.027 20.5451 13.8739 21.0976 13.7392 21.6548C13.6678 21.9518 13.5527 22.1003 13.205 22.0957C11.7695 22.075 10.334 22.0784 8.89736 22.0957C8.5831 22.0957 8.46337 21.9691 8.3943 21.6847C8.26422 21.146 8.10651 20.6153 7.95571 20.0823C7.7934 19.5067 7.40776 19.3398 6.90009 19.6218C6.29918 19.9545 5.70403 20.2964 5.05822 20.6579C3.90706 19.5067 2.75589 18.3648 1.6266 17.2044C1.55292 17.1284 1.57249 16.8844 1.63581 16.7646C1.90978 16.2397 2.2229 15.7344 2.50954 15.2163C2.78237 14.7225 2.62466 14.3207 2.08706 14.163C1.51954 13.9972 0.935898 13.8706 0.381036 13.6749C0.291971 13.6329 0.214196 13.5702 0.154143 13.4921C0.0940902 13.4141 0.0534853 13.3228 0.0356862 13.226C0.00959305 11.7678 0.00959305 10.3127 0.0356862 8.86074C0.0356862 8.70533 0.239443 8.4705 0.398304 8.41524C0.956619 8.22184 1.53796 8.10097 2.10548 7.93405C2.60394 7.78901 2.77546 7.37459 2.52911 6.92218C2.25398 6.41912 1.9777 5.91606 1.67264 5.42566C1.50227 5.15514 1.49997 4.98016 1.74632 4.74187C2.75935 3.76031 3.75933 2.76071 4.74626 1.74308C4.97649 1.51285 5.14341 1.45989 5.4266 1.64178C5.90894 1.95144 6.41315 2.22657 6.91506 2.50285C7.41696 2.77913 7.78994 2.60646 7.95111 2.05274C8.14565 1.38277 8.33329 0.700124 8.53014 0.00136626C10.1418 0.00136626 11.7039 -0.0066919 13.2729 0.0163314C13.4145 0.0163314 13.6298 0.200518 13.6805 0.344414C13.86 0.847473 13.9844 1.36895 14.1248 1.88467C14.3401 2.66862 14.6613 2.80561 15.3543 2.41997L17.0108 1.48867L20.6208 5.13211C20.3112 5.67662 19.9704 6.27062 19.6343 6.86807C19.3442 7.38495 19.5054 7.77865 20.066 7.93751C20.5621 8.0791 21.0502 8.26674 21.5556 8.34847C22.0322 8.42675 22.1427 8.6662 22.1035 9.09328C22.0759 9.411 22.1035 9.73333 22.1035 10.0787H27.5854C27.5854 9.76326 27.5854 9.44669 27.5854 9.13012C27.5903 8.41367 27.8778 7.72813 28.3855 7.22259C28.8932 6.71706 29.5799 6.43243 30.2964 6.43063C35.2165 6.42219 40.1369 6.42219 45.0578 6.43063C45.4169 6.42835 45.7729 6.49717 46.1053 6.63313C46.4377 6.76909 46.7399 6.96949 46.9945 7.22278C47.2491 7.47608 47.451 7.77726 47.5886 8.10896C47.7263 8.44066 47.7969 8.79632 47.7964 9.15544C47.7964 9.44208 47.7964 9.73102 47.7964 10.1052C48.2477 10.1052 48.6794 10.0879 49.1088 10.1052C50.0999 10.1535 51.1256 10.0706 52.0719 10.3066C54.7057 10.9616 56.2989 12.7033 56.8826 15.3614C56.9099 15.4496 56.9462 15.5349 56.9908 15.6158V23.8904C56.9609 23.9364 56.9091 23.9813 56.9022 24.0308C56.5372 26.7522 53.9575 29.5069 50.1978 29.4217C46.5417 29.34 42.8832 29.4045 39.226 29.4045H38.6044C38.6044 29.8016 38.6044 30.1078 38.6044 30.414C38.5909 31.1207 38.3027 31.7943 37.8009 32.2921C37.2991 32.7898 36.6231 33.0725 35.9164 33.0801C30.9756 33.0901 26.0352 33.0901 21.0951 33.0801C20.3786 33.0762 19.6925 32.7896 19.1862 32.2826C18.6798 31.7755 18.3941 31.0891 18.391 30.3726C18.391 30.0572 18.391 29.7417 18.391 29.416C14.2779 29.416 10.2557 29.3619 6.23702 29.4355C3.7977 29.4816 1.90863 31.4524 1.86259 33.8894C1.80963 36.4162 1.81539 38.9465 1.86259 41.4733C1.90173 43.6041 3.42702 45.4862 5.44962 45.812C6.6618 46.0077 7.91427 45.9525 9.20473 46.0123C9.20473 45.6371 9.20473 45.3734 9.20473 45.1098C9.21394 43.4602 10.3778 42.2849 12.0205 42.2826C16.8853 42.2826 21.7494 42.2826 26.6127 42.2826C28.2519 42.2826 29.4135 43.4625 29.4227 45.1167C29.4227 45.3792 29.4227 45.6417 29.4227 45.9306H36.7959C36.8396 45.6428 36.8742 45.3608 36.9248 45.0822C37.7433 40.5731 41.6688 37.024 46.1031 36.7754C50.9529 36.506 55.1501 39.3609 56.5499 43.8965C56.7341 44.4962 56.8515 45.1156 57 45.7257V48.028C56.9544 48.1524 56.916 48.2792 56.8849 48.4079C56.1712 52.3219 53.9548 54.9895 50.2357 56.4108C49.5312 56.679 48.7703 56.8022 48.0347 56.9864L45.7312 56.9899ZM38.6067 46.8849C38.6067 51.4125 42.3503 55.1503 46.8743 55.1526C51.3984 55.1549 55.142 51.4228 55.1535 46.8964C55.1662 42.3493 51.4042 38.5885 46.8571 38.6023C42.3284 38.6149 38.6021 42.3574 38.6067 46.8849ZM20.2352 9.92557C19.8484 9.81851 19.5238 9.68498 19.1888 9.64238C18.4866 9.55374 18.2218 9.12551 17.896 8.52C17.3204 7.46323 17.4356 6.61712 18.1263 5.72381C18.1722 5.63442 18.1951 5.53503 18.1931 5.43457C18.1911 5.33411 18.1642 5.23571 18.1148 5.14823C17.7084 4.64517 17.2491 4.18586 16.8266 3.72884C16.4812 3.92569 16.228 4.0316 16.0208 4.19506C15.3393 4.73842 14.7303 4.66244 13.9049 4.34817C12.9518 3.9844 12.4763 3.47098 12.375 2.51897C12.3175 1.97101 12.0297 1.83633 11.4886 1.84899C9.93457 1.88813 9.92766 1.8605 9.53166 3.35586C9.43726 3.71503 9.30142 3.94756 8.89852 4.04656C8.45417 4.16589 8.02816 4.3452 7.63223 4.57955C7.28688 4.77871 7.01406 4.73611 6.69749 4.53236C6.27616 4.26068 5.8203 4.02239 5.41969 3.80021L3.79885 5.3658C3.86442 5.52241 3.94418 5.67268 4.03714 5.81476C4.67258 6.62057 4.94426 7.45171 4.24435 8.37034C4.16036 8.49915 4.10609 8.64504 4.08549 8.79743C4.00145 9.24293 3.7551 9.44093 3.29694 9.54914C1.8718 9.88643 1.91554 9.91291 1.86259 11.3829C1.84072 12.0184 2.01915 12.3488 2.6615 12.4017C3.54905 12.4766 4.13269 12.8864 4.27313 13.8292C4.33654 14.0913 4.45419 14.3371 4.61848 14.551C4.80612 14.833 4.76237 15.0621 4.59546 15.3314C4.30651 15.7919 4.04865 16.2789 3.75741 16.7923C3.92663 16.9362 4.06362 17.0421 4.18794 17.1607C4.57589 17.5279 4.92814 18.1507 5.35292 18.2036C5.80303 18.26 6.30839 17.7431 6.81606 17.544C7.06493 17.4637 7.33186 17.4581 7.58388 17.5279C8.96528 17.8732 9.95183 18.5892 9.84132 20.2285C10.471 20.2285 10.9925 20.1882 11.4978 20.2389C12.032 20.293 12.3301 20.1307 12.3842 19.5781C12.4775 18.6169 12.9057 17.9492 13.9395 17.8065C14.0539 17.7881 14.1614 17.7401 14.2514 17.6672C14.7533 17.2573 15.1965 17.4139 15.695 17.7201C16.7506 18.3682 16.7644 18.3464 17.629 17.4807C18.3576 16.752 18.3979 16.7244 17.8327 15.869C17.4229 15.2486 17.4931 14.7582 17.7061 14.0525C18.0514 12.9013 18.7663 12.4662 19.8254 12.2855C19.9819 12.259 20.2087 12.023 20.2191 11.871C20.2605 11.2391 20.2352 10.6071 20.2352 9.92557ZM37.6293 13.7831C40.0203 13.7831 42.4113 13.7831 44.8011 13.7831C45.6069 13.7831 45.9523 13.4378 45.9615 12.632C45.9684 11.5575 45.9684 10.4866 45.9615 9.41906C45.9557 8.61324 45.6104 8.26789 44.8022 8.26789C40.0594 8.26789 35.3166 8.26789 30.5738 8.26789C29.768 8.26789 29.4227 8.61324 29.4146 9.41906C29.4077 10.4551 29.4146 11.4912 29.4146 12.518C29.4146 13.4746 29.7289 13.7843 30.6889 13.7843C33.002 13.785 35.3155 13.7847 37.6293 13.7831ZM28.496 25.7299C26.1246 25.7299 23.7532 25.7299 21.3818 25.7299C20.5759 25.7299 20.2306 26.0753 20.2225 26.8811C20.2156 27.9555 20.2156 29.0269 20.2225 30.0952C20.2283 30.901 20.5679 31.2463 21.3818 31.2463C26.1246 31.2463 30.8674 31.2463 35.6102 31.2463C36.416 31.2463 36.7613 30.901 36.7694 30.0952C36.7763 29.0591 36.7694 28.03 36.7694 26.9974C36.7694 26.0407 36.4551 25.7311 35.4939 25.7311C33.1616 25.7288 30.829 25.7284 28.496 25.7299ZM19.3074 49.6374C21.6788 49.6374 24.0502 49.6374 26.4216 49.6374C27.2274 49.6374 27.5727 49.292 27.5727 48.4862C27.5796 47.4118 27.5796 46.3408 27.5727 45.2733C27.567 44.4675 27.2205 44.1221 26.4101 44.1221C21.6673 44.1221 16.9244 44.1221 12.1816 44.1221C11.3758 44.1221 11.0305 44.4675 11.0305 45.2733C11.0236 46.3093 11.0305 47.3454 11.0305 48.3722C11.0305 49.3265 11.3447 49.6385 12.3083 49.6385L19.3074 49.6374Z" fill="#D41D12"/>
<path d="M41.7129 49.2904C42.0801 48.9324 42.4876 48.5329 42.9723 48.0586L43.9462 49.3364L50.738 42.5342L52.0688 43.8085L44.1257 51.7516L41.7129 49.2904Z" fill="#D41D12"/>
<path d="M16.5757 11.0335C16.5343 12.4651 15.9387 13.8246 14.9145 14.8256C13.8903 15.8266 12.5174 16.3908 11.0853 16.3993C9.65315 16.4078 8.27368 15.86 7.23762 14.8712C6.20155 13.8825 5.58985 12.5301 5.53144 11.0992C5.50611 8.05893 8.01911 5.52637 11.057 5.52637C12.5174 5.5306 13.9169 6.11182 14.9506 7.14337C15.9843 8.17492 16.5684 9.5732 16.5757 11.0335V11.0335ZM14.7189 11.083C14.7252 10.3601 14.5172 9.65156 14.1213 9.04671C13.7253 8.44187 13.159 7.96785 12.4939 7.68448C11.8289 7.40111 11.0947 7.32107 10.3842 7.45447C9.67369 7.58786 9.01859 7.92872 8.50158 8.43402C7.98457 8.93933 7.6288 9.58645 7.47917 10.2937C7.32953 11.001 7.39274 11.7368 7.66081 12.4082C7.92888 13.0796 8.3898 13.6565 8.98542 14.0663C9.58104 14.476 10.2847 14.7001 11.0075 14.7104C11.4897 14.7172 11.9685 14.6287 12.4163 14.4498C12.8641 14.271 13.2722 14.0054 13.617 13.6683C13.9618 13.3312 14.2365 12.9292 14.4254 12.4856C14.6144 12.0419 14.7137 11.5652 14.7177 11.083H14.7189Z" fill="#D41D12"/>
<path d="M31.2676 11.9033V10.1523H33.0473V11.9033H31.2676Z" fill="#D41D12"/>
<path d="M36.7223 11.9184H34.9668V10.1318H36.7223V11.9184Z" fill="#D41D12"/>
<path d="M40.4316 10.1533V11.8962H38.6484V10.1533H40.4316Z" fill="#D41D12"/>
<path d="M44.0907 11.9283H42.334V10.1475H44.0907V11.9283Z" fill="#D41D12"/>
<path d="M22.0918 29.3686V27.6016H23.8542V29.3686H22.0918Z" fill="#D41D12"/>
<path d="M25.7852 27.5859H27.528V29.3691H25.7852V27.5859Z" fill="#D41D12"/>
<path d="M29.4373 29.3626V27.6094H31.2204V29.3626H29.4373Z" fill="#D41D12"/>
<path d="M34.9023 27.6113V29.3784H33.1387V27.6113H34.9023Z" fill="#D41D12"/>
<path d="M12.916 45.9834H14.6738V47.7666H12.916V45.9834Z" fill="#D41D12"/>
<path d="M18.3489 47.7832H16.5957V46H18.3489V47.7832Z" fill="#D41D12"/>
<path d="M20.2715 45.9717H22.0144V47.756H20.2715V45.9717Z" fill="#D41D12"/>
<path d="M25.7101 45.999V47.7661H23.9453V45.999H25.7101Z" fill="#D41D12"/>
</svg>
