<svg width="64" height="64" viewBox="0 0 64 64" fill="none" xmlns="http://www.w3.org/2000/svg">
<path d="M0.719841 63.1018C0.1849 62.7518 0 62.2733 0 61.6198C0.0239947 57.281 0.0169374 52.9421 0.00705727 48.6019C0.00705727 48.0035 0.167963 47.5405 0.765008 47.3203C1.56248 47.0296 2.25833 47.5871 2.25833 48.5412C2.26821 50.9097 2.25833 53.2795 2.25833 55.6479V60.8505H3.06427C7.31133 60.8505 11.557 60.8505 15.804 60.8505C16.4265 60.8505 16.9996 60.8985 17.2593 61.5661C17.5274 62.2592 17.1506 62.7193 16.6312 63.1074L0.719841 63.1018Z" fill="#D41D12"/>
<path d="M46.5098 63.1018C46.2868 62.8421 45.9706 62.6177 45.8563 62.317C45.5585 61.5252 46.1555 60.8533 47.1139 60.8533C51.385 60.8533 55.656 60.8533 59.9271 60.8533H60.884V60.094C60.884 56.2454 60.884 52.3973 60.884 48.5497C60.884 47.7028 61.4642 47.1185 62.1741 47.2653C62.7669 47.3867 63.1297 47.7522 63.1311 48.3944C63.1311 52.9224 63.148 57.4503 63.1014 61.9783C63.1014 62.358 62.6625 62.732 62.4268 63.1074L46.5098 63.1018Z" fill="#D41D12"/>
<path d="M52.1701 12.5619L46.0359 18.7017C44.8738 19.8629 43.7117 21.0245 42.5496 22.1866C41.8312 22.9036 41.1918 23.0024 40.6639 22.4844C40.1361 21.9664 40.2123 21.3016 40.9194 20.5959C43.906 17.6083 46.8936 14.6208 49.8821 11.6332C50.06 11.4567 50.2279 11.2704 50.5018 10.9825L46.194 11.3269C45.2822 11.4003 44.3704 11.4949 43.4572 11.5358C42.7162 11.5683 42.1869 11.0869 42.1685 10.4419C42.153 9.83499 42.6259 9.35509 43.3429 9.29299C46.5441 9.0107 49.7438 8.72841 52.9408 8.47435C54.3183 8.36425 54.7559 8.79757 54.6472 10.1681C54.3889 13.3947 54.1066 16.6184 53.8243 19.8408C53.7636 20.5366 53.2414 21.0095 52.6317 20.97C52.0219 20.9304 51.5364 20.4223 51.5858 19.7109C51.7269 17.6516 51.9076 15.5965 52.0741 13.5401C52.0995 13.2789 52.1264 13.0291 52.1701 12.5619Z" fill="#D41D12"/>
<path d="M52.1437 50.3211C51.9828 48.3611 51.8209 46.401 51.6581 44.441C51.6299 44.091 51.589 43.7353 51.589 43.3895C51.589 42.6965 52.0576 42.1869 52.6843 42.17C53.2743 42.153 53.7711 42.6061 53.8318 43.2681C54.0252 45.3923 54.203 47.5166 54.3837 49.6422C54.4839 50.8335 54.5982 52.0233 54.6659 53.216C54.7224 54.2464 54.2707 54.7093 53.239 54.6345C50.6913 54.4468 48.145 54.2196 45.6002 54.0064C44.8521 53.9443 44.104 53.8836 43.3588 53.8088C42.6135 53.734 42.1195 53.2273 42.1718 52.6034C42.224 51.9542 42.7363 51.5124 43.5098 51.566C45.5677 51.7072 47.6228 51.8893 49.6779 52.0558C49.9051 52.0742 50.1309 52.0953 50.4979 52.1278C50.2382 51.8455 50.0745 51.6592 49.9037 51.4856L40.996 42.5779C40.8205 42.4221 40.6611 42.2491 40.5204 42.0613C40.2 41.5701 40.2296 41.0733 40.6361 40.6498C41.068 40.2038 41.586 40.1657 42.104 40.5087C42.2906 40.6504 42.4627 40.8102 42.6178 40.9858C45.5724 43.9376 48.5252 46.8904 51.4761 49.8441C51.6553 50.0233 51.8063 50.2294 51.9701 50.4242L52.1437 50.3211Z" fill="#D41D12"/>
<path d="M12.6443 10.9625C12.9181 11.2575 13.0804 11.4453 13.2555 11.6189C16.2082 14.5745 19.1615 17.5286 22.1152 20.4814C22.2896 20.6385 22.4506 20.8099 22.5965 20.9937C22.9578 21.5005 22.9366 22.0213 22.5019 22.4631C22.0672 22.9049 21.5478 22.9359 21.034 22.5859C20.8485 22.4423 20.677 22.2817 20.5216 22.106L11.6577 13.2463C11.4813 13.0684 11.2935 12.9005 10.9957 12.6182C11.1213 14.1538 11.2343 15.5399 11.3472 16.9259C11.4206 17.8377 11.5151 18.7481 11.5575 19.6613C11.59 20.3671 11.1425 20.878 10.5158 20.9316C9.88915 20.9853 9.3782 20.5082 9.3161 19.8166C9.03381 16.5942 8.75152 13.3705 8.49463 10.1453C8.38736 8.79032 8.80233 8.36688 10.139 8.4685C13.3641 8.72398 16.5879 9.00768 19.8117 9.28856C20.5174 9.35066 20.9888 9.85314 20.9564 10.4643C20.9211 11.1164 20.3918 11.5822 19.6409 11.5299C17.6056 11.3888 15.5731 11.2067 13.5406 11.0402C13.2922 11.0246 13.0452 10.9992 12.6443 10.9625Z" fill="#D41D12"/>
<path d="M12.796 52.1179L18.6662 51.6323C19.0163 51.6027 19.372 51.5618 19.7178 51.5618C20.4235 51.5618 20.9246 52.0134 20.9514 52.6415C20.9754 53.2287 20.5279 53.7382 19.866 53.8017C18.3261 53.9499 16.7848 54.084 15.2435 54.2111C13.6796 54.3451 12.1143 54.4722 10.549 54.6034L10.4798 54.6105C8.78605 54.7813 8.3485 54.348 8.50376 52.6655C8.60256 51.5914 8.6816 50.5173 8.77335 49.4432C8.94978 47.4121 9.12339 45.381 9.30829 43.3499C9.37745 42.5976 9.88557 42.1135 10.5151 42.1657C11.1446 42.2179 11.6075 42.7416 11.5539 43.5052C11.4128 45.5377 11.2279 47.5688 11.0599 49.5998C11.0401 49.8454 11.0232 50.0896 10.9922 50.482C11.2886 50.1997 11.4735 50.036 11.6499 49.861L20.5082 41.0055C20.6647 40.8305 20.8367 40.6699 21.0219 40.5256C21.5357 40.1685 22.0495 40.2137 22.4856 40.654C22.8992 41.0775 22.9429 41.5687 22.6197 42.0655C22.4796 42.2533 22.3212 42.4268 22.1469 42.5835C19.196 45.5363 16.2432 48.4881 13.2886 51.439C13.1079 51.6196 12.9033 51.7735 12.7099 51.94L12.796 52.1179Z" fill="#D41D12"/>
<path d="M2.2659 2.24986V3.16871C2.2659 7.95637 2.2659 12.744 2.2659 17.5317C2.2659 18.2148 1.99067 18.682 1.32728 18.8232C0.752821 18.9459 0.311036 18.6608 0.0908496 18.1273C0.0174116 17.8813 -0.00986537 17.6239 0.0103967 17.3679C0.0103967 13.9409 0.0103967 10.5144 0.0103967 7.08832C0.0103967 5.18709 0.0103967 3.28728 0.0103967 1.38605C0.0160426 0.364155 0.385843 0 1.42044 0H15.926C16.8857 0 17.367 0.390973 17.3543 1.1461C17.3416 1.87441 16.873 2.24703 15.9499 2.24703H2.25884L2.2659 2.24986Z" fill="#D41D12"/>
<path d="M60.8823 2.24986H57.684C54.1854 2.24986 50.6874 2.24986 47.1898 2.24986C46.302 2.24986 45.8037 1.82642 45.8108 1.12069C45.8193 0.423436 46.3048 0 47.1432 0C52.0268 0 56.9105 0 61.7941 0C62.737 0 63.1322 0.381093 63.1336 1.30983C63.1336 6.70911 63.1336 12.1079 63.1336 17.5063C63.1336 18.3306 62.6974 18.8429 62.0214 18.85C61.3453 18.857 60.8837 18.3235 60.8837 17.4555C60.8837 12.6669 60.8837 7.87827 60.8837 3.08967L60.8823 2.24986Z" fill="#D41D12"/>
</svg>
