<svg width="63" height="71" viewBox="0 0 63 71" fill="none" xmlns="http://www.w3.org/2000/svg">
<path d="M62.9942 23.5018C62.246 25.4397 61.9622 25.642 59.6232 25.8662V36.0577C59.9041 36.0693 60.1835 36.0853 60.463 36.0941C61.8996 36.1392 62.8195 37.0404 62.6914 38.4527C62.5342 40.1837 62.3028 41.9163 62.0117 43.6314C61.8094 44.8267 61.1049 45.3202 59.6828 45.4818C59.3772 46.6917 59.5023 47.0353 60.5183 47.7633C61.1277 48.2111 61.5694 48.8502 61.7731 49.5785C61.9768 50.3069 61.9306 51.0825 61.642 51.7816C61.3472 52.4773 60.8234 53.0513 60.1575 53.4083C59.4916 53.7653 58.7238 53.8838 57.9813 53.7442C56.4312 53.453 55.2609 52.1543 55.2158 50.6372C55.1954 50.0403 55.4414 49.5948 56.0804 49.4856C56.6815 49.3808 57.0818 49.7084 57.2346 50.397C57.4398 51.3244 57.7965 51.7204 58.4878 51.7525C59.0453 51.7787 59.4892 51.5617 59.7236 51.0405C59.9579 50.5193 59.9783 49.8612 59.4863 49.5846C57.8547 48.6674 57.303 47.2886 57.5563 45.5328C55.6859 45.1936 55.2653 44.7655 55.0033 42.9544C54.7995 41.5436 54.6001 40.1313 54.4342 38.7147C54.2464 37.1016 55.1197 36.1348 56.7499 36.0941C56.9857 36.0941 57.2215 36.0722 57.4908 36.0591V25.8095H56.7135C48.8954 25.8095 41.0782 25.8066 33.2619 25.8007C33.0537 25.7847 32.8452 25.8267 32.6594 25.922C32.4736 26.0174 32.3179 26.1623 32.2096 26.3409C31.8765 26.7824 31.4589 27.1531 30.9811 27.4314C30.5983 27.6585 30.4469 27.8681 30.4469 28.3209C30.4634 35.0036 30.4678 41.6867 30.46 48.3704C30.46 52.8255 30.46 57.2811 30.46 61.7372V62.5452C31.2606 62.6049 32.0058 62.6151 32.7379 62.7228C33.969 62.9013 35.0989 63.5045 35.9324 64.4281C36.7659 65.3517 37.2505 66.5375 37.3025 67.7807C37.3302 68.3368 37.3345 68.8944 37.3127 69.4506C37.2879 70.0854 36.9328 70.4188 36.2938 70.4377C36.0769 70.4377 35.8571 70.4377 35.6403 70.4377H11.1712C8.97775 70.4377 8.95737 70.4275 8.98794 68.1971C9.01851 65.9666 9.97625 64.2442 11.9718 63.2644C12.8058 62.8538 13.8189 62.7956 14.7591 62.6136C15.0794 62.5525 15.4229 62.6049 15.8115 62.6049C15.8261 62.2788 15.8479 62.0225 15.8479 61.7619C15.8479 50.6736 15.8518 39.5844 15.8595 28.4942C15.8595 27.9526 15.7475 27.6206 15.2235 27.3615C14.8094 27.1576 14.4575 26.8464 14.2046 26.4603C13.8625 25.9158 13.4477 25.7891 12.8407 25.7935C9.52503 25.8211 6.20932 25.808 2.89361 25.8066C1.05672 25.8138 0.0232886 24.786 0.00582215 22.9428C-0.00194072 21.8751 -0.00194072 20.8074 0.00582215 19.7397C0.0174664 18.3537 0.588037 17.5195 1.84999 16.9968C2.09417 16.8963 2.32613 16.7683 2.54137 16.6153C8.13645 12.5883 13.7325 8.56024 19.3295 4.53123C19.5204 4.41441 19.676 4.24812 19.7801 4.04999C19.8841 3.85186 19.9326 3.62927 19.9205 3.4058C19.9467 1.50292 21.1955 0.146003 23.0033 0.00914694C24.6815 -0.12043 26.089 1.13894 26.4136 3.00834C26.4532 3.13453 26.5182 3.2513 26.6045 3.35145C26.6909 3.4516 26.7968 3.53302 26.9158 3.59071C31.8763 5.97841 36.8421 8.35641 41.8132 10.7247C45.4084 12.4398 49.0137 14.1359 52.5915 15.8874C53.4412 16.2905 54.3647 16.5145 55.3046 16.5455C56.9217 16.6357 58.5359 16.7901 60.1544 16.8658C61.6798 16.9356 62.6114 17.6884 63 19.1472L62.9942 23.5018ZM23.1721 25.8313H28.9026C30.345 25.8313 30.8486 25.329 30.853 23.8615C30.8598 21.5145 30.8598 19.1681 30.853 16.8221C30.853 15.3429 30.3086 14.7998 28.84 14.7998C26.3991 14.7998 23.9567 14.8173 21.5143 14.8187C20.0879 14.8187 18.6614 14.7896 17.2365 14.8042C16.1681 14.8173 15.4898 15.4084 15.4898 16.3373C15.4743 18.9492 15.4743 21.5616 15.4898 24.1745C15.4898 25.2606 16.0822 25.8226 17.1579 25.8269C19.1592 25.8357 21.165 25.8313 23.1721 25.8328V25.8313ZM26.4238 12.7703C27.3728 12.7703 28.2622 12.7703 29.1529 12.7703C30.5357 12.7819 31.6113 13.3526 32.3828 14.5174C32.5214 14.7205 32.7322 14.8632 32.9723 14.9163C33.6899 15.0109 34.4176 15.0313 35.141 15.0837C38.2025 15.307 41.2635 15.5302 44.324 15.7534C45.455 15.835 46.5874 15.899 47.7198 15.9646L47.746 15.8059L26.4238 5.61443V12.7703ZM35.3128 68.3761C35.2662 67.9496 35.2706 67.5798 35.1818 67.2362C34.7582 65.6114 33.4482 64.6636 31.5982 64.6665C26.9056 64.6723 22.2125 64.6893 17.5188 64.7174C16.2875 64.7174 15.0444 64.633 13.8276 64.7669C12.1086 64.9533 10.9165 66.5854 11.0621 68.3761H35.3128ZM13.3968 18.0785C11.95 18.1936 10.5818 18.2969 9.21355 18.4105C7.071 18.5896 4.93281 18.7934 2.78881 18.9477C2.20659 18.9899 2.04648 19.2695 2.05231 19.782C2.0625 20.7734 2.05231 21.7664 2.05231 22.7579C2.05231 23.694 2.15856 23.7945 3.09593 23.7945C6.31072 23.7945 9.526 23.7945 12.7418 23.7945C12.9499 23.7945 13.1581 23.7668 13.3939 23.7493L13.3968 18.0785ZM28.399 50.464L18.8856 55.6281L28.399 61.7619V50.464ZM27.4063 48.6892L17.954 42.95V53.8272L27.4063 48.6892ZM17.9453 39.4572L27.3699 34.842L17.9409 28.7723L17.9453 39.4572ZM28.3888 46.8955V36.6255L19.0122 41.2029L28.3888 46.8955ZM19.8797 6.64377L6.3083 16.4261C8.60222 16.4101 10.8205 16.2499 13.0285 16.049C13.2017 16.033 13.4375 15.768 13.4972 15.5729C14.0503 13.7749 15.3646 12.779 17.2612 12.7717C18.1243 12.7717 18.9875 12.7717 19.8812 12.7717L19.8797 6.64377ZM39.17 23.2179L43.9165 17.7626L34.1644 17.0754L39.17 23.2179ZM59.1501 18.8575L48.4243 18.0844L53.1184 23.4159L59.1501 18.8575ZM50.7196 23.777L46.0226 18.444C44.455 20.2493 42.966 21.9629 41.3926 23.777H50.7196ZM24.3657 12.712C24.3657 9.51775 24.3788 6.37879 24.357 3.24856C24.357 2.46237 23.6743 1.98192 22.9014 2.12605C22.2872 2.24253 21.9728 2.69823 21.9699 3.55722C21.9611 6.07305 21.9699 8.58887 21.9699 11.1047V12.7179L24.3657 12.712ZM28.4019 27.9599H20.4619L28.4019 33.0701V27.9599ZM25.8751 62.5525L17.954 57.448V62.5525H25.8751ZM56.3875 38.1819C56.5578 39.4354 56.7339 40.6045 56.8722 41.7765C57.0658 43.4042 57.0541 43.4057 58.645 43.4101C59.987 43.4101 60.003 43.4101 60.1966 42.0852C60.3829 40.804 60.5314 39.5169 60.7017 38.1819H56.3875ZM32.9854 18.8531V23.7319H36.959L32.9854 18.8531ZM60.8793 20.0921L55.9974 23.7887C57.5359 23.7887 58.843 23.8163 60.1457 23.7639C60.3975 23.7552 60.8327 23.4494 60.8458 23.2558C60.9171 22.2599 60.8793 21.2568 60.8793 20.0921Z" fill="#D41D12"/>
</svg>
