<svg width="257" height="252" viewBox="0 0 257 252" fill="none" xmlns="http://www.w3.org/2000/svg">
<path opacity="0.5" d="M2.32673 107.75V198.53C2.33273 198.62 2.3595 198.708 2.40492 198.786C2.45034 198.864 2.51318 198.93 2.58849 198.98H2.62339H2.58849C2.51318 198.93 2.45034 198.864 2.40492 198.786C2.3595 198.708 2.33273 198.62 2.32673 198.53V97.6872C2.32421 97.6757 2.32421 97.6637 2.32673 97.6522V97.6522C2.32673 97.6522 2.32673 97.6522 2.32673 97.6872V107.75ZM2.75136 97.343L9.30694 93.5513L91.5279 45.9502L9.30694 93.5454L2.763 97.3372L2.75136 97.343ZM8.05632 191.145L9.16734 191.793V112.061L8.07959 111.413L2.95495 108.444V188.182L8.05632 191.145ZM2.94914 198.478L8.07959 201.447L9.1906 202.083V192.499L8.07959 191.857L2.94914 188.882V198.478ZM9.49308 202.964L89.7247 249.416C89.7175 249.452 89.7175 249.49 89.7247 249.527C89.7175 249.49 89.7175 249.452 89.7247 249.416V249.416L9.49889 202.999L7.13144 201.634L9.49308 202.964ZM89.8992 249.632C89.8724 249.638 89.8446 249.638 89.8178 249.632C89.8426 249.637 89.8685 249.637 89.8934 249.632M95.1285 144.874L96.2396 144.232L90.0039 140.616L88.8871 141.263L83.7625 144.244L90.0039 147.855L95.1285 144.874ZM90.161 249.632H90.225L90.2599 249.562C90.2627 249.536 90.2627 249.511 90.2599 249.486L94.0466 247.292L90.2599 249.486C90.2599 249.486 90.2599 249.538 90.2599 249.556L90.225 249.632H90.1493M96.5479 245.116V235.515L95.4427 236.162L90.3064 239.125V248.727L95.4427 245.764L96.5479 245.116ZM90.3297 158.694V238.431L95.4659 235.462L96.5711 234.82V155.083L95.4601 155.724L90.3297 158.694ZM95.4601 155.024L96.5711 154.383V144.781L95.4601 145.422L90.3297 148.398V157.999L95.4601 155.024ZM246.803 57.0746L240.567 53.4637L233.441 57.5938L228.305 60.5688L221.575 64.4656L216.445 67.4348L209.697 71.3374L204.567 74.3066L197.848 78.1917L192.718 81.1668L185.988 85.0577L180.828 88.0795L174.092 91.9762L168.962 94.9455L162.237 98.8364L157.107 101.817L150.394 105.708L145.258 108.677L138.505 112.58L133.374 115.543L126.656 119.44L121.525 122.415L114.795 126.312L109.659 129.281L102.929 133.184L97.7927 136.153L90.6554 140.283L96.8969 143.9L246.803 57.0746ZM97.1761 151.577L121.607 137.501L122.427 137.028L123.009 136.69L123.317 136.497L247.099 64.8273V57.6229L97.1761 144.431V151.577ZM97.1761 153.169V179.875L120.228 166.528L121.136 166.009V138.486L97.1761 152.358V153.169ZM97.1761 181.677V208.389L120.228 195.042L121.136 194.511V166.773L97.1761 180.639V181.677ZM97.1761 210.098V236.833L120.228 223.486L121.136 222.955V195.229L97.1761 209.101V210.098ZM143.751 205.519L140.767 207.269L127.714 214.852L123.788 217.122V221.322L147.701 207.473V203.273L143.751 205.519ZM144.054 186.753V204.644L147.678 202.55V184.67L144.054 186.753ZM139.441 198.717L140.023 199.05L142.856 200.689L143.437 200.345V196.395L139.441 198.717ZM143.449 191.046V187.097L131.414 194.097L131.996 194.429L134.828 196.069L143.449 191.046ZM135.428 196.389L136.009 196.728L138.836 198.367L143.449 195.701V191.746L135.428 196.389ZM128.843 199.499L129.14 199.674L129.442 199.843L130.024 200.175L132.857 201.832L133.165 202.007L133.462 202.182L134.043 202.52L136.876 204.16L137.178 204.335L137.475 204.51L138.057 204.842L140.308 206.149L140.89 206.487L143.449 205V202.03L143.187 201.879L142.606 201.54L142.309 201.365L142.006 201.19L139.174 199.551L138.592 199.219L138.289 199.044L137.987 198.869L135.154 197.229L134.573 196.891L134.27 196.716L133.968 196.541L131.141 194.902L130.559 194.564L127.97 196.063V199.026L128.843 199.499ZM132.007 202.316L129.175 200.677L128.593 200.345L128.011 200.689V204.638L132.007 202.316ZM127.97 209.999V213.948L140.011 206.948L139.43 206.61L137.202 205.332L136.62 204.994L127.97 209.999ZM135.998 204.65L133.165 203.016L132.583 202.678L127.97 205.332V209.287L135.998 204.65ZM123.742 198.501V216.416L127.371 214.316V205.361V196.413L123.742 198.501ZM123.742 193.607V197.801L127.668 195.526L130.635 193.805L143.699 186.222L147.626 183.947V179.752L123.742 193.607ZM143.728 177.11L127.685 186.391L123.759 188.666V192.866L147.672 179.017V174.817L143.728 177.11ZM144.031 158.338V159.009V176.229L147.655 174.129V156.249L144.031 158.338ZM143.449 162.643V158.694L127.97 167.648V171.597L143.449 162.643ZM143.449 167.31V163.331L127.97 172.297V176.246L143.449 167.31ZM127.97 181.596V184.874V185.545L143.426 176.602V172.665L127.97 181.596ZM143.426 171.953V167.998L127.97 176.947V180.902L143.426 171.953ZM123.742 170.098V187.995L127.371 185.901V167.998L126.028 168.774L123.742 170.098ZM123.742 165.198V169.398L127.668 167.123L143.717 157.83L147.608 155.573V151.378L123.742 165.198ZM143.751 148.748L140.767 150.498L130.699 156.331L127.738 158.046L123.811 160.315V164.498L147.724 150.649V146.449L143.751 148.748ZM144.054 129.981V147.878L147.678 145.778V127.858L144.054 129.981ZM128.843 142.71L129.145 142.891L129.442 143.066L130.024 143.398L132.734 144.967L135.294 140.511L135.154 140.429L134.573 140.091L134.27 139.916L133.968 139.746L131.141 138.107L130.559 137.769L127.97 139.256V142.226L128.843 142.71ZM132.007 145.533L129.175 143.894L128.593 143.556L128.011 143.906V147.855L132.007 145.533ZM128.593 152.154L131.42 147.242L132.001 146.233L127.988 148.567V152.516L128.593 152.154ZM135.428 139.601L135.724 139.77L136.021 139.256L135.428 139.601ZM136.62 138.212L139.453 133.295L140.035 132.285L135.724 134.782L131.414 137.273L131.996 137.611L134.834 139.251L136.62 138.212ZM133.386 150.76L133.968 149.745L134.27 149.22L134.573 148.695L135.294 147.441L135.509 147.073L135.724 146.7L137.4 143.783L137.981 142.774L138.278 142.255L138.487 141.882L138.575 141.736L138.702 141.514L141.407 136.818L141.989 135.809L142.286 135.29L142.588 134.765L143.437 133.295V130.331L141.623 131.381L140.878 131.813L140.296 132.816L137.469 137.734L137.167 138.259L136.876 138.778L136.294 139.787L136.155 140.038L135.939 140.406L135.73 140.773L133.462 144.705L133.165 145.23L132.95 145.597L132.862 145.749L132.74 145.959L132.287 146.752L129.442 151.664L129.14 152.183L128.843 152.703L128.261 153.718L127.999 154.178V157.142L130.565 155.654L131.146 154.645L133.386 150.76ZM136.021 147.843L135.724 147.668L135.428 148.188L136.021 147.843ZM140.035 150.177L139.453 149.838L137.208 148.538L136.626 148.199L134.823 149.243L134.241 150.253L131.99 154.155L131.408 155.158L140.029 150.171L140.035 150.177ZM143.187 145.072L142.606 144.74L142.309 144.565L142.006 144.39L139.174 142.745L139.098 142.704L138.732 142.488L138.272 143.287L136.166 146.945L136.893 147.359L137.19 147.54L137.487 147.709L138.068 148.048L140.32 149.348L140.901 149.687L143.461 148.205V145.247L143.187 145.072ZM139.441 141.922L140.023 142.255L142.856 143.894L143.437 143.55V139.595L139.441 141.922ZM139.441 141.222L143.449 138.889V134.94L142.867 135.284L142.286 136.287L139.441 141.222ZM123.765 141.701V159.598L127.389 157.498V139.606L123.765 141.701ZM124.986 140.289H125.033L125.143 140.225L147.678 127.164V123.121L123.765 136.964V141.001L124.986 140.289ZM246.96 130.197L244.348 134.747L243.917 135.488V147.698L244.045 147.768L244.348 147.943L244.464 148.013L247.111 149.547V129.935L246.96 130.197ZM244.348 113.432L243.917 114.178V126.394L244.045 126.47L244.348 126.645L244.464 126.715L247.111 128.243V108.642L246.96 108.911L244.348 113.432ZM243.917 109.99L229.521 118.326L226.153 120.28L226.734 120.613L229.346 122.124L243.504 113.928L246.11 109.395L246.692 108.386L243.917 109.99ZM235.861 108.823C235.576 109.022 235.279 109.214 234.965 109.407L234.866 109.459C234.558 109.634 234.238 109.803 233.907 109.961C233.083 110.336 232.231 110.646 231.359 110.888C229.473 111.404 227.526 111.663 225.571 111.658C223.446 111.671 221.331 111.368 219.295 110.76V112.51C223.225 113.725 227.422 113.78 231.382 112.668C232.259 112.413 233.111 112.081 233.93 111.676C234.168 111.553 234.413 111.437 234.64 111.302L234.89 111.151C235.234 110.942 235.566 110.714 235.884 110.468C237.414 109.272 238.258 107.843 238.293 106.35C237.68 107.356 236.859 108.217 235.884 108.876M238.275 103.462C238.208 102.753 237.975 102.069 237.595 101.467V103.801C237.595 105.434 236.431 107.009 234.296 108.24C231.613 109.669 228.608 110.382 225.571 110.311C223.432 110.325 221.304 109.99 219.271 109.319V110.048C224.158 111.641 230.469 111.215 234.616 108.847C236.827 107.563 238.106 105.93 238.252 104.151C238.252 104.034 238.252 103.917 238.252 103.801C238.252 103.684 238.252 103.573 238.252 103.456M235.861 98.358C235.576 98.5564 235.279 98.7489 234.965 98.9414C234.93 98.9414 234.896 98.9764 234.866 98.9997C234.56 99.1747 234.24 99.3381 233.907 99.4897C233.086 99.8726 232.233 100.183 231.359 100.417C229.473 100.937 227.526 101.198 225.571 101.193C223.443 101.191 221.328 100.871 219.295 100.242V101.992C223.225 103.208 227.422 103.262 231.382 102.15C232.257 101.89 233.109 101.558 233.93 101.158C234.168 101.036 234.413 100.913 234.64 100.785C234.727 100.738 234.808 100.68 234.89 100.633C235.233 100.423 235.565 100.195 235.884 99.9506C237.414 98.7547 238.258 97.3255 238.293 95.8321C237.678 96.8366 236.857 97.6978 235.884 98.358M238.275 92.9446C238.208 92.2351 237.975 91.5515 237.595 90.9495V93.1254C237.595 94.7529 236.431 96.328 234.296 97.5588C231.614 98.9917 228.609 99.7069 225.571 99.6356C223.437 99.6407 221.317 99.2959 219.295 98.6147V99.5131C224.181 101.106 230.492 100.709 234.64 98.3055C236.85 97.028 238.13 95.3888 238.275 93.6388C238.275 93.5221 238.275 93.4054 238.275 93.2887C238.275 93.1721 238.275 93.0612 238.275 92.9446M237.595 86.2944C237.384 86.5557 237.152 86.7996 236.902 87.0236C236.582 87.3186 236.242 87.5915 235.884 87.8403C235.599 88.0445 235.303 88.2311 234.989 88.4236C234.954 88.4376 234.921 88.4552 234.89 88.4761C234.581 88.6511 234.261 88.8145 233.93 88.9778C233.107 89.3536 232.255 89.6619 231.382 89.8995C227.418 90.9801 223.233 90.9316 219.295 89.7595V91.4804C223.224 92.7006 227.421 92.7573 231.382 91.6437C232.257 91.3837 233.109 91.052 233.93 90.652C234.168 90.5295 234.413 90.407 234.64 90.2787L234.89 90.1212C235.235 89.9161 235.567 89.6901 235.884 89.4445C236.248 89.1566 236.588 88.8406 236.902 88.4995C237.161 88.2167 237.393 87.91 237.595 87.5836C238.024 86.905 238.265 86.1236 238.293 85.3202C238.089 85.6668 237.855 85.9947 237.595 86.3003M238.275 82.4327C238.208 81.7251 237.975 81.0435 237.595 80.4435V82.8177C237.595 84.4452 236.431 86.0261 234.296 87.2569C231.612 88.683 228.608 89.3941 225.571 89.322C223.431 89.339 221.303 89.004 219.271 88.3303V89.0303C224.158 90.6229 230.469 90.197 234.616 87.8228C235.456 87.3604 236.22 86.7701 236.879 86.0727C237.139 85.7907 237.371 85.484 237.571 85.1569C237.953 84.5557 238.186 83.8717 238.252 83.1619C238.252 83.0452 238.252 82.9285 238.252 82.8118C238.252 82.6952 238.252 82.5843 238.252 82.4618M219.295 97.8797C221.32 98.5845 223.451 98.9357 225.594 98.918C227.274 98.9219 228.948 98.7082 230.574 98.2822C231.449 98.0577 232.302 97.7531 233.121 97.3722C233.406 97.2322 233.703 97.0863 233.947 96.9405L234.081 96.853C234.427 96.6486 234.759 96.4226 235.076 96.1763C236.239 95.2313 236.902 94.1696 236.902 93.1021V89.4562C236.582 89.7512 236.242 90.0241 235.884 90.2728L235.646 90.4362C235.466 90.5587 235.274 90.6812 235.064 90.7979L234.977 90.8504C234.686 91.0195 234.395 91.1712 234.07 91.3229C233.744 91.4745 233.435 91.6087 233.11 91.7429C232.281 92.071 231.429 92.3381 230.562 92.5421C228.93 92.9258 227.259 93.1216 225.583 93.1254C223.451 93.118 221.332 92.7936 219.295 92.1629V97.8797ZM219.295 108.561C221.32 109.263 223.451 109.613 225.594 109.593C227.274 109.599 228.948 109.387 230.574 108.963C231.449 108.737 232.302 108.43 233.121 108.047C233.406 107.913 233.703 107.767 233.947 107.616L234.081 107.534C234.428 107.33 234.76 107.102 235.076 106.852C236.239 105.912 236.902 104.845 236.902 103.777V100.516C236.809 100.417 236.716 100.318 236.617 100.225C236.136 100.63 235.62 100.993 235.076 101.31L234.989 101.362C234.698 101.531 234.407 101.689 234.081 101.841C233.755 101.992 233.447 102.126 233.121 102.255C232.294 102.586 231.442 102.853 230.574 103.054C228.941 103.438 227.271 103.633 225.594 103.637C223.46 103.639 221.337 103.322 219.295 102.698V108.561ZM206.498 169.841L206.783 169.334L206.905 169.118V148.578L206.48 148.333L203.869 146.828L203.723 146.741V174.631L206.498 169.841ZM222.081 161.482L221.499 161.144L207.335 169.34L206.754 170.326L204.171 174.881L224.704 162.993L222.081 161.482ZM225.117 159.055V134.351L224.966 134.619L222.354 139.151L221.93 139.892V160.414L222.052 160.49L222.354 160.665L222.471 160.729L225.117 162.264V159.055ZM225.146 127.31L224.454 127.706L214.752 133.33V139.163L224.454 133.546L225.146 133.149V127.31ZM220.755 113.601C220.255 113.49 219.766 113.362 219.283 113.21V116.448L225.007 119.761V116.08L220.755 113.601ZM218.824 126.948C218.824 126.872 218.777 126.633 218.387 126.849L218.312 126.89C216.98 127.66 215.985 129.06 215.374 131.043C215.27 131.37 215.176 131.708 215.095 132.07L216.299 130.903C216.677 130.535 216.985 130.244 217.044 130.18C217.85 129.419 218.451 128.466 218.789 127.409V127.409C218.834 127.254 218.848 127.091 218.829 126.93M214.758 127.66V131.317C215.485 128.838 216.735 127.065 218.405 126.125C218.952 125.822 219.347 125.956 219.429 126.475C219.562 127.356 218.789 129.188 217.253 130.722L216.503 131.451L216.13 131.813L224.46 126.989L225.152 126.592V120.759L214.758 126.773V127.66ZM221.336 143.906V140.435L207.533 148.427V151.927L221.336 143.906ZM221.336 148.024V144.6L207.533 152.592V156.016L221.336 148.024ZM221.336 152.189V148.771L207.533 156.763V160.181L221.336 152.189ZM207.516 165.081V168.552L221.319 160.56V157.06L214.414 161.056L207.516 165.081ZM221.319 156.389V152.918L207.516 160.91V164.381L221.319 156.389ZM207.516 144.052L204.171 145.988L204.753 146.327L207.359 147.838L221.517 139.641L224.123 135.115L224.704 134.106L221.941 135.704L207.516 144.052ZM210.785 139.869L210.692 139.916C210.145 140.225 209.755 140.091 209.674 139.571C209.54 138.691 210.314 136.865 211.849 135.331C211.902 135.272 212.216 134.969 212.6 134.59L212.634 134.561L203.746 139.706V145.539L214.135 139.525V135.401C213.408 137.495 212.268 139.023 210.785 139.886M214.135 132.997V127.164L203.746 133.172V139.006L214.135 132.997ZM210.273 139.122C210.273 139.198 210.319 139.431 210.709 139.221C211.78 138.589 212.626 137.637 213.129 136.497V136.497C213.511 135.687 213.8 134.836 213.99 133.96C213.716 134.234 213.327 134.607 212.792 135.126C212.408 135.494 212.105 135.797 212.047 135.856C211.223 136.637 210.621 137.623 210.302 138.714V138.714C210.28 138.841 210.28 138.972 210.302 139.099M226.007 115.269L227.84 114.208L228.264 113.957C228.02 113.992 227.776 114.003 227.531 114.033C226.88 114.085 226.223 114.12 225.571 114.12C224.92 114.12 224.454 114.091 223.902 114.05C223.349 114.009 222.948 113.968 222.482 113.904L225.391 115.608L226.007 115.269ZM228.497 135.826L228.776 135.331L228.904 135.115V122.876L228.474 122.625L225.862 121.109L225.722 121.027V126.61V133.126C225.725 133.147 225.725 133.168 225.722 133.19V140.627L228.497 135.826ZM228.497 157.119L228.776 156.623L228.904 156.407V144.168L228.474 143.917L225.862 142.407L225.711 142.319V161.931L228.497 157.119ZM229.346 156.629L228.765 157.609L226.147 162.159L246.675 150.276L244.074 148.771L243.493 148.433L229.346 156.629ZM243.307 139.496V135.996L229.509 143.987V147.458L243.307 139.496ZM229.509 152.329V155.8L243.307 147.808V144.372L229.509 152.329ZM243.307 143.637V140.137L229.521 148.164V151.664L243.307 143.637ZM229.346 135.301L228.765 136.281L226.147 140.837L246.68 128.949L244.074 127.438L243.493 127.1L229.346 135.301ZM229.527 131.037V134.502L243.324 126.51V123.08L229.527 131.037ZM243.324 118.168V114.698L229.521 122.73V123.454V126.201L243.324 118.168ZM229.527 126.86V130.36L243.324 122.369V118.898L229.527 126.86ZM246.692 129.655L246.052 130.08L227.671 140.697L226.153 141.578L226.734 141.911L229.346 143.427L243.504 135.261L246.11 130.734L246.692 129.655ZM196.917 172.192V179.082L202.851 175.651L196.917 172.192ZM156.316 192.796L170.515 184.577L174.912 182.027L176.442 181.147L190.658 172.916L191.74 172.291L192.066 172.105L192.345 171.941L196.278 169.661V165.466L188.716 169.841L188.436 170.005L188.117 170.191L150.685 191.915V196.115L156.316 192.796ZM156.013 197.865V193.671L150.691 196.751V200.951L156.013 197.865ZM166.257 187.733L165.675 188.071L156.613 193.321V197.521L169.299 190.177L169.881 189.838L166.257 187.733ZM170.236 189.337V185.498L169.904 185.685L167.443 187.114L166.862 187.447L170.236 189.337ZM176.163 186.198V181.998L170.841 185.084V189.284L176.163 186.198ZM186.412 176.066L185.83 176.404L176.774 181.654V185.854L189.46 178.51L190.042 178.172L186.412 176.066ZM190.385 177.67V173.831L190.059 174.018L187.593 175.447L187.011 175.78L190.385 177.67ZM196.312 174.531V170.331L192.985 172.262L192.706 172.42L192.38 172.612L190.99 173.417V177.612L195.998 174.695L196.312 174.531ZM190.688 178.498L176.471 186.729L170.544 190.165L156.333 198.39L150.708 201.651V205.822L196.33 179.402V175.226L190.688 178.498ZM160.83 119.639L160.876 119.668C163.348 121.097 164.71 123.01 164.727 125.069C164.727 125.069 164.727 125.069 164.727 125.099V170.174C167.724 171.635 171.056 172.265 174.377 172C176.087 171.902 177.776 171.572 179.397 171.02C179.682 170.915 179.979 170.81 180.235 170.699C180.752 170.486 181.255 170.24 181.741 169.964C182.088 169.763 182.422 169.541 182.742 169.299C183.86 168.551 184.693 167.444 185.103 166.16C185.103 166.102 185.103 166.055 185.144 166.003C185.151 165.956 185.161 165.909 185.173 165.863V165.723C185.173 165.665 185.173 165.6 185.173 165.536V165.425C185.173 165.326 185.173 165.227 185.173 165.122V117.678C184.544 118.708 183.688 119.58 182.672 120.228C182.463 120.362 182.247 120.502 182.02 120.636C181.424 120.974 180.804 121.268 180.165 121.517C179.892 121.628 179.612 121.721 179.327 121.82C177.701 122.349 176.014 122.665 174.307 122.759C173.859 122.789 173.412 122.8 172.964 122.8C169.812 122.862 166.697 122.117 163.913 120.636C162.622 119.944 161.533 118.927 160.754 117.684L160.83 119.639ZM148.283 123.389C151.267 124.247 154.984 123.973 157.468 122.52C158.904 121.692 159.701 120.601 159.701 119.458C159.563 118.481 159.126 117.572 158.451 116.856L148.283 122.742V123.389ZM159.649 121.914C159.667 121.841 159.677 121.767 159.678 121.692C159.681 121.639 159.681 121.587 159.678 121.534C159.169 122.2 158.527 122.752 157.793 123.156C155.954 124.13 153.899 124.62 151.819 124.579C150.624 124.582 149.434 124.431 148.277 124.13V125.332C151.261 126.19 154.978 125.915 157.462 124.469C158.689 123.757 159.445 122.859 159.643 121.908M157.811 125.069L157.66 125.145C157.242 125.376 156.806 125.571 156.357 125.729C156.217 125.787 156.072 125.834 155.926 125.88C155.078 126.149 154.205 126.328 153.32 126.417C152.822 126.471 152.321 126.498 151.819 126.499C150.624 126.5 149.434 126.347 148.277 126.044V127.164V127.788C149.896 128.347 151.624 128.515 153.32 128.278C154.22 128.157 155.097 127.908 155.926 127.537L156.357 127.315L156.444 127.263C156.903 127.01 157.314 126.678 157.66 126.283C157.986 125.908 158.189 125.442 158.241 124.947C158.244 124.891 158.244 124.834 158.241 124.778C158.09 124.883 157.939 124.982 157.776 125.075M148.23 179.152C148.234 179.171 148.234 179.191 148.23 179.21V181.712C149.846 181.988 151.487 182.074 153.122 181.969C154.832 181.868 156.52 181.538 158.142 180.989C158.422 180.89 158.724 180.779 158.974 180.662C159.492 180.454 159.995 180.21 160.481 179.933C160.827 179.732 161.161 179.51 161.481 179.268C162.6 178.52 163.432 177.414 163.843 176.13C163.857 176.078 163.869 176.025 163.878 175.972C163.892 175.926 163.904 175.88 163.913 175.832C163.913 175.786 163.913 175.739 163.913 175.692C163.913 175.646 163.913 175.57 163.913 175.511C163.913 175.453 163.913 175.436 163.913 175.395C163.913 175.354 163.913 175.196 163.913 175.091V127.619C163.283 128.647 162.427 129.516 161.411 130.162C161.202 130.302 160.987 130.442 160.754 130.576C160.159 130.915 159.541 131.211 158.904 131.463L158.073 131.755C156.447 132.284 154.759 132.602 153.053 132.7C152.605 132.7 152.151 132.746 151.703 132.746C150.516 132.746 149.332 132.649 148.161 132.455V150.655C148.166 150.686 148.166 150.718 148.161 150.748C148.163 150.766 148.163 150.783 148.161 150.801V155.584V179.041C148.163 179.074 148.163 179.107 148.161 179.14M160.277 121.622C160.199 122.633 159.732 123.575 158.974 124.247V124.959C158.925 125.538 158.711 126.091 158.358 126.551C158.156 126.817 157.924 127.058 157.665 127.269C157.536 127.383 157.4 127.491 157.258 127.59C157.11 127.693 156.957 127.788 156.799 127.875C156.653 127.963 156.508 128.039 156.362 128.109C156.223 128.183 156.079 128.249 155.932 128.307C155.523 128.476 155.103 128.616 154.676 128.727C152.565 129.253 150.352 129.187 148.277 128.535V131.778C152.477 132.501 157.217 131.906 160.527 129.993C162.79 128.68 164.017 126.965 164.017 125.151C164.017 123.337 162.778 121.622 160.527 120.309L160.388 120.239C160.388 120.823 160.388 121.575 160.388 121.575C160.39 121.598 160.39 121.622 160.388 121.645M167.368 112.627C170.48 114.423 175.541 114.423 178.653 112.627C180.089 111.787 180.886 110.702 180.886 109.564C180.886 108.981 180.304 106.916 177.978 105.592L166.676 112.137C166.906 112.315 167.147 112.478 167.397 112.627M166.513 114.808V114.838C166.513 114.902 166.513 114.96 166.513 115.024C166.594 115.882 167.234 116.698 168.333 117.358C170.242 118.338 172.409 118.691 174.528 118.367C175.427 118.252 176.304 118.002 177.129 117.626C177.286 117.556 177.425 117.48 177.565 117.404L177.652 117.358C178.111 117.103 178.523 116.769 178.868 116.372C179.196 116.001 179.4 115.535 179.449 115.042C179.452 114.985 179.452 114.929 179.449 114.873C179.304 114.972 179.153 115.071 178.984 115.164C178.943 115.164 178.885 115.217 178.839 115.246C178.419 115.472 177.983 115.667 177.536 115.829L177.099 115.981C176.252 116.244 175.381 116.422 174.499 116.512C174.001 116.565 173.5 116.593 172.999 116.593C170.914 116.635 168.853 116.141 167.013 115.158C166.821 115.053 166.647 114.937 166.472 114.82M167.362 114.558C170.468 116.354 175.506 116.354 178.641 114.558C179.868 113.846 180.624 112.953 180.822 111.997C180.84 111.924 180.852 111.85 180.857 111.775C180.857 111.723 180.857 111.67 180.857 111.612C180.348 112.28 179.707 112.834 178.972 113.239C177.117 114.183 175.067 114.674 172.987 114.674C170.907 114.674 168.856 114.183 167.001 113.239C166.639 113.031 166.297 112.791 165.978 112.522L165.477 112.808C165.936 113.547 166.582 114.151 167.35 114.558M181.549 111.717C181.442 112.737 180.936 113.672 180.142 114.318V115.03C180.092 115.607 179.878 116.158 179.525 116.617C179.325 116.886 179.093 117.129 178.833 117.34C178.705 117.445 178.571 117.55 178.426 117.655C178.28 117.76 178.129 117.853 177.966 117.947C177.803 118.04 177.681 118.104 177.53 118.174C177.379 118.244 177.245 118.314 177.094 118.373C176.261 118.715 175.387 118.942 174.493 119.049C173.984 119.11 173.471 119.141 172.958 119.143C171.214 119.177 169.491 118.766 167.95 117.947C166.623 117.171 165.844 116.144 165.774 115.03V114.243C165.421 113.928 165.119 113.56 164.878 113.152L160.806 115.52C160.94 117.218 162.168 118.822 164.297 120.059C169.095 122.835 176.907 122.835 181.706 120.059C183.963 118.746 185.196 117.025 185.196 115.217C185.196 113.408 183.946 111.717 181.706 110.381L181.567 110.305V111.641C181.57 111.664 181.57 111.688 181.567 111.711M182.061 170.629C179.274 172.108 176.157 172.853 173.004 172.793C170.14 172.84 167.301 172.242 164.698 171.043V174.736C164.701 174.79 164.701 174.845 164.698 174.899C164.698 174.986 164.698 175.062 164.698 175.144C164.698 177.215 163.337 179.152 160.847 180.587C158.066 182.048 154.959 182.775 151.819 182.698C150.633 182.698 149.448 182.601 148.277 182.407V183.964V190.165L150.377 191.378L196.027 164.941L185.964 159.108V164.731C185.967 164.788 185.967 164.844 185.964 164.9C185.964 164.976 185.964 165.064 185.964 165.14C185.964 167.216 184.597 169.147 182.119 170.588M203.886 128.972L203.752 129.054C203.701 129.082 203.642 129.097 203.583 129.097C203.524 129.097 203.466 129.082 203.415 129.054L203.287 128.978L188.163 120.228C188.075 120.17 188.002 120.092 187.95 120.001C187.897 119.91 187.867 119.808 187.861 119.703V116.903L185.953 118.011V122.497L202.769 132.233L203.455 132.63L214.426 126.277H214.461L224.704 120.339L219.26 117.188V119.72C219.255 119.826 219.225 119.928 219.172 120.02C219.12 120.111 219.046 120.188 218.957 120.245L203.886 128.972ZM203.886 107.435V128.272L218.067 120.064L218.69 119.703V98.8655L203.886 107.435ZM218.69 87.2861V82.0127L218.067 82.3802L203.863 90.5879V95.838L218.044 87.6303L218.69 87.2861ZM203.886 96.5555V106.747L218.067 98.533L218.69 98.1714V87.992L203.886 96.5555ZM219.295 87.3386V87.5661C221.32 88.2688 223.451 88.618 225.594 88.5986C227.274 88.6063 228.948 88.3965 230.574 87.9745C231.449 87.7461 232.302 87.4376 233.121 87.0528C233.406 86.9186 233.703 86.7786 233.947 86.6211L234.081 86.5394C234.427 86.335 234.759 86.109 235.076 85.8627C236.239 84.9177 236.902 83.856 236.902 82.7885V78.9443C236.341 79.453 235.729 79.9026 235.076 80.2859L234.989 80.3384C234.698 80.5018 234.407 80.6651 234.081 80.811C233.755 80.9568 233.447 81.0968 233.121 81.231C232.293 81.5591 231.441 81.8262 230.574 82.0302C228.941 82.4111 227.271 82.6068 225.594 82.6135C223.459 82.6111 221.336 82.2906 219.295 81.6626V87.3269M237.595 75.7475C237.381 76.0061 237.149 76.2497 236.902 76.4767C236.58 76.7719 236.24 77.0466 235.884 77.2992C235.599 77.4976 235.303 77.6901 234.989 77.8826L234.89 77.9351C234.581 78.1101 234.261 78.2792 233.93 78.4309C233.107 78.8087 232.255 79.1189 231.382 79.3584C229.496 79.8736 227.549 80.1326 225.594 80.1284C224.51 80.1275 223.428 80.0495 222.354 79.8951L220.127 81.1843C223.819 82.1592 227.705 82.129 231.382 81.0968C232.259 80.8419 233.111 80.5101 233.93 80.1051C234.168 79.9826 234.413 79.8659 234.64 79.7376L234.89 79.5801C235.233 79.3729 235.565 79.147 235.884 78.9034C236.249 78.6172 236.59 78.3011 236.902 77.9584C237.161 77.6732 237.393 77.3647 237.595 77.0367C238.026 76.361 238.267 75.581 238.293 74.7792C238.088 75.1248 237.854 75.4526 237.595 75.7592M236.071 72.2591C236.067 72.1691 236.057 72.0794 236.041 71.9908L227.084 77.1709C229.339 77.048 231.541 76.4328 233.534 75.3683C235.146 74.435 236.071 73.3033 236.071 72.2591M233.837 75.9517C231.342 77.2698 228.559 77.9435 225.74 77.9117L223.308 79.3293C227.293 79.7376 231.551 79.0609 234.616 77.2817C235.458 76.8105 236.222 76.2102 236.879 75.5025C237.138 75.2193 237.369 74.9127 237.571 74.5866C237.954 73.9837 238.187 73.2976 238.252 72.5858C238.252 72.4691 238.252 72.3583 238.252 72.2358C238.252 72.1133 238.252 72.0083 238.252 71.8916C238.222 71.5245 238.141 71.1634 238.013 70.8182L236.652 71.5999C236.709 71.809 236.739 72.0248 236.739 72.2416C236.739 73.5366 235.687 74.8958 233.831 75.9517M240.811 107.867H240.003L239.828 107.972L238.17 108.928C237.365 110.165 236.263 111.18 234.965 111.88C233.399 112.749 231.704 113.361 229.945 113.694L229.329 114.044L226.036 115.952L225.862 116.051V119.744L228.625 118.151L229.207 117.801L243.004 109.809L243.586 109.459L246.198 107.948L246.355 107.855L240.811 107.867ZM238.77 107.394C238.726 107.593 238.667 107.788 238.595 107.977L239.177 107.651L238.77 107.394ZM238.886 106.752L239.956 107.377H246.355L238.874 103.042C238.874 103.171 238.909 103.299 238.915 103.433V106.233C238.915 106.408 238.915 106.583 238.886 106.752M97.1761 244.766L166.943 204.387V198.991H176.25L247.122 157.953V150.731L97.1761 237.539V244.766ZM166.926 205.099L165.995 205.635L166.926 205.099ZM168.089 215.097L171.23 213.236L171.812 212.887L172.394 213.231L213.193 236.757V215.873L191.374 203.285L189.629 202.275L191.374 201.249L193.212 200.17H168.107L168.089 215.097ZM247.408 158.513L254.248 154.552C254.336 154.494 254.409 154.417 254.462 154.326C254.514 154.234 254.545 154.132 254.551 154.027V154.027C254.545 154.132 254.514 154.234 254.462 154.326C254.409 154.417 254.336 154.494 254.248 154.552L247.408 158.513L177.448 198.991L247.408 158.513ZM254.62 53.2595C254.646 53.2316 254.66 53.1952 254.66 53.1574C254.66 53.1196 254.646 53.0832 254.62 53.0553C254.608 53.0403 254.595 53.0266 254.58 53.0145L254.533 52.9795C254.537 52.9465 254.537 52.9133 254.533 52.8803C254.54 52.913 254.54 52.9468 254.533 52.9795C254.533 52.9795 254.568 52.9795 254.586 53.0145L254.626 53.0612C254.651 53.0881 254.665 53.1235 254.665 53.1603C254.665 53.1971 254.651 53.2325 254.626 53.2595M254.388 52.7811C254.415 52.7751 254.442 52.7751 254.469 52.7811C254.444 52.7752 254.418 52.7752 254.394 52.7811M253.963 153.998V144.39L252.846 145.032L247.722 148.001V157.603L252.846 154.633L253.963 153.992V153.998ZM253.963 63.9697L252.852 64.6114L247.727 67.5807V147.301L252.852 144.337L253.969 143.69L253.963 63.9697ZM253.963 53.6737L252.852 54.3095L247.727 57.2846V66.8865L252.852 63.9114L253.963 63.2697V53.6737ZM247.413 49.5144L246.297 50.1619L241.172 53.1312L247.408 56.7421L252.538 53.7787L253.649 53.137L247.413 49.5144ZM247.716 48.9894L176.204 7.5776L174.808 6.77259L176.198 7.5776L247.693 48.9952L250.775 50.7803L247.716 48.9894ZM173.842 6.91842L172.76 7.5776L167.63 10.5527L169.689 11.7194L240.567 52.7636L245.697 49.8002L246.803 49.1527L175.901 8.09678L173.842 6.91842ZM167.007 2.94583L165.902 3.58751L160.777 6.55091L167.025 10.1677L172.149 7.19843L173.254 6.55675L167.007 2.94583ZM159.858 6.41091L161.33 5.55922L159.858 6.41091ZM41.5031 212.916V129.999L9.79555 111.647V194.517L41.5031 212.916ZM82.8783 237.568L48.3263 217.524L43.1958 214.549L9.79555 195.217V202.415L82.8783 244.731V237.568ZM48.6288 216.999L81.4881 236.028V153.152L48.6288 134.123V216.999ZM43.4983 129.544V214.03L47.0466 216.083L48.0238 216.667V132.169L47.0466 131.585L43.4983 129.544ZM48.3263 131.644L82.8783 151.664V144.419L9.79555 102.109V109.337L43.1609 128.651L48.3263 131.644ZM89.4222 140.277L18.5208 99.2272L16.4616 98.0605L15.3506 98.7022L10.226 101.677L12.2793 102.844L83.1808 143.894L88.3112 140.925L89.4222 140.283V140.277ZM23.9014 95.3596L18.4626 98.5097L18.8175 98.7197L90.0272 139.951L95.4659 136.795L23.9014 95.3596ZM29.0318 90.7804L28.0546 91.3637L24.5063 93.4171L97.4611 135.622L101.009 133.569L101.992 132.985L29.0318 90.7804ZM35.7677 88.4878L31.027 91.2354L102.574 132.653L107.309 129.911L35.7677 88.4878ZM40.8982 83.9085L39.921 84.4919L36.3727 86.5453L109.357 128.756L112.905 126.703L113.888 126.12L40.8982 83.9085ZM47.6341 81.6218L42.8934 84.3635L114.44 125.781L119.175 123.039L47.6341 81.6218ZM52.7703 76.9959L51.7698 77.5792L48.2216 79.6326L121.194 121.914L124.742 119.86L125.725 119.277L52.7703 76.9959ZM59.5004 74.7092L54.7597 77.4509L126.307 118.869L131.048 116.121L59.5004 74.7092ZM64.6309 70.124L63.6478 70.7074L60.1054 72.7608L133.06 115.001L136.608 112.948L137.591 112.364L64.6309 70.124ZM71.3668 67.8315L66.6319 70.5791L138.179 111.997L142.92 109.255L71.3668 67.8315ZM76.4972 63.2464L75.52 63.8297L74.6242 64.3431L71.9717 65.9123L144.926 108.152L148.475 106.099L149.458 105.516L76.4972 63.2464ZM83.2389 60.9655L78.4982 63.7072L150.045 105.125L154.78 102.383L83.2389 60.9655ZM88.3694 56.3804L87.3863 56.9637L83.8381 59.023L156.799 101.263L160.341 99.2097L161.324 98.6264L88.3694 56.3804ZM95.0995 54.0937L90.3587 56.8354L161.906 98.253L166.647 95.5055L95.0995 54.0937ZM100.236 49.5086L99.2527 50.0919L95.7102 52.1453L168.688 94.3971L172.237 92.3437L173.22 91.7604L100.236 49.5086ZM106.966 47.2452L102.231 49.9869L173.778 91.4045L178.519 88.6628L106.966 47.2452ZM112.102 42.6601L111.119 43.2434L107.571 45.2968L180.531 87.537L184.08 85.4836L185.057 84.9002L112.102 42.6601ZM118.838 40.3734L114.097 43.1209L185.644 84.5385L190.379 81.7968L118.838 40.3734ZM123.968 35.7941L122.991 36.3774L119.437 38.4308L192.398 80.671L195.946 78.6176L196.929 78.0342L123.968 35.7941ZM130.704 33.5015L125.964 36.2433L197.511 77.6609L202.251 74.9133L130.704 33.5015ZM135.835 28.9223L134.858 29.5056L131.309 31.559L204.264 73.7991L207.812 71.7457L208.79 71.1624L135.835 28.9223ZM142.571 26.6297L137.859 29.3714L209.406 70.7891L214.147 68.0473L142.571 26.6297ZM147.701 22.0446L146.724 22.628L143.176 24.6813L216.13 66.9273L219.673 64.8739L220.656 64.2906L147.701 22.0446ZM154.437 19.7637L149.702 22.5054L221.249 63.9231L225.99 61.1813L154.437 19.7637ZM233.133 57.0979L238.572 53.9478L167.025 12.5302L161.586 15.6803L233.133 57.0979ZM159.567 15.1611L158.59 15.7445L155.042 17.7978L228.02 60.0438L231.277 58.1538L231.568 57.9846L232.551 57.4013L159.567 15.1611ZM88.6021 157.323L89.7131 157.964V148.386L88.6021 147.738L83.4716 144.775V154.371L88.6021 157.323ZM83.4716 235.491V245.093L88.6021 248.062L89.7131 248.704V239.114L88.6021 238.472L83.4716 235.491ZM88.6021 237.76L89.7131 238.408V158.664L88.6021 158.023L83.4716 155.053V234.803L88.6021 237.76ZM2.95495 98.148V107.75L8.07959 110.713L9.1906 111.361V101.759L8.07959 101.117L2.95495 98.148ZM9.62686 101.298L14.7515 98.3347L15.8625 97.693L9.62105 94.0821L8.51003 94.7238L3.3854 97.693L9.62686 101.298ZM10.2085 93.7146L16.45 97.3313L23.5756 93.2071L28.7061 90.2378L35.4478 86.3294L40.5783 83.3602L47.3083 79.4576L52.4446 76.4884L59.1689 72.5974L64.3051 69.6224L71.0294 65.7256L76.1657 62.7505L82.9016 58.848L88.032 55.8787L94.8144 51.982L99.9333 48.9952L106.658 45.0985L111.788 42.1292L118.506 38.2383L123.637 35.2632L130.355 31.3782L135.492 28.4031L142.268 24.4947L147.399 21.5254L154.146 17.6228L159.277 14.6536L166.414 10.5235L160.178 6.90676L10.2085 93.7146ZM233.639 223.783L252.573 212.793L234.541 202.34L215.589 213.324L233.639 223.783ZM234.802 248.132L253.736 237.148V214.835L234.802 225.802V248.132ZM0.0814357 97.0747V97.0047V96.9697L0.133787 96.8297L0.215223 96.6547C0.273463 96.524 0.34356 96.3991 0.424629 96.2813C0.530814 96.1175 0.655757 95.9668 0.796907 95.8321C0.951192 95.6833 1.1231 95.554 1.30879 95.4471L1.59381 95.2838L2.1406 94.9688L7.87018 91.6495L8.33553 91.1712H8.72526L158.078 4.7017L158.416 4.03669H159.224L165.524 0.384938C165.974 0.132535 166.48 0 166.996 0C167.511 0 168.018 0.132535 168.467 0.384938L174.773 4.03669H175.122L175.593 4.5092L177.379 5.54756L248.809 46.9068L248.873 46.9418L254.952 50.4419C255.287 50.5231 255.603 50.672 255.879 50.8797C256.155 51.0873 256.386 51.3492 256.557 51.6495V51.6786C256.75 51.9592 256.884 52.276 256.951 52.6099C257.018 52.9437 257.016 53.2878 256.947 53.6212C256.947 53.7028 256.906 53.7787 256.883 53.8603V153.998C256.879 154.517 256.741 155.027 256.482 155.476C256.223 155.926 255.852 156.301 255.406 156.564L248.565 160.525L248.257 160.7L182.119 198.997H197.551L191.979 202.27L213.216 214.52V213.312L234.477 200.975L254.876 212.787V237.825L233.593 250.174L213.245 238.355V238.087L171.858 214.222L166.949 217.139V207.806L98.1417 247.625L98.0544 247.677L92.0165 251.177L91.9526 251.242C91.8623 251.333 91.765 251.416 91.6617 251.492L91.5512 251.574L91.3825 251.685L91.2022 251.767C90.8757 251.918 90.5207 251.998 90.161 252V252H89.9167C89.5584 252.003 89.2036 251.928 88.8771 251.78C88.5507 251.632 88.2603 251.414 88.0262 251.142L8.87068 205.332H8.51003L8.04469 204.854L1.52983 201.085L1.25062 200.945L1.19827 200.893L1.1401 200.835C0.787069 200.563 0.500727 200.215 0.303082 199.815C0.105437 199.416 0.00175326 198.976 0 198.53L0 97.6872C0.000554632 97.4803 0.0279294 97.2744 0.0814357 97.0747Z" fill="#25343F"/>
</svg>
