<svg width="61" height="68" viewBox="0 0 61 68" fill="none" xmlns="http://www.w3.org/2000/svg">
<path d="M7.5723 67.2409C6.97478 67.0682 6.36344 66.9146 5.77974 66.7073C1.53665 65.2032 -0.71873 61.1932 0.205182 56.5339C1.98738 47.5539 3.81621 38.579 5.69166 29.6092C6.51196 25.6511 9.83631 22.9191 13.886 22.7758C14.8772 22.7395 15.8702 22.7758 17.01 22.7758C14.8513 18.486 14.4818 14.2084 16.1155 9.84272C17.2371 6.80021 19.3274 4.21054 22.0648 2.47215C27.6307 -1.15442 34.7906 -0.746865 40.0646 3.40469C44.5201 6.92419 48.0085 14.723 43.8915 22.7568H45.6185C51.2051 22.7568 54.1893 25.1037 55.3498 30.5694C57.2148 39.3607 59.0414 48.1612 60.8293 56.9708C61.7878 61.6733 58.6068 66.2307 53.868 67.07C53.7073 67.1136 53.5506 67.1714 53.4 67.2427L7.5723 67.2409ZM30.5112 64.7956C37.6607 64.7956 44.8103 64.8094 51.9615 64.7956C56.2098 64.7835 59.3183 61.3055 58.5239 57.3819C56.6795 48.3189 54.7781 39.268 52.8751 30.2171C52.3155 27.549 50.2328 25.6079 47.5215 25.3541C45.6996 25.1814 43.8518 25.2591 42.0161 25.2435C41.384 25.2435 40.8072 25.1693 40.4705 24.5424C40.1164 23.8827 40.4877 23.3871 40.8452 22.8949C42.7316 20.36 43.5991 17.2101 43.2767 14.0668C42.5704 6.20751 34.7284 0.778022 27.123 2.8987C18.3657 5.33886 14.8133 15.5053 20.1323 22.9035C20.4932 23.4044 20.8369 23.881 20.5191 24.5493C20.1738 25.2746 19.5417 25.2401 18.9027 25.2401C17.4383 25.2401 15.9669 25.2246 14.5094 25.2401C11.1505 25.2833 8.76216 27.2986 8.08002 30.5815C6.3266 39.0481 4.56109 47.513 2.7835 55.9761C2.48474 57.4095 2.18425 58.8325 2.64189 60.3021C3.50536 63.0652 5.90926 64.7921 9.06264 64.7921C16.2122 64.8025 23.3617 64.8037 30.5112 64.7956Z" fill="#D41D12"/>
<path d="M30.484 5.534C31.7699 5.53082 33.0439 5.7811 34.233 6.27052C35.4221 6.75995 36.5032 7.47893 37.4143 8.38636C38.3254 9.2938 39.0488 10.3719 39.543 11.559C40.0373 12.7462 40.2927 14.0191 40.2947 15.305C40.2947 20.6585 35.8306 25.1278 30.4788 25.1209C27.8807 25.1082 25.393 24.0688 23.5581 22.2294C21.7232 20.3899 20.69 17.8997 20.6836 15.3016C20.68 14.0151 20.9312 12.7406 21.4228 11.5517C21.9144 10.3629 22.6367 9.2832 23.5479 8.37503C24.4591 7.46687 25.5412 6.74822 26.7317 6.26059C27.9222 5.77296 29.1975 5.52601 30.484 5.534V5.534ZM30.5116 22.6445C32.4536 22.6413 34.3156 21.8702 35.6912 20.4995C37.0669 19.1287 37.8445 17.2695 37.8546 15.3275C37.8718 11.2812 34.5337 7.95517 30.4633 7.96035C28.5222 7.97343 26.6642 8.74936 25.2904 10.1206C23.9165 11.4919 23.1371 13.3485 23.1203 15.2895C23.0996 19.3409 26.4309 22.6514 30.5116 22.6445Z" fill="#D41D12"/>
<path d="M16.8144 34.833V42.1949H18.0716V44.0642H16.8144V46.6943H14.5965V44.0642H10.1641V42.0459L14.3049 34.833H16.8144ZM14.5965 42.1949C14.5965 39.3165 14.6437 37.5128 14.6437 37.1492H14.6133L11.8309 42.1949H14.5965Z" fill="#D41D12"/>
<path d="M26.6603 35.3978V37.2569H21.9801L21.5778 39.6753C21.9939 39.3939 22.5234 39.0656 23.629 39.0656C25.1765 39.0656 27.1108 40.0973 27.1108 42.6748C27.1108 44.2056 26.3233 46.6943 22.9395 46.6943C21.1445 46.6943 19.315 45.6627 19.2033 43.3983H21.4643C21.5606 44.3195 22.042 44.9291 23.053 44.9291C24.1431 44.9291 24.7845 44.0381 24.7845 42.8356C24.7845 41.8508 24.303 40.8359 23.1012 40.8359C22.7951 40.8359 22.0093 40.851 21.5778 41.6331L19.5557 41.5393L20.3415 35.3995L26.6603 35.3978Z" fill="#D41D12"/>
<path d="M32.7588 43.3054H28.2402V41.611H32.7588V43.3054Z" fill="#D41D12"/>
<path d="M39.3247 37.7651C39.2611 37.1207 38.8432 36.6542 37.9936 36.6542C36.5181 36.6542 36.181 38.363 36.1019 39.8454L36.1346 39.8765C36.439 39.4584 36.9944 38.9262 38.2843 38.9262C40.6748 38.9262 41.7961 40.7629 41.7961 42.4872C41.7961 45.0184 40.2569 46.6944 38.0435 46.6944C34.5627 46.6944 33.8885 43.7779 33.8885 40.8925C33.8885 38.6999 34.1774 34.8331 38.1553 34.8331C40.1124 34.8331 41.5725 36.1376 41.5725 37.7703L39.3247 37.7651ZM37.8801 40.7473C37.0202 40.7473 36.1483 41.2795 36.1483 42.7291C36.1483 43.9869 36.8534 44.8733 37.9455 44.8733C38.7796 44.8733 39.5328 44.2444 39.5328 42.6807C39.538 41.2156 38.5921 40.7473 37.8853 40.7473H37.8801Z" fill="#D41D12"/>
<path d="M46.9092 34.833C49.6043 34.833 50.8314 36.6998 50.8314 40.7542C50.8314 44.8086 49.5718 46.6943 46.8785 46.6943C44.1851 46.6943 42.9238 44.7965 42.9238 40.7559C42.9238 36.7153 44.2158 34.833 46.9092 34.833ZM46.8785 44.8742C48.1688 44.8742 48.5191 43.732 48.5191 40.7542C48.5191 37.7763 48.1688 36.6515 46.8785 36.6515C45.5882 36.6515 45.2361 37.7781 45.2361 40.7542C45.2361 43.7303 45.5865 44.8742 46.8785 44.8742Z" fill="#D41D12"/>
<path d="M16.8411 57.9906V51.7448H14.6855V50.083H20.8986V51.7448H18.743V57.9906H16.8411Z" fill="#D41D12"/>
<path d="M29.3687 54.0232C29.3687 56.7342 27.4968 57.9908 25.4229 57.9908C23.349 57.9908 21.4611 56.7479 21.4611 54.037C21.4611 51.3261 23.3472 50.0832 25.4229 50.0832C27.4986 50.0832 29.3687 51.314 29.3687 54.0232ZM23.5493 54.0232C23.5493 54.9876 23.8524 56.3285 25.4229 56.3285C26.9934 56.3285 27.2806 55.0014 27.2806 54.037C27.2806 53.0726 26.9934 51.7472 25.4229 51.7472C23.8524 51.7472 23.5404 53.0606 23.5404 54.0232H23.5493Z" fill="#D41D12"/>
<path d="M32.479 53.0377H35.2989V50.083H37.2779V57.9906H35.2989V54.6977H32.479V57.9906H30.5V50.083H32.479V53.0377Z" fill="#D41D12"/>
<path d="M40.9516 53.0377H43.7716V50.083H45.7506V57.9906H43.7716V54.6977H40.9516V57.9906H38.9727V50.083H40.9516V53.0377Z" fill="#D41D12"/>
</svg>
