<svg width="72" height="72" viewBox="0 0 72 72" fill="none" xmlns="http://www.w3.org/2000/svg">
<path d="M0 27.0015C0.563361 25.6297 1.58586 25.1227 3.04778 25.1706C5.29137 25.2382 7.53918 25.1889 9.77854 25.1889C10.5799 23.4481 11.9235 22.7101 13.7897 22.7862C15.0741 22.8383 16.3642 22.7946 17.6515 22.796C19.8176 22.796 21.1162 23.8425 21.5711 25.941C21.6007 26.0818 21.6373 26.2086 21.6866 26.4029H22.4542C25.6386 26.4029 28.8244 26.4621 32.0074 26.3846C34.6101 26.3198 36.0706 28.3296 36.0129 30.4169C35.9058 34.2069 35.9847 38.0011 35.9819 41.7954C35.9819 44.0826 34.5228 45.5783 32.2214 45.5981C28.9906 45.622 25.7583 45.6051 22.5274 45.6051H21.6669C21.5908 45.9783 21.5457 46.3009 21.457 46.6135C21.2417 47.3485 20.7981 47.9959 20.1904 48.462C19.5827 48.9282 18.8425 49.1889 18.0768 49.2064C16.6487 49.2275 15.2178 49.1684 13.7925 49.2219C11.9278 49.2923 10.5813 48.5613 9.77995 46.8191C7.542 46.8191 5.29419 46.7684 3.04919 46.8375C1.58727 46.8811 0.563361 46.3685 0.0014084 45.0065L0 27.0015ZM19.1627 35.997C19.1627 32.9041 19.1627 29.8117 19.1627 26.7198C19.1627 25.5931 18.7656 25.2086 17.6318 25.203C16.2722 25.1945 14.9131 25.1945 13.5545 25.203C12.4277 25.203 12.0137 25.6086 12.0052 26.7198C11.9987 32.9055 11.9987 39.0903 12.0052 45.2741C12.0052 46.3839 12.4277 46.7853 13.5545 46.7924C14.8896 46.8008 16.2304 46.7924 17.5614 46.7924C18.7825 46.7924 19.1599 46.4149 19.1613 45.2023C19.166 42.1339 19.1665 39.0654 19.1627 35.997ZM21.6486 43.1798H22.3528C25.5818 43.1798 28.8108 43.1798 32.0398 43.1798C33.1777 43.1798 33.589 42.7573 33.589 41.6024C33.589 37.8589 33.589 34.1154 33.589 30.3718C33.589 29.2282 33.1665 28.8226 32.013 28.8226H21.6486V43.1798ZM2.41682 44.3347H9.52784V27.6606H2.41682V44.3347Z" fill="#D41D12"/>
<path d="M22.0685 71.9834C21.5192 71.6863 20.901 71.4722 20.432 71.0806C18.9841 69.8694 18.8264 68.0737 19.9742 66.0343C19.6925 66.0202 19.4503 65.9991 19.2137 65.9991C16.4729 65.9991 13.7336 66.0104 10.9942 65.9991C9.16333 65.9864 7.77746 64.9865 7.3324 63.402C7.17574 62.8666 7.14562 62.3021 7.24442 61.753C7.34323 61.2039 7.56825 60.6853 7.90174 60.238C8.23523 59.7908 8.66807 59.4271 9.16613 59.1758C9.66418 58.9244 10.2138 58.7922 10.7717 58.7895C13.559 58.767 16.3462 58.7895 19.1334 58.7895H19.9432C19.7094 58.2614 19.432 57.8036 19.294 57.298C19.0912 56.5584 19.1324 55.7732 19.4115 55.0589C19.6906 54.3447 20.1927 53.7395 20.8432 53.3334C22.1741 52.4785 23.8163 52.5672 25.0924 53.615C26.8317 55.0375 28.55 56.4882 30.2753 57.9276C30.9584 58.4909 31.6513 59.0543 32.3189 59.6444C34.0625 61.1838 34.0766 63.664 32.3034 65.1766C29.9359 67.1977 27.5331 69.1793 25.1205 71.1482C24.6811 71.506 24.1262 71.7201 23.6234 72.0003L22.0685 71.9834ZM17.218 61.1866C15.2265 61.1866 13.235 61.1866 11.2449 61.1866C10.9652 61.1783 10.6857 61.2111 10.4154 61.2838C9.85203 61.4584 9.59571 61.8979 9.63092 62.4683C9.66613 63.0387 10.014 63.4161 10.5802 63.5372C10.8136 63.5686 11.0495 63.5757 11.2844 63.5584C15.1969 63.5584 19.1085 63.5584 23.0192 63.5584C23.6811 63.5584 24.2318 63.6992 24.4882 64.3851C24.7529 65.0893 24.3642 65.5343 23.8628 65.9414C23.2643 66.4287 22.6657 66.9188 22.0854 67.4301C21.5404 67.9103 21.4685 68.6131 21.8784 69.1201C21.9749 69.2474 22.097 69.353 22.2367 69.4304C22.3764 69.5078 22.5308 69.5551 22.6898 69.5694C22.8489 69.5838 23.0092 69.5647 23.1605 69.5135C23.3118 69.4624 23.4507 69.3802 23.5685 69.2723C25.9496 67.3108 28.3209 65.3311 30.6823 63.333C31.3724 62.7485 31.3583 61.9922 30.664 61.4063C28.3364 59.444 25.998 57.4952 23.6487 55.56C23.0417 55.0587 22.3361 55.1094 21.8953 55.6248C21.4545 56.1403 21.5305 56.8431 22.115 57.3614C22.6995 57.8797 23.2952 58.3585 23.891 58.8501C24.3656 59.243 24.736 59.6782 24.5036 60.3542C24.2713 61.0303 23.7149 61.1993 23.0488 61.1908C21.1052 61.1753 19.1616 61.1852 17.218 61.1866Z" fill="#D41D12"/>
<path d="M38.3779 35.9559C38.3779 32.8405 38.3779 29.7256 38.3779 26.6111C38.3779 24.3028 39.8906 22.7944 42.206 22.793C47.6396 22.793 53.0718 22.793 58.5054 22.793C60.0772 22.793 61.2377 23.4352 62.0152 24.8154C62.1236 25.0098 62.4743 25.1689 62.7194 25.1732C64.9207 25.1999 67.122 25.1844 69.3234 25.1901C71.005 25.1901 71.9669 26.1633 71.9669 27.8562C71.9669 33.2879 71.9669 38.7211 71.9669 44.1556C71.9669 45.8457 71.0008 46.8105 69.3135 46.8133C67.1122 46.8133 64.9108 46.8217 62.7095 46.8133C62.3475 46.8133 62.1461 46.8936 61.9546 47.2485C61.2504 48.5541 60.1237 49.2118 58.6378 49.2118C53.1338 49.2118 47.6302 49.2118 42.1271 49.2118C39.9145 49.2118 38.385 47.6625 38.3808 45.4528C38.3742 42.282 38.3732 39.1164 38.3779 35.9559ZM40.8624 44.4162C40.5807 46.2696 41.0032 46.7936 42.7341 46.7936H58.2604C59.6012 46.7936 59.9603 46.4316 59.9603 45.0767C59.9603 39.0347 59.9603 32.9926 59.9603 26.9506C59.9603 25.5422 59.6195 25.2013 58.2237 25.2013H46.9833C45.3904 25.2013 43.7989 25.1915 42.206 25.2013C41.3384 25.2098 40.8778 25.5901 40.7976 26.3562C40.7581 26.7407 40.7905 27.1323 40.7905 27.5731H41.6356C45.6392 27.5731 49.6433 27.5731 53.6478 27.5731C56.0745 27.5731 57.5914 29.0885 57.6012 31.5166C57.6087 34.4912 57.6087 37.4652 57.6012 40.4388C57.6012 42.9092 56.0858 44.4134 53.6126 44.4148C49.6081 44.4148 45.6035 44.4148 41.599 44.4148L40.8624 44.4162ZM69.5262 44.3584V27.6618H62.4419V44.3584H69.5262ZM47.9001 41.9416V30.0561H40.8314V41.9416H47.9001ZM50.4479 41.9501C51.7056 41.9501 52.9183 41.9839 54.1267 41.936C54.7365 41.912 55.0802 41.4951 55.1337 40.8726C55.1421 40.7797 55.145 40.6867 55.145 40.591C55.145 37.5263 55.145 34.4621 55.145 31.3983C55.145 30.5645 54.8239 30.0899 54.1267 30.0575C52.9183 30.0012 51.7056 30.042 50.4494 30.042L50.4479 41.9501Z" fill="#D41D12"/>
<path d="M51.9483 13.2189C52.6046 14.2161 52.9708 15.147 52.7553 16.2329C52.192 19.0582 49.0935 20.1891 46.84 18.3554C44.8077 16.6991 42.8078 15.002 40.7938 13.3231C40.3811 12.9781 39.9572 12.6443 39.5614 12.2795C37.9629 10.7965 37.9319 8.36556 39.5825 6.94166C42.0275 4.82906 44.5119 2.77279 47.0288 0.744691C48.3329 -0.313019 50.2343 -0.215839 51.5018 0.857363C52.135 1.38856 52.5659 2.12158 52.7221 2.93313C52.8783 3.74469 52.7503 4.58528 52.3596 5.31355C52.261 5.49946 52.1483 5.67551 51.9779 5.96564C52.2835 5.98113 52.5201 6.00226 52.7567 6.00226C55.4961 6.00226 58.2368 5.99099 60.9762 6.0093C62.8071 6.02198 64.1915 7.02053 64.638 8.60358C64.7947 9.13922 64.8247 9.70392 64.7259 10.2532C64.627 10.8024 64.4018 11.3212 64.0682 11.7686C63.7346 12.2159 63.3016 12.5797 62.8034 12.8311C62.3052 13.0826 61.7553 13.2149 61.1973 13.2175C58.4115 13.2429 55.6242 13.2245 52.837 13.2245L51.9483 13.2189ZM54.7989 10.8091H56.6298C58.1044 10.8091 59.5804 10.8317 61.0536 10.7979C62.0395 10.7753 62.6198 9.95283 62.2564 9.13877C62.0057 8.57541 61.524 8.42471 60.9325 8.42612C56.9059 8.43739 52.8807 8.42612 48.8555 8.43457C48.2104 8.43457 47.7076 8.23035 47.4752 7.58953C47.2428 6.9487 47.5555 6.51492 48.0203 6.13183C48.6512 5.61072 49.2878 5.09666 49.9033 4.55442C50.4427 4.07697 50.5075 3.36432 50.0963 2.86434C49.6667 2.34182 48.9822 2.2545 48.4062 2.7235C46.0213 4.68775 43.6486 6.66562 41.2881 8.6571C40.5994 9.24018 40.6121 9.99931 41.305 10.5838C43.6261 12.5433 45.9626 14.4902 48.3146 16.4244C48.9216 16.9258 49.6273 16.885 50.0681 16.3766C50.5089 15.8681 50.4357 15.14 49.8118 14.5935C49.2667 14.1147 48.7005 13.6597 48.1414 13.1992C47.6541 12.7978 47.2203 12.3696 47.4597 11.65C47.6992 10.9303 48.285 10.7922 48.9723 10.8049C50.9145 10.8204 52.8567 10.8091 54.7989 10.8091V10.8091Z" fill="#D41D12"/>
<path d="M26.3872 35.9974C26.3872 34.8706 26.3773 33.7538 26.3872 32.6313C26.3971 31.7046 26.8097 31.2229 27.5703 31.213C28.3308 31.2032 28.7998 31.7299 28.8012 32.6665C28.8068 34.8861 28.8068 37.1067 28.8012 39.3282C28.8012 40.2648 28.3449 40.7916 27.5703 40.7831C26.7956 40.7747 26.3971 40.2902 26.3872 39.3635C26.3773 38.2424 26.3872 37.1199 26.3872 35.9974Z" fill="#D41D12"/>
</svg>
