<svg width="26" height="19" viewBox="0 0 26 19" fill="none" xmlns="http://www.w3.org/2000/svg">
<path opacity="0.6" fill-rule="evenodd" clip-rule="evenodd" d="M14.4007 0.104901C14.2278 0.240366 14.2169 0.506287 14.3781 0.65587C14.4743 0.745185 14.5563 0.759051 14.9876 0.759051H15.4859V6.07241V11.3858H15.06H14.6341L14.6115 10.1839C14.592 9.15162 14.5747 8.94283 14.4884 8.70378C14.3328 8.27259 11.194 2.89558 10.9528 2.64701C10.6802 2.36621 10.2534 2.14563 9.84767 2.07595C9.62169 2.03714 8.54179 2.02403 6.41941 2.03436C3.51036 2.04853 3.31019 2.05521 3.14328 2.14376C2.89445 2.27579 2.6955 2.47046 2.56719 2.70728C2.45819 2.90853 2.45748 2.93029 2.44361 6.53548L2.4296 10.1613L1.98648 10.1789C1.64566 10.1925 1.49054 10.2239 1.31475 10.3147C0.993076 10.4809 0.680549 10.7999 0.543104 11.1024C0.429836 11.3517 0.425011 11.4196 0.399818 13.1063C0.374624 14.791 0.369748 14.8595 0.260087 15.0648C-0.242202 16.0048 0.00302496 17.3602 0.823276 18.1774C1.15582 18.5087 1.54499 18.7445 2.02584 18.9059C2.39622 19.0302 3.15273 19.03 3.57502 18.9054C4.45399 18.6461 5.15122 17.999 5.47538 17.1419L5.528 17.0027H8.77706H12.0261L12.1883 17.3061C12.6026 18.0803 13.3639 18.6809 14.22 18.909C14.7399 19.0474 15.5128 19.0259 16.0232 18.8587C17.7756 18.2849 18.7092 16.3459 18.0355 14.6793L17.9007 14.3461L17.886 12.031L17.8712 9.71585H18.3039H18.7366V13.2759V16.8359L18.8509 17.0032C18.9138 17.0952 19.0297 17.2182 19.1086 17.2764C19.25 17.3807 19.2966 17.3825 22.4101 17.3966C24.1471 17.4045 25.6203 17.3983 25.6838 17.3827C25.8479 17.3425 26 17.1752 26 17.0349C26 16.969 25.9526 16.8552 25.8947 16.7819L25.7895 16.6485H22.644H19.4985V13.1223C19.4985 9.65912 19.4967 9.59212 19.3933 9.37949C19.2276 9.03847 19.025 8.94395 18.4003 8.91627L17.8755 8.89304L17.8616 4.73749C17.8481 0.671406 17.8455 0.578144 17.745 0.404827C17.6842 0.299926 17.5503 0.181261 17.4168 0.113858C17.2001 0.00440249 17.1399 0 15.8629 0C14.596 0 14.5284 0.00485783 14.4007 0.104901ZM17.0989 4.84527L17.1119 8.9062H16.6798H16.2478V4.8306V0.754952L16.6668 0.769677L17.0859 0.784352L17.0989 4.84527ZM4.46389 5.26027C4.46389 7.7495 4.48426 8.09118 4.65213 8.41858C4.79247 8.69224 5.12064 8.99192 5.44181 9.13973L5.75911 9.28572L9.80983 9.30065L13.8605 9.31553V10.4023V11.4891L13.7209 11.5453C13.4626 11.6492 12.6682 12.0371 12.5288 12.1274L12.3908 12.2169L11.6145 11.4554C10.8425 10.6981 10.5976 10.5134 10.0889 10.3055C9.82806 10.1989 9.75406 10.1961 6.521 10.1713L3.21947 10.146L3.20733 6.65435C3.19784 3.92875 3.20921 3.13518 3.25914 3.03722C3.35809 2.8429 3.53266 2.78475 4.01946 2.78395L4.46389 2.78319V5.26027ZM9.80612 2.83546C9.90887 2.86385 10.1025 2.9605 10.2366 3.05022C10.4655 3.20345 10.5717 3.371 11.9918 5.81939C12.8231 7.25273 13.5037 8.44257 13.5042 8.46342C13.5046 8.48426 12.1907 8.50137 10.5844 8.50137H7.66383V6.20453C7.66383 4.04776 7.65815 3.90066 7.57017 3.79242C7.44649 3.64026 7.18938 3.63823 7.03878 3.78817C6.92775 3.89879 6.92729 3.90774 6.91317 6.20028L6.89895 8.50137H6.34927C5.86339 8.50137 5.77948 8.48811 5.62695 8.38711C5.53201 8.32426 5.4029 8.17143 5.34007 8.04746C5.22609 7.82273 5.22578 7.81488 5.22578 5.30263V2.78319L7.42257 2.78349C8.76101 2.78364 9.69234 2.80393 9.80612 2.83546ZM17.1113 10.7844C17.1113 11.7791 17.1051 11.8511 17.0224 11.825C16.9735 11.8096 16.7792 11.7343 16.5907 11.6576L16.2478 11.5181V10.617V9.71585H16.6795H17.1113V10.7844ZM10.0128 11.1174C10.2912 11.2488 10.4934 11.4136 11.0912 11.9971L11.8269 12.715L11.6315 12.9486C11.2366 13.4206 10.91 14.0353 10.7413 14.6244C10.6443 14.9632 10.565 15.7349 10.597 16.0286L10.6205 16.2437H8.1263H5.63213L5.63136 16.0539C5.62893 15.4396 5.31335 14.751 4.79968 14.2392C4.22801 13.6697 3.60453 13.4093 2.81516 13.4105C2.32192 13.4112 1.96215 13.4998 1.50273 13.7335L1.15734 13.9092L1.17258 12.6854C1.18746 11.4881 1.19041 11.458 1.30911 11.2922C1.3758 11.199 1.50151 11.0792 1.58847 11.026C1.741 10.9327 1.88464 10.9298 5.70832 10.9425L9.67015 10.9556L10.0128 11.1174ZM15.9193 12.2464C16.3432 12.3545 17.0543 12.6773 17.0938 12.7795C17.1068 12.8132 17.1103 12.946 17.1016 13.0746L17.0859 13.3083L16.8573 13.1552C16.1222 12.6626 15.1288 12.4761 14.2923 12.6737C12.8373 13.0174 11.8311 14.2823 11.8249 15.7756L11.8229 16.2437H11.6024H11.3819L11.3628 16.0037C11.2497 14.5879 12.0991 13.1445 13.4258 12.4977C14.151 12.144 15.1302 12.0454 15.9193 12.2464ZM15.7549 13.461C16.7874 13.7787 17.4808 14.722 17.4841 15.8136C17.4876 16.9482 16.7094 17.9006 15.5369 18.1967C14.54 18.4485 13.3455 17.884 12.8601 16.9318C12.6573 16.534 12.589 16.2472 12.588 15.7883C12.5855 14.7133 13.2747 13.7832 14.3156 13.4568C14.714 13.3319 15.3412 13.3337 15.7549 13.461ZM3.4263 14.2528C4.51159 14.6164 5.10033 15.7239 4.77515 16.7904C4.5444 17.5472 3.93194 18.0847 3.15055 18.216C2.04845 18.4012 0.981343 17.6379 0.797525 16.5329C0.63001 15.5258 1.2443 14.559 2.25441 14.2399C2.54698 14.1475 3.13109 14.1539 3.4263 14.2528ZM14.5068 14.2968C13.6221 14.6204 13.1995 15.6322 13.5987 16.4714C13.743 16.7749 14.0329 17.0842 14.3019 17.2218C14.7218 17.4366 15.3454 17.4315 15.7816 17.2098C16.242 16.9758 16.6081 16.3811 16.6161 15.8544C16.6203 15.5827 16.4881 15.434 16.2422 15.434C16.0401 15.434 15.9061 15.5858 15.8646 15.8618C15.8453 15.9899 15.7806 16.168 15.7208 16.2577C15.5996 16.4395 15.2296 16.6485 15.0288 16.6485C14.8243 16.6485 14.4571 16.4383 14.3308 16.2488C14.1724 16.0114 14.1728 15.6142 14.3316 15.3795C14.4771 15.1644 14.7499 14.9788 14.922 14.9778C15.1065 14.9768 15.2953 14.8718 15.3658 14.7309C15.4388 14.585 15.3675 14.3424 15.23 14.2691C15.0996 14.1996 14.7343 14.2136 14.5068 14.2968ZM2.28834 15.1609C1.4045 15.5998 1.41415 16.8084 2.3052 17.2688C2.57283 17.4071 3.04449 17.4144 3.31192 17.2845C3.71465 17.0889 4.00351 16.6645 4.00564 16.2651C4.00772 15.8823 3.63044 15.7031 3.36957 15.9631C3.301 16.0314 3.24487 16.1439 3.24487 16.2133C3.24487 16.4175 3.0354 16.6182 2.82222 16.6182C2.40466 16.6182 2.2411 16.1046 2.57954 15.8561C2.62347 15.8238 2.74421 15.7839 2.84782 15.7674C3.17808 15.7147 3.30856 15.3564 3.07654 15.1392C2.91436 14.9875 2.62159 14.9955 2.28834 15.1609Z" fill="#25343F"/>
</svg>
