<svg width="216" height="80" viewBox="0 0 216 80" fill="none" xmlns="http://www.w3.org/2000/svg">
<g opacity="0.7" filter="url(#filter0_d_3_18)">
<path d="M83.8579 40.8843C83.3056 40.8843 82.8579 41.332 82.8579 41.8843C82.8579 42.4366 83.3056 42.8843 83.8579 42.8843L83.8579 40.8843ZM127.564 42.5914C127.954 42.2009 127.954 41.5677 127.564 41.1772L121.2 34.8132C120.809 34.4227 120.176 34.4227 119.785 34.8132C119.395 35.2037 119.395 35.8369 119.785 36.2274L125.442 41.8843L119.785 47.5411C119.395 47.9317 119.395 48.5648 119.785 48.9553C120.176 49.3459 120.809 49.3459 121.2 48.9553L127.564 42.5914ZM83.8579 42.8843L126.856 42.8843L126.856 40.8843L83.8579 40.8843L83.8579 42.8843Z" fill="#25343F"/>
<path d="M126.856 22.9207C127.408 22.9207 127.856 22.4729 127.856 21.9207C127.856 21.3684 127.408 20.9207 126.856 20.9207L126.856 22.9207ZM83.1503 21.2135C82.7598 21.6041 82.7598 22.2372 83.1503 22.6278L89.5143 28.9917C89.9048 29.3822 90.538 29.3822 90.9285 28.9917C91.319 28.6012 91.319 27.968 90.9285 27.5775L85.2716 21.9207L90.9285 16.2638C91.319 15.8733 91.319 15.2401 90.9285 14.8496C90.538 14.4591 89.9048 14.4591 89.5143 14.8496L83.1503 21.2135ZM126.856 20.9207L83.8574 20.9207L83.8574 22.9207L126.856 22.9207L126.856 20.9207Z" fill="#25343F"/>
<path d="M139.014 60.6916C139.646 59.2763 140.751 58.7307 142.268 58.8435C143.069 58.9021 143.879 58.8535 144.745 58.8535V54.3177C144.01 54.2363 143.156 54.162 143.174 53.1309C143.197 52.1812 143.979 52.0927 144.754 52.0541V47.6611C144.253 47.424 143.78 47.2498 143.372 46.9799C143.229 46.8813 143.167 46.5514 143.169 46.3315C143.169 45.6845 143.589 45.4118 144.81 45.2289C144.81 44.8433 144.798 44.4435 144.81 44.045C144.834 43.2852 145.185 42.7254 145.888 42.4269C147.677 41.67 149.444 40.8431 151.279 40.2204C151.979 39.9833 152.905 40.0476 153.617 40.2904C155.34 40.8788 156.998 41.6557 158.683 42.3541C159.495 42.6911 159.894 43.3109 159.922 44.1764C159.934 44.5277 159.922 44.879 159.922 45.2175C161.194 45.4289 161.636 45.7502 161.608 46.4172C161.579 47.0841 161.154 47.394 159.985 47.4897V52.0598C160.756 52.0812 161.556 52.1583 161.602 53.1923C161.631 53.8407 161.158 54.1478 159.961 54.3349V58.8578H208.87C209.131 58.8578 209.394 58.8464 209.654 58.8678C210.289 58.9055 210.886 59.1855 211.321 59.6502C211.757 60.115 211.997 60.729 211.993 61.3657C212.004 63.8349 212 66.3056 211.993 68.7749C211.993 70.3587 211.016 71.3613 209.445 71.4056C209.232 71.4127 209.017 71.4056 208.804 71.4056H151.439C151.154 71.4056 150.868 71.4056 150.582 71.3899C149.968 71.3427 149.62 70.9814 149.583 70.3902C149.545 69.7989 149.904 69.4119 150.48 69.2819C150.738 69.2449 151 69.2358 151.261 69.2548H172.886C172.886 68.2008 172.924 67.1868 172.877 66.1771C172.786 64.2063 173.2 63.3422 175.701 63.3608C184.227 63.4251 192.754 63.3851 201.282 63.3865C203.038 63.3865 203.59 63.932 203.591 65.6715C203.591 66.8312 203.591 67.9923 203.591 69.1919C203.737 69.2221 203.885 69.2427 204.034 69.2533C205.748 69.2533 207.461 69.2462 209.164 69.2633C209.628 69.2633 209.868 69.1505 209.865 68.6292C209.848 66.3023 209.848 63.9749 209.865 61.647C209.865 61.1729 209.646 61.0072 209.214 61.0215C209.048 61.0215 208.882 61.0215 208.715 61.0215H142.299C141.147 61.0215 141.147 61.0215 141.147 62.1369C141.147 64.2505 141.162 66.3656 141.137 68.4793C141.137 69.0505 141.289 69.2948 141.902 69.2676C142.875 69.2248 143.85 69.2491 144.823 69.2591C145.628 69.2676 146.132 69.7061 146.122 70.3616C146.111 70.9928 145.637 71.397 144.855 71.407C143.953 71.4199 143.046 71.3584 142.142 71.4227C140.625 71.5327 139.571 70.9571 139 69.5318L139.014 60.6916ZM147.012 52.0141H157.677V47.4997H147.012V52.0141ZM157.683 58.8207V54.302H147.021V58.8207H157.683ZM147.042 45.2532H157.677C157.904 44.5391 157.637 44.2207 157.01 43.985C155.685 43.488 154.404 42.8668 153.073 42.3841C152.617 42.2312 152.123 42.2312 151.666 42.3841C150.334 42.8568 149.057 43.4909 147.726 43.9765C147.053 44.2221 146.825 44.5677 147.039 45.2475L147.042 45.2532ZM187.102 69.2319V65.5744H181.817V69.2319H187.102ZM194.587 69.2248V65.5673H189.36V69.2248H194.587ZM175.082 69.2162H179.574V65.5773H175.082V69.2162ZM201.425 65.5701H196.869V69.1976H201.425V65.5701Z" fill="#25343F"/>
<path d="M177.052 20.7833L172.346 12.8099C170.393 9.50039 168.441 6.19136 166.491 2.8828C165.648 1.45465 166.248 0.382108 167.898 0.376395C169.656 0.376395 171.414 0.404958 173.171 0.362113C174.142 0.337835 174.884 0.660598 175.581 1.33897C182.011 7.60761 188.449 13.8658 194.896 20.1135C195.368 20.5748 195.828 20.8204 196.512 20.7847C197.72 20.7204 198.94 20.7976 200.145 20.7462C201.716 20.6827 203.279 20.9889 204.71 21.6402C206.095 22.2557 207.522 22.7741 208.92 23.354C210.391 23.9709 211.171 25.1063 211.135 26.5973C211.098 28.1354 210.318 29.1808 208.907 29.7621C207.199 30.4666 205.489 31.1669 203.777 31.8629C202.026 32.577 200.167 32.5127 198.365 32.3656C196.422 32.2057 195.057 32.8383 193.712 34.2394C190.753 37.3213 187.609 40.2262 184.54 43.2039C184.437 43.3024 184.34 43.4067 184.229 43.4967C183.747 43.8837 183.148 43.8723 182.746 43.4738C182.318 43.0454 182.294 42.4227 182.763 41.9485C183.763 40.936 184.796 39.9491 185.818 38.958C187.863 36.9728 189.91 34.9887 191.959 33.0054C192.102 32.8626 192.245 32.7084 192.473 32.4684C192.134 32.4484 191.909 32.4242 191.687 32.4242C187.862 32.4242 184.037 32.4294 180.213 32.4399C179.85 32.4399 179.566 32.4513 179.333 32.8469C175.913 38.6795 172.479 44.5035 169.032 50.3189C168.975 50.4161 168.929 50.5203 168.827 50.7203C170.448 50.7203 171.979 50.736 173.51 50.7017C173.723 50.7017 173.957 50.4675 174.136 50.2961C175.778 48.7146 177.416 47.128 179.049 45.5361C179.447 45.149 179.897 45.0162 180.406 45.3047C180.611 45.405 180.774 45.5749 180.866 45.7841C180.957 45.9933 180.972 46.2283 180.907 46.4472C180.821 46.7156 180.669 46.9576 180.463 47.1499C178.749 48.8294 177.019 50.4917 175.304 52.1684C174.777 52.684 174.162 52.8825 173.433 52.8825C171.557 52.8682 169.68 52.8825 167.804 52.8825C166.303 52.8725 165.673 51.7671 166.435 50.4732C169.784 44.7929 173.137 39.1155 176.495 33.441C176.661 33.1554 176.821 32.8698 177.025 32.5156C176.878 32.4812 176.728 32.4601 176.577 32.4527C173.266 32.7027 170.069 31.9357 166.847 31.3873C165.677 31.1888 164.514 30.9475 163.341 30.8004C162.953 30.7654 162.565 30.8663 162.244 31.086C160.156 32.6127 158.093 34.1751 156.036 35.7461C155.54 36.1569 154.911 36.3704 154.267 36.3459C153.319 36.3087 152.367 36.3302 151.411 36.3459C150.741 36.3602 150.189 36.1688 149.867 35.5447C149.546 34.9206 149.702 34.3636 150.067 33.8081C151.495 31.6258 152.902 29.4236 154.36 27.26C154.684 26.7787 154.646 26.4702 154.337 26.0189C152.895 23.8767 151.497 21.6959 150.066 19.5408C149.682 18.9624 149.513 18.3811 149.853 17.7442C150.193 17.1072 150.787 16.9244 151.478 16.9487C152.049 16.9921 152.622 16.9888 153.192 16.9387C154.62 16.7616 155.74 17.2643 156.832 18.1541C158.563 19.5608 160.38 20.8675 162.192 22.1643C162.531 22.3948 162.942 22.4962 163.349 22.4499C166.435 21.9429 169.506 21.3303 172.598 20.8604C173.76 20.6847 174.967 20.8047 176.154 20.7904C176.401 20.7833 176.657 20.7833 177.052 20.7833ZM168.8 2.53005C169.003 2.89137 169.125 3.11988 169.257 3.34267C172.399 8.67254 175.59 13.9796 178.67 19.348C179.306 20.4548 179.956 20.9047 181.25 20.8204C183.283 20.6876 185.331 20.7733 187.373 20.7833C188.088 20.7833 188.55 21.2246 188.549 21.843C188.547 22.4614 188.075 22.887 187.372 22.9141C187.206 22.9212 187.039 22.9141 186.874 22.9141C183.502 22.9141 180.128 22.907 176.757 22.9141C175.43 22.9141 174.083 22.8384 172.779 23.0298C169.616 23.4911 166.468 24.0666 163.323 24.6507C162.954 24.7298 162.572 24.7248 162.205 24.636C161.837 24.5473 161.495 24.3771 161.203 24.138C159.27 22.6799 157.277 21.2974 155.407 19.7636C154.48 19.0038 153.538 19.0495 152.422 19.1138C152.591 19.3994 152.708 19.6222 152.851 19.8279C154.033 21.6345 155.197 23.4525 156.421 25.2363C157.064 26.1803 157.084 27.0357 156.438 27.9898C155.19 29.8378 153.996 31.7215 152.781 33.591C152.675 33.7552 152.592 33.9337 152.495 34.0965C153.78 34.3822 154.78 34.0466 155.758 33.2396C157.554 31.7801 159.437 30.4105 161.334 29.0666C161.781 28.7495 162.439 28.5053 162.962 28.5667C164.7 28.7695 166.42 29.138 168.149 29.4236C170.671 29.8421 173.169 30.3305 175.761 30.3019C183.739 30.2148 191.719 30.2162 199.698 30.2405C201.324 30.2405 202.84 30.012 204.319 29.3336C205.478 28.7995 206.679 28.3496 207.868 27.8769C208.479 27.6327 208.984 27.2871 208.986 26.563C208.987 25.839 208.492 25.4905 207.876 25.2463C206.312 24.6279 204.771 23.9452 203.187 23.3897C202.41 23.1096 201.594 22.953 200.768 22.9255C198.205 22.8698 195.638 22.9341 193.075 22.8784C192.685 22.8698 192.169 22.5542 191.949 22.2243C191.654 21.7787 191.856 21.2631 192.319 20.9204C192.367 20.871 192.407 20.8152 192.439 20.7547C192.366 20.669 192.312 20.5919 192.245 20.5276C186.162 14.6246 180.078 8.72157 173.992 2.81854C173.851 2.66565 173.662 2.56499 173.456 2.53291C171.944 2.52005 170.434 2.53005 168.8 2.53005Z" fill="#25343F"/>
<path d="M177.406 25.1662C177.678 25.1663 177.945 25.2478 178.171 25.4002C178.397 25.5526 178.572 25.769 178.675 26.0217C178.777 26.2744 178.801 26.5518 178.745 26.8186C178.689 27.0853 178.554 27.3292 178.359 27.519C178.163 27.7088 177.915 27.8359 177.647 27.8839C177.378 27.932 177.102 27.8989 176.852 27.7889C176.603 27.6788 176.392 27.4968 176.247 27.2662C176.101 27.0356 176.028 26.7669 176.036 26.4944C176.038 26.3169 176.074 26.1414 176.144 25.9782C176.214 25.815 176.316 25.6674 176.443 25.5438C176.571 25.4202 176.721 25.3232 176.887 25.2584C177.052 25.1935 177.228 25.1622 177.406 25.1662V25.1662Z" fill="#25343F"/>
<path d="M183.87 26.4958C183.877 26.8648 183.738 27.2214 183.482 27.4874C183.226 27.7533 182.875 27.9068 182.506 27.914C182.137 27.9212 181.781 27.7815 181.515 27.5258C181.249 27.27 181.095 26.919 181.088 26.5501C181.085 26.3674 181.117 26.1858 181.184 26.0157C181.25 25.8456 181.35 25.6902 181.476 25.5586C181.603 25.4269 181.754 25.3214 181.922 25.2482C182.089 25.175 182.269 25.1355 182.452 25.1319C182.635 25.1284 182.816 25.1608 182.986 25.2274C183.157 25.2941 183.312 25.3935 183.444 25.5202C183.575 25.6468 183.681 25.7982 183.754 25.9656C183.827 26.133 183.867 26.3132 183.87 26.4958V26.4958Z" fill="#25343F"/>
<path d="M188.84 26.516C188.829 26.8759 188.677 27.2172 188.419 27.4677C188.16 27.7182 187.814 27.8583 187.454 27.8583C187.094 27.8583 186.748 27.7182 186.489 27.4677C186.231 27.2172 186.08 26.8759 186.068 26.516C186.08 26.1561 186.231 25.8148 186.489 25.5643C186.748 25.3138 187.094 25.1738 187.454 25.1738C187.814 25.1738 188.16 25.3138 188.419 25.5643C188.677 25.8148 188.829 26.1561 188.84 26.516V26.516Z" fill="#25343F"/>
<path d="M193.902 26.5473C193.891 26.8137 193.803 27.0711 193.647 27.2874C193.491 27.5037 193.275 27.6695 193.025 27.7641C192.776 27.8587 192.504 27.878 192.244 27.8196C191.984 27.7612 191.747 27.6276 191.562 27.4355C191.377 27.2434 191.253 27.0013 191.204 26.7391C191.156 26.4769 191.185 26.2062 191.289 25.9607C191.393 25.7151 191.567 25.5056 191.789 25.358C192.011 25.2104 192.272 25.1314 192.538 25.1306C192.722 25.1296 192.904 25.166 193.074 25.2376C193.243 25.3091 193.396 25.4143 193.524 25.5468C193.651 25.6792 193.751 25.8362 193.816 26.0082C193.881 26.1802 193.91 26.3636 193.902 26.5473V26.5473Z" fill="#25343F"/>
<path d="M4.01428 60.6916C4.64553 59.2763 5.75092 58.7307 7.26762 58.8435C8.06881 58.9021 8.87857 58.8535 9.74546 58.8535V54.3177C9.00996 54.2363 8.15593 54.162 8.17449 53.1309C8.19734 52.1812 8.97854 52.0927 9.75403 52.0541V47.6611C9.25275 47.424 8.78003 47.2498 8.37158 46.9799C8.22876 46.8813 8.16735 46.5514 8.16878 46.3315C8.16878 45.6845 8.58866 45.4118 9.80973 45.2289C9.80973 44.8433 9.79831 44.4435 9.80973 44.045C9.83401 43.2852 10.1853 42.7254 10.888 42.4269C12.6775 41.67 14.4441 40.8431 16.2793 40.2204C16.9791 39.9833 17.9045 40.0476 18.6172 40.2904C20.3395 40.8788 21.9976 41.6557 23.6828 42.3541C24.4954 42.6911 24.8939 43.3109 24.9225 44.1764C24.9339 44.5277 24.9225 44.879 24.9225 45.2175C26.1935 45.4289 26.6362 45.7502 26.6077 46.4172C26.5791 47.0841 26.1535 47.394 24.9853 47.4897V52.0598C25.7565 52.0812 26.5563 52.1583 26.602 53.1923C26.6305 53.8407 26.1578 54.1478 24.961 54.3349V58.8578H73.8696C74.1309 58.8578 74.3937 58.8464 74.6536 58.8678C75.2892 58.9055 75.8862 59.1855 76.3214 59.6502C76.7566 60.115 76.997 60.729 76.9929 61.3657C77.0044 63.8349 77.0001 66.3056 76.9929 68.7749C76.9929 70.3587 76.0161 71.3613 74.4451 71.4056C74.2323 71.4127 74.0167 71.4056 73.8039 71.4056H16.4392C16.1536 71.4056 15.868 71.4056 15.5823 71.3899C14.9682 71.3427 14.6198 70.9814 14.5826 70.3902C14.5455 69.7989 14.904 69.4119 15.4795 69.2819C15.7382 69.2449 16.0001 69.2358 16.2607 69.2548H37.8858C37.8858 68.2008 37.9244 67.1868 37.8772 66.1771C37.7858 64.2063 38.2 63.3422 40.7007 63.3608C49.2268 63.4251 57.7543 63.3851 66.2818 63.3865C68.0384 63.3865 68.5897 63.932 68.5911 65.6715C68.5911 66.8312 68.5911 67.9923 68.5911 69.1919C68.7372 69.2221 68.8851 69.2427 69.0338 69.2533C70.7476 69.2533 72.4614 69.2462 74.1638 69.2633C74.6279 69.2633 74.8679 69.1505 74.865 68.6292C74.8479 66.3023 74.8479 63.9749 74.865 61.647C74.865 61.1729 74.6465 61.0072 74.2138 61.0215C74.0481 61.0215 73.8824 61.0215 73.7153 61.0215H7.29904C6.14652 61.0215 6.14652 61.0215 6.14652 62.1369C6.14652 64.2505 6.16223 66.3656 6.13652 68.4793C6.13652 69.0505 6.28933 69.2948 6.90201 69.2676C7.87458 69.2248 8.85001 69.2491 9.82258 69.2591C10.6281 69.2676 11.1322 69.7061 11.1222 70.3616C11.1108 70.9928 10.6366 71.397 9.85543 71.407C8.95284 71.4199 8.04596 71.3584 7.14194 71.4227C5.62524 71.5327 4.57126 70.9571 4 69.5318L4.01428 60.6916ZM12.0119 52.0141H22.6774V47.4997H12.0119V52.0141ZM22.6831 58.8207V54.302H12.0205V58.8207H22.6831ZM12.0419 45.2532H22.6774C22.9045 44.5391 22.6374 44.2207 22.0104 43.985C20.6851 43.488 19.4041 42.8668 18.073 42.3841C17.6166 42.2312 17.1228 42.2312 16.6663 42.3841C15.3338 42.8568 14.0571 43.4909 12.726 43.9765C12.0534 44.2221 11.8249 44.5677 12.0391 45.2475L12.0419 45.2532ZM52.1017 69.2319V65.5744H46.8175V69.2319H52.1017ZM59.5866 69.2248V65.5673H54.3596V69.2248H59.5866ZM40.0823 69.2162H44.5739V65.5773H40.0823V69.2162ZM66.4246 65.5701H61.8688V69.1976H66.4246V65.5701Z" fill="#25343F"/>
<path d="M42.0522 20.7833L37.3465 12.8099C35.3927 9.50039 33.4409 6.19136 31.491 2.8828C30.6484 1.45465 31.2482 0.382108 32.8978 0.376395C34.6558 0.376395 36.4139 0.404958 38.1705 0.362113C39.1417 0.337835 39.8843 0.660598 40.5812 1.33897C47.0108 7.60761 53.4489 13.8658 59.8956 20.1135C60.3683 20.5748 60.8282 20.8204 61.5123 20.7847C62.7205 20.7204 63.9401 20.7976 65.1455 20.7462C66.7159 20.6827 68.2794 20.9889 69.7099 21.6402C71.0952 22.2557 72.5219 22.7741 73.9201 23.354C75.3911 23.9709 76.1708 25.1063 76.1351 26.5973C76.098 28.1354 75.3182 29.1808 73.9072 29.7621C72.1991 30.4666 70.4892 31.1669 68.7773 31.8629C67.0264 32.577 65.1669 32.5127 63.3646 32.3656C61.4223 32.2057 60.057 32.8383 58.7116 34.2394C55.7525 37.3213 52.6091 40.2262 49.54 43.2039C49.4372 43.3024 49.3401 43.4067 49.2287 43.4967C48.7474 43.8837 48.1476 43.8723 47.7463 43.4738C47.3178 43.0454 47.2936 42.4227 47.7634 41.9485C48.7631 40.936 49.7957 39.9491 50.8182 38.958C52.8634 36.9728 54.9104 34.9887 56.9593 33.0054C57.1021 32.8626 57.2449 32.7084 57.4734 32.4684C57.1335 32.4484 56.9093 32.4242 56.6865 32.4242C52.8619 32.4242 49.0373 32.4294 45.2127 32.4399C44.85 32.4399 44.5658 32.4513 44.333 32.8469C40.913 38.6795 37.4793 44.5035 34.0317 50.3189C33.9746 50.4161 33.9289 50.5203 33.8275 50.7203C35.4484 50.7203 36.9794 50.736 38.5104 50.7017C38.7232 50.7017 38.9574 50.4675 39.1359 50.2961C40.7783 48.7146 42.4159 47.128 44.0488 45.5361C44.4472 45.149 44.8971 45.0162 45.4055 45.3047C45.6108 45.405 45.7737 45.5749 45.8655 45.7841C45.9573 45.9933 45.9719 46.2283 45.9068 46.4472C45.8215 46.7156 45.6685 46.9576 45.4627 47.1499C43.7489 48.8294 42.0194 50.4917 40.3042 52.1684C39.7772 52.684 39.1616 52.8825 38.4333 52.8825C36.5567 52.8682 34.6801 52.8825 32.8035 52.8825C31.3025 52.8725 30.6727 51.7671 31.4353 50.4732C34.7839 44.7929 38.1372 39.1155 41.4952 33.441C41.6609 33.1554 41.8209 32.8698 42.0251 32.5156C41.8778 32.4812 41.7277 32.4601 41.5767 32.4527C38.2662 32.7027 35.0686 31.9357 31.8466 31.3873C30.677 31.1888 29.5145 30.9475 28.3405 30.8004C27.9528 30.7654 27.5651 30.8663 27.2437 31.086C25.1557 32.6127 23.0935 34.1751 21.0355 35.7461C20.5401 36.1569 19.9106 36.3704 19.2675 36.3459C18.3192 36.3087 17.3666 36.3302 16.4112 36.3459C15.7413 36.3602 15.1887 36.1688 14.8673 35.5447C14.546 34.9206 14.7017 34.3636 15.0673 33.8081C16.4954 31.6258 17.9021 29.4236 19.3603 27.26C19.6845 26.7787 19.6459 26.4702 19.3374 26.0189C17.895 23.8767 16.4968 21.6959 15.0658 19.5408C14.6817 18.9624 14.5131 18.3811 14.853 17.7442C15.1929 17.1072 15.787 16.9244 16.4783 16.9487C17.0489 16.9921 17.622 16.9888 18.1921 16.9387C19.6202 16.7616 20.7399 17.2643 21.8324 18.1541C23.5633 19.5608 25.38 20.8675 27.1923 22.1643C27.5313 22.3948 27.9417 22.4962 28.3491 22.4499C31.4353 21.9429 34.5059 21.3303 37.5978 20.8604C38.7603 20.6847 39.9671 20.8047 41.1539 20.7904C41.401 20.7833 41.6566 20.7833 42.0522 20.7833ZM33.8004 2.53005C34.0032 2.89137 34.1245 3.11988 34.2574 3.34267C37.3993 8.67254 40.5898 13.9796 43.6703 19.348C44.3059 20.4548 44.9557 20.9047 46.2496 20.8204C48.2833 20.6876 50.3312 20.7733 52.3735 20.7833C53.0876 20.7833 53.5503 21.2246 53.5489 21.843C53.5474 22.4614 53.0747 22.887 52.3721 22.9141C52.2064 22.9212 52.0393 22.9141 51.8736 22.9141C48.5018 22.9141 45.1285 22.907 41.7566 22.9141C40.4298 22.9141 39.0831 22.8384 37.7792 23.0298C34.6158 23.4911 31.4682 24.0666 28.3234 24.6507C27.9541 24.7298 27.5717 24.7248 27.2046 24.636C26.8374 24.5473 26.495 24.3771 26.2026 24.138C24.2703 22.6799 22.2766 21.2974 20.4071 19.7636C19.4803 19.0038 18.5377 19.0495 17.4223 19.1138C17.5908 19.3994 17.7079 19.6222 17.8507 19.8279C19.0332 21.6345 20.1972 23.4525 21.4211 25.2363C22.0638 26.1803 22.0838 27.0357 21.4383 27.9898C20.19 29.8378 18.9961 31.7215 17.7808 33.591C17.6751 33.7552 17.5922 33.9337 17.4951 34.0965C18.7805 34.3822 19.7802 34.0466 20.7585 33.2396C22.5536 31.7801 24.4374 30.4105 26.334 29.0666C26.781 28.7495 27.4394 28.5053 27.9621 28.5667C29.7001 28.7695 31.4196 29.138 33.1491 29.4236C35.6712 29.8421 38.1691 30.3305 40.7612 30.3019C48.7388 30.2148 56.7194 30.2162 64.6985 30.2405C66.3237 30.2405 67.8404 30.012 69.3185 29.3336C70.4782 28.7995 71.6793 28.3496 72.8675 27.8769C73.4788 27.6327 73.9843 27.2871 73.9857 26.563C73.9872 25.839 73.4916 25.4905 72.8761 25.2463C71.3122 24.6279 69.7713 23.9452 68.1874 23.3897C67.4102 23.1096 66.5939 22.953 65.7681 22.9255C63.2046 22.8698 60.6382 22.9341 58.0747 22.8784C57.6848 22.8698 57.1692 22.5542 56.9493 22.2243C56.6537 21.7787 56.8565 21.2631 57.3192 20.9204C57.3667 20.871 57.407 20.8152 57.4392 20.7547C57.3663 20.669 57.3121 20.5919 57.2449 20.5276C51.1619 14.6246 45.0775 8.72157 38.9917 2.81854C38.8505 2.66565 38.6618 2.56499 38.4561 2.53291C36.9437 2.52005 35.4342 2.53005 33.8004 2.53005Z" fill="#25343F"/>
<path d="M42.4057 25.1662C42.6784 25.1663 42.9447 25.2478 43.1708 25.4002C43.3968 25.5526 43.5722 25.769 43.6746 26.0217C43.7769 26.2744 43.8015 26.5518 43.7452 26.8186C43.6889 27.0853 43.5543 27.3292 43.3586 27.519C43.1629 27.7088 42.915 27.8359 42.6466 27.8839C42.3783 27.932 42.1017 27.8989 41.8523 27.7889C41.6029 27.6788 41.392 27.4968 41.2466 27.2662C41.1012 27.0356 41.0279 26.7669 41.0361 26.4944C41.0376 26.3169 41.0743 26.1414 41.1442 25.9782C41.2141 25.815 41.3157 25.6674 41.4431 25.5438C41.5705 25.4202 41.7213 25.3232 41.8865 25.2584C42.0518 25.1935 42.2283 25.1622 42.4057 25.1662V25.1662Z" fill="#25343F"/>
<path d="M48.8702 26.4958C48.8774 26.8648 48.7378 27.2214 48.482 27.4874C48.2262 27.7533 47.8753 27.9068 47.5063 27.914C47.1374 27.9212 46.7807 27.7815 46.5148 27.5258C46.2488 27.27 46.0954 26.919 46.0882 26.5501C46.0846 26.3674 46.1171 26.1858 46.1837 26.0157C46.2503 25.8456 46.3498 25.6902 46.4764 25.5586C46.6031 25.4269 46.7544 25.3214 46.9218 25.2482C47.0892 25.175 47.2694 25.1355 47.4521 25.1319C47.6347 25.1284 47.8163 25.1608 47.9865 25.2274C48.1566 25.2941 48.3119 25.3935 48.4436 25.5202C48.5753 25.6468 48.6808 25.7982 48.754 25.9656C48.8272 26.133 48.8667 26.3132 48.8702 26.4958V26.4958Z" fill="#25343F"/>
<path d="M53.8401 26.516C53.8285 26.8759 53.6774 27.2172 53.4188 27.4677C53.1601 27.7182 52.8141 27.8583 52.454 27.8583C52.094 27.8583 51.748 27.7182 51.4893 27.4677C51.2307 27.2172 51.0796 26.8759 51.068 26.516C51.0796 26.1561 51.2307 25.8148 51.4893 25.5643C51.748 25.3138 52.094 25.1738 52.454 25.1738C52.8141 25.1738 53.1601 25.3138 53.4188 25.5643C53.6774 25.8148 53.8285 26.1561 53.8401 26.516V26.516Z" fill="#25343F"/>
<path d="M58.9024 26.5473C58.8914 26.8137 58.8025 27.0711 58.6466 27.2874C58.4907 27.5037 58.2747 27.6695 58.0254 27.7641C57.7761 27.8587 57.5045 27.878 57.2443 27.8196C56.9842 27.7612 56.7469 27.6276 56.562 27.4355C56.377 27.2434 56.2526 27.0013 56.2041 26.7391C56.1556 26.4769 56.1852 26.2062 56.2893 25.9607C56.3933 25.7151 56.5671 25.5056 56.7892 25.358C57.0113 25.2104 57.2718 25.1314 57.5385 25.1306C57.7223 25.1296 57.9045 25.166 58.0739 25.2376C58.2433 25.3091 58.3964 25.4143 58.5239 25.5468C58.6514 25.6792 58.7507 25.8362 58.8158 26.0082C58.8808 26.1802 58.9103 26.3636 58.9024 26.5473V26.5473Z" fill="#25343F"/>
</g>
<defs>
<filter id="filter0_d_3_18" x="0" y="0.36084" width="216" height="79.075" filterUnits="userSpaceOnUse" color-interpolation-filters="sRGB">
<feFlood flood-opacity="0" result="BackgroundImageFix"/>
<feColorMatrix in="SourceAlpha" type="matrix" values="0 0 0 0 0 0 0 0 0 0 0 0 0 0 0 0 0 0 127 0" result="hardAlpha"/>
<feOffset dy="4"/>
<feGaussianBlur stdDeviation="2"/>
<feComposite in2="hardAlpha" operator="out"/>
<feColorMatrix type="matrix" values="0 0 0 0 0 0 0 0 0 0 0 0 0 0 0 0 0 0 0.25 0"/>
<feBlend mode="normal" in2="BackgroundImageFix" result="effect1_dropShadow_3_18"/>
<feBlend mode="normal" in="SourceGraphic" in2="effect1_dropShadow_3_18" result="shape"/>
</filter>
</defs>
</svg>
