<svg width="51" height="55" viewBox="0 0 51 55" fill="none" xmlns="http://www.w3.org/2000/svg">
<path d="M17.9911 0C19.0046 0.282668 19.9837 0.610477 20.8102 1.32198C22.1 2.43439 22.7921 3.81978 22.8985 5.51364C22.9146 5.76299 22.9082 6.01342 22.9082 6.26599C22.9082 17.7612 22.9057 29.2563 22.9007 40.7515C22.8937 41.1383 23.0317 41.5136 23.2876 41.8037C25.2394 44.2241 25.7499 46.9358 24.6107 49.8334C23.5079 52.6376 21.396 54.3475 18.4016 54.8129C13.9036 55.5051 9.86891 52.5011 9.23586 47.9999C8.9059 45.6536 9.5583 43.5384 11.1103 41.7339C11.3472 41.4731 11.4715 41.1293 11.4564 40.7773C11.4488 29.2288 11.4951 17.6802 11.4209 6.13164C11.4016 2.96425 13.6457 0.429914 16.2424 0.0752349C16.2927 0.0578608 16.3399 0.0324539 16.3821 0L17.9911 0ZM20.5802 23.5313V6.26814C20.5802 6.03599 20.5802 5.80276 20.5716 5.57168C20.4856 4.20133 19.8193 3.18888 18.5833 2.62785C17.3752 2.07863 16.1811 2.20761 15.101 3.01799C14.0477 3.80904 13.7424 4.91499 13.7435 6.17679C13.7514 17.8826 13.755 29.5877 13.7543 41.2921C13.7543 41.9316 13.607 42.4508 13.1363 42.9269C10.7266 45.3613 10.9276 49.1037 13.5576 51.2995C15.8383 53.205 19.2722 53.0116 21.2702 50.8695C23.4133 48.5684 23.4198 45.1829 21.2595 42.9957C21.0302 42.7737 20.8503 42.5057 20.7318 42.2093C20.6133 41.913 20.5587 41.5949 20.5716 41.276C20.5867 35.3618 20.5895 29.4469 20.5802 23.5313Z" fill="#D41D12"/>
<path d="M50.3785 19.7377C50.1743 20.705 49.8056 21.5648 48.9813 22.1817C48.5672 22.5002 48.0859 22.7198 47.574 22.8239C47.0621 22.928 46.5332 22.9138 46.0277 22.7823C45.5221 22.6509 45.0533 22.4058 44.6569 22.0655C44.2605 21.7253 43.9471 21.2991 43.7405 20.8193C43.5339 20.3396 43.4397 19.8189 43.465 19.2972C43.4902 18.7754 43.6343 18.2664 43.8863 17.8088C44.1382 17.3512 44.4914 16.9572 44.9187 16.6569C45.3461 16.3566 45.8365 16.1579 46.3524 16.0759C48.2493 15.79 49.9077 16.9647 50.2775 18.8553C50.3018 18.9377 50.3338 19.0175 50.3731 19.0939L50.3785 19.7377ZM48.0279 19.4539C48.0288 19.1574 47.9119 18.8726 47.7029 18.6622C47.4939 18.4518 47.2099 18.333 46.9134 18.3319C46.6158 18.3359 46.3313 18.455 46.1195 18.6642C45.9077 18.8734 45.7851 19.1564 45.7773 19.4539C45.7773 20.0311 46.3266 20.5868 46.9048 20.59C47.2025 20.5825 47.4858 20.46 47.6952 20.2482C47.9046 20.0364 48.0239 19.7518 48.0279 19.4539V19.4539Z" fill="#D41D12"/>
<path d="M29.7715 26.3256C29.7715 27.7917 29.7651 29.2566 29.7715 30.7226C29.7833 32.7507 31.0279 34.1479 33.0571 34.2984C34.0365 34.3678 35.0202 34.3462 35.9956 34.2339C37.4799 34.0684 38.5955 32.9055 38.8244 31.433C38.8545 31.2396 38.8792 31.044 38.905 30.8494C38.9932 30.1884 39.48 29.7252 40.0679 29.7435C40.7128 29.7628 41.1922 30.2895 41.1825 31.0031C41.1621 32.626 40.5226 33.9813 39.3468 35.0873C38.3021 36.0653 37.0575 36.6017 35.6205 36.6081C34.4608 36.6135 33.2785 36.6984 32.1468 36.506C30.8449 36.291 29.6608 35.6232 28.8033 34.6204C27.9457 33.6175 27.4699 32.3441 27.4597 31.0246C27.4027 27.8798 27.3952 24.7328 27.4597 21.5891C27.5252 18.5797 29.8242 16.2087 32.8518 16.0389C34.1953 15.9637 35.5872 15.9723 36.8963 16.2388C39.3446 16.7364 41.0718 18.987 41.1739 21.488C41.2061 22.2931 40.8267 22.8036 40.1539 22.8605C39.4284 22.9218 38.9953 22.5091 38.8921 21.6589C38.6267 19.4803 37.3272 18.3271 35.1239 18.3271C34.4457 18.3271 33.7665 18.3153 33.0872 18.3336C32.2112 18.3488 31.3755 18.7047 30.7573 19.3257C30.1392 19.9466 29.7871 20.7839 29.7758 21.66C29.7489 23.2152 29.7704 24.7694 29.7704 26.3246L29.7715 26.3256Z" fill="#D41D12"/>
<path d="M4.63718 9.13568C5.71197 9.13568 6.7803 9.11848 7.85186 9.13568C8.80735 9.1561 9.37161 9.88803 9.07819 10.6855C8.88043 11.2229 8.4387 11.4486 7.9056 11.4518C5.69047 11.4658 3.47534 11.4701 1.26021 11.4518C0.51646 11.4475 -0.019857 10.9015 0.000563945 10.2706C0.0209848 9.63975 0.537956 9.15717 1.26021 9.14105C2.38551 9.11633 3.51188 9.13568 4.63718 9.13568Z" fill="#D41D12"/>
<path d="M4.56915 25.1918C3.49437 25.1918 2.42496 25.2047 1.3534 25.1918C0.386092 25.1768 -0.181394 24.4921 0.0787039 23.6774C0.233473 23.1895 0.652639 22.8767 1.27601 22.8735C3.47287 22.8599 5.67009 22.8599 7.86767 22.8735C8.62861 22.8789 9.15741 23.3754 9.16493 24.0192C9.17568 24.6867 8.63721 25.1789 7.83757 25.1907C6.74774 25.2047 5.65791 25.1918 4.56915 25.1918Z" fill="#D41D12"/>
<path d="M4.63718 36.5953C5.71197 36.5953 6.7803 36.5781 7.85186 36.5953C8.80735 36.6157 9.37161 37.3476 9.07819 38.1451C8.88043 38.6825 8.4387 38.9082 7.90453 38.9115C5.69047 38.9254 3.47534 38.9297 1.26021 38.9115C0.51646 38.9072 -0.019857 38.3622 0.000563945 37.7313C0.0209848 37.1004 0.537956 36.6179 1.26129 36.6017C2.38551 36.577 3.51188 36.5953 4.63718 36.5953Z" fill="#D41D12"/>
<path d="M6.89643 13.7352C7.27153 13.7352 7.64878 13.7202 8.02173 13.7352C8.6666 13.7664 9.15777 14.2522 9.1696 14.8551C9.17301 15.1445 9.0642 15.4239 8.866 15.6347C8.6678 15.8455 8.39564 15.9714 8.10664 15.9858C7.26885 16.0302 6.42927 16.0287 5.59164 15.9815C5.31205 15.9635 5.05055 15.837 4.86284 15.629C4.67513 15.4211 4.57605 15.148 4.58672 14.868C4.58903 14.5789 4.7015 14.3016 4.90119 14.0925C5.10089 13.8834 5.37279 13.7583 5.6615 13.7427C6.07099 13.7159 6.48264 13.7427 6.8932 13.7427L6.89643 13.7352Z" fill="#D41D12"/>
<path d="M6.84436 20.5907C6.46926 20.5907 6.09201 20.6058 5.71906 20.5907C5.08601 20.5606 4.62493 20.1114 4.58946 19.5159C4.57761 19.3685 4.59574 19.2202 4.64275 19.08C4.68977 18.9398 4.7647 18.8105 4.86303 18.7C4.96135 18.5896 5.08104 18.5001 5.21486 18.4372C5.34868 18.3742 5.49387 18.339 5.64167 18.3337C6.46075 18.2885 7.2817 18.2885 8.10078 18.3337C8.38979 18.3473 8.66229 18.4723 8.86108 18.6825C9.05988 18.8927 9.16951 19.1718 9.16697 19.4611C9.15837 20.0641 8.67149 20.5531 8.02232 20.5843C7.6311 20.6068 7.23665 20.5907 6.84436 20.5907Z" fill="#D41D12"/>
<path d="M6.89787 27.4654C7.27297 27.4654 7.65022 27.4503 8.02317 27.4654C8.66804 27.4987 9.15815 27.9877 9.16674 28.5896C9.16902 28.8788 9.0593 29.1577 8.86056 29.3679C8.66182 29.5781 8.38947 29.7032 8.10056 29.717C7.26381 29.7604 6.42534 29.7586 5.58879 29.7117C5.30822 29.6928 5.04621 29.5648 4.85895 29.3551C4.67168 29.1453 4.57409 28.8705 4.58709 28.5896C4.59049 28.3012 4.70344 28.0249 4.90302 27.8168C5.10261 27.6086 5.3739 27.4841 5.66187 27.4686C6.07137 27.4417 6.48301 27.4632 6.89358 27.4632L6.89787 27.4654Z" fill="#D41D12"/>
<path d="M6.86896 34.3194C6.47666 34.3194 6.08221 34.3387 5.68669 34.3194C5.39752 34.3113 5.12234 34.1931 4.91739 33.9889C4.71243 33.7848 4.59317 33.5101 4.58397 33.2209C4.57541 33.0779 4.5953 32.9346 4.6425 32.7993C4.68969 32.6641 4.76324 32.5395 4.8589 32.4329C4.95456 32.3262 5.07042 32.2396 5.19979 32.178C5.32915 32.1164 5.46944 32.0811 5.61253 32.0741C6.44914 32.0274 7.2877 32.0274 8.1243 32.0741C8.41283 32.0932 8.68249 32.2242 8.87582 32.4393C9.06915 32.6543 9.17088 32.9363 9.15932 33.2252C9.14288 33.5137 9.01922 33.7856 8.81263 33.9877C8.60603 34.1897 8.3314 34.3072 8.04262 34.3172C7.6557 34.3376 7.26233 34.3194 6.86896 34.3194Z" fill="#D41D12"/>
<path d="M18.3102 33.7302C18.3102 36.8944 18.3102 40.0586 18.3038 43.2216C18.3038 43.5505 18.3951 43.7193 18.7015 43.8719C20.161 44.5952 20.9069 46.2246 20.5017 47.7261C20.0632 49.3533 18.6381 50.4205 17.0259 50.3303C15.3202 50.2335 14.0315 49.0652 13.7833 47.3907C13.6733 46.6977 13.7855 45.9876 14.1039 45.3622C14.4223 44.7369 14.9304 44.2283 15.5556 43.9095C15.9178 43.7246 16.022 43.5247 16.022 43.1367C16.0098 36.9696 16.0077 30.8025 16.0156 24.6354C16.0112 24.368 16.0274 24.1007 16.0639 23.8358C16.1081 23.5697 16.2446 23.3277 16.4494 23.1522C16.6541 22.9767 16.9142 22.8789 17.1839 22.876C17.4531 22.8891 17.7098 22.9939 17.9114 23.173C18.1129 23.3521 18.2472 23.5946 18.292 23.8605C18.3116 24.0389 18.3178 24.2185 18.3102 24.3979C18.3117 27.509 18.3117 30.6198 18.3102 33.7302ZM17.1882 45.7947C17.0414 45.7923 16.8955 45.8188 16.759 45.8727C16.6225 45.9267 16.4979 46.007 16.3924 46.1091C16.2869 46.2112 16.2025 46.3331 16.1442 46.4678C16.0858 46.6025 16.0545 46.7474 16.0521 46.8942C16.0513 47.1907 16.1654 47.476 16.3704 47.6902C16.5754 47.9044 16.8554 48.0309 17.1516 48.0431C17.7256 48.0571 18.2877 47.5154 18.3027 46.9318C18.2982 46.6355 18.18 46.3522 17.9726 46.1406C17.7652 45.929 17.4843 45.8051 17.1882 45.7947V45.7947Z" fill="#D41D12"/>
</svg>
