<svg width="54" height="69" viewBox="0 0 54 69" fill="none" xmlns="http://www.w3.org/2000/svg">
<path d="M0.671112 68.5841C0.134477 68.2621 -0.00773064 67.7792 0.000318872 67.1701C0.0244674 63.9798 0.00836838 60.7882 0.0123931 57.5965C0.0164179 53.9662 2.14686 51.1422 5.63498 50.1239C8.26046 49.3592 10.8833 48.5824 13.5114 47.8285C13.9474 47.7037 14.2493 47.5051 14.4371 47.0731C14.7215 46.4198 15.1012 45.8094 15.3762 45.152C15.8941 43.9043 16.6963 43.149 18.2217 43.4374C18.2217 42.3508 18.2365 41.3312 18.2056 40.3142C18.2056 40.1626 18.0044 39.9882 17.8582 39.8755C14.7202 37.4607 12.736 34.3442 12.0518 30.4308C11.9699 29.9639 11.703 29.9626 11.3434 29.9491C9.31763 29.8686 7.97202 28.7659 7.58698 26.893C7.2972 25.5018 7.90896 24.0542 9.21298 23.2144C9.56985 22.9836 9.67181 22.7475 9.66644 22.3531C9.64229 20.9726 9.65973 19.5881 9.65973 18.1123C9.23579 18.1123 8.83063 18.2076 8.50463 18.0868C8.15045 17.9527 7.69297 17.6763 7.60979 17.3704C7.52661 17.0646 7.77615 16.5937 8.00287 16.2878C8.18801 16.0396 8.53951 15.8719 8.84673 15.7699C9.57387 15.5284 9.6973 15.0401 9.67583 14.3358C9.62485 12.5917 9.65303 10.8544 9.66107 9.11432C9.66778 6.70886 11.0362 4.75551 13.3142 3.97874C16.8023 2.78741 20.3025 1.61799 23.8148 0.470491C25.8929 -0.207009 27.9804 -0.133222 30.0518 0.565744C33.3803 1.68463 36.7141 2.78338 40.0399 3.90897C42.5541 4.75954 43.8836 6.64715 43.8876 9.31556C43.8876 11.1227 43.9037 12.9311 43.8769 14.7382C43.8702 15.1837 44.0016 15.4305 44.4135 15.6089C44.8254 15.7874 45.2614 15.9819 45.5485 16.2958C45.7967 16.5641 46.0288 17.0646 45.9429 17.3691C45.857 17.6736 45.4063 17.9487 45.0467 18.0855C44.7395 18.2036 44.3491 18.1097 43.8943 18.1097V21.0799C43.9064 21.2801 43.9064 21.4808 43.8943 21.681C43.7991 22.4363 44.0191 22.938 44.6872 23.4438C45.9067 24.3668 46.3185 25.7245 45.8866 27.2123C45.4546 28.7001 44.3987 29.5494 42.9042 29.866C42.4789 29.9559 41.9074 29.866 41.6525 30.1155C41.3976 30.365 41.4379 30.9473 41.3279 31.3766C40.4491 34.8003 38.6272 37.6109 35.8166 39.7561C35.4329 40.0486 35.2921 40.3411 35.3122 40.8106C35.3497 41.6518 35.3229 42.4957 35.3229 43.373C35.555 43.373 35.7254 43.373 35.8958 43.373C36.2884 43.3447 36.6807 43.4336 37.0227 43.6285C37.3647 43.8234 37.6412 44.1155 37.8169 44.4678C38.1282 45.0326 38.4743 45.5961 38.6742 46.2024C39.0512 47.3415 39.836 47.8258 40.9549 48.1129C43.3 48.7126 45.6169 49.429 47.9311 50.1333C50.947 51.0483 52.8065 53.0432 53.4236 56.1597C53.4518 56.2421 53.4896 56.3209 53.5363 56.3945V68.5814H52.0605C51.599 68.1655 51.4998 67.6423 51.5051 67.0359C51.5279 63.8899 51.5239 60.7439 51.5118 57.5979C51.5038 55.56 50.7672 53.7864 48.9521 52.8339C47.4052 52.0222 45.6545 51.597 43.8849 50.9557V51.8948C43.8849 56.9821 43.8769 62.0694 43.8943 67.1567C43.8943 67.7671 43.7454 68.2434 43.2235 68.5801H42.4186C41.9342 68.1776 41.8028 67.6571 41.839 67.0426C41.8779 66.3718 41.847 65.701 41.847 65.0303C41.847 60.387 41.8403 55.7451 41.8591 51.1019C41.8591 50.6163 41.725 50.3775 41.2447 50.2661C40.5292 50.1017 39.8233 49.898 39.1303 49.6557C38.7547 49.5215 38.5186 49.6128 38.2395 49.8569C36.7083 51.1896 35.1686 52.5124 33.6204 53.8253C31.93 55.2743 30.0626 55.0864 28.6821 53.3491C28.0623 52.5696 27.4384 51.7928 26.7703 50.9597C26.0539 51.8559 25.3992 52.6944 24.7231 53.5168C23.4861 55.022 21.6133 55.2179 20.108 53.989C19.2615 53.2981 18.4471 52.5683 17.6167 51.8586C17.1163 51.4319 16.6118 51.0107 16.0188 50.5103C16.0014 50.8175 15.984 50.9879 15.984 51.1583C15.984 53.9926 15.984 56.8274 15.984 59.6626C15.984 60.8391 16.3677 61.2108 17.5576 61.2121C20.9483 61.2121 24.3385 61.2121 27.7282 61.2121C30.4946 61.2121 33.2605 61.2121 36.0259 61.2121C37.1595 61.2121 37.5446 60.823 37.5553 59.6827C37.5553 59.0803 37.5553 58.4753 37.5553 57.8742C37.5553 56.4911 37.5392 55.1066 37.566 53.7234C37.5808 52.9023 38.1939 52.4328 38.8929 52.6743C39.4295 52.8607 39.5999 53.3021 39.5985 53.8401C39.5985 55.8042 39.5985 57.7696 39.5985 59.7337C39.5985 61.9272 38.2972 63.2218 36.1024 63.2218H17.4329C15.2421 63.2218 13.9448 61.9231 13.9448 59.7337C13.9448 56.6749 13.9448 53.6169 13.9448 50.5599C13.9448 50.3292 13.9246 50.0998 13.9112 49.8355C13.3424 49.9965 12.8581 50.1642 12.3603 50.2648C11.8318 50.3734 11.6735 50.631 11.6761 51.1824C11.7003 56.4723 11.6828 61.7622 11.7003 67.052C11.7003 67.6651 11.5983 68.1843 11.118 68.5895H10.3131C9.79523 68.2541 9.64229 67.7765 9.64229 67.1674C9.65973 62.0801 9.65168 56.9915 9.65168 51.9042V51.0845C8.49792 51.4212 7.4166 51.7338 6.33663 52.0531C3.47234 52.8983 2.02343 54.8302 2.02075 57.8058C2.02075 60.8848 2.00733 63.965 2.03148 67.044C2.03148 67.6517 1.93757 68.1736 1.47472 68.5895L0.671112 68.5841ZM11.7217 27.9341C11.9284 27.2633 12.2369 26.783 12.9547 26.8608C13.5356 26.9225 13.7811 27.3411 13.8495 28.2225C13.8951 28.8222 13.938 29.4299 14.0333 30.0176C15.3628 38.2858 24.3836 43.1799 31.977 39.677C36.8174 37.4432 39.3624 33.5593 39.6844 28.2252C39.7381 27.3371 39.997 26.9333 40.5833 26.8729C41.2661 26.8018 41.5814 27.2405 41.7746 27.812C41.7853 27.8442 41.843 27.8603 41.8913 27.8925C42.0121 27.8925 42.1462 27.8992 42.279 27.8925C43.2544 27.8361 43.9735 27.1439 43.9802 26.2598C43.9802 25.3515 43.3174 24.6646 42.3233 24.5989C41.7464 24.5613 41.1642 24.5895 40.586 24.564C39.4241 24.513 38.4917 23.9925 37.994 22.9541C37.7069 22.3585 37.6211 21.638 37.5714 20.9645C37.503 20.0389 37.554 19.1051 37.554 18.1579H15.9813C15.9813 19.1883 15.992 20.1864 15.9813 21.1832C15.9531 23.2882 14.7041 24.5372 12.6005 24.5815C12.0436 24.5724 11.4868 24.597 10.9329 24.6552C10.571 24.7109 10.2386 24.8872 9.98958 25.1556C9.74056 25.424 9.58957 25.7686 9.56113 26.1336C9.5327 26.4986 9.62848 26.8625 9.83294 27.1663C10.0374 27.47 10.3385 27.6956 10.6874 27.8066C11.0013 27.8979 11.3394 27.8858 11.7258 27.9287L11.7217 27.9341ZM25.7078 2.11527C25.3964 2.16164 25.0878 2.22524 24.7834 2.30578C21.1115 3.51991 17.4342 4.72063 13.7824 5.97904C12.5991 6.38152 11.8881 7.32063 11.758 8.57903C11.6667 9.46314 11.6989 10.3607 11.6909 11.2528C11.6815 12.2697 11.6909 13.2853 11.6909 14.3653C12.6689 14.0447 13.5463 13.7428 14.4331 13.4718C15.1924 13.2397 15.7465 13.4718 15.9249 14.0487C16.1208 14.69 15.8122 15.1541 15.014 15.4184L13.3585 15.9658L13.3947 16.053H40.213C40.1271 15.9792 40.1016 15.943 40.0668 15.9296C39.9433 15.8799 39.8172 15.8357 39.6911 15.7954C33.1375 13.6851 26.447 13.4168 19.6733 14.3787C18.8858 14.4901 18.3505 14.1869 18.2499 13.5496C18.1587 12.9714 18.6014 12.4629 19.346 12.3744C20.7385 12.2094 22.1365 12.0752 23.5304 11.941C24.2548 11.8713 24.982 11.831 25.7078 11.7787V2.11527ZM27.8543 2.10186V11.8069C32.6505 11.9665 37.3138 12.6387 41.8189 14.372C41.8189 12.4119 41.8886 10.5404 41.7974 8.67697C41.7276 7.27769 40.8824 6.34127 39.5543 5.89184C36.144 4.73986 32.731 3.59638 29.3153 2.4614C28.8551 2.31383 28.3735 2.23065 27.8516 2.10186H27.8543ZM20.2851 41.3634C20.2851 42.3991 20.2636 43.3113 20.3025 44.2223C20.3242 44.3332 20.3689 44.4383 20.4339 44.5307C20.4988 44.6232 20.5825 44.7009 20.6795 44.7589C22.5756 45.8322 24.4811 46.8916 26.396 47.9371C26.508 47.9904 26.6299 48.0193 26.7538 48.0221C26.8778 48.0249 27.0009 48.0014 27.1151 47.9532C29.0537 46.9068 30.9775 45.8308 32.8973 44.7495C33.0476 44.6636 33.2314 44.4691 33.2354 44.3202C33.2663 43.3663 33.2515 42.4111 33.2515 41.3687C28.9182 43.306 24.6493 43.314 20.2851 41.3634ZM17.5563 45.3653C17.1418 46.189 16.7393 46.9537 16.3797 47.7386C16.3247 47.8593 16.416 48.1343 16.5286 48.2336C18.1582 49.6557 19.7985 51.0657 21.4496 52.4636C21.9661 52.8996 22.5779 52.8661 23.0058 52.3711C23.7611 51.4963 24.4668 50.5787 25.2302 49.6329L17.5563 45.3653ZM35.9857 45.3653L28.3158 49.6396C29.0658 50.5787 29.7594 51.4722 30.4919 52.3362C30.9279 52.85 31.5356 52.9265 32.0427 52.5012C33.7197 51.1006 35.3712 49.6691 37.0187 48.2336C37.0795 48.1676 37.1235 48.0879 37.1468 48.0012C37.1702 47.9145 37.1723 47.8235 37.1528 47.7359C36.7987 46.947 36.3962 46.1823 35.9857 45.3707V45.3653ZM13.9354 18.17H11.7432V22.5288C12.1551 22.5288 12.5093 22.5463 12.8621 22.5288C13.4913 22.4913 13.9139 22.1009 13.9287 21.4797C13.9528 20.393 13.9354 19.305 13.9354 18.17ZM39.6173 18.162C39.6173 19.3372 39.5543 20.4896 39.6576 21.6273C39.6871 21.9466 40.158 22.341 40.5135 22.4819C40.869 22.6227 41.3681 22.5154 41.8135 22.5154V18.162H39.6173Z" fill="#D41D12"/>
<path d="M27.8037 56.8568C27.7884 57.126 27.6711 57.3793 27.4758 57.5652C27.2804 57.7511 27.0216 57.8556 26.7519 57.8576C26.482 57.8437 26.2282 57.7253 26.0441 57.5275C25.8601 57.3296 25.7603 57.0679 25.7658 56.7977C25.7756 56.539 25.8871 56.2946 26.0759 56.1175C26.2648 55.9405 26.5159 55.845 26.7747 55.8519C26.9085 55.8494 27.0414 55.8735 27.1658 55.9229C27.2902 55.9722 27.4036 56.0457 27.4993 56.1392C27.595 56.2327 27.6713 56.3443 27.7235 56.4674C27.7758 56.5906 27.803 56.723 27.8037 56.8568V56.8568Z" fill="#D41D12"/>
<path d="M26.7798 34.2519C25.402 34.1875 24.0631 33.9608 23.0099 32.9854C22.8747 32.8509 22.7682 32.6903 22.6967 32.5135C22.6252 32.3366 22.5903 32.1471 22.594 31.9564C22.6718 31.1984 23.5197 30.9221 24.1838 31.3688C25.8769 32.5078 27.688 32.5132 29.3409 31.3809C29.8654 31.0213 30.4034 31.0737 30.7656 31.515C31.1278 31.9564 31.0863 32.5038 30.61 32.9412C29.526 33.9326 28.1804 34.1794 26.7798 34.2519Z" fill="#D41D12"/>
<path d="M20.3111 22.4053C19.9543 22.4053 19.5974 22.4254 19.2379 22.4053C18.661 22.3664 18.2545 21.9585 18.2384 21.438C18.2348 21.1789 18.3298 20.928 18.5041 20.7362C18.6785 20.5444 18.9192 20.4261 19.1775 20.405C19.9559 20.3603 20.7364 20.3625 21.5145 20.4117C21.6437 20.4222 21.7694 20.4586 21.8842 20.5186C21.999 20.5787 22.1006 20.6613 22.1828 20.7614C22.2651 20.8616 22.3263 20.9772 22.3629 21.1015C22.3995 21.2258 22.4108 21.3562 22.396 21.485C22.3342 22.0471 22.0136 22.3785 21.4367 22.408C21.0651 22.4254 20.6895 22.4053 20.3111 22.4053Z" fill="#D41D12"/>
<path d="M33.2252 22.4047C32.8469 22.4047 32.4672 22.4208 32.0889 22.4047C31.512 22.3738 31.1941 22.0384 31.135 21.4776C31.1204 21.3484 31.132 21.2176 31.1691 21.0929C31.2062 20.9683 31.2681 20.8524 31.351 20.7522C31.4339 20.652 31.5361 20.5696 31.6516 20.5098C31.7671 20.45 31.8935 20.4142 32.0232 20.4044C32.801 20.3574 33.581 20.3574 34.3589 20.4044C34.6179 20.4255 34.8592 20.5444 35.0336 20.7371C35.2081 20.9297 35.3026 21.1816 35.298 21.4414C35.2779 21.9646 34.874 22.3658 34.2918 22.4047C33.9376 22.4275 33.5794 22.4047 33.2185 22.4047H33.2252Z" fill="#D41D12"/>
<path d="M34.2649 25.2028C34.2499 25.4675 34.2149 25.7308 34.1603 25.9903C34.0261 26.4813 33.6639 26.7241 33.1621 26.7013C32.6604 26.6785 32.3089 26.4089 32.2378 25.8964C32.1817 25.4775 32.1691 25.054 32.2002 24.6326C32.2445 24.0195 32.6926 23.5969 33.2225 23.6076C33.7524 23.6184 34.1764 24.053 34.2327 24.6594C34.2488 24.8352 34.2327 25.0149 34.2327 25.1961L34.2649 25.2028Z" fill="#D41D12"/>
<path d="M21.3739 25.2222C21.3551 25.4368 21.3524 25.6609 21.3135 25.8782C21.225 26.3813 20.911 26.6697 20.4066 26.7033C19.87 26.7382 19.4568 26.4806 19.3763 25.9574C19.2965 25.4327 19.2965 24.899 19.3763 24.3743C19.4527 23.8819 19.8579 23.6123 20.3489 23.6297C20.587 23.6254 20.818 23.7108 20.9962 23.8688C21.1744 24.0268 21.2867 24.246 21.3108 24.483C21.3578 24.7177 21.3564 24.9659 21.3739 25.2222Z" fill="#D41D12"/>
</svg>
