<svg width="61" height="61" viewBox="0 0 61 61" fill="none" xmlns="http://www.w3.org/2000/svg">
<g clip-path="url(#clip0_1_11)">
<path d="M61.0012 31.4964C60.1234 33.4255 58.5577 34.8402 57.2464 36.4394C54.7324 39.5058 52.1718 42.534 49.6028 45.5526C47.9081 47.5413 45.6915 48.6094 43.1226 48.9548C42.373 49.0409 41.6186 49.0783 40.8642 49.0667C36.0165 49.075 31.1677 49.1274 26.3212 49.0417C24.5047 49.0095 23.3581 49.9538 22.2606 51.1363C22.1817 51.222 22.1865 51.4233 22.2116 51.5614C22.4576 52.9487 22.1137 54.1336 21.0854 55.1338C19.2629 56.901 17.4631 58.6919 15.6477 60.4686C14.9168 61.1831 14.3149 61.1831 13.5888 60.4508C9.23436 56.0845 4.88233 51.7119 0.532695 47.3329C-0.175524 46.6184 -0.173135 46.004 0.544638 45.2823C2.33211 43.4818 4.12674 41.6849 5.92854 39.8916C6.70961 39.1104 7.63638 38.6734 8.75903 38.7567C9.12806 38.7841 9.31676 38.6543 9.50546 38.3412C11.9335 34.3103 15.5474 32.0728 20.1717 31.3738C22.9304 30.9398 25.755 31.235 28.3634 32.23C28.6445 32.32 28.9391 32.3603 29.2341 32.349C33.1478 32.3562 37.0627 32.3836 40.9764 32.3407C42.8001 32.3205 44.4506 32.6277 45.6843 34.0971C46.0582 33.7399 46.4081 33.4219 46.7389 33.0838C48.7668 31.0149 50.7912 28.9437 52.8119 26.8702C55.3773 24.2337 59.3316 24.9339 60.8472 28.2991C60.891 28.3786 60.9426 28.4536 61.0012 28.523V31.4964ZM20.5945 49.3334C20.8179 49.137 20.9624 49.0322 21.0794 48.9036C22.5759 47.2483 24.439 46.6101 26.6663 46.641C31.5713 46.7077 36.4787 46.6601 41.3861 46.6637C44.1473 46.6637 46.4499 45.711 48.1936 43.514C49.1789 42.2732 50.2239 41.0788 51.245 39.8642C53.5396 37.1317 55.8331 34.398 58.1254 31.6631C59.0414 30.564 58.9494 29.147 57.9438 28.2598C56.9645 27.3989 55.5552 27.4977 54.5783 28.498C52.0989 31.0384 49.622 33.5819 47.1474 36.1286C46.9742 36.3073 46.8094 36.5871 46.8058 36.8229C46.7616 39.9356 44.7588 41.929 41.6273 41.9338C38.6471 41.9338 35.6674 41.9338 32.688 41.9338C32.4311 41.9406 32.1744 41.913 31.9248 41.8516C31.6616 41.7872 31.4306 41.6299 31.2748 41.4088C31.1189 41.1876 31.0486 40.9177 31.0769 40.6489C31.1151 40.0619 31.4352 39.6963 32.006 39.5701C32.2593 39.5206 32.5172 39.499 32.7752 39.5058C35.8732 39.5058 38.9724 39.5153 42.0716 39.4938C43.2743 39.4855 44.1831 38.6388 44.3408 37.4695C44.4984 36.3001 43.8415 35.2343 42.7082 34.9021C42.343 34.8128 41.9671 34.7751 41.5915 34.7902C37.3601 34.783 33.1287 34.7902 28.8973 34.7795C28.5412 34.7918 28.1861 34.736 27.8511 34.6151C25.4625 33.6149 22.9783 33.3779 20.4381 33.7566C16.6163 34.3281 13.6103 36.1775 11.5847 39.52C11.3674 39.8773 11.3984 40.0785 11.6946 40.3703C14.3053 42.9488 16.9053 45.538 19.4946 48.1379C19.8756 48.5142 20.2195 48.9214 20.5945 49.3334ZM2.86755 46.3529L14.7508 57.9406C14.764 57.9298 14.8846 57.8334 14.9897 57.7262C16.4388 56.3155 17.8843 54.9004 19.3262 53.481C20.1084 52.7117 20.1073 52.133 19.3262 51.3495C17.5021 49.5291 15.6784 47.7104 13.8551 45.8932C12.4219 44.4643 10.9888 43.0385 9.55562 41.6159C8.95847 41.0205 8.33863 40.9323 7.82031 41.4372C6.17337 43.0353 4.56106 44.6667 2.86755 46.3529Z" fill="#D41D12"/>
<path d="M37.0356 0C37.7247 0.155995 38.4282 0.265549 39.1006 0.476321C44.4678 2.15654 47.7413 5.74443 48.5905 11.2971C49.6988 18.5551 44.4331 25.2712 37.1252 26.1238C30.0573 26.949 23.5854 21.9477 22.6001 14.9005C21.591 7.71163 26.687 1.01694 33.8492 0.11908C33.9616 0.0915825 34.0706 0.051641 34.1741 0L37.0356 0ZM35.6025 23.7875C41.5238 23.7875 46.3344 19.0135 46.3404 13.1274C46.3476 7.2103 41.525 2.3816 35.6073 2.3816C29.7134 2.3816 24.8741 7.19363 24.8681 13.0631C24.864 14.4708 25.1387 15.8654 25.6765 17.167C26.2142 18.4686 27.0044 19.6515 28.0017 20.6479C28.999 21.6442 30.1838 22.4345 31.4882 22.9733C32.7925 23.512 34.1907 23.7887 35.6025 23.7875V23.7875Z" fill="#D41D12"/>
<path d="M27.3023 39.333C27.4607 39.3307 27.6178 39.3611 27.7638 39.4224C27.9097 39.4837 28.0414 39.5745 28.1503 39.6891C28.2593 39.8037 28.3433 39.9396 28.3969 40.0882C28.4506 40.2367 28.4727 40.3948 28.4619 40.5524C28.4609 40.7055 28.4295 40.8569 28.3698 40.9979C28.31 41.1389 28.2229 41.2668 28.1136 41.3743C28.0042 41.4818 27.8747 41.5667 27.7324 41.6243C27.5902 41.6819 27.4379 41.7109 27.2844 41.7098C26.9651 41.7064 26.6599 41.5783 26.4344 41.353C26.2088 41.1276 26.0809 40.8231 26.0781 40.5047C26.0782 40.3467 26.1102 40.1903 26.1724 40.045C26.2345 39.8996 26.3255 39.7683 26.4398 39.6588C26.5542 39.5494 26.6895 39.4641 26.8377 39.4081C26.9859 39.3521 27.1439 39.3266 27.3023 39.333V39.333Z" fill="#D41D12"/>
<path d="M41.4418 11.6432C41.4478 12.1356 41.3611 12.6247 41.1862 13.0853C41.0212 13.5123 40.7625 13.8972 40.4291 14.2117C40.0754 14.5397 39.6556 14.7886 39.1977 14.9417C38.6614 15.119 38.099 15.2051 37.5341 15.1965H35.3199V18.8821C35.3199 19.0411 35.2884 19.1986 35.2274 19.3455C35.1664 19.4924 35.0769 19.626 34.9641 19.7384C34.8513 19.8509 34.7174 19.9401 34.5701 20.0009C34.4227 20.0618 34.2648 20.0931 34.1053 20.0931C33.9457 20.0931 33.7878 20.0618 33.6404 20.0009C33.4931 19.9401 33.3592 19.8509 33.2464 19.7384C33.1336 19.626 33.0441 19.4924 32.9831 19.3455C32.9221 19.1986 32.8906 19.0411 32.8906 18.8821V8.33514C32.8897 8.17629 32.9209 8.01888 32.9825 7.87236C33.044 7.72584 33.1347 7.59324 33.2489 7.48253C33.3598 7.36641 33.4938 7.27466 33.6423 7.21314C33.7907 7.15163 33.9505 7.1217 34.1112 7.12529H37.4373C38.2001 7.12529 38.8371 7.23405 39.3482 7.45157C39.814 7.63784 40.234 7.92217 40.5795 8.28513C40.8859 8.61806 41.1143 9.01459 41.2484 9.44616C41.3782 9.86742 41.4434 10.3058 41.4418 10.7465V11.6432ZM39.0305 10.8096C39.0311 10.637 39.0041 10.4653 38.9505 10.3012C38.8952 10.1334 38.7982 9.98222 38.6687 9.86175C38.5085 9.71848 38.3196 9.6109 38.1145 9.54619C37.8241 9.45793 37.5211 9.4177 37.2176 9.42711H35.3199V12.99H37.4493C38.0472 12.99 38.4609 12.8495 38.6902 12.5684C38.9149 12.3019 39.0369 11.9641 39.0341 11.6158L39.0305 10.8096Z" fill="#D41D12"/>
<path d="M35.1925 13.0381H31.95C31.3649 13.0381 30.8906 13.511 30.8906 14.0943C30.8906 14.6777 31.3649 15.1506 31.95 15.1506H35.1925C35.7775 15.1506 36.2518 14.6777 36.2518 14.0943C36.2518 13.511 35.7775 13.0381 35.1925 13.0381Z" fill="#D41D12"/>
<path d="M37.2395 15.8496H31.95C31.3649 15.8496 30.8906 16.3225 30.8906 16.9058C30.8906 17.4892 31.3649 17.9621 31.95 17.9621H37.2395C37.8246 17.9621 38.2989 17.4892 38.2989 16.9058C38.2989 16.3225 37.8246 15.8496 37.2395 15.8496Z" fill="#D41D12"/>
</g>
<defs>
<clipPath id="clip0_1_11">
<rect width="61" height="61" fill="white"/>
</clipPath>
</defs>
</svg>
