<svg width="52" height="52" viewBox="0 0 52 52" fill="none" xmlns="http://www.w3.org/2000/svg">
<path d="M31.0732 51.997C30.4741 51.6857 30.3103 51.1833 30.3124 50.5303C30.3253 44.2923 30.328 38.0518 30.3205 31.809C30.3205 30.6668 30.6592 30.3281 31.8014 30.3281C38.0395 30.3281 44.2775 30.3254 50.5156 30.32C51.1635 30.32 51.672 30.4807 51.9812 31.0808V51.997H31.0732ZM32.5133 49.7767H49.7803V32.5291H32.5133V49.7767Z" fill="#D41D12"/>
<path d="M51.986 20.9274C51.6809 21.5 51.208 21.6973 50.5692 21.6892C48.6917 21.6648 46.8142 21.681 44.9356 21.679C44.7719 21.679 44.6071 21.6627 44.4159 21.6526V19.5167H49.779V2.23757H32.5263V19.5035H37.8822V21.6526C37.6951 21.6627 37.5161 21.679 37.3371 21.679C35.4758 21.679 33.6149 21.679 31.7543 21.679C30.6793 21.679 30.3233 21.323 30.3223 20.249C30.3223 13.9709 30.3223 7.69284 30.3223 1.41476C30.3223 0.368182 30.6833 0.0122049 31.7197 0.0122049C37.9788 0.013222 44.244 0.0213586 50.498 0C51.154 0 51.6443 0.161715 51.986 0.722125V20.9274Z" fill="#D41D12"/>
<path d="M0.722125 51.9971C0.165784 51.6533 0 51.1662 0 50.5091C0.0223757 44.248 0.013222 37.9869 0.013222 31.7257C0.013222 30.6893 0.369199 30.3293 1.41577 30.3283C7.6925 30.3283 13.9689 30.3283 20.2449 30.3283C21.32 30.3283 21.6688 30.6832 21.6688 31.7603C21.6729 33.6392 21.6729 35.5174 21.6688 37.3949C21.6688 37.5444 21.6556 37.694 21.6455 37.8841H19.5096V32.5252H2.21926V49.787H19.5096V44.425H21.6739V44.9966C21.6739 46.8405 21.6587 48.6855 21.681 50.5295C21.6892 51.1774 21.5224 51.6879 20.9203 51.9971H0.722125Z" fill="#D41D12"/>
<path d="M21.6399 15.1545H19.5132V2.21426H2.22285V19.5046H15.1397V21.6537C14.9516 21.6638 14.7726 21.6801 14.5936 21.6801C10.2106 21.6801 5.82873 21.6801 1.44783 21.6801C0.344303 21.6791 0.0117188 21.3363 0.0117188 20.2165V1.38229C0.0117188 0.358095 0.356508 0.0133057 1.38172 0.0133057C7.7093 0.0133057 14.0365 0.0133057 20.3634 0.0133057C21.2554 0.0133057 21.6673 0.381488 21.6684 1.24906C21.6772 5.78387 21.6772 10.3187 21.6684 14.8535C21.6714 14.9359 21.6551 15.0183 21.6399 15.1545Z" fill="#D41D12"/>
<path d="M21.6717 29.2491V27.097H25.5L15.496 17.093L17.0104 15.5939L26.8852 25.4778L27.0571 25.3944V21.6811H29.2449V23.2158C29.2449 24.8432 29.2449 26.4644 29.2449 28.0897C29.2449 28.763 28.8451 29.239 28.2278 29.243C26.0604 29.2593 23.895 29.2491 21.6717 29.2491Z" fill="#D41D12"/>
<path d="M37.7017 15.9773L36.0957 14.3499C36.8656 13.58 37.663 12.7836 38.4594 11.9863C39.0818 11.3648 39.6951 10.7332 40.3278 10.123C40.8363 9.62866 41.4262 9.589 41.9103 10.067C43.3536 11.4909 44.7724 12.9433 46.1719 14.355L44.632 15.8664L42.2409 13.4763V28.1486H40.0725V13.579L37.7017 15.9773Z" fill="#D41D12"/>
<path d="M13.5063 42.2301C14.3739 43.0977 15.1591 43.8818 15.93 44.6538L14.3474 46.1926C14.2767 46.1375 14.2088 46.0787 14.144 46.0167C12.8367 44.7142 11.5318 43.4109 10.2293 42.107C9.56108 41.4348 9.5621 40.8988 10.2293 40.2275C11.6003 38.8473 12.9754 37.4712 14.3149 36.1256L15.8741 37.7021L13.5185 40.0414H28.1238V42.2281L13.5063 42.2301Z" fill="#D41D12"/>
</svg>
