<svg width="19" height="19" viewBox="0 0 19 19" fill="none" xmlns="http://www.w3.org/2000/svg">
<path opacity="0.6" fill-rule="evenodd" clip-rule="evenodd" d="M4.77066 1.10615C0.836198 2.04356 0.129715 2.22216 0.0701417 2.29459C0.00855001 2.3694 0 2.46948 0 3.11715C0 3.84812 0.000831246 3.85537 0.0971771 3.95011C0.213315 4.06441 0.287019 4.06714 0.663021 3.97107L0.95 3.8977V5.84101V7.78429H1.26667H1.58333L1.58337 5.76897L1.58341 3.75364L4.3641 3.09367C5.89348 2.73064 7.67616 2.30806 8.32556 2.15459L9.50637 1.87556L13.4615 2.81425L17.4167 3.75298V11.0649V18.3769H16.4667H15.5167V12.2416V6.10618L15.4195 6.01061L15.3224 5.91501H9.5H3.67765L3.58051 6.01061C3.48413 6.1054 3.48333 6.11222 3.48333 6.84965C3.48333 7.58708 3.48413 7.5939 3.58051 7.68868L3.67765 7.78429H9.28051H14.8833V8.09584V8.40739H10.925H6.96667V8.71893V9.03048H10.925H14.8833V9.34203V9.65358H10.925H6.96667V9.96512V10.2767H10.925H14.8833V10.5882V10.8998H10.925H6.96667V11.2113V11.5229H10.925H14.8833V14.9499V18.3769H13.775H12.6667V18.6885V19H15.8333H19V18.6885V18.3769H18.525H18.05V11.1373V3.8977L18.337 3.97107C18.713 4.06714 18.7867 4.06441 18.9028 3.95011C18.9992 3.85537 19 3.84812 19 3.11715C19 2.46481 18.9918 2.36979 18.9287 2.29311C18.8674 2.21873 18.1983 2.04983 14.2084 1.10175C11.6514 0.494157 9.52375 -0.00163159 9.48021 4.03539e-06C9.43667 0.00160072 7.31737 0.499376 4.77066 1.10615ZM13.9729 1.69101C16.3786 2.26149 18.3521 2.73337 18.3585 2.73964C18.3649 2.74591 18.3649 2.88193 18.3585 3.04195L18.3469 3.33282L15.9323 2.75942C14.6043 2.44402 12.6149 1.97132 11.5114 1.70892L9.50507 1.23186L5.11868 2.27115C2.70615 2.84276 0.710046 3.3176 0.682812 3.32636C0.646079 3.3382 0.633333 3.26424 0.633333 3.03938V2.73648L1.73177 2.47431C7.82903 1.01919 9.48876 0.629408 9.53958 0.640662C9.57224 0.647867 11.5672 1.12056 13.9729 1.69101ZM8.55 3.16198C8.35572 3.22222 8.02437 3.55978 7.9648 3.75816C7.85515 4.1233 7.93246 4.4144 8.2122 4.68961C8.48496 4.95797 8.58471 4.98036 9.50744 4.98036C10.4345 4.98036 10.5613 4.95026 10.8181 4.66928C11.173 4.2809 11.173 3.81054 10.8181 3.42216C10.5586 3.13822 10.4372 3.11026 9.48306 3.11505C9.02611 3.11735 8.62968 3.13729 8.55 3.16198ZM10.3528 3.82978C10.4141 3.89002 10.45 3.96986 10.45 4.04572C10.45 4.12158 10.4141 4.20142 10.3528 4.26166C10.2565 4.35649 10.2495 4.35727 9.5 4.35727C8.75045 4.35727 8.74352 4.35649 8.64718 4.26166C8.5859 4.20142 8.55 4.12158 8.55 4.04572C8.55 3.96986 8.5859 3.89002 8.64718 3.82978C8.74352 3.73495 8.75045 3.73417 9.5 3.73417C10.2495 3.73417 10.2565 3.73495 10.3528 3.82978ZM14.8833 6.84965V7.1612H9.5H4.11667V6.84965V6.5381H9.5H14.8833V6.84965ZM0.0971771 8.50299L0 8.59856V13.7037V18.8088L0.0971771 18.9044L0.194315 19H6.01667H11.839L11.9362 18.9044L12.0333 18.8088V16.1961V13.5833L11.9362 13.4878L11.839 13.3921H9.08616H6.33333V10.9954V8.59856L6.23616 8.50299L6.13902 8.40739H3.16667H0.194315L0.0971771 8.50299ZM1.9 9.86952C1.9 10.7085 1.9 10.7086 1.99718 10.8042L2.09431 10.8998H3.16667H4.23902L4.33616 10.8042C4.43333 10.7086 4.43333 10.7085 4.43333 9.86952V9.03048H5.06667H5.7V11.2113V13.3921H3.16667H0.633333V11.2113V9.03048H1.26667H1.9V9.86952ZM3.8 9.65358V10.2767H3.16667H2.53333V9.65358V9.03048H3.16667H3.8V9.65358ZM4.43333 12.4575V12.7691H4.75H5.06667V12.4575V12.146H4.75H4.43333V12.4575ZM1.9 14.8543C1.9 15.6932 1.9 15.6934 1.99718 15.7889L2.09431 15.8845H3.16667H4.23902L4.33616 15.7889C4.43333 15.6934 4.43333 15.6932 4.43333 14.8543V14.0152H5.06667H5.7V16.1961V18.3769H3.16667H0.633333V16.1961V14.0152H1.26667H1.9V14.8543ZM3.8 14.6383V15.2614H3.16667H2.53333V14.6383V14.0152H3.16667H3.8V14.6383ZM7.6 14.8543C7.6 15.6932 7.6 15.6934 7.69718 15.7889L7.79431 15.8845H8.86667H9.93902L10.0362 15.7889C10.1333 15.6934 10.1333 15.6932 10.1333 14.8543V14.0152H10.7667H11.4V16.1961V18.3769H8.86667H6.33333V16.1961V14.0152H6.96667H7.6V14.8543ZM9.5 14.6383V15.2614H8.86667H8.23333V14.6383V14.0152H8.86667H9.5V14.6383ZM4.43333 17.4423V17.7538H4.75H5.06667V17.4423V17.1307H4.75H4.43333V17.4423ZM10.1333 17.4423V17.7538H10.45H10.7667V17.4423V17.1307H10.45H10.1333V17.4423Z" fill="#25343F"/>
</svg>
