<svg width="59" height="58" viewBox="0 0 59 58" fill="none" xmlns="http://www.w3.org/2000/svg">
<path fill-rule="evenodd" clip-rule="evenodd" d="M2.57629 0.0805158C1.95576 0.331754 1.95898 0.301702 1.95898 5.74949V10.79H2.93848H3.91797V6.35709V1.92416H7.83594H11.7539V4.40338C11.7539 7.30862 11.8183 7.59233 12.5225 7.78772C13.1345 7.95756 20.47 7.95422 20.9589 7.78392C21.6073 7.55802 21.6641 7.29077 21.6641 4.46302V1.92416H25.582H29.5V6.35709V10.79H30.4795H31.459V6.35709V1.92416H35.377H39.2949V4.46302C39.2949 7.37091 39.3459 7.58864 40.073 7.79037C40.65 7.95042 47.85 7.95042 48.427 7.79037C49.1541 7.58864 49.2051 7.37091 49.2051 4.46302V1.92416H53.123H57.041V10.79V19.6559H48.5201H39.9992L39.6759 19.9337L39.3525 20.2117V23.5707V26.9297L39.6759 27.2077L39.9992 27.4855H44.25H48.5008L48.8241 27.2078L49.1475 26.9302L49.1823 24.2717L49.2172 21.6133H53.129H57.041V30.4792V39.3451H51.625H46.209V40.3267V41.3083L52.3264 41.2767L58.4439 41.2449L58.7219 40.9218L59 40.5987V20.6346V0.670499L58.7219 0.347413L58.4438 0.0243269L30.6336 0.00245003C15.1199 -0.00975493 2.714 0.0247874 2.57629 0.0805158ZM19.679 3.91034L19.7106 5.83896H16.7118H13.7129V3.95836C13.7129 2.92393 13.7484 2.04229 13.7916 1.999C13.8349 1.95571 15.1703 1.93406 16.7589 1.95098L19.6475 1.98173L19.679 3.91034ZM47.22 3.91034L47.2516 5.83896H44.2528H41.2539V3.95836C41.2539 2.92393 41.2894 2.04229 41.3326 1.999C41.3759 1.95571 42.7113 1.93406 44.2999 1.95098L47.1885 1.98173L47.22 3.91034ZM0.33683 13.084L0 13.4205V35.3574V57.2942L0.278061 57.6173L0.556236 57.9404L18.5903 57.9702L36.6244 58L36.9801 57.7009L37.3359 57.4017V55.9727C37.3359 55.1868 37.3742 54.5437 37.4209 54.5437C37.4675 54.5437 38.2077 55.2436 39.0655 56.0991L40.6252 57.6546L41.3109 56.9622L41.9966 56.2699L38.7504 53.0176C34.8931 49.1531 34.8584 49.1015 34.8584 47.2322C34.8584 45.8468 35.027 45.3362 35.854 44.2167C36.3381 43.5614 36.4206 43.3786 36.363 43.0882C36.3127 42.8342 35.6419 42.0889 33.8479 40.2939L31.4014 37.8463V37.3323C31.4014 36.6866 31.6999 36.359 32.3704 36.2691L32.8547 36.2042L35.2429 38.5806L37.6312 40.9571L38.3158 40.2658L39.0004 39.5746L38.164 38.7333L37.3276 37.8921L37.3606 36.6323L37.3936 35.3727L38.6035 35.3369C40.863 35.2701 41.5412 35.4929 42.0317 36.4631C42.2883 36.9704 42.291 37.0276 42.291 41.7529V46.5299L44.9104 49.1562L47.5297 51.7825L48.2222 51.0905L48.9148 50.3985L46.586 48.067L44.2574 45.7354L44.2249 41.0722L44.1924 36.4089L43.8887 35.7619C43.2982 34.5035 42.304 33.7263 40.9734 33.4829C40.5974 33.414 39.6251 33.3577 38.8128 33.3577H37.3359L37.3322 23.3692C37.3284 12.8049 37.3473 13.1747 36.7962 12.8813C36.6079 12.7812 32.0237 12.7474 18.6091 12.7474H0.67366L0.33683 13.084ZM10.832 15.6784V16.6519L7.65295 16.6858L4.47386 16.7198L4.19591 17.0429L3.91797 17.366V35.2565C3.91797 46.8284 3.95842 53.2533 4.03251 53.4479C4.28464 54.1105 3.70928 54.0867 18.6942 54.0548L32.4385 54.0256L32.4719 53.0761L32.5054 52.1266L19.2199 52.0974L5.93457 52.0682V35.3727V18.6772L8.37685 18.6461L10.8192 18.6151L11.0406 19.1152C11.3153 19.7357 11.9135 20.3127 12.4453 20.4701C12.7082 20.5478 14.9624 20.5771 18.9175 20.5545L24.9863 20.5195L25.4858 20.169C25.8149 19.938 26.0836 19.6146 26.2734 19.2208L26.5615 18.623L29.0103 18.6214L31.459 18.6196V25.5281V32.4366H32.4385H33.418V24.9013V17.366L33.14 17.0429L32.8621 16.7198L29.6784 16.6858L26.4948 16.6518L26.5281 15.7071L26.5615 14.7624L30.9692 14.7322L35.377 14.7021V25.3213V35.9406L34.772 35.3522C33.8893 34.4939 33.5338 34.3396 32.4385 34.3396C31.4192 34.3396 30.9947 34.4977 30.3253 35.1265C29.6602 35.7514 29.4464 36.287 29.446 37.3301C29.4457 38.0061 29.5024 38.3585 29.6593 38.6542C29.7768 38.8759 30.8083 39.9997 31.9515 41.1516L34.0299 43.2462L33.612 44.0409C33.0587 45.093 32.8418 45.9752 32.8418 47.1747C32.8418 48.9664 33.3947 50.338 34.6567 51.6774L35.377 52.4416V54.2411V56.0405H18.668H1.95898V35.3727V14.7048H6.39551H10.832V15.6784ZM24.5189 16.6334L24.4873 18.5621L18.7963 18.592C14.6898 18.6135 13.0616 18.5855 12.9482 18.4915C12.8275 18.3914 12.791 17.9365 12.791 16.533V14.7048H18.6707H24.5505L24.5189 16.6334ZM49.2051 16.7198V17.6985H50.1846H51.1641V16.7198V15.7411H50.1846H49.2051V16.7198ZM53.123 16.7198V17.6985H54.1025H55.082V16.7198V15.7411H54.1025H53.123V16.7198ZM47.2461 23.5707V25.5281H44.25H41.2539V23.5707V21.6133H44.25H47.2461V23.5707ZM17.7461 25.5857V26.5644H23.1045H28.4629V25.5857V24.607H23.1045H17.7461V25.5857ZM12.4177 26.5334L10.8355 28.1143L10.2251 27.5121C9.88941 27.1808 9.56284 26.9098 9.49923 26.9098C9.43574 26.9098 9.10167 27.1951 8.75701 27.5439L8.13025 28.1781L9.21529 29.2667C10.3401 30.3954 10.7186 30.6038 11.1997 30.3594C11.3461 30.285 12.3598 29.3371 13.4526 28.2527L15.4393 26.2811L14.7813 25.6168C14.4195 25.2513 14.0956 24.9524 14.0617 24.9524C14.0277 24.9524 13.2879 25.6639 12.4177 26.5334ZM17.7461 29.5005V30.4792H22.125H26.5039V29.5005V28.5218H22.125H17.7461V29.5005ZM17.7461 33.4153V34.394H23.1045H28.4629V33.4153V32.4366H23.1045H17.7461V33.4153ZM12.4177 34.363L10.8355 35.9439L10.1986 35.3155L9.56169 34.6869L8.86855 35.3795L8.17553 36.0719L9.31474 37.1904C10.9254 38.7714 10.7005 38.8262 13.3317 36.2111L15.4421 34.1136L14.7828 33.4477C14.4201 33.0816 14.0956 32.782 14.0617 32.782C14.0277 32.782 13.2879 33.4935 12.4177 34.363ZM49.2051 36.3514V37.397L50.1558 37.3635L51.1064 37.3301V36.3514V35.3727L50.1558 35.3393L49.2051 35.3058V36.3514ZM53.123 36.3514V37.397L54.0737 37.3635L55.0244 37.3301V36.3514V35.3727L54.0737 35.3393L53.123 35.3058V36.3514ZM17.7461 37.3301V38.3088H22.125H26.5039V37.3301V36.3514H22.125H17.7461V37.3301ZM17.7461 41.2449V42.2236H23.1045H28.4629V41.2449V40.2662H23.1045H17.7461V41.2449ZM12.4177 42.1926L10.8355 43.7735L10.1986 43.1451L9.56169 42.5165L8.87086 43.2068L8.18003 43.897L9.25355 45.0177C10.8247 46.6579 10.6584 46.6977 13.3317 44.0407L15.4421 41.9432L14.7828 41.2774C14.4201 40.9112 14.0956 40.6116 14.0617 40.6116C14.0277 40.6116 13.2879 41.3231 12.4177 42.1926ZM17.7461 45.1597V46.1384H22.125H26.5039V45.1597V44.181H22.125H17.7461V45.1597Z" fill="#D41D12"/>
</svg>
