<svg width="42" height="42" viewBox="0 0 42 42" fill="none" xmlns="http://www.w3.org/2000/svg">
<g filter="url(#filter0_d_2_13)">
<path d="M38 17C38 26.3888 30.3888 34 21 34C11.6112 34 4 26.3888 4 17C4 7.61116 11.6112 0 21 0C30.3888 0 38 7.61116 38 17Z" fill="white"/>
<path d="M37.5 17C37.5 26.1127 30.1127 33.5 21 33.5C11.8873 33.5 4.5 26.1127 4.5 17C4.5 7.8873 11.8873 0.5 21 0.5C30.1127 0.5 37.5 7.8873 37.5 17Z" stroke="#D41D12"/>
</g>
<g clip-path="url(#clip0_2_13)">
<path d="M21.1929 6C22.2658 6.54468 23.3387 7.08937 24.4113 7.63405C24.7846 7.82402 25.1548 8.02112 25.5281 8.20845C25.9523 8.42061 26.1542 8.75427 26.1495 9.21018C26.1463 9.50434 26.1495 9.7985 26.1495 10.0927C26.1475 10.3116 26.038 10.4335 25.8509 10.4312C25.6639 10.4289 25.561 10.3184 25.5586 10.0885C25.5555 9.79549 25.5586 9.50208 25.5586 9.17933C25.487 9.20792 25.4357 9.22485 25.3876 9.24855C24.0721 9.89153 22.7588 10.5364 21.4476 11.1832C21.3823 11.2155 21.3068 11.3058 21.3064 11.3712C21.299 12.9669 21.3005 14.5622 21.3013 16.1579C21.3041 16.1897 21.3091 16.2212 21.3162 16.2523L22.9346 15.4161C22.8727 15.1697 22.7953 14.9327 22.755 14.6901C22.4713 12.9932 23.7453 11.3946 25.5297 11.2294C26.5318 11.1365 27.4005 11.4453 28.1122 12.1397C28.2777 12.3011 28.2918 12.4553 28.1611 12.5836C28.0239 12.7188 27.866 12.7018 27.6873 12.5328C26.2661 11.1869 23.957 11.7429 23.4045 13.5609C22.9502 15.0558 24.094 16.5999 25.7081 16.6702C27.4235 16.7455 28.6757 15.3213 28.3372 13.6816C28.2926 13.4665 28.3697 13.3186 28.5438 13.2852C28.7336 13.2475 28.869 13.351 28.9191 13.5752C29.0458 14.1339 29.006 14.7157 28.804 15.2536C28.7911 15.289 28.7778 15.324 28.7669 15.3597C28.7655 15.3775 28.7665 15.3955 28.7696 15.4131C29.2755 15.6764 29.7831 15.9533 30.3047 16.203C30.7891 16.4363 31.0055 16.788 31.0004 17.3124C30.9855 18.8388 30.991 20.3657 30.9976 21.8921C30.9996 22.3612 30.7961 22.6885 30.3622 22.8999C29.0294 23.5489 27.699 24.2009 26.3709 24.8559C26.0188 25.0297 25.683 25.029 25.3293 24.8541C23.9547 24.1736 22.5746 23.5036 21.2 22.8228C21.0599 22.7536 20.9519 22.7438 20.8087 22.8186C20.3516 23.0556 19.8852 23.2768 19.4215 23.5017C19.2075 23.6056 19.0365 23.5661 18.9555 23.4006C18.8745 23.235 18.9457 23.0996 19.1554 22.9962C19.6234 22.7647 20.0921 22.5349 20.5614 22.3067C20.649 22.2642 20.7018 22.222 20.7014 22.1126C20.697 20.5169 20.6958 18.9215 20.6979 17.3263C20.6979 17.2958 20.6917 17.2653 20.6866 17.2179C20.6251 17.2443 20.5723 17.2638 20.5222 17.2883C19.2129 17.9323 17.9041 18.5744 16.5956 19.2146C16.4969 19.2628 16.4347 19.309 16.4351 19.4354C16.4406 21.0183 16.4386 22.6012 16.439 24.1841C16.439 24.2217 16.4441 24.2563 16.4492 24.3207C16.7016 24.1988 16.9372 24.0859 17.1719 23.9716C17.386 23.8674 17.5981 23.7579 17.8137 23.6563C17.987 23.5747 18.1541 23.6214 18.2331 23.7639C18.3122 23.9065 18.264 24.0701 18.088 24.1581C17.5754 24.4147 17.0616 24.6697 16.5412 24.9105C16.2622 25.0399 15.971 25.0233 15.694 24.8887C14.3164 24.2151 12.939 23.5406 11.5619 22.8653C11.263 22.7193 11.1049 22.4714 11 22.1807V16.9621C11.1323 16.5597 11.4367 16.3302 11.8155 16.1395C13.1091 15.4876 14.3906 14.8128 15.6799 14.1526C15.8059 14.0883 15.8505 14.0187 15.8501 13.8806C15.8447 12.3237 15.8466 10.7667 15.8466 9.2098C15.8466 8.7584 16.0423 8.41986 16.4696 8.20921C16.7986 8.0467 17.1215 7.87066 17.4478 7.70552C18.5661 7.13651 19.6843 6.56801 20.8024 6H21.1929ZM21.3103 17.2097C21.3048 17.2751 21.3001 17.306 21.3001 17.3368C21.3001 18.9257 21.3001 20.5146 21.2962 22.1035C21.2962 22.2307 21.3612 22.2747 21.459 22.3225C22.7633 22.9582 24.0656 23.5953 25.3657 24.2338C25.4205 24.2605 25.4788 24.2808 25.548 24.309C25.552 24.2548 25.5563 24.2244 25.5563 24.1939C25.5563 22.605 25.5574 21.0161 25.5598 19.4271C25.5598 19.3117 25.5085 19.2635 25.4127 19.2169C24.5896 18.8171 23.7679 18.415 22.9475 18.0105L21.3103 17.2097ZM15.8353 24.3191C15.8407 24.2654 15.8462 24.236 15.8462 24.2063C15.8462 22.6117 15.8462 21.0172 15.8501 19.4223C15.8501 19.2913 15.7781 19.2549 15.6815 19.2075C14.3847 18.574 13.0889 17.939 11.7939 17.3026C11.7329 17.2729 11.6687 17.2488 11.594 17.2172C11.5901 17.2683 11.5854 17.2984 11.5854 17.33C11.5854 18.862 11.5854 20.3941 11.5854 21.9264C11.5854 22.1521 11.6942 22.2969 11.9019 22.3977C12.87 22.8668 13.835 23.3419 14.8011 23.8147C15.1395 23.9806 15.4796 24.145 15.8353 24.3191ZM30.4103 17.2134C30.3473 17.2383 30.3172 17.2477 30.2894 17.2612C28.9533 17.9152 27.6166 18.5689 26.2794 19.2221C26.1643 19.2778 26.1467 19.3504 26.1467 19.4595C26.1499 21.0168 26.1505 22.5743 26.1487 24.1318V24.3161C26.2164 24.2875 26.2633 24.2706 26.3076 24.2488C27.5574 23.6368 28.8048 23.0203 30.0585 22.4154C30.3137 22.292 30.4142 22.1197 30.4134 21.8511C30.4072 20.3751 30.4103 18.899 30.4103 17.4229V17.2134ZM16.4504 9.16993C16.4453 9.24854 16.4398 9.29068 16.4398 9.33318C16.4398 10.8589 16.4398 12.3846 16.4363 13.91C16.4363 14.0296 16.484 14.0853 16.5869 14.1379C17.8412 14.7814 19.0941 15.4273 20.3457 16.0755C20.4526 16.1308 20.5602 16.1854 20.6979 16.2546V16.0436C20.6979 14.5118 20.6948 12.9797 20.7022 11.448C20.7022 11.2904 20.6431 11.2163 20.5066 11.1504C19.5788 10.7013 18.6542 10.2476 17.7284 9.79285L16.4504 9.16993ZM11.9415 16.7278C12.0197 16.7696 12.0643 16.7944 12.1093 16.8162C13.399 17.4492 14.6885 18.083 15.9777 18.7177C16.0288 18.7476 16.0875 18.7634 16.1473 18.7634C16.2072 18.7634 16.2658 18.7476 16.317 18.7177C17.5936 18.0862 18.8719 17.4581 20.1517 16.8331C20.2115 16.8038 20.2691 16.7673 20.3434 16.724C18.957 16.0093 17.5961 15.3025 16.2313 14.604C16.1792 14.5773 16.0818 14.5931 16.0239 14.6224C15.523 14.8737 15.0261 15.1329 14.5283 15.3898L11.9415 16.7278ZM25.1951 8.70085C25.1726 8.68263 25.1491 8.66556 25.1247 8.64969C23.8263 7.97912 22.528 7.30792 21.2297 6.63609C21.0544 6.54506 20.9018 6.565 20.7339 6.65227C19.6091 7.23682 18.4828 7.81925 17.3551 8.39954C17.1758 8.49208 16.9974 8.58575 16.8022 8.68769C16.8297 8.7076 16.8583 8.72606 16.8879 8.74298C18.2183 9.39525 19.5467 10.0486 20.881 10.693C20.9546 10.7284 21.0833 10.7118 21.1628 10.6738C21.9454 10.2977 22.728 9.91285 23.5078 9.52991L25.1951 8.70085ZM30.0519 16.7267L28.4667 15.9063C27.8176 16.7714 26.9485 17.248 25.845 17.2469C24.7416 17.2458 23.8768 16.768 23.2308 15.9078L21.6503 16.7252C21.7 16.7556 21.7251 16.7737 21.7525 16.7869C23.0829 17.4395 24.4133 18.0933 25.7457 18.7384C25.813 18.7711 25.9335 18.7519 26.0074 18.7158C27.2885 18.0944 28.5677 17.4688 29.8449 16.8391C29.9075 16.809 29.9662 16.7737 30.0519 16.7267Z" fill="#D41D12"/>
<path d="M25.4502 14.7886L26.7094 13.5183C26.7767 13.4506 26.8417 13.3806 26.9125 13.3163C27.0522 13.1903 27.2044 13.1839 27.33 13.2941C27.4556 13.4043 27.4693 13.5687 27.3327 13.7079C26.9473 14.1059 26.5564 14.4978 26.1671 14.8924C26.0148 15.0467 25.8638 15.202 25.7081 15.3525C25.5523 15.503 25.3923 15.5116 25.2295 15.369C24.9316 15.108 24.6364 14.8447 24.344 14.5791C24.193 14.4418 24.1816 14.2714 24.3049 14.1495C24.4281 14.0276 24.6015 14.0389 24.7553 14.1732C24.9846 14.3737 25.2119 14.5765 25.4502 14.7886Z" fill="#D41D12"/>
</g>
<defs>
<filter id="filter0_d_2_13" x="0" y="0" width="42" height="42" filterUnits="userSpaceOnUse" color-interpolation-filters="sRGB">
<feFlood flood-opacity="0" result="BackgroundImageFix"/>
<feColorMatrix in="SourceAlpha" type="matrix" values="0 0 0 0 0 0 0 0 0 0 0 0 0 0 0 0 0 0 127 0" result="hardAlpha"/>
<feOffset dy="4"/>
<feGaussianBlur stdDeviation="2"/>
<feComposite in2="hardAlpha" operator="out"/>
<feColorMatrix type="matrix" values="0 0 0 0 0.831373 0 0 0 0 0.113725 0 0 0 0 0.0705882 0 0 0 0.3 0"/>
<feBlend mode="normal" in2="BackgroundImageFix" result="effect1_dropShadow_2_13"/>
<feBlend mode="normal" in="SourceGraphic" in2="effect1_dropShadow_2_13" result="shape"/>
</filter>
<clipPath id="clip0_2_13">
<rect width="20" height="19" fill="white" transform="translate(11 6)"/>
</clipPath>
</defs>
</svg>
