<svg width="57" height="57" viewBox="0 0 57 57" fill="none" xmlns="http://www.w3.org/2000/svg">
<g clip-path="url(#clip0_1_23)">
<path d="M56.9987 37.6125C54.9044 39.7108 52.8258 41.8247 50.7104 43.9007C49.8651 44.7313 48.9417 45.4838 48.0496 46.2665C47.5333 46.7125 47.0337 46.7348 46.6835 46.3267C46.3334 45.9187 46.4493 45.4549 46.9512 44.9799C49.6186 42.4572 52.2812 39.9301 54.939 37.3985C55.2223 37.1309 55.2814 36.8533 55.2736 36.4686C55.1844 32.3167 55.0929 28.1637 55.0661 24.0106C55.0528 21.9915 55.1777 19.9701 55.2323 17.9499C55.2323 17.7693 55.2323 17.5876 55.2323 17.4114C53.8885 17.2754 52.4901 18.0257 52.0307 19.3558C51.6192 20.5488 51.307 21.8231 51.2367 23.0763C51.065 26.1847 51.046 29.302 50.9925 32.4159C50.9836 32.9221 50.8397 33.2956 50.4594 33.6267C49.7457 34.2444 49.0655 34.8966 48.2559 35.6258C48.4833 35.7816 48.7004 35.9517 48.906 36.1353C49.5305 36.773 49.5238 37.1833 48.8581 37.762C47.1482 39.2485 45.4357 40.7272 43.7206 42.1982C43.1429 42.6932 42.5508 43.1704 41.9642 43.6532C41.3509 44.1571 40.868 44.1928 40.5067 43.7646C40.1454 43.3365 40.2669 42.8727 40.8736 42.3576C42.8972 40.6436 44.9186 38.9274 46.9378 37.209C47.0493 37.1142 47.153 37.0083 47.2589 36.909C45.9263 35.4251 44.4633 35.0505 42.7816 36.0439C41.2302 36.9821 39.7521 38.0365 38.36 39.198C36.2501 40.9216 34.2273 42.7545 32.1832 44.5585C31.9873 44.738 31.86 44.98 31.823 45.243C31.5152 48.7606 31.5542 52.2804 31.7583 55.8024C31.7773 56.1302 31.6579 56.5694 31.4371 56.788C30.9454 57.273 30.177 56.8727 30.099 56.1112C30.0193 55.4482 29.9791 54.7811 29.9785 54.1133C30.0298 50.9083 30.0993 47.7033 30.187 44.4983C30.2018 44.2254 30.3184 43.968 30.5138 43.7769C33.702 41.0576 36.8847 38.3328 40.1186 35.6681C41.1613 34.8097 42.369 34.1585 43.7317 33.9077C44.1979 33.8218 44.6818 33.8263 45.1937 33.7873C45.1424 32.8396 45.0822 31.902 45.0443 30.9632C44.9383 28.6085 44.8625 26.2505 45.4401 23.9392C45.6207 23.2046 45.8868 22.4936 46.233 21.8209C46.9935 20.3604 48.2537 19.5521 49.8684 19.2622C49.966 19.2411 50.058 19.1998 50.1385 19.1408C50.219 19.0818 50.2862 19.0066 50.3357 18.9199C51.4865 16.1527 53.7402 15.6264 56.1478 15.6287C56.4333 15.6287 56.7188 15.9631 57.0043 16.1382V17.8106C56.9563 17.9869 56.9239 18.1671 56.9073 18.3491C56.8705 23.2402 56.8292 28.1313 56.8181 33.0224C56.8181 33.998 56.9385 34.9735 57.0043 35.9491L56.9987 37.6125ZM49.7558 21.036C48.664 21.3002 47.9069 21.9458 47.5701 22.9091C47.1954 23.9805 46.8608 25.1099 46.7895 26.2315C46.6657 28.1124 46.7437 30.0066 46.7727 31.8953C46.785 32.7348 46.8843 33.5676 46.9489 34.5276C47.6794 33.8642 48.296 33.28 48.9395 32.727C49.0662 32.6233 49.1664 32.491 49.232 32.3409C49.2975 32.1909 49.3264 32.0275 49.3164 31.8641C49.3343 28.2729 49.1982 24.6751 49.7558 21.036Z" fill="#D41D12"/>
<path d="M30.0583 0C30.8389 0.151628 31.6195 0.274269 32.3856 0.45823C34.7189 1.01202 36.8953 2.08991 38.7498 3.61009C39.2438 4.01258 39.3207 4.51094 38.9784 4.90785C38.636 5.30476 38.1978 5.31257 37.6993 4.91789C36.2069 3.72198 34.4977 2.82518 32.6655 2.27666C24.2728 -0.237477 15.4653 5.36831 14.2264 14.0167C13.1269 21.6884 18.0904 28.7837 25.6601 30.3591C33.7427 32.0404 41.7484 26.4168 42.8859 18.2645C43.4111 14.5028 42.5959 11.0622 40.4872 7.90809C40.2945 7.60694 40.211 7.2488 40.2508 6.89352C40.282 6.68837 40.6645 6.38623 40.8797 6.39403C41.0461 6.4058 41.2084 6.4505 41.3574 6.52552C41.5063 6.60055 41.6388 6.70441 41.7473 6.83108C42.9728 8.48889 43.8408 10.3829 44.2965 12.3934C46.3038 21.1243 41.1351 29.611 32.4491 31.852C23.616 34.1309 14.3836 28.2765 12.6875 19.3192C10.9958 10.3899 16.7021 1.96002 25.5876 0.2542C26.0749 0.163892 26.5645 0.0858484 27.0529 0H30.0583Z" fill="#D41D12"/>
<path d="M8.69748 35.5858C7.93695 34.8912 7.26562 34.2479 6.56419 33.6492C6.16608 33.3081 6.00662 32.9245 6.00662 32.3961C5.95532 29.3011 5.92298 26.2038 5.76909 23.1133C5.69263 21.9328 5.46591 20.7668 5.09442 19.6437C4.6149 18.1296 3.37039 17.3536 1.75565 17.3826C1.81475 18.395 1.86716 19.4073 1.93407 20.4174C2.19368 23.95 2.22758 27.4956 2.03555 31.0325C1.92404 32.9379 1.81252 34.8444 1.73111 36.7509C1.72331 36.9628 1.90842 37.2214 2.06566 37.3942C6.35566 41.9107 10.9735 46.056 16.0575 49.6706C16.5504 50.0206 16.7344 50.4053 16.7177 51.0151C16.6731 52.6429 16.6998 54.274 16.7177 55.9029C16.7177 56.5719 16.4712 56.9443 15.9471 56.9721C15.423 57 15.0628 56.6544 15.055 56.0066C15.0238 54.4513 15.0349 52.896 14.9914 51.3418C14.975 51.2237 14.9351 51.11 14.874 51.0075C14.8129 50.9051 14.7319 50.8159 14.6357 50.7453C11.0992 48.1645 7.74367 45.3446 4.5926 42.3054C3.19085 40.9553 1.85824 39.5326 0.47768 38.1602C0.306618 38.0043 0.174299 37.8106 0.0912477 37.5946C0.00819691 37.3786 -0.0232942 37.1462 -0.000720796 36.9159C0.14648 34.5623 0.344977 32.221 0.379547 29.8652C0.423038 26.9809 0.347207 24.0821 0.275837 21.1934C0.239037 19.6938 0.0873764 18.1976 0.0115459 16.6981C-0.0285997 15.8998 0.299256 15.5776 1.10774 15.6055C2.18498 15.6422 3.24995 15.7705 4.24244 16.241C5.38994 16.785 6.13263 17.6993 6.62999 18.8421C6.70359 19.0115 6.89093 19.2222 7.05263 19.249C9.37661 19.6225 10.7048 21.0652 11.3594 23.2259C12.0574 25.5315 12.0697 27.9018 11.9627 30.2788C11.9114 31.4406 11.8511 32.6034 11.7842 33.8321C13.8473 33.6715 15.4497 34.6582 17.0132 35.7453C17.7068 36.228 17.8819 36.6874 17.5607 37.1489C17.2396 37.6105 16.7467 37.6027 16.0553 37.14C15.4943 36.7469 14.9112 36.3862 14.3089 36.0597C12.5069 35.1298 11.1865 35.3773 9.72008 36.9148C10.6523 37.7254 11.5746 38.5426 12.5147 39.3398C13.7313 40.3699 14.968 41.3722 16.1779 42.4158C16.4088 42.6154 16.6407 42.9454 16.6552 43.2263C16.6675 43.4683 16.4222 43.8529 16.1969 43.9455C16.0468 43.9929 15.8882 44.007 15.7321 43.9865C15.5761 43.9661 15.4264 43.9118 15.2936 43.8273C14.3324 43.1015 13.4112 42.3233 12.4946 41.5406C11.0694 40.3242 9.65763 39.0934 8.24808 37.8614C7.44293 37.1579 7.43401 36.8 8.18117 36.0374C8.32279 35.8924 8.48783 35.7698 8.69748 35.5858ZM7.2857 21.0485C7.38272 22.1433 7.52769 23.1724 7.55668 24.2048C7.63028 26.7579 7.64924 29.3222 7.69384 31.8743C7.69384 32.0705 7.68715 32.3347 7.80536 32.4474C8.49899 33.1297 9.22607 33.7763 10.0267 34.5133C10.2252 31.6089 10.4728 28.8339 10.194 26.0622C10.0825 24.993 9.78253 23.9216 9.41341 22.9059C9.06994 21.9493 8.33394 21.2949 7.2857 21.0485Z" fill="#D41D12"/>
<path d="M40.1627 16.1406C40.1517 18.8084 39.2209 21.3908 37.5273 23.4524C35.8336 25.514 33.4807 26.9286 30.8654 27.4577C28.25 27.9868 25.5321 27.5981 23.17 26.357C20.8079 25.116 18.9462 23.0985 17.8986 20.6449C17.6098 19.9648 17.7191 19.4854 18.2109 19.2702C18.7026 19.055 19.1454 19.2947 19.4375 19.9659C20.7757 22.9962 23.0439 24.9339 26.25 25.7523C31.7901 27.1671 37.5532 23.2616 38.3126 17.5945C39.062 12.031 35.3385 7.13545 29.7739 6.35501C24.584 5.63366 19.4888 9.48346 18.7952 14.6533C18.7372 15.0926 18.7104 15.5374 18.6837 15.9801C18.648 16.6078 18.3168 17.0069 17.8161 17.0036C17.3154 17.0002 16.982 16.5877 16.9842 15.9645C17.0121 10.5304 21.1872 5.64146 26.5399 4.78632C32.8874 3.77287 38.5769 7.66057 39.8984 13.9364C40.05 14.6578 40.0779 15.4048 40.1627 16.1406Z" fill="#D41D12"/>
<path d="M25.4482 51.4098C25.3757 49.6583 25.2988 47.4742 25.1795 45.2923C25.1426 44.992 24.999 44.715 24.7747 44.5118C23.1164 43.0301 21.4292 41.5796 19.7643 40.1057C19.5658 39.9295 19.3126 39.672 19.3126 39.4524C19.3219 39.1348 19.4557 38.8337 19.6851 38.6139C20.0419 38.314 20.4479 38.4668 20.7869 38.7645C21.9719 39.8013 23.1588 40.8367 24.3476 41.8706C25.0167 42.4559 25.7103 43.0179 26.3426 43.6422C26.5976 43.8948 26.7645 44.2228 26.8187 44.5776C27.1901 48.3683 27.1377 52.159 26.9202 55.9587C26.8812 56.641 26.5355 57.0033 25.9913 56.9621C25.4471 56.9208 25.1795 56.5039 25.2196 55.8327C25.2977 54.5104 25.3579 53.1814 25.4482 51.4098Z" fill="#D41D12"/>
<path d="M40.4215 53.525C40.3747 52.5372 40.3457 51.6675 40.2866 50.799C40.2576 50.3631 40.4159 50.0643 40.7661 49.8123C41.7129 49.13 42.6429 48.4254 43.5818 47.7341C44.1037 47.3506 44.5855 47.3762 44.8988 47.7932C45.2122 48.2102 45.1219 48.6695 44.5922 49.0765C43.8283 49.6629 43.041 50.2193 42.2905 50.8213C42.1296 50.9735 42.0341 51.1821 42.024 51.4033C41.9861 52.9753 41.9916 54.5474 41.9548 56.1194C41.9415 56.6679 41.5523 56.998 41.0627 56.9723C40.5732 56.9467 40.2687 56.5843 40.2921 56.0157C40.3267 55.1461 40.3814 54.2776 40.4215 53.525Z" fill="#D41D12"/>
<path d="M33.4078 14.3223C33.4133 14.7833 33.3323 15.2412 33.1692 15.6724C33.0148 16.0718 32.7733 16.4317 32.4622 16.726C32.132 17.0331 31.74 17.2661 31.3125 17.4095C30.8118 17.5759 30.2866 17.6566 29.759 17.6481H27.6882V21.1043C27.6882 21.405 27.5687 21.6934 27.356 21.9061C27.1433 22.1187 26.8549 22.2382 26.5541 22.2382C26.2533 22.2382 25.9648 22.1187 25.7522 21.9061C25.5395 21.6934 25.42 21.405 25.42 21.1043V11.225C25.4184 11.0767 25.4467 10.9296 25.5032 10.7924C25.5598 10.6553 25.6433 10.5309 25.749 10.4268C25.8526 10.3182 25.9777 10.2324 26.1163 10.1748C26.2549 10.1172 26.404 10.0891 26.5541 10.0923H29.662C30.3742 10.0923 30.969 10.1937 31.4463 10.3967C31.8812 10.5711 32.2734 10.8373 32.596 11.1771C32.8823 11.489 33.0956 11.8607 33.2205 12.2652C33.3448 12.6592 33.4088 13.0697 33.4101 13.4827L33.4078 14.3223ZM31.1563 13.5418C31.1569 13.3798 31.1317 13.2187 31.0816 13.0646C31.0299 12.9079 30.9394 12.7667 30.8184 12.6544C30.6692 12.5198 30.4927 12.419 30.301 12.3589C30.0299 12.2757 29.7469 12.238 29.4635 12.2474H27.6882V15.5832H29.6765C30.2348 15.5832 30.6211 15.452 30.8352 15.1897C31.0449 14.94 31.1587 14.6238 31.1563 14.2977V13.5418Z" fill="#D41D12"/>
<path d="M27.5715 15.6267H24.5438C23.9975 15.6267 23.5547 16.0695 23.5547 16.6156C23.5547 17.1618 23.9975 17.6046 24.5438 17.6046H27.5715C28.1178 17.6046 28.5606 17.1618 28.5606 16.6156C28.5606 16.0695 28.1178 15.6267 27.5715 15.6267Z" fill="#D41D12"/>
<path d="M29.4828 18.259H24.5438C23.9975 18.259 23.5547 18.7018 23.5547 19.248C23.5547 19.7941 23.9975 20.2369 24.5438 20.2369H29.4828C30.0291 20.2369 30.472 19.7941 30.472 19.248C30.472 18.7018 30.0291 18.259 29.4828 18.259Z" fill="#D41D12"/>
</g>
<defs>
<clipPath id="clip0_1_23">
<rect width="57" height="57" fill="white"/>
</clipPath>
</defs>
</svg>
