<svg width="61" height="61" viewBox="0 0 61 61" fill="none" xmlns="http://www.w3.org/2000/svg">
<path fill-rule="evenodd" clip-rule="evenodd" d="M12.1608 0.20858C11.9361 0.323071 11.6413 0.568136 11.5056 0.753157C11.2702 1.07399 11.2588 1.23959 11.2588 4.36743V7.64561L11.5401 7.8734C11.8726 8.14277 12.3726 8.16827 12.6956 7.93226C12.9107 7.77512 12.931 7.55805 12.9864 4.8049L13.0459 1.84648L15.7564 1.81443L18.4669 1.78238V3.76221C18.4669 6.78306 18.6177 6.95545 21.2028 6.88933C23.469 6.83143 23.5899 6.66964 23.5899 3.69692V1.78691H26.2706H28.9513V7.97646V14.1661L25.7833 14.2014C22.6173 14.2368 22.6152 14.2369 22.3878 14.5181C22.1743 14.7819 22.1602 15.0373 22.1602 18.6581V22.5168H17.5733H12.9864V16.4495V10.3821L12.6724 10.1352C12.2638 9.81368 12.0026 9.82356 11.5931 10.1757L11.2588 10.4632L11.2258 16.4841L11.1929 22.5048L8.34512 22.5406C5.68327 22.574 5.47537 22.5925 5.16131 22.8231C4.38963 23.3896 4.40858 23.1945 4.40846 30.5884L4.40822 37.2899L2.8296 37.2901C1.00567 37.2902 0.553172 37.4343 0.208735 38.1238C0.0148926 38.5117 0.000357423 39.3039 0.000238282 49.477L0 60.4134L0.292491 60.7057L0.584864 60.9982H5.57819C10.4493 60.9982 10.5791 60.9921 10.8853 60.7512C11.2787 60.4418 11.3158 59.8042 10.961 59.4494C10.7312 59.2196 10.5639 59.2111 6.25491 59.2111H1.78712V49.144V39.0769H8.10159H14.4161V41.1082C14.4161 44.0475 14.5399 44.1998 16.926 44.1998C19.2749 44.1998 19.42 44.0202 19.42 41.1137V39.0769H25.7345H32.049V49.144V59.2111H22.8287C14.0457 59.2111 13.5957 59.2215 13.3371 59.4308C12.944 59.7492 12.9695 60.3574 13.3912 60.7201L13.7166 61L37.1307 60.9693L60.5448 60.9386L60.7724 60.6574C60.992 60.3863 61.0002 60.0671 61 51.8412C60.9999 43.9543 60.984 43.2746 60.7915 42.8893C60.3836 42.0728 60.2745 42.0557 55.4304 42.0556L51.1115 42.0554V35.047V28.0387L50.8358 27.7796C50.47 27.436 49.9805 27.4495 49.6169 27.8131L49.3244 28.1054V35.0805V42.0554H41.5802H33.8361V39.9651C33.8361 37.9045 33.8319 37.8705 33.5436 37.5823L33.2512 37.2899H28.5992H23.9474V26.6271V15.9643H29.0109H34.0744V17.8743C34.0744 19.907 34.1623 20.3401 34.6661 20.7893C34.907 21.0041 35.1018 21.0276 36.6461 21.0276H38.3589L38.7484 20.6384L39.1378 20.2493L39.1751 18.1067L39.2124 15.9643H44.2684H49.3244V20.4263C49.3244 23.4428 49.3673 24.9824 49.4567 25.1787C49.5893 25.4695 50.0134 25.7335 50.3482 25.7335C50.4464 25.7335 50.6582 25.6019 50.819 25.441L51.1115 25.1487L51.111 20.2288C51.1107 15.6254 51.0963 15.2854 50.8868 14.9421C50.4007 14.1449 50.8481 14.1772 40.2815 14.1772H30.7384L30.7379 7.65443C30.7376 1.32216 30.7305 1.1201 30.497 0.737312C30.035 -0.0205215 30.2969 -0.00014902 21.0024 8.92549e-05C13.2092 0.000208392 12.5384 0.0160537 12.1608 0.20858ZM21.8028 3.45484V5.12276H21.0284H20.254V3.45484V1.78691H21.0284H21.8028V3.45484ZM37.4103 17.6322V19.3001H36.6359H35.8615V17.6322V15.9643H36.6359H37.4103V17.6322ZM11.6758 26.3352C11.6758 29.3046 11.7759 29.427 14.2016 29.4263C15.4425 29.426 15.7252 29.3905 16.0466 29.1945C16.6762 28.8106 16.7306 28.5999 16.7785 26.359L16.8225 24.3039H19.4914H22.1602V30.7969V37.2899H14.1778H6.19534V30.7969V24.3039H8.93558H11.6758V26.3352ZM14.9853 26.0016L15.0184 27.6397H14.2407H13.4629V25.9661V24.2926L14.2076 24.3279L14.9522 24.3635L14.9853 26.0016ZM17.6329 40.7448V42.4128H16.918H16.2032V40.7448V39.0769H16.918H17.6329V40.7448ZM43.9631 45.8141C43.9631 48.0123 44.043 48.3231 44.7135 48.7318C45.0358 48.9284 45.3163 48.9645 46.5246 48.9645C47.7329 48.9645 48.0134 48.9284 48.3357 48.7318C49.0062 48.3231 49.0861 48.0123 49.0861 45.8141V43.8424H54.1496H59.2131V51.5268V59.2111H46.5246H33.8361V51.5268V43.8424H38.8996H43.9631V45.8141ZM47.299 45.5103V47.1783H46.5246H45.7502V45.5103V43.8424H46.5246H47.299V45.5103Z" fill="#D41D12"/>
</svg>
