<svg width="21" height="21" viewBox="0 0 21 21" fill="none" xmlns="http://www.w3.org/2000/svg">
<path fill-rule="evenodd" clip-rule="evenodd" d="M0.107377 0.107406L0 0.214769V10.5V20.7852L0.107377 20.8926L0.214711 21L7.33512 20.9977C14.0468 20.9955 14.4492 20.9912 14.3463 20.9212C14.2863 20.8803 14.0731 20.7238 13.8727 20.5734L13.5083 20.3H7.10405H0.699812V10.5V0.7H7.34776H13.9958L14.0069 4.43704L14.0181 8.17412L14.3571 8.04322L14.6961 7.91228V4.06354V0.214769L14.5887 0.107406L14.4813 0H7.34803H0.214711L0.107377 0.107406ZM3.25653 1.50741L3.14915 1.61477V2.8V3.98523L3.25653 4.09259L3.36386 4.2H7.34803H11.3322L11.4395 4.09259L11.5469 3.98523V2.8V1.61477L11.4395 1.50741L11.3322 1.4H7.34803H3.36386L3.25653 1.50741ZM10.8471 2.8V3.5H7.34803H3.84897V2.8V2.1H7.34803H10.8471V2.8ZM1.85691 5.35741L1.74953 5.46477V7.7V9.93523L1.85691 10.0426L1.96424 10.15H4.19887H6.4335L6.54084 10.0426L6.64821 9.93523V8.85146V7.76768L6.29831 8.11562L5.9484 8.46357V8.95681V9.45H4.19887H2.44934V7.7V5.95H3.99212H5.53494L5.88279 5.6L6.23064 5.25H4.09744H1.96424L1.85691 5.35741ZM5.80656 6.63854L4.54961 7.89587L4.16563 7.51354C3.95442 7.30328 3.76158 7.13125 3.73713 7.13125C3.67957 7.13125 3.28037 7.53598 3.28037 7.5943C3.28037 7.61871 3.533 7.88874 3.84179 8.19433C4.33818 8.68564 4.42032 8.75 4.55101 8.75C4.68668 8.75 4.81632 8.63262 6.13276 7.31806C6.92145 6.53052 7.56672 5.86534 7.56672 5.83988C7.56672 5.78226 7.16376 5.38125 7.10585 5.38125C7.08258 5.38125 6.49789 5.94703 5.80656 6.63854ZM8.39774 6.3V6.65H10.6721H12.9465V6.3V5.95H10.6721H8.39774V6.3ZM8.39774 8.05V8.4H10.6721H12.9465V8.05V7.7H10.6721H8.39774V8.05ZM15.5927 8.25514C14.4861 8.81934 12.8836 9.30164 11.6804 9.43259C11.4714 9.45529 11.3724 9.48933 11.2977 9.56401L11.197 9.66477V11.9976C11.197 14.7828 11.2318 15.1714 11.5783 16.2531C12.1038 17.8939 13.209 19.3379 14.6742 20.2982C15.1086 20.5829 15.9589 21 16.1049 21C16.1648 21 16.4677 20.872 16.778 20.7156C18.6959 19.749 20.1232 18.0167 20.7072 15.9469C20.9589 15.0547 20.9623 15.0101 20.9818 12.2399L21 9.67041L20.8898 9.56021C20.8292 9.49961 20.7315 9.45 20.6727 9.45C20.4792 9.45 19.5394 9.27732 18.9824 9.13942C18.2633 8.96136 17.4784 8.67611 16.7566 8.33044C16.4345 8.17622 16.1294 8.05101 16.0786 8.05223C16.0279 8.05341 15.8092 8.14476 15.5927 8.25514ZM16.708 9.08114C17.6427 9.50849 18.9206 9.89222 19.9774 10.0629L20.2945 10.1142L20.2937 12.2211C20.2928 14.4534 20.2659 14.8727 20.0759 15.6197C19.5973 17.502 18.2823 19.1503 16.544 20.0469L16.0957 20.2781L15.6474 20.0469C13.909 19.1503 12.594 17.502 12.1154 15.6197C11.9254 14.8727 11.8986 14.4534 11.8977 12.2211L11.8968 10.1142L12.2139 10.0629C13.2862 9.88973 14.6091 9.48894 15.5271 9.05914C15.8278 8.91835 16.0935 8.80946 16.1175 8.81716C16.1416 8.82486 16.4073 8.94364 16.708 9.08114ZM1.85691 11.3074L1.74953 11.4148V13.65V15.8852L1.85691 15.9926L1.96424 16.1H4.19887H6.4335L6.54084 15.9926L6.64821 15.8852V14.8015V13.7177L6.29831 14.0656L5.9484 14.4136V14.9068V15.4H4.19887H2.44934V13.65V11.9H3.99212H5.53494L5.88279 11.55L6.23064 11.2H4.09744H1.96424L1.85691 11.3074ZM5.80656 12.5885L4.54961 13.8459L4.16563 13.4635C3.95442 13.2533 3.76158 13.0812 3.73713 13.0812C3.67957 13.0812 3.28037 13.486 3.28037 13.5443C3.28037 13.5687 3.533 13.8387 3.84179 14.1443C4.33818 14.6356 4.42032 14.7 4.55101 14.7C4.68668 14.7 4.81632 14.5826 6.13276 13.2681C6.92145 12.4805 7.56672 11.8153 7.56672 11.7899C7.56672 11.7323 7.16376 11.3312 7.10585 11.3312C7.08258 11.3312 6.49789 11.897 5.80656 12.5885ZM17.0033 13.6388L15.0463 15.5964L14.1382 14.6888C13.6387 14.1897 13.2098 13.7812 13.1851 13.7812C13.1278 13.7812 12.7278 14.1854 12.7278 14.2433C12.7278 14.2672 13.2159 14.7735 13.8124 15.3684C14.807 16.3603 14.9093 16.45 15.0469 16.45C15.1866 16.45 15.3446 16.3025 17.3302 14.3178C18.5036 13.1451 19.4635 12.1649 19.4635 12.1396C19.4635 12.0822 19.0604 11.6812 19.0027 11.6812C18.9794 11.6812 18.0797 12.5622 17.0033 13.6388ZM8.39774 12.25V12.6H9.44746H10.4972V12.25V11.9H9.44746H8.39774V12.25ZM8.39774 14V14.35H9.44746H10.4972V14V13.65H9.44746H8.39774V14ZM4.89868 17.5V17.85H7.69793H10.4972V17.5V17.15H7.69793H4.89868V17.5ZM8.04784 18.9V19.25H9.27251H10.4972V18.9V18.55H9.27251H8.04784V18.9Z" fill="#25343F"/>
</svg>
