<svg width="321" height="62" viewBox="0 0 321 62" fill="none" xmlns="http://www.w3.org/2000/svg">
<rect width="321" height="62" fill="#D9DCDE"/>
<path d="M92.9404 27.6123C94.0238 26.8675 95.2383 26.4951 96.584 26.4951C98.429 26.4951 99.944 27.1214 101.129 28.374C102.314 29.6182 102.906 31.1416 102.906 32.9443C102.906 34.7386 102.276 36.2536 101.015 37.4893C99.7536 38.7249 98.1117 39.3428 96.0889 39.3428C94.0153 39.3428 92.3607 38.6953 91.125 37.4004C89.8978 36.1055 89.2842 34.2139 89.2842 31.7256C89.2842 28.6956 89.902 26.2835 91.1377 24.4893C92.3734 22.695 94.2057 21.5778 96.6348 21.1377C98.3613 20.8245 99.6436 20.4014 100.481 19.8682L101.688 22.1787C100.706 22.8135 99.3431 23.3086 97.5996 23.6641C94.9421 24.1888 93.389 25.5049 92.9404 27.6123ZM96.0889 36.7402C97.1553 36.7402 98.0059 36.3805 98.6406 35.6611C99.2839 34.9333 99.6055 34.0277 99.6055 32.9443C99.6055 31.8271 99.2839 30.9089 98.6406 30.1895C98.0059 29.4616 97.1553 29.0977 96.0889 29.0977C95.0309 29.0977 94.1803 29.4616 93.5371 30.1895C92.9023 30.9089 92.585 31.8271 92.585 32.9443C92.585 34.0192 92.9023 34.9206 93.5371 35.6484C94.1719 36.3763 95.0225 36.7402 96.0889 36.7402ZM117.277 32.373L107.87 34.1377C108.073 35.0433 108.496 35.7204 109.14 36.1689C109.783 36.6175 110.642 36.8418 111.717 36.8418C112.842 36.8418 113.977 36.5286 115.119 35.9023L116.452 38.2256C114.861 38.9704 113.168 39.3428 111.374 39.3428C109.292 39.3428 107.616 38.7503 106.347 37.5654C105.086 36.3805 104.455 34.8825 104.455 33.0713C104.455 31.1416 105.086 29.5632 106.347 28.3359C107.608 27.1087 109.182 26.4951 111.069 26.4951C112.821 26.4951 114.264 27.0199 115.398 28.0693C116.541 29.1104 117.167 30.5449 117.277 32.373ZM113.9 30.6846C113.63 30.126 113.257 29.707 112.783 29.4277C112.309 29.14 111.729 28.9961 111.044 28.9961C110.198 28.9961 109.478 29.25 108.886 29.7578C108.293 30.2656 107.929 30.9469 107.794 31.8018L113.9 30.6846ZM126.367 32.4492C127.163 32.627 127.789 32.9951 128.246 33.5537C128.712 34.1123 128.944 34.7301 128.944 35.4072C128.944 36.6598 128.445 37.6289 127.446 38.3145C126.456 39 125.17 39.3428 123.587 39.3428C121.894 39.3428 120.206 38.8984 118.521 38.0098L119.842 35.8262C120.257 36.1224 120.802 36.3678 121.479 36.5625C122.157 36.7487 122.791 36.8418 123.384 36.8418C124.061 36.8418 124.607 36.6979 125.021 36.4102C125.436 36.1139 125.644 35.7373 125.644 35.2803C125.644 34.7979 125.402 34.417 124.92 34.1377C124.446 33.8584 123.769 33.7188 122.889 33.7188H122.025V31.4844H123.016C124.438 31.4844 125.148 31.0189 125.148 30.0879C125.148 29.7578 124.988 29.4954 124.666 29.3008C124.344 29.0977 123.909 28.9961 123.358 28.9961C122.216 28.9961 121.132 29.2881 120.108 29.8721L118.877 27.7139C120.248 26.9014 121.924 26.4951 123.904 26.4951C125.216 26.4951 126.291 26.7956 127.129 27.3965C127.975 27.9974 128.398 28.7972 128.398 29.7959C128.398 30.3799 128.204 30.93 127.814 31.4463C127.425 31.9541 126.943 32.2884 126.367 32.4492ZM140.472 28.2344C141.547 27.0749 143.045 26.4951 144.966 26.4951C146.887 26.4951 148.432 27.1087 149.6 28.3359C150.776 29.5632 151.364 31.0908 151.364 32.9189C151.364 34.6878 150.746 36.2028 149.511 37.4639C148.284 38.7165 146.743 39.3428 144.89 39.3428C143.248 39.3428 141.923 38.9154 140.916 38.0605V43.4688L137.717 44.4082V26.8633L140.472 28.2344ZM144.509 36.7402C145.584 36.7402 146.443 36.389 147.086 35.6865C147.738 34.9756 148.063 34.07 148.063 32.9697C148.063 31.8525 147.742 30.93 147.099 30.2021C146.455 29.4658 145.592 29.0977 144.509 29.0977C143.425 29.0977 142.558 29.4531 141.906 30.1641C141.263 30.875 140.941 31.8018 140.941 32.9443C140.941 34.0869 141.259 35.0052 141.894 35.6992C142.528 36.3932 143.4 36.7402 144.509 36.7402ZM165.748 32.373L156.341 34.1377C156.544 35.0433 156.967 35.7204 157.61 36.1689C158.254 36.6175 159.113 36.8418 160.188 36.8418C161.313 36.8418 162.447 36.5286 163.59 35.9023L164.923 38.2256C163.332 38.9704 161.639 39.3428 159.845 39.3428C157.763 39.3428 156.087 38.7503 154.817 37.5654C153.556 36.3805 152.926 34.8825 152.926 33.0713C152.926 31.1416 153.556 29.5632 154.817 28.3359C156.078 27.1087 157.653 26.4951 159.54 26.4951C161.292 26.4951 162.735 27.0199 163.869 28.0693C165.012 29.1104 165.638 30.5449 165.748 32.373ZM162.371 30.6846C162.1 30.126 161.728 29.707 161.254 29.4277C160.78 29.14 160.2 28.9961 159.515 28.9961C158.668 28.9961 157.949 29.25 157.356 29.7578C156.764 30.2656 156.4 30.9469 156.265 31.8018L162.371 30.6846ZM186.378 39H182.493C180.716 36.3594 179.759 34.9502 179.624 34.7725C179.497 34.5863 179.328 34.4043 179.116 34.2266C178.905 34.0488 178.714 33.96 178.545 33.96H177.974V38.4033L174.774 39.3428V33.96H174.229C173.848 33.96 173.399 34.3451 172.883 35.1152L170.255 39H166.383L170.166 34.0742C170.555 33.5664 170.907 33.1898 171.22 32.9443C171.533 32.6989 171.816 32.5592 172.07 32.5254C171.309 32.3307 170.623 31.6283 170.014 30.418C169.616 29.5885 169.108 29.1738 168.49 29.1738C168.296 29.1738 168.059 29.1992 167.779 29.25V26.6475C168.211 26.5459 168.558 26.4951 168.82 26.4951C170.344 26.4951 171.558 27.3626 172.464 29.0977C173.192 30.5026 173.886 31.2051 174.546 31.2051H174.774V27.4346L177.974 26.4951V31.2051H178.24C178.883 31.2051 179.565 30.5026 180.284 29.0977C181.19 27.3626 182.404 26.4951 183.928 26.4951C184.19 26.4951 184.537 26.5459 184.969 26.6475V29.25C184.689 29.1992 184.457 29.1738 184.271 29.1738C183.644 29.1738 183.132 29.5885 182.734 30.418C182.117 31.6536 181.431 32.3561 180.678 32.5254C181.219 32.61 181.846 33.1136 182.557 34.0361L186.378 39ZM199.962 39H196.775V32.4492L189.387 39.3428H188.346V26.8633H191.545V33.4141L198.934 26.4951H199.962V39ZM217.393 39H214.244L213.343 32.9189L209.928 39.3428H208.836L205.802 32.8936L204.786 39H201.841L204.393 26.4951H205.586L209.623 34.5312L213.838 26.4951H215.006L217.393 39ZM232.665 38.251L230.405 39.3428C229.762 38.7419 229.44 38.141 229.44 37.54C228.247 38.7419 226.702 39.3428 224.807 39.3428C222.945 39.3428 221.417 38.7419 220.224 37.54C219.03 36.3382 218.434 34.7979 218.434 32.9189C218.434 31.1501 219.06 29.6393 220.312 28.3867C221.565 27.1257 223.097 26.4951 224.908 26.4951C226.804 26.4951 228.298 27.0664 229.39 28.209L232.005 26.8633V35.2803C232.005 36.2536 232.06 36.9307 232.17 37.3115C232.28 37.6839 232.445 37.9971 232.665 38.251ZM225.302 36.7402C226.377 36.7402 227.24 36.3848 227.892 35.6738C228.543 34.9544 228.869 34.0446 228.869 32.9443C228.869 31.7764 228.556 30.8454 227.93 30.1514C227.303 29.4489 226.444 29.0977 225.353 29.0977C224.244 29.0977 223.364 29.4531 222.712 30.1641C222.069 30.8665 221.747 31.7679 221.747 32.8682C221.747 33.9769 222.064 34.8994 222.699 35.6357C223.342 36.3721 224.21 36.7402 225.302 36.7402Z" fill="#D41D12"/>
</svg>
