<svg width="324" height="62" viewBox="0 0 324 62" fill="none" xmlns="http://www.w3.org/2000/svg">
<rect width="324" height="62" fill="#D9DCDE"/>
<path d="M133.346 37.1562H123.518V32.9727H133.346V37.1562ZM144.452 43H140.169V26.9131L136.268 29.6357V25.4854L143.058 20.0234H144.452V43ZM162.083 30.9971C163.356 31.5173 164.313 32.2643 164.955 33.2383C165.597 34.2012 165.918 35.391 165.918 36.8076C165.918 38.8441 165.21 40.46 163.793 41.6553C162.376 42.8506 160.5 43.4482 158.165 43.4482C155.819 43.4482 153.937 42.8451 152.521 41.6387C151.115 40.4323 150.412 38.8219 150.412 36.8076C150.412 35.391 150.733 34.2012 151.375 33.2383C152.017 32.2643 152.98 31.5173 154.264 30.9971C153.223 30.3883 152.443 29.6855 151.923 28.8887C151.414 28.0807 151.159 27.1732 151.159 26.166C151.159 24.2845 151.785 22.7904 153.035 21.6836C154.297 20.5768 156.007 20.0234 158.165 20.0234C160.323 20.0234 162.028 20.5768 163.278 21.6836C164.54 22.7904 165.171 24.2845 165.171 26.166C165.171 27.1732 164.911 28.0807 164.391 28.8887C163.882 29.6855 163.112 30.3883 162.083 30.9971ZM158.165 29.3369C158.984 29.3369 159.643 29.0547 160.141 28.4902C160.639 27.9258 160.888 27.2451 160.888 26.4482C160.888 25.6292 160.639 24.9652 160.141 24.4561C159.654 23.9469 158.995 23.6924 158.165 23.6924C157.335 23.6924 156.671 23.9469 156.173 24.4561C155.686 24.9652 155.442 25.6292 155.442 26.4482C155.442 27.2451 155.691 27.9258 156.189 28.4902C156.699 29.0547 157.357 29.3369 158.165 29.3369ZM158.165 39.7627C159.172 39.7627 159.98 39.4362 160.589 38.7832C161.198 38.1302 161.502 37.3167 161.502 36.3428C161.502 35.3688 161.192 34.5609 160.572 33.9189C159.952 33.266 159.15 32.9395 158.165 32.9395C157.18 32.9395 156.378 33.266 155.758 33.9189C155.138 34.5609 154.828 35.3688 154.828 36.3428C154.828 37.3167 155.132 38.1302 155.741 38.7832C156.35 39.4362 157.158 39.7627 158.165 39.7627ZM173.804 20.0234C175.364 20.0234 176.698 20.5824 177.805 21.7002C178.923 22.807 179.481 24.1406 179.481 25.7012C179.481 27.2507 178.923 28.5843 177.805 29.7021C176.698 30.82 175.364 31.3789 173.804 31.3789C172.243 31.3789 170.904 30.82 169.786 29.7021C168.679 28.5843 168.126 27.2507 168.126 25.7012C168.126 24.1406 168.679 22.807 169.786 21.7002C170.904 20.5824 172.243 20.0234 173.804 20.0234ZM173.804 28.374C174.545 28.374 175.176 28.1139 175.696 27.5938C176.228 27.0736 176.493 26.4427 176.493 25.7012C176.493 24.9486 176.228 24.3122 175.696 23.792C175.176 23.2718 174.545 23.0117 173.804 23.0117C173.062 23.0117 172.426 23.2718 171.895 23.792C171.374 24.3122 171.114 24.9486 171.114 25.7012C171.114 26.4427 171.374 27.0736 171.895 27.5938C172.426 28.1139 173.062 28.374 173.804 28.374ZM200.864 21.916L198.723 25.7344C197.107 24.6387 195.33 24.0908 193.394 24.0908C191.091 24.0908 189.265 24.7881 187.915 26.1826C186.576 27.5771 185.906 29.4199 185.906 31.7109C185.906 34.002 186.587 35.8503 187.948 37.2559C189.321 38.6615 191.136 39.3643 193.394 39.3643C195.153 39.3643 196.896 38.8441 198.623 37.8037L200.798 41.5391C198.673 42.8118 196.194 43.4482 193.36 43.4482C189.852 43.4482 186.958 42.3415 184.678 40.1279C182.398 37.9033 181.258 35.0977 181.258 31.7109C181.258 28.291 182.403 25.4909 184.694 23.3105C186.985 21.1191 189.874 20.0234 193.36 20.0234C196.172 20.0234 198.673 20.6543 200.864 21.916Z" fill="#D41D12"/>
<path d="M20.129 30.5156L25.3217 29.1231L27.7207 30.5156L25.3321 31.8977L20.129 30.5156ZM28.6035 26.1511V28.9257L26.2668 27.5332L24.8855 22.3373L28.6035 26.1511ZM28.6035 34.8801L24.8336 38.6523L26.2148 33.4564L28.6035 32.0847V34.8801ZM30.4209 32.1159L32.8199 33.4876L34.1908 38.6835L30.4209 34.8801V32.1159ZM30.4209 26.1407L34.1908 22.3789L32.8199 27.5747L30.4209 28.9257V26.1407ZM38.8849 30.5156L33.6923 31.8977L31.2932 30.5156L33.6923 29.1231L38.8849 30.5156ZM13.1605 33.8409C12.9214 33.7891 12.6716 33.8301 12.4615 33.9554C12.2514 34.0808 12.0966 34.2813 12.0285 34.5164C11.9683 34.7547 12.0043 35.0072 12.1287 35.2191C12.253 35.4311 12.4558 35.5856 12.6932 35.6491L16.8473 36.761L12.9528 39.016C12.7421 39.1359 12.5876 39.3346 12.5233 39.5685C12.4591 39.8023 12.4903 40.0522 12.6101 40.263C12.7299 40.4738 12.9285 40.6284 13.1622 40.6927C13.3959 40.757 13.6456 40.7258 13.8563 40.6059L17.7612 38.3509L16.7227 42.5076C16.688 42.6236 16.677 42.7453 16.6902 42.8657C16.7035 42.986 16.7408 43.1024 16.7999 43.2081C16.8589 43.3137 16.9386 43.4064 17.0342 43.4807C17.1298 43.5549 17.2393 43.6092 17.3562 43.6403C17.4742 43.6733 17.5975 43.6825 17.719 43.6673C17.8406 43.6522 17.9579 43.613 18.0642 43.5521C18.1705 43.4912 18.2637 43.4097 18.3382 43.3125C18.4128 43.2152 18.4673 43.1041 18.4985 42.9856L20.0356 37.0416L23.9197 34.8074L22.1957 41.2502C22.1413 41.452 22.1594 41.6664 22.2467 41.8563C22.3339 42.0461 22.485 42.1994 22.6735 42.2894C22.8538 42.4129 23.0714 42.4701 23.2892 42.4511C23.5069 42.4322 23.7114 42.3383 23.8678 42.1855L28.5827 37.4884V41.9464L24.2312 46.2902C24.1446 46.3761 24.0758 46.4783 24.0287 46.5909C23.9815 46.7035 23.957 46.8243 23.9566 46.9464C23.9556 47.1929 24.0525 47.4297 24.2261 47.6047C24.3996 47.7797 24.6355 47.8786 24.8819 47.8796C25.1282 47.8805 25.3649 47.7835 25.5398 47.6099L28.5827 44.5652V49.0751C28.5827 49.3204 28.6801 49.5557 28.8534 49.7291C29.0267 49.9026 29.2618 50 29.507 50C29.7521 50 29.9872 49.9026 30.1606 49.7291C30.3339 49.5557 30.4313 49.3204 30.4313 49.0751V44.6067L33.5365 47.6411C33.7114 47.8147 33.9481 47.9117 34.1944 47.9107C34.4408 47.9098 34.6767 47.8109 34.8502 47.6359C35.0238 47.4609 35.1207 47.2241 35.1197 46.9775C35.1187 46.731 35.0199 46.495 34.845 46.3213L30.4209 41.9776V37.5196L35.1566 42.2374C35.3192 42.3742 35.5197 42.4579 35.7313 42.477C35.9428 42.4962 36.1552 42.45 36.3397 42.3447C36.5242 42.2394 36.672 42.08 36.7631 41.888C36.8543 41.696 36.8844 41.4806 36.8494 41.271L35.115 34.8281L38.9888 37.0416L40.5674 42.9856C40.633 43.2212 40.7883 43.4216 40.9999 43.544C41.2115 43.6663 41.4626 43.7009 41.6993 43.6403C41.8183 43.6113 41.9302 43.5587 42.0285 43.4856C42.1267 43.4125 42.2094 43.3204 42.2714 43.2148C42.3334 43.1091 42.3735 42.9921 42.3894 42.8706C42.4053 42.7491 42.3967 42.6257 42.364 42.5076L41.2632 38.3509L45.1576 40.6059C45.3687 40.7272 45.619 40.7603 45.8543 40.698C46.0895 40.6358 46.2908 40.4832 46.4143 40.2734C46.4752 40.1685 46.5147 40.0526 46.5305 39.9324C46.5462 39.8121 46.5379 39.6899 46.506 39.5729C46.4741 39.4559 46.4193 39.3464 46.3447 39.2508C46.2701 39.1551 46.1773 39.0753 46.0716 39.016L42.1771 36.761L46.3312 35.6491C46.4474 35.6167 46.556 35.5617 46.6508 35.4871C46.7456 35.4126 46.8247 35.32 46.8836 35.2147C46.9425 35.1094 46.98 34.9935 46.9939 34.8737C47.0078 34.7538 46.9979 34.6324 46.9647 34.5164C46.9344 34.3967 46.8808 34.2843 46.8069 34.1854C46.733 34.0866 46.6403 34.0034 46.5341 33.9406C46.4279 33.8778 46.3103 33.8367 46.1881 33.8196C46.066 33.8025 45.9417 33.8097 45.8223 33.8409L39.8923 35.4516L36.0497 33.2174L42.4575 31.482C42.6667 31.4267 42.8499 31.2997 42.9752 31.1231C43.1004 30.9465 43.1598 30.7315 43.1429 30.5156C43.1607 30.297 43.1022 30.0791 42.9771 29.899C42.8521 29.7189 42.6684 29.5879 42.4575 29.5284L36.0497 27.8034L39.8923 25.5795L45.8223 27.1799C46.0618 27.2404 46.3155 27.2047 46.529 27.0804C46.7425 26.9561 46.8989 26.753 46.9647 26.5148C46.9961 26.3974 47.0041 26.275 46.9882 26.1546C46.9723 26.0341 46.9328 25.918 46.8721 25.8128C46.8113 25.7076 46.7304 25.6154 46.6341 25.5415C46.5377 25.4676 46.4277 25.4135 46.3104 25.3821L42.1563 24.2806L46.0508 22.0256C46.1565 21.9662 46.2494 21.8864 46.324 21.7908C46.3986 21.6952 46.4534 21.5857 46.4853 21.4687C46.5172 21.3517 46.5255 21.2295 46.5097 21.1092C46.494 20.9889 46.4545 20.873 46.3935 20.7682C46.3349 20.6617 46.2559 20.5678 46.1611 20.4918C46.0662 20.4159 45.9573 20.3594 45.8406 20.3256C45.7239 20.2919 45.6016 20.2814 45.4809 20.295C45.3601 20.3085 45.2432 20.3457 45.1369 20.4045L41.2216 22.6699L42.3432 18.5132C42.3839 18.2833 42.3371 18.0465 42.2122 17.8493C42.0872 17.6521 41.8931 17.5088 41.6679 17.4476C41.4427 17.3864 41.2028 17.4117 40.9953 17.5185C40.7878 17.6253 40.6277 17.8059 40.5466 18.0248L38.9472 23.9688L35.0943 26.203L36.8286 19.7602C36.869 19.5551 36.8411 19.3425 36.7491 19.1548C36.6572 18.9671 36.5064 18.8148 36.3197 18.721C36.141 18.5983 35.9251 18.5415 35.7092 18.5604C35.4932 18.5794 35.2905 18.6729 35.1358 18.8249L30.4209 23.5324V19.0639L34.7619 14.7202C34.8486 14.6368 34.9176 14.5368 34.9647 14.4261C35.0119 14.3154 35.0361 14.1963 35.0361 14.0759C35.0361 13.9556 35.0119 13.8365 34.9647 13.7258C34.9176 13.6151 34.8486 13.515 34.7619 13.4317C34.6792 13.3402 34.5782 13.2672 34.4655 13.2172C34.3529 13.1672 34.2309 13.1413 34.1077 13.1413C33.9844 13.1413 33.8625 13.1672 33.7498 13.2172C33.6371 13.2672 33.5362 13.3402 33.4534 13.4317L30.4209 16.4245V11.9249C30.4209 11.6796 30.3235 11.4443 30.1502 11.2709C29.9768 11.0974 29.7417 11 29.4966 11C29.2514 11 29.0164 11.0974 28.843 11.2709C28.6697 11.4443 28.5723 11.6796 28.5723 11.9249V16.4245L25.5294 13.4109C25.4467 13.3194 25.3457 13.2464 25.233 13.1964C25.1203 13.1464 24.9984 13.1205 24.8751 13.1205C24.7519 13.1205 24.63 13.1464 24.5173 13.1964C24.4046 13.2464 24.3036 13.3194 24.2209 13.4109C24.1342 13.4943 24.0652 13.5943 24.0181 13.705C23.971 13.8157 23.9467 13.9348 23.9467 14.0552C23.9467 14.1755 23.971 14.2946 24.0181 14.4053C24.0652 14.516 24.1342 14.616 24.2209 14.6994L28.5723 19.0432V23.5324L23.8574 18.8145C23.7054 18.6615 23.5043 18.5671 23.2896 18.5481C23.0748 18.5291 22.8603 18.5867 22.6838 18.7106C22.4929 18.7987 22.3386 18.9507 22.2476 19.1404C22.1566 19.3301 22.1346 19.5456 22.1853 19.7498L23.9093 26.1926L20.0356 23.9792L18.457 18.0352C18.4259 17.9168 18.3713 17.806 18.2966 17.7091C18.2219 17.6123 18.1285 17.5314 18.022 17.4713C17.9154 17.4113 17.7979 17.3732 17.6764 17.3594C17.5549 17.3455 17.4319 17.3563 17.3146 17.3909C17.1969 17.4207 17.0865 17.4742 16.9902 17.5481C16.8938 17.622 16.8136 17.7148 16.7543 17.8208C16.695 17.9268 16.6579 18.0438 16.6454 18.1647C16.6328 18.2855 16.6449 18.4076 16.6811 18.5236L17.7196 22.6803L13.8875 20.4149C13.6726 20.295 13.419 20.2654 13.1824 20.3326C12.9457 20.3999 12.7455 20.5584 12.6256 20.7734C12.5058 20.9884 12.4763 21.2421 12.5435 21.4789C12.6107 21.7157 12.7691 21.9161 12.9839 22.036L16.92 24.2806L12.7659 25.3821C12.53 25.448 12.3289 25.6028 12.2049 25.8141C12.0809 26.0254 12.0437 26.2766 12.1012 26.5148C12.1692 26.7494 12.3245 26.949 12.535 27.0726C12.7455 27.1963 12.9953 27.2347 13.2332 27.1799L19.1425 25.6107L23.0058 27.8345L16.5773 29.5596C16.3729 29.631 16.196 29.7646 16.0713 29.9416C15.9465 30.1186 15.8801 30.3302 15.8814 30.5468C15.871 30.7629 15.9342 30.9761 16.0606 31.1517C16.187 31.3272 16.3691 31.4546 16.5773 31.5132L23.0058 33.2486L19.1632 35.4828L13.1605 33.8409Z" fill="#D41D12"/>
</svg>
