<svg width="319" height="62" viewBox="0 0 319 62" fill="none" xmlns="http://www.w3.org/2000/svg">
<rect width="319" height="62" fill="#D9DCDE"/>
<path d="M139.927 33.4043H134.78V38.5508H131.394V33.4043H126.247V30.0176H131.394V24.8711H134.78V30.0176H139.927V33.4043ZM148.394 27.9092C149.19 27.721 149.982 27.627 150.768 27.627C153.225 27.627 155.178 28.3353 156.628 29.752C158.089 31.1686 158.819 33.0446 158.819 35.3799C158.819 36.863 158.493 38.2354 157.84 39.4971C157.187 40.7477 156.229 41.7217 154.968 42.4189C153.717 43.1051 152.201 43.4482 150.419 43.4482C147.497 43.4482 144.824 42.3359 142.4 40.1113L144.924 37.2891C145.765 38.097 146.634 38.7002 147.53 39.0986C148.427 39.4971 149.345 39.6963 150.286 39.6963C151.592 39.6963 152.605 39.3255 153.324 38.584C154.044 37.8424 154.403 36.8076 154.403 35.4795C154.403 34.1624 154.021 33.1165 153.258 32.3418C152.505 31.556 151.448 31.1631 150.087 31.1631C148.648 31.1631 147.231 31.6279 145.837 32.5576H144.442L144.99 20.4551H158.388L156.279 24.0576H148.593L148.394 27.9092ZM166.572 20.0234C168.133 20.0234 169.466 20.5824 170.573 21.7002C171.691 22.807 172.25 24.1406 172.25 25.7012C172.25 27.2507 171.691 28.5843 170.573 29.7021C169.466 30.82 168.133 31.3789 166.572 31.3789C165.012 31.3789 163.673 30.82 162.555 29.7021C161.448 28.5843 160.895 27.2507 160.895 25.7012C160.895 24.1406 161.448 22.807 162.555 21.7002C163.673 20.5824 165.012 20.0234 166.572 20.0234ZM166.572 28.374C167.314 28.374 167.945 28.1139 168.465 27.5938C168.996 27.0736 169.262 26.4427 169.262 25.7012C169.262 24.9486 168.996 24.3122 168.465 23.792C167.945 23.2718 167.314 23.0117 166.572 23.0117C165.831 23.0117 165.194 23.2718 164.663 23.792C164.143 24.3122 163.883 24.9486 163.883 25.7012C163.883 26.4427 164.143 27.0736 164.663 27.5938C165.194 28.1139 165.831 28.374 166.572 28.374ZM193.633 21.916L191.491 25.7344C189.875 24.6387 188.099 24.0908 186.162 24.0908C183.86 24.0908 182.034 24.7881 180.684 26.1826C179.344 27.5771 178.675 29.4199 178.675 31.7109C178.675 34.002 179.355 35.8503 180.717 37.2559C182.089 38.6615 183.904 39.3643 186.162 39.3643C187.922 39.3643 189.665 38.8441 191.392 37.8037L193.566 41.5391C191.441 42.8118 188.962 43.4482 186.129 43.4482C182.62 43.4482 179.726 42.3415 177.446 40.1279C175.166 37.9033 174.026 35.0977 174.026 31.7109C174.026 28.291 175.172 25.4909 177.463 23.3105C179.754 21.1191 182.643 20.0234 186.129 20.0234C188.94 20.0234 191.441 20.6543 193.633 21.916Z" fill="#D41D12"/>
<path d="M19.2695 42.3748C19.7331 42.8341 20.3586 43.0914 21.0102 43.0909C21.332 43.0935 21.651 43.0318 21.9488 42.9095C22.2466 42.7872 22.5171 42.6067 22.7447 42.3784C22.9722 42.1502 23.1522 41.8788 23.2742 41.5801C23.3961 41.2814 23.4575 40.9613 23.4549 40.6386C23.4591 40.0129 23.2247 39.4093 22.7997 38.9514L22.7509 38.8827C22.512 38.6543 22.2336 38.4715 21.9294 38.3432V26.0719C21.9298 25.8216 21.8349 25.5806 21.664 25.3983C21.4932 25.2159 21.2592 25.106 21.0102 25.0909C20.7629 25.1083 20.5314 25.2193 20.3626 25.4014C20.1937 25.5835 20.1001 25.8232 20.1007 26.0719V38.3824C19.7886 38.5009 19.5052 38.6849 19.2695 38.9219C18.811 39.3913 18.5516 40.0207 18.5459 40.6778C18.555 41.2969 18.7918 41.8907 19.2109 42.3454L19.2695 42.3748Z" fill="#D41D12"/>
<path d="M15.5467 37.6383C16.0355 36.7384 16.7396 35.9746 17.5957 35.4158C17.7956 35.2844 17.9599 35.1052 18.0738 34.8943C18.1876 34.6835 18.2475 34.4475 18.2481 34.2077V17.6078C18.2481 16.874 18.5385 16.1703 19.0555 15.6514C19.5724 15.1326 20.2735 14.8411 21.0046 14.8411C21.7357 14.8411 22.4368 15.1326 22.9537 15.6514C23.4707 16.1703 23.7611 16.874 23.7611 17.6078V34.2077C23.7601 34.4569 23.824 34.702 23.9465 34.9188C24.069 35.1356 24.2458 35.3164 24.4594 35.4434C25.2875 36.0067 25.9708 36.7589 26.4533 37.6383C27.2169 38.9535 27.4699 40.5054 27.1638 41.9963C26.8577 43.4872 26.0141 44.8122 24.7947 45.7173C23.5752 46.6224 22.0658 47.0438 20.5559 46.9008C19.0459 46.7578 17.6418 46.0604 16.6125 44.9423C16.0429 44.3715 15.5919 43.6927 15.2859 42.9455C14.9799 42.1982 14.8249 41.3973 14.83 40.5894C14.8262 39.5648 15.0723 38.5548 15.5467 37.6475M20.9678 49.6364C23.3603 49.6267 25.6521 48.6684 27.3438 46.9704C29.0356 45.2724 29.9903 42.9723 30 40.571C29.9958 39.2029 29.6847 37.8533 29.0898 36.6224C28.4949 35.3915 27.6315 34.3109 26.5636 33.4607V17.617C26.5606 16.1422 25.9797 14.7277 24.9464 13.6791V13.633C23.901 12.5872 22.4852 12 21.0092 12C19.5332 12 18.1174 12.5872 17.072 13.633V13.633C16.0292 14.6956 15.4421 16.1255 15.4364 17.617V33.4699C14.4731 34.2169 13.6778 35.1597 13.1026 36.2365C12.379 37.5558 11.9997 39.0374 12 40.5433C12.0049 42.9477 12.9593 45.2521 14.6541 46.9514C16.3489 48.6507 18.6458 49.6063 21.0413 49.6087" fill="#D41D12"/>
</svg>
