<svg width="63" height="57" viewBox="0 0 63 57" fill="none" xmlns="http://www.w3.org/2000/svg">
<path fill-rule="evenodd" clip-rule="evenodd" d="M38.5745 0.078502C37.5296 0.35061 36.8441 0.884527 36.4021 1.77063L36.1122 2.35163V12.8975C36.1122 21.5162 36.143 23.5303 36.281 23.9193C36.4958 24.5253 37.1837 25.2856 37.8274 25.6289L38.3283 25.8959L49.3383 25.9292C61.7749 25.9667 61.0883 26.0153 62.0796 25.0279C63.069 24.0424 63.0224 24.6732 62.9846 12.7658C62.9511 2.22913 62.9511 2.229 62.685 1.7385C62.3406 1.10403 61.7238 0.520203 61.1044 0.242577C60.6432 0.0358281 59.923 0.0204998 49.7779 0.00198321C43.8192 -0.00880792 38.7776 0.0255273 38.5745 0.078502ZM44.2705 5.86231L44.3031 9.25036L44.6258 9.57176C45.1153 10.0593 45.7329 10.0102 46.7969 9.39923L47.6571 8.90516L48.4183 9.39923C49.4318 10.057 49.8593 10.0575 50.9003 9.40266C51.3293 9.13288 51.703 8.91215 51.7311 8.91215C51.7591 8.91215 52.1611 9.13288 52.6247 9.40266C53.6348 9.99065 54.2053 10.0435 54.7264 9.59739L55.0718 9.30162L55.1334 5.88794L55.1949 2.47426L57.5824 2.4409C59.5682 2.41319 60.0186 2.43943 60.2601 2.59701L60.5504 2.78647V12.9213C60.5504 22.1799 60.5328 23.0756 60.3467 23.2804C60.1523 23.4944 59.6549 23.5047 49.5196 23.5047H38.8962L38.7046 23.2321C38.535 22.991 38.5129 21.8217 38.5129 13.0622C38.5129 7.15786 38.5598 3.0419 38.629 2.86041C38.6929 2.69315 38.8452 2.52981 38.9676 2.49756C39.09 2.46531 40.3258 2.44691 41.7139 2.4566L44.2378 2.47426L44.2705 5.86231ZM52.6711 4.50078V6.5885L52.2868 6.39058C51.7847 6.13196 51.3098 6.23043 50.4607 6.76925C50.0915 7.00359 49.7306 7.19538 49.6588 7.19538C49.5871 7.19538 49.2384 7.0009 48.8841 6.76324C48.0783 6.22271 47.6506 6.13061 47.1479 6.38948L46.7616 6.5885V4.50078V2.41294H49.7163H52.6711V4.50078ZM8.81749 11.865C5.95619 12.2829 3.29174 13.9834 1.65888 16.4337C0.699817 17.873 0.134968 19.5917 0.0202258 21.4201C-0.288053 26.3337 2.9549 30.7174 7.88748 32.0546C8.59194 32.2455 10.2617 32.2691 27.4326 32.3293L46.2076 32.3951L46.9115 32.7238C47.7426 33.1118 48.7208 33.9857 49.1606 34.7331C49.3333 35.0268 49.5648 35.6641 49.6749 36.1496C49.8431 36.892 49.8515 37.1582 49.728 37.8258C49.3716 39.7529 48.0267 41.2376 46.2113 41.7086C45.6074 41.8654 44.5934 41.8987 40.4373 41.8987H35.396L36.1474 41.1193C36.9766 40.2593 37.1403 39.8717 36.9094 39.3163C36.7006 38.814 36.3389 38.5878 35.7448 38.5878C35.266 38.5878 35.1726 38.6626 33.2196 40.6105C30.5163 43.3068 30.5148 42.9546 33.2419 45.6571C35.1754 47.5731 35.287 47.6622 35.7537 47.6622C36.3392 47.6622 36.7014 47.4338 36.9094 46.9336C37.1403 46.3783 36.9766 45.9906 36.1474 45.1306L35.396 44.3512H40.5667C46.3077 44.3512 46.7514 44.3027 48.348 43.5C49.9346 42.7022 51.4093 40.9214 51.9587 39.1396C52.3015 38.0284 52.323 36.2732 52.007 35.2156C51.3057 32.8684 49.5125 30.9788 47.2629 30.2167L46.4538 29.9426L27.6789 29.8813L8.90392 29.82L7.89253 29.4788C5.47518 28.6632 3.5312 26.6972 2.77343 24.3018C2.36211 23.0012 2.39166 20.8395 2.8377 19.6009C3.71452 17.1663 5.51027 15.3922 7.919 14.5809L8.90392 14.2492L17.8096 14.1864L26.7155 14.1238L27.0124 13.7797C27.3309 13.4108 27.4081 12.7583 27.1827 12.339C26.8531 11.7256 26.946 11.7315 17.9282 11.7475C13.3034 11.7557 9.20358 11.8086 8.81749 11.865ZM31.1732 11.9218C30.4329 12.2951 30.2825 13.2411 30.8704 13.8267C31.4724 14.4263 32.4236 14.2585 32.7907 13.488C33.2913 12.4373 32.2159 11.3961 31.1732 11.9218ZM42.6373 18.0063C41.8774 18.4225 41.7242 19.3646 42.32 19.958L42.6799 20.3164H45.4689H48.2579L48.6178 19.958C49.002 19.5753 49.1019 18.9375 48.8508 18.4703C48.5637 17.9359 48.1555 17.8636 45.4443 17.8676C43.8204 17.87 42.7934 17.9207 42.6373 18.0063ZM18.2606 35.4526C16.4497 35.8086 15.0745 36.5294 13.8188 37.7807C12.8242 38.7718 12.1731 39.8087 11.7022 41.1512C11.4108 41.9815 11.3753 42.2624 11.3753 43.7381C11.3753 45.2284 11.4092 45.4901 11.7142 46.3611C11.9006 46.8933 12.2026 47.5831 12.3853 47.8939C12.6509 48.3459 18.5999 56.4152 18.9285 56.7693C19.1046 56.959 19.7483 57.0614 20.1292 56.9604C20.4608 56.8725 21.0061 56.206 23.6991 52.5966C25.4473 50.2536 27.0589 47.9969 27.2803 47.5817C27.8627 46.4902 28.1717 45.1581 28.1695 43.7491C28.1658 41.3595 27.4134 39.5483 25.7132 37.8365C24.8152 36.9322 24.4927 36.6981 23.493 36.2249C22.8497 35.9204 22.0667 35.6109 21.7529 35.5372C20.781 35.3088 19.1883 35.2702 18.2606 35.4526ZM21.0091 37.9159C22.1781 38.1904 23.0948 38.6891 23.9346 39.5075C25.8021 41.3274 26.2584 44.156 25.0618 46.4972C24.9239 46.767 23.6735 48.5162 22.283 50.3846L19.7548 53.7813L17.306 50.5072C14.1999 46.354 13.7652 45.5232 13.7684 43.7464C13.7735 40.9621 15.7589 38.5034 18.4777 37.9151C19.4935 37.6953 20.0704 37.6954 21.0091 37.9159ZM18.5539 40.106C16.4816 40.8436 15.4441 42.9754 16.1497 45.0467C16.7869 46.9174 19.0716 48.0037 21.0163 47.3604C21.8633 47.0802 22.8797 46.1476 23.2575 45.304C23.6616 44.4014 23.6616 43.0748 23.2575 42.1722C22.8945 41.3616 21.9054 40.4417 21.084 40.1507C20.3766 39.9 19.1914 39.879 18.5539 40.106ZM20.6645 42.7414C21.297 43.3713 21.297 44.1049 20.6645 44.7348C19.9842 45.4124 18.7532 45.0966 18.4445 44.1652C18.0113 42.8575 19.6961 41.7768 20.6645 42.7414Z" fill="#D41D12"/>
</svg>
