<svg width="56" height="56" viewBox="0 0 56 56" fill="none" xmlns="http://www.w3.org/2000/svg">
<path fill-rule="evenodd" clip-rule="evenodd" d="M4.09973 0.191055C2.19129 0.703882 0.694396 2.22115 0.190951 4.15285C-0.0636504 5.12965 -0.0636504 50.861 0.190951 51.8378C0.700945 53.7944 2.20089 55.2982 4.14828 55.8052C5.14637 56.0649 25.6089 56.0649 26.607 55.8052C28.5544 55.2982 30.0543 53.7944 30.5643 51.8378C30.7063 51.2928 30.7327 49.8689 30.7327 42.7528V34.314H35.875H41.0174L41.2945 34.037L41.5717 33.7601V28.4119V23.0637L42.1644 23.2311C43.0268 23.4746 45.4974 23.4778 46.3701 23.2364C48.7856 22.5686 50.5664 21.3012 51.8585 19.3305C52.853 17.8135 53.2524 16.4169 53.2524 14.4553C53.2524 12.4937 52.853 11.0972 51.8585 9.58013C48.6697 4.71646 41.9361 4.02671 37.8649 8.1467C36.9253 9.09743 36.139 10.3891 35.7404 11.6363L35.4183 12.6446L33.0755 12.6473L30.7327 12.65V8.72452C30.7327 5.56372 30.6991 4.66986 30.5599 4.13582C30.0526 2.18967 28.5478 0.69068 26.5899 0.181012C25.639 -0.0665436 5.02375 -0.0572912 4.09973 0.191055ZM26.8496 2.1785C27.7062 2.63006 28.0569 2.97014 28.4788 3.75862C28.8397 4.43268 28.8618 4.54134 28.9064 5.85178L28.9535 7.23399H15.3776H1.80177L1.85235 5.85178C1.89492 4.69129 1.9464 4.37909 2.17379 3.90541C2.63727 2.93967 3.57326 2.17286 4.59516 1.92158C4.78146 1.87577 9.73518 1.84643 15.6034 1.85636L26.273 1.87441L26.8496 2.1785ZM12.6679 4.52599V5.42866H15.3776H18.0874V4.52599V3.62333H15.3776H12.6679V4.52599ZM45.8056 7.40223C48.245 7.90964 50.4233 9.91468 51.2001 12.3679C51.5549 13.488 51.5549 15.4226 51.2001 16.5427C50.4901 18.7854 48.6142 20.66 46.3701 21.3696C45.2493 21.7241 43.3135 21.7241 42.1926 21.3696C39.1791 20.4166 37.0594 17.5614 37.0594 14.4553C37.0594 11.7928 38.6354 9.23396 41.0071 8.04594C42.5578 7.2692 44.1431 7.0565 45.8056 7.40223ZM28.9263 10.8447V12.65H23.784H18.6416L18.3645 12.927L18.0874 13.2039V23.482V33.7601L18.3645 34.037L18.6416 34.314H23.784H28.9263V38.8273V43.3406H15.3776H1.82898V26.19V9.03932H15.3776H28.9263V10.8447ZM44.8193 13.5222L42.4789 15.8611L41.9367 15.3275C41.6385 15.0339 41.3436 14.7938 41.2813 14.7938C41.1327 14.7938 40.1039 15.8392 40.1039 15.9902C40.1039 16.0544 40.5546 16.5478 41.1055 17.0865C42.5825 18.5309 42.2676 18.656 45.6593 15.2764C47.1991 13.7421 48.4589 12.4327 48.4589 12.3667C48.4589 12.2176 47.419 11.1832 47.2692 11.1832C47.209 11.1832 46.1066 12.2357 44.8193 13.5222ZM7.71191 14.6339C6.79512 14.8802 6.02816 15.3393 5.27406 16.0929C3.86196 17.5042 3.37149 19.228 3.80302 21.2636C4.04577 22.4085 4.41779 23.0546 6.56355 26.0569C7.94766 27.9936 8.59314 28.8066 8.78474 28.8546C9.3968 29.0082 9.54301 28.8601 11.5463 26.0569C13.6921 23.0546 14.0641 22.4085 14.3068 21.2636C14.6058 19.8538 14.4369 18.4882 13.8221 17.3438C13.428 16.6099 12.3191 15.5014 11.5854 15.1078C10.4119 14.4783 8.95433 14.2999 7.71191 14.6339ZM26.2165 18.6916V22.9281L26.4937 23.205C26.6721 23.3834 26.899 23.482 27.1311 23.482C27.436 23.482 27.6705 23.3056 28.6604 22.3322L29.8295 21.1824L30.9986 22.3322C31.9885 23.3056 32.223 23.482 32.5279 23.482C32.76 23.482 32.9869 23.3834 33.1653 23.205L33.4425 22.9281V18.6916V14.4553H34.3457H35.249V14.8403C35.249 15.3904 35.5328 16.7667 35.8094 17.5571C36.341 19.077 37.7577 20.8966 39.1615 21.8628L39.7652 22.2783V25.5881V28.898H29.8295H19.8938V21.6766V14.4553H23.0552H26.2165V18.6916ZM31.636 17.4069V20.3584L30.9119 19.6636C30.3353 19.1103 30.1147 18.9686 29.8295 18.9686C29.5443 18.9686 29.3237 19.1103 28.7471 19.6636L28.023 20.3584V17.4069V14.4553H29.8295H31.636V17.4069ZM10.4365 16.5744C11.1686 16.898 11.9313 17.641 12.2987 18.3885C12.7264 19.259 12.7364 20.6135 12.3225 21.6005C12.0816 22.1751 9.20452 26.4075 9.05492 26.4075C8.90487 26.4075 6.03019 22.1775 5.80427 21.6244C5.66201 21.276 5.51579 20.6727 5.47944 20.2836C5.22664 17.5784 8.00502 15.4995 10.4365 16.5744ZM8.15168 31.606V32.5086H9.05492H9.95817V31.606V30.7033H9.05492H8.15168V31.606ZM39.7652 31.606V32.5086H29.8295H19.8938V31.606V30.7033H29.8295H39.7652V31.606ZM8.15168 35.2166V36.1193H9.05492H9.95817V35.2166V34.314H9.05492H8.15168V35.2166ZM8.15168 38.8273V39.73H9.05492H9.95817V38.8273V37.9246H9.05492H8.15168V38.8273ZM11.7647 38.8273V39.73H12.6679H13.5711V38.8273V37.9246H12.6679H11.7647V38.8273ZM15.3776 38.8273V39.73H16.2809H17.1841V38.8273V37.9246H16.2809H15.3776V38.8273ZM18.9906 38.8273V39.73H19.8938H20.7971V38.8273V37.9246H19.8938H18.9906V38.8273ZM22.6036 38.8273V39.73H23.5068H24.41V38.8273V37.9246H23.5068H22.6036V38.8273ZM26.2165 38.8273V39.73H27.1198H28.023V38.8273V37.9246H27.1198H26.2165V38.8273ZM31.636 38.8273V39.73H32.5392H33.4425V38.8273V37.9246H32.5392H31.636V38.8273ZM35.249 38.8273V39.73H36.1522H37.0554V38.8273V37.9246H36.1522H35.249V38.8273ZM49.2611 39.9086C48.3443 40.1549 47.5773 40.6139 46.8232 41.3675C45.4111 42.7788 44.9207 44.5027 45.3522 46.5382C45.5949 47.6831 45.967 48.3292 48.1127 51.3316C49.4968 53.2683 50.1423 54.0812 50.3339 54.1293C50.946 54.2828 51.0922 54.1347 53.0955 51.3316C55.2412 48.3292 55.6132 47.6831 55.856 46.5382C56.155 45.1285 55.9861 43.7628 55.3713 42.6185C54.9771 41.8845 53.8683 40.776 53.1345 40.3825C51.9611 39.753 50.5035 39.5746 49.2611 39.9086ZM35.249 42.438V43.3406H36.1522H37.0554V42.438V41.5353H36.1522H35.249V42.438ZM51.9857 41.8491C52.7178 42.1727 53.4805 42.9157 53.8479 43.6631C54.2755 44.5336 54.2856 45.8882 53.8717 46.8751C53.6307 47.4498 50.7537 51.6822 50.6041 51.6822C50.454 51.6822 47.5794 47.4521 47.3534 46.899C47.2112 46.5506 47.065 45.9473 47.0286 45.5582C46.7758 42.8531 49.5542 40.7741 51.9857 41.8491ZM28.9059 48.3335L28.8698 51.521L28.484 52.232C28.0555 53.0217 27.7039 53.3618 26.8496 53.8121L26.273 54.1162H15.3776H4.48226L3.90565 53.8121C3.0513 53.3618 2.69971 53.0217 2.27123 52.232L1.88543 51.521L1.8493 48.3335L1.81329 45.146H15.3776H28.942L28.9059 48.3335ZM35.249 46.0486V46.9513H36.1522H37.0554V46.0486V45.146H36.1522H35.249V46.0486ZM14.4744 47.0988C14.257 47.1672 13.8235 47.4795 13.5108 47.7925C12.7129 48.5917 12.4926 49.4349 12.8052 50.4924C12.9884 51.1122 13.9237 52.0469 14.5439 52.2301C15.6025 52.5426 16.4465 52.3223 17.2444 51.5249C18.3477 50.4223 18.3807 49.0196 17.3308 47.8526C16.6 47.0404 15.5444 46.7617 14.4744 47.0988ZM16.0037 49.0336C16.5638 49.5933 16.1669 50.5619 15.3776 50.5619C14.9135 50.5619 14.4744 50.1231 14.4744 49.6593C14.4744 49.1954 14.9135 48.7566 15.3776 48.7566C15.5976 48.7566 15.829 48.859 16.0037 49.0336ZM35.249 49.6593V50.5619H36.1522H37.0554V49.6593V48.7566H36.1522H35.249V49.6593ZM35.249 53.2699V54.1726H36.1522H37.0554V53.2699V52.3673H36.1522H35.249V53.2699ZM38.8619 53.2699V54.1726H39.7652H40.6684V53.2699V52.3673H39.7652H38.8619V53.2699ZM42.4749 53.2699V54.1726H43.3781H44.2814V53.2699V52.3673H43.3781H42.4749V53.2699ZM46.0879 53.2699V54.1726H46.9911H47.8944V53.2699V52.3673H46.9911H46.0879V53.2699Z" fill="#D41D12"/>
</svg>
