<svg width="63" height="63" viewBox="0 0 63 63" fill="none" xmlns="http://www.w3.org/2000/svg">
<path fill-rule="evenodd" clip-rule="evenodd" d="M30.6824 0.402377C26.0991 3.6685 21.4783 5.97666 16.3564 7.55844C13.7242 8.3712 11.7006 8.81558 8.67673 9.24476C7.72403 9.37995 7.02016 9.5411 6.91305 9.64873C6.62458 9.93815 6.53101 10.6457 6.44347 13.1987C6.35803 15.6901 6.54419 20.3705 6.75029 20.9148C6.90185 21.3148 7.29915 21.5133 7.74952 21.4141C8.4769 21.2537 8.49894 21.1135 8.34701 17.6328C8.26329 15.7153 8.25 13.8479 8.31266 12.8281L8.41522 11.1599L9.46173 11.0083C13.3186 10.4496 17.5814 9.2869 21.2196 7.80114C24.3054 6.54091 28.5044 4.26859 30.6689 2.68768L31.5 2.08067L32.331 2.68768C34.5035 4.2744 38.7095 6.54857 41.79 7.80213C45.48 9.30346 49.6774 10.449 53.5383 11.0083L54.5848 11.1599L54.6859 12.8899C54.8663 15.9797 54.5068 21.8135 53.8975 25.6799C51.7247 39.4685 45.8765 49.5047 36.6067 55.3526C35.322 56.163 31.8136 57.9334 31.4921 57.9334C31.3827 57.9334 30.4116 57.4927 29.3343 56.9541C22.77 53.6725 17.9591 48.8975 14.2595 41.992C11.7872 37.3774 10.0581 31.916 9.09004 25.6646C8.82496 23.9528 8.66478 23.532 8.22476 23.3919C7.86131 23.2761 7.30346 23.5388 7.13774 23.9038C6.84238 24.5543 7.97101 30.3966 9.15172 34.3298C9.56343 35.7012 10.5943 38.5353 11.0622 39.582C11.2654 40.0367 11.4316 40.4787 11.4316 40.5645C11.4316 40.6502 10.9192 41.0132 10.2928 41.3709C7.95537 42.706 5.64505 44.6358 5.64505 45.2529C5.64505 45.4284 5.88045 46.0493 6.1683 46.6326C6.60956 47.5269 6.66263 47.7101 6.50688 47.8017C6.40531 47.8615 4.93712 48.8448 3.24423 49.9869C-0.0441488 52.2055 -0.213807 52.3717 0.118984 53.0489C0.249366 53.3145 0.917655 53.7428 2.96721 54.8745L5.64505 56.3531V59.3733V62.3934L5.94731 62.6966C6.11352 62.8634 6.36849 63 6.51402 63C6.82293 63 17.1759 56.9176 17.4952 56.5484C17.8285 56.1633 17.7626 55.8447 17.0374 54.3352L16.364 52.9338L17.1245 52.5873C17.5428 52.3967 18.1447 52.1481 18.4621 52.0351L19.039 51.8293L20.0062 52.7395C22.1474 54.7541 24.9189 56.7523 27.4371 58.0969C28.9619 58.9111 31.2011 59.9106 31.5 59.9106C31.7989 59.9106 34.0381 58.9111 35.5629 58.0969C38.0811 56.7523 40.8526 54.7541 42.9938 52.7395L43.961 51.8293L44.5379 52.0351C44.8553 52.1481 45.4572 52.3967 45.8755 52.5873L46.636 52.9338L45.9626 54.3352C45.2373 55.8447 45.1715 56.1633 45.5048 56.5484C45.8241 56.9176 56.1771 63 56.486 63C56.6315 63 56.8865 62.8634 57.0527 62.6966L57.3549 62.3934V59.3733V56.3531L60.0328 54.8745C62.0823 53.7428 62.7506 53.3145 62.881 53.0489C63.2138 52.3717 63.0441 52.2055 59.7558 49.9869C58.0629 48.8448 56.5947 47.8615 56.4931 47.8017C56.3374 47.7101 56.3904 47.5269 56.8317 46.6326C57.1194 46.0493 57.3549 45.4284 57.3549 45.2529C57.3549 44.6346 55.0444 42.7059 52.6974 41.3654C51.7359 40.8162 51.5583 40.6676 51.608 40.4546C51.6408 40.3147 51.9426 39.5328 52.279 38.7172C55.0244 32.0594 56.5154 23.8639 56.539 15.2995C56.55 11.3383 56.4639 10.1296 56.1427 9.73128C55.9727 9.52059 55.6416 9.43186 54.3363 9.24662C49.8893 8.61551 45.5905 7.43214 41.7804 5.79043C38.824 4.51648 35.1676 2.47142 33.0337 0.898413C31.5491 -0.195856 31.5282 -0.200305 30.6824 0.402377ZM30.6197 7.35095C25.2227 11.0757 20.4992 12.9768 14.2579 13.9361C13.3511 14.0755 12.6792 14.2415 12.5673 14.3538C12.027 14.896 12.0504 20.9018 12.6101 25.371C13.4262 31.8859 15.5774 38.1838 18.4727 42.5328C19.4364 43.9806 19.9181 44.2672 20.5236 43.753C21.0438 43.3111 20.9833 43.0116 20.0932 41.6208C16.6297 36.2094 14.6746 29.7174 14.1449 21.8701C14.0084 19.846 13.976 16.5161 14.0888 16.0945C14.1478 15.8741 14.3435 15.8091 15.5104 15.6224C20.5217 14.8204 25.9763 12.6876 30.238 9.86351L31.5 9.02727L32.762 9.864C37.0238 12.6895 42.4703 14.8192 47.4885 15.6223L48.8408 15.8387L48.9219 16.2729C48.9665 16.5117 48.9858 17.8977 48.9649 19.3529C48.9267 21.9988 48.9267 21.9988 49.2147 22.2329C49.5916 22.5392 50.1449 22.5312 50.4381 22.2152C50.732 21.8985 50.8303 20.9332 50.821 18.4507C50.8122 16.0619 50.6732 14.5951 50.4327 14.3538C50.3208 14.2415 49.6489 14.0755 48.742 13.9361C42.5692 12.9873 37.602 10.9962 32.4375 7.40076C32.039 7.12333 31.6152 6.89632 31.4958 6.89632C31.3763 6.89632 30.982 7.10084 30.6197 7.35095ZM38.4562 21.4201C38.1853 21.518 37.9379 21.5991 37.9061 21.6001C37.8745 21.601 35.8676 23.5874 33.4464 26.0141L29.0443 30.4263L27.2865 28.6911C25.2452 26.6762 24.8865 26.4739 23.5274 26.5715C22.5941 26.6385 22.1474 26.8308 21.5483 27.4237C20.6508 28.3117 20.3411 29.5716 20.7281 30.7605C20.9253 31.3665 21.2202 31.7046 24.0136 34.5284C27.4559 38.008 27.7353 38.2126 29.0376 38.208C30.4196 38.2032 30.4836 38.1505 36.6342 31.9605C42.718 25.8376 42.6963 25.8643 42.7011 24.4711C42.7058 23.1338 42.1351 22.2008 40.9487 21.6056C40.1037 21.1817 39.2841 21.1208 38.4562 21.4201ZM40.4384 23.505C40.7988 23.8667 40.857 24.0081 40.857 24.5216V25.1182L35.2859 30.6985C29.5558 36.438 29.5045 36.4819 28.699 36.3351C28.1779 36.24 22.6735 30.7172 22.4911 30.1064C22.2212 29.2017 22.8546 28.3986 23.8381 28.3986C24.3898 28.3986 24.4 28.4066 26.5067 30.4994C28.4122 32.3924 28.6629 32.6002 29.0412 32.6002C29.429 32.6002 29.8136 32.2476 34.0817 27.981C36.6231 25.4406 38.8133 23.3013 38.9487 23.2272C39.4446 22.9556 39.993 23.0579 40.4384 23.505ZM48.9613 24.5724C48.6887 24.7321 48.5485 25.2175 48.3023 26.8539C46.813 36.7488 42.4192 44.3998 35.6868 48.8216C34.3946 49.6702 31.8423 51.0131 31.5214 51.0131C31.253 51.0131 29.4059 50.1111 28.1517 49.3678C26.6383 48.4706 25.2586 47.4255 23.8851 46.1359C22.9366 45.2453 22.6979 45.0814 22.3486 45.0814C21.8383 45.0814 21.4864 45.4378 21.4864 45.9549C21.4864 46.2508 21.6544 46.5024 22.2763 47.1377C23.6722 48.5634 25.8484 50.2138 27.759 51.296C28.828 51.9012 31.223 52.9903 31.4853 52.9903C31.7661 52.9903 33.7244 52.1039 35.0089 51.3953C40.7848 48.2096 45.1222 42.9868 47.8503 35.9324C48.903 33.2105 50.1195 28.2462 50.2957 25.9539C50.3643 25.0606 50.3474 24.9487 50.1079 24.7084C49.8312 24.4306 49.3091 24.3688 48.9613 24.5724ZM12.5838 42.8107C13.2937 44.3047 15.7401 48.0065 17.1299 49.6896C17.3988 50.0152 17.5979 50.2978 17.5724 50.3177C17.5468 50.3377 16.7227 50.746 15.7408 51.2251C14.7589 51.7044 13.5228 52.4088 12.9939 52.7905C12.465 53.1722 11.9849 53.4846 11.9272 53.4846C11.8694 53.4846 10.8934 51.6952 9.75808 49.5082L7.69412 45.5317L8.23941 45.0441C9.03919 44.3286 11.9678 42.4001 12.3015 42.3692C12.3396 42.3656 12.4668 42.5643 12.5838 42.8107ZM51.4163 42.7572C52.4638 43.3423 54.1404 44.4886 54.7606 45.0437L55.3059 45.5317L53.2419 49.5082C52.1066 51.6952 51.1306 53.4846 51.0728 53.4846C51.0151 53.4846 50.535 53.1722 50.0061 52.7905C49.4772 52.4088 48.2411 51.7044 47.2592 51.2251C46.2773 50.746 45.4569 50.3416 45.4361 50.3262C45.4151 50.3109 45.9596 49.5703 46.6458 48.6803C47.9265 47.0196 49.4598 44.664 50.2173 43.1938C50.4525 42.7372 50.6596 42.3635 50.6776 42.3632C50.6956 42.363 51.028 42.5402 51.4163 42.7572ZM9.60012 53.1952C10.6939 55.3039 11.0202 55.8343 11.2864 55.9365C11.4678 56.0062 12.1691 56.1537 12.8447 56.2643C13.5202 56.3748 14.0818 56.4759 14.0926 56.4888C14.1034 56.5017 12.6365 57.3853 10.8328 58.4524L7.55339 60.3925L7.49183 57.8553C7.4347 55.5003 7.41254 55.3048 7.18403 55.1351C7.0486 55.0346 5.97808 54.4211 4.80501 53.7717L2.67222 52.5912L5.11281 50.9559L7.55339 49.3206L7.89861 49.9506C8.08846 50.2971 8.85414 51.7571 9.60012 53.1952ZM60.2863 52.5617C60.3072 52.5789 59.3654 53.1239 58.1933 53.7727C57.0212 54.4216 55.9514 55.0346 55.816 55.1351C55.5875 55.3048 55.5653 55.5003 55.5082 57.8553L55.4466 60.3925L52.1672 58.4524C50.3635 57.3853 48.8966 56.5017 48.9074 56.4888C48.9182 56.4759 49.4798 56.3748 50.1553 56.2643C50.8309 56.1537 51.5307 56.0068 51.7104 55.9379C51.9756 55.836 52.3571 55.1989 53.7321 52.5601L55.4269 49.308L57.8376 50.9192C59.1634 51.8053 60.2654 52.5444 60.2863 52.5617ZM14.9464 54.2376C15.0548 54.4478 15.1158 54.6473 15.0824 54.6811C15.0487 54.7147 14.726 54.6943 14.3653 54.6357L13.7093 54.5292L14.1996 54.1922C14.4692 54.007 14.7033 53.8553 14.7196 53.8553C14.7361 53.8553 14.8381 54.0274 14.9464 54.2376ZM49.1172 54.4261C49.1988 54.524 49.0475 54.5891 48.6008 54.6486C48.2534 54.6949 47.9439 54.7073 47.913 54.6763C47.8819 54.6452 47.9462 54.446 48.0555 54.2336L48.2545 53.8476L48.6282 54.0676C48.8336 54.1888 49.0537 54.3501 49.1172 54.4261Z" fill="#D41D12"/>
</svg>
