<svg width="153" height="84" viewBox="0 0 153 84" fill="none" xmlns="http://www.w3.org/2000/svg">
<path opacity="0.5" d="M14.0898 72.2048V75.0797H20.8H22.9851V72.2048H20.8H14.0898Z" fill="#25343F"/>
<path opacity="0.5" d="M129.545 72.2048V75.0797H131.73H138.44V72.2048H131.73H129.545Z" fill="#25343F"/>
<path opacity="0.5" d="M9.12069 12.9412C9.12068 12.7813 9.1448 12.6231 9.19164 12.4756C9.23848 12.3281 9.30713 12.1942 9.39362 12.0816C9.48011 11.969 9.58273 11.88 9.69557 11.8197C9.80841 11.7594 9.92925 11.729 10.0511 11.7302H142.345C142.466 11.729 142.587 11.7594 142.7 11.8197C142.813 11.88 142.916 11.969 143.002 12.0816C143.089 12.1942 143.157 12.3281 143.204 12.4756C143.251 12.6231 143.275 12.7813 143.275 12.9412V59.7807C143.276 59.9417 143.253 60.1013 143.206 60.2505C143.16 60.3996 143.091 60.5352 143.005 60.6495C142.919 60.7638 142.816 60.8545 142.702 60.9164C142.589 60.9783 142.467 61.0101 142.345 61.0101H10.0511C9.80434 61.0101 9.56769 60.8816 9.3932 60.6527C9.21872 60.4239 9.12069 60.1135 9.12069 59.7899V12.9412ZM10.0511 63.3489H142.345C143.074 63.3489 143.773 62.969 144.288 62.2929C144.804 61.6168 145.094 60.6998 145.094 59.7437V12.9412C145.094 11.985 144.804 11.068 144.288 10.3919C143.773 9.71581 143.074 9.33598 142.345 9.33598H10.0511C9.32506 9.34328 8.63055 9.72604 8.11847 10.4011C7.60638 11.0761 7.3181 11.9889 7.31627 12.9412V59.7807C7.31813 60.7361 7.60835 61.6516 8.12347 62.3272C8.63859 63.0028 9.3367 63.3834 10.0652 63.3858" fill="#25343F"/>
<path opacity="0.5" d="M20.589 48.0692C20.9231 48.5021 21.3739 48.7446 21.8436 48.744C22.0755 48.7465 22.3055 48.6884 22.5202 48.5732C22.7348 48.4579 22.9298 48.2878 23.0938 48.0727C23.2578 47.8576 23.3876 47.6018 23.4754 47.3203C23.5633 47.0388 23.6076 46.7372 23.6057 46.433C23.6087 45.8434 23.4398 45.2746 23.1335 44.8431L23.0983 44.7784C22.9261 44.5632 22.7254 44.3909 22.5062 44.2699V32.7057C22.5065 32.4698 22.4381 32.2427 22.3149 32.0709C22.1917 31.899 22.0231 31.7954 21.8436 31.7812C21.6653 31.7977 21.4985 31.9022 21.3768 32.0739C21.2551 32.2455 21.1877 32.4713 21.1881 32.7057V44.3069C20.9631 44.4186 20.7588 44.5919 20.589 44.8153C20.2585 45.2577 20.0715 45.8507 20.0674 46.47C20.074 47.0534 20.2447 47.6131 20.5467 48.0415L20.589 48.0692Z" fill="#25343F"/>
<path opacity="0.5" d="M17.6846 43.5206C18.0595 42.6185 18.5997 41.8529 19.2564 41.2928C19.4098 41.1611 19.5358 40.9815 19.6231 40.7701C19.7105 40.5588 19.7564 40.3223 19.7568 40.0818V23.4426C19.7568 22.7071 19.9796 22.0017 20.3762 21.4816C20.7728 20.9616 21.3106 20.6694 21.8714 20.6694C22.4322 20.6694 22.9701 20.9616 23.3666 21.4816C23.7632 22.0017 23.986 22.7071 23.986 23.4426V40.0818C23.9852 40.3316 24.0342 40.5774 24.1282 40.7947C24.2221 41.0119 24.3578 41.1932 24.5216 41.3205C25.1569 41.8851 25.681 42.6391 26.0512 43.5206C26.6369 44.839 26.831 46.3945 26.5962 47.8889C26.3614 49.3833 25.7143 50.7115 24.7788 51.6188C23.8434 52.526 22.6855 52.9484 21.5272 52.8051C20.3689 52.6617 19.2917 51.9626 18.5022 50.8419C18.0652 50.2698 17.7193 49.5894 17.4845 48.8404C17.2498 48.0913 17.1309 47.2885 17.1348 46.4787C17.1319 45.4517 17.3206 44.4393 17.6846 43.5299M21.8432 55.5471C23.6785 55.5374 25.4366 54.5769 26.7343 52.8749C28.0321 51.1729 28.7645 48.8672 28.7719 46.4602C28.7687 45.0889 28.53 43.7361 28.0737 42.5023C27.6173 41.2685 26.955 40.1853 26.1358 39.3331V23.4518C26.1335 21.9735 25.6879 20.5557 24.8952 19.5046V19.4584C24.0933 18.4101 23.0072 17.8215 21.8749 17.8215C20.7427 17.8215 19.6566 18.4101 18.8546 19.4584V19.4584C18.0547 20.5235 17.6044 21.9569 17.6 23.4518V39.3423C16.861 40.0911 16.2509 41.0361 15.8097 42.1155C15.2546 43.4379 14.9637 44.923 14.9639 46.4325C14.9676 48.8426 15.6997 51.1524 16.9998 52.8558C18.2999 54.5591 20.0619 55.5169 21.8996 55.5194" fill="#25343F"/>
<path opacity="0.5" d="M3.91193 69.6168H148.505V78.0751H3.91193V69.6168ZM148.505 67.2041H3.91193V5.1212H148.505V67.2041ZM148.505 8.34375e-06H3.91193C3.39854 -0.00120701 2.89 0.13036 2.41543 0.38718C1.94085 0.644 1.50955 1.02103 1.1462 1.4967C0.782852 1.97237 0.494597 2.53733 0.297918 3.15927C0.101239 3.7812 -8.36363e-07 4.4479 0 5.1212V78.0751C-8.36363e-07 78.7484 0.101239 79.4151 0.297918 80.037C0.494597 80.659 0.782852 81.2239 1.1462 81.6996C1.50955 82.1753 1.94085 82.5523 2.41543 82.8091C2.89 83.066 3.39854 83.1975 3.91193 83.1963H148.505C149.541 83.1963 150.534 82.6567 151.266 81.6963C151.999 80.7359 152.41 79.4333 152.41 78.0751V5.1212C152.41 3.76298 151.999 2.46038 151.266 1.49997C150.534 0.539561 149.541 8.34375e-06 148.505 8.34375e-06" fill="#25343F"/>
</svg>
