<svg width="153" height="84" viewBox="0 0 153 84" fill="none" xmlns="http://www.w3.org/2000/svg">
<path opacity="0.5" d="M129.537 72.2048V75.0797H131.722H138.432V72.2048H131.722H129.537Z" fill="#25343F"/>
<path opacity="0.5" d="M14.0898 72.2048V75.0797H16.2749H22.978V72.2048H16.2749H14.0898Z" fill="#25343F"/>
<path opacity="0.5" d="M9.12048 12.9411C9.11955 12.7817 9.14279 12.6237 9.18887 12.4762C9.23494 12.3288 9.3029 12.1948 9.38883 12.0821C9.47475 11.9694 9.57692 11.8802 9.68937 11.8198C9.80182 11.7594 9.92232 11.7289 10.0438 11.7301H142.344C142.589 11.7301 142.824 11.8577 142.997 12.0848C143.17 12.3119 143.268 12.6199 143.268 12.9411V59.7806C143.269 59.9409 143.246 60.0998 143.2 60.2483C143.154 60.3968 143.086 60.532 143 60.6462C142.915 60.7603 142.812 60.8512 142.7 60.9137C142.587 60.9761 142.467 61.0089 142.344 61.0101H10.0438C9.92199 61.0101 9.80134 60.9785 9.68885 60.917C9.57636 60.8556 9.47425 60.7656 9.38842 60.6521C9.30258 60.5387 9.23472 60.4041 9.18874 60.2561C9.14275 60.1081 9.11955 59.9497 9.12048 59.7899V12.9411ZM10.0438 63.3488H142.344C143.073 63.3464 143.771 62.9658 144.286 62.2902C144.801 61.6146 145.091 60.699 145.093 59.7436V12.9411C145.091 11.9857 144.801 11.0701 144.286 10.3946C143.771 9.71899 143.073 9.33838 142.344 9.33594H10.0438C9.31535 9.33838 8.61724 9.71899 8.10212 10.3946C7.587 11.0701 7.29678 11.9857 7.29492 12.9411V59.7806C7.29678 60.736 7.587 61.6516 8.10212 62.3272C8.61724 63.0027 9.31535 63.3834 10.0438 63.3858" fill="#25343F"/>
<path opacity="0.5" d="M19.6236 34.8689L23.1479 33.6302L24.7761 34.8689L23.1549 36.0983L19.6236 34.8689ZM25.3752 30.9864V33.4546L23.7893 32.2159L22.8518 27.5938L25.3752 30.9864ZM25.3752 38.7514L22.8166 42.107L23.754 37.485L25.3752 36.2647V38.7514ZM26.6087 36.2925L28.2369 37.5127L29.1673 42.1347L26.6087 38.7514V36.2925ZM26.6087 30.9772L29.1673 27.6308L28.2369 32.2528L26.6087 33.4546V30.9772ZM32.3532 34.8689L28.8289 36.0983L27.2007 34.8689L28.8289 33.6302L32.3532 34.8689ZM14.894 37.827C14.7318 37.7809 14.5622 37.8173 14.4196 37.9288C14.277 38.0404 14.172 38.2187 14.1258 38.4278C14.0849 38.6398 14.1093 38.8644 14.1937 39.053C14.2782 39.2415 14.4158 39.3789 14.5769 39.4354L17.3963 40.4246L14.7531 42.4305C14.6101 42.5372 14.5052 42.7139 14.4616 42.922C14.418 43.13 14.4392 43.3522 14.5205 43.5398C14.6018 43.7273 14.7366 43.8649 14.8952 43.9221C15.0538 43.9793 15.2233 43.9515 15.3663 43.8448L18.0165 41.8389L17.3117 45.5365C17.2882 45.6397 17.2807 45.748 17.2897 45.855C17.2987 45.9621 17.324 46.0657 17.3641 46.1596C17.4042 46.2536 17.4583 46.3361 17.5231 46.4021C17.588 46.4681 17.6623 46.5164 17.7417 46.5441C17.8217 46.5734 17.9054 46.5816 17.9879 46.5681C18.0704 46.5547 18.1501 46.5198 18.2222 46.4656C18.2944 46.4115 18.3576 46.339 18.4082 46.2525C18.4588 46.166 18.4958 46.0672 18.517 45.9617L19.5602 40.6741L22.1963 38.6867L21.0262 44.418C20.9893 44.5975 21.0016 44.7882 21.0608 44.9571C21.1201 45.126 21.2226 45.2623 21.3505 45.3424C21.4729 45.4523 21.6206 45.5031 21.7684 45.4863C21.9162 45.4694 22.0549 45.3859 22.1611 45.2499L25.3611 41.0716V45.0373L22.4078 48.9013C22.349 48.9778 22.3023 49.0687 22.2703 49.1689C22.2383 49.269 22.2217 49.3765 22.2213 49.4851C22.2207 49.7044 22.2865 49.915 22.4042 50.0707C22.522 50.2264 22.6821 50.3143 22.8493 50.3152C23.0165 50.3161 23.1772 50.2298 23.2959 50.0753L25.3611 47.3668V51.3787C25.3611 51.5969 25.4272 51.8062 25.5448 51.9605C25.6625 52.1148 25.822 52.2015 25.9884 52.2015C26.1548 52.2015 26.3143 52.1148 26.432 51.9605C26.5496 51.8062 26.6157 51.5969 26.6157 51.3787V47.4038L28.7232 50.1031C28.8419 50.2575 29.0026 50.3438 29.1698 50.3429C29.337 50.3421 29.4971 50.2541 29.6149 50.0984C29.7326 49.9428 29.7984 49.7321 29.7978 49.5128C29.7971 49.2935 29.7301 49.0835 29.6113 48.9291L26.6087 45.0651V41.0994L29.8228 45.2962C29.9331 45.4179 30.0693 45.4923 30.2128 45.5093C30.3564 45.5264 30.5006 45.4853 30.6258 45.3916C30.751 45.2979 30.8513 45.1561 30.9132 44.9853C30.975 44.8145 30.9954 44.623 30.9717 44.4365L29.7946 38.7052L32.4237 40.6741L33.4951 45.9617C33.5397 46.1713 33.645 46.3496 33.7887 46.4584C33.9323 46.5673 34.1027 46.598 34.2633 46.5441C34.3441 46.5183 34.4201 46.4716 34.4868 46.4065C34.5534 46.3415 34.6095 46.2596 34.6516 46.1656C34.6937 46.0716 34.7209 45.9675 34.7317 45.8594C34.7425 45.7513 34.7366 45.6415 34.7145 45.5365L33.9673 41.8389L36.6105 43.8448C36.7537 43.9527 36.9236 43.9822 37.0833 43.9268C37.243 43.8714 37.3796 43.7357 37.4634 43.549C37.5048 43.4558 37.5316 43.3527 37.5423 43.2457C37.5529 43.1387 37.5473 43.03 37.5256 42.9259C37.504 42.8218 37.4668 42.7244 37.4162 42.6393C37.3655 42.5543 37.3025 42.4833 37.2308 42.4305L34.5876 40.4246L37.407 39.4354C37.4858 39.4067 37.5596 39.3577 37.6239 39.2914C37.6883 39.2251 37.742 39.1427 37.7819 39.049C37.8219 38.9554 37.8473 38.8523 37.8568 38.7457C37.8662 38.639 37.8595 38.531 37.8369 38.4278C37.8164 38.3214 37.78 38.2213 37.7299 38.1334C37.6797 38.0455 37.6168 37.9715 37.5447 37.9157C37.4726 37.8598 37.3928 37.8232 37.3099 37.808C37.227 37.7928 37.1426 37.7992 37.0616 37.827L33.0369 39.2598L30.429 37.2723L34.7779 35.7286C34.9199 35.6794 35.0443 35.5664 35.1293 35.4093C35.2143 35.2522 35.2546 35.0609 35.2431 34.8689C35.2552 34.6745 35.2155 34.4806 35.1306 34.3204C35.0457 34.1602 34.9211 34.0436 34.7779 33.9907L30.429 32.4562L33.0369 30.478L37.0616 31.9016C37.2242 31.9554 37.3963 31.9236 37.5413 31.8131C37.6862 31.7025 37.7923 31.5219 37.8369 31.3099C37.8583 31.2055 37.8637 31.0967 37.8529 30.9895C37.8421 30.8824 37.8153 30.7791 37.7741 30.6855C37.7329 30.5919 37.678 30.5099 37.6126 30.4442C37.5471 30.3784 37.4725 30.3302 37.3929 30.3023L34.5735 29.3225L37.2167 27.3165C37.2884 27.2637 37.3515 27.1927 37.4021 27.1077C37.4527 27.0226 37.4899 26.9252 37.5116 26.8211C37.5332 26.717 37.5389 26.6083 37.5282 26.5014C37.5175 26.3944 37.4907 26.2912 37.4493 26.198C37.4095 26.1032 37.3559 26.0197 37.2915 25.9522C37.2271 25.8846 37.1532 25.8344 37.074 25.8043C36.9948 25.7743 36.9118 25.765 36.8299 25.777C36.7479 25.7891 36.6686 25.8222 36.5964 25.8744L33.9391 27.8896L34.7004 24.192C34.728 23.9875 34.6962 23.7768 34.6114 23.6014C34.5266 23.426 34.3948 23.2986 34.242 23.2441C34.0892 23.1897 33.9263 23.2122 33.7855 23.3072C33.6447 23.4022 33.5361 23.5628 33.481 23.7576L32.3955 29.0452L29.7805 31.0326L30.9576 25.3013C30.985 25.1189 30.966 24.9297 30.9037 24.7628C30.8413 24.5959 30.7389 24.4603 30.6122 24.3769C30.4909 24.2677 30.3444 24.2172 30.1978 24.2341C30.0512 24.2509 29.9137 24.3341 29.8087 24.4694L26.6087 28.6569V24.682L29.5549 20.818C29.6138 20.7438 29.6606 20.6548 29.6926 20.5563C29.7246 20.4578 29.741 20.3519 29.741 20.2448C29.741 20.1378 29.7246 20.0319 29.6926 19.9334C29.6606 19.8349 29.6138 19.7459 29.5549 19.6717C29.4988 19.5904 29.4303 19.5254 29.3538 19.4809C29.2773 19.4364 29.1945 19.4134 29.1109 19.4134C29.0272 19.4134 28.9445 19.4364 28.868 19.4809C28.7915 19.5254 28.723 19.5904 28.6668 19.6717L26.6087 22.334V18.3313C26.6087 18.1131 26.5426 17.9039 26.4249 17.7496C26.3073 17.5953 26.1477 17.5086 25.9813 17.5086C25.815 17.5086 25.6554 17.5953 25.5378 17.7496C25.4201 17.9039 25.354 18.1131 25.354 18.3313V22.334L23.2888 19.6532C23.2327 19.5719 23.1641 19.5069 23.0876 19.4624C23.0112 19.4179 22.9284 19.3949 22.8448 19.3949C22.7611 19.3949 22.6784 19.4179 22.6019 19.4624C22.5254 19.5069 22.4569 19.5719 22.4007 19.6532C22.3419 19.7274 22.2951 19.8164 22.2631 19.9149C22.2311 20.0134 22.2146 20.1193 22.2146 20.2263C22.2146 20.3334 22.2311 20.4393 22.2631 20.5378C22.2951 20.6363 22.3419 20.7253 22.4007 20.7995L25.354 24.6635V28.6569L22.154 24.4601C22.0509 24.324 21.9144 24.24 21.7686 24.2231C21.6229 24.2062 21.4773 24.2574 21.3575 24.3677C21.2279 24.446 21.1232 24.5812 21.0615 24.75C20.9997 24.9187 20.9848 25.1104 21.0192 25.2921L22.1893 31.0234L19.5602 29.0544L18.4888 23.7668C18.4677 23.6616 18.4306 23.5629 18.3799 23.4768C18.3292 23.3906 18.2658 23.3187 18.1935 23.2652C18.1212 23.2118 18.0415 23.1779 17.959 23.1656C17.8766 23.1533 17.7931 23.1629 17.7135 23.1937C17.6336 23.2202 17.5586 23.2678 17.4933 23.3335C17.4279 23.3993 17.3734 23.4818 17.3332 23.5761C17.2929 23.6704 17.2678 23.7745 17.2592 23.882C17.2507 23.9895 17.2589 24.0981 17.2835 24.2013L17.9883 27.8989L15.3874 25.8837C15.2416 25.777 15.0695 25.7507 14.9089 25.8105C14.7483 25.8703 14.6124 26.0114 14.531 26.2026C14.4497 26.3938 14.4297 26.6196 14.4753 26.8302C14.5209 27.0409 14.6284 27.2191 14.7742 27.3258L17.4456 29.3225L14.6262 30.3023C14.4661 30.3609 14.3296 30.4987 14.2455 30.6867C14.1613 30.8746 14.1361 31.0981 14.1751 31.3099C14.2213 31.5186 14.3266 31.6962 14.4695 31.8062C14.6124 31.9162 14.7819 31.9503 14.9434 31.9016L18.954 30.5057L21.576 32.4839L17.213 34.0184C17.0743 34.082 16.9543 34.2008 16.8696 34.3583C16.7849 34.5157 16.7399 34.704 16.7408 34.8966C16.7337 35.0889 16.7766 35.2786 16.8623 35.4347C16.9481 35.5909 17.0717 35.7042 17.213 35.7563L21.576 37.3001L18.9681 39.2875L14.894 37.827Z" fill="#25343F"/>
<path opacity="0.5" d="M3.90488 69.6168H148.498V78.0751H3.90488V69.6168ZM148.498 67.2041H3.90488V5.1212H148.498V67.2041ZM148.498 8.34375e-06H3.90488C2.86924 8.34375e-06 1.87601 0.539561 1.14371 1.49997C0.411399 2.46038 0 3.76298 0 5.1212V78.0751C0 79.4333 0.411399 80.7359 1.14371 81.6963C1.87601 82.6567 2.86924 83.1963 3.90488 83.1963H148.498C149.011 83.1975 149.52 83.066 149.995 82.8091C150.469 82.5523 150.9 82.1753 151.264 81.6996C151.627 81.2239 151.915 80.659 152.112 80.037C152.309 79.4151 152.41 78.7484 152.41 78.0751V5.1212C152.41 4.4479 152.309 3.7812 152.112 3.15927C151.915 2.53733 151.627 1.97237 151.264 1.4967C150.9 1.02103 150.469 0.644 149.995 0.38718C149.52 0.13036 149.011 -0.00120701 148.498 8.34375e-06Z" fill="#25343F"/>
</svg>
