<svg width="153" height="84" viewBox="0 0 153 84" fill="none" xmlns="http://www.w3.org/2000/svg">
<path opacity="0.5" d="M129.537 72.2048V75.0797H131.722H138.432V72.2048H131.722H129.537Z" fill="#25343F"/>
<path opacity="0.5" d="M14.0898 72.2048V75.0797H16.2749H22.9851V72.2048H16.2749H14.0898Z" fill="#25343F"/>
<path opacity="0.5" d="M3.90486 69.6168H148.505V78.0751H3.90486V69.6168ZM113.862 12.6273C114.942 13.0853 115.995 13.6477 117.012 14.3098H117.076L117.196 14.2266C124.371 9.43816 135.909 9.36421 143.275 13.9677V59.7812C143.276 59.9422 143.253 60.1018 143.206 60.251C143.16 60.4001 143.092 60.5357 143.005 60.65C142.919 60.7643 142.816 60.855 142.702 60.9169C142.589 60.9788 142.468 61.0106 142.345 61.0106H114.806C114.684 61.0106 114.564 60.979 114.451 60.9176C114.339 60.8561 114.237 60.7661 114.151 60.6527C114.065 60.5392 113.997 60.4047 113.951 60.2567C113.905 60.1087 113.882 59.9502 113.883 59.7904L113.862 12.6273ZM78.9363 10.5474C82.8752 10.7132 86.7466 11.9338 90.3126 14.1341L90.5734 14.3098C95.4016 11.0928 102.203 10.0113 108.371 11.0466V59.7812C108.372 59.9437 108.348 60.1049 108.301 60.2553C108.254 60.4056 108.184 60.5421 108.096 60.6566C108.008 60.7711 107.903 60.8614 107.788 60.9222C107.673 60.983 107.55 61.0131 107.426 61.0106H79.8879C79.7657 61.0106 79.6447 60.9791 79.5318 60.9177C79.4189 60.8564 79.3163 60.7665 79.2299 60.6532C79.1436 60.5399 79.075 60.4054 79.0283 60.2574C78.9815 60.1093 78.9575 59.9507 78.9575 59.7904L78.9363 10.5474ZM44.018 11.3517C50.566 9.86338 58.115 10.8433 63.3239 14.319L63.4155 14.3837L63.789 14.1341C66.8116 12.2388 70.0717 11.0799 73.4103 10.7138V59.7812C73.4122 60.1016 73.3179 60.4102 73.1478 60.6403C72.9776 60.8703 72.7453 61.0033 72.501 61.0106H44.9695C44.7227 61.0106 44.4861 60.8821 44.3116 60.6532C44.1371 60.4244 44.0391 60.114 44.0391 59.7904L44.018 11.3517ZM9.09965 13.9123L9.62124 14.319L9.93137 14.1156C17.2477 9.24403 29.1033 9.24403 36.4126 14.1156L36.7862 14.3652H36.8496C37.3712 14.0232 37.921 13.6997 38.4919 13.4408V59.7812C38.4938 60.1016 38.3995 60.4102 38.2294 60.6403C38.0593 60.8703 37.827 61.0033 37.5827 61.0106H10.0441C9.7986 61.0082 9.56374 60.8785 9.39078 60.65C9.21781 60.4214 9.12077 60.1124 9.12078 59.7904L9.09965 13.9123ZM3.88374 9.82641L7.27407 12.4794V59.7812C7.27407 60.7382 7.56345 61.6561 8.07877 62.3337C8.59409 63.0113 9.2933 63.3931 10.023 63.3956H37.5615C38.2912 63.3931 38.9904 63.0113 39.5057 62.3337C40.0211 61.6561 40.3104 60.7382 40.3104 59.7812V12.5164C40.9237 12.2668 41.551 12.045 42.1924 11.8416V59.7812C42.1924 60.7398 42.4827 61.6591 42.9996 62.3369C43.5164 63.0148 44.2175 63.3956 44.9484 63.3956H72.4799C72.8415 63.3956 73.1995 63.302 73.5334 63.1203C73.8674 62.9385 74.1708 62.6721 74.4261 62.3364C74.6815 62.0006 74.8838 61.6021 75.0216 61.1636C75.1593 60.7252 75.2297 60.2554 75.2288 59.7812V10.5382C75.8561 10.5382 76.4905 10.4827 77.1178 10.4827V59.7812C77.1178 60.7382 77.4072 61.6561 77.9225 62.3337C78.4378 63.0113 79.137 63.3931 79.8667 63.3956H107.405C108.135 63.3931 108.834 63.0113 109.349 62.3337C109.865 61.6561 110.154 60.7382 110.154 59.7812V11.4164C110.789 11.5643 111.423 11.7492 112.036 11.9433V59.7812C112.036 60.7382 112.325 61.6561 112.841 62.3337C113.356 63.0113 114.055 63.3931 114.785 63.3956H142.324C143.053 63.3931 143.752 63.0113 144.268 62.3337C144.783 61.6561 145.072 60.7382 145.072 59.7812V13.561L148.484 10.8895V67.2041H3.90486L3.88374 9.82641ZM148.505 0H3.90486C2.86922 0 1.87601 0.539553 1.14371 1.49996C0.411399 2.46037 0 3.76297 0 5.12119V78.0751C0 79.4333 0.411399 80.7359 1.14371 81.6963C1.87601 82.6568 2.86922 83.1963 3.90486 83.1963H148.505C149.541 83.1963 150.534 82.6568 151.266 81.6963C151.999 80.7359 152.41 79.4333 152.41 78.0751V5.12119C152.41 3.76297 151.999 2.46037 151.266 1.49996C150.534 0.539553 149.541 0 148.505 0" fill="#25343F"/>
</svg>
