<svg width="153" height="84" viewBox="0 0 153 84" fill="none" xmlns="http://www.w3.org/2000/svg">
<path opacity="0.5" d="M12.365 9.89055H139.83C139.949 9.89534 140.065 9.9307 140.174 9.99462C140.282 10.0585 140.379 10.1498 140.46 10.2631C140.541 10.3764 140.605 10.5096 140.647 10.6551C140.688 10.8005 140.708 10.9554 140.704 11.1108V12.7562C138.414 11.3985 135.93 10.6928 133.416 10.6855H19.3783C16.6415 10.7058 13.9441 11.5435 11.491 13.1352V11.0923C11.4873 10.9369 11.5068 10.782 11.5487 10.6366C11.5906 10.4911 11.654 10.3579 11.7352 10.2446C11.8164 10.1313 11.9138 10.0401 12.0218 9.97613C12.1299 9.91221 12.2465 9.87685 12.365 9.87207M139.83 67.0834H112.778C112.572 67.0739 112.376 66.971 112.221 66.7923C112.067 66.6136 111.965 66.3701 111.932 66.1035H133.416C135.93 66.0952 138.413 65.3895 140.704 64.0329V65.8817C140.71 66.1939 140.621 66.4965 140.458 66.7234C140.294 66.9502 140.068 67.083 139.83 67.0926M98.674 67.0926H53.5213C53.3156 67.0832 53.1187 66.9803 52.9644 66.8015C52.8102 66.6228 52.708 66.3793 52.6755 66.1128H99.5128C99.4831 66.3793 99.3827 66.6236 99.2293 66.8028C99.076 66.982 98.8793 67.0846 98.674 67.0926M39.4102 67.0926H12.365C12.127 67.083 11.9015 66.9502 11.7377 66.7234C11.574 66.4965 11.4853 66.1939 11.491 65.8817V63.6631C13.9441 65.2548 16.6415 66.0925 19.3783 66.1128H40.256C40.2261 66.3809 40.1247 66.6264 39.9698 66.8057C39.815 66.9851 39.6167 67.0868 39.4102 67.0926M40.115 60.3075V63.7186H37.6269L40.115 60.3075ZM40.115 58.3755L36.2665 63.7186H32.5167L40.115 53.1711V58.3755ZM92.8238 63.7001H89.074L99.3718 49.4088V54.6132L92.8238 63.7001ZM99.3718 56.5452V61.7496L97.9621 63.7001H94.2123L99.3718 56.5452ZM130.216 63.7001L132.584 60.4184V63.7001H130.216ZM132.584 53.2821V58.4864L128.821 63.7001H125.071L132.584 53.2821ZM132.584 46.1457V51.35L123.682 63.7001H119.932L132.584 46.1457ZM132.584 44.2044L118.537 63.7001H114.738L132.535 39L132.584 44.2044ZM132.584 13.0705V37.105L113.391 63.737H112.045V60.4369L129.067 36.8092L128.362 35.8848L112.024 58.5511V53.393L123.901 36.7814L123.196 35.857L111.918 51.4148V48.4751C111.918 48.4751 111.918 48.4012 111.918 48.3642C111.918 48.0964 111.848 47.8366 111.72 47.6281C111.592 47.4196 111.413 47.2749 111.213 47.218L118.713 36.8092L118.008 35.8848L109.874 47.144H106.124L113.589 36.7814L112.884 35.857L104.729 47.144H100.979L108.443 36.7814L107.738 35.857L87.6432 63.7463H83.8933L103.291 36.8184L102.586 35.894L82.4836 63.7833H78.7902L98.1948 36.8554L97.4899 35.931L77.3805 63.7093H73.6237L93.0282 36.7814L92.3233 35.857L72.228 63.7463H68.4782L87.8757 36.8184L87.1709 35.894L67.0685 63.7833H63.3399L66.42 59.5033L82.7232 36.8739L82.0184 35.9495L64.5381 60.0857L61.9513 63.6723H58.2015L66.4271 52.256L77.5849 36.7722L76.8801 35.8478L64.5311 52.9862L56.7777 63.7093H53.0208L66.413 45.1565L72.4254 36.8369L71.7205 35.9125L64.517 45.9146L52.6261 62.4244V57.1461L66.406 38.0201L67.28 36.8092L66.5752 35.8848L64.5099 38.7412L52.6191 55.251V50.0097L62.1487 36.7814L61.4438 35.857L52.5768 48.1609C52.5486 47.8951 52.4497 47.6509 52.2974 47.4716C52.1452 47.2923 51.9496 47.1893 51.7451 47.181H49.5318L56.9962 36.8184L56.2914 35.894L48.1715 47.144H44.4216L51.886 36.7814L51.1812 35.857L43.0331 47.144H41.1511C41.0071 47.1485 40.8664 47.2019 40.7428 47.2992C40.6193 47.3964 40.5171 47.534 40.4463 47.6987C40.3376 47.8073 40.2494 47.947 40.1883 48.1073C40.1272 48.2675 40.0949 48.4439 40.0938 48.6231V51.2114L31.1 63.6908H27.3361L46.7406 36.763L46.0358 35.8386L25.9264 63.7093H22.1765L41.5811 36.7814L40.8763 35.857L20.8091 63.7093H20.2453V59.2907L36.4568 36.7814L35.752 35.857L20.2453 57.3956V52.1543L31.3114 36.7814L30.6066 35.857L20.2453 50.213V45.0086L26.173 36.7814L25.4682 35.857L20.2382 43.1136V37.9L21.0206 36.8092L20.3157 35.8848L20.2311 36.005V13.0797L132.584 13.0705ZM9.76412 62.3227V65.8724C9.74703 66.8019 10.0109 67.7026 10.4981 68.3779C10.9853 69.0533 11.6564 69.4486 12.365 69.4776H39.4102C40.1194 69.451 40.7916 69.0564 41.2792 68.3805C41.7668 67.7046 42.03 66.8026 42.0111 65.8724V49.834H50.8288V64.911C50.8298 65.0874 50.8611 65.2612 50.9204 65.4195V65.8724C50.9014 66.8026 51.1646 67.7046 51.6523 68.3805C52.1399 69.0564 52.8121 69.451 53.5213 69.4776H98.674C99.382 69.4486 100.052 69.053 100.539 68.3773C101.025 67.7017 101.287 66.801 101.268 65.8724V49.6861H110.177V65.8724C110.16 66.8019 110.424 67.7026 110.911 68.3779C111.398 69.0533 112.07 69.4486 112.778 69.4776H139.83C140.538 69.4486 141.209 69.053 141.695 68.3773C142.181 67.7017 142.443 66.801 142.424 65.8724V11.0923C142.443 10.1637 142.181 9.263 141.695 8.58736C141.209 7.91171 140.538 7.51611 139.83 7.48711H12.365C11.6564 7.51612 10.9853 7.91142 10.4981 8.58678C10.0109 9.26215 9.74703 10.1628 9.76412 11.0923V14.4571C9.65601 14.6579 9.59479 14.8956 9.58791 15.1412V61.5924C9.59446 61.8511 9.66355 62.1004 9.78524 62.3042" fill="#25343F"/>
<path opacity="0.5" d="M144.221 78.0751H7.60004V5.12119H144.228L144.221 78.0751ZM152.799 38.3905C152.817 31.7118 151.091 25.2266 147.908 20.0133V5.12119C147.934 3.80184 147.561 2.52237 146.871 1.56266C146.18 0.60294 145.227 0.0410894 144.221 0L7.60004 0C7.10107 0.0179577 6.60969 0.164696 6.15398 0.431828C5.69827 0.69896 5.28716 1.08125 4.94415 1.55685C4.60115 2.03245 4.33297 2.59203 4.15494 3.20362C3.97691 3.81521 3.89254 4.46681 3.90662 5.12119V21.7605C1.36117 26.6673 0 32.4649 0 38.3997C0 44.3345 1.36117 50.1321 3.90662 55.039V78.0751C3.89254 78.7295 3.97691 79.3811 4.15494 79.9927C4.33297 80.6043 4.60115 81.1639 4.94415 81.6395C5.28716 82.1151 5.69827 82.4973 6.15398 82.7645C6.60969 83.0316 7.10107 83.1783 7.60004 83.1963H144.228C145.235 83.1576 146.19 82.5968 146.882 81.6368C147.574 80.6769 147.948 79.396 147.922 78.0751V56.7491C151.116 51.552 152.839 45.0652 152.799 38.3905Z" fill="#25343F"/>
<path opacity="0.5" d="M99.3292 63.7125H99.3449V63.6921L99.3292 63.7125Z" fill="#25343F"/>
<path opacity="0.5" d="M126.304 72.2048V75.0797H128.369H134.705V72.2048H128.369H126.304Z" fill="#25343F"/>
<path opacity="0.5" d="M17.207 72.2048V75.0797H19.2793H25.6159V72.2048H19.2793H17.207Z" fill="#25343F"/>
</svg>
