<svg width="153" height="84" viewBox="0 0 153 84" fill="none" xmlns="http://www.w3.org/2000/svg">
<path opacity="0.5" d="M22.9851 75.0797V72.2048H20.8H14.0898V75.0797H20.8H22.9851Z" fill="#25343F"/>
<path opacity="0.5" d="M12.3063 61.6672C12.3063 61.9908 12.2083 62.3012 12.0338 62.53C11.8594 62.7588 11.6227 62.8874 11.376 62.8874H10.368C10.1225 62.8849 9.88764 62.7553 9.71468 62.5267C9.54172 62.2982 9.44467 61.9892 9.44468 61.6672V11.0931C9.44468 10.7719 9.54195 10.4639 9.71511 10.2368C9.88827 10.0097 10.1231 9.88211 10.368 9.88211H11.376C11.6215 9.8821 11.8571 10.0094 12.0313 10.2362C12.2056 10.4631 12.3045 10.7711 12.3063 11.0931V61.6672ZM11.376 7.45093H10.368C9.6395 7.45337 8.94141 7.83398 8.4263 8.50955C7.91118 9.18513 7.621 10.1007 7.61914 11.0561V61.6672C7.61914 62.6233 7.90871 63.5403 8.42423 64.2164C8.93975 64.8925 9.63893 65.2723 10.368 65.2723H11.376C11.7376 65.2736 12.0957 65.1812 12.4301 65.0006C12.7644 64.8199 13.0683 64.5546 13.3243 64.2197C13.5803 63.8848 13.7834 63.487 13.922 63.0489C14.0606 62.6109 14.132 62.1414 14.132 61.6672V11.0931C14.1301 10.1361 13.8389 9.21911 13.3222 8.54327C12.8056 7.86743 12.1057 7.4879 11.376 7.4879" fill="#25343F"/>
<path opacity="0.5" d="M21.0681 61.6672C21.0681 61.9892 20.9711 62.2982 20.7981 62.5267C20.6252 62.7553 20.3903 62.8849 20.1447 62.8874H19.1369C18.8901 62.8874 18.6535 62.7588 18.479 62.53C18.3045 62.3012 18.2064 61.9908 18.2064 61.6672V11.0931C18.2083 10.7711 18.3071 10.4631 18.4814 10.2362C18.6557 10.0094 18.8913 9.8821 19.1369 9.88211H20.1447C20.3896 9.88211 20.6245 10.0097 20.7977 10.2368C20.9709 10.4639 21.0681 10.7719 21.0681 11.0931V61.6672ZM20.1447 7.45093H19.1369C18.4071 7.45092 17.7072 7.83046 17.1906 8.50629C16.674 9.18213 16.3827 10.0991 16.3809 11.0561V61.6672C16.3809 62.1414 16.4522 62.6109 16.5908 63.0489C16.7294 63.487 16.9325 63.8848 17.1885 64.2197C17.4445 64.5546 17.7483 64.8199 18.0827 65.0006C18.417 65.1812 18.7753 65.2736 19.1369 65.2723H20.1447C20.8738 65.2723 21.5731 64.8925 22.0886 64.2164C22.6041 63.5403 22.8937 62.6233 22.8937 61.6672V11.0931C22.8918 10.1377 22.6016 9.2221 22.0865 8.54653C21.5714 7.87096 20.8732 7.49034 20.1447 7.4879" fill="#25343F"/>
<path opacity="0.5" d="M29.7728 61.6672C29.7701 61.8274 29.7433 61.9854 29.694 62.1321C29.6447 62.2787 29.5738 62.4112 29.4854 62.522C29.3971 62.6327 29.2929 62.7195 29.179 62.7775C29.065 62.8354 28.9435 62.8633 28.8213 62.8597H27.8133C27.5665 62.8597 27.3299 62.7311 27.1554 62.5023C26.9809 62.2734 26.8829 61.9631 26.8829 61.6395V11.0931C26.8848 10.7711 26.9836 10.4631 27.1579 10.2362C27.3322 10.0094 27.5678 9.8821 27.8133 9.88211H28.8213C29.0662 9.88211 29.301 10.0097 29.4742 10.2368C29.6473 10.4639 29.7447 10.7719 29.7447 11.0931L29.7728 61.6672ZM28.8213 7.45093H27.8133C27.0848 7.45337 26.3867 7.83398 25.8716 8.50955C25.3565 9.18513 25.0663 10.1007 25.0645 11.0561V61.6672C25.0645 62.6233 25.354 63.5403 25.8695 64.2164C26.3851 64.8925 27.0842 65.2724 27.8133 65.2724H28.8213C29.5503 65.2724 30.2495 64.8925 30.765 64.2164C31.2806 63.5403 31.5702 62.6233 31.5702 61.6672V11.0931C31.5684 10.1377 31.2781 9.2221 30.763 8.54653C30.2479 7.87096 29.5498 7.49034 28.8213 7.4879" fill="#25343F"/>
<path opacity="0.5" d="M38.5054 61.6672C38.5063 61.827 38.4832 61.9855 38.4372 62.1334C38.3912 62.2814 38.3233 62.416 38.2375 62.5295C38.1517 62.6429 38.0495 62.7329 37.937 62.7943C37.8245 62.8558 37.704 62.8874 37.5821 62.8874H36.5741C36.4523 62.8874 36.3316 62.8558 36.2191 62.7943C36.1066 62.7329 36.0046 62.6429 35.9188 62.5295C35.8329 62.416 35.765 62.2814 35.7191 62.1334C35.6731 61.9855 35.6498 61.827 35.6507 61.6672V11.0931C35.6507 10.7719 35.7481 10.4639 35.9213 10.2368C36.0944 10.0097 36.3292 9.88211 36.5741 9.88211H37.5821C37.827 9.88211 38.0618 10.0097 38.235 10.2368C38.4082 10.4639 38.5054 10.7719 38.5054 11.0931V61.6672ZM37.5821 7.45093H36.5741C35.8456 7.45337 35.1476 7.83398 34.6324 8.50955C34.1173 9.18513 33.8271 10.1007 33.8252 11.0561V61.6672C33.8252 62.1406 33.8963 62.6094 34.0344 63.0468C34.1726 63.4842 34.3751 63.8817 34.6304 64.2164C34.8856 64.5512 35.1887 64.8168 35.5222 64.9979C35.8557 65.1791 36.2131 65.2724 36.5741 65.2724H37.5821C38.3112 65.2724 39.0103 64.8925 39.5259 64.2164C40.0414 63.5403 40.331 62.6233 40.331 61.6672V11.0931C40.3291 10.1377 40.0389 9.2221 39.5238 8.54653C39.0087 7.87096 38.3106 7.49034 37.5821 7.4879" fill="#25343F"/>
<path opacity="0.5" d="M138.44 75.0797V72.2048H131.73H129.545V75.0797H131.73H138.44Z" fill="#25343F"/>
<path opacity="0.5" d="M47.2396 61.6672C47.2405 61.827 47.2174 61.9854 47.1714 62.1334C47.1254 62.2814 47.0575 62.416 46.9717 62.5294C46.8858 62.6429 46.7837 62.7329 46.6712 62.7943C46.5587 62.8557 46.4381 62.8874 46.3162 62.8874H45.3083C45.0628 62.8849 44.828 62.7553 44.655 62.5267C44.482 62.2982 44.3849 61.9892 44.3849 61.6672V11.093C44.3849 10.7719 44.4823 10.4639 44.6554 10.2368C44.8286 10.0097 45.0634 9.88208 45.3083 9.88208H46.3162C46.5611 9.88208 46.796 10.0097 46.9692 10.2368C47.1423 10.4639 47.2396 10.7719 47.2396 11.093V61.6672ZM46.3162 7.4509H45.3083C44.5798 7.45334 43.8817 7.83395 43.3666 8.50952C42.8515 9.1851 42.5612 10.1007 42.5594 11.0561V61.6672C42.5594 62.6233 42.849 63.5403 43.3646 64.2164C43.8801 64.8925 44.5793 65.2723 45.3083 65.2723H46.3162C47.0453 65.2723 47.7445 64.8925 48.2601 64.2164C48.7756 63.5403 49.0652 62.6233 49.0652 61.6672V11.093C49.0633 10.1376 48.7731 9.22207 48.258 8.5465C47.7429 7.87093 47.0447 7.49031 46.3162 7.48787" fill="#25343F"/>
<path opacity="0.5" d="M148.505 78.0751H3.91196V69.6168H148.505V78.0751ZM3.91196 5.1212H46.9079L51.3343 10.7508C51.3343 10.8525 51.3343 10.9542 51.3343 11.0559V61.6669C51.3343 62.624 51.6237 63.5419 52.139 64.2195C52.6544 64.897 53.3535 65.2789 54.0832 65.2814H55.0912C55.8209 65.2789 56.5201 64.897 57.0354 64.2195C57.5507 63.5419 57.8401 62.624 57.8401 61.6669V18.9873L60.0674 21.8159V61.6669C60.0674 62.624 60.3568 63.5419 60.8721 64.2195C61.3875 64.897 62.0866 65.2789 62.8163 65.2814H63.8314C64.5611 65.2789 65.2602 64.897 65.7756 64.2195C66.2909 63.5419 66.5802 62.624 66.5802 61.6669V30.0801L68.8076 32.9088V61.6669C68.8076 62.624 69.097 63.5419 69.6123 64.2195C70.1276 64.897 70.8268 65.2789 71.5565 65.2814H72.5222C73.2519 65.2789 73.951 64.897 74.4663 64.2195C74.9817 63.5419 75.2711 62.624 75.2711 61.6669V41.1729L77.4984 44.0016V61.6669C77.4984 62.624 77.7878 63.5419 78.3031 64.2195C78.8184 64.897 79.5176 65.2789 80.2473 65.2814H81.2553C81.985 65.2789 82.6841 64.897 83.1995 64.2195C83.7148 63.5419 84.0042 62.624 84.0042 61.6669V52.2658L86.2315 55.0944V61.6669C86.2315 62.624 86.5209 63.5419 87.0362 64.2195C87.5515 64.897 88.2507 65.2789 88.9804 65.2814H89.9884C90.5281 65.2799 91.0556 65.0706 91.5054 64.6795C91.9552 64.2884 92.3076 63.7327 92.5188 63.0813L93.266 64.0057L95.7822 67.2041H3.91196V5.1212ZM53.1176 13.0341L55.9793 16.6762V61.6669C55.9793 61.9906 55.8813 62.3009 55.7068 62.5298C55.5323 62.7586 55.2956 62.8872 55.0489 62.8872H54.041C53.7954 62.8847 53.5605 62.7551 53.3876 62.5265C53.2146 62.2979 53.1176 61.989 53.1176 61.6669V13.0341ZM89.7698 54.8726H142.88L140.766 59.6148H93.5408L89.7698 54.8726ZM140.738 47.7454L142.852 52.4784H87.8738L84.1451 47.7454H140.738ZM142.852 41.2746L140.738 46.0168H82.813L79.0844 41.2746H142.852ZM140.836 34.2029L142.951 38.9451H77.2587L73.5019 34.2029H140.836ZM142.88 27.7321L140.688 32.465H72.1556L68.4269 27.7321H142.88ZM57.7626 14.1711H72.0147C109.59 14.1711 130.517 21.3352 139.293 25.3287H66.545L57.7626 14.1711ZM143.395 65.5217H98.1647L94.873 61.3434H140.738L143.395 65.5217ZM61.8507 24.1362L64.7124 27.7691V61.6669C64.7124 61.989 64.6153 62.2979 64.4424 62.5265C64.2694 62.7551 64.0346 62.8847 63.789 62.8872H62.7741C62.5286 62.8847 62.2937 62.7551 62.1207 62.5265C61.9477 62.2979 61.8507 61.989 61.8507 61.6669V24.1362ZM70.5838 35.229L73.4456 38.8619V61.6669C73.4401 61.9841 73.3405 62.2861 73.1682 62.5087C72.9958 62.7313 72.7641 62.8571 72.5222 62.8594H71.5142C71.2674 62.8594 71.0308 62.7309 70.8563 62.502C70.6818 62.2732 70.5838 61.9628 70.5838 61.6392V35.229ZM79.3169 46.3219L82.1786 49.9178V61.6669C82.1795 61.8267 82.1563 61.9852 82.1104 62.1332C82.0644 62.2812 81.9965 62.4158 81.9107 62.5292C81.8248 62.6426 81.7228 62.7327 81.6103 62.7941C81.4978 62.8555 81.3771 62.8872 81.2553 62.8872H80.2755C80.0288 62.8872 79.7921 62.7586 79.6176 62.5298C79.4432 62.3009 79.3452 61.9906 79.3452 61.6669L79.3169 46.3219ZM88.0571 57.4147L90.9188 61.0106V61.63C90.9188 61.9536 90.8207 62.264 90.6463 62.4928C90.4718 62.7216 90.2352 62.8502 89.9884 62.8502H88.9804C88.7349 62.8477 88.5001 62.7181 88.3271 62.4895C88.1541 62.261 88.0571 61.952 88.0571 61.63V57.4147ZM148.505 8.34375e-06H3.91196C3.39857 -0.00120701 2.89002 0.13036 2.41544 0.38718C1.94087 0.644 1.50959 1.02103 1.14624 1.4967C0.782896 1.97237 0.49464 2.53733 0.297961 3.15927C0.101282 3.7812 -8.36363e-07 4.4479 0 5.1212V78.0751C-8.36363e-07 78.7484 0.101282 79.4151 0.297961 80.037C0.49464 80.659 0.782896 81.2239 1.14624 81.6996C1.50959 82.1753 1.94087 82.5523 2.41544 82.8091C2.89002 83.066 3.39857 83.1975 3.91196 83.1963H148.505C149.541 83.1963 150.535 82.657 151.269 81.6969C152.002 80.7368 152.415 79.4342 152.417 78.0751V5.1212C152.415 3.76213 152.002 2.45955 151.269 1.49941C150.535 0.539264 149.541 6.13763e-06 148.505 8.34375e-06" fill="#25343F"/>
</svg>
