<svg width="153" height="84" viewBox="0 0 153 84" fill="none" xmlns="http://www.w3.org/2000/svg">
<path opacity="0.5" d="M20.7931 75.0797H20.8001H22.9781H22.9852V72.2048H22.9781H20.8001H20.7931H14.0899H14.0829V75.0797H14.0899H20.7931Z" fill="#25343F"/>
<path opacity="0.5" d="M9.44513 11.0923C9.44419 10.9329 9.46744 10.7749 9.51351 10.6274C9.55958 10.4799 9.62756 10.3459 9.71349 10.2333C9.79941 10.1206 9.90158 10.0314 10.014 9.97098C10.1265 9.91056 10.247 9.88008 10.3685 9.88131H11.3764C11.4983 9.88009 11.6191 9.91051 11.7319 9.97082C11.8448 10.0311 11.9474 10.1201 12.0339 10.2327C12.1204 10.3453 12.189 10.4792 12.2359 10.6267C12.2827 10.7742 12.3068 10.9325 12.3068 11.0923V61.6664C12.3013 61.9852 12.2008 62.2885 12.027 62.5113C11.8531 62.7342 11.6196 62.8589 11.3764 62.8589H10.3685C10.2466 62.8589 10.126 62.8272 10.0135 62.7658C9.90101 62.7044 9.79891 62.6143 9.71307 62.5009C9.62724 62.3875 9.55937 62.2529 9.51339 62.1049C9.4674 61.9569 9.4442 61.7985 9.44513 61.6387V11.0923ZM10.3685 65.3085H11.3764C11.7374 65.3085 12.0949 65.2153 12.4284 65.0341C12.7619 64.8529 13.0649 64.5874 13.3202 64.2526C13.5755 63.9178 13.7779 63.5204 13.9161 63.083C14.0542 62.6456 14.1253 62.1768 14.1253 61.7034V11.0923C14.1235 10.1369 13.8333 9.22131 13.3181 8.54573C12.803 7.87016 12.1049 7.48955 11.3764 7.48711H10.3685C9.64 7.48955 8.94188 7.87016 8.42676 8.54573C7.91164 9.22131 7.62143 10.1369 7.61957 11.0923V61.6664C7.61957 62.6225 7.90919 63.5395 8.42471 64.2156C8.94023 64.8917 9.63943 65.2716 10.3685 65.2716" fill="#25343F"/>
<path opacity="0.5" d="M18.1782 11.0923C18.1782 10.7711 18.2755 10.4631 18.4487 10.236C18.6218 10.0089 18.8567 9.88131 19.1016 9.88131H20.1095C20.2314 9.88009 20.3522 9.91051 20.465 9.97082C20.5779 10.0311 20.6805 10.1201 20.767 10.2327C20.8535 10.3453 20.9221 10.4792 20.969 10.6267C21.0158 10.7742 21.0399 10.9325 21.0399 11.0923V61.6664C21.0344 61.9852 20.9339 62.2885 20.76 62.5113C20.5862 62.7342 20.3527 62.8589 20.1095 62.8589H19.1016C18.856 62.8564 18.6212 62.7268 18.4482 62.4982C18.2753 62.2696 18.1782 61.9607 18.1782 61.6386V11.0923ZM19.1016 65.2715H20.1095C20.4708 65.2728 20.8286 65.1804 21.1626 64.9996C21.4965 64.8189 21.7999 64.5533 22.0554 64.2183C22.3108 63.8833 22.5133 63.4854 22.6511 63.0475C22.7889 62.6095 22.8594 62.1402 22.8584 61.6664V11.0923C22.8584 10.1361 22.5688 9.21914 22.0533 8.54304C21.5378 7.86694 20.8386 7.48711 20.1095 7.48711H19.1016C18.3731 7.48955 17.675 7.87016 17.1599 8.54573C16.6447 9.22131 16.3545 10.1369 16.3527 11.0923V61.6664C16.3527 62.6225 16.6423 63.5395 17.1578 64.2156C17.6733 64.8917 18.3725 65.2715 19.1016 65.2715" fill="#25343F"/>
<path opacity="0.5" d="M26.9113 11.0923C26.9113 10.9333 26.9352 10.7758 26.9816 10.6289C27.028 10.4819 27.096 10.3484 27.1818 10.236C27.2675 10.1235 27.3693 10.0343 27.4813 9.97349C27.5934 9.91263 27.7134 9.88131 27.8347 9.88131H28.8497C29.0946 9.88131 29.3294 10.0089 29.5026 10.236C29.6757 10.4631 29.773 10.7711 29.773 11.0923V61.6664C29.7675 61.9836 29.6681 62.2855 29.4957 62.5081C29.3233 62.7307 29.0916 62.8565 28.8497 62.8589H27.8347C27.5891 62.8564 27.3543 62.7268 27.1813 62.4982C27.0084 62.2697 26.9113 61.9607 26.9113 61.6387V11.0923ZM27.8347 65.3085H28.8497C29.2107 65.3085 29.5681 65.2153 29.9016 65.0341C30.2351 64.8529 30.5382 64.5874 30.7934 64.2526C31.0487 63.9178 31.2512 63.5204 31.3893 63.083C31.5275 62.6456 31.5986 62.1768 31.5986 61.7034V11.0923C31.5967 10.1369 31.3065 9.22131 30.7914 8.54573C30.2763 7.87016 29.5782 7.48955 28.8497 7.48711H27.8347C27.1062 7.48955 26.4081 7.87016 25.893 8.54573C25.3778 9.22131 25.0876 10.1369 25.0858 11.0923V61.6664C25.0858 62.6225 25.3754 63.5395 25.8909 64.2156C26.4064 64.8917 27.1056 65.2716 27.8347 65.2716" fill="#25343F"/>
<path opacity="0.5" d="M35.6446 11.0923C35.6446 10.9325 35.6687 10.7742 35.7155 10.6267C35.7624 10.4792 35.831 10.3453 35.9175 10.2327C36.004 10.1201 36.1066 10.0311 36.2195 9.97082C36.3323 9.91051 36.4531 9.88009 36.575 9.88131H37.5829C37.8278 9.88131 38.0627 10.0089 38.2358 10.236C38.409 10.4631 38.5063 10.7711 38.5063 11.0923V61.6664C38.5008 61.9836 38.4013 62.2855 38.2289 62.5081C38.0565 62.7307 37.8248 62.8565 37.5829 62.8589H36.575C36.3282 62.8589 36.0916 62.7303 35.9171 62.5015C35.7426 62.2726 35.6446 61.9623 35.6446 61.6387V11.0923ZM36.575 65.3085H37.5829C37.9439 65.3085 38.3014 65.2153 38.6349 65.0341C38.9684 64.8529 39.2714 64.5874 39.5267 64.2526C39.7819 63.9178 39.9844 63.5204 40.1226 63.083C40.2607 62.6456 40.3318 62.1768 40.3318 61.7034V11.0923C40.33 10.1369 40.0398 9.22131 39.5246 8.54573C39.0095 7.87016 38.3114 7.48955 37.5829 7.48711H36.575C35.8477 7.49198 35.1514 7.87367 34.6378 8.54898C34.1242 9.22429 33.8349 10.1385 33.8331 11.0923V61.6664C33.8331 62.6225 34.1227 63.5395 34.6382 64.2156C35.1538 64.8917 35.853 65.2716 36.582 65.2716" fill="#25343F"/>
<path opacity="0.5" d="M131.723 75.0797H131.73H138.433H138.44V72.2048H138.433H131.73H131.723H129.545H129.538V75.0797H129.545H131.723Z" fill="#25343F"/>
<path opacity="0.5" d="M44.4055 11.0923C44.4045 10.9329 44.4278 10.7749 44.4739 10.6274C44.5199 10.4799 44.5879 10.3459 44.6738 10.2333C44.7598 10.1206 44.8619 10.0314 44.9744 9.97098C45.0868 9.91056 45.2073 9.88008 45.3288 9.88131H46.3368C46.5755 9.89327 46.8014 10.0261 46.967 10.2519C47.1326 10.4777 47.2251 10.779 47.2249 11.0923V61.6664C47.2195 61.9804 47.122 62.2797 46.9526 62.5018C46.7832 62.7239 46.5551 62.8518 46.3156 62.8589H45.3077C45.0689 62.8517 44.8415 62.7235 44.6733 62.5012C44.5051 62.2788 44.4091 61.9796 44.4055 61.6664V11.0923ZM45.3288 65.3085H46.3368C46.6978 65.3085 47.0552 65.2153 47.3887 65.0341C47.7223 64.8529 48.0253 64.5874 48.2806 64.2526C48.5358 63.9178 48.7383 63.5204 48.8764 63.083C49.0146 62.6456 49.0857 62.1768 49.0857 61.7034V11.0923C49.0838 10.1369 48.7936 9.22131 48.2785 8.54573C47.7634 7.87016 47.0653 7.48955 46.3368 7.48711H45.3077C44.5792 7.48955 43.8811 7.87016 43.366 8.54573C42.8508 9.22131 42.5606 10.1369 42.5588 11.0923V61.6664C42.5588 62.6225 42.8484 63.5395 43.3639 64.2156C43.8794 64.8917 44.5786 65.2716 45.3077 65.2716" fill="#25343F"/>
<path opacity="0.5" d="M53.1174 11.0923C53.1165 10.9329 53.1397 10.7749 53.1858 10.6274C53.2319 10.4799 53.2999 10.3459 53.3858 10.2333C53.4717 10.1206 53.5739 10.0314 53.6863 9.97098C53.7988 9.91056 53.9193 9.88008 54.0408 9.88131H55.0487C55.1702 9.88008 55.2907 9.91056 55.4032 9.97098C55.5156 10.0314 55.6178 10.1206 55.7037 10.2333C55.7897 10.3459 55.8576 10.4799 55.9037 10.6274C55.9498 10.7749 55.973 10.9329 55.9721 11.0923V61.6664C55.9684 61.9843 55.8695 62.2876 55.6967 62.5107C55.5239 62.7339 55.2912 62.8589 55.0487 62.8589H54.0408C53.9189 62.8589 53.7983 62.8272 53.6858 62.7658C53.5733 62.7044 53.4712 62.6143 53.3854 62.5009C53.2995 62.3875 53.2317 62.2529 53.1857 62.1049C53.1397 61.9569 53.1165 61.7985 53.1174 61.6387V11.0923ZM54.0408 65.3085H55.0487C55.4097 65.3085 55.7672 65.2153 56.1007 65.0341C56.4342 64.8529 56.7373 64.5874 56.9925 64.2526C57.2478 63.9178 57.4503 63.5204 57.5884 63.083C57.7265 62.6456 57.7976 62.1768 57.7976 61.7034V11.0923C57.7958 10.1369 57.5056 9.22131 56.9905 8.54573C56.4753 7.87016 55.7772 7.48955 55.0487 7.48711H54.0408C53.3123 7.48955 52.6142 7.87016 52.0991 8.54573C51.5839 9.22131 51.2937 10.1369 51.2919 11.0923V61.6664C51.2919 62.6225 51.5815 63.5395 52.097 64.2156C52.6125 64.8917 53.3117 65.2716 54.0408 65.2716" fill="#25343F"/>
<path opacity="0.5" d="M61.8505 11.0923C61.8505 10.7711 61.9478 10.4631 62.121 10.236C62.2941 10.0089 62.529 9.88131 62.7739 9.88131H63.7818C63.9037 9.88009 64.0245 9.91051 64.1373 9.97082C64.2502 10.0311 64.3528 10.1201 64.4393 10.2327C64.5258 10.3453 64.5944 10.4792 64.6413 10.6267C64.6881 10.7742 64.7122 10.9325 64.7122 11.0923V61.6664C64.7067 61.9852 64.6062 62.2885 64.4323 62.5113C64.2585 62.7342 64.025 62.8589 63.7818 62.8589H62.7739C62.5283 62.8564 62.2935 62.7268 62.1205 62.4982C61.9476 62.2697 61.8505 61.9607 61.8505 61.6387V11.0923ZM62.7739 65.3085H63.7818C64.1428 65.3085 64.5003 65.2153 64.8338 65.0341C65.1673 64.8529 65.4703 64.5874 65.7256 64.2526C65.9809 63.9178 66.1833 63.5204 66.3215 63.083C66.4596 62.6456 66.5307 62.1768 66.5307 61.7034V11.0923C66.5289 10.1369 66.2387 9.22131 65.7235 8.54573C65.2084 7.87016 64.5103 7.48955 63.7818 7.48711H62.7739C62.0454 7.48955 61.3473 7.87016 60.8322 8.54573C60.317 9.22131 60.0268 10.1369 60.025 11.0923V61.6664C60.025 62.1398 60.0961 62.6086 60.2342 63.046C60.3724 63.4834 60.5748 63.8809 60.8301 64.2156C61.0854 64.5504 61.3884 64.816 61.7219 64.9971C62.0554 65.1783 62.4129 65.2716 62.7739 65.2716" fill="#25343F"/>
<path opacity="0.5" d="M70.5842 11.0923C70.5842 10.7711 70.6815 10.4631 70.8547 10.236C71.0279 10.0089 71.2627 9.88131 71.5076 9.88131H72.5155C72.6374 9.88009 72.7582 9.91051 72.8711 9.97082C72.9839 10.0311 73.0865 10.1201 73.173 10.2327C73.2595 10.3453 73.3281 10.4792 73.375 10.6267C73.4218 10.7742 73.4459 10.9325 73.4459 11.0923V61.6664C73.4404 61.9852 73.34 62.2885 73.1661 62.5113C72.9922 62.7342 72.7587 62.8589 72.5155 62.8589H71.5076C71.2621 62.8564 71.0272 62.7268 70.8543 62.4982C70.6813 62.2696 70.5842 61.9607 70.5842 61.6386V11.0923ZM71.5076 65.3085H72.5155C72.8771 65.3097 73.2353 65.2174 73.5697 65.0368C73.904 64.8561 74.2079 64.5908 74.4639 64.2559C74.7199 63.921 74.923 63.5231 75.0616 63.0851C75.2002 62.6471 75.2715 62.1776 75.2715 61.7034V11.0923C75.2696 10.1353 74.9785 9.21831 74.4618 8.54247C73.9452 7.86664 73.2452 7.4871 72.5155 7.48711H71.5076C70.7791 7.48955 70.081 7.87016 69.5659 8.54573C69.0508 9.22131 68.7605 10.1369 68.7587 11.0923V61.6664C68.7587 62.6225 69.0483 63.5395 69.5638 64.2156C70.0793 64.8917 70.7785 65.2715 71.5076 65.2715" fill="#25343F"/>
<path opacity="0.5" d="M79.3167 11.0923C79.3167 10.9325 79.3408 10.7742 79.3877 10.6267C79.4345 10.4792 79.5032 10.3453 79.5897 10.2327C79.6762 10.1201 79.7788 10.0311 79.8916 9.97082C80.0045 9.91051 80.1253 9.88009 80.2471 9.88131H81.2551C81.5 9.88131 81.7348 10.0089 81.908 10.236C82.0811 10.4631 82.1784 10.7711 82.1784 11.0923V61.6664C82.1729 61.9836 82.0734 62.2855 81.9011 62.5081C81.7287 62.7307 81.497 62.8565 81.2551 62.8589H80.2471C80.0004 62.8589 79.7637 62.7303 79.5892 62.5015C79.4148 62.2726 79.3167 61.9623 79.3167 61.6387V11.0923ZM80.2471 65.3085H81.2551C81.6161 65.3085 81.9735 65.2153 82.307 65.0341C82.6406 64.8529 82.9436 64.5874 83.1989 64.2526C83.4541 63.9178 83.6566 63.5204 83.7947 63.083C83.9329 62.6456 84.004 62.1768 84.004 61.7034V11.0923C84.0021 10.1369 83.7119 9.22131 83.1968 8.54573C82.6817 7.87016 81.9836 7.48955 81.2551 7.48711H80.2471C79.5174 7.4871 78.8175 7.86664 78.3009 8.54247C77.7842 9.21831 77.493 10.1353 77.4912 11.0923V61.6664C77.4912 62.1406 77.5625 62.6102 77.7011 63.0482C77.8397 63.4862 78.0428 63.884 78.2988 64.2189C78.5548 64.5538 78.8587 64.8192 79.193 64.9998C79.5273 65.1804 79.8855 65.2728 80.2471 65.2716" fill="#25343F"/>
<path opacity="0.5" d="M88.05 11.0922C88.05 10.9324 88.0741 10.7742 88.1209 10.6267C88.1678 10.4791 88.2364 10.3452 88.3229 10.2327C88.4094 10.1201 88.512 10.0311 88.6248 9.97078C88.7377 9.91047 88.8585 9.88004 88.9804 9.88126H89.9883C90.111 9.87754 90.233 9.90619 90.3471 9.96549C90.4612 10.0248 90.565 10.1136 90.6525 10.2265C90.7399 10.3395 90.8092 10.4743 90.8561 10.623C90.9031 10.7717 90.9267 10.9313 90.9258 11.0922V61.6663C90.9239 61.8254 90.8982 61.9824 90.8501 62.1284C90.802 62.2744 90.7324 62.4065 90.6454 62.5173C90.5583 62.628 90.4555 62.7151 90.3428 62.7738C90.23 62.8324 90.1096 62.8613 89.9883 62.8588H88.9804C88.7336 62.8588 88.497 62.7303 88.3225 62.5014C88.148 62.2726 88.05 61.9622 88.05 61.6386V11.0922ZM88.9804 65.3085H89.9883C90.3493 65.3085 90.7068 65.2152 91.0403 65.0341C91.3738 64.8529 91.6768 64.5873 91.9321 64.2526C92.1873 63.9178 92.3898 63.5204 92.528 63.083C92.6661 62.6456 92.7372 62.1768 92.7372 61.7033V11.0922C92.7354 10.1368 92.4452 9.22126 91.93 8.54569C91.4149 7.87011 90.7168 7.4895 89.9883 7.48706H88.9804C88.2519 7.4895 87.5538 7.87011 87.0386 8.54569C86.5235 9.22126 86.2333 10.1368 86.2314 11.0922V61.6663C86.2314 62.6225 86.5211 63.5395 87.0366 64.2156C87.5521 64.8917 88.2513 65.2715 88.9804 65.2715" fill="#25343F"/>
<path opacity="0.5" d="M96.7904 11.0923C96.7894 10.9329 96.8127 10.7749 96.8587 10.6274C96.9048 10.4799 96.9728 10.3459 97.0587 10.2333C97.1446 10.1206 97.2468 10.0314 97.3593 9.97098C97.4717 9.91056 97.5922 9.88008 97.7137 9.88131H98.7216C98.8435 9.88009 98.9643 9.91051 99.0772 9.97082C99.19 10.0311 99.2926 10.1201 99.3791 10.2327C99.4656 10.3453 99.5343 10.4792 99.5811 10.6267C99.6279 10.7742 99.6521 10.9325 99.6521 11.0923V61.6664C99.6465 61.9852 99.5461 62.2885 99.3722 62.5113C99.1983 62.7342 98.9648 62.8589 98.7216 62.8589H97.7137C97.5919 62.8589 97.4712 62.8272 97.3587 62.7658C97.2462 62.7044 97.1441 62.6143 97.0583 62.5009C96.9725 62.3875 96.9046 62.2529 96.8586 62.1049C96.8126 61.9569 96.7894 61.7985 96.7904 61.6387V11.0923ZM97.7137 65.3085H98.7216C99.0826 65.3085 99.4401 65.2153 99.7736 65.0341C100.107 64.8529 100.41 64.5874 100.665 64.2526C100.921 63.9178 101.123 63.5204 101.261 63.083C101.399 62.6456 101.471 62.1768 101.471 61.7034V11.0923C101.469 10.1369 101.178 9.22131 100.663 8.54573C100.148 7.87016 99.4501 7.48955 98.7216 7.48711H97.7137C96.9852 7.48955 96.2871 7.87016 95.772 8.54573C95.2569 9.22131 94.9667 10.1369 94.9648 11.0923V61.6664C94.9648 62.6225 95.2544 63.5395 95.7699 64.2156C96.2855 64.8917 96.9847 65.2716 97.7137 65.2716" fill="#25343F"/>
<path opacity="0.5" d="M105.523 11.0923C105.52 10.9317 105.54 10.7718 105.584 10.6218C105.628 10.4718 105.694 10.3347 105.779 10.2186C105.863 10.1024 105.965 10.0095 106.077 9.94527C106.189 9.88102 106.31 9.84671 106.433 9.84433H107.441C107.566 9.84042 107.69 9.87017 107.806 9.93174C107.922 9.99331 108.027 10.0854 108.115 10.2023C108.203 10.3193 108.272 10.4586 108.317 10.6116C108.362 10.7647 108.383 10.9283 108.378 11.0923V61.6664C108.374 61.9843 108.275 62.2876 108.103 62.5107C107.93 62.7339 107.697 62.8589 107.455 62.8589H106.433C106.187 62.8564 105.952 62.7268 105.779 62.4982C105.606 62.2696 105.509 61.9607 105.509 61.6386L105.523 11.0923ZM106.433 65.2716H107.441C108.17 65.2716 108.869 64.8917 109.384 64.2156C109.9 63.5395 110.189 62.6225 110.189 61.6664V11.0923C110.188 10.1369 109.897 9.22131 109.382 8.54573C108.867 7.87016 108.169 7.48955 107.441 7.48711H106.433C105.704 7.48955 105.006 7.87016 104.491 8.54573C103.976 9.22131 103.686 10.1369 103.684 11.0923V61.6664C103.684 62.6225 103.973 63.5395 104.489 64.2156C105.004 64.8917 105.704 65.2716 106.433 65.2716" fill="#25343F"/>
<path opacity="0.5" d="M114.256 11.0923C114.256 10.7711 114.353 10.4631 114.526 10.236C114.7 10.0089 114.934 9.88131 115.179 9.88131H116.187C116.309 9.88009 116.43 9.91051 116.543 9.97082C116.656 10.0311 116.758 10.1201 116.845 10.2327C116.931 10.3453 117 10.4792 117.047 10.6267C117.094 10.7742 117.118 10.9325 117.118 11.0923V61.6664C117.112 61.9852 117.012 62.2885 116.838 62.5113C116.664 62.7342 116.43 62.8589 116.187 62.8589H115.179C114.934 62.8564 114.699 62.7268 114.526 62.4982C114.353 62.2696 114.256 61.9607 114.256 61.6386V11.0923ZM115.179 65.3085H116.187C116.548 65.3097 116.906 65.2173 117.24 65.0366C117.574 64.8558 117.878 64.5903 118.133 64.2553C118.389 63.9203 118.591 63.5224 118.729 63.0844C118.867 62.6465 118.937 62.1771 118.936 61.7034V11.0923C118.936 10.1361 118.647 9.21914 118.131 8.54304C117.615 7.86694 116.916 7.48711 116.187 7.48711H115.179C114.451 7.48955 113.753 7.87016 113.238 8.54573C112.722 9.22131 112.432 10.1369 112.43 11.0923V61.6664C112.43 62.6225 112.72 63.5395 113.236 64.2156C113.751 64.8917 114.45 65.2715 115.179 65.2715" fill="#25343F"/>
<path opacity="0.5" d="M122.99 11.0923C122.99 10.7711 123.087 10.4631 123.26 10.236C123.433 10.0089 123.668 9.88131 123.913 9.88131H124.928C125.173 9.88131 125.408 10.0089 125.581 10.236C125.754 10.4631 125.851 10.7711 125.851 11.0923V61.6664C125.846 61.9836 125.746 62.2855 125.574 62.5081C125.402 62.7307 125.17 62.8565 124.928 62.8589H123.913C123.667 62.8564 123.433 62.7268 123.26 62.4982C123.087 62.2697 122.99 61.9607 122.99 61.6387V11.0923ZM123.913 65.3085H124.928C125.289 65.3085 125.646 65.2153 125.98 65.0341C126.313 64.8529 126.617 64.5874 126.872 64.2526C127.127 63.9178 127.33 63.5204 127.468 63.083C127.606 62.6456 127.677 62.1768 127.677 61.7034V11.0923C127.675 10.1369 127.385 9.22131 126.87 8.54573C126.355 7.87016 125.656 7.48955 124.928 7.48711H123.913C123.185 7.48955 122.486 7.87016 121.971 8.54573C121.456 9.22131 121.166 10.1369 121.164 11.0923V61.6664C121.164 62.6225 121.454 63.5395 121.969 64.2156C122.485 64.8917 123.184 65.2716 123.913 65.2716" fill="#25343F"/>
<path opacity="0.5" d="M131.723 11.0923C131.723 10.9325 131.747 10.7742 131.793 10.6267C131.84 10.4792 131.909 10.3453 131.995 10.2327C132.082 10.1201 132.185 10.0311 132.297 9.97082C132.41 9.91051 132.531 9.88009 132.653 9.88131H133.661C133.906 9.88131 134.141 10.0089 134.314 10.236C134.487 10.4631 134.584 10.7711 134.584 11.0923V61.6664C134.579 61.9836 134.479 62.2855 134.307 62.5081C134.134 62.7307 133.903 62.8565 133.661 62.8589H132.653C132.406 62.8589 132.169 62.7303 131.995 62.5015C131.821 62.2726 131.723 61.9623 131.723 61.6387V11.0923ZM132.653 65.3085H133.661C134.022 65.3085 134.379 65.2153 134.713 65.0341C135.046 64.8529 135.349 64.5874 135.605 64.2526C135.86 63.9178 136.062 63.5204 136.201 63.083C136.339 62.6456 136.41 62.1768 136.41 61.7034V11.0923C136.408 10.1369 136.118 9.22131 135.603 8.54573C135.087 7.87016 134.389 7.48955 133.661 7.48711H132.653C131.924 7.48955 131.226 7.87016 130.711 8.54573C130.196 9.22131 129.906 10.1369 129.904 11.0923V61.6664C129.904 62.6225 130.194 63.5395 130.709 64.2156C131.225 64.8917 131.924 65.2716 132.653 65.2716" fill="#25343F"/>
<path opacity="0.5" d="M140.463 11.0923C140.462 10.9329 140.485 10.7749 140.532 10.6274C140.578 10.4799 140.646 10.3459 140.731 10.2333C140.817 10.1206 140.92 10.0314 141.032 9.97098C141.144 9.91056 141.265 9.88008 141.386 9.88131H142.38C142.503 9.87759 142.625 9.90623 142.739 9.96554C142.853 10.0248 142.957 10.1136 143.045 10.2266C143.132 10.3395 143.201 10.4743 143.248 10.623C143.295 10.7718 143.319 10.9313 143.318 11.0923V61.6664C143.316 61.8254 143.29 61.9824 143.242 62.1284C143.194 62.2744 143.124 62.4066 143.037 62.5173C142.95 62.628 142.848 62.7152 142.735 62.7738C142.622 62.8324 142.502 62.8613 142.38 62.8589H141.372C141.251 62.8589 141.13 62.8272 141.017 62.7658C140.905 62.7044 140.803 62.6143 140.717 62.5009C140.631 62.3875 140.563 62.2529 140.517 62.1049C140.471 61.9569 140.448 61.7985 140.449 61.6387L140.463 11.0923ZM141.386 65.3085H142.38C142.741 65.3085 143.099 65.2153 143.432 65.0341C143.766 64.8529 144.069 64.5874 144.324 64.2526C144.579 63.9178 144.782 63.5204 144.92 63.083C145.058 62.6456 145.129 62.1768 145.129 61.7034V11.0923C145.127 10.1369 144.837 9.22131 144.322 8.54573C143.807 7.87016 143.109 7.48955 142.38 7.48711H141.372C140.644 7.48955 139.946 7.87016 139.431 8.54573C138.916 9.22131 138.625 10.1369 138.623 11.0923V61.6664C138.623 62.6225 138.913 63.5395 139.429 64.2156C139.944 64.8917 140.643 65.2716 141.372 65.2716" fill="#25343F"/>
<path opacity="0.5" d="M148.505 67.2041H3.90488V5.12119H148.505V67.2041ZM148.505 78.0751H3.90488V69.6168H148.505V78.0751ZM148.505 0H3.90488C2.86924 0 1.87602 0.539553 1.14371 1.49996C0.411405 2.46037 0 3.76297 0 5.12119L0 78.0751C0 79.4333 0.411405 80.7359 1.14371 81.6963C1.87602 82.6568 2.86924 83.1963 3.90488 83.1963H148.505C149.541 83.1963 150.534 82.6568 151.266 81.6963C151.999 80.7359 152.41 79.4333 152.41 78.0751V5.12119C152.41 3.76297 151.999 2.46037 151.266 1.49996C150.534 0.539553 149.541 0 148.505 0" fill="#25343F"/>
</svg>
