<svg width="21" height="21" viewBox="0 0 21 21" fill="none" xmlns="http://www.w3.org/2000/svg">
<path opacity="0.6" fill-rule="evenodd" clip-rule="evenodd" d="M0.916986 0.0291523C0.696117 0.120118 0.697266 0.109237 0.697266 2.08171V3.90674H1.0459H1.39453V2.30171V0.696678H2.78906H4.18359V1.59433C4.18359 2.64622 4.20652 2.74895 4.45717 2.81969C4.675 2.88118 7.28593 2.87998 7.45996 2.81832C7.69072 2.73652 7.71094 2.63976 7.71094 1.61592V0.696678H9.10547H10.5V2.30171V3.90674H10.8486H11.1973V2.30171V0.696678H12.5918H13.9863V1.61592C13.9863 2.66878 14.0045 2.74761 14.2633 2.82065C14.4686 2.8786 17.0314 2.8786 17.2367 2.82065C17.4955 2.74761 17.5137 2.66878 17.5137 1.61592V0.696678H18.9082H20.3027V3.90674V7.11679H17.2699H14.237L14.1219 7.21739L14.0068 7.31803V8.53422V9.75042L14.1219 9.85105L14.237 9.95165H15.75H17.263L17.3781 9.85109L17.4932 9.75058L17.5056 8.78802L17.518 7.82551H18.9103H20.3027V11.0356V14.2456H18.375H16.4473V14.6011V14.9565L18.6247 14.945L20.8021 14.9335L20.901 14.8165L21 14.6995V7.47115V0.242767L20.901 0.125788L20.802 0.00880801L10.9035 0.000887081C5.38166 -0.00353196 0.966 0.00897476 0.916986 0.0291523ZM7.0044 1.41581L7.01564 2.11411H5.94825H4.88086V1.4332C4.88086 1.05866 4.89349 0.73945 4.90887 0.723775C4.92429 0.7081 5.39958 0.700263 5.96503 0.706391L6.99316 0.717522L7.0044 1.41581ZM16.8071 1.41581L16.8184 2.11411H15.751H14.6836V1.4332C14.6836 1.05866 14.6962 0.73945 14.7116 0.723775C14.727 0.7081 15.2023 0.700263 15.7678 0.706391L16.7959 0.717522L16.8071 1.41581ZM0.119889 4.73731L0 4.85916V12.8018V20.7444L0.0989707 20.8614L0.197982 20.9784L6.61689 20.9892L13.0358 21L13.1624 20.8917L13.2891 20.7834V20.266C13.2891 19.9814 13.3027 19.7486 13.3193 19.7486C13.3359 19.7486 13.5993 20.002 13.9047 20.3118L14.4598 20.8749L14.7039 20.6243L14.9479 20.3736L13.7925 19.196C12.4196 17.7968 12.4072 17.7781 12.4072 17.1013C12.4072 16.5997 12.4672 16.4148 12.7616 16.0095C12.9339 15.7722 12.9633 15.706 12.9428 15.6009C12.9248 15.5089 12.6861 15.2391 12.0476 14.5892L11.1768 13.703V13.5169C11.1768 13.2831 11.283 13.1645 11.5217 13.1319L11.694 13.1084L12.5441 13.9688L13.3941 14.8293L13.6378 14.579L13.8815 14.3287L13.5838 14.0241L13.2861 13.7195L13.2978 13.2634L13.3096 12.8073L13.7402 12.7944C14.5445 12.7702 14.7858 12.8509 14.9604 13.2021C15.0518 13.3858 15.0527 13.4065 15.0527 15.1174V16.847L15.9851 17.7979L16.9173 18.7488L17.1638 18.4983L17.4104 18.2477L16.5815 17.4036L15.7526 16.5594L15.7411 14.871L15.7295 13.1826L15.6214 12.9483C15.4112 12.4926 15.0574 12.2112 14.5838 12.1231C14.4499 12.0982 14.1038 12.0778 13.8147 12.0778H13.2891L13.2877 8.46126C13.2864 4.63625 13.2931 4.77016 13.0969 4.66393C13.0299 4.62766 11.3983 4.61545 6.62357 4.61545H0.239777L0.119889 4.73731ZM3.85547 5.67664V6.02913L2.72393 6.04142L1.59239 6.05372L1.49346 6.1707L1.39453 6.28768V12.7653C1.39453 16.9551 1.40893 19.2814 1.4353 19.3518C1.52504 19.5917 1.32025 19.5831 6.65388 19.5716L11.5459 19.561L11.5578 19.2172L11.5697 18.8734L6.841 18.8629L2.1123 18.8523V12.8073V6.76244L2.98159 6.75118L3.85092 6.73997L3.92971 6.92102C4.02749 7.14568 4.2404 7.35459 4.42969 7.41158C4.52324 7.43972 5.32559 7.45035 6.73333 7.44213L8.89342 7.42946L9.07122 7.30256C9.18836 7.21893 9.28401 7.10183 9.35156 6.95925L9.4541 6.7428L10.3257 6.74222L11.1973 6.74159V9.24293V11.7443H11.5459H11.8945V9.01598V6.28768L11.7956 6.1707L11.6967 6.05372L10.5635 6.04142L9.43035 6.02908L9.44221 5.68707L9.4541 5.34501L11.0229 5.33409L12.5918 5.32316V9.16806V13.013L12.3765 12.7999C12.0623 12.4892 11.9358 12.4333 11.5459 12.4333C11.1831 12.4333 11.032 12.4906 10.7938 12.7182C10.557 12.9445 10.4809 13.1384 10.4808 13.5161C10.4807 13.7608 10.5009 13.8884 10.5567 13.9955C10.5985 14.0757 10.9656 14.4827 11.3726 14.8997L12.1123 15.6581L11.9636 15.9458C11.7666 16.3268 11.6895 16.6462 11.6895 17.0805C11.6895 17.7292 11.8862 18.2258 12.3354 18.7108L12.5918 18.9875V19.639V20.2905H6.64453H0.697266V12.8073V5.32416H2.27637H3.85547V5.67664ZM8.72706 6.02245L8.71582 6.72075L6.69022 6.73159C5.22859 6.73938 4.64904 6.72925 4.60868 6.69519C4.56574 6.65896 4.55273 6.49425 4.55273 5.9861V5.32416H6.64552H8.7383L8.72706 6.02245ZM17.5137 6.05372V6.40808H17.8623H18.2109V6.05372V5.69936H17.8623H17.5137V6.05372ZM18.9082 6.05372V6.40808H19.2568H19.6055V6.05372V5.69936H19.2568H18.9082V6.05372ZM16.8164 8.53422V9.24293H15.75H14.6836V8.53422V7.82551H15.75H16.8164V8.53422ZM6.31641 9.26378V9.61814H8.22363H10.1309V9.26378V8.90942H8.22363H6.31641V9.26378ZM4.41984 9.60692L3.8567 10.1793L3.63944 9.96128C3.51996 9.84134 3.40372 9.7432 3.38108 9.7432C3.35848 9.7432 3.23958 9.84651 3.1169 9.97279L2.89382 10.2024L3.28002 10.5966C3.68037 11.0052 3.81511 11.0807 3.98635 10.9922C4.03844 10.9653 4.39925 10.6221 4.7882 10.2294L5.49536 9.51558L5.26116 9.27504C5.13237 9.14271 5.01707 9.03449 5.00501 9.03449C4.99291 9.03449 4.72959 9.29209 4.41984 9.60692ZM6.31641 10.6812V11.0356H7.875H9.43359V10.6812V10.3269H7.875H6.31641V10.6812ZM6.31641 12.0986V12.453H8.22363H10.1309V12.0986V11.7443H8.22363H6.31641V12.0986ZM4.41984 12.4418L3.8567 13.0142L3.63001 12.7866L3.40331 12.559L3.1566 12.8098L2.90994 13.0605L3.31542 13.4655C3.88869 14.0379 3.80867 14.0578 4.74518 13.1109L5.49634 12.3515L5.26169 12.1104C5.13257 11.9778 5.01707 11.8693 5.00501 11.8693C4.99291 11.8693 4.72959 12.1269 4.41984 12.4418ZM17.5137 13.1617V13.5403L17.8521 13.5282L18.1904 13.5161V13.1617V12.8073L17.8521 12.7953L17.5137 12.7831V13.1617ZM18.9082 13.1617V13.5403L19.2466 13.5282L19.585 13.5161V13.1617V12.8073L19.2466 12.7953L18.9082 12.7831V13.1617ZM6.31641 13.5161V13.8704H7.875H9.43359V13.5161V13.1617H7.875H6.31641V13.5161ZM6.31641 14.9335V15.2878H8.22363H10.1309V14.9335V14.5791H8.22363H6.31641V14.9335ZM4.41984 15.2766L3.8567 15.849L3.63001 15.6215L3.40331 15.3939L3.15742 15.6438L2.91154 15.8938L3.29364 16.2995C3.85284 16.8934 3.79366 16.9078 4.74518 15.9458L5.49634 15.1863L5.26169 14.9452C5.13257 14.8127 5.01707 14.7042 5.00501 14.7042C4.99291 14.7042 4.72959 14.9618 4.41984 15.2766ZM6.31641 16.3509V16.7053H7.875H9.43359V16.3509V15.9966H7.875H6.31641V16.3509Z" fill="#25343F"/>
</svg>
