<svg width="55" height="53" viewBox="0 0 55 53" fill="none" xmlns="http://www.w3.org/2000/svg">
<path fill-rule="evenodd" clip-rule="evenodd" d="M46.5962 0.164226C47.8407 0.504186 48.7739 1.14157 49.6248 2.23281C50.1441 2.89878 50.1839 3.30871 49.777 3.79929L49.4906 4.1446V9.32884C49.4906 13.9557 49.5099 14.5132 49.6699 14.5132C49.982 14.5132 51.0328 15.6921 51.1843 16.2119C51.505 17.3131 51.2399 18.3026 50.4143 19.0861C49.2484 20.1924 47.6437 20.1176 46.5707 18.9067C45.9536 18.2106 45.8685 17.6358 46.3189 17.2066C46.7581 16.7881 47.2005 16.8725 47.736 17.4769C48.2902 18.1028 48.7532 18.1774 49.2094 17.7146C49.7777 17.1381 49.375 16.1403 48.5741 16.1403C48.351 16.1403 48.1161 16.0349 47.9389 15.855L47.6576 15.5698V10.3828C47.6576 7.5299 47.6135 5.21318 47.5597 5.23456C47.5057 5.25583 40.1887 9.79734 31.2995 15.3268L15.1373 25.3803L16.1626 25.4694C18.2457 25.6506 19.9012 26.4311 21.3758 27.927C22.4085 28.9747 23.0103 29.9607 23.4628 31.3465C23.7346 32.1789 23.7571 32.4228 23.803 35.0495L23.8522 37.8614L23.5593 38.1586L23.2664 38.4556H20.7981H18.3299V39.3854V40.3152H28.4113H38.4927V33.1622V26.0089L38.782 25.7155L39.0712 25.422L43.6795 25.4634C48.2798 25.5046 48.2892 25.5052 49.1661 25.8048C50.5411 26.2746 51.5078 26.8833 52.5366 27.927C53.5626 28.9679 54.1611 29.9447 54.6318 31.3465L54.931 32.2376L54.9655 40.17L55 48.1024L54.7136 48.3929L54.4272 48.6835H51.4433C48.9979 48.6835 48.4596 48.7121 48.4596 48.8422C48.4596 48.9295 48.2786 49.3679 48.0575 49.8164C46.3729 53.2324 41.6124 53.2367 39.9294 49.8237C39.7064 49.3712 39.5238 48.9295 39.5238 48.8422C39.5238 48.7165 39.2257 48.6835 38.0917 48.6835H36.6597V49.328C36.6597 49.8574 36.6094 50.0236 36.3785 50.2578L36.0973 50.5431H32.0773H28.0572L27.776 50.2578C27.5451 50.0236 27.4948 49.8574 27.4948 49.328V48.6835H26.521C25.7744 48.6835 25.5472 48.7206 25.5472 48.8422C25.5472 48.9295 25.3662 49.3679 25.1451 49.8164C23.4606 53.2324 18.7001 53.2367 17.0171 49.8237C16.794 49.3712 16.6114 48.9295 16.6114 48.8422C16.6114 48.7161 16.3044 48.6835 15.1221 48.6835C13.9399 48.6835 13.6328 48.7161 13.6328 48.8422C13.6328 48.9295 13.4518 49.3679 13.2307 49.8164C11.5462 53.2324 6.78571 53.2367 5.10269 49.8237C4.87964 49.3712 4.69703 48.9295 4.69703 48.8422C4.69703 48.7139 4.30053 48.6835 2.62976 48.6835C0.587587 48.6835 0.558946 48.68 0.281249 48.3982L1.73849e-06 48.1129V44.4994V40.8858L0.281249 40.6006L0.562384 40.3152H3.48897H6.41545V39.3854V38.4556H3.94722C1.47922 38.4556 1.47888 38.4556 1.19774 38.1703L0.916495 37.8851V31.947V26.0089L1.19774 25.7237C1.42847 25.4895 1.59252 25.4384 2.1124 25.4384C2.73367 25.4384 2.81364 25.3962 6.27042 23.2461C14.561 18.0897 22.5807 13.1045 30.187 8.37939C34.6606 5.60021 39.223 2.76407 40.3257 2.07683C41.4283 1.38959 42.5481 0.715949 42.814 0.579965C43.9417 0.00278899 45.4136 -0.158997 46.5962 0.164226ZM44.0489 2.05405C43.5837 2.21805 6.84689 24.9816 6.47846 25.3342C6.41408 25.3958 7.42314 25.4384 8.94635 25.4384H11.5232L16.9599 22.056C19.9502 20.1957 23.4279 18.0328 24.688 17.2496C33.0108 12.0768 47.6079 2.97909 47.6454 2.94155C47.8097 2.77616 46.7424 2.13227 46.0099 1.95491C45.3962 1.80626 44.6442 1.84427 44.0489 2.05405ZM44.9082 30.8661V34.4344L45.6106 35.5151L46.3131 36.596H49.7349H53.1566V34.9321C53.1566 32.8614 53.0314 32.1419 52.4614 30.9371C51.8555 29.6563 50.8712 28.6592 49.5722 28.0106C48.4368 27.4435 47.8794 27.328 46.197 27.311L44.9082 27.298V30.8661ZM40.3257 30.5523V33.8066H41.7004H43.0752V30.5523V27.298H41.7004H40.3257V30.5523ZM11.9144 30.0874V32.8768H14.8409H17.7675L18.0486 33.1622C18.3196 33.4369 18.3299 33.5051 18.3299 35.0218V36.596H20.1628H21.9958V34.9321C21.9958 32.8614 21.8706 32.1419 21.3007 30.9371C20.6948 29.6563 19.7104 28.6592 18.4114 28.0106C17.1833 27.3973 16.7496 27.3265 14.1197 27.311L11.9144 27.298V30.0874ZM2.74948 31.947V36.596H9.62318H16.4969V35.6662V34.7364H13.5704H10.6438L10.3627 34.4511L10.0814 34.1659V30.7319V27.298H6.41545H2.74948V31.947ZM40.3257 37.9907V40.3152H46.7411H53.1566V39.3854V38.4556H49.3685C47.2198 38.4556 45.4932 38.4083 45.379 38.3463C45.2681 38.2861 44.8005 37.6584 44.3398 36.9516L43.5021 35.6662H41.9139H40.3257V37.9907ZM8.24844 39.3854V40.3152H12.3727H16.4969V39.3854V38.4556H12.3727H8.24844V39.3854ZM1.83299 44.4994V46.8239H3.26501C4.39894 46.8239 4.69703 46.7909 4.69703 46.6651C4.69703 46.5778 4.87964 46.1362 5.10269 45.6837C6.47319 42.9046 10.0354 42.2633 12.3061 44.387C12.7932 44.8423 13.6328 46.2842 13.6328 46.6651C13.6328 46.7912 13.9399 46.8239 15.1221 46.8239C16.3044 46.8239 16.6114 46.7912 16.6114 46.6651C16.6114 46.5778 16.794 46.1362 17.0171 45.6837C18.3876 42.9046 21.9498 42.2633 24.2205 44.387C24.7076 44.8423 25.5472 46.2842 25.5472 46.6651C25.5472 46.7868 25.7744 46.8239 26.521 46.8239H27.4948V46.1794C27.4948 45.65 27.5451 45.4838 27.776 45.2496L28.0572 44.9643H32.0773H36.0973L36.3785 45.2496C36.6094 45.4838 36.6597 45.65 36.6597 46.1794V46.8239H38.0917C39.2257 46.8239 39.5238 46.7909 39.5238 46.6651C39.5238 46.5778 39.7064 46.1362 39.9294 45.6837C41.2999 42.9046 44.8621 42.2633 47.1328 44.387C47.6199 44.8423 48.4596 46.2842 48.4596 46.6651C48.4596 46.7941 48.8996 46.8239 50.8081 46.8239H53.1566V44.4994V42.1749H27.4948H1.83299V44.4994ZM43.1457 45.1056C42.1612 45.4007 41.2422 46.6792 41.2422 47.7537C41.2422 48.8282 42.1612 50.1067 43.1457 50.4018C44.2199 50.7237 45.0762 50.4967 45.8858 49.6754C47.0448 48.4995 47.0448 47.0091 45.8858 45.8307C45.0822 45.0137 44.2165 44.7846 43.1457 45.1056ZM20.2334 45.1056C19.2489 45.4007 18.3299 46.6792 18.3299 47.7537C18.3299 49.1938 19.6598 50.5431 21.0793 50.5431C21.7999 50.5431 22.3802 50.2773 22.9735 49.6754C24.1325 48.4995 24.1325 47.0091 22.9735 45.8307C22.1698 45.0137 21.3042 44.7846 20.2334 45.1056ZM8.31901 45.1056C7.33446 45.4007 6.41545 46.6792 6.41545 47.7537C6.41545 49.1938 7.7454 50.5431 9.16493 50.5431C9.88552 50.5431 10.4658 50.2773 11.0591 49.6754C12.2181 48.4995 12.2181 47.0091 11.0591 45.8307C10.2554 45.0137 9.38981 44.7846 8.31901 45.1056ZM44.6269 47.1092C45.1952 47.6857 44.7926 48.6835 43.9917 48.6835C43.5207 48.6835 43.0752 48.2315 43.0752 47.7537C43.0752 47.2759 43.5207 46.8239 43.9917 46.8239C44.2148 46.8239 44.4497 46.9293 44.6269 47.1092ZM29.3278 47.7537V48.6835H32.0773H34.8267V47.7537V46.8239H32.0773H29.3278V47.7537ZM21.7146 47.1092C21.8919 47.289 21.9958 47.5273 21.9958 47.7537C21.9958 47.9801 21.8919 48.2184 21.7146 48.3982C21.5374 48.5781 21.3025 48.6835 21.0793 48.6835C20.8562 48.6835 20.6213 48.5781 20.4441 48.3982C20.2668 48.2184 20.1628 47.9801 20.1628 47.7537C20.1628 47.5273 20.2668 47.289 20.4441 47.1092C20.6213 46.9293 20.8562 46.8239 21.0793 46.8239C21.3025 46.8239 21.5374 46.9293 21.7146 47.1092ZM9.80018 47.1092C9.97752 47.289 10.0814 47.5273 10.0814 47.7537C10.0814 47.9801 9.97752 48.2184 9.80018 48.3982C9.62295 48.5781 9.3881 48.6835 9.16493 48.6835C8.94176 48.6835 8.70691 48.5781 8.52968 48.3982C8.35234 48.2184 8.24844 47.9801 8.24844 47.7537C8.24844 47.5273 8.35234 47.289 8.52968 47.1092C8.70691 46.9293 8.94176 46.8239 9.16493 46.8239C9.3881 46.8239 9.62295 46.9293 9.80018 47.1092Z" fill="#D41D12"/>
</svg>
