<svg width="50" height="49" viewBox="0 0 50 49" fill="none" xmlns="http://www.w3.org/2000/svg">
<path d="M3.86079 49C3.66901 48.9358 3.47723 48.8658 3.28545 48.8082C1.43188 48.2856 0.0424325 46.5145 0.0405147 44.5977C0.0322042 34.7881 0.030606 24.9791 0.0357201 15.1708C0.0357201 14.6252 0.323391 14.2992 0.775994 14.3145C1.2286 14.3299 1.46736 14.6463 1.46736 15.2178C1.46736 24.8829 1.46736 34.548 1.46736 44.2131C1.46736 45.7896 2.27093 46.9758 3.64791 47.3948C4.01421 47.5055 4.39482 47.5618 4.7775 47.5616C11.1254 47.5712 17.4731 47.5732 23.8204 47.5674C25.5809 47.5674 26.8889 46.4503 27.0653 44.7664C26.8659 44.7559 26.6683 44.7377 26.4708 44.7377C20.027 44.7377 13.5834 44.7358 7.14024 44.7319C6.77455 44.746 6.40854 44.7138 6.05093 44.636C4.98079 44.357 4.26832 43.4153 4.26736 42.257C4.25841 36.1641 4.25841 30.0712 4.26736 23.9784C4.26736 22.5966 5.24065 21.6051 6.61476 21.5101C6.82093 21.4958 7.02901 21.4986 7.23613 21.4986H27.119V20.9233C27.119 15.5637 27.119 10.2047 27.119 4.8463C27.119 2.74342 25.8216 1.44507 23.7207 1.44219C22.6524 1.44219 21.5833 1.45849 20.515 1.4326C20.1746 1.42397 20.003 1.54863 19.8563 1.83151C19.5859 2.35411 19.2809 2.85753 18.9933 3.37534C18.4544 4.36493 17.6057 4.8463 16.5001 4.85973C15.033 4.87763 13.5659 4.87763 12.0987 4.85973C10.9701 4.84726 10.1167 4.35151 9.5749 3.34082C9.28147 2.79361 8.97462 2.25374 8.65435 1.72123C8.58339 1.60425 8.43572 1.45466 8.32353 1.4537C6.93695 1.4489 5.54271 1.36356 4.16572 1.50836C2.50586 1.68479 1.48079 2.99945 1.47024 4.69192C1.46257 7.16397 1.47024 9.63603 1.46257 12.1081C1.46257 12.3219 1.45298 12.6153 1.32257 12.7304C1.13079 12.8963 0.804761 13.0468 0.58709 12.9941C0.369419 12.9414 0.0654462 12.6201 0.0625694 12.4197C0.0357201 9.59671 -0.0841429 6.76219 0.102843 3.95452C0.260104 1.59562 2.28723 0 4.66819 0C11.0813 0 17.4929 0 23.9028 0C26.582 0 28.5478 1.96384 28.5506 4.64877C28.5564 10.071 28.5564 15.4937 28.5506 20.9166V21.4919H38.3411C40.2196 21.4919 41.1622 22.4384 41.1622 24.3188C41.1622 30.2352 41.1622 36.1523 41.1622 42.07C41.1622 43.3645 40.5283 44.3042 39.4074 44.6149C39.0459 44.7156 38.6527 44.7195 38.273 44.7271C37.5059 44.7434 36.7387 44.7396 35.9764 44.7271C35.4231 44.7195 35.0913 44.4299 35.098 43.9945C35.1048 43.5592 35.4509 43.2744 35.9927 43.2705C36.8385 43.2648 37.6833 43.2705 38.529 43.2705C39.3546 43.2705 39.6797 42.9426 39.6854 42.1074C39.6912 40.1138 39.6854 38.1203 39.6854 36.1267C39.6854 32.1716 39.6854 28.2161 39.6854 24.2603C39.6854 23.2371 39.4026 22.9552 38.3823 22.9552H7.04435C6.0212 22.9552 5.73545 23.2371 5.73449 24.2564C5.73449 30.1575 5.73449 36.0589 5.73449 41.9607C5.73449 42.9848 6.02216 43.2705 7.03668 43.2705H32.4917C32.6516 43.2636 32.8116 43.2658 32.9712 43.2773C33.3912 43.3242 33.6424 43.5649 33.6827 43.9849C33.7191 44.3685 33.4037 44.706 32.9626 44.7175C32.0037 44.7415 31.0448 44.73 30.0926 44.7319H28.7674C28.3713 45.6036 28.0961 46.4388 27.6387 47.1599C27.0375 48.1101 26.0853 48.6442 24.9874 48.8993C24.8993 48.9254 24.8131 48.9574 24.7294 48.9952L3.86079 49ZM10.179 1.45274C10.4849 1.9811 10.7074 2.48164 11.042 2.89589C11.2271 3.12699 11.5886 3.34082 11.8763 3.34849C13.4824 3.39164 15.0905 3.38973 16.6967 3.34849C17.0093 3.32521 17.3004 3.18068 17.5079 2.94575C17.856 2.50658 18.1005 1.98685 18.417 1.4489L10.179 1.45274Z" fill="#D41D12"/>
<path d="M49.0329 33.8781C48.8412 34.4621 48.7088 35.0758 48.4375 35.6204C48.1661 36.1651 47.7931 36.6378 47.4076 37.0981C47.0969 37.4692 46.6673 37.4625 46.3528 37.171C46.0565 36.8967 46.044 36.4518 46.3749 36.1076C47.1514 35.3024 47.5849 34.2272 47.584 33.1086C47.5831 31.99 47.1479 30.9154 46.3701 30.1115C46.0412 29.7702 46.0584 29.3291 46.3576 29.0481C46.6568 28.7671 47.0749 28.7748 47.4124 29.121C48.1987 29.9197 48.7278 30.9357 48.9313 32.038C48.9577 32.1428 48.9897 32.2462 49.0272 32.3477L49.0329 33.8781Z" fill="#D41D12"/>
<path d="M20.6254 13.4438C20.6197 16.9016 17.7871 19.7054 14.2967 19.7064C10.789 19.7064 7.95065 16.8824 7.96791 13.4026C7.98517 9.9227 10.8072 7.16969 14.3657 7.17928C16.0255 7.18333 17.616 7.8448 18.7892 9.01888C19.9624 10.193 20.6227 11.784 20.6254 13.4438V13.4438ZM9.40627 13.4294C9.40627 16.0846 11.6357 18.2786 14.312 18.2537C17.0037 18.2297 19.1775 16.0789 19.1794 13.439C19.1794 10.7809 16.9624 8.59846 14.2746 8.61188C11.5868 8.6253 9.40915 10.7963 9.40723 13.4294H9.40627Z" fill="#D41D12"/>
<path d="M11.9473 36.9389C11.2147 36.9389 10.4821 36.9456 9.74948 36.9389C8.83372 36.9293 8.174 36.2955 8.16441 35.3855C8.14971 33.8723 8.14971 32.3592 8.16441 30.846C8.17304 29.9341 8.83564 29.2955 9.7466 29.2907C11.2444 29.283 12.7416 29.283 14.2381 29.2907C15.1155 29.2964 15.7982 29.9447 15.8098 30.8182C15.8308 32.3474 15.8308 33.8765 15.8098 35.4056C15.7982 36.2801 15.1165 36.9255 14.24 36.9399C13.4767 36.9466 12.7115 36.9389 11.9473 36.9389ZM14.3704 33.8858C13.7817 33.8206 13.0663 33.9567 13.028 33.1618C12.9819 32.2508 13.7884 32.4273 14.3704 32.34C14.3704 31.8721 14.3925 31.4415 14.3561 31.0167C14.3465 30.9093 14.1518 30.7338 14.0406 30.729C12.6706 30.7086 11.3003 30.7086 9.92975 30.729C9.81852 30.729 9.62386 30.9026 9.61619 31.0071C9.58071 31.4473 9.60085 31.8912 9.60085 32.3419C10.1637 32.4244 10.8887 32.2403 10.9289 33.0544C10.975 33.9701 10.1819 33.8004 9.60085 33.8858C9.60085 34.347 9.57975 34.7766 9.61523 35.2023C9.63725 35.2722 9.67672 35.3353 9.72991 35.3856C9.7831 35.4359 9.84825 35.4719 9.9192 35.49C11.2895 35.5092 12.6598 35.5111 14.03 35.49C14.1451 35.49 14.3436 35.2906 14.3561 35.1688C14.3963 34.7622 14.3704 34.3479 14.3704 33.8858V33.8858Z" fill="#D41D12"/>
<path d="M17.5539 39.2556C20.313 39.2556 23.0721 39.2556 25.8312 39.2556C26.0345 39.2556 26.2953 39.2355 26.4276 39.3457C26.6194 39.5116 26.862 39.7993 26.8409 40.0102C26.816 40.2461 26.5532 40.4897 26.3336 40.6604C26.2061 40.7563 25.9654 40.7218 25.7756 40.7218C20.2734 40.7218 14.7712 40.7218 9.26899 40.7218C9.2057 40.7218 9.14145 40.7218 9.07721 40.7218C8.45967 40.7026 8.16145 40.46 8.16337 39.9815C8.16529 39.503 8.47885 39.2527 9.08392 39.2527C11.9076 39.2534 14.7309 39.2543 17.5539 39.2556Z" fill="#D41D12"/>
<path d="M33.5859 30.847C33.0163 30.8087 32.4352 30.8346 31.8791 30.7186C30.4877 30.4251 29.5154 29.1028 29.6304 27.746C29.7561 26.2702 30.8483 25.1444 32.3154 25.061C33.2055 25.0078 34.098 25.0097 34.9878 25.0668C35.7182 25.1253 36.398 25.4625 36.8864 26.0086C37.3748 26.5547 37.6344 27.2678 37.6114 28.0001C37.5395 29.5535 36.3044 30.7809 34.7826 30.8068C34.3847 30.8135 33.9858 30.8068 33.5878 30.8068L33.5859 30.847ZM33.6377 26.4965C33.2868 26.4965 32.9358 26.4917 32.5829 26.4965C31.7381 26.508 31.1292 27.0718 31.0976 27.8581C31.0851 28.0461 31.1106 28.2347 31.1725 28.4127C31.2344 28.5906 31.3314 28.7543 31.4578 28.8941C31.5842 29.0338 31.7373 29.1467 31.9082 29.226C32.0791 29.3054 32.2642 29.3496 32.4525 29.356C33.2328 29.3981 34.0148 29.3981 34.7951 29.356C35.6207 29.309 36.1644 28.6579 36.1376 27.8476C36.1078 27.0805 35.5047 26.5138 34.6915 26.4984C34.3396 26.4907 33.9887 26.4965 33.6377 26.4965Z" fill="#D41D12"/>
<path d="M31.7916 40.7266C31.1376 40.7266 30.4836 40.7324 29.8297 40.7266C29.216 40.7189 28.8497 40.4245 28.866 39.971C28.8823 39.5174 29.2371 39.2595 29.8249 39.2576C31.1673 39.2576 32.5041 39.2518 33.8436 39.2576C34.3758 39.2576 34.6808 39.5261 34.6942 39.9614C34.7076 40.3967 34.4267 40.7026 33.8993 40.718C33.1983 40.7391 32.4954 40.7237 31.7945 40.7237L31.7916 40.7266Z" fill="#D41D12"/>
<path d="M45.6068 33.0889C45.6293 33.7849 45.3788 34.4622 44.9087 34.976C44.5625 35.3663 44.1608 35.4133 43.8203 35.1266C43.5058 34.861 43.4905 34.463 43.7781 34.0651C44.3084 33.3334 44.3103 32.8885 43.7849 32.1683C43.4828 31.7551 43.5068 31.3408 43.8462 31.0723C44.1857 30.8038 44.5664 30.8681 44.901 31.2363C45.3674 31.7391 45.6204 32.4032 45.6068 33.0889Z" fill="#D41D12"/>
<path d="M13.4325 14.2282C14.3789 13.2741 15.2755 12.3727 16.1692 11.4675C16.4329 11.201 16.7311 11.1041 17.0744 11.2758C17.2156 11.3369 17.3302 11.4467 17.3974 11.5852C17.4646 11.7236 17.48 11.8816 17.4407 12.0304C17.4008 12.1989 17.3163 12.3535 17.1962 12.4782C16.1452 13.5439 15.0869 14.6025 14.0212 15.6541C13.6108 16.0588 13.2666 16.0549 12.8562 15.6599C12.3518 15.174 11.8564 14.6786 11.3699 14.1736C11.0419 13.8322 11.0448 13.4064 11.3478 13.113C11.6508 12.8196 12.0449 12.834 12.3729 13.1447C12.7181 13.4755 13.0412 13.8274 13.4325 14.2282Z" fill="#D41D12"/>
</svg>
