<svg width="52" height="53" viewBox="0 0 52 53" fill="none" xmlns="http://www.w3.org/2000/svg">
<path d="M0 0.548225C0.282255 0.108559 0.686096 0 1.19415 0C8.48863 0.0130271 15.7817 0.0159221 23.0732 0.00868476C24.0134 0.00868476 24.2674 0.2562 24.2674 1.1833C24.2674 2.4643 24.2674 3.74566 24.2674 5.02739C24.2734 5.07558 24.2836 5.12316 24.2978 5.1696H27.7326V4.05361C27.7326 3.04292 27.7326 2.03223 27.7326 1.02154C27.7326 0.308309 28.0355 0.0173695 28.7585 0.00868476H50.7472C51.7666 0.00868476 52 0.234489 52 1.23215C52 6.21431 52 11.1961 52 16.1775C52 17.0786 51.7427 17.3359 50.8493 17.338H49.8722C50.6658 20.1389 49.8961 21.7293 47.4058 22.5424H51.9544V24.2739H0V22.537H4.58772C3.44676 22.2113 2.59132 21.5827 2.07132 20.5319C1.55132 19.481 1.6577 18.4117 2.16142 17.3695C1.4015 17.2175 0.533027 17.6463 0 16.7952L0 0.548225ZM20.8163 3.4891V15.5642H22.5055V1.77712H17.3076V13.8402H15.587V1.78146H12.9815V7.76635H11.2565V1.77061H5.1772V13.8446H3.46088V1.7782H1.77603V15.5783H6.94781V3.50104H8.66956V15.5718H19.0913V3.4891H20.8163ZM50.2446 1.77712H45.0522V13.837H43.3152V1.76518H40.7239V7.76309H38.987V1.77386H32.9076V13.8413H31.1881V1.78146H29.4934V15.575H34.6891V3.5043H36.4098V15.5685H46.8174V3.5119H48.5543V15.5805H50.2424L50.2446 1.77712ZM32.3323 22.5283C31.1859 22.2134 30.3272 21.5881 29.8072 20.534C29.2872 19.4799 29.3936 18.4149 29.9157 17.338H29.4717C27.7576 17.3261 27.7348 17.3066 27.7348 15.5696V12.176H24.2609C24.2609 13.5873 24.2609 14.9519 24.2609 16.3219C24.2609 17.0341 23.9558 17.3304 23.2382 17.338C22.8702 17.338 22.5022 17.338 22.0636 17.338C22.6477 18.4595 22.6976 19.5233 22.1722 20.5785C21.6468 21.6337 20.775 22.2221 19.6666 22.5326L32.3323 22.5283ZM8.72167 19.9543C8.28417 20.5568 7.96827 21.1691 7.49061 21.6033C7.03031 22.0191 6.40501 22.2547 5.92626 22.5218H18.4551C17.0677 22.1635 16.1515 21.3091 15.6912 19.9576L8.72167 19.9543ZM33.5351 22.5066H46.3147C44.8036 22.094 44.1273 21.5111 43.5345 20.2387C43.4915 20.162 43.4314 20.0962 43.359 20.0463C43.2865 19.9965 43.2036 19.9639 43.1166 19.9511C40.9519 19.933 38.7876 19.933 36.6236 19.9511C36.5363 19.9617 36.4527 19.9925 36.3794 20.0412C36.3061 20.0898 36.2451 20.1548 36.2013 20.2311C35.7096 21.4492 34.8129 22.1678 33.5351 22.5066V22.5066ZM24.301 6.96409V10.3674H27.7087V6.96409H24.301ZM6.64384 18.1957C6.07933 17.4075 5.31942 17.1687 4.54973 17.4716C4.19356 17.6135 3.89473 17.8699 3.70034 18.2004C3.50595 18.5308 3.42704 18.9166 3.47605 19.2968C3.52506 19.6771 3.6992 20.0302 3.97104 20.3006C4.24287 20.571 4.59694 20.7433 4.97745 20.7902C5.30248 20.8362 5.6337 20.7767 5.92235 20.6203C6.211 20.464 6.44184 20.2191 6.58088 19.9218H5.24451V18.1957H6.64384ZM15.98 17.3739H8.2896C8.35257 18.073 8.71733 18.2423 9.3752 18.2261C11.2142 18.1761 13.0546 18.1761 14.8965 18.2261C15.5468 18.2434 15.9137 18.0741 15.9756 17.3695L15.98 17.3739ZM34.371 18.2065C33.8684 17.4466 33.1671 17.1958 32.405 17.439C32.0403 17.5541 31.7243 17.7872 31.5067 18.1017C31.2892 18.4162 31.1824 18.7941 31.2033 19.1759C31.2521 19.9749 31.8286 20.6122 32.6482 20.7783C32.9817 20.8409 33.3266 20.7925 33.6301 20.6406C33.9336 20.4886 34.1789 20.2415 34.3287 19.9369H32.9728V18.2065H34.371ZM43.7093 17.3695H36.0233C36.0863 18.0665 36.4499 18.238 37.1089 18.2217C38.9493 18.1718 40.7901 18.1718 42.6313 18.2217C43.2794 18.2434 43.6474 18.0752 43.7093 17.3695ZM19.024 18.2043V19.9749H17.6463C18.1761 20.711 18.9132 20.952 19.6699 20.6686C20.3647 20.4135 20.864 19.6308 20.787 18.9317C20.7448 18.5346 20.5682 18.1639 20.2865 17.8809C20.0047 17.598 19.6347 17.4198 19.2378 17.376C18.5995 17.2914 17.946 17.6344 17.6995 18.2087L19.024 18.2043ZM45.3659 19.9413C45.8968 20.7012 46.6404 20.9411 47.3992 20.6654C48.0929 20.4135 48.5999 19.6297 48.5218 18.9284C48.4295 18.1164 47.8541 17.5172 47.028 17.3804C46.7055 17.3236 46.3733 17.3747 46.0829 17.5258C45.7924 17.6769 45.5599 17.9196 45.4213 18.2163H46.7587V19.9369L45.3659 19.9413Z" fill="#D41D12"/>
<path d="M11.8077 52.0076C11.3734 51.7243 11.2573 51.3226 11.2649 50.8134C11.2812 46.9694 11.2736 43.1253 11.2746 39.2812C11.2746 38.4127 11.5384 38.1456 12.3917 38.1446C14.3035 38.1446 16.2152 38.1446 18.2073 38.1446V27.154C18.2073 26.2616 18.4645 26.0098 19.3721 26.0087H32.6305C33.5521 26.0087 33.7975 26.2616 33.7975 27.2028C33.7975 30.6319 33.7975 34.0609 33.7975 37.4899V38.1413H34.413C36.163 38.1413 37.9133 38.1413 39.664 38.1413C40.424 38.1413 40.7279 38.4301 40.729 39.1683C40.729 43.1025 40.7236 47.0367 40.7388 50.9709C40.7388 51.4453 40.5314 51.7438 40.196 52.0054L11.8077 52.0076ZM28.5975 27.7608C28.5975 29.1992 28.6029 30.5834 28.5975 31.974C28.5975 32.6189 28.2794 32.9315 27.6313 32.9359C26.5457 32.9438 25.463 32.9438 24.3832 32.9359C23.7101 32.9359 23.4138 32.62 23.4062 31.9306C23.4062 31.7504 23.4062 31.5702 23.4062 31.3878V27.7728H19.9746V38.1152H32.0366V27.7608H28.5975ZM13.0366 39.8956V50.2327H25.1062V39.9054H21.6649C21.6649 41.308 21.6649 42.6769 21.6649 44.0448C21.6649 44.7645 21.3642 45.0663 20.652 45.0706C19.6587 45.0706 18.6665 45.0706 17.6742 45.0706C16.7059 45.0706 16.4714 44.8318 16.4703 43.8548V39.8956H13.0366ZM38.9725 50.263V39.9108H35.5312C35.5312 41.3362 35.5312 42.7247 35.5312 44.1121C35.5312 44.7102 35.224 45.0587 34.6681 45.0663C33.5102 45.0815 32.3551 45.0815 31.2029 45.0663C30.6601 45.0598 30.3485 44.7233 30.3409 44.1674C30.329 43.3554 30.3409 42.539 30.3409 41.7314V39.9108H26.9083V50.263H38.9725ZM25.1692 27.763V31.1653H26.8399V27.763H25.1692ZM19.9127 39.913H18.2235V43.3152H19.9127V39.913ZM32.0898 43.3152H33.7617V39.9119H32.0898V43.3152Z" fill="#D41D12"/>
<path d="M11.3109 9.56302H12.9653V11.2435H11.3109V9.56302Z" fill="#D41D12"/>
<path d="M40.6977 11.262H39.0454V9.58039H40.6977V11.262Z" fill="#D41D12"/>
</svg>
