<svg xmlns="http://www.w3.org/2000/svg" width="125" height="125" viewBox="0 0 125 125" fill="none"><g clip-path="url(#clip0_754_503)"><path d="M125 62.5L93.75 116.627L31.25 116.627L4.89743e-06 62.5L31.25 8.37341L93.75 8.37341L125 62.5Z" fill="white"></path><path fill-rule="evenodd" clip-rule="evenodd" d="M52.1688 22.9228C50.7095 23.4312 49.4566 24.7935 49.1241 26.2331C49.0387 26.6022 48.9689 28.3136 48.9686 30.0363C48.9683 33.6823 49.0763 34.1124 50.1751 34.8363L50.8125 35.2563L59.8137 35.302C65.9601 35.3331 68.991 35.2963 69.3701 35.1861C70.0421 34.9907 70.7676 34.407 71.0757 33.814C71.2007 33.5735 71.3433 32.8075 71.3926 32.1118L71.4823 30.847L77.5248 30.8891L83.5672 30.9311L83.9605 31.3228C84.2791 31.64 84.3581 31.8667 84.3759 32.5159C84.3936 33.161 84.354 33.3064 84.1732 33.2608C84.0495 33.2296 83.1056 33.1726 82.0755 33.1343C78.0909 32.9858 74.7456 34.2369 71.8578 36.956C65.8978 42.5677 65.7396 51.6056 71.5012 57.3405C74.6715 60.4963 79.0282 61.9606 83.5388 61.3863L84.4778 61.2668L84.4378 78.5876L84.3979 95.9083L83.9085 96.3435L83.4192 96.7787H60.2646C35.0876 96.7787 36.5004 96.8264 36.105 95.9626C35.9679 95.6632 35.9259 88.1157 35.9259 63.8032C35.9259 29.2412 35.8711 31.4315 36.7459 31.0348C37.0198 30.9105 38.3762 30.8566 41.2261 30.8566C45.3048 30.8566 45.3141 30.8558 45.6392 30.5114C46.0737 30.0509 46.0546 29.4407 45.5908 28.9791L45.2167 28.6067L40.829 28.6503C36.4579 28.6938 36.4385 28.6954 35.698 29.075C34.8612 29.504 34.0666 30.4403 33.8351 31.2704C33.7304 31.6455 33.682 42.2429 33.6857 63.8922C33.6905 90.2924 33.727 96.0573 33.8922 96.518C34.188 97.3429 34.7957 98.0607 35.5939 98.5279L36.3005 98.9413L59.893 98.9804C86.089 99.0238 84.338 99.0889 85.4319 98.0313C85.73 97.7433 86.1249 97.2261 86.3095 96.8822L86.6455 96.2567L86.6864 78.4276L86.7274 60.5983L87.885 60.0298C90.7559 58.6201 93.2044 56.1466 94.5178 53.3294C95.1316 52.0129 95.6687 50.042 95.788 48.6688C95.8812 47.5938 95.861 47.4489 95.5649 47.0761C95.3256 46.7745 95.1061 46.6659 94.7366 46.6659C94.01 46.6659 93.68 47.1562 93.5619 48.4103C93.1675 52.5986 90.4995 56.3768 86.6799 58.1559C84.2977 59.2656 81.1222 59.5642 78.6373 58.9124C75.6858 58.138 73.118 56.3128 71.5209 53.8537C70.1531 51.7481 69.592 49.835 69.5872 47.2625C69.5812 43.9318 70.6617 41.3489 73.0853 38.9001C74.573 37.3969 75.8526 36.597 77.88 35.9027C79.2301 35.4405 79.4156 35.4153 81.4761 35.4132C83.9778 35.4109 84.8901 35.6027 86.7953 36.5317C88.9107 37.5632 89.1377 37.0255 84.7382 41.4047L80.891 45.2341L78.7452 43.1418C76.9975 41.4377 76.463 41.0032 75.8644 40.8002C74.0672 40.1907 72.2627 40.8585 71.402 42.452C70.8556 43.4636 70.7625 44.2435 71.0645 45.2808C71.3051 46.1077 71.4704 46.2989 75.0062 49.8383C77.3295 52.164 78.9238 53.6419 79.3096 53.8279C80.1387 54.2273 81.614 54.2279 82.4402 53.8292C82.8423 53.635 85.5256 51.0629 90.3362 46.2601C98.1861 38.4227 98.0027 38.6428 97.9991 37.0538C97.9946 35.0465 96.4154 33.496 94.362 33.4826C93.1411 33.4747 92.4077 33.8327 91.1161 35.0672L90.1867 35.9555L89.5398 35.5138C89.1841 35.2708 88.414 34.8322 87.8284 34.5392L86.7637 34.0067L86.6855 32.7671C86.5644 30.8485 85.9502 29.7712 84.5477 29.0164C83.9649 28.7028 83.7773 28.6928 77.7137 28.6506L71.479 28.6072L71.3806 27.532C71.3264 26.9406 71.1774 26.14 71.0493 25.7528C70.751 24.8503 69.6633 23.6458 68.6813 23.1301L67.9159 22.7282L60.4241 22.6924C53.5633 22.6597 52.8681 22.6791 52.1688 22.9228ZM67.9426 25.2773C68.1752 25.449 68.5184 25.8131 68.7054 26.0866C69.0364 26.5707 69.0444 26.6693 69.0051 29.8015L68.9648 33.0192L60.2911 33.0576C54.0097 33.0855 51.5612 33.0497 51.4133 32.9276C51.2537 32.7956 51.2092 32.118 51.2092 29.8178C51.2092 27.0352 51.2278 26.8416 51.5543 26.2271C51.7915 25.7807 52.1057 25.469 52.5595 25.2301L53.2199 24.8826L60.3698 24.9239C67.3565 24.9644 67.5294 24.9725 67.9426 25.2773ZM95.279 36.0183C95.6575 36.3593 95.83 36.9776 95.6903 37.4935C95.6055 37.8072 93.472 40.0263 88.5565 44.9135L81.5435 51.886H80.8805H80.2175L76.8023 48.4983C73.2888 45.0131 72.9335 44.5472 73.2194 43.7986C73.4208 43.2717 74.0931 42.7882 74.6247 42.7882C75.0063 42.7882 75.4785 43.1844 77.7344 45.3982C80.1002 47.7198 80.4488 48.0082 80.89 48.0082C81.3429 48.0082 81.919 47.4797 87.5368 41.9107C90.9198 38.5571 93.7889 35.7746 93.9125 35.7275C94.2535 35.5973 94.9844 35.7528 95.279 36.0183ZM40.1497 39.5128C39.9357 39.7112 39.8217 39.9942 39.8217 40.3273C39.8217 40.6603 39.9357 40.9434 40.1497 41.1418C40.4633 41.4327 40.6581 41.4459 44.6515 41.4459H48.8255L49.1932 41.0797C49.3955 40.8784 49.561 40.5398 49.561 40.3273C49.561 40.1147 49.3955 39.7762 49.1932 39.5748L48.8255 39.2087H44.6515C40.6581 39.2087 40.4633 39.2218 40.1497 39.5128ZM41.9679 50.0037C40.5968 50.4502 39.7463 51.211 39.1375 52.5358C38.7835 53.3065 38.7441 53.5457 38.8034 54.5663C38.8873 56.0085 39.4276 57.0651 40.4959 57.876C42.8093 59.632 45.9669 58.8712 47.4047 56.2112C47.6216 55.8103 47.6869 55.3779 47.6864 54.3469C47.6858 52.8734 47.4612 52.2544 46.5531 51.225C45.5622 50.1015 43.4198 49.5309 41.9679 50.0037ZM49.784 51.1422C49.41 51.5537 49.4362 52.2754 49.8397 52.6774C50.1673 53.0034 50.1944 53.0048 57.0194 53.0489C60.7875 53.0732 64.0897 53.0534 64.3579 53.0048C64.9351 52.9001 65.4437 52.4073 65.4437 51.9525C65.4437 51.774 65.3039 51.4511 65.133 51.235L64.8226 50.842H57.4397C50.2315 50.842 50.0505 50.8492 49.784 51.1422ZM44.3761 52.3731C45.3452 52.9263 45.8166 54.3051 45.3473 55.2143C44.5556 56.7483 42.7965 57.047 41.6272 55.846C41.2074 55.4148 41.1091 55.1864 41.0527 54.5098C40.9977 53.8497 41.0482 53.5915 41.3169 53.1588C41.973 52.1021 43.3027 51.7607 44.3761 52.3731ZM50.23 56.0549C49.5024 56.3484 49.2699 57.2843 49.784 57.8499C50.0505 58.1429 50.2315 58.1501 57.4397 58.1501H64.8226L65.133 57.7571C65.6374 57.1191 65.4882 56.4821 64.7418 56.0864C64.3561 55.8819 50.7321 55.8524 50.23 56.0549ZM42.294 63.6494C40.9093 64.0096 39.8505 64.8506 39.233 66.0807C38.0804 68.3767 39.0831 71.1405 41.4622 72.2255C41.9574 72.4513 42.4519 72.5372 43.2679 72.5395C45.0971 72.5445 46.4533 71.714 47.349 70.0402C47.6262 69.5221 47.6861 69.1727 47.687 68.0683C47.6879 66.8581 47.6443 66.6474 47.2437 65.9271C46.7491 65.0385 46.073 64.4185 45.1039 63.9651C44.3839 63.6282 42.981 63.4706 42.294 63.6494ZM49.784 64.7144C49.3713 65.1683 49.4323 65.8855 49.919 66.3021L50.327 66.6514H59.8248H69.3226L69.7291 66.3034C70.244 65.8625 70.2694 65.0698 69.7813 64.6764C69.4784 64.4322 68.7872 64.4142 59.7565 64.4142C50.2266 64.4142 50.0522 64.4194 49.784 64.7144ZM44.4536 66.1695C45.9215 67.2514 45.8505 69.2323 44.3148 70.0407C43.5373 70.45 43.0896 70.4622 42.2797 70.096C41.3936 69.6956 40.9661 68.9448 41.05 67.937C41.1281 67.0002 41.4756 66.4733 42.294 66.0503C43.0018 65.6846 43.8599 65.7319 44.4536 66.1695ZM50.3633 69.5883C49.543 69.7481 49.2323 70.8646 49.8397 71.4697C50.1616 71.7902 50.2626 71.7978 54.7717 71.8431C57.3037 71.8685 59.5947 71.8486 59.8629 71.799C61.1449 71.5614 61.3335 70.0919 60.1399 69.6401C59.7479 69.4918 51.0946 69.4459 50.3633 69.5883ZM42.5067 77.252C41.1431 77.4623 39.8485 78.4082 39.1997 79.6683C38.7522 80.5372 38.653 82.1738 38.9872 83.1753C39.3079 84.1364 40.245 85.1968 41.2267 85.7096C41.8846 86.0534 42.1762 86.1106 43.2679 86.1109C44.3003 86.1112 44.6614 86.0478 45.1741 85.7765C46.1938 85.2371 46.8814 84.5389 47.3369 83.5807C48.8875 80.318 46.122 76.6944 42.5067 77.252ZM49.9648 78.1521C49.2975 78.5385 49.3821 79.7283 50.1 80.0538C50.3628 80.1732 52.5909 80.2236 57.5912 80.2236H64.7081L65.0758 79.8574C65.2781 79.6561 65.4437 79.3175 65.4437 79.105C65.4437 78.8925 65.2781 78.5539 65.0758 78.3525L64.7081 77.9864L57.4716 77.9909C52.696 77.9939 50.1433 78.0487 49.9648 78.1521ZM44.0171 79.5578C44.8755 79.7951 45.5155 80.7357 45.5155 81.7601C45.5155 83.3847 43.7174 84.4389 42.2221 83.6909C40.7342 82.9468 40.592 80.9004 41.9567 79.8719C42.6304 79.3642 43.073 79.2968 44.0171 79.5578ZM49.8523 83.4815C49.3585 83.8796 49.3899 84.6414 49.919 85.0944L50.327 85.4437H59.8248H69.3226L69.7291 85.0957C70.244 84.6548 70.2694 83.8621 69.7813 83.4687C69.4784 83.2245 68.7904 83.2065 59.8248 83.2065C50.6881 83.2065 50.1761 83.2206 49.8523 83.4815Z" fill="#1E7552"></path><path opacity="0.2" d="M80.2323 52.6936L72.2744 44.69L72.7718 42.6891L75.756 41.1885L81.227 46.1907L93.1637 34.6855H95.6506L97.1427 38.1871L82.7191 52.6936H80.2323Z" fill="#1E7552"></path><circle opacity="0.2" cx="43.1186" cy="54.4086" r="3.4301" fill="#1E7552"></circle><circle opacity="0.2" cx="43.1186" cy="68.1291" r="3.4301" fill="#1E7552"></circle><ellipse opacity="0.2" cx="43.1186" cy="81.4207" rx="3.4301" ry="3.85887" fill="#1E7552"></ellipse></g><defs><clipPath id="clip0_754_503"><rect width="125" height="125" fill="white"></rect></clipPath></defs></svg>