<svg xmlns="http://www.w3.org/2000/svg" width="55" height="55" viewBox="0 0 55 55" fill="none"><path d="M51.8952 4.5364H30.1613V1.86322C30.1613 1.6269 30.0678 1.40026 29.9015 1.23315C29.7351 1.06605 29.5095 0.972168 29.2742 0.972168H7.98387C7.7486 0.972168 7.52296 1.06605 7.3566 1.23315C7.19024 1.40026 7.09677 1.6269 7.09677 1.86322V4.5364H3.10484C2.28166 4.53731 1.49246 4.86618 0.910391 5.45085C0.328318 6.03552 0.000909862 6.82825 0 7.6551V44.1884C0.000909862 45.0153 0.328318 45.808 0.910391 46.3927C1.49246 46.9773 2.28166 47.3062 3.10484 47.3071H19.9796L18.9151 49.9803H14.1935C13.9583 49.9803 13.7326 50.0742 13.5663 50.2413C13.3999 50.4084 13.3065 50.635 13.3065 50.8714V53.5445C13.3065 53.7809 13.3999 54.0075 13.5663 54.1746C13.7326 54.3417 13.9583 54.4356 14.1935 54.4356H40.8064C41.0417 54.4356 41.2674 54.3417 41.4337 54.1746C41.6001 54.0075 41.6935 53.7809 41.6935 53.5445V50.8714C41.6935 50.635 41.6001 50.4084 41.4337 50.2413C41.2674 50.0742 41.0417 49.9803 40.8064 49.9803H36.0849L35.0204 47.3071H51.8952C52.7183 47.3062 53.5075 46.9773 54.0896 46.3927C54.6717 45.808 54.9991 45.0153 55 44.1884V7.6551C54.9991 6.82825 54.6717 6.03552 54.0896 5.45085C53.5075 4.86618 52.7183 4.53731 51.8952 4.5364ZM8.87097 2.75428H28.3871V16.1201H26.6129C26.3776 16.1201 26.152 16.214 25.9856 16.3811C25.8193 16.5482 25.7258 16.7749 25.7258 17.0112V20.2067L21.9179 16.3808C21.7514 16.2138 21.5256 16.12 21.2903 16.1201H8.87097V2.75428ZM39.9194 51.7624V52.6535H15.0806V51.7624H39.9194ZM20.8268 49.9803L21.8913 47.3071H33.1087L34.1732 49.9803H20.8268ZM53.2258 44.1884C53.2255 44.5428 53.0852 44.8826 52.8357 45.1332C52.5863 45.3838 52.248 45.5247 51.8952 45.525H3.10484C2.75202 45.5247 2.41374 45.3838 2.16425 45.1332C1.91477 44.8826 1.77449 44.5428 1.77419 44.1884V41.9608H53.2258V44.1884ZM53.2258 40.1787H1.77419V7.6551C1.77449 7.3007 1.91477 6.96091 2.16425 6.71031C2.41374 6.45972 2.75202 6.31881 3.10484 6.31851H7.09677V17.0112C7.09677 17.2475 7.19024 17.4742 7.3566 17.6413C7.52296 17.8084 7.7486 17.9023 7.98387 17.9023H20.9233L25.9853 22.988C26.1093 23.1127 26.2675 23.1977 26.4396 23.2321C26.6118 23.2666 26.7903 23.2489 26.9525 23.1814C27.1147 23.1139 27.2533 22.9996 27.3507 22.8529C27.4482 22.7063 27.5001 22.5339 27.5 22.3575V17.9023H29.2742C29.5095 17.9023 29.7351 17.8084 29.9015 17.6413C30.0678 17.4742 30.1613 17.2475 30.1613 17.0112V6.31851H51.8952C52.248 6.31881 52.5863 6.45972 52.8357 6.71031C53.0852 6.96091 53.2255 7.3007 53.2258 7.6551V40.1787Z" fill="white"></path><path d="M47.016 37.5056H45.2418V33.0503C45.2404 31.6328 44.6791 30.2738 43.6812 29.2715C42.6834 28.2692 41.3304 27.7054 39.9193 27.7039H39.0322V26.9844C39.8407 26.5153 40.5123 25.8409 40.9794 25.0288C41.4465 24.2167 41.6928 23.2955 41.6935 22.3576V18.7934C41.6935 18.7677 41.6924 18.7432 41.6901 18.7176C41.6441 17.3542 41.0933 16.057 40.1455 15.0799C39.6591 14.5652 39.0738 14.1551 38.425 13.8744C37.7761 13.5938 37.0773 13.4483 36.3709 13.447C34.9597 13.4485 33.6068 14.0123 32.6089 15.0146C31.611 16.0169 31.0498 17.3759 31.0483 18.7934V22.3576C31.049 23.2955 31.2953 24.2167 31.7624 25.0288C32.2295 25.8409 32.901 26.5153 33.7096 26.9844V27.7039H32.8225C31.4113 27.7054 30.0584 28.2692 29.0605 29.2715C28.0627 30.2738 27.5014 31.6328 27.4999 33.0503V37.5056H25.7257C25.4904 37.5056 25.2648 37.5994 25.0984 37.7665C24.9321 37.9337 24.8386 38.1603 24.8386 38.3966C24.8386 38.6329 24.9321 38.8596 25.0984 39.0267C25.2648 39.1938 25.4904 39.2877 25.7257 39.2877H47.016C47.2513 39.2877 47.477 39.1938 47.6433 39.0267C47.8097 38.8596 47.9031 38.6329 47.9031 38.3966C47.9031 38.1603 47.8097 37.9337 47.6433 37.7665C47.477 37.5994 47.2513 37.5056 47.016 37.5056ZM32.8225 18.7934C32.8236 17.8484 33.1977 16.9424 33.863 16.2742C34.5282 15.6061 35.4301 15.2302 36.3709 15.2291C37.7736 15.2291 39.0166 16.1246 39.5877 17.3833C37.3877 18.3679 35.5825 18.6942 34.4082 18.7889C33.8806 18.8333 33.3504 18.8359 32.8225 18.7967V18.7934ZM32.8225 22.3576V20.5844C33.031 20.5978 33.2649 20.6067 33.5266 20.6067C34.9615 20.6067 37.1792 20.346 39.9193 19.1821V22.3576C39.9193 23.3029 39.5454 24.2095 38.88 24.8779C38.2145 25.5463 37.312 25.9218 36.3709 25.9218C35.4298 25.9218 34.5272 25.5463 33.8618 24.8779C33.1963 24.2095 32.8225 23.3029 32.8225 22.3576ZM37.258 27.7039V28.595C37.258 28.8313 37.1645 29.058 36.9982 29.2251C36.8318 29.3922 36.6062 29.486 36.3709 29.486C36.1356 29.486 35.91 29.3922 35.7436 29.2251C35.5772 29.058 35.4838 28.8313 35.4838 28.595V27.7039H37.258ZM43.4677 37.5056H41.6935V33.9413C41.6935 33.705 41.6 33.4784 41.4336 33.3113C41.2673 33.1442 41.0416 33.0503 40.8064 33.0503C40.5711 33.0503 40.3455 33.1442 40.1791 33.3113C40.0127 33.4784 39.9193 33.705 39.9193 33.9413V37.5056H32.8225V33.9413C32.8225 33.705 32.729 33.4784 32.5627 33.3113C32.3963 33.1442 32.1707 33.0503 31.9354 33.0503C31.7001 33.0503 31.4745 33.1442 31.3081 33.3113C31.1418 33.4784 31.0483 33.705 31.0483 33.9413V37.5056H29.2741V33.0503C29.2752 32.1053 29.6494 31.1994 30.3146 30.5312C30.9798 29.863 31.8817 29.4871 32.8225 29.486H33.8626C34.0459 30.0072 34.3855 30.4584 34.8348 30.7775C35.284 31.0967 35.8207 31.2681 36.3709 31.2681C36.9211 31.2681 37.4578 31.0967 37.907 30.7775C38.3562 30.4584 38.6959 30.0072 38.8791 29.486H39.9193C40.86 29.4871 41.762 29.863 42.4272 30.5312C43.0924 31.1994 43.4666 32.1053 43.4677 33.0503V37.5056Z" fill="white"></path></svg>