<svg xmlns="http://www.w3.org/2000/svg" width="52" height="53" viewBox="0 0 52 53" fill="none"><path d="M50.6355 40.2925L40.1105 33.2422C38.7749 32.3547 36.9845 32.6467 35.997 33.9132L32.9312 37.8727C32.5372 38.3945 31.821 38.5459 31.251 38.2279L30.6678 37.9049C28.7346 36.8465 26.3291 35.5287 21.4825 30.6588C16.636 25.7889 15.3215 23.3708 14.2677 21.4325L13.9479 20.8467C13.6269 20.2743 13.7748 19.5518 14.2945 19.1529L18.2337 16.0743C19.4941 15.0824 19.7853 13.2845 18.9027 11.9425L11.8838 1.37049C10.9793 0.00388207 9.16463 -0.406365 7.76439 0.439119L3.36322 3.09471C1.98035 3.91133 0.965786 5.23387 0.532279 6.7852C-1.05257 12.5856 0.139696 22.5961 14.8206 37.3443C26.499 49.0739 35.193 52.2283 41.1686 52.2283C42.5439 52.2342 43.9138 52.0545 45.2414 51.6939C46.7861 51.259 48.103 50.2398 48.9155 48.8503L51.5619 44.4322C52.4049 43.0254 51.9966 41.2015 50.6355 40.2925ZM50.0688 43.5391L47.4284 47.9599C46.845 48.9627 45.8979 49.7001 44.7855 50.0175C39.4545 51.4877 30.141 50.27 16.0467 36.1128C1.95242 21.9556 0.740248 12.6013 2.20385 7.24574C2.52027 6.12699 3.25528 5.17441 4.25491 4.58749L8.65608 1.93537C9.26364 1.56817 10.0512 1.74616 10.4437 2.33919L14.2565 8.08908L17.4567 12.9102C17.8399 13.4924 17.714 14.2726 17.1673 14.7033L13.2271 17.7819C12.0281 18.7029 11.6856 20.3693 12.4239 21.6918L12.7368 22.2628C13.8442 24.303 15.2211 26.8411 20.2479 31.8895C25.2747 36.9379 27.8007 38.321 29.831 39.4333L30.4002 39.7484C31.7168 40.4898 33.3759 40.146 34.2928 38.9416L37.3577 34.9838C37.7866 34.435 38.563 34.3086 39.1428 34.6931L49.6668 41.7434C50.2576 42.1374 50.4348 42.9289 50.0688 43.5391Z" fill="white"></path><path d="M29.4651 8.70779C37.5972 8.71687 44.1872 15.3364 44.1963 23.5047C44.1963 23.9855 44.5842 24.3751 45.0628 24.3751C45.5414 24.3751 45.9293 23.9855 45.9293 23.5047C45.9193 14.3754 38.5539 6.97704 29.4651 6.96704C28.9865 6.96704 28.5986 7.35668 28.5986 7.83741C28.5986 8.31814 28.9865 8.70779 29.4651 8.70779Z" fill="white"></path><path d="M29.4651 13.9304C34.7269 13.9367 38.9909 18.2197 38.9971 23.505C38.9971 23.9857 39.3851 24.3753 39.8636 24.3753C40.3422 24.3753 40.7301 23.9857 40.7301 23.505C40.7229 17.2586 35.6836 12.1968 29.4651 12.1897C28.9865 12.1897 28.5986 12.5793 28.5986 13.0601C28.5986 13.5408 28.9865 13.9304 29.4651 13.9304Z" fill="white"></path><path d="M29.4651 19.1529C31.8568 19.1557 33.7949 21.1025 33.7979 23.5049C33.7979 23.9857 34.1859 24.3753 34.6644 24.3753C35.1429 24.3753 35.5309 23.9857 35.5309 23.5049C35.527 20.1415 32.8136 17.4159 29.4651 17.4121C28.9865 17.4121 28.5986 17.8018 28.5986 18.2825C28.5986 18.7632 28.9865 19.1529 29.4651 19.1529Z" fill="white"></path></svg>