<svg xmlns="http://www.w3.org/2000/svg" width="63" height="58" viewBox="0 0 63 58" fill="none"><path d="M60.2316 24.4765H59.3092V21.695V11.8074C59.3092 8.57015 56.6872 5.93644 53.4645 5.93644H28.1195L11.0205 1.02919C11.0156 1.02783 11.0106 1.02708 11.0057 1.02573C11.0006 1.02437 10.9958 1.02239 10.9908 1.02115C10.9804 1.01856 10.9702 1.01732 10.96 1.0151C10.9441 1.01176 10.9283 1.0083 10.9124 1.0057C10.898 1.00335 10.8838 1.00187 10.8694 1.00014C10.8527 0.998164 10.8361 0.996433 10.8195 0.995444C10.806 0.994703 10.7925 0.994579 10.779 0.994332C10.7618 0.994085 10.7447 0.993961 10.7276 0.994703C10.7149 0.995197 10.7022 0.996433 10.6897 0.997422C10.6721 0.998905 10.6545 1.00051 10.6371 1.00311C10.6253 1.00484 10.6136 1.00706 10.6019 1.00916C10.584 1.01238 10.5663 1.01584 10.5487 1.02016C10.5377 1.02288 10.527 1.02597 10.5162 1.02906C10.4982 1.03425 10.4805 1.03957 10.4628 1.04575C10.4528 1.04933 10.443 1.05316 10.433 1.05712C10.4152 1.06404 10.3974 1.07133 10.3801 1.07937C10.3709 1.08369 10.3619 1.08839 10.3528 1.09296C10.3354 1.10174 10.3183 1.11064 10.3016 1.12065C10.2929 1.12571 10.2845 1.13115 10.2759 1.13659C10.2594 1.14697 10.2431 1.1576 10.2274 1.1691C10.2191 1.17503 10.2111 1.18146 10.203 1.18776C10.1879 1.1995 10.1729 1.21149 10.1585 1.22422C10.1504 1.23139 10.1426 1.23893 10.1347 1.24634C10.1212 1.2592 10.1078 1.27205 10.095 1.28565C10.087 1.29418 10.0795 1.30307 10.0717 1.31197C10.06 1.32545 10.0485 1.33904 10.0375 1.35325C10.0297 1.36351 10.0223 1.37402 10.0148 1.38452C10.005 1.39824 9.99545 1.41209 9.98659 1.4263C9.97896 1.43841 9.97195 1.45102 9.96493 1.4635C9.95718 1.47722 9.94943 1.49106 9.94242 1.50528C9.93552 1.51912 9.92937 1.53333 9.9231 1.54755C9.91694 1.56151 9.91091 1.57548 9.9055 1.58982C9.89984 1.6049 9.89492 1.62035 9.88987 1.63592C9.88667 1.64593 9.88274 1.65532 9.87978 1.66546C9.87831 1.67053 9.87769 1.67547 9.87634 1.68041C9.87499 1.68548 9.87302 1.6903 9.87179 1.69537L8.81654 5.93619H5.84533C2.62901 5.93619 0.0115664 8.55927 0.000984373 11.7876C0.000861327 11.7943 0 11.8006 0 11.8071V43.9421C0 44.4538 0.414667 44.869 0.92285 44.869C1.43226 44.869 1.8457 44.4538 1.8457 43.9421V16.0827C2.89209 17.071 4.299 17.6783 5.84533 17.6783H53.4645C53.4656 17.6783 53.4666 17.6782 53.4677 17.6782C55.6712 17.6799 57.4635 19.4812 57.4635 21.6952V28.1845H47.3107C47.3101 28.1845 47.3096 28.1846 47.309 28.1846C47.2823 28.1846 47.2557 28.1862 47.2292 28.1885C47.1998 28.1911 47.1708 28.1953 47.1422 28.2006C47.1379 28.2014 47.1338 28.2018 47.1294 28.2026C47.1053 28.2074 47.0817 28.2139 47.0582 28.2205C47.053 28.222 47.0477 28.223 47.0427 28.2246C47.0218 28.231 47.0015 28.2387 46.9812 28.2465C46.9734 28.2495 46.9656 28.2519 46.9578 28.2551C46.9408 28.2622 46.9244 28.2705 46.9081 28.2785C46.8973 28.2837 46.8863 28.2885 46.8757 28.2941C46.8629 28.3009 46.8509 28.3087 46.8386 28.3161C46.8249 28.3242 46.811 28.3321 46.7977 28.341C46.7887 28.347 46.7805 28.3538 46.7719 28.3601C46.7561 28.3715 46.7402 28.3827 46.7252 28.3952C46.7187 28.4006 46.7127 28.4067 46.7064 28.4122C46.6903 28.4263 46.6742 28.4403 46.6589 28.4556C46.6499 28.4646 46.6418 28.4745 46.6333 28.4839C46.6214 28.4969 46.6091 28.5096 46.5978 28.5235C46.5787 28.5468 46.5609 28.5711 46.5441 28.5962C46.5437 28.5965 46.5434 28.597 46.5431 28.5975L41.6215 36.0134C41.5872 36.0651 41.5581 36.1198 41.5351 36.1768C41.5264 36.198 41.5194 36.2197 41.5124 36.2412C41.5103 36.2477 41.5076 36.254 41.5056 36.2606C41.4987 36.2834 41.4934 36.3066 41.4884 36.3296C41.487 36.3356 41.4853 36.3415 41.4841 36.3476C41.48 36.3684 41.4773 36.3892 41.4747 36.4101C41.4736 36.419 41.4719 36.4279 41.471 36.437C41.4693 36.4541 41.4689 36.4712 41.4683 36.4884C41.4677 36.5015 41.4666 36.5146 41.4666 36.5278C41.4666 36.5405 41.4677 36.5533 41.4682 36.566C41.4688 36.5835 41.4693 36.6012 41.471 36.6188C41.4719 36.6273 41.4735 36.6358 41.4746 36.6443C41.4773 36.6656 41.48 36.6869 41.4842 36.708C41.4853 36.7138 41.487 36.7195 41.4884 36.7253C41.4934 36.7485 41.4988 36.7718 41.5057 36.7949C41.5077 36.8014 41.5104 36.8077 41.5125 36.8144C41.5195 36.8359 41.5265 36.8576 41.5353 36.8788C41.5584 36.9357 41.5874 36.9905 41.6219 37.0423L46.5434 44.4571C46.5436 44.4575 46.5439 44.4577 46.5441 44.4581C46.5639 44.4876 46.5856 44.5158 46.6085 44.5429C46.616 44.5518 46.624 44.5601 46.6317 44.5685C46.6474 44.5856 46.6636 44.6022 46.6805 44.6181C46.6904 44.6275 46.7003 44.6367 46.7104 44.6455C46.7283 44.6609 46.7469 44.6754 46.766 44.6895C46.7746 44.6958 46.7828 44.7027 46.7916 44.7086C46.8192 44.7275 46.8479 44.7449 46.8776 44.7608C46.8851 44.7647 46.8928 44.7681 46.9003 44.7718C46.924 44.7836 46.9481 44.7946 46.9728 44.8044C46.9824 44.8082 46.992 44.8117 47.0017 44.8152C47.0252 44.8236 47.0491 44.831 47.0735 44.8375C47.0834 44.8401 47.0933 44.8428 47.1034 44.8453C47.1283 44.8511 47.1537 44.8556 47.1794 44.8593C47.1888 44.8606 47.198 44.8625 47.2073 44.8636C47.2391 44.8672 47.2713 44.8692 47.3041 44.8694C47.3066 44.8694 47.3092 44.8699 47.3119 44.8699C47.3124 44.8699 47.313 44.8698 47.3136 44.8698H57.4639V51.3596C57.4639 53.5746 55.6699 55.3767 53.4649 55.3767H5.84582C3.64083 55.3767 1.84681 53.5746 1.84681 51.3596C1.84681 51.3547 1.84619 51.35 1.84607 51.3452V47.6504C1.84607 47.14 1.43263 46.7235 0.923219 46.7235C0.415036 46.7235 0.00036914 47.14 0.00036914 47.6504V51.3596C0.00036914 51.3692 0.00147656 51.3786 0.0018457 51.3881C0.0172265 54.6122 2.63258 57.2306 5.84582 57.2306H53.4649C56.6873 57.2306 59.3091 54.5974 59.3096 51.3605C59.3096 51.3604 59.3096 51.3603 59.3096 51.3601V44.8698H60.2319C61.7582 44.8698 63 43.6225 63 42.0894V27.2569C62.9996 25.7238 61.7579 24.4765 60.2316 24.4765ZM11.431 3.07507L27.7149 7.7486C27.7156 7.74885 27.7165 7.74897 27.7172 7.74922L38.631 10.8814H9.48862L11.431 3.07507ZM57.4634 17.4194C56.4171 16.4313 55.0105 15.8241 53.4645 15.8241C53.4629 15.8241 53.4614 15.8244 53.4597 15.8244H5.84533C3.64021 15.8244 1.84619 14.0223 1.84619 11.8074C1.84619 9.59241 3.64021 7.79038 5.84533 7.79038H8.35524L7.58619 10.8814H5.84558C5.33592 10.8814 4.92273 11.2964 4.92273 11.8084C4.92273 12.3203 5.33592 12.7353 5.84558 12.7353H8.30356C8.30479 12.7353 8.30614 12.7356 8.30749 12.7356C8.30848 12.7356 8.30946 12.7353 8.31032 12.7353H45.2171C45.2183 12.7353 45.2194 12.7356 45.2205 12.7356C45.2215 12.7356 45.2225 12.7353 45.2235 12.7353H52.2329C52.7426 12.7353 53.1558 12.3203 53.1558 11.8084C53.1558 11.2964 52.7426 10.8814 52.2329 10.8814H45.3493L34.5792 7.79038H53.4644C55.6694 7.79038 57.4634 9.59241 57.4634 11.8074V17.4194ZM61.1539 42.0889C61.1539 42.5997 60.7401 43.0154 60.2316 43.0154H47.8046L43.4981 36.5273L47.8046 30.0383H60.2316C60.2445 30.0383 60.257 30.0368 60.2698 30.0363C60.5794 30.032 60.8767 29.9766 61.1539 29.878V42.0889ZM60.2316 28.1833C60.2252 28.1833 60.2189 28.1842 60.2125 28.1843H59.3092V26.3304H60.2316C60.7401 26.3304 61.1539 26.746 61.1539 27.2569C61.1539 27.7677 60.7401 28.1833 60.2316 28.1833Z" fill="white"></path><path d="M51.0027 33.1284C49.1368 33.1284 47.6189 34.6532 47.6189 36.5274C47.6189 38.4016 49.1368 39.9263 51.0027 39.9263C52.8686 39.9263 54.3865 38.4016 54.3865 36.5274C54.3865 34.6532 52.8686 33.1284 51.0027 33.1284ZM51.0027 38.0724C50.1545 38.0724 49.4646 37.3794 49.4646 36.5274C49.4646 35.6755 50.1545 34.9824 51.0027 34.9824C51.8508 34.9824 52.5408 35.6755 52.5408 36.5274C52.5408 37.3794 51.8508 38.0724 51.0027 38.0724Z" fill="white"></path></svg>