<svg xmlns="http://www.w3.org/2000/svg" width="70" height="42" viewBox="0 0 70 42" fill="none"><path d="M64.8542 17.8053L63.0483 10.9277C63.542 10.8278 63.9125 10.4107 63.9125 9.91109V8.80219C63.9125 6.39455 61.8551 4.43585 59.3265 4.43585H51.101V2.14855C51.101 0.963785 50.0887 0 48.8443 0H6.9153C5.67095 0 4.65869 0.963785 4.65869 2.14855V21.0002C4.65869 21.5743 5.14752 22.0398 5.75063 22.0398C6.3536 22.0398 6.84257 21.5744 6.84257 21.0002V2.14855C6.84257 2.11029 6.87512 2.0793 6.9153 2.0793H48.8442C48.8844 2.0793 48.9169 2.11029 48.9169 2.14855V21.0005C48.9169 21.5746 49.4058 22.0401 50.0089 22.0401C50.6118 22.0401 51.1008 21.5747 51.1008 21.0005V19.8219H63.9814C63.9825 19.8219 63.9833 19.8222 63.9843 19.8222C63.9854 19.8222 63.9863 19.822 63.9873 19.822C65.5723 19.8231 66.9181 20.8136 67.3803 22.1785H63.9851C63.3821 22.1785 62.8931 22.6439 62.8931 23.2181V25.4359C62.8931 27.2321 64.4279 28.6934 66.3144 28.6934H67.552V33.2676H64.6969C63.759 30.6891 61.1846 28.8319 58.1616 28.8319C55.1386 28.8319 52.564 30.6891 51.6263 33.2676H51.1005V25.4358C51.1005 24.8617 50.6117 24.3961 50.0086 24.3961C49.4056 24.3961 48.9167 24.8616 48.9167 25.4358V33.2673H26.2623C25.3244 30.6889 22.75 28.8316 19.727 28.8316C16.7039 28.8316 14.1294 30.6889 13.1917 33.2673H6.9153C6.87512 33.2673 6.84257 33.2363 6.84257 33.1981V30.9109H11.5741C12.1771 30.9109 12.6661 30.4455 12.6661 29.8713C12.6661 29.297 12.1772 28.8316 11.5741 28.8316H1.09194C0.488969 28.8316 0 29.297 0 29.8713C0 30.4455 0.488833 30.9109 1.09194 30.9109H4.65883V33.1981C4.65883 34.3828 5.67109 35.3466 6.91544 35.3466H12.8136C12.8133 35.3697 12.8117 35.3927 12.8117 35.4159C12.8117 39.0464 15.914 42 19.727 42C23.54 42 26.6423 39.0464 26.6423 35.4159C26.6423 35.3925 26.6406 35.3697 26.6404 35.3466H51.2482C51.2479 35.3697 51.2463 35.3927 51.2463 35.4159C51.2463 39.0464 54.3486 42 58.1616 42C61.9746 42 65.0769 39.0464 65.0769 35.4159C65.0769 35.3925 65.0752 35.3697 65.075 35.3466H68.6439C69.2469 35.3466 69.7358 34.8812 69.7358 34.307V23.2179C69.736 20.48 67.6143 18.2053 64.8542 17.8053ZM51.101 6.51502H59.3265C60.6511 6.51502 61.7287 7.54105 61.7287 8.80219V8.87144H51.101V6.51502ZM51.101 17.7428V10.9506H60.8034L62.5868 17.7428H51.101ZM19.727 39.9211C17.118 39.9211 14.9954 37.9003 14.9954 35.4161C14.9954 32.932 17.118 30.9112 19.727 30.9112C22.3359 30.9112 24.4585 32.932 24.4585 35.4161C24.4585 37.9003 22.3359 39.9211 19.727 39.9211ZM58.1619 39.9211C55.5529 39.9211 53.4303 37.9003 53.4303 35.4161C53.4303 32.932 55.5529 30.9112 58.1619 30.9112C60.7708 30.9112 62.8934 32.932 62.8934 35.4161C62.8934 37.9003 60.7708 39.9211 58.1619 39.9211ZM67.5522 26.6141H66.3147C65.6323 26.6141 65.0772 26.0855 65.0772 25.4358V24.2575H67.5521V26.6141H67.5522Z" fill="white"></path><path d="M19.7268 33.2676C18.4825 33.2676 17.4702 34.2314 17.4702 35.4161C17.4702 36.6009 18.4825 37.5647 19.7268 37.5647C20.9712 37.5647 21.9834 36.6009 21.9834 35.4161C21.9834 34.2314 20.9712 33.2676 19.7268 33.2676Z" fill="white"></path><path d="M58.1619 33.2676C56.9175 33.2676 55.9053 34.2314 55.9053 35.4161C55.9053 36.6009 56.9175 37.5647 58.1619 37.5647C59.4062 37.5647 60.4185 36.6009 60.4185 35.4161C60.4185 34.2314 59.4062 33.2676 58.1619 33.2676Z" fill="white"></path><path d="M45.3503 28.8319H29.0446C28.4416 28.8319 27.9526 29.2973 27.9526 29.8716C27.9526 30.4458 28.4415 30.9112 29.0446 30.9112H45.3503C45.9532 30.9112 46.4422 30.4458 46.4422 29.8716C46.4422 29.2973 45.9534 28.8319 45.3503 28.8319Z" fill="white"></path><path d="M17.3976 24.3962H3.42129C2.81831 24.3962 2.32935 24.8617 2.32935 25.4359C2.32935 26.0101 2.81818 26.4755 3.42129 26.4755H17.3976C18.0006 26.4755 18.4896 26.0101 18.4896 25.4359C18.4896 24.8617 18.0006 24.3962 17.3976 24.3962Z" fill="white"></path><path d="M37.9692 10.2848C37.5429 9.87886 36.8514 9.87886 36.4251 10.2849L26.7149 19.5299L21.6635 14.7205C21.2371 14.3144 20.5457 14.3144 20.1194 14.7205C19.6929 15.1265 19.6929 15.7846 20.1194 16.1907L25.9429 21.7353C26.1561 21.9384 26.4355 22.0398 26.7149 22.0398C26.9943 22.0398 27.2739 21.9384 27.4869 21.7353L37.9691 11.7551C38.3955 11.3489 38.3955 10.6908 37.9692 10.2848Z" fill="white"></path></svg>