<svg xmlns="http://www.w3.org/2000/svg" width="38" height="38" viewBox="0 0 38 38" fill="none"><path d="M32.1273 5.32786C24.6728 -1.77595 12.8544 -1.77595 5.3999 5.32786C-1.9807 12.8677 -1.76903 24.8832 5.87269 32.1654C13.3272 39.2692 25.1456 39.2692 32.6001 32.1654C39.9807 24.6256 39.769 12.6101 32.1273 5.32786ZM31.696 31.2733L31.6896 31.267C24.6749 38.1819 13.3072 38.1768 6.29889 31.2556C-0.709376 24.3345 -0.70419 13.1184 6.31047 6.20353C13.3251 -0.711301 24.6929 -0.706185 31.7012 6.21487C35.0675 9.53931 36.9571 14.0473 36.954 18.7466C36.9543 23.445 35.063 27.951 31.696 31.2733Z" fill="#D6B87E"></path><path d="M29.8047 24.1496L26.2011 20.6066C25.3832 19.7978 24.0556 19.7962 23.2358 20.6032C23.2346 20.6043 23.2335 20.6055 23.2323 20.6066L21.1676 22.6438C21.0114 22.7983 20.7652 22.8196 20.5841 22.6944C19.4541 21.9152 18.3962 21.0387 17.423 20.0752C16.5513 19.2171 15.7495 18.2927 15.0248 17.3104C14.8935 17.134 14.9126 16.8893 15.0697 16.7347L17.1857 14.647C18.0026 13.8394 18.0026 12.5317 17.1857 11.7241L13.5821 8.16852C12.7517 7.38523 11.4437 7.38523 10.6133 8.16852L9.47199 9.29464C7.74831 10.9762 7.13297 13.4731 7.88176 15.7478C8.44052 17.412 9.23034 18.9918 10.2286 20.4421C11.1273 21.7718 12.1583 23.0094 13.3064 24.1369C14.5546 25.3773 15.9372 26.4783 17.4294 27.4204C19.0697 28.4765 20.8708 29.2668 22.7642 29.7612C23.251 29.8796 23.7506 29.9391 24.2518 29.9384C25.9704 29.928 27.6146 29.2454 28.8237 28.0404L29.8047 27.0724C30.6216 26.2649 30.6216 24.9572 29.8047 24.1496ZM28.8967 26.2096C28.8958 26.2104 28.895 26.2113 28.8941 26.2121L28.9005 26.1931L27.9194 27.1611C26.6589 28.4205 24.8231 28.9387 23.0783 28.5276C21.3203 28.0634 19.6492 27.3243 18.1281 26.3386C16.715 25.4475 15.4054 24.4059 14.2231 23.2322C13.1353 22.1668 12.158 20.9968 11.3056 19.7399C10.3732 18.3875 9.63528 16.9142 9.11266 15.3619C8.51356 13.5383 9.01002 11.5374 10.3951 10.1931L11.5364 9.06695C11.8538 8.75245 12.3694 8.75134 12.6881 9.06443C12.6889 9.06525 12.6898 9.06606 12.6906 9.06695L16.2942 12.6225C16.613 12.9356 16.6141 13.4443 16.2968 13.7588C16.2959 13.7596 16.2951 13.7604 16.2942 13.7613L14.1782 15.8491C13.5711 16.4416 13.4947 17.3832 13.9987 18.0634C14.764 19.0997 15.6109 20.0749 16.5315 20.98C17.5579 21.9971 18.6737 22.9223 19.8658 23.7448C20.5546 24.2188 21.4885 24.1389 22.0844 23.555L24.1298 21.5051C24.4471 21.1906 24.9627 21.1895 25.2814 21.5026C25.2823 21.5034 25.2831 21.5043 25.284 21.5051L28.894 25.0734C29.2129 25.3864 29.214 25.8951 28.8967 26.2096Z" fill="#D6B87E"></path></svg>