<svg xmlns="http://www.w3.org/2000/svg" width="33" height="50" viewBox="0 0 33 50" fill="none"><path d="M5.23746 4.91864H15.5081C15.6659 4.91864 15.8172 4.85596 15.9288 4.74439C16.0404 4.63281 16.103 4.48149 16.103 4.3237C16.103 4.16591 16.0404 4.01459 15.9288 3.90301C15.8172 3.79144 15.6659 3.72876 15.5081 3.72876H5.23746C5.07967 3.72876 4.92834 3.79144 4.81677 3.90301C4.7052 4.01459 4.64252 4.16591 4.64252 4.3237C4.64252 4.48149 4.7052 4.63281 4.81677 4.74439C4.92834 4.85596 5.07967 4.91864 5.23746 4.91864Z" fill="#D6B87E"></path><path d="M4.77463 8.69745H15.5081C15.6659 8.69745 15.8172 8.63477 15.9288 8.52319C16.0404 8.41162 16.1031 8.2603 16.1031 8.10251C16.1031 7.94472 16.0404 7.79339 15.9288 7.68182C15.8172 7.57025 15.6659 7.50757 15.5081 7.50757H4.77463C4.61684 7.50757 4.46551 7.57025 4.35394 7.68182C4.24237 7.79339 4.17969 7.94472 4.17969 8.10251C4.17969 8.2603 4.24237 8.41162 4.35394 8.52319C4.46551 8.63477 4.61684 8.69745 4.77463 8.69745Z" fill="#D6B87E"></path><path d="M4.77463 12.4765H28.7372C28.895 12.4765 29.0463 12.4138 29.1579 12.3022C29.2695 12.1907 29.3322 12.0393 29.3322 11.8816C29.3322 11.7238 29.2695 11.5724 29.1579 11.4609C29.0463 11.3493 28.895 11.2866 28.7372 11.2866H4.77463C4.61684 11.2866 4.46551 11.3493 4.35394 11.4609C4.24237 11.5724 4.17969 11.7238 4.17969 11.8816C4.17969 12.0393 4.24237 12.1907 4.35394 12.3022C4.46551 12.4138 4.61684 12.4765 4.77463 12.4765Z" fill="#D6B87E"></path><path d="M28.7372 16.2556C28.895 16.2556 29.0463 16.1929 29.1579 16.0813C29.2695 15.9697 29.3322 15.8184 29.3322 15.6606C29.3322 15.5028 29.2695 15.3515 29.1579 15.2399C29.0463 15.1284 28.895 15.0657 28.7372 15.0657H4.77463C4.61684 15.0657 4.46551 15.1284 4.35394 15.2399C4.24237 15.3515 4.17969 15.5028 4.17969 15.6606C4.17969 15.8184 4.24237 15.9697 4.35394 16.0813C4.46551 16.1929 4.61684 16.2556 4.77463 16.2556H28.7372Z" fill="#D6B87E"></path><path d="M28.0627 39.0936C28.1832 39.2611 28.3418 39.3976 28.5255 39.4917C28.7091 39.5858 28.9125 39.6348 29.1188 39.6348C29.2979 39.6347 29.475 39.598 29.6394 39.527L31.8982 38.5573C32.0587 38.4888 32.2038 38.3887 32.3247 38.2629C32.4456 38.1371 32.5399 37.9882 32.602 37.8251C32.664 37.662 32.6925 37.488 32.6857 37.3136C32.6789 37.1393 32.637 36.9681 32.5626 36.8102L31.7769 35.1496L31.6047 2.27795C31.6002 1.67025 31.3548 1.08915 30.9224 0.662107C30.49 0.235069 29.9059 -0.00303337 29.2982 2.91818e-05H4.12027C3.51256 -0.00303337 2.92844 0.235069 2.49605 0.662107C2.06366 1.08915 1.8183 1.67025 1.81379 2.27795V33.7171L0.151525 36.8712C-0.00801702 37.1706 -0.0431743 37.5208 0.0536707 37.8459C0.150516 38.1711 0.371564 38.445 0.668925 38.6082L2.81339 39.8061C3.00791 39.9155 3.22729 39.973 3.45047 39.9732C3.57697 39.9731 3.70279 39.9548 3.82409 39.9189C3.99102 39.8703 4.14646 39.7887 4.28115 39.6787C4.41583 39.5688 4.527 39.4329 4.60802 39.279L4.84025 38.8409L5.61367 39.48L4.25572 41.3483C4.03147 41.6567 3.8969 42.0211 3.8669 42.4012C3.8369 42.7813 3.91264 43.1623 4.08574 43.502C4.25883 43.8417 4.52254 44.127 4.84768 44.3261C5.17282 44.5253 5.54671 44.6306 5.92799 44.6304C6.04878 44.6304 6.16934 44.62 6.28833 44.5992C6.28892 44.6031 6.28902 44.607 6.28962 44.6109C6.33262 44.8804 6.42894 45.1386 6.57295 45.3705C6.71695 45.6023 6.90575 45.8031 7.12829 45.9611C7.47896 46.2117 7.89934 46.3462 8.33036 46.3455C8.45141 46.3455 8.57224 46.335 8.69149 46.3142C8.69218 46.3183 8.69228 46.3224 8.69288 46.3266C8.77146 46.8111 9.01998 47.2518 9.39392 47.5698C9.76786 47.8877 10.2428 48.0622 10.7336 48.0618C10.8544 48.0618 10.9749 48.0514 11.0939 48.0306C11.0945 48.0346 11.0946 48.0384 11.0951 48.0423C11.1739 48.5267 11.4225 48.9673 11.7965 49.2851C12.1705 49.6029 12.6454 49.7772 13.1362 49.7767C13.4643 49.7775 13.7879 49.7006 14.0806 49.5523C14.3732 49.4039 14.6266 49.1884 14.82 48.9233L15.2503 48.3313L16.0557 48.969C16.5026 49.3455 17.0792 49.5317 17.6619 49.4878C18.2446 49.4439 18.7868 49.1733 19.1722 48.7341C19.4578 48.4085 19.6399 48.0052 19.6954 47.5757C20.1044 47.698 20.5399 47.7002 20.9501 47.5821C21.3602 47.4639 21.7278 47.2303 22.009 46.9091C22.2944 46.5835 22.4764 46.1803 22.5319 45.7509C22.9408 45.8732 23.3763 45.8755 23.7865 45.7573C24.1967 45.6391 24.5642 45.4055 24.8454 45.0844C25.1125 44.7785 25.2891 44.4042 25.3551 44.0036C25.7832 44.1693 26.252 44.1992 26.6977 44.0893C27.1435 43.9794 27.5446 43.735 27.8467 43.3893L27.8734 43.3586C28.0603 43.1445 28.2028 42.8954 28.2927 42.6258C28.3826 42.3562 28.4182 42.0715 28.3972 41.7881C28.3763 41.5046 28.2993 41.2282 28.1708 40.9747C28.0422 40.7212 27.8647 40.4958 27.6484 40.3115L27.1582 39.8921C27.4927 39.6658 27.7966 39.3974 28.0627 39.0936ZM31.4902 37.4008C31.4848 37.415 31.4766 37.4279 31.466 37.4388C31.4555 37.4496 31.4427 37.4582 31.4287 37.4639L29.1699 38.4337C29.1421 38.446 29.1106 38.4471 29.082 38.4369C29.0533 38.4266 29.0297 38.4058 29.0159 38.3787L28.7306 37.7787C28.7112 37.6974 28.6749 37.6212 28.6242 37.5548L23.4796 26.744C23.4733 26.7311 23.4698 26.717 23.4692 26.7026C23.4687 26.6882 23.4712 26.6739 23.4766 26.6606C23.4823 26.6461 23.491 26.6329 23.5022 26.622C23.5133 26.6112 23.5267 26.6028 23.5413 26.5974L25.8626 25.6909C25.8902 25.6797 25.9211 25.6793 25.9489 25.6899C25.9768 25.7004 25.9997 25.7211 26.013 25.7477L31.4864 37.3193C31.4926 37.3319 31.4961 37.3457 31.4967 37.3597C31.4974 37.3737 31.4952 37.3877 31.4902 37.4008ZM3.00367 2.27795C3.00782 1.98572 3.12771 1.70706 3.33703 1.50309C3.54635 1.29912 3.82802 1.18649 4.12027 1.18991H29.2982C29.591 1.18666 29.873 1.29977 30.0824 1.50439C30.2918 1.70901 30.4113 1.98839 30.4148 2.28113L30.5735 32.606L27.0883 25.2387C26.9455 24.9402 26.6953 24.7068 26.3877 24.5851C26.0801 24.4634 25.7378 24.4625 25.4295 24.5824L23.1082 25.4888C22.9418 25.5533 22.7905 25.6514 22.6638 25.777C22.5371 25.9026 22.4376 26.0529 22.3716 26.2187C22.3056 26.3845 22.2745 26.5621 22.2802 26.7404C22.286 26.9187 22.3284 27.0939 22.405 27.2551L22.6473 27.7645L22.574 27.7954C21.6879 27.9776 21.0695 27.9512 20.1531 27.6963L17.8342 27.05C17.147 26.858 16.4189 26.8697 15.7382 27.0836L13.5 27.7853C13.0531 27.9251 12.6371 28.1492 12.2745 28.4454C11.6805 28.269 11.0578 28.2099 10.4412 28.2714L10.6038 27.9646C10.7586 27.6713 10.7953 27.3299 10.7064 27.0105C10.6174 26.691 10.4096 26.4177 10.1255 26.2467L7.99363 24.9611C7.84115 24.8691 7.67151 24.8092 7.49507 24.7849C7.31863 24.7607 7.13911 24.7727 6.96748 24.8203C6.79585 24.8678 6.63572 24.9499 6.49688 25.0614C6.35805 25.173 6.24342 25.3116 6.16002 25.469L3.00317 31.4591L3.00367 2.27795ZM3.55666 38.7219C3.54948 38.7354 3.53962 38.7473 3.52769 38.7569C3.51576 38.7665 3.502 38.7735 3.48725 38.7776C3.4718 38.7824 3.45552 38.784 3.43943 38.7823C3.42334 38.7806 3.40776 38.7756 3.39365 38.7677L1.24909 37.5699C1.22423 37.5567 1.20558 37.5342 1.19717 37.5073C1.18877 37.4804 1.19128 37.4513 1.20417 37.4263L7.21306 26.0243C7.22035 26.0104 7.23045 25.9983 7.24271 25.9885C7.25496 25.9788 7.26912 25.9717 7.28426 25.9678C7.29524 25.9647 7.30658 25.9632 7.31797 25.9631C7.33971 25.9631 7.36102 25.9692 7.37955 25.9806L9.51082 27.2661C9.53478 27.2798 9.55251 27.3022 9.56026 27.3286C9.56801 27.3551 9.56518 27.3835 9.55237 27.4079L3.55666 38.7219ZM5.41813 43.2779C5.32383 43.2106 5.24379 43.1252 5.18265 43.0268C5.1215 42.9284 5.08045 42.8188 5.06187 42.7044C5.04328 42.59 5.04753 42.4731 5.07437 42.3604C5.10121 42.2476 5.1501 42.1413 5.21823 42.0476L7.44658 38.9821C7.5843 38.7936 7.79069 38.667 8.02107 38.6296C8.25145 38.5921 8.48731 38.6469 8.67761 38.7821C8.77188 38.8494 8.85188 38.9346 8.91301 39.033C8.97414 39.1314 9.01518 39.2409 9.03375 39.3552C9.05233 39.4695 9.04808 39.5864 9.02124 39.6991C8.99441 39.8117 8.94552 39.9179 8.87741 40.0116L8.27315 40.8426L6.65779 43.0648L6.64837 43.0777C6.51078 43.2661 6.30456 43.3927 6.07432 43.4302C5.84408 43.4677 5.60834 43.413 5.41813 43.2779ZM7.8198 44.9933C7.72567 44.9261 7.64576 44.841 7.58471 44.7427C7.52365 44.6445 7.48265 44.5352 7.46406 44.421C7.44548 44.3069 7.44968 44.1901 7.47643 44.0776C7.50318 43.9651 7.55194 43.859 7.6199 43.7654L9.23616 41.5426C9.37385 41.3546 9.57997 41.2282 9.81002 41.1909C10.0401 41.1535 10.2756 41.2081 10.4657 41.3429C10.56 41.4102 10.64 41.4956 10.7012 41.594C10.7623 41.6925 10.8034 41.802 10.822 41.9164C10.8405 42.0308 10.8363 42.1477 10.8095 42.2605C10.7826 42.3732 10.7337 42.4795 10.6656 42.5732L10.1565 43.2736L9.06144 44.7792L9.05202 44.7921C8.9142 44.9807 8.70767 45.1075 8.47708 45.1451C8.2465 45.1827 8.01039 45.128 7.8198 44.9928V44.9933ZM10.2238 46.7099C10.1295 46.6426 10.0494 46.5572 9.98827 46.4588C9.92712 46.3603 9.88607 46.2508 9.86748 46.1364C9.8489 46.022 9.85315 45.905 9.87999 45.7923C9.90683 45.6796 9.95572 45.5733 10.0239 45.4795L11.1354 43.9504C11.2732 43.762 11.4795 43.6354 11.7099 43.598C11.9403 43.5606 12.1761 43.6153 12.3664 43.7504C12.4607 43.8177 12.5407 43.903 12.6018 44.0014C12.6629 44.0997 12.704 44.2093 12.7225 44.3236C12.7411 44.4379 12.7368 44.5547 12.71 44.6674C12.6831 44.7801 12.6343 44.8863 12.5661 44.98L11.8283 45.995L11.4634 46.497V46.4974L11.4541 46.5102C11.3163 46.6984 11.11 46.8248 10.8798 46.8621C10.6495 46.8993 10.4139 46.8445 10.2238 46.7094V46.7099ZM13.8575 48.2246C13.7196 48.4131 13.513 48.5398 13.2825 48.5773C13.0519 48.6147 12.8159 48.5599 12.6254 48.4248C12.5313 48.3575 12.4515 48.2724 12.3904 48.1741C12.3294 48.0759 12.2884 47.9665 12.2698 47.8524C12.2512 47.7383 12.2554 47.6216 12.2821 47.509C12.3089 47.3965 12.3576 47.2904 12.4255 47.1968L13.0356 46.3575C13.1734 46.1692 13.3798 46.0426 13.6102 46.0052C13.8405 45.9678 14.0763 46.0225 14.2667 46.1575C14.3609 46.2248 14.4409 46.3101 14.502 46.4085C14.5632 46.5069 14.6042 46.6164 14.6228 46.7307C14.6413 46.845 14.6371 46.9619 14.6102 47.0745C14.5834 47.1872 14.5345 47.2934 14.4664 47.3871L13.8575 48.2246ZM26.9759 42.5772L26.9492 42.6078C26.7691 42.8146 26.5148 42.9421 26.2414 42.9628C25.968 42.9836 25.6974 42.8959 25.4881 42.7188L24.6206 41.9757C24.6192 41.9745 24.6181 41.9732 24.6167 41.972L22.3174 40.0035C22.2584 39.9506 22.1893 39.91 22.1144 39.8841C22.0395 39.8582 21.9601 39.8476 21.881 39.8528C21.8019 39.8581 21.7246 39.879 21.6537 39.9146C21.5828 39.9501 21.5198 39.9994 21.4682 40.0596C21.4167 40.1199 21.3777 40.1898 21.3535 40.2653C21.3294 40.3409 21.3206 40.4204 21.3277 40.4994C21.3347 40.5784 21.3575 40.6552 21.3946 40.7252C21.4318 40.7952 21.4826 40.8572 21.544 40.9073L21.5559 40.9172L21.5757 40.934C21.7664 41.0973 22.8212 42.0003 23.8471 42.8789C23.9479 42.9653 24.0306 43.0708 24.0903 43.1894C24.1501 43.3079 24.1857 43.4372 24.1952 43.5696C24.2047 43.702 24.1878 43.835 24.1456 43.9608C24.1033 44.0867 24.0366 44.2029 23.9491 44.3028C23.7689 44.5079 23.5153 44.6338 23.2431 44.6534C22.9708 44.673 22.7018 44.5847 22.4941 44.4076L20.1944 42.4391C20.1087 42.3657 20.0039 42.3183 19.8922 42.3022C19.7806 42.2862 19.6667 42.3022 19.5638 42.3484C19.4609 42.3946 19.3733 42.4691 19.3111 42.5632C19.249 42.6573 19.2148 42.7672 19.2127 42.8799V42.8816C19.2112 42.9691 19.2292 43.0558 19.2652 43.1356C19.3012 43.2153 19.3544 43.2861 19.4209 43.3429L21.0074 44.7007C21.1089 44.7869 21.1922 44.8925 21.2526 45.0112C21.3129 45.1299 21.349 45.2594 21.3588 45.3922C21.3687 45.525 21.352 45.6584 21.3098 45.7847C21.2676 45.9109 21.2007 46.0276 21.113 46.1278C20.9328 46.3329 20.6792 46.4588 20.4069 46.4784C20.1346 46.4981 19.8655 46.4097 19.6578 46.2326L18.9449 45.6223L18.9443 45.6217L18.0717 44.875C17.9514 44.7762 17.7971 44.7285 17.642 44.7422C17.4869 44.7558 17.3433 44.8297 17.2421 44.948C17.1408 45.0663 17.09 45.2196 17.1005 45.375C17.111 45.5303 17.182 45.6754 17.2983 45.779L18.0568 46.4282L18.1706 46.5256C18.2721 46.6118 18.3554 46.7174 18.4158 46.8361C18.4761 46.9548 18.5122 47.0843 18.5221 47.2171C18.5319 47.3499 18.5152 47.4834 18.473 47.6097C18.4308 47.736 18.364 47.8526 18.2763 47.9529C18.0961 48.1579 17.8425 48.2839 17.5702 48.3035C17.2979 48.3231 17.0288 48.2348 16.8211 48.0577C16.8154 48.0527 16.8094 48.0478 16.8036 48.0432L15.7902 47.2407C15.843 46.9543 15.8345 46.66 15.7653 46.3772C15.696 46.0943 15.5675 45.8293 15.3884 45.5998C15.2092 45.3702 14.9834 45.1812 14.7258 45.0453C14.4682 44.9094 14.1848 44.8297 13.8941 44.8114C13.9435 44.5263 13.9322 44.234 13.861 43.9535C13.7898 43.6731 13.6604 43.4108 13.4811 43.1837C13.3018 42.9566 13.0766 42.7698 12.8204 42.6355C12.5641 42.5012 12.2824 42.4224 11.9936 42.4043C12.0417 42.1258 12.0321 41.8403 11.9652 41.5657C11.8983 41.2911 11.7757 41.0332 11.6049 40.808C11.4341 40.5828 11.2189 40.3951 10.9725 40.2566C10.7261 40.1181 10.4539 40.0318 10.1727 40.003C10.2894 39.5362 10.2401 39.0433 10.0331 38.6089C9.82609 38.1745 9.47439 37.8256 9.03831 37.6222C8.60222 37.4188 8.10894 37.3734 7.64309 37.494C7.17723 37.6145 6.76784 37.8934 6.48516 38.2828L6.3155 38.5161L5.4101 37.7677L9.73858 29.5996C10.2827 29.4481 10.851 29.4034 11.4121 29.4681C11.3426 29.59 11.28 29.7158 11.2248 29.8449L10.5407 31.4964C10.3654 31.9198 10.2035 32.3552 10.0597 32.7903L9.37716 34.8551C9.33073 34.9954 9.33817 35.1479 9.39803 35.283C9.4579 35.4181 9.5659 35.5261 9.701 35.586L9.84805 35.6509C10.3936 35.898 10.9927 36.0036 11.5899 35.958C12.1871 35.9123 12.7631 35.7168 13.2648 35.3896C13.6974 35.1072 14.0612 34.7313 14.3292 34.2896C14.5972 33.8479 14.7627 33.3517 14.8133 32.8375C14.8167 32.8033 14.8197 32.7688 14.8223 32.734C14.855 32.5805 15.0632 31.7187 15.6354 31.6514L16.5911 31.9186C16.9457 32.0177 17.2697 32.2045 17.5331 32.4618L23.6382 38.444C23.6481 38.4533 23.658 38.4623 23.6679 38.471L26.8749 41.2156C26.9718 41.2978 27.0513 41.3984 27.1089 41.5116C27.1664 41.6248 27.2009 41.7483 27.2104 41.875C27.2198 42.0016 27.2039 42.1289 27.1637 42.2494C27.1235 42.3698 27.0597 42.4811 26.9761 42.5767L26.9759 42.5772ZM24.4555 37.5804L18.3648 31.6125C17.9584 31.215 17.4584 30.9264 16.911 30.7732L15.8619 30.4799C15.809 30.4648 15.7543 30.4573 15.6993 30.4579C14.9895 30.4608 14.3842 30.8563 13.9947 31.5713C13.829 31.8797 13.711 32.2115 13.6448 32.5552C13.6415 32.5747 13.6391 32.5943 13.6378 32.614C13.6352 32.6505 13.6322 32.6869 13.6288 32.7231C13.5949 33.0605 13.4856 33.386 13.3092 33.6756C13.1327 33.9653 12.8936 34.2116 12.6093 34.3965C12.3269 34.5775 12.0096 34.697 11.678 34.7472C11.3465 34.7974 11.008 34.7772 10.6847 34.6879L11.1884 33.1638C11.3231 32.756 11.4747 32.3483 11.639 31.9517L12.3207 30.3057C12.461 29.9774 12.6709 29.6836 12.936 29.4445C13.201 29.2054 13.5148 29.0267 13.8557 28.9207L16.0938 28.219C16.5553 28.0741 17.0488 28.0662 17.5146 28.1963L19.8337 28.8423C20.9647 29.1573 21.7607 29.185 22.8758 28.9481C22.9128 28.9403 22.9489 28.9289 22.9836 28.9142L23.1589 28.8401L27.4723 37.903C27.1549 38.3937 26.7206 38.7977 26.2084 39.0789L24.4555 37.5804Z" fill="#D6B87E"></path><path d="M6.82679 23.5088C7.1774 23.6684 7.55883 23.7487 7.94399 23.7442C8.49848 23.747 9.04283 23.5956 9.51622 23.3069C9.85508 23.0804 10.1475 22.7911 10.3776 22.4547C10.4167 22.4027 10.4638 22.3399 10.5052 22.2894C10.6664 22.4326 10.8441 22.556 11.0346 22.657C11.5258 22.9157 12.0711 23.0548 12.6262 23.063C13.2936 23.0745 13.9513 22.9014 14.5267 22.563C14.5949 22.524 14.6548 22.4719 14.7027 22.4097C14.7507 22.3475 14.7859 22.2764 14.8063 22.2006C14.8266 22.1247 14.8318 22.0455 14.8214 21.9676C14.811 21.8898 14.7853 21.8147 14.7457 21.7468C14.7062 21.679 14.6536 21.6196 14.5909 21.5721C14.5283 21.5247 14.4569 21.4901 14.3809 21.4704C14.3048 21.4507 14.2256 21.4463 14.1478 21.4574C14.07 21.4684 13.9952 21.4948 13.9277 21.5349C13.5419 21.7632 13.1005 21.8803 12.6523 21.8735C12.2848 21.8695 11.9234 21.7788 11.5975 21.6087C11.4702 21.5411 11.3527 21.4567 11.2481 21.3575C11.062 21.1631 10.8083 21.0476 10.5395 21.0351C9.96659 21.0188 9.65474 21.4357 9.42598 21.7404C9.28107 21.9594 9.09644 22.1493 8.88161 22.3003C8.44205 22.5775 7.76333 22.636 7.33656 22.4337C7.19296 22.3626 7.06575 22.2624 6.96303 22.1395C7.42876 22.0691 7.86903 21.8817 8.24265 21.5949C8.60341 21.3084 8.89339 20.9427 9.09014 20.5261C9.34497 19.9737 9.3418 19.447 9.08122 19.0432C8.86149 18.7028 8.46496 18.4697 7.96461 18.3868C7.29798 18.2761 6.56423 18.4445 6.09521 18.8154C5.57831 19.2241 5.29205 19.9311 5.29839 20.7524L5.28729 20.7476C5.14227 20.6854 4.97848 20.6834 4.83197 20.742C4.68546 20.8006 4.56821 20.915 4.50603 21.06C4.44385 21.205 4.44182 21.3688 4.5004 21.5153C4.55898 21.6618 4.67336 21.779 4.81838 21.8412C5.05815 21.9444 5.30675 22.0257 5.56116 22.0841C5.82531 22.732 6.27171 23.2457 6.82679 23.5088ZM6.83324 19.7487C7.0444 19.6071 7.29461 19.5351 7.54875 19.543C7.62285 19.5428 7.69684 19.5487 7.76997 19.5606C7.97929 19.5953 8.06744 19.6664 8.08152 19.6885C8.14438 19.7861 7.95172 20.3111 7.50859 20.6584C7.21753 20.8741 6.86549 20.9917 6.50324 20.9943C6.44345 20.4522 6.57563 19.9524 6.83324 19.7487Z" fill="#D6B87E"></path><path d="M28.7372 20.8643H19.8073C19.6496 20.8643 19.4982 20.9269 19.3867 21.0385C19.2751 21.1501 19.2124 21.3014 19.2124 21.4592C19.2124 21.617 19.2751 21.7683 19.3867 21.8799C19.4982 21.9915 19.6496 22.0541 19.8073 22.0541H28.7372C28.895 22.0541 29.0463 21.9915 29.1579 21.8799C29.2694 21.7683 29.3321 21.617 29.3321 21.4592C29.3321 21.3014 29.2694 21.1501 29.1579 21.0385C29.0463 20.9269 28.895 20.8643 28.7372 20.8643Z" fill="#D6B87E"></path></svg>