<svg xmlns="http://www.w3.org/2000/svg" width="60" height="48" viewBox="0 0 60 48" fill="none"><path d="M40.6896 47.8701C34.5709 47.8701 31.1791 44.5992 31.1243 38.6549C30.9246 38.5383 30.3747 38.3756 29.5777 38.3756C28.7809 38.3756 28.2309 38.5383 28.0311 38.6549C27.9765 44.5992 24.5844 47.8701 18.4659 47.8701C17.9873 47.8701 17.5993 47.4821 17.5993 47.0035C17.5993 46.525 17.9873 46.137 18.4659 46.137C23.6633 46.137 26.2988 43.5703 26.2988 38.5084C26.2988 36.8597 23.0831 35.0805 17.8882 35.0805C15.1786 35.0805 10.633 35.4508 10.633 37.9307C10.633 40.7998 11.4786 44.4814 15.5073 45.7268C15.9646 45.8682 16.2206 46.3534 16.0793 46.8106C15.9379 47.2678 15.4524 47.5238 14.9956 47.3826C11.302 46.2409 9.16771 43.2078 8.92346 38.7972H7.76993C7.29137 38.7972 6.9034 38.4092 6.9034 37.9307C6.9034 37.4521 7.29137 37.0641 7.76993 37.0641H8.99683C9.43137 35.2089 11.4676 33.3474 17.8882 33.3474C22.6802 33.3474 26.4011 34.7903 27.6121 36.944C28.1355 36.7484 28.7999 36.6426 29.5777 36.6426C30.3555 36.6426 31.02 36.7484 31.5434 36.944C32.7543 34.7903 36.4752 33.3474 41.2673 33.3474C47.6877 33.3474 49.724 35.2089 50.1585 37.0641H51.3855C51.8642 37.0641 52.2521 37.4521 52.2521 37.9307C52.2521 38.4092 51.8642 38.7972 51.3855 38.7972H50.2317C49.9118 44.498 46.3961 47.8701 40.6896 47.8701ZM41.2673 35.0805C36.0722 35.0805 32.8567 36.8599 32.8567 38.5084C32.8567 43.5704 35.4921 46.137 40.6896 46.137C45.7407 46.137 48.5225 43.2225 48.5225 37.9307C48.5225 35.4508 43.9769 35.0805 41.2673 35.0805ZM29.5777 31.9602C22.5472 31.9602 15.1608 31.3584 9.31236 30.3091C6.66862 29.8348 4.45076 29.2866 2.89862 28.7239C0.893918 27.9972 0 27.2562 0 26.3213C0 25.0324 1.54578 24.3721 2.70844 23.9875C3.80236 23.6258 5.26611 23.2967 7.05914 23.0097C7.53111 22.9344 7.97605 23.2557 8.05173 23.7284C8.12741 24.2009 7.80563 24.6454 7.33308 24.721C3.34898 25.3589 2.15929 26.0344 1.83047 26.298C2.39245 26.7495 4.60766 27.7645 10.4238 28.7433C16.1105 29.7002 22.9128 30.2272 29.5776 30.2272C36.2424 30.2272 43.0448 29.7002 48.7314 28.7433C54.5588 27.7627 56.7712 26.7455 57.328 26.2954C57.038 26.0558 56.0501 25.4858 52.8563 24.8984C50.983 24.5539 49.1779 24.3591 48.6534 24.3061C47.4901 24.6106 40.414 26.3376 29.5776 26.3376C17.9461 26.3376 10.6471 24.3479 10.342 24.2632C9.9276 24.1481 9.66025 23.7464 9.7142 23.3196C9.72137 23.263 10.4429 17.5881 11.5032 11.9864C12.1294 8.67818 12.7511 6.03536 13.3509 4.13164C14.2753 1.1972 15.1192 0.000230949 16.2632 0.000230949C20.4151 0.000230949 24.396 1.20287 27.0301 1.99869C28.1438 2.33514 29.1958 2.65298 29.5775 2.65298C29.9594 2.65298 31.0113 2.33514 32.1251 1.99869C33.2667 1.65381 34.6874 1.22459 36.2573 0.855328C36.7233 0.746029 37.1897 1.03441 37.2994 1.50038C37.4089 1.96623 37.12 2.43277 36.6542 2.5423C35.137 2.8992 33.7448 3.31975 32.6264 3.65759C31.1747 4.09617 30.2155 4.38594 29.5776 4.38594C28.9397 4.38594 27.9808 4.09617 26.529 3.65759C24.0096 2.89642 20.2111 1.74878 16.3426 1.7333C16.095 1.92475 14.8651 3.32634 13.091 12.9235C12.3261 17.0617 11.7553 21.1279 11.534 22.7734C13.6525 23.2669 20.2546 24.6045 29.5775 24.6045C38.9005 24.6045 45.5022 23.267 47.621 22.7734C47.4916 21.8107 47.2425 20.0195 46.9051 17.8708C44.7417 18.3145 38.5152 19.4052 29.5775 19.4052C23.0196 19.4052 17.8819 18.8106 14.7267 18.312C14.254 18.2372 13.9313 17.7934 14.0061 17.3208C14.0808 16.848 14.525 16.5259 14.9973 16.6002C18.0912 17.0892 23.1321 17.6721 29.5775 17.6721C38.3796 17.6721 44.6163 16.5664 46.6286 16.1557C46.4556 15.1103 46.266 14.016 46.0629 12.9168C44.2893 3.32541 43.0601 1.92452 42.8125 1.7333C41.8152 1.73734 40.7505 1.81788 39.6466 1.97281C39.1747 2.03948 38.7346 1.70915 38.668 1.2351C38.6016 0.761164 38.9318 0.323044 39.4059 0.256494C40.6185 0.0863066 41.7914 0 42.8919 0C44.0359 0 44.8798 1.19697 45.8042 4.13141C46.404 6.03524 47.0257 8.67795 47.6519 11.9861C48.4968 16.4501 49.1268 20.9603 49.3514 22.6372C50.2544 22.7382 51.9172 22.9469 53.601 23.2755C57.4944 24.0355 59.1555 24.9464 59.1555 26.3213C59.1555 27.2562 58.2615 27.9972 56.257 28.7239C54.7046 29.2866 52.4868 29.8348 49.8431 30.3091C43.9947 31.3584 36.6083 31.9602 29.5777 31.9602Z" fill="#D6B87E"></path></svg>