<svg xmlns="http://www.w3.org/2000/svg" width="46" height="46" viewBox="0 0 46 46" fill="none"><path d="M45.2806 22.348H39.1215C38.2451 19.8378 35.8551 18.0313 33.0499 18.0313C30.2446 18.0313 27.8546 19.8378 26.9783 22.348H23.682V10.7671C24.3568 10.8054 25.0265 10.8982 25.6806 11.0452C26.0439 11.1272 26.4049 10.8984 26.4866 10.535C26.5683 10.1715 26.3398 9.81069 25.9764 9.72902C25.2255 9.56029 24.4564 9.45598 23.682 9.41645V3.566C24.5835 3.59816 25.4823 3.69115 26.3625 3.8455C26.7302 3.90956 27.079 3.66446 27.1435 3.29754C27.2078 2.93062 26.9624 2.58104 26.5955 2.51671C25.6388 2.34897 24.6616 2.24915 23.682 2.21636V0.674458C23.682 0.301876 23.3801 0 23.0076 0C22.6351 0 22.3331 0.301876 22.3331 0.674458V2.2142C17.0137 2.37493 12.0361 4.52122 8.25621 8.30113C4.48339 12.0739 2.33828 17.0399 2.17036 22.348H0.674458C0.301965 22.348 0 22.6499 0 23.0225C0 23.3951 0.301965 23.697 0.674458 23.697H2.17027C2.3381 29.0051 4.4833 33.9712 8.25612 37.7439C12.036 41.5238 17.0136 43.6701 22.333 43.8308V45.3255C22.333 45.6981 22.635 46 23.0075 46C23.38 46 23.682 45.6981 23.682 45.3255V43.8287C29.0569 43.6517 34.0645 41.4543 37.8482 37.5929C38.1089 37.3268 38.1047 36.8997 37.8386 36.6392C37.5725 36.3784 37.1455 36.3826 36.8849 36.6488C33.357 40.249 28.6914 42.3024 23.682 42.4787V36.628C26.4884 36.4825 29.1879 35.4709 31.3962 33.7345C32.0409 34.4746 32.5071 34.9449 32.5728 35.0107C32.8326 35.2703 33.267 35.2703 33.5267 35.0107C33.7697 34.7675 39.4798 29.0052 39.4798 24.4613C39.4798 24.2024 39.4627 23.9477 39.4328 23.6969H42.4356C42.308 27.4538 41.1156 31.0499 38.9665 34.1357C38.7729 34.4137 38.8199 34.805 39.0752 35.0283C39.3737 35.2895 39.8468 35.2321 40.0734 34.9066C42.3808 31.5934 43.657 27.7309 43.785 23.6969H45.2803C45.6529 23.6969 45.9548 23.395 45.9548 23.0224C45.9548 22.6498 45.6532 22.348 45.2806 22.348ZM22.333 3.56411V9.41376C20.6435 9.49138 19.013 9.87412 17.4725 10.5563C16.7809 9.12689 15.3161 8.13878 13.6246 8.13878C11.2691 8.13878 9.35284 10.0552 9.35284 12.4105C9.35284 13.7737 10.1336 15.2932 10.9872 16.5475C10.0233 18.3305 9.4718 20.3157 9.37135 22.348H3.52026C3.86985 12.1373 12.1185 3.89815 22.333 3.56411ZM13.1478 19.1828C13.4074 19.4425 13.842 19.4425 14.1015 19.1828C14.2565 19.0278 17.8964 15.3541 17.8964 12.4106C17.8964 12.2247 17.8832 12.0419 17.86 11.8622C19.2743 11.212 20.7752 10.8432 22.333 10.7638V16.6248C19.311 16.927 16.8991 19.3301 16.583 22.348H10.7219C10.8094 20.7533 11.2061 19.1928 11.8871 17.758C12.5459 18.5761 13.0898 19.1249 13.1478 19.1828ZM10.7018 12.4106C10.7018 10.799 12.013 9.48779 13.6247 9.48779C15.2363 9.48779 16.5475 10.7989 16.5475 12.4106C16.5475 14.1121 14.7344 16.4873 13.6247 17.7224C13.2527 17.3085 12.8019 16.7663 12.3667 16.1645C12.346 16.129 12.3218 16.0953 12.2944 16.0637C11.4591 14.8908 10.7018 13.5102 10.7018 12.4106ZM22.333 42.481C12.1186 42.1469 3.86985 33.9078 3.52035 23.6971H9.36991C9.49426 26.2669 10.3285 28.7125 11.805 30.822C11.6162 31.3039 11.5113 31.8275 11.5113 32.3754C11.5113 35.3189 15.1513 38.9926 15.3062 39.1477C15.5658 39.4073 16.0004 39.4073 16.26 39.1477C16.353 39.0546 17.7021 37.693 18.7655 35.9828C19.9189 36.3575 21.1146 36.5752 22.333 36.6319V42.481ZM12.8603 32.3754C12.8603 30.7637 14.1714 29.4526 15.7831 29.4526C17.3947 29.4526 18.7059 30.7637 18.7059 32.3754C18.7059 34.0769 16.8928 36.4521 15.7831 37.6873C14.673 36.4519 12.8603 34.0768 12.8603 32.3754ZM22.333 35.281C21.3426 35.2299 20.3697 35.061 19.4269 34.7763C19.8019 33.9771 20.0548 33.1509 20.0548 32.3754C20.0548 30.02 18.1384 28.1037 15.7831 28.1037C14.5095 28.1037 13.3652 28.6646 12.5818 29.5516C11.4695 27.7873 10.8347 25.7891 10.7222 23.6971H16.583C16.8991 26.715 19.3111 29.1181 22.333 29.4203V35.281ZM22.333 28.0614C20.0559 27.7717 18.2455 25.9699 17.9425 23.6971H22.333V28.0614ZM22.333 22.348H17.9425C18.2454 20.0751 20.0559 18.2734 22.333 17.9837V22.348ZM23.682 23.6971H26.6668C26.6369 23.948 26.6198 24.2027 26.6198 24.4614C26.6198 25.0497 26.7161 25.6583 26.8832 26.2728C26.0652 27.258 24.9344 27.8827 23.682 28.054V23.6971ZM23.682 35.2772V29.4128C25.0684 29.2581 26.3735 28.6523 27.3872 27.7004C28.1784 29.5491 29.4456 31.3478 30.5307 32.6995C28.5654 34.2343 26.1721 35.1338 23.682 35.2772ZM33.0499 33.5539C31.7026 32.0922 27.9688 27.7447 27.9688 24.4614C27.9688 21.6598 30.2482 19.3803 33.0499 19.3803C35.8516 19.3803 38.131 21.6598 38.131 24.4614C38.131 27.7447 34.3972 32.0922 33.0499 33.5539Z" fill="#D6B87E"></path><path d="M13.6247 10.3872C12.5089 10.3872 11.6012 11.295 11.6012 12.4107C11.6012 13.5264 12.5089 14.4341 13.6247 14.4341C14.7404 14.4341 15.6481 13.5264 15.6481 12.4107C15.6481 11.295 14.7404 10.3872 13.6247 10.3872ZM13.6247 13.0851C13.2527 13.0851 12.9502 12.7826 12.9502 12.4107C12.9502 12.0387 13.2527 11.7362 13.6247 11.7362C13.9966 11.7362 14.2991 12.0387 14.2991 12.4107C14.2991 12.7826 13.9966 13.0851 13.6247 13.0851Z" fill="#D6B87E"></path><path d="M15.783 30.3521C14.6672 30.3521 13.7595 31.2598 13.7595 32.3755C13.7595 33.4912 14.6672 34.399 15.783 34.399C16.8987 34.399 17.8064 33.4912 17.8064 32.3755C17.8064 31.2598 16.8987 30.3521 15.783 30.3521ZM15.783 33.05C15.411 33.05 15.1085 32.7475 15.1085 32.3755C15.1085 32.0036 15.411 31.7011 15.783 31.7011C16.1549 31.7011 16.4574 32.0036 16.4574 32.3755C16.4575 32.7475 16.1549 33.05 15.783 33.05Z" fill="#D6B87E"></path><path d="M33.0499 20.9092C31.0912 20.9092 29.4976 22.5027 29.4976 24.4615C29.4976 26.4202 31.0911 28.0139 33.0499 28.0139C35.0086 28.0139 36.6022 26.4203 36.6022 24.4615C36.6022 22.5028 35.0086 20.9092 33.0499 20.9092ZM33.0499 26.6648C31.8349 26.6648 30.8466 25.6765 30.8466 24.4615C30.8466 23.2466 31.8349 22.2582 33.0499 22.2582C34.2649 22.2582 35.2532 23.2466 35.2532 24.4615C35.2532 25.6765 34.2649 26.6648 33.0499 26.6648Z" fill="#D6B87E"></path></svg>