<svg xmlns="http://www.w3.org/2000/svg" width="125" height="125" viewBox="0 0 125 125" fill="none"><path d="M50.876 76.8841V84.5123C52.0263 84.815 54.5811 85.7474 55.5982 87.0551C56.6153 88.3627 55.1744 91.2324 54.3268 92.5038H70.1281C69.7043 91.8984 68.8567 90.1427 68.8567 87.9632C68.8567 85.7837 72.3681 84.7545 74.1238 84.5123C74.3055 83.4831 74.6687 81.0251 74.6687 79.4268C74.6687 77.8286 70.7941 74.4019 68.8567 72.8884C68.9173 69.377 69.002 61.9183 68.8567 60.1747C68.6751 57.9952 66.1324 58.5401 62.1367 58.7217C58.1409 58.9034 56.1431 59.9931 56.1431 62.3542V73.6149L50.876 76.8841Z" fill="#BDCEC7"></path><path d="M21.816 42.1939C22.1066 45.8264 24.9642 48.3086 26.3566 49.0956C27.9549 49.6768 28.2334 52.8492 28.1729 54.3627L34.1664 49.6405C41.1287 49.4589 55.6344 48.9503 57.9592 48.3691C60.8652 47.6426 61.9549 42.1939 61.9549 36.7452C61.9549 31.2965 61.41 25.1213 59.2306 23.4867C57.0511 21.8521 35.9827 22.0337 32.5318 21.852C29.081 21.6704 26.3566 22.7602 23.269 25.1213C20.1814 27.4824 21.4528 37.6533 21.816 42.1939Z" fill="#BDCEC7"></path><path fill-rule="evenodd" clip-rule="evenodd" d="M26.5302 21.2369C23.7418 21.9131 21.4422 24.2904 20.8492 27.1099C20.6109 28.2426 20.5953 42.667 20.8309 43.9298C21.3356 46.6338 23.8873 49.352 26.3501 49.8089L26.9727 49.9244V52.5397C26.9727 54.9343 27.0017 55.1921 27.3168 55.5925C27.5735 55.9191 27.811 56.03 28.253 56.03C28.798 56.03 29.0842 55.7929 31.8626 53.0402L34.8803 50.0504L43.4773 50.0934L52.0744 50.1364L52.3769 50.9336C53.0179 52.6222 54.4967 54.0212 56.2019 54.5519C57.0871 54.8274 57.7544 54.8679 61.4133 54.8679C65.4071 54.8679 65.6306 54.8513 66.0469 54.5237C66.6187 54.074 66.6433 53.2489 66.1002 52.7385C65.7267 52.3878 65.5993 52.3776 61.5293 52.3776C58.1202 52.3776 57.2283 52.3298 56.7256 52.1198C56.0048 51.8187 55.2649 51.1563 54.9272 50.51L54.6888 50.0534H55.5712C59.1312 50.0534 62.3434 47.3606 62.9848 43.8388C63.0857 43.2838 63.1641 40.8012 63.1641 38.1527V33.4518H74.178H85.1918L85.9236 33.8382C86.3261 34.0505 86.8794 34.5426 87.1533 34.9314L87.6514 35.6383L87.6988 42.5553C87.7523 50.3361 87.7462 50.3843 86.5743 51.443C85.9341 52.0214 85.0484 52.375 84.2354 52.3766C84.0004 52.3771 83.6454 52.5506 83.4469 52.7618C83.1243 53.1053 83.0859 53.3286 83.0859 54.8654V56.5846L80.9437 54.481L78.8014 52.3776H74.7071C72.4037 52.3776 70.4825 52.4475 70.3145 52.5373C70.1505 52.6252 69.9254 52.9163 69.8143 53.1843C69.6483 53.5852 69.6579 53.7594 69.8684 54.1666C70.0092 54.4389 70.2453 54.708 70.3932 54.7648C70.541 54.8214 72.2408 54.8679 74.1704 54.8679H77.679L80.6832 57.8561C83.2725 60.4319 83.758 60.8444 84.1984 60.8444C84.4793 60.8444 84.8857 60.7018 85.1012 60.5275C85.4799 60.221 85.495 60.1186 85.5455 57.4884L85.5978 54.7664L86.6543 54.3061C87.8913 53.7672 89.2149 52.4749 89.7774 51.2572C90.1355 50.4817 90.1416 50.3409 90.1416 42.9147V35.361L89.7041 34.428C89.1118 33.165 88.2769 32.2841 87.0318 31.6089L85.9912 31.0446L74.5776 30.9986L63.1641 30.9528V29.5687C63.1641 27.6883 62.9388 26.613 62.2508 25.21C61.2607 23.1912 59.2738 21.6524 57.0549 21.1858C55.735 20.9082 27.692 20.9552 26.5302 21.2369ZM57.7123 24.0354C58.7944 24.5669 59.7267 25.5234 60.236 26.625C60.5832 27.3757 60.5908 27.5681 60.5908 35.527V43.6618L60.1954 44.5367C59.664 45.7124 58.2766 46.9753 57.148 47.3105C56.4233 47.5257 54.6511 47.5632 45.1934 47.5632C37.3943 47.5632 33.9815 47.618 33.7268 47.7473C33.5275 47.8484 32.4865 48.7998 31.4136 49.8613L29.4629 51.7914V50.1107C29.4629 47.9747 29.314 47.7446 27.7961 47.5371C25.8984 47.2776 24.5704 46.3562 23.6914 44.6889L23.2373 43.8278V35.6931C23.2373 28.09 23.2581 27.5047 23.5537 26.738C23.9073 25.8209 24.9489 24.5989 25.7189 24.1973C27.0487 23.504 26.9438 23.5082 42.1631 23.5417L56.7725 23.5739L57.7123 24.0354ZM29.475 28.2448C28.9154 28.9561 29.0444 29.6604 29.8069 30.0547C30.2058 30.261 32.023 30.2975 41.898 30.2975C50.0616 30.2975 53.6399 30.2428 53.9241 30.1133C54.3188 29.9333 54.6973 29.34 54.6973 28.901C54.6973 28.7807 54.5424 28.4853 54.3531 28.2448L54.0091 27.8073H41.9141H29.819L29.475 28.2448ZM29.5416 34.6862C29.0193 35.2086 29.018 35.8443 29.5384 36.3646L29.9458 36.7722H41.9141H53.8823L54.3083 36.3462C54.6533 36.0012 54.7144 35.8199 54.629 35.3937C54.4104 34.2999 55.23 34.3694 41.9868 34.3203L29.9523 34.2756L29.5416 34.6862ZM29.475 41.36C29.2858 41.6006 29.1309 41.9741 29.1309 42.1901C29.1309 42.6499 29.6272 43.1986 30.1643 43.3324C30.372 43.3842 33.205 43.4048 36.4598 43.3781C42.0084 43.3328 42.3995 43.31 42.7269 43.0135C43.1828 42.6008 43.1916 41.702 42.7441 41.2546C42.4237 40.9342 42.1908 40.9225 36.1156 40.9225H29.819L29.475 41.36ZM25.4704 57.9096C23.9792 58.3248 22.7657 59.377 22.095 60.836C21.7785 61.5244 21.7425 61.9552 21.6892 65.6879C21.6211 70.4577 21.7642 71.7435 22.5402 73.3278L23.0844 74.4391L22.3159 75.0127C21.8934 75.3281 21.3099 75.9454 21.0192 76.3842C20.0737 77.8114 20 78.3335 20 83.5964C20 88.1625 20.0141 88.3763 20.3442 88.7956C20.5937 89.1129 20.8412 89.2331 21.2451 89.2331C21.649 89.2331 21.8966 89.1129 22.1461 88.7956C22.4758 88.3766 22.4902 88.1616 22.4902 83.6681V78.978L22.9468 78.1054C23.284 77.4609 23.6004 77.1228 24.157 76.8123L24.9106 76.392L26.0961 76.985C27.6703 77.7725 29.2876 78.0491 30.8302 77.7943C31.8711 77.6225 33.598 76.9403 34.3099 76.4197C34.9696 75.9374 35.596 76.5615 39.0398 81.1322C40.8489 83.5333 42.5645 85.7406 42.852 86.0373L43.375 86.5769H48.1313C53.2866 86.5769 53.4741 86.6057 54.1846 87.509C54.6662 88.1213 54.6662 89.5148 54.1846 90.1271C53.4603 91.0478 53.374 91.0593 47.1436 91.0593C42.3148 91.0593 41.3214 91.0188 40.9088 90.8054C40.6055 90.6487 39.2825 89.0404 37.4458 86.5956C35.811 84.4198 34.3486 82.5916 34.1958 82.533C33.6654 82.3295 33.171 82.4286 32.8121 82.8106C32.1381 83.5283 32.2993 83.894 34.6924 87.0749L36.9336 90.0539V95.454V100.854H29.7119H22.4902V97.0543C22.4902 93.5889 22.4628 93.2205 22.1796 92.8707C21.748 92.3376 20.7423 92.3376 20.3106 92.8707C20.0237 93.2249 20 93.6081 20 97.8918V102.529L20.4076 102.937L20.815 103.344H62.5H104.185L104.592 102.937L105 102.529V97.8918C105 93.6081 104.976 93.2249 104.689 92.8707C104.258 92.3376 103.252 92.3376 102.82 92.8707C102.537 93.2205 102.51 93.5889 102.51 97.0543V100.854H95.2881H88.0664V95.4595V90.065L90.3076 87.0688C92.716 83.8492 92.8837 83.4629 92.1647 82.7874C91.781 82.4271 91.3152 82.337 90.8198 82.5271C90.6757 82.5823 89.2101 84.4122 87.5627 86.5933C85.7515 88.9917 84.3765 90.658 84.084 90.8093C83.6806 91.0178 82.6485 91.0593 77.8564 91.0593C71.626 91.0593 71.5397 91.0478 70.8154 90.1271C70.3338 89.5148 70.3338 88.1213 70.8154 87.509C71.5259 86.6057 71.7134 86.5769 76.8687 86.5769H81.625L82.148 86.0373C82.4355 85.7405 84.1474 83.5381 85.952 81.143C88.0694 78.3325 89.4135 76.6948 89.7418 76.5249C90.2369 76.2689 90.2875 76.2801 91.6074 76.9308C94.1509 78.1854 96.4701 78.2027 98.9039 76.985L100.089 76.392L100.843 76.8123C101.4 77.1228 101.716 77.4609 102.053 78.1054L102.51 78.978V83.6681C102.51 88.1616 102.524 88.3766 102.854 88.7956C103.33 89.4006 104.18 89.4006 104.656 88.7956C104.986 88.3763 105 88.1625 105 83.5964C105 78.3335 104.926 77.8114 103.981 76.3842C103.69 75.9454 103.107 75.3281 102.684 75.0127L101.916 74.4391L102.46 73.3278C103.235 71.7457 103.379 70.4572 103.313 65.6879C103.257 61.5963 103.256 61.5903 102.795 60.6517C102.264 59.5696 101.307 58.6372 100.206 58.1279C99.4881 57.796 99.1755 57.7731 95.3711 57.7731C92.4066 57.7731 91.1342 57.8331 90.6788 57.9943C89.7058 58.3386 88.5311 59.3694 87.9834 60.3593L87.4854 61.2595L87.4344 66.0437C87.3801 71.1472 87.4599 71.9592 88.1549 73.3786L88.5613 74.2087L87.8908 74.7687C87.522 75.0766 85.7264 77.2992 83.9006 79.7076L80.5808 84.0866H78.098H75.6152L75.6142 81.2228C75.6137 79.6477 75.5394 78.0923 75.4487 77.7664C75.0372 76.2845 73.2571 74.5437 71.0877 73.5008C69.9123 72.9357 69.8049 72.8437 69.8812 72.4655C70.2355 70.7111 70.3149 68.9875 70.2699 64.0256L70.2197 58.4912L69.7424 58.0808L69.2651 57.6702L63.6829 57.7217C58.7676 57.767 58.0227 57.8083 57.4493 58.0671C56.3372 58.5693 55.4203 59.4502 54.8759 60.5398L54.3652 61.5614V66.3146C54.3652 70.0478 54.4199 71.2772 54.6196 72.044C54.8716 73.0114 54.8043 73.284 54.3113 73.2931C54.2359 73.2944 53.6686 73.5959 53.0509 73.963C51.6701 74.7833 50.5724 75.8156 49.9441 76.8849C49.4708 77.6899 49.4674 77.7153 49.4137 80.8908L49.3594 84.0866H46.8894H44.4192L41.0994 79.7076C39.2736 77.2992 37.478 75.0766 37.1092 74.7687L36.4387 74.2087L36.8451 73.3786C37.54 71.9592 37.6199 71.1472 37.5656 66.0437L37.5146 61.2595L37.0222 60.3703C36.4754 59.3832 35.7331 58.6977 34.6094 58.1424C33.9106 57.797 33.6149 57.7708 30.0439 57.7361C27.3664 57.7102 26 57.762 25.4704 57.9096ZM33.7771 60.558C34.748 61.0714 35.1074 61.7847 35.1074 63.1977C35.1074 63.8101 35.0372 64.3545 34.9515 64.4076C34.6281 64.6073 33.4043 64.2667 32.5093 63.7278C30.7958 62.6958 30.2095 63.0305 29.8552 65.2427C29.4712 67.6409 28.6114 68.9136 27.0993 69.3227C26.3597 69.5229 24.5254 69.4206 24.2699 69.1651C24.1907 69.0859 24.1501 67.4615 24.1796 65.5553C24.2417 61.5535 24.3411 61.2133 25.642 60.5539C26.3337 60.2033 26.5842 60.1804 29.721 60.1804C32.8777 60.1804 33.1026 60.2013 33.7771 60.558ZM67.7768 61.965L67.8241 63.6667H62.3398H56.8555V62.8755C56.8555 61.8045 57.3047 61.0239 58.1907 60.5554C58.8951 60.1829 59.0009 60.176 63.3198 60.2192L67.7295 60.2634L67.7768 61.965ZM99.3618 60.5539C99.903 60.8268 100.203 61.127 100.476 61.6682C100.827 62.3635 100.85 62.6147 100.85 65.7673C100.85 67.6189 100.782 69.1678 100.698 69.2194C100.347 69.4361 98.5629 69.5018 97.9007 69.3227C96.3886 68.9136 95.5288 67.6409 95.1448 65.2427C94.7905 63.0305 94.2042 62.6958 92.4907 63.7278C91.5217 64.3112 90.284 64.6226 90.0128 64.3513C89.9259 64.2645 89.8828 63.6453 89.9168 62.9754C89.9892 61.5563 90.285 61.0315 91.3037 60.5164C91.9045 60.2126 92.285 60.1807 95.2944 60.1805C98.4143 60.1804 98.6672 60.2036 99.3618 60.5539ZM67.7698 68.6057C67.6634 71.7206 67.4562 72.3493 66.0825 73.7254C64.8825 74.9272 63.8319 75.3645 62.168 75.355C60.0086 75.3426 57.9578 73.905 57.1965 71.8702C56.9103 71.1052 56.8555 70.5734 56.8555 68.5578V66.1569H62.3546H67.8537L67.7698 68.6057ZM33.9015 66.8422C34.3839 66.9316 34.8528 66.9588 34.9431 66.903C35.0482 66.8381 35.1074 67.5511 35.1074 68.8801C35.1074 70.5638 35.0433 71.1304 34.7699 71.8612C34.0155 73.8775 31.9309 75.3487 29.8168 75.3568C28.4278 75.3623 27.2272 74.9564 26.3101 74.1713C25.561 73.5303 24.6484 72.3745 24.6484 72.0671C24.6484 71.949 25.1329 71.8843 26.0181 71.8841C27.7933 71.884 28.9041 71.4829 30.0659 70.423C30.9713 69.5969 31.8555 68.091 32.0529 67.039C32.1507 66.5182 32.202 66.4737 32.5925 66.5718C32.8299 66.6314 33.4189 66.7531 33.9015 66.8422ZM92.9494 67.0516C93.1447 68.0918 94.0328 69.6008 94.9341 70.423C96.0959 71.4829 97.2067 71.884 98.9819 71.8841C99.8671 71.8843 100.352 71.949 100.352 72.0671C100.352 72.3745 99.439 73.5303 98.6899 74.1713C97.7728 74.9564 96.5722 75.3623 95.1832 75.3568C93.0691 75.3487 90.9845 73.8775 90.2301 71.8612C89.9575 71.1326 89.8926 70.5636 89.8926 68.9055C89.8926 67.0353 89.9185 66.858 90.1831 66.9181C90.3428 66.9545 90.9219 66.8826 91.4697 66.7582C92.8746 66.4393 92.833 66.4312 92.9494 67.0516ZM57.0801 75.8949C58.7779 77.4311 61.2444 78.1579 63.4797 77.7808C64.9155 77.5386 66.6149 76.7233 67.6259 75.7913C68.0255 75.4231 68.457 75.1218 68.5846 75.1218C69.0496 75.1218 71.1781 76.3189 71.9058 76.9896C73.0803 78.0722 73.125 78.2307 73.125 81.316V84.0405L72.1585 84.1281C70.4699 84.2812 69.0183 85.3475 68.3084 86.9564C67.8857 87.9138 67.8386 89.5729 68.2086 90.4588L68.4596 91.0593H62.5H56.5404L56.7914 90.4588C57.1614 89.5729 57.1143 87.9138 56.6916 86.9564C55.9817 85.3475 54.5301 84.2812 52.8415 84.1281L51.875 84.0405V81.316C51.875 78.2811 51.9212 78.1059 52.9948 77.0668C53.4955 76.582 55.835 75.1508 56.167 75.1261C56.1992 75.1238 56.6101 75.4696 57.0801 75.8949ZM85.5762 97.2019V100.854H62.5H39.4238V97.2019V93.5495H62.5H85.5762V97.2019Z" fill="#1E7552"></path></svg>