<svg xmlns="http://www.w3.org/2000/svg" width="125" height="125" viewBox="0 0 125 125" fill="none"><g clip-path="url(#clip0_754_490)"><path d="M125 62.5L93.75 116.627L31.25 116.627L4.89743e-06 62.5L31.25 8.37341L93.75 8.37341L125 62.5Z" fill="white"></path><path d="M52.9546 73.9763V80.3886C53.9215 80.643 56.0691 81.4267 56.9241 82.526C57.7791 83.6252 56.5679 86.0375 55.8554 87.1062H69.138C68.7817 86.5973 68.0693 85.1214 68.0693 83.2894C68.0693 81.4573 71.0209 80.5921 72.4968 80.3886C72.6495 79.5234 72.9548 77.4572 72.9548 76.1137C72.9548 74.7702 69.6978 71.8897 68.0693 70.6175C68.1202 67.6658 68.1914 61.396 68.0693 59.9303C67.9166 58.0982 65.7792 58.5563 62.4203 58.7089C59.0615 58.8616 57.3821 59.7777 57.3821 61.7624V71.2282L52.9546 73.9763Z" fill="#BDCEC7"></path><path d="M28.5262 44.8156C28.7705 47.8691 31.1725 49.9556 32.343 50.6172C33.6866 51.1058 33.9207 53.7725 33.8698 55.0447L38.908 51.0752C44.7605 50.9226 56.954 50.4951 58.9082 50.0065C61.351 49.3958 62.267 44.8156 62.267 40.2354C62.267 35.6552 61.809 30.4643 59.9769 29.0903C58.1448 27.7162 40.4347 27.8689 37.5339 27.7162C34.6331 27.5635 32.343 28.4796 29.7476 30.4643C27.1521 32.4491 28.2209 40.9988 28.5262 44.8156Z" fill="#BDCEC7"></path><path fill-rule="evenodd" clip-rule="evenodd" d="M32.4893 27.1991C30.1454 27.7675 28.2123 29.7659 27.7138 32.136C27.5136 33.0881 27.5004 45.2134 27.6985 46.2748C28.1227 48.5478 30.2676 50.8327 32.3379 51.2168L32.8612 51.3139V53.5123C32.8612 55.5252 32.8857 55.7419 33.1505 56.0785C33.3663 56.353 33.566 56.4463 33.9375 56.4463C34.3956 56.4463 34.6362 56.247 36.9718 53.9331L39.5084 51.4198L46.735 51.456L53.9618 51.4921L54.2161 52.1623C54.7549 53.5817 55.998 54.7577 57.4314 55.2038C58.1755 55.4353 58.7365 55.4694 61.8121 55.4694C65.1693 55.4694 65.3571 55.4554 65.7071 55.1801C66.1878 54.802 66.2084 54.1085 65.7519 53.6795C65.4379 53.3846 65.3309 53.3761 61.9096 53.3761C59.0439 53.3761 58.2942 53.3359 57.8717 53.1594C57.2657 52.9062 56.6437 52.3494 56.3599 51.8061L56.1595 51.4224H56.9012C59.8938 51.4224 62.594 49.1588 63.1331 46.1983C63.2179 45.7318 63.2838 43.6449 63.2838 41.4186V37.467H72.5422H81.8004L82.4155 37.7918C82.7538 37.9703 83.219 38.3839 83.4492 38.7107L83.8679 39.305L83.9078 45.1194C83.9527 51.66 83.9476 51.7005 82.9625 52.5904C82.4243 53.0766 81.6798 53.3739 80.9964 53.3753C80.7988 53.3757 80.5005 53.5215 80.3336 53.699C80.0624 53.9878 80.0302 54.1755 80.0302 55.4673V56.9125L78.2294 55.1442L76.4286 53.3761H72.9869C71.0506 53.3761 69.4357 53.4348 69.2945 53.5103C69.1566 53.5842 68.9674 53.8289 68.874 54.0542C68.7345 54.3912 68.7426 54.5376 68.9195 54.8799C69.0379 55.1088 69.2363 55.335 69.3606 55.3827C69.4848 55.4303 70.9137 55.4694 72.5357 55.4694H75.4851L78.0104 57.9813C80.187 60.1465 80.5951 60.4933 80.9653 60.4933C81.2014 60.4933 81.5431 60.3734 81.7242 60.2269C82.0425 59.9693 82.0552 59.8832 82.0976 57.6722L82.1416 55.3841L83.0297 54.9971C84.0695 54.5442 85.1822 53.4579 85.655 52.4343C85.956 51.7824 85.9612 51.6641 85.9612 45.4216V39.0719L85.5934 38.2876C85.0955 37.2259 84.3937 36.4854 83.3471 35.9179L82.4723 35.4435L72.8781 35.4049L63.2838 35.3664V34.2029C63.2838 32.6222 63.0944 31.7183 62.5161 30.5389C61.6838 28.842 60.0137 27.5485 58.1484 27.1562C57.0389 26.9228 33.4659 26.9623 32.4893 27.1991ZM58.701 29.5516C59.6106 29.9983 60.3944 30.8024 60.8225 31.7283C61.1143 32.3594 61.1207 32.5211 61.1207 39.2115V46.0496L60.7883 46.785C60.3416 47.7733 59.1754 48.8349 58.2267 49.1167C57.6175 49.2975 56.1278 49.3291 48.1776 49.3291C41.6217 49.3291 38.7529 49.3751 38.5388 49.4838C38.3712 49.5688 37.4962 50.3686 36.5943 51.2609L34.9545 52.8833V51.4705C34.9545 49.675 34.8293 49.4816 33.5534 49.3071C31.9582 49.089 30.8419 48.3145 30.103 46.913L29.7213 46.1891V39.351C29.7213 32.9599 29.7387 32.4678 29.9873 31.8234C30.2845 31.0525 31.1601 30.0252 31.8073 29.6877C32.9251 29.1049 32.8369 29.1084 45.6303 29.1366L57.911 29.1636L58.701 29.5516ZM34.9647 33.09C34.4943 33.6879 34.6027 34.2799 35.2437 34.6114C35.579 34.7848 37.1066 34.8155 45.4075 34.8155C52.2699 34.8155 55.2778 34.7695 55.5167 34.6606C55.8484 34.5094 56.1666 34.0106 56.1666 33.6416C56.1666 33.5404 56.0364 33.2922 55.8773 33.09L55.5881 32.7222H45.421H35.2539L34.9647 33.09ZM35.0207 38.5046C34.5816 38.9438 34.5805 39.4781 35.018 39.9155L35.3605 40.2581H45.421H55.4815L55.8396 39.9C56.1296 39.61 56.181 39.4576 56.1092 39.0994C55.9254 38.1799 56.6144 38.2384 45.4821 38.197L35.3659 38.1595L35.0207 38.5046ZM34.9647 44.1147C34.8056 44.3169 34.6754 44.6309 34.6754 44.8124C34.6754 45.199 35.0927 45.6602 35.5441 45.7727C35.7187 45.8162 38.1002 45.8335 40.8361 45.8111C45.5003 45.773 45.8291 45.7538 46.1043 45.5046C46.4875 45.1577 46.4949 44.4021 46.1188 44.026C45.8494 43.7567 45.6536 43.7469 40.5468 43.7469H35.2539L34.9647 44.1147ZM31.5984 58.0263C30.3449 58.3753 29.3248 59.2598 28.761 60.4862C28.495 61.0649 28.4647 61.4271 28.42 64.5648C28.3627 68.5743 28.483 69.6551 29.1353 70.9869L29.5928 71.921L28.9468 72.4032C28.5916 72.6683 28.1011 73.1872 27.8567 73.556C27.062 74.7558 27 75.1947 27 79.6186C27 83.4569 27.0119 83.6366 27.2893 83.9892C27.499 84.2558 27.7071 84.3569 28.0466 84.3569C28.3862 84.3569 28.5943 84.2558 28.804 83.9892C29.0812 83.6369 29.0933 83.4562 29.0933 79.6789V75.7364L29.4771 75.0029C29.7605 74.4612 30.0265 74.1769 30.4944 73.9159L31.1278 73.5626L32.1244 74.0611C33.4476 74.7231 34.8072 74.9556 36.1039 74.7414C36.9789 74.597 38.4305 74.0235 39.0289 73.5859C39.5835 73.1805 40.11 73.7051 43.0049 77.5472C44.5256 79.5656 45.9678 81.4211 46.2095 81.6705L46.6491 82.124H50.6473C54.9808 82.124 55.1384 82.1483 55.7357 82.9076C56.1405 83.4223 56.1405 84.5937 55.7357 85.1084C55.1268 85.8823 55.0542 85.892 49.8169 85.892C45.7579 85.892 44.9228 85.8579 44.576 85.6786C44.321 85.5468 43.2089 84.1949 41.6649 82.1398C40.2908 80.3108 39.0614 78.7741 38.933 78.7248C38.4872 78.5537 38.0716 78.637 37.7699 78.9581C37.2033 79.5614 37.3388 79.8689 39.3504 82.5427L41.2344 85.0468V89.5862V94.1256H35.1639H29.0933V90.9314C29.0933 88.0183 29.0703 87.7087 28.8322 87.4146C28.4694 86.9665 27.6239 86.9665 27.2611 87.4146C27.02 87.7124 27 88.0345 27 91.6354V95.5338L27.3426 95.8763L27.6851 96.2189H62.7256H97.7661L98.1086 95.8763L98.4512 95.5338V91.6354C98.4512 88.0345 98.4312 87.7124 98.1901 87.4146C97.8272 86.9665 96.9818 86.9665 96.619 87.4146C96.3809 87.7087 96.3579 88.0183 96.3579 90.9314V94.1256H90.2873H84.2168V89.5908V85.0562L86.1007 82.5375C88.1252 79.8312 88.2662 79.5064 87.6618 78.9386C87.3393 78.6358 86.9477 78.56 86.5312 78.7198C86.4101 78.7662 85.1781 80.3044 83.7934 82.1378C82.2708 84.154 81.1151 85.5547 80.8692 85.6818C80.53 85.8571 79.6624 85.892 75.6342 85.892C70.397 85.892 70.3244 85.8823 69.7155 85.1084C69.3107 84.5937 69.3107 83.4223 69.7155 82.9076C70.3128 82.1483 70.4704 82.124 74.8039 82.124H78.8021L79.2417 81.6705C79.4834 81.421 80.9225 79.5697 82.4394 77.5563C84.2193 75.1938 85.3491 73.8171 85.6251 73.6744C86.0413 73.4592 86.0838 73.4685 87.1933 74.0156C89.3314 75.0702 91.2809 75.0847 93.3268 74.0611L94.3233 73.5626L94.9568 73.9159C95.4247 74.1769 95.6907 74.4612 95.9741 75.0029L96.3579 75.7364V79.6789C96.3579 83.4562 96.37 83.6369 96.6472 83.9892C97.0471 84.4977 97.7619 84.4977 98.1619 83.9892C98.4393 83.6366 98.4512 83.4569 98.4512 79.6186C98.4512 75.1947 98.3892 74.7558 97.5945 73.556C97.3501 73.1872 96.8596 72.6683 96.5044 72.4032L95.8584 71.921L96.3159 70.9869C96.9672 69.6569 97.0882 68.5738 97.0332 64.5648C96.9859 61.1253 96.9854 61.1203 96.5979 60.3313C96.1512 59.4217 95.3471 58.6379 94.4212 58.2098C93.8179 57.9308 93.5551 57.9116 90.3571 57.9116C87.8651 57.9116 86.7956 57.9619 86.4128 58.0975C85.5948 58.3869 84.6074 59.2534 84.147 60.0855L83.7283 60.8422L83.6855 64.8638C83.6398 69.1538 83.707 69.8364 84.2911 71.0296L84.6328 71.7273L84.0691 72.198C83.7592 72.4569 82.2498 74.3252 80.715 76.3497L77.9243 80.0307H75.8373H73.7503L73.7494 77.6234C73.749 76.2994 73.6865 74.9919 73.6103 74.7179C73.2644 73.4723 71.7681 72.0089 69.9444 71.1323C68.9564 70.6572 68.8661 70.5799 68.9303 70.262C69.2281 68.7872 69.2948 67.3384 69.2569 63.1674L69.2148 58.5151L68.8136 58.1702L68.4124 57.825L63.7199 57.8683C59.5882 57.9064 58.962 57.9412 58.48 58.1587C57.5451 58.5809 56.7743 59.3213 56.3168 60.2372L55.8875 61.096V65.0916C55.8875 68.2297 55.9334 69.2631 56.1013 69.9077C56.3131 70.7209 56.2566 70.95 55.8421 70.9577C55.7788 70.9588 55.3019 71.2122 54.7826 71.5208C53.622 72.2103 52.6993 73.0781 52.171 73.9769C51.7732 74.6536 51.7704 74.675 51.7252 77.3443L51.6795 80.0307H49.6033H47.5269L44.7362 76.3497C43.2014 74.3252 41.692 72.4569 41.3821 72.198L40.8184 71.7273L41.16 71.0296C41.7442 69.8364 41.8113 69.1538 41.7657 64.8638L41.7228 60.8422L41.3089 60.0947C40.8492 59.265 40.2253 58.6887 39.2807 58.2219C38.6933 57.9317 38.4447 57.9096 35.443 57.8804C33.1922 57.8587 32.0436 57.9022 31.5984 58.0263ZM38.5811 60.2526C39.3972 60.6841 39.6993 61.2837 39.6993 62.4715C39.6993 62.9863 39.6403 63.4439 39.5683 63.4885C39.2964 63.6564 38.2677 63.3701 37.5153 62.9171C36.075 62.0496 35.5821 62.3309 35.2843 64.1905C34.9615 66.2065 34.2388 67.2763 32.9677 67.6201C32.346 67.7884 30.8041 67.7025 30.5893 67.4877C30.5227 67.4211 30.4885 66.0556 30.5134 64.4533C30.5656 61.0893 30.6492 60.8034 31.7427 60.2491C32.3241 59.9543 32.5347 59.9351 35.1715 59.9351C37.825 59.9351 38.0141 59.9527 38.5811 60.2526ZM67.1613 61.4353L67.2011 62.8657H62.5909H57.9808V62.2006C57.9808 61.3003 58.3584 60.6442 59.1032 60.2503C59.6953 59.9372 59.7842 59.9315 63.4147 59.9677L67.1215 60.0049L67.1613 61.4353ZM93.7117 60.2491C94.1666 60.4785 94.4189 60.7308 94.6484 61.1858C94.9431 61.7702 94.9623 61.9814 94.9623 64.6315C94.9623 66.1879 94.9051 67.4899 94.8347 67.5333C94.5402 67.7155 93.0401 67.7707 92.4835 67.6201C91.2124 67.2763 90.4897 66.2065 90.1669 64.1905C89.8691 62.3309 89.3762 62.0496 87.9358 62.9171C87.1213 63.4075 86.0809 63.6693 85.8529 63.4412C85.7799 63.3682 85.7436 62.8477 85.7722 62.2846C85.8331 61.0917 86.0817 60.6506 86.938 60.2175C87.4431 59.9622 87.7629 59.9354 90.2926 59.9352C92.9152 59.9351 93.1278 59.9546 93.7117 60.2491ZM67.1554 67.0174C67.066 69.6358 66.8918 70.1643 65.737 71.3211C64.7283 72.3313 63.8452 72.6989 62.4465 72.6909C60.6313 72.6805 58.9074 71.4721 58.2674 69.7616C58.0268 69.1185 57.9808 68.6715 57.9808 66.9772V64.959H62.6033H67.2259L67.1554 67.0174ZM38.6856 65.5351C39.0912 65.6102 39.4853 65.633 39.5612 65.5862C39.6495 65.5316 39.6993 66.131 39.6993 67.2481C39.6993 68.6634 39.6455 69.1397 39.4156 69.754C38.7815 71.4489 37.0291 72.6856 35.2521 72.6925C34.0844 72.6971 33.0752 72.3559 32.3043 71.6959C31.6746 71.1571 30.9075 70.1855 30.9075 69.9271C30.9075 69.8279 31.3147 69.7734 32.0588 69.7733C33.551 69.7732 34.4848 69.436 35.4614 68.5451C36.2225 67.8507 36.9658 66.5848 37.1317 65.7004C37.2139 65.2627 37.257 65.2253 37.5852 65.3077C37.7848 65.3578 38.2799 65.4601 38.6856 65.5351ZM88.3214 65.7111C88.4855 66.5855 89.2322 67.8539 89.9898 68.5451C90.9664 69.436 91.9001 69.7732 93.3924 69.7733C94.1365 69.7734 94.5437 69.8279 94.5437 69.9271C94.5437 70.1855 93.7766 71.1571 93.1469 71.6959C92.376 72.3559 91.3668 72.6971 90.1991 72.6925C88.4221 72.6856 86.6697 71.4489 86.0356 69.754C85.8064 69.1415 85.7518 68.6633 85.7518 67.2694C85.7518 65.6974 85.7736 65.5483 85.9961 65.5989C86.1303 65.6294 86.6171 65.569 87.0776 65.4645C88.2585 65.1964 88.2236 65.1895 88.3214 65.7111ZM58.1696 73.1448C59.5968 74.4361 61.6701 75.047 63.5491 74.7301C64.7561 74.5265 66.1845 73.8411 67.0344 73.0577C67.3703 72.7482 67.733 72.4949 67.8403 72.4949C68.2312 72.4949 70.0204 73.5012 70.6321 74.065C71.6194 74.975 71.657 75.1083 71.657 77.7017V79.9919L70.8445 80.0656C69.4251 80.1943 68.2049 81.0906 67.6081 82.443C67.2528 83.2479 67.2132 84.6425 67.5243 85.3872L67.7353 85.892H62.7256H57.7159L57.9269 85.3872C58.238 84.6425 58.1983 83.2479 57.843 82.443C57.2463 81.0906 56.0261 80.1943 54.6067 80.0656L53.7942 79.9919V77.7017C53.7942 75.1506 53.833 75.0033 54.7355 74.1299C55.1564 73.7224 57.1229 72.5193 57.4021 72.4985C57.4291 72.4965 57.7745 72.7872 58.1696 73.1448ZM82.1235 91.0554V94.1256H62.7256H43.3277V91.0554V87.9853H62.7256H82.1235V91.0554Z" fill="#1E7552"></path></g><defs><clipPath id="clip0_754_490"><rect width="125" height="125" fill="white"></rect></clipPath></defs></svg>