<svg xmlns="http://www.w3.org/2000/svg" width="125" height="125" viewBox="0 0 125 125" fill="none"><g clip-path="url(#clip0_723_1322)"><path fill-rule="evenodd" clip-rule="evenodd" d="M57.5 92.5L98 52V92.5H57.5ZM76 85H91V69.5L76 85Z" fill="#D7C6E3"></path><path d="M58.5 20.5L83 45L77.5 49L58.5 30.5L35.5 53H26.5L58.5 20.5Z" fill="#D7C6E3"></path><rect x="35" y="62" width="12" height="11" fill="#D7C6E3"></rect><path d="M92.884 9.87341L123.268 62.5L92.884 115.127L32.116 115.127L1.73206 62.5L32.116 9.87341L92.884 9.87341Z" stroke="#710B75" stroke-width="3"></path><path fill-rule="evenodd" clip-rule="evenodd" d="M57.5778 19.4108C56.8938 19.9194 25.5731 51.2795 25.2289 51.8006C24.7866 52.4699 25.0039 53.3351 25.7207 53.7583C25.9843 53.9141 26.4566 54.0023 27.0269 54.0023H27.9201V73.486V92.9697L28.3477 93.4482L28.7753 93.9267H41.0192H53.2632L53.6662 93.5238C54.2284 92.9615 54.2284 92.1082 53.6662 91.5459L53.2632 91.143L42.057 91.1038L30.8507 91.0643V72.5334V54.0023H33.5712C35.2643 54.0023 36.4124 53.9412 36.6117 53.8405C36.7877 53.7516 41.7947 48.8234 47.7384 42.8891L58.545 32.0993L67.1903 40.7435L75.8356 49.3877L64.9924 60.2289L54.149 71.0702V64.5141V57.9581H59.495H64.841L65.3162 57.5335C65.7095 57.1822 65.7915 57.0028 65.7915 56.493C65.7915 55.9818 65.7096 55.8039 65.3112 55.4479L64.831 55.0189L58.4521 55.0601L52.0732 55.1011L51.6458 55.5796L51.2184 56.0581V65.0071V73.9562L50.3244 74.931C48.8236 76.5673 48.291 77.7631 48.291 79.4953C48.291 83.1328 51.4096 85.8038 55.0919 85.3202C56.9794 85.0723 56.9931 85.0609 64.3695 77.6931C70.4862 71.5832 71.1465 70.8781 71.1465 70.4548C71.1465 69.5907 70.8247 69.1747 69.9363 68.8907C69.7946 68.8452 69.4979 68.8754 69.2769 68.9575C69.0561 69.0395 66.7317 71.2466 64.1117 73.8619L59.348 78.6173L57.2258 76.4915L55.1035 74.3657L68.4725 60.9984L81.8414 47.6311L83.9676 49.7531L86.0937 51.8752L80.8981 57.0777C78.0406 59.9391 75.6354 62.461 75.5534 62.6818C75.4712 62.9027 75.4411 63.1994 75.4866 63.3411C75.7707 64.2294 76.1867 64.5511 77.0509 64.5511C77.4738 64.5511 78.1099 63.9576 83.5284 58.5075L89.5372 52.4639L91.4214 47.2484C93.4466 41.6427 93.4783 41.4912 92.7642 40.8205C92.5598 40.6284 92.2172 40.4892 91.9293 40.4811C91.6406 40.4731 89.3134 41.2421 86.2391 42.3616L81.0373 44.2557L79.4555 45.7888L77.8737 47.3219L68.5053 37.9556C59.2037 28.656 59.1326 28.5891 58.5449 28.5891C57.956 28.5891 57.8923 28.6497 46.7058 39.834L35.4588 51.0789L32.788 51.0388L30.117 50.9988L44.3309 36.7876L58.5446 22.5762L66.3475 30.3579C70.639 34.6379 74.3134 38.2474 74.5127 38.3791C75.0984 38.7662 75.6551 38.6817 76.2164 38.1204C76.8458 37.4911 76.866 36.9613 76.2898 36.1864C75.7837 35.5057 59.8049 19.5713 59.2815 19.2253C58.75 18.8741 58.2225 18.9316 57.5778 19.4108ZM78.3997 39.4841C77.4659 39.8838 77.219 41.0941 77.9269 41.8018C78.8166 42.6916 80.298 42.0758 80.298 40.8162C80.298 39.8514 79.2536 39.1184 78.3997 39.4841ZM57.0796 41.3322C54.229 42.1184 52.461 45.142 53.182 47.9975C54.1222 51.7203 58.4724 53.3989 61.6168 51.2524C64.7868 49.0883 64.8999 44.5605 61.8418 42.2516C60.5209 41.2541 58.6629 40.8955 57.0796 41.3322ZM59.7215 44.3691C61.6444 45.3403 61.6444 48.013 59.7215 48.9842C59.3625 49.1656 58.8331 49.3139 58.5449 49.3139C58.2567 49.3139 57.7273 49.1656 57.3683 48.9842C55.4453 48.013 55.4453 45.3403 57.3683 44.3691C57.7273 44.1877 58.2567 44.0395 58.5449 44.0395C58.8331 44.0395 59.3625 44.1877 59.7215 44.3691ZM88.594 46.3939C88.1988 47.4762 87.8011 48.5551 87.71 48.7917L87.5444 49.2217L86.0851 47.7682C85.2825 46.9687 84.6454 46.2559 84.6693 46.1842C84.7077 46.0691 89.1901 44.3337 89.2777 44.4C89.2967 44.4145 88.9892 45.3118 88.594 46.3939ZM97.5805 50.0318C96.8956 50.5411 56.1975 91.2778 55.8536 91.7984C55.4115 92.4676 55.6288 93.3328 56.3455 93.7561C56.7257 93.9807 58.436 94 77.8706 94H98.9825L99.4611 93.5725L99.9397 93.145L99.983 71.9986C100.023 52.6299 100.006 50.8137 99.7861 50.3934C99.3308 49.524 98.4563 49.3807 97.5805 50.0318ZM97.0823 72.9023V91.0698H78.8774H60.6725L63.4453 88.2944L66.2182 85.519L67.1491 86.3897C67.9189 87.1097 68.1688 87.2605 68.5928 87.2605C69.2713 87.2605 69.7755 86.9101 69.9775 86.2985C70.2042 85.6116 70.0623 85.2798 69.1194 84.2914L68.3045 83.4372L70.1576 81.5844L72.0106 79.7317L72.8158 80.4931C73.7985 81.4223 74.237 81.6132 74.8921 81.3969C75.4912 81.1993 75.8354 80.6898 75.8354 80.0006C75.8354 79.5517 75.7006 79.3296 74.9614 78.5598L74.0872 77.6496L75.9505 75.7977L77.8136 73.9456L78.6614 74.7412C79.7995 75.8089 80.5486 75.9549 81.2571 75.2465C81.9655 74.5381 81.8196 73.7891 80.7517 72.6512L79.956 71.8035L81.8083 69.9406L83.6604 68.0775L84.5708 68.9516C85.3407 69.6908 85.5629 69.8255 86.0118 69.8255C86.7011 69.8255 87.2106 69.4814 87.4083 68.8823C87.6245 68.2272 87.4336 67.7889 86.5043 66.8062L85.7428 66.0011L87.5958 64.1484L89.4488 62.2956L90.3031 63.1103C91.2916 64.0531 91.6235 64.195 92.3104 63.9683C92.9226 63.7663 93.2725 63.2623 93.2725 62.5823C93.2725 62.1554 93.125 61.9123 92.4016 61.1487L91.5307 60.229L94.2683 57.4819C95.7742 55.9711 97.0233 54.7348 97.0442 54.7348C97.0652 54.7348 97.0823 62.9102 97.0823 72.9023ZM34.7338 60.4407C34.5726 60.5068 34.3088 60.7072 34.1476 60.8864C33.8639 61.2017 33.8546 61.4184 33.8546 67.6399V74.0678L34.2608 74.4739L34.6669 74.8802L41.0304 74.9212L47.394 74.9624L47.8775 74.5303L48.3611 74.0984V67.6279V61.1573L47.8825 60.7298L47.4039 60.3023L41.2154 60.3115C37.8116 60.3166 34.8949 60.3748 34.7338 60.4407ZM45.5037 67.6279V72.0232H41.1078H36.7119V67.6279V63.2325H41.1078H45.5037V67.6279ZM72.5788 65.5048C71.2047 66.2754 72.0076 68.4423 73.5595 68.1512C74.4295 67.988 74.9453 67.0637 74.6116 66.2656C74.5038 66.0076 74.3123 65.7109 74.1861 65.6063C73.8243 65.3062 73.0231 65.2557 72.5788 65.5048ZM81.9544 75.9437C73.5883 84.309 73.3444 84.5686 73.3444 85.1104C73.3444 85.8208 73.5373 86.1755 74.0742 86.4532C74.4415 86.6431 75.7156 86.6744 83.0792 86.6744H91.656L92.1346 86.2469L92.6131 85.8195L92.6533 77.202C92.6826 70.9102 92.6474 68.4735 92.5232 68.1735C92.2877 67.605 91.8464 67.3348 91.1533 67.3348C90.5704 67.3348 90.4797 67.4197 81.9544 75.9437ZM89.7558 78.0302V83.7442H84.0052H78.2547L83.9679 78.0302C87.1102 74.8875 89.6979 72.3162 89.7184 72.3162C89.739 72.3162 89.7558 74.8875 89.7558 78.0302ZM55.1422 78.6568L57.2305 80.7487L56.6056 81.3515C55.7682 82.1591 55.1454 82.4494 54.2426 82.4527C53.3453 82.4559 52.9066 82.301 52.2516 81.7501C51.3082 80.9565 50.9646 79.5097 51.4451 78.3552C51.6464 77.8715 52.7612 76.5651 52.9725 76.5651C53.0172 76.5651 53.9935 77.5064 55.1422 78.6568Z" fill="#710B75"></path></g><defs><clipPath id="clip0_723_1322"><rect width="125" height="125" fill="white"></rect></clipPath></defs></svg>