<svg xmlns="http://www.w3.org/2000/svg" width="125" height="125" viewBox="0 0 125 125" fill="none"><g clip-path="url(#clip0_723_1332)"><rect x="71" y="51" width="15" height="19" fill="#D7C6E3"></rect><path d="M63.5 93.5V61H51V67.5L37 68V93.5H63.5Z" fill="#D7C6E3"></path><path d="M92.884 9.87341L123.268 62.5L92.884 115.127L32.116 115.127L1.73206 62.5L32.116 9.87341L92.884 9.87341Z" stroke="#710B75" stroke-width="3"></path><path d="M32 64L38 57.5072H43.0625M38.5625 62.3768L50 50" stroke="#710B75" stroke-width="3" stroke-linecap="round" stroke-linejoin="round"></path><path d="M32.6927 51H24L64.1049 21L105 51H95.5171L64.1049 28.3077L32.6927 51Z" stroke="#710B75" stroke-width="3" stroke-linejoin="round"></path><path d="M91 47.5V94H37V67.5065H64" stroke="#710B75" stroke-width="3" stroke-linejoin="round"></path><path d="M64 21V94" stroke="#710B75" stroke-width="3" stroke-linejoin="round"></path><rect x="71" y="52" width="15" height="18" stroke="#710B75" stroke-width="3" stroke-linejoin="round"></rect><path d="M37 74.1228H43.8478M64 74.1228H43.8478M37 80.6842H43.8478M64 80.6842H57.1522M37 87.2456H43.8478M64 87.2456H57.1522M43.8478 67.5614V74.1228M57.1522 67.5614V74.1228M50.5 74.1228V80.6842M43.8478 80.6842V87.2456M43.8478 80.6842H57.1522M43.8478 87.2456H50.5M57.1522 80.6842V87.2456M57.1522 87.2456H50.5M50.5 87.2456V94M50.5 67.5614V61H64" stroke="#710B75" stroke-width="3" stroke-linejoin="round"></path><path d="M78.2065 51.6855V69.5654M71 60.8198H85.0435M84.3043 43.523L88 39.2473M77.6522 38.0813L81.3478 34M87.0761 79.0883V89H75.9891" stroke="#710B75" stroke-width="3" stroke-linejoin="round"></path><rect x="21" y="72.0219" width="13.5179" height="3.81323" rx="1.90662" transform="rotate(-45.6298 21 72.0219)" stroke="#710B75" stroke-width="3"></rect></g><defs><clipPath id="clip0_723_1332"><rect width="125" height="125" fill="white"></rect></clipPath></defs></svg>