<svg xmlns="http://www.w3.org/2000/svg" width="125" height="125" viewBox="0 0 125 125" fill="none"><ellipse cx="62.7647" cy="64.0588" rx="26.2588" ry="26.7451" fill="#BDCEC7"></ellipse><path fill-rule="evenodd" clip-rule="evenodd" d="M61.9131 13.1971C61.6503 13.3535 60.6593 14.131 59.711 14.9249C50.9662 22.243 38.9565 26.4543 24.6185 27.2305C20.0918 27.4754 19.345 27.6794 19.0761 28.7442C19.0007 29.0425 18.9772 38.5079 19.0242 49.7782C19.1082 70.0041 19.1165 70.3012 19.6606 72.6947C22.2297 83.9931 29.0498 94.0611 39.3651 101.782C45.1672 106.124 51.4052 109.255 57.9481 111.106C62.7545 112.466 62.5482 112.452 65.6975 111.644C69.8609 110.576 72.4946 109.602 76.5819 107.619C91.6442 100.309 102.53 87.3865 105.868 72.8545C106.396 70.5568 106.408 70.1152 106.491 49.6356C106.572 29.5011 106.559 28.7389 106.115 28.1962C105.584 27.5465 104.129 27.2722 101.05 27.2412C95.6642 27.1869 87.7218 25.7258 81.9048 23.7191C75.4561 21.4943 70.4317 18.7412 65.8766 14.9366C63.6833 13.1047 62.753 12.6966 61.9131 13.1971ZM64.4127 19.1467C70.4217 24.0125 79.8703 28.1382 89.2945 30.011C92.6483 30.6777 98.1398 31.3455 100.315 31.3514C101.123 31.3535 101.927 31.4454 102.102 31.5553C102.36 31.7175 102.403 35.398 102.329 51.0125C102.242 69.5955 102.221 70.3426 101.725 72.3525C100.226 78.4219 97.6759 83.649 93.6312 88.9424C92.0163 91.0558 87.4306 95.6364 85.0232 97.5408C80.0805 101.451 74.1354 104.651 68.0513 106.676C63.3182 108.252 62.1927 108.253 57.5047 106.687C49.5454 104.029 42.6316 99.864 36.7344 94.1734C29.948 87.6253 25.8681 80.748 23.7893 72.3525C23.2906 70.3395 23.2706 69.6224 23.1859 50.9373L23.0983 31.605L23.6596 31.4915C23.9684 31.4292 25.4323 31.3128 26.9126 31.233C35.6539 30.7623 45.3357 28.1828 53.0166 24.2783C55.6878 22.9205 59.9388 20.194 61.412 18.8942C61.9502 18.4192 62.5299 18.0261 62.6999 18.0205C62.87 18.0149 63.6407 18.5217 64.4127 19.1467ZM57.0078 34.2563C51.1524 35.4329 46.5714 37.9028 42.1897 42.2456C38.0804 46.3184 35.8455 50.1865 34.3346 55.8407C33.6062 58.5665 33.4415 64.5129 34.0075 67.6467C35.1073 73.7355 37.6558 78.5225 42.1897 83.0161C47.9726 88.7476 54.6185 91.4916 62.7051 91.4867C66.2857 91.4848 68.1569 91.2343 71.0767 90.3661C75.8068 88.9596 79.6915 86.632 83.3328 83.0231C89.0689 77.3379 91.8742 70.6506 91.8742 62.6619C91.8742 54.5506 89.1311 47.9994 83.3257 42.2456C78.8532 37.8128 73.8283 35.1635 67.9649 34.1469C65.0192 33.6365 59.836 33.6881 57.0078 34.2563ZM60.5982 40.3499C60.6924 42.6736 60.7337 42.8351 61.3743 43.3812C61.7491 43.7008 62.3662 43.9581 62.7577 43.9581C63.1492 43.9581 63.7662 43.7008 64.1411 43.3812C64.7821 42.8348 64.823 42.6743 64.9177 40.3395L65.0175 37.8744L66.1509 38.0374C71.6419 38.827 76.4165 41.2125 80.3922 45.1529C84.368 49.0933 86.7749 53.8255 87.5715 59.2678L87.736 60.3911L85.2488 60.49C82.8931 60.5839 82.7311 60.6243 82.1798 61.2597C81.8574 61.6312 81.5978 62.2428 81.5978 62.6308C81.5978 63.0188 81.8574 63.6304 82.1798 64.0019C82.7311 64.6373 82.8931 64.6778 85.2488 64.7716L87.736 64.8706L87.5715 65.9939C86.7749 71.4361 84.368 76.1683 80.3922 80.1087C76.4165 84.0491 71.6419 86.4347 66.1509 87.2242L65.0175 87.3872L64.9177 84.9222C64.823 82.5873 64.7821 82.4268 64.1411 81.8804C63.2774 81.1442 62.238 81.1442 61.3743 81.8804C60.7337 82.4266 60.6924 82.5881 60.5982 84.9117C60.5328 86.5239 60.4034 87.3649 60.2214 87.363C60.0687 87.3613 58.9505 87.1566 57.7364 86.9083C47.3776 84.7893 39.4723 76.4358 37.9438 65.9939L37.7794 64.8706L40.2665 64.7716C42.6223 64.6778 42.7843 64.6373 43.3355 64.0019C43.658 63.6304 43.9176 63.0188 43.9176 62.6308C43.9176 62.2428 43.658 61.6312 43.3355 61.2597C42.7843 60.6243 42.6223 60.5839 40.2665 60.49L37.7794 60.3911L37.9438 59.2678C38.4628 55.7229 39.8447 52.0669 41.7576 49.1792C45.4544 43.598 51.1409 39.7211 57.6195 38.365C60.7533 37.7091 60.4839 37.5294 60.5982 40.3499ZM61.3645 46.7255L60.6779 47.3102L60.5984 52.0368L60.5189 56.7635L59.4203 57.4517C55.4071 59.966 55.6694 65.9308 59.8866 68.0614C62.9475 69.6076 66.7153 68.4606 68.2761 65.5074C68.6054 64.8839 68.6842 64.8652 71.3387 64.775C73.9643 64.686 74.0847 64.6581 74.6497 64.007C75.3989 63.144 75.3989 62.1177 74.6497 61.2546C74.0847 60.6035 73.9643 60.5756 71.3387 60.4866C68.6842 60.3964 68.6054 60.3777 68.2761 59.7543C67.8288 58.9079 66.501 57.5882 65.6661 57.1604L64.9972 56.8175L64.9174 52.064L64.8374 47.3102L64.1509 46.7255C63.7682 46.3994 63.1518 46.1406 62.7577 46.1406C62.3635 46.1406 61.7472 46.3994 61.3645 46.7255ZM64.1489 61.218C65.4107 62.3929 64.5291 64.5708 62.7919 64.5708C61.6224 64.5708 60.8003 63.7842 60.8003 62.6648C60.8003 60.9018 62.8553 60.0137 64.1489 61.218Z" fill="#1E7552"></path></svg>