<svg xmlns="http://www.w3.org/2000/svg" width="125" height="125" viewBox="0 0 125 125" fill="none"><g clip-path="url(#clip0_754_477)"><path d="M125 62.5L93.75 116.627L31.25 116.627L4.89743e-06 62.5L31.25 8.37341L93.75 8.37341L125 62.5Z" fill="white"></path><ellipse cx="62.2936" cy="64.3431" rx="21.7765" ry="22.1797" fill="#BDCEC7"></ellipse><path fill-rule="evenodd" clip-rule="evenodd" d="M61.5878 22.1635C61.3699 22.2932 60.5481 22.9379 59.7616 23.5964C52.5096 29.6652 42.55 33.1576 30.6594 33.8014C26.9054 34.0045 26.2861 34.1736 26.0631 35.0567C26.0006 35.3041 25.9811 43.1537 26.0201 52.5002C26.0897 69.2736 26.0966 69.5199 26.5479 71.5049C28.6784 80.8747 34.3343 89.2241 42.8888 95.6269C47.7005 99.2282 52.8737 101.824 58.2997 103.359C62.2857 104.487 62.1146 104.475 64.7263 103.806C68.179 102.92 70.3631 102.112 73.7527 100.467C86.2439 94.4056 95.2718 83.6888 98.0401 71.6374C98.4778 69.7319 98.4877 69.3657 98.5561 52.3819C98.6236 35.6843 98.6125 35.0523 98.2448 34.6022C97.8045 34.0634 96.5976 33.836 94.0438 33.8102C89.5777 33.7652 82.991 32.5535 78.167 30.8893C72.8191 29.0444 68.6524 26.7612 64.8748 23.606C63.0559 22.0868 62.2844 21.7484 61.5878 22.1635ZM63.6608 27.0974C68.6441 31.1327 76.4798 34.5541 84.2953 36.1073C87.0766 36.6601 91.6307 37.214 93.435 37.2188C94.1046 37.2206 94.7712 37.2968 94.9163 37.3879C95.1303 37.5225 95.1661 40.5747 95.1052 53.5238C95.0327 68.9347 95.0153 69.5543 94.6036 71.2211C93.3608 76.2544 91.246 80.5893 87.8917 84.9791C86.5525 86.7317 82.7496 90.5305 80.7531 92.1098C76.6541 95.3522 71.7238 98.006 66.6783 99.6857C62.7532 100.992 61.8198 100.993 57.932 99.6949C51.3313 97.4906 45.5977 94.0364 40.7071 89.3172C35.0792 83.8869 31.6957 78.1834 29.9718 71.2211C29.5582 69.5517 29.5416 68.957 29.4714 53.4615L29.3988 37.4292L29.8642 37.335C30.1203 37.2834 31.3343 37.1868 32.5619 37.1207C39.8111 36.7303 47.8403 34.5911 54.21 31.3531C56.4252 30.2271 59.9506 27.966 61.1723 26.8881C61.6187 26.4941 62.0994 26.1681 62.2404 26.1635C62.3814 26.1589 63.0206 26.5792 63.6608 27.0974ZM57.5199 39.6279C52.664 40.6036 48.865 42.6519 45.2312 46.2534C41.8234 49.631 39.97 52.8388 38.717 57.5279C38.1129 59.7883 37.9764 64.7197 38.4457 67.3186C39.3578 72.368 41.4713 76.3379 45.2312 80.0644C50.027 84.8176 55.5385 87.0931 62.2447 87.0891C65.2141 87.0875 66.7659 86.8798 69.1872 86.1598C73.1099 84.9934 76.3315 83.0631 79.3512 80.0702C84.1083 75.3555 86.4346 69.8097 86.4346 63.1846C86.4346 56.458 84.1598 51.0251 79.3453 46.2534C75.6363 42.5773 71.4692 40.3802 66.6066 39.5372C64.1638 39.1138 59.8653 39.1567 57.5199 39.6279ZM60.4974 44.6813C60.5755 46.6083 60.6098 46.7423 61.141 47.1952C61.4519 47.4602 61.9636 47.6736 62.2883 47.6736C62.6129 47.6736 63.1247 47.4602 63.4355 47.1952C63.9672 46.7421 64.0011 46.6089 64.0796 44.6727L64.1624 42.6284L65.1023 42.7635C69.656 43.4184 73.6156 45.3966 76.9126 48.6644C80.2097 51.9322 82.2058 55.8567 82.8664 60.3699L83.0028 61.3015L80.9402 61.3835C78.9866 61.4613 78.8523 61.4949 78.3951 62.0218C78.1277 62.3299 77.9124 62.8371 77.9124 63.1589C77.9124 63.4807 78.1277 63.9879 78.3951 64.296C78.8523 64.8229 78.9866 64.8564 80.9402 64.9343L83.0028 65.0163L82.8664 65.9479C82.2058 70.4611 80.2097 74.3855 76.9126 77.6533C73.6156 80.9211 69.656 82.8994 65.1023 83.5542L64.1624 83.6894L64.0796 81.6451C64.0011 79.7089 63.9672 79.5757 63.4355 79.1226C62.7193 78.5121 61.8573 78.5121 61.141 79.1226C60.6098 79.5755 60.5755 79.7095 60.4974 81.6365C60.4432 82.9734 60.3359 83.6709 60.1849 83.6693C60.0583 83.6679 59.131 83.4981 58.1242 83.2922C49.5335 81.5349 42.9777 74.6074 41.7101 65.9479L41.5738 65.0163L43.6364 64.9343C45.59 64.8564 45.7243 64.8229 46.1815 64.296C46.4489 63.9879 46.6642 63.4807 46.6642 63.1589C46.6642 62.8371 46.4489 62.3299 46.1815 62.0218C45.7243 61.4949 45.59 61.4613 43.6364 61.3835L41.5738 61.3015L41.7101 60.3699C42.1405 57.4301 43.2865 54.3982 44.8729 52.0034C47.9387 47.3749 52.6545 44.1598 58.0272 43.0352C60.626 42.4912 60.4026 42.3422 60.4974 44.6813ZM61.1329 49.9686L60.5635 50.4535L60.4976 54.3733L60.4317 58.2931L59.5206 58.8638C56.1925 60.9489 56.41 65.8956 59.9073 67.6625C62.4457 68.9448 65.5704 67.9935 66.8647 65.5444C67.1378 65.0274 67.2032 65.0119 69.4046 64.9371C71.582 64.8633 71.6818 64.8401 72.1503 64.3002C72.7717 63.5844 72.7717 62.7333 72.1503 62.0176C71.6818 61.4776 71.582 61.4545 69.4046 61.3807C67.2032 61.3059 67.1378 61.2904 66.8647 60.7733C66.4938 60.0715 65.3926 58.9771 64.7003 58.6223L64.1455 58.3379L64.0794 54.3958L64.013 50.4535L63.4437 49.9686C63.1263 49.6981 62.6152 49.4836 62.2883 49.4836C61.9614 49.4836 61.4503 49.6981 61.1329 49.9686ZM63.442 61.9872C64.4884 62.9616 63.7574 64.7678 62.3167 64.7678C61.3468 64.7678 60.665 64.1154 60.665 63.187C60.665 61.725 62.3693 60.9885 63.442 61.9872Z" fill="#1E7552"></path></g><defs><clipPath id="clip0_754_477"><rect width="125" height="125" fill="white"></rect></clipPath></defs></svg>