<svg xmlns="http://www.w3.org/2000/svg" width="38" height="48" viewBox="0 0 38 48" fill="none"><path d="M9.50003 37.9963V47.2C9.50003 47.4122 9.58344 47.6157 9.7319 47.7657C9.88037 47.9157 10.0817 48 10.2917 48H37.2083C37.4183 48 37.6197 47.9157 37.7681 47.7657C37.9166 47.6157 38 47.4122 38 47.2V28C37.9995 27.3435 37.8396 26.6972 37.5343 26.1177L31.6667 15V0.8C31.6667 0.587827 31.5833 0.384344 31.4348 0.234315C31.2863 0.0842854 31.085 0 30.875 0H10.2917C10.0817 0 9.88037 0.0842854 9.7319 0.234315C9.58344 0.384344 9.50003 0.587827 9.50003 0.8V3.6072L0.555197 6.4365C0.455975 6.46788 0.363842 6.51871 0.284058 6.58607C0.204274 6.65344 0.138403 6.73602 0.0902056 6.82912C0.0420081 6.92221 0.0124281 7.02398 0.00315513 7.12863C-0.00611783 7.23327 0.00509764 7.33874 0.0361611 7.439L9.50003 37.9963ZM8.49115 10.6331L8.01803 9.1055L9.50003 8.6367V21.9245L6.46142 12.1135L7.97222 11.6355C8.17256 11.5721 8.33978 11.4309 8.4371 11.2429C8.53442 11.0549 8.55386 10.8356 8.49115 10.6331ZM36.4167 28V46.4H31.6667C29.8036 46.3978 28.0153 45.6592 26.6842 44.342C25.353 43.0249 24.5846 41.2337 24.5433 39.3515C24.583 39.1433 24.5393 38.9277 24.4218 38.7521L19.287 31.0716C19.1093 30.8105 18.9844 30.5165 18.9198 30.2065C18.8551 29.8964 18.8518 29.5765 18.91 29.2651C18.9683 28.9538 19.0871 28.6572 19.2594 28.3924C19.4317 28.1277 19.6542 27.9 19.914 27.7226C20.1738 27.5452 20.4658 27.4216 20.7732 27.3588C21.0805 27.2961 21.3972 27.2954 21.7048 27.3569C22.0124 27.4185 22.3049 27.5409 22.5654 27.7173C22.8259 27.8936 23.0493 28.1204 23.2227 28.3844C23.2273 28.3913 23.2326 28.3982 23.237 28.405L27.8589 34.8686C27.9322 34.9711 28.0285 35.0546 28.14 35.1122C28.2514 35.1698 28.3748 35.1999 28.5 35.2H30.875C31.085 35.2 31.2863 35.1157 31.4348 34.9657C31.5833 34.8157 31.6667 34.6122 31.6667 34.4V18.4L36.1373 26.8706C36.3204 27.2183 36.4163 27.6061 36.4167 28ZM15.8334 40.8H14.25V7.2H15.8334C16.0433 7.2 16.2447 7.11571 16.3932 6.96569C16.5416 6.81566 16.625 6.61217 16.625 6.4V4.8H24.5417V6.4C24.5417 6.61217 24.6251 6.81566 24.7736 6.96569C24.922 7.11571 25.1234 7.2 25.3333 7.2H26.9167V30.82L24.5268 27.4777C24.4335 27.3399 24.3318 27.208 24.2222 27.0829C24.8333 26.3461 25.2112 25.4408 25.3072 24.4844C25.4031 23.5279 25.2125 22.5644 24.7602 21.7187C24.3079 20.873 23.6146 20.184 22.7703 19.7411C21.9259 19.2982 20.9694 19.1218 20.0247 19.2347C19.0799 19.3476 18.1905 19.7446 17.4717 20.3743C16.7528 21.004 16.2377 21.8373 15.9931 22.7663C15.7484 23.6954 15.7855 24.6772 16.0996 25.5846C16.4136 26.4921 16.9901 27.2833 17.7543 27.8558C17.4199 28.4973 17.2638 29.2184 17.3026 29.9424C17.3413 30.6664 17.5736 31.3662 17.9745 31.9675L22.9611 39.4255C22.9932 40.7399 23.3183 42.0301 23.9122 43.2H16.625V41.6C16.625 41.3878 16.5416 41.1843 16.3932 41.0343C16.2447 40.8843 16.0433 40.8 15.8334 40.8ZM19.0383 26.4136C18.9437 26.4782 18.8531 26.5471 18.7652 26.6187C18.24 26.2465 17.8391 25.7218 17.6155 25.1143C17.3919 24.5067 17.3562 23.8448 17.5131 23.2163C17.67 22.5877 18.0121 22.0222 18.494 21.5944C18.976 21.1667 19.5752 20.897 20.2123 20.821C20.8493 20.7449 21.4942 20.8662 22.0615 21.1688C22.6288 21.4713 23.0919 21.9408 23.3893 22.5152C23.6867 23.0895 23.8045 23.7416 23.7271 24.3851C23.6497 25.0285 23.3807 25.6331 22.9558 26.1187C22.3338 25.8192 21.6453 25.6889 20.9583 25.7406C20.2713 25.7923 19.6095 26.0243 19.0383 26.4136ZM11.0834 1.6H30.0833V33.6H28.9046L28.5 33.0341V6.4C28.5 6.18783 28.4166 5.98434 28.2681 5.83431C28.1197 5.68429 27.9183 5.6 27.7083 5.6H26.125V4C26.125 3.78783 26.0416 3.58434 25.8931 3.43431C25.7447 3.28429 25.5433 3.2 25.3333 3.2H15.8334C15.6234 3.2 15.422 3.28429 15.2736 3.43431C15.1251 3.58434 15.0417 3.78783 15.0417 4V5.6H13.4584C13.2484 5.6 13.047 5.68429 12.8986 5.83431C12.7501 5.98434 12.6667 6.18783 12.6667 6.4V41.6C12.6667 41.8122 12.7501 42.0157 12.8986 42.1657C13.047 42.3157 13.2484 42.4 13.4584 42.4H15.0417V44C15.0417 44.2122 15.1251 44.4157 15.2736 44.5657C15.422 44.7157 15.6234 44.8 15.8334 44.8H24.9562C25.4541 45.4079 26.03 45.946 26.6687 46.4H11.0834V1.6ZM9.50003 5.2837V6.96L6.78957 7.8174C6.5892 7.88078 6.42195 8.02199 6.32462 8.20998C6.22728 8.39796 6.20782 8.61732 6.27053 8.8198L6.74365 10.3475L5.23285 10.8254C5.13364 10.8568 5.04152 10.9076 4.96174 10.975C4.88197 11.0424 4.81611 11.125 4.76792 11.218C4.71974 11.3111 4.69016 11.4129 4.6809 11.5175C4.67163 11.6222 4.68285 11.7276 4.71392 11.8279L9.50003 27.2812V32.6394L1.78366 7.7245L9.50003 5.2837Z" fill="#D6B87E"></path></svg>