<svg xmlns="http://www.w3.org/2000/svg" width="125" height="125" viewBox="0 0 125 125" fill="none"><path fill-rule="evenodd" clip-rule="evenodd" d="M57.2246 12.482C56.4221 13.0787 19.6725 49.8746 19.2686 50.4861C18.7496 51.2713 19.0045 52.2865 19.8456 52.7831C20.1549 52.9658 20.709 53.0693 21.3782 53.0693H22.4263V75.9302V98.7911L22.9279 99.3526L23.4296 99.914H37.7958H52.1622L52.635 99.4413C53.2947 98.7815 53.2947 97.7803 52.635 97.1206L52.1622 96.6478L39.0136 96.6017L25.8648 96.5555V74.8125V53.0693H29.0569C31.0435 53.0693 32.3905 52.9976 32.6244 52.8795C32.8309 52.7752 38.7058 46.9927 45.6798 40.0298L58.3595 27.3699L68.5033 37.5124L78.6471 47.6549L65.9244 60.3752L53.2015 73.0957V65.4032V57.7108H59.4741H65.7468L66.3043 57.2126C66.7658 56.8004 66.8621 56.59 66.8621 55.9917C66.8621 55.392 66.766 55.1833 66.2985 54.7655L65.7351 54.2622L58.2505 54.3105L50.7659 54.3586L50.2644 54.9201L49.7629 55.4815V65.9816V76.4819L48.714 77.6258C46.9531 79.5456 46.3281 80.9487 46.3281 82.9812C46.3281 87.2491 49.9873 90.3832 54.3078 89.8157C56.5225 89.5248 56.5386 89.5114 65.1935 80.8666C72.3705 73.6977 73.1452 72.8703 73.1452 72.3736C73.1452 71.3597 72.7677 70.8717 71.7252 70.5384C71.559 70.4851 71.2108 70.5205 70.9516 70.6168C70.6925 70.713 67.9652 73.3026 64.8911 76.3713L59.3017 81.9509L56.8116 79.4567L54.3214 76.9624L70.0077 61.2781L85.6939 45.5938L88.1886 48.0837L90.6833 50.5736L84.5871 56.6778C81.2343 60.0352 78.4122 62.9942 78.316 63.2533C78.2195 63.5125 78.1843 63.8606 78.2376 64.0269C78.5709 65.0691 79.059 65.4466 80.0731 65.4466C80.5693 65.4466 81.3156 64.7502 87.6734 58.3555L94.7236 51.2643L96.9345 45.1447C99.3107 38.5674 99.3478 38.3897 98.51 37.6027C98.2702 37.3773 97.8682 37.214 97.5304 37.2045C97.1917 37.1951 94.4611 38.0974 90.8539 39.411L84.7504 41.6334L82.8944 43.4322L81.0385 45.231L70.0462 34.2412C59.1323 23.3297 59.049 23.2512 58.3593 23.2512C57.6684 23.2512 57.5936 23.3223 44.4682 36.4452L31.2716 49.6393L28.1379 49.5922L25.004 49.5452L41.6816 32.8707L58.359 16.1961L67.5144 25.3266C72.5498 30.3485 76.8611 34.5836 77.0949 34.7382C77.7821 35.1923 78.4353 35.0932 79.0939 34.4346C79.8324 33.6962 79.8561 33.0746 79.1801 32.1654C78.5862 31.3667 59.8378 12.6703 59.2236 12.2644C58.6 11.8523 57.9811 11.9197 57.2246 12.482ZM81.6557 36.0347C80.56 36.5037 80.2703 37.9238 81.1009 38.7541C82.1448 39.7981 83.883 39.0756 83.883 37.5977C83.883 36.4657 82.6575 35.6056 81.6557 36.0347ZM56.6401 38.2031C53.2954 39.1256 51.2209 42.6732 52.0669 46.0237C53.17 50.3919 58.2742 52.3614 61.9637 49.8428C65.6832 47.3036 65.8159 41.9909 62.2277 39.2819C60.6778 38.1115 58.4977 37.6907 56.6401 38.2031ZM59.7399 41.7664C61.9962 42.906 61.9962 46.0419 59.7399 47.1815C59.3187 47.3943 58.6975 47.5683 58.3593 47.5683C58.0212 47.5683 57.4 47.3943 56.9788 47.1815C54.7225 46.0419 54.7225 42.906 56.9788 41.7664C57.4 41.5536 58.0212 41.3796 58.3593 41.3796C58.6975 41.3796 59.3187 41.5536 59.7399 41.7664ZM93.6169 44.1422C93.1532 45.4121 92.6866 46.678 92.5797 46.9556L92.3854 47.4602L90.6732 45.7547C89.7315 44.8166 88.984 43.9802 89.012 43.8962C89.057 43.7611 94.3163 41.7248 94.4191 41.8027C94.4415 41.8197 94.0806 42.8725 93.6169 44.1422ZM104.161 48.4106C103.358 49.0082 55.605 96.806 55.2015 97.4167C54.6828 98.202 54.9378 99.2171 55.7787 99.7138C56.2249 99.9773 58.2316 100 81.0348 100H105.806L106.368 99.4984L106.929 98.9967L106.98 74.185C107.027 51.4591 107.007 49.3281 106.749 48.8349C106.215 47.8148 105.189 47.6467 104.161 48.4106ZM103.577 75.2454V96.5619H82.2162H60.8557L64.1092 93.3054L67.3627 90.049L68.455 91.0706C69.3581 91.9154 69.6514 92.0923 70.1488 92.0923C70.945 92.0923 71.5366 91.6812 71.7736 90.9635C72.0395 90.1576 71.8731 89.7682 70.7667 88.6086L69.8107 87.6063L71.9849 85.4324L74.1591 83.2585L75.1038 84.1519C76.2569 85.2421 76.7714 85.4661 77.5401 85.2124C78.2431 84.9805 78.6469 84.3827 78.6469 83.5741C78.6469 83.0474 78.4888 82.7868 77.6214 81.8836L76.5956 80.8155L78.7819 78.6426L80.968 76.4695L81.9627 77.403C83.2981 78.6558 84.177 78.827 85.0083 77.9959C85.8396 77.1647 85.6683 76.2859 84.4153 74.9507L83.4817 73.9561L85.6551 71.7703L87.8283 69.5843L88.8965 70.6099C89.7998 71.4772 90.0604 71.6353 90.5872 71.6353C91.396 71.6353 91.9937 71.2315 92.2257 70.5286C92.4794 69.76 92.2554 69.2456 91.1651 68.0926L90.2715 67.148L92.4457 64.9741L94.62 62.8001L95.6223 63.7561C96.7821 64.8623 97.1716 65.0287 97.9776 64.7628C98.6959 64.5257 99.1064 63.9344 99.1064 63.1366C99.1064 62.6356 98.9333 62.3504 98.0845 61.4544L97.0627 60.3754L100.275 57.1521C102.042 55.3794 103.507 53.9289 103.532 53.9289C103.556 53.9289 103.577 63.5213 103.577 75.2454ZM30.4209 60.6238C30.2318 60.7013 29.9223 60.9365 29.7332 61.1467C29.4004 61.5167 29.3894 61.7709 29.3894 69.0708V76.6129L29.8659 77.0894L30.3425 77.5661L37.8091 77.6142L45.2756 77.6625L45.8429 77.1556L46.4103 76.6488V69.0567V61.4646L45.8488 60.963L45.2873 60.4613L38.026 60.4722C34.0323 60.4782 30.6101 60.5464 30.4209 60.6238ZM43.0577 69.0567V74.2139H37.8998H32.742V69.0567V63.8995H37.8998H43.0577V69.0567ZM74.8258 66.5656C73.2135 67.4698 74.1556 70.0123 75.9765 69.6707C76.9973 69.4792 77.6025 68.3947 77.211 67.4583C77.0844 67.1556 76.8597 66.8075 76.7117 66.6847C76.2872 66.3327 75.3471 66.2733 74.8258 66.5656ZM85.8265 78.814C76.0102 88.6292 75.7241 88.9338 75.7241 89.5695C75.7241 90.4031 75.9504 90.8193 76.5803 91.1451C77.0114 91.3678 78.5063 91.4046 87.1462 91.4046H97.2097L97.7712 90.903L98.3328 90.4016L98.3799 80.2903C98.4143 72.9079 98.373 70.0489 98.2272 69.6969C97.9509 69.0299 97.4331 68.7129 96.6198 68.7129C95.9359 68.7129 95.8295 68.8124 85.8265 78.814ZM94.9801 81.2621V87.9665H88.2328H81.4855L88.189 81.2621C91.876 77.5747 94.9122 74.5577 94.9363 74.5577C94.9604 74.5577 94.9801 77.5747 94.9801 81.2621ZM54.3668 81.9974L56.8171 84.4518L56.0839 85.1591C55.1013 86.1066 54.3706 86.4473 53.3113 86.4511C52.2585 86.4549 51.7437 86.2732 50.9752 85.6268C49.8683 84.6956 49.4651 82.998 50.0289 81.6434C50.2651 81.0759 51.5731 79.543 51.8211 79.543C51.8735 79.543 53.0191 80.6475 54.3668 81.9974Z" fill="#1E7552"></path><path fill-rule="evenodd" clip-rule="evenodd" d="M57.1333 98.24L104.653 50.72V98.24H57.1333ZM78.84 89.44H96.44V71.2533L78.84 89.44Z" fill="#1E7552" fill-opacity="0.2"></path><path d="M58.3805 14L87 42.6462L80.5752 47.3231L58.3805 25.6923L31.5133 52H21L58.3805 14Z" fill="#1E7552" fill-opacity="0.2"></path><rect x="31" y="62" width="14" height="13" fill="#1E7552" fill-opacity="0.2"></rect></svg>