<svg xmlns="http://www.w3.org/2000/svg" width="125" height="125" viewBox="0 0 125 125" fill="none"><g clip-path="url(#clip0_754_516)"><path d="M125 62.5L93.75 116.627L31.25 116.627L4.89743e-06 62.5L31.25 8.37341L93.75 8.37341L125 62.5Z" fill="white"></path><path fill-rule="evenodd" clip-rule="evenodd" d="M57.8403 21.3889C57.1928 21.8703 27.5426 51.5579 27.2167 52.0513C26.7979 52.6848 27.0037 53.5038 27.6822 53.9045C27.9318 54.052 28.3789 54.1355 28.9188 54.1355H29.7644V72.5801V91.0247L30.1691 91.4777L30.5739 91.9306H42.1648H53.7558L54.1373 91.5492C54.6696 91.0169 54.6696 90.2091 54.1373 89.6768L53.7558 89.2954L43.1473 89.2582L32.5387 89.2209V71.6783V54.1355H35.1141C36.7169 54.1355 37.8037 54.0776 37.9924 53.9824C38.159 53.8982 42.899 49.2328 48.5257 43.615L58.756 33.4007L66.9402 41.5839L75.1244 49.7671L64.8594 60.03L54.5944 70.2931V64.0866V57.8803H59.6553H64.7161L65.166 57.4784C65.5383 57.1458 65.616 56.976 65.616 56.4933C65.616 56.0094 65.5384 55.841 65.1613 55.504L64.7067 55.0979L58.668 55.1369L52.6293 55.1757L52.2247 55.6287L51.8201 56.0817V64.5534V73.0252L50.9738 73.9481C49.5531 75.497 49.0488 76.6291 49.0488 78.2689C49.0488 81.7124 52.0011 84.241 55.487 83.7831C57.2738 83.5484 57.2868 83.5376 64.2698 76.5628C70.0603 70.7788 70.6853 70.1113 70.6853 69.7106C70.6853 68.8925 70.3807 68.4987 69.5397 68.2298C69.4056 68.1868 69.1247 68.2154 68.9155 68.2931C68.7064 68.3707 66.506 70.4601 64.0258 72.936L59.5161 77.4377L57.5071 75.4253L55.498 73.4128L68.1539 60.7584L80.8099 48.1041L82.8226 50.113L84.8354 52.1219L79.9168 57.0469C77.2117 59.7557 74.9349 62.1431 74.8572 62.3521C74.7794 62.5612 74.7509 62.8421 74.7939 62.9762C75.0629 63.8171 75.4567 64.1217 76.2749 64.1217C76.6752 64.1217 77.2774 63.5599 82.4069 58.4004L88.0952 52.6792L89.8789 47.7418C91.7961 42.4351 91.8261 42.2917 91.1501 41.6567C90.9566 41.4749 90.6323 41.3431 90.3597 41.3355C90.0865 41.3278 87.8834 42.0559 84.973 43.1157L80.0486 44.9087L78.5512 46.3601L77.0538 47.8114L68.185 38.9446C59.3795 30.141 59.3122 30.0776 58.7558 30.0776C58.1983 30.0776 58.138 30.1351 47.5482 40.7228L36.901 51.368L34.3726 51.33L31.8441 51.2922L45.2999 37.8389L58.7556 24.3855L66.1423 31.7521C70.205 35.8039 73.6834 39.2209 73.872 39.3456C74.4265 39.712 74.9535 39.632 75.4849 39.1006C76.0807 38.5049 76.0998 38.0034 75.5544 37.2698C75.0753 36.6254 59.9486 21.5408 59.4532 21.2133C58.95 20.8809 58.4507 20.9352 57.8403 21.3889ZM77.5517 40.3916C76.6677 40.77 76.434 41.9158 77.1041 42.5857C77.9464 43.428 79.3488 42.8451 79.3488 41.6527C79.3488 40.7393 78.36 40.0454 77.5517 40.3916ZM57.3687 42.1412C54.6701 42.8854 52.9964 45.7477 53.679 48.4509C54.569 51.9753 58.6872 53.5643 61.6639 51.5323C64.6648 49.4836 64.7719 45.1972 61.8769 43.0115C60.6264 42.0672 58.8675 41.7277 57.3687 42.1412ZM59.8697 45.0161C61.6901 45.9355 61.6901 48.4656 59.8697 49.3851C59.5299 49.5568 59.0287 49.6971 58.7558 49.6971C58.483 49.6971 57.9818 49.5568 57.642 49.3851C55.8216 48.4656 55.8216 45.9355 57.642 45.0161C57.9818 44.8444 58.483 44.704 58.7558 44.704C59.0287 44.704 59.5299 44.8444 59.8697 45.0161ZM87.2023 46.9329C86.8282 47.9575 86.4517 48.9788 86.3654 49.2028L86.2087 49.6099L84.8272 48.2339C84.0675 47.477 83.4643 46.8022 83.4869 46.7344C83.5233 46.6254 87.7666 44.9825 87.8495 45.0454C87.8676 45.0591 87.5764 45.9085 87.2023 46.9329ZM95.7096 50.3768C95.0612 50.8589 56.5336 89.423 56.2081 89.9158C55.7895 90.5494 55.9953 91.3684 56.6737 91.7691C57.0337 91.9817 58.6528 92 77.0508 92H97.0368L97.4898 91.5953L97.9429 91.1906L97.9839 71.172C98.0215 52.8363 98.0058 51.117 97.7975 50.7191C97.3665 49.896 96.5387 49.7604 95.7096 50.3768ZM95.2379 72.0275V89.226H78.004H60.77L63.3949 86.5987L66.0199 83.9713L66.9012 84.7956C67.6299 85.4772 67.8665 85.6199 68.2678 85.6199C68.9102 85.6199 69.3875 85.2883 69.5787 84.7092C69.7933 84.059 69.659 83.7448 68.7663 82.8092L67.995 82.0006L69.7491 80.2466L71.5033 78.4926L72.2656 79.2134C73.1959 80.0931 73.611 80.2738 74.2312 80.0691C74.7984 79.882 75.1242 79.3997 75.1242 78.7473C75.1242 78.3223 74.9966 78.112 74.2968 77.3833L73.4692 76.5216L75.2331 74.7684L76.9969 73.0152L77.7995 73.7683C78.8769 74.7791 79.586 74.9173 80.2567 74.2467C80.9274 73.5761 80.7892 72.867 79.7783 71.7898L79.025 70.9873L80.7785 69.2237L82.5319 67.46L83.3937 68.2875C84.1225 68.9872 84.3328 69.1148 84.7579 69.1148C85.4104 69.1148 85.8927 68.789 86.0798 68.2219C86.2846 67.6018 86.1038 67.1868 85.2241 66.2566L84.5032 65.4944L86.2574 63.7404L88.0116 61.9865L88.8203 62.7578C89.756 63.6503 90.0702 63.7845 90.7205 63.57C91.3001 63.3787 91.6313 62.9016 91.6313 62.2579C91.6313 61.8537 91.4916 61.6236 90.8068 60.9007L89.9824 60.0301L92.574 57.4296C93.9996 55.9993 95.182 54.829 95.2019 54.829C95.2217 54.829 95.2379 62.5683 95.2379 72.0275ZM36.2146 60.2306C36.062 60.2931 35.8123 60.4828 35.6598 60.6525C35.3912 60.951 35.3823 61.1561 35.3823 67.0458V73.1308L35.7668 73.5153L36.1514 73.8999L42.1755 73.9388L48.1996 73.9777L48.6574 73.5687L49.1151 73.1598V67.0344V60.9089L48.6621 60.5042L48.209 60.0995L42.3505 60.1082C39.1283 60.1131 36.3672 60.1681 36.2146 60.2306ZM46.4102 67.0344V71.1953H42.2487H38.0873V67.0344V62.8734H42.2487H46.4102V67.0344ZM72.0413 65.0245C70.7404 65.7541 71.5006 67.8054 72.9697 67.5298C73.7932 67.3753 74.2815 66.5003 73.9657 65.7448C73.8636 65.5005 73.6823 65.2197 73.5628 65.1206C73.2204 64.8366 72.4619 64.7887 72.0413 65.0245ZM80.9168 74.9067C72.9969 82.8258 72.7661 83.0716 72.7661 83.5845C72.7661 84.2571 72.9486 84.5928 73.4569 84.8557C73.8046 85.0354 75.0108 85.0651 81.9816 85.0651H90.101L90.5541 84.6604L91.0071 84.2558L91.0451 76.0979C91.0729 70.1416 91.0396 67.8349 90.9219 67.5509C90.699 67.0127 90.2812 66.757 89.6251 66.757C89.0733 66.757 88.9874 66.8373 80.9168 74.9067ZM88.3022 76.8819V82.2911H82.8583H77.4144L82.8229 76.8819C85.7977 73.9069 88.2474 71.4727 88.2668 71.4727C88.2862 71.4727 88.3022 73.9069 88.3022 76.8819ZM55.5346 77.4751L57.5116 79.4555L56.9199 80.0261C56.1272 80.7906 55.5376 81.0655 54.683 81.0685C53.8335 81.0716 53.4182 80.925 52.7982 80.4035C51.9051 79.6521 51.5798 78.2825 52.0347 77.1896C52.2253 76.7317 53.2806 75.4949 53.4806 75.4949C53.5229 75.4949 54.4472 76.3861 55.5346 77.4751Z" fill="#1E7552"></path><path fill-rule="evenodd" clip-rule="evenodd" d="M57.7666 90.58L96.1066 52.24V90.58H57.7666ZM75.28 83.48H89.48V68.8067L75.28 83.48Z" fill="#1E7552" fill-opacity="0.2"></path><path d="M58.7731 22.6136L81.8638 45.7259L76.6801 49.4993L58.7731 32.0472L37.0961 53.2727H28.6138L58.7731 22.6136Z" fill="#1E7552" fill-opacity="0.2"></path><rect x="36.6816" y="61.3409" width="11.2955" height="10.4886" fill="#1E7552" fill-opacity="0.2"></rect></g><defs><clipPath id="clip0_754_516"><rect width="125" height="125" fill="white"></rect></clipPath></defs></svg>