<svg xmlns="http://www.w3.org/2000/svg" xmlns:xlink="http://www.w3.org/1999/xlink" id="&#x421;&#x43B;&#x43E;&#x439;_1" x="0px" y="0px" viewBox="0 0 1231.7 295.3" style="enable-background:new 0 0 1231.7 295.3;" xml:space="preserve"><style type="text/css">	.st0{fill:#FFFFFF;}</style><g>	<path class="st0" d="M62,200.3c-0.4-0.9-1.3-1.5-2.3-1.5H13.3v5h40.4l-40.9,40.9l3.5,3.5l45.1-45.1C62.1,202.3,62.3,201.3,62,200.3  z"></path>	<path class="st0" d="M92.4,230.7c-0.9-0.4-2-0.2-2.7,0.5l-45.1,45.2l3.5,3.5l40.9-41v40.4h5V233C94,232,93.4,231.1,92.4,230.7z"></path>	<path class="st0" d="M87.7,154.5c-0.5-0.5-1.1-0.7-1.8-0.7H13.3v5h71.6l49.1,49.1v71.5h5v-72.6c0-0.7-0.3-1.3-0.7-1.8L87.7,154.5z"></path>	<path class="st0" d="M95.4,195.9L95.4,195.9l-18.8-18.8c-0.5-0.5-1.1-0.7-1.8-0.7H11.7v5h62.1l16.3,16.3l-63,63l3.5,3.5l63-63  l16.3,16.3v62h5v-63.1c0-0.6-0.3-1.3-0.7-1.8L95.4,195.9z"></path>	<path class="st0" d="M282.2,203.8v-5h-46.3c-1,0-1.9,0.6-2.3,1.5c-0.4,0.9-0.2,2,0.5,2.7l45.1,45.1l3.5-3.5l-40.9-40.9L282.2,203.8  L282.2,203.8z"></path>	<path class="st0" d="M203.1,230.7c-0.9,0.4-1.5,1.3-1.5,2.3v46.4h5V239l40.9,41l3.5-3.5l-45.1-45.2  C205.1,230.5,204.1,230.3,203.1,230.7z"></path>	<path class="st0" d="M282.2,158.8v-5h-72.6c-0.7,0-1.3,0.3-1.8,0.7L157.3,205c-0.5,0.5-0.7,1.1-0.7,1.8v72.6h5v-71.5l49.1-49.1  L282.2,158.8L282.2,158.8z"></path>	<path class="st0" d="M220.1,181.4h62.1v-5h-63.1c-0.7,0-1.3,0.3-1.8,0.7l-18.8,18.8l-18.8,18.8c-0.5,0.5-0.7,1.1-0.7,1.8v63.1h5  v-62l16.3-16.3l63,63l3.5-3.5l-63-63L220.1,181.4z"></path>	<path class="st0" d="M13.3,88.2v5h46.4c1,0,1.9-0.6,2.3-1.5c0.4-0.9,0.2-2-0.5-2.7L16.3,43.8l-3.5,3.5l40.9,40.9H13.3z"></path>	<path class="st0" d="M99.5,61.5c0.3,0,0.6-0.1,1-0.2c0.9-0.4,1.5-1.3,1.5-2.3V12.6h-5V53L56.1,12l-3.5,3.5l45.1,45.2  C98.2,61.2,98.8,61.5,99.5,61.5z"></path>	<path class="st0" d="M134,84.2l-49.1,49.1H13.3v5h72.6c0.7,0,1.3-0.3,1.8-0.7l50.5-50.5c0.5-0.5,0.7-1.1,0.7-1.8V12.6h-5v71.6H134z  "></path>	<path class="st0" d="M75.4,110.6H13.3v5h63.1c0.7,0,1.3-0.3,1.8-0.7L97,96.1l0,0l18.8-18.8c0.5-0.5,0.7-1.1,0.7-1.8v-63h-5v62  L95.2,90.8l-63-63l-3.5,3.6l63,63L75.4,110.6z"></path>	<path class="st0" d="M233.6,91.7c0.4,0.9,1.3,1.5,2.3,1.5h46.3v-5h-40.3l40.9-40.9l-3.5-3.5l-45.1,45.1  C233.4,89.7,233.2,90.7,233.6,91.7z"></path>	<path class="st0" d="M203.1,61.3c0.3,0.1,0.6,0.2,0.9,0.2c0.6,0,1.3-0.3,1.8-0.7l45.1-45.2l-3.4-3.6l-40.9,41V12.6h-5V59  C201.6,60,202.2,60.9,203.1,61.3z"></path>	<path class="st0" d="M207.8,137.5c0.5,0.5,1.1,0.7,1.8,0.7h72.6v-5h-71.6l-49.1-49.1V12.6h-5v72.6c0,0.7,0.3,1.3,0.7,1.8  L207.8,137.5z"></path>	<path class="st0" d="M198.6,96.1L198.6,96.1l18.8,18.8c0.5,0.5,1.1,0.7,1.8,0.7h63.1v-5h-62.1l-16.3-16.3l63-63l-3.5-3.5l-63,63  l-16.3-16.3v-62h-5v63.1c0,0.7,0.3,1.3,0.7,1.8L198.6,96.1z"></path></g><g>	<path class="st0" d="M527.4,204.1H491l-9.6-23.9h-51.2l-9.8,23.9h-36.4l52.2-118h39.3L527.4,204.1z M473.2,159.6l-17.3-43.1  l-17.4,43.1H473.2z"></path>	<path class="st0" d="M638.8,114.8h-43.2v89.3H560v-89.3h-43.2V86.1h122V114.8z"></path>	<path class="st0" d="M774.1,204.1h-36.4l-9.6-23.9h-51.2l-9.8,23.9h-36.4l52.2-118h39.3L774.1,204.1z M719.9,159.6l-17.3-43.1  l-17.4,43.1H719.9z"></path>	<path class="st0" d="M904,204.1h-38.2l-9.3-20.9c-3.4-7.7-6.5-13.3-9.2-16.8c-2.7-3.5-5.4-5.8-8-6.8c-2.6-1-5.9-1.5-10-1.5h-4v46  h-35.6v-118h60.5c9.8,0,17.8,2,24,6c6.2,4,10.7,8.8,13.5,14.5c2.8,5.7,4.1,11.1,4.1,16.2c0,6-1.1,11-3.4,15.1  c-2.3,4.1-4.7,7.1-7.3,9c-2.6,1.9-5.4,3.7-8.6,5.4c3.8,2.2,6.9,4.8,9.4,7.9c2.5,3,5.8,9.2,10.1,18.4L904,204.1z M855.6,123.4  c0-5.4-1.8-9.2-5.4-11.4c-3.6-2.2-9.4-3.2-17.4-3.2h-7.5v28.4h7.7c8.7,0,14.6-0.9,17.8-2.9C854,132.4,855.6,128.8,855.6,123.4z"></path>	<path class="st0" d="M955.9,204.1h-35.6v-118h35.6V204.1z"></path>	<path class="st0" d="M1115.2,204.1h-36.4l-9.6-23.9H1018l-9.8,23.9h-36.4l52.2-118h39.3L1115.2,204.1z M1061,159.6l-17.3-43.1  l-17.4,43.1H1061z"></path>	<path class="st0" d="M1220.5,204.1h-89.6v-118h35.6v89.7h54V204.1z"></path></g></svg>