<svg xmlns="http://www.w3.org/2000/svg" width="215" height="40" viewBox="0 0 215 40" fill="none"><path fill-rule="evenodd" clip-rule="evenodd" d="M188.013 17.7673L127.823 17.7673L127.823 18.8954L209.961 18.8954C210.29 18.8954 210.526 18.6604 210.526 18.3314C210.526 18.0494 210.29 17.7673 209.961 17.7673L196.114 17.7673V17.8614L188.107 17.8614C188.107 17.8143 188.06 17.8143 188.013 17.7673Z" fill="white"></path><path fill-rule="evenodd" clip-rule="evenodd" d="M188.013 17.7673L188.013 17.8614L127.917 17.8614L127.917 18.8014L209.961 18.8014C210.102 18.8014 210.243 18.7544 210.29 18.6604C210.384 18.6134 210.432 18.4724 210.432 18.3314C210.432 18.1904 210.384 18.0964 210.29 18.0024C210.243 17.9084 210.102 17.8614 209.961 17.8614L196.114 17.8614V17.7673L196.208 17.7674V17.9554L188.107 17.9554L188.06 17.9084C188.013 17.9084 188.013 17.8614 187.966 17.8614L188.013 17.7673L188.06 17.7203C188.107 17.7203 188.154 17.7673 188.202 17.8144L188.107 17.8614L188.107 17.7673L196.114 17.7673V17.8614L196.02 17.8614V17.6733L209.961 17.6733C210.337 17.6733 210.62 17.9554 210.62 18.3314C210.62 18.7074 210.337 18.9894 209.961 18.9894L127.775 18.9894L127.775 17.6733L188.06 17.6733V17.7203L188.013 17.7673Z" fill="white"></path><path fill-rule="evenodd" clip-rule="evenodd" d="M116.708 17.7673V18.8954L0.894875 18.8954C0.423899 18.8954 0.0471075 18.6604 0.0471075 18.3314C0.0471076 18.0494 0.423899 17.7673 0.894875 17.7673L20.3932 17.8614C52.5137 17.8614 84.5871 17.7673 116.708 17.7673Z" fill="white"></path><path fill-rule="evenodd" clip-rule="evenodd" d="M116.708 17.7673L116.613 17.7674V18.8014L0.894863 18.8014C0.65938 18.8014 0.470962 18.7544 0.376764 18.6604C0.282577 18.6134 0.235479 18.5664 0.188382 18.5194C0.188382 18.4724 0.141287 18.4254 0.141287 18.3314C0.141287 18.2844 0.188382 18.2374 0.188382 18.1434C0.282579 18.0964 0.329693 18.0024 0.47098 17.9554C0.565176 17.9084 0.706478 17.8614 0.894863 17.8614L20.3932 17.9554C52.5137 17.9554 84.5871 17.8614 116.708 17.8614V17.7673V17.6733C84.5871 17.6733 52.5137 17.7673 20.3932 17.7673L0.894863 17.6733C0.65938 17.6733 0.423865 17.7673 0.235478 17.8614C0.188382 17.9084 0.0941942 18.0024 0.0470956 18.0964C-3.08503e-06 18.1434 4.12083e-09 18.2374 0 18.3314C-4.11396e-09 18.4254 -3.10257e-06 18.5194 0.0470955 18.6134C0.141293 18.7074 0.235476 18.8484 0.376764 18.8954C0.51806 18.9424 0.706478 18.9894 0.894863 18.9894L116.802 18.9894V17.6733L116.708 17.6733V17.7673Z" fill="white"></path><path fill-rule="evenodd" clip-rule="evenodd" d="M127.87 18.2373L127.87 18.4723L116.66 18.4723L116.66 18.2373L127.87 18.2373Z" fill="white"></path><path fill-rule="evenodd" clip-rule="evenodd" d="M212.881 15.5582V16.8743H212.692V16.6863C212.834 16.6863 212.975 16.7333 213.116 16.7803C213.257 16.8273 213.399 16.9683 213.493 17.1093C213.587 17.2503 213.634 17.3913 213.634 17.5793C213.634 17.7673 213.587 18.0024 213.399 18.1434C213.352 18.2374 213.257 18.2844 213.163 18.3314C213.022 18.3784 212.928 18.4254 212.786 18.4254C212.645 18.4254 212.551 18.3784 212.41 18.3314C212.268 18.2844 212.127 18.1904 211.986 18.0964L212.268 17.7673C212.363 17.8143 212.457 17.9084 212.551 17.9084C212.645 17.9554 212.739 17.9554 212.786 17.9554C212.881 17.9554 212.928 17.9554 212.975 17.9554C213.022 17.9084 213.116 17.8613 213.116 17.7673C213.163 17.7203 213.21 17.6263 213.21 17.5793C213.21 17.4853 213.21 17.4383 213.163 17.3913C213.163 17.3443 213.116 17.2973 213.022 17.2033C212.928 17.1563 212.834 17.1093 212.645 17.1093H212.457V15.5582H212.881Z" fill="white"></path><path fill-rule="evenodd" clip-rule="evenodd" d="M101.966 13.302V13.772H98.4338V13.302H101.966ZM101.966 14.1011V14.5711H98.4338V14.1011H101.966ZM101.966 14.9001V15.3701H98.4338V14.9001H101.966ZM101.966 15.6992V16.2162H98.4338V15.6992H101.966Z" fill="white"></path><path fill-rule="evenodd" clip-rule="evenodd" d="M154.857 14.4301V16.1222H149.723V14.4301H154.857Z" fill="white"></path><path fill-rule="evenodd" clip-rule="evenodd" d="M154.809 14.4771V14.5711H149.864V16.0282H154.715V14.4771H154.809H154.904V16.2162H149.676V14.3831H154.904V14.4771H154.809Z" fill="white"></path><path fill-rule="evenodd" clip-rule="evenodd" d="M182.409 13.349L164.512 13.349C164.182 13.349 163.946 13.584 163.946 13.913C163.946 14.1951 164.182 14.4771 164.512 14.4771L182.409 14.4771C182.691 14.4771 182.974 14.1951 182.974 13.913C182.974 13.584 182.691 13.349 182.409 13.349Z" fill="white"></path><path fill-rule="evenodd" clip-rule="evenodd" d="M182.409 13.349V13.443H164.512C164.37 13.443 164.229 13.49 164.182 13.584C164.088 13.631 164.041 13.772 164.041 13.913C164.041 14.0541 164.088 14.1481 164.182 14.2421C164.229 14.3361 164.37 14.3831 164.512 14.3831L182.409 14.3831C182.503 14.3831 182.644 14.3361 182.738 14.2421C182.832 14.1481 182.88 14.0541 182.88 13.913C182.88 13.772 182.832 13.631 182.738 13.584C182.644 13.49 182.503 13.443 182.409 13.443V13.349V13.255C182.738 13.255 183.068 13.537 183.068 13.913C183.068 14.2891 182.738 14.5711 182.409 14.5711L164.512 14.5711C164.135 14.5711 163.852 14.2891 163.852 13.913C163.852 13.537 164.135 13.255 164.512 13.255L182.409 13.255V13.349Z" fill="white"></path><path fill-rule="evenodd" clip-rule="evenodd" d="M168.939 14.4771H165.736C165.501 14.8061 165.359 15.2291 165.359 15.6522C165.359 16.7803 166.207 17.6263 167.337 17.6263C168.421 17.6263 169.315 16.7803 169.315 15.6522C169.315 15.2291 169.174 14.8061 168.939 14.4771Z" fill="white"></path><path fill-rule="evenodd" clip-rule="evenodd" d="M168.939 14.4771L168.939 14.5711H165.736L165.736 14.4771L165.783 14.5241C165.548 14.8531 165.406 15.2291 165.406 15.6522C165.406 16.1692 165.642 16.6393 165.972 17.0153C166.348 17.3443 166.819 17.5793 167.337 17.5793C167.855 17.5793 168.326 17.3443 168.656 17.0153C169.033 16.6393 169.221 16.1692 169.221 15.6522C169.221 15.2291 169.08 14.8531 168.845 14.5241L168.939 14.4771L168.986 14.4301C169.268 14.7591 169.41 15.1821 169.41 15.6522C169.41 16.8273 168.468 17.7203 167.337 17.7203C166.16 17.7203 165.265 16.8273 165.265 15.6522C165.265 15.1821 165.406 14.7591 165.642 14.4301L165.689 14.3831H168.986V14.4301L168.939 14.4771Z" fill="white"></path><path fill-rule="evenodd" clip-rule="evenodd" d="M181.184 14.4771H177.981C177.746 14.8061 177.605 15.2291 177.605 15.6522C177.605 16.7803 178.499 17.6263 179.583 17.6263C180.713 17.6263 181.608 16.7803 181.608 15.6522C181.608 15.2291 181.42 14.8061 181.184 14.4771Z" fill="white"></path><path fill-rule="evenodd" clip-rule="evenodd" d="M181.184 14.4771L181.184 14.5711H177.981V14.4771L178.076 14.5241C177.84 14.8531 177.699 15.2291 177.699 15.6522C177.699 16.1692 177.934 16.6393 178.264 17.0153C178.594 17.3443 179.065 17.5793 179.583 17.5793C180.101 17.5793 180.619 17.3443 180.949 17.0153C181.278 16.6393 181.514 16.1692 181.514 15.6522C181.514 15.2291 181.372 14.8531 181.137 14.5241L181.184 14.4771L181.278 14.4301C181.514 14.7591 181.655 15.1821 181.655 15.6522C181.655 16.8273 180.76 17.7203 179.583 17.7203C178.452 17.7203 177.51 16.8273 177.51 15.6522C177.51 15.1821 177.652 14.7591 177.934 14.4301L177.981 14.3831H181.231L181.278 14.4301L181.184 14.4771Z" fill="white"></path><path fill-rule="evenodd" clip-rule="evenodd" d="M176.003 14.4301V16.1222H170.917V14.4301H176.003Z" fill="white"></path><path fill-rule="evenodd" clip-rule="evenodd" d="M70.6462 15.0881V15.9342H66.3604V15.0881H70.6462Z" fill="white"></path><path fill-rule="evenodd" clip-rule="evenodd" d="M66.4075 15.1351V15.0411H70.7404V16.0282H66.3133V15.0411H66.4075V15.1351H66.4546V15.8402H70.5521V15.2291H66.4075V15.1351Z" fill="white"></path><path fill-rule="evenodd" clip-rule="evenodd" d="M94.4305 13.302L94.666 11.7039C95.3253 12.0799 96.8324 13.396 97.0679 13.067C97.2092 12.926 95.4195 11.2808 94.6189 10.4348L93.6298 10.1997C93.3943 11.2338 92.9704 12.973 93.0175 13.396C93.0646 13.772 94.5718 14.7121 94.5247 15.0411V17.6733H96.126C96.0789 17.2033 95.655 17.2033 95.3724 17.1093V14.7591L94.4305 13.302Z" fill="white"></path><path fill-rule="evenodd" clip-rule="evenodd" d="M94.4305 13.302H94.3363L94.6189 11.5628L94.7131 11.6569C94.8543 11.7509 95.0427 11.8449 95.2782 11.9859C95.5608 12.2209 95.9376 12.5029 96.2202 12.6909C96.4086 12.7849 96.5499 12.879 96.644 12.926C96.7382 12.973 96.7853 13.02 96.8324 13.02C96.8795 13.02 96.9266 13.02 96.9266 13.02C96.9737 13.02 96.9737 13.02 96.9737 13.02L97.0208 13.067H96.9737C96.9737 13.067 96.9737 13.067 96.9737 13.02L97.0208 13.067H96.9737V13.02C96.9266 12.973 96.8795 12.926 96.8324 12.8319C96.7382 12.6909 96.5499 12.5029 96.3615 12.3149C95.7963 11.7509 94.9956 10.9518 94.5718 10.4818L94.6189 10.4348V10.4818L93.6298 10.2938V10.1997H93.724C93.6298 10.7168 93.4885 11.3278 93.3472 11.9389C93.3001 12.2209 93.2059 12.5029 93.2059 12.7379C93.1588 12.973 93.1117 13.161 93.1117 13.302V13.349C93.1117 13.396 93.1588 13.443 93.2059 13.49C93.253 13.584 93.3943 13.725 93.5356 13.866C93.724 14.054 94.0066 14.2891 94.2421 14.4771C94.3363 14.5711 94.4305 14.6651 94.4776 14.7591C94.5247 14.8061 94.5718 14.8531 94.5718 14.8531C94.6189 14.9001 94.6189 14.9471 94.6189 14.9941V15.0411V17.6733H94.5247V17.5793H96.126V17.6733H96.0318C96.0318 17.5793 95.9847 17.5323 95.9376 17.4853C95.9376 17.4383 95.8905 17.3913 95.8434 17.3913C95.7963 17.3443 95.7021 17.2973 95.6079 17.2973C95.5608 17.2503 95.4666 17.2503 95.3724 17.2033H95.2782V14.8061L94.3363 13.349V13.302H94.4305L94.4776 13.255L95.4666 14.7591V17.1093L95.3724 17.1093L95.4195 17.0623C95.4666 17.0623 95.5608 17.0623 95.655 17.1093C95.7492 17.1093 95.8905 17.1563 95.9847 17.2503C96.0789 17.2973 96.126 17.3443 96.126 17.4383C96.1731 17.4853 96.2202 17.5793 96.2202 17.6733V17.7673H94.4305V14.9941C94.4305 14.9471 94.3834 14.9001 94.3363 14.8531C94.2421 14.7591 94.1479 14.6181 94.0066 14.5241C93.7711 14.3361 93.5356 14.101 93.3472 13.913C93.253 13.819 93.1588 13.725 93.0646 13.631C93.0646 13.584 93.0175 13.537 92.9704 13.537C92.9704 13.49 92.9704 13.443 92.9233 13.396C92.9233 13.349 92.9233 13.349 92.9233 13.302C92.9233 13.161 92.9704 12.973 93.0175 12.6909C93.1117 11.9859 93.3943 10.9048 93.5827 10.1527V10.0587L94.666 10.3408C95.0427 10.7638 95.655 11.3748 96.1731 11.8919C96.4557 12.1269 96.6911 12.4089 96.8795 12.5969C96.9266 12.6909 97.0208 12.7849 97.0679 12.8319C97.0679 12.8789 97.115 12.926 97.115 12.973C97.1621 12.973 97.1621 13.02 97.1621 13.067C97.1621 13.067 97.1621 13.067 97.1621 13.114H97.115C97.115 13.161 97.0679 13.161 97.0208 13.208C97.0208 13.208 96.9737 13.208 96.9266 13.208C96.8795 13.208 96.7853 13.208 96.7382 13.161C96.5499 13.114 96.4086 13.02 96.2202 12.879C95.9376 12.7379 95.655 12.5029 95.3724 12.3149C95.0898 12.0799 94.8073 11.8919 94.6189 11.7979L94.666 11.7039L94.7601 11.7509L94.5247 13.349L94.4305 13.302Z" fill="white"></path><path fill-rule="evenodd" clip-rule="evenodd" d="M92.9233 17.0623L93.9124 14.6651L93.1117 13.96C93.1117 14.1481 93.0646 14.3831 93.0175 14.4771L91.9343 17.6733H93.4885C93.4414 17.1563 93.1588 17.2033 92.9233 17.0623Z" fill="white"></path><path fill-rule="evenodd" clip-rule="evenodd" d="M92.9233 17.0623H92.8292L93.8182 14.6651L93.0646 14.007L93.1117 13.96H93.2059C93.2059 14.054 93.2059 14.1951 93.1588 14.2891C93.1588 14.3831 93.1117 14.4771 93.1117 14.5241L92.0756 17.5793H93.4885V17.6733H93.3943C93.3943 17.5793 93.3472 17.4853 93.3001 17.4383C93.3001 17.3913 93.253 17.3443 93.253 17.3443C93.2059 17.2973 93.1588 17.2503 93.0646 17.2503C93.0175 17.2033 92.9704 17.2033 92.8763 17.1563L92.8292 17.1093V17.0623H92.9233L92.9704 17.0153C93.0175 17.0153 93.0646 17.0623 93.1117 17.0623C93.1588 17.0623 93.2059 17.1093 93.253 17.1093C93.3472 17.1563 93.3943 17.2033 93.4414 17.2973C93.5356 17.3913 93.5356 17.5323 93.5827 17.6733V17.7673H91.793L92.9233 14.4771C92.9233 14.4301 92.9704 14.3361 92.9704 14.2421C93.0175 14.1481 93.0175 14.054 93.0175 13.96V13.725L94.0066 14.6181L93.0175 17.1093L92.9233 17.0623Z" fill="white"></path><path fill-rule="evenodd" clip-rule="evenodd" d="M94.6659 7.56755C95.4195 7.56755 96.0318 8.1786 96.0318 8.93066C96.0318 9.63571 95.4195 10.2468 94.6659 10.2468C93.9595 10.2468 93.3472 9.63571 93.3472 8.93066C93.3472 8.1786 93.9595 7.56755 94.6659 7.56755V7.75557C94.3834 7.75557 94.1008 7.89658 93.8653 8.08459C93.6769 8.31961 93.5356 8.60163 93.5356 8.93066C93.5356 9.21268 93.6769 9.4947 93.8653 9.72972C94.1008 9.91773 94.3834 10.0587 94.6659 10.0587C94.9956 10.0587 95.2782 9.91773 95.5137 9.72972C95.7021 9.4947 95.8434 9.21268 95.8434 8.93066C95.8434 8.60163 95.7021 8.31961 95.5137 8.08459C95.2782 7.89658 94.9956 7.75557 94.6659 7.75557V7.56755Z" fill="white"></path><path fill-rule="evenodd" clip-rule="evenodd" d="M95.9847 8.64863C95.9847 7.99058 95.3724 7.37954 94.7131 7.37954C94.1008 7.37954 93.4414 7.70856 93.4414 8.83665H96.4557V8.64863C96.3615 8.64863 96.2673 8.64863 95.9847 8.64863Z" fill="white"></path><path fill-rule="evenodd" clip-rule="evenodd" d="M95.9847 8.64863H95.8905C95.8905 8.36661 95.7492 8.03759 95.5137 7.84957C95.3253 7.61455 94.9956 7.47354 94.7131 7.47354C94.5718 7.47354 94.4305 7.52055 94.2892 7.56755C94.0537 7.61455 93.8653 7.70856 93.724 7.94358C93.6298 8.13159 93.5356 8.41361 93.5356 8.83665H93.4414V8.78964L96.3615 8.74264V8.64863H96.4557V8.74264C96.3615 8.74264 96.2673 8.74264 95.9847 8.74264H95.8905V8.64863H95.9847V8.55462C96.2673 8.55462 96.3615 8.55462 96.4557 8.55462H96.5499V8.93065L93.3472 8.93066L93.3472 8.83665C93.3472 8.55462 93.3943 8.31961 93.4414 8.13159C93.5827 7.80257 93.7711 7.61455 94.0066 7.47354C94.195 7.33253 94.4776 7.28553 94.7131 7.28553C95.0427 7.28553 95.4195 7.47354 95.655 7.70856C95.8905 7.94358 96.0789 8.2726 96.0789 8.64863H95.9847Z" fill="white"></path><path fill-rule="evenodd" clip-rule="evenodd" d="M96.9266 12.7379C96.9266 12.7379 96.9266 12.7379 96.9737 12.7379C96.9737 12.7379 96.9737 12.7379 97.0208 12.7379C97.2092 12.7379 97.8215 12.7379 97.9157 12.7379H98.1512V16.4982H102.013V16.9213H97.6802V12.973H97.9157V13.161C97.8215 13.161 97.2092 13.161 97.0208 13.161C96.9737 13.161 96.9737 13.161 96.9737 13.161C96.9266 13.161 96.9266 13.161 96.9266 13.161V12.7379Z" fill="white"></path><path fill-rule="evenodd" clip-rule="evenodd" d="M98.8105 16.8273C99.046 16.8273 99.2815 17.0623 99.2815 17.2973C99.2815 17.5323 99.046 17.7673 98.8105 17.7673C98.575 17.7673 98.3396 17.5323 98.3396 17.2973C98.3396 17.0623 98.575 16.8273 98.8105 16.8273V17.0153C98.7163 17.0153 98.6692 17.0623 98.6221 17.1093C98.575 17.1563 98.5279 17.2033 98.5279 17.2973C98.5279 17.3913 98.575 17.4383 98.6221 17.4853C98.6692 17.5323 98.7163 17.5793 98.8105 17.5793C98.9047 17.5793 98.9518 17.5323 98.9989 17.4853C99.046 17.4383 99.0931 17.3913 99.0931 17.2973C99.0931 17.2033 99.046 17.1563 98.9989 17.1093C98.9518 17.0623 98.9047 17.0153 98.8105 17.0153V16.8273Z" fill="white"></path><path fill-rule="evenodd" clip-rule="evenodd" d="M100.977 16.8743C101.212 16.8743 101.448 17.0623 101.448 17.2973C101.448 17.5793 101.212 17.7673 100.977 17.7673C100.742 17.7673 100.506 17.5793 100.506 17.2973C100.506 17.0623 100.742 16.8743 100.977 16.8743V17.0623C100.883 17.0623 100.836 17.0623 100.789 17.1093C100.742 17.1563 100.694 17.2503 100.694 17.2973C100.694 17.3913 100.742 17.4853 100.789 17.5323C100.836 17.5793 100.883 17.5793 100.977 17.5793C101.071 17.5793 101.118 17.5793 101.165 17.5323C101.212 17.4853 101.26 17.3913 101.26 17.2973C101.26 17.2503 101.212 17.1563 101.165 17.1093C101.118 17.0623 101.071 17.0623 100.977 17.0623V16.8743Z" fill="white"></path><path fill-rule="evenodd" clip-rule="evenodd" d="M118.874 4.46533H122.312C122.595 4.46533 122.83 4.70035 122.83 4.98237V5.54641C122.83 5.87543 122.595 6.11045 122.312 6.11045H118.874C118.544 6.11045 118.309 5.87543 118.309 5.54641V4.98237C118.309 4.70035 118.544 4.46533 118.874 4.46533V4.65334C118.78 4.65334 118.686 4.70035 118.591 4.74735C118.544 4.79435 118.497 4.88836 118.497 4.98237V5.54641C118.497 5.64042 118.544 5.73442 118.591 5.82843C118.686 5.87543 118.78 5.92244 118.874 5.92244H122.312C122.406 5.92244 122.501 5.87543 122.548 5.82843C122.595 5.73442 122.642 5.64042 122.642 5.54641V4.98237C122.642 4.88836 122.595 4.79435 122.548 4.74735C122.501 4.70035 122.406 4.65334 122.312 4.65334H118.874V4.46533Z" fill="white"></path><path fill-rule="evenodd" clip-rule="evenodd" d="M118.356 12.5029V12.4559H122.924C123.301 12.4559 123.631 12.7379 123.631 13.161V14.4301C123.631 14.8061 123.301 15.1351 122.924 15.1351H118.356C117.979 15.1351 117.65 14.8061 117.65 14.4301V13.161C117.65 12.7379 117.979 12.4559 118.356 12.4559V12.5029V12.5969C118.215 12.5969 118.073 12.6909 117.979 12.785C117.885 12.879 117.838 13.02 117.838 13.161V14.4301C117.838 14.5711 117.885 14.7121 117.979 14.8061C118.073 14.9001 118.215 14.9471 118.356 14.9471H122.924C123.066 14.9471 123.207 14.9001 123.301 14.8061C123.395 14.7121 123.443 14.5711 123.443 14.4301V13.161C123.443 13.02 123.395 12.879 123.301 12.785C123.207 12.6909 123.066 12.5969 122.924 12.5969H118.356V12.5029Z" fill="white"></path><path fill-rule="evenodd" clip-rule="evenodd" d="M133.38 2.7732L112.233 2.7732C111.904 2.7732 111.621 3.05522 111.621 3.38424V4.1363C111.621 4.46532 111.904 4.74734 112.233 4.74734L133.38 4.74734C133.71 4.74734 133.992 4.46532 133.992 4.1363V3.38424C133.992 3.05522 133.71 2.7732 133.38 2.7732Z" fill="white"></path><path fill-rule="evenodd" clip-rule="evenodd" d="M133.38 2.7732V2.8672L112.233 2.8672C112.092 2.8672 111.951 2.91421 111.857 3.00821C111.762 3.10222 111.715 3.24323 111.715 3.38424V4.1363C111.715 4.27731 111.762 4.41832 111.857 4.51233C111.951 4.60633 112.092 4.65334 112.233 4.65334L133.38 4.65334C133.521 4.65334 133.663 4.60633 133.757 4.51233C133.851 4.41832 133.898 4.27731 133.898 4.1363V3.38424C133.898 3.24323 133.851 3.10222 133.757 3.00821C133.663 2.91421 133.521 2.8672 133.38 2.8672V2.7732V2.67919C133.757 2.67919 134.087 3.00821 134.087 3.38424V4.1363C134.087 4.51233 133.757 4.84135 133.38 4.84135L112.233 4.84135C111.857 4.84135 111.527 4.51233 111.527 4.1363V3.38424C111.527 3.00821 111.857 2.67919 112.233 2.67919L133.38 2.67919V2.7732Z" fill="white"></path><path fill-rule="evenodd" clip-rule="evenodd" d="M120.711 5.96944V10.6698H120.475V5.96944H120.711Z" fill="white"></path><path fill-rule="evenodd" clip-rule="evenodd" d="M122.453 12.6439L120.57 10.7638L118.78 12.5499L118.639 12.4559L120.57 10.5288L122.548 12.5029L122.453 12.6439Z" fill="white"></path><path fill-rule="evenodd" clip-rule="evenodd" d="M122.689 4.74735L118.497 4.74735C118.45 4.84136 118.403 4.88836 118.403 4.98237V5.54641C118.403 5.78143 118.591 6.01645 118.874 6.01645H122.312C122.548 6.01645 122.736 5.78143 122.736 5.54641V4.98237C122.736 4.88836 122.736 4.84136 122.689 4.74735Z" fill="white"></path><path fill-rule="evenodd" clip-rule="evenodd" d="M122.689 4.74735V4.84136L118.497 4.84136V4.74735L118.544 4.79436C118.497 4.84136 118.497 4.93536 118.497 4.98237V5.54641C118.497 5.64042 118.544 5.73442 118.591 5.82843C118.686 5.87543 118.78 5.92244 118.874 5.92244H122.312C122.406 5.92244 122.501 5.87543 122.548 5.82843C122.595 5.73442 122.642 5.64042 122.642 5.54641V4.98237C122.642 4.93536 122.642 4.84136 122.595 4.79436L122.689 4.74735L122.736 4.70035C122.783 4.79436 122.83 4.88836 122.83 4.98237V5.54641C122.83 5.87543 122.595 6.11045 122.312 6.11045H118.874C118.544 6.11045 118.309 5.87543 118.309 5.54641V4.98237C118.309 4.88836 118.356 4.79436 118.403 4.70035L118.45 4.65334H122.736V4.70035L122.689 4.74735Z" fill="white"></path><path fill-rule="evenodd" clip-rule="evenodd" d="M122.453 12.5029L118.356 12.5029C118.026 12.5029 117.744 12.785 117.744 13.161V14.4301C117.744 14.7591 118.026 15.0411 118.356 15.0411H122.924C123.254 15.0411 123.537 14.7591 123.537 14.4301V13.161C123.537 12.785 123.254 12.5029 122.924 12.5029H122.453Z" fill="white"></path><path fill-rule="evenodd" clip-rule="evenodd" d="M122.453 12.5029V12.5969L118.356 12.5969C118.215 12.5969 118.073 12.6909 117.979 12.785C117.885 12.879 117.838 13.02 117.838 13.161V14.4301C117.838 14.5711 117.885 14.7121 117.979 14.8061C118.073 14.9001 118.215 14.9471 118.356 14.9471H122.924C123.066 14.9471 123.207 14.9001 123.301 14.8061C123.395 14.7121 123.443 14.5711 123.443 14.4301V13.161C123.443 13.02 123.395 12.879 123.301 12.785C123.207 12.6909 123.066 12.5969 122.924 12.5969L122.453 12.5969V12.5029V12.4559L122.924 12.4559C123.301 12.4559 123.631 12.7379 123.631 13.161V14.4301C123.631 14.8061 123.301 15.1351 122.924 15.1351H118.356C117.979 15.1351 117.65 14.8061 117.65 14.4301V13.161C117.65 12.7379 117.979 12.4559 118.356 12.4559L122.453 12.4559V12.5029Z" fill="white"></path><path fill-rule="evenodd" clip-rule="evenodd" d="M112.704 4.37132L113.317 17.6263L112.893 17.6733L112.233 4.37132H112.704Z" fill="white"></path><path fill-rule="evenodd" clip-rule="evenodd" d="M113.505 17.6263L117.744 4.32432L118.168 4.41833L113.929 17.7673L113.505 17.6263Z" fill="white"></path><path fill-rule="evenodd" clip-rule="evenodd" d="M112.563 4.27731L116.99 8.0846L112.94 9.96474L115.436 12.738L113.081 15.4172L112.893 15.2291L115.153 12.738L112.563 9.87074L116.566 8.0376L112.422 4.46533L112.563 4.27731Z" fill="white"></path><path fill-rule="evenodd" clip-rule="evenodd" d="M133.38 4.37133L132.768 17.6733L132.297 17.6263L132.956 4.37132L133.38 4.37133Z" fill="white"></path><path fill-rule="evenodd" clip-rule="evenodd" d="M131.732 17.7673L127.493 4.41833L127.917 4.32432L132.156 17.6263L131.732 17.7673Z" fill="white"></path><path fill-rule="evenodd" clip-rule="evenodd" d="M133.239 4.46533L129.047 8.0376L133.097 9.87074L130.507 12.738L132.721 15.2291L132.579 15.4172L130.177 12.738L132.721 9.96475L128.67 8.08461L133.097 4.27732L133.239 4.46533Z" fill="white"></path><path fill-rule="evenodd" clip-rule="evenodd" d="M161.215 13.349H143.318C143.035 13.349 142.752 13.584 142.752 13.913C142.752 14.1951 143.035 14.4771 143.318 14.4771L161.215 14.4771C161.544 14.4771 161.78 14.1951 161.78 13.913C161.78 13.584 161.544 13.349 161.215 13.349Z" fill="white"></path><path fill-rule="evenodd" clip-rule="evenodd" d="M161.215 13.349V13.443L143.318 13.443C143.223 13.443 143.082 13.49 142.988 13.584C142.894 13.631 142.847 13.772 142.847 13.913C142.847 14.0541 142.894 14.1481 142.988 14.2421C143.082 14.3361 143.223 14.3831 143.318 14.3831H161.215C161.356 14.3831 161.45 14.3361 161.544 14.2421C161.639 14.1481 161.686 14.0541 161.686 13.913C161.686 13.772 161.639 13.631 161.544 13.584C161.45 13.49 161.356 13.443 161.215 13.443V13.349V13.255C161.591 13.255 161.874 13.537 161.874 13.913C161.874 14.2891 161.591 14.5711 161.215 14.5711L143.318 14.5711C142.988 14.5711 142.658 14.2891 142.658 13.913C142.658 13.537 142.988 13.255 143.318 13.255L161.215 13.255V13.349Z" fill="white"></path><path fill-rule="evenodd" clip-rule="evenodd" d="M147.745 14.4771H144.542C144.307 14.8061 144.165 15.2291 144.165 15.6522C144.165 16.7803 145.06 17.6263 146.144 17.6263C147.274 17.6263 148.169 16.7803 148.169 15.6522C148.169 15.2291 147.98 14.8061 147.745 14.4771Z" fill="white"></path><path fill-rule="evenodd" clip-rule="evenodd" d="M147.745 14.4771V14.5711H144.542V14.4771L144.636 14.5241C144.401 14.8531 144.26 15.2291 144.26 15.6522C144.26 16.1692 144.448 16.6392 144.825 17.0153C145.154 17.3443 145.625 17.5793 146.144 17.5793C146.662 17.5793 147.18 17.3443 147.509 17.0153C147.839 16.6392 148.075 16.1692 148.075 15.6522C148.075 15.2291 147.933 14.8531 147.698 14.5241L147.745 14.4771L147.839 14.4301C148.075 14.7591 148.216 15.1821 148.216 15.6522C148.216 16.8273 147.321 17.7203 146.144 17.7203C145.013 17.7203 144.071 16.8273 144.071 15.6522C144.071 15.1821 144.213 14.7591 144.495 14.4301L144.542 14.3831H147.792L147.839 14.4301L147.745 14.4771Z" fill="white"></path><path fill-rule="evenodd" clip-rule="evenodd" d="M160.037 14.4771H156.835C156.599 14.8061 156.458 15.2291 156.458 15.6522C156.458 16.7803 157.353 17.6263 158.436 17.6263C159.519 17.6263 160.414 16.7803 160.414 15.6522C160.414 15.2291 160.273 14.8061 160.037 14.4771Z" fill="white"></path><path fill-rule="evenodd" clip-rule="evenodd" d="M160.037 14.4771V14.5711L156.835 14.5711V14.4771L156.929 14.5241C156.693 14.8531 156.552 15.2291 156.552 15.6522C156.552 16.1692 156.74 16.6392 157.07 17.0153C157.447 17.3443 157.918 17.5793 158.436 17.5793C158.954 17.5793 159.425 17.3443 159.755 17.0153C160.131 16.6392 160.32 16.1692 160.32 15.6522C160.32 15.2291 160.179 14.8531 159.943 14.5241L160.037 14.4771L160.084 14.4301C160.367 14.7591 160.508 15.1821 160.508 15.6522C160.508 16.8273 159.566 17.7203 158.436 17.7203C157.306 17.7203 156.364 16.8273 156.364 15.6522C156.364 15.1821 156.505 14.7591 156.788 14.4301V14.3831L160.084 14.3831V14.4301L160.037 14.4771Z" fill="white"></path><path fill-rule="evenodd" clip-rule="evenodd" d="M176.003 14.4771V14.5711H171.011V16.0282H175.909V14.4771H176.003H176.097V16.2162H170.823V14.3831H176.097V14.4771H176.003Z" fill="white"></path><path fill-rule="evenodd" clip-rule="evenodd" d="M146.567 8.36663V8.17861C147.274 8.13161 147.886 8.41363 148.357 8.88367C148.781 9.3067 149.064 9.96475 149.064 10.6228C149.064 11.3279 148.781 11.9389 148.357 12.3619C147.886 12.832 147.274 13.114 146.567 13.114C145.908 13.114 145.296 12.832 144.825 12.3619C144.401 11.9389 144.118 11.3278 144.118 10.6228C144.118 9.96475 144.401 9.3067 144.825 8.88367C145.296 8.41363 145.908 8.13161 146.567 8.17861V8.36663V8.60164C146.049 8.60164 145.531 8.83666 145.154 9.21269C144.778 9.54171 144.542 10.0588 144.542 10.6228C144.542 11.1868 144.778 11.7039 145.154 12.0799C145.531 12.4089 146.049 12.6439 146.567 12.6439C147.133 12.6439 147.651 12.4089 148.027 12.0799C148.404 11.7039 148.64 11.1868 148.64 10.6228C148.64 10.0588 148.404 9.54171 148.027 9.21269C147.651 8.83666 147.133 8.60164 146.567 8.60164V8.36663Z" fill="white"></path><path fill-rule="evenodd" clip-rule="evenodd" d="M156.411 7.00352C157.258 7.00352 158.012 7.33255 158.577 7.89659C159.142 8.46064 159.472 9.21269 159.472 10.0588C159.472 10.9048 159.142 11.6569 158.577 12.2209C158.012 12.785 157.258 13.114 156.411 13.114C155.563 13.114 154.809 12.785 154.244 12.2209C153.679 11.6569 153.349 10.9048 153.349 10.0588C153.349 9.21269 153.679 8.46064 154.244 7.89659C154.809 7.33255 155.563 7.00352 156.411 7.00352V7.47356C155.704 7.47356 155.045 7.75558 154.574 8.22562C154.103 8.69565 153.773 9.3537 153.773 10.0588C153.773 10.7638 154.103 11.4219 154.574 11.8919C155.045 12.3619 155.704 12.691 156.411 12.691C157.117 12.691 157.777 12.3619 158.248 11.8919C158.719 11.4219 159.001 10.7638 159.001 10.0588C159.001 9.3537 158.719 8.69565 158.248 8.22562C157.777 7.75558 157.117 7.47356 156.411 7.47356V7.00352Z" fill="white"></path><path fill-rule="evenodd" clip-rule="evenodd" d="M159.001 8.69565H153.773L153.632 9.02468L150.005 9.02467L149.817 8.36662H148.169V7.61457L146.191 8.27262L146.567 8.36663L147.745 8.69565L147.933 8.74265C148.074 8.88366 148.169 8.97767 148.263 9.11868C148.593 9.58872 148.734 10.0117 148.828 10.4348L149.582 10.3408L152.973 10.3878H153.632L156.364 10.3408L157.07 11.0458H159.048C160.084 10.6228 160.414 10.2468 160.555 9.44771C160.697 8.60164 159.613 7.89659 158.907 7.9906L159.001 8.64865V8.69565Z" fill="white"></path><path fill-rule="evenodd" clip-rule="evenodd" d="M159.001 8.69565V8.78966H153.773V8.69565H153.867V8.74265L153.679 9.11868L149.958 9.11868L149.723 8.46063H148.074V7.75558L146.473 8.27262H146.614L147.745 8.60164L147.98 8.64865L148.027 8.69565C148.122 8.83666 148.263 8.93067 148.357 9.07168C148.687 9.54171 148.828 9.96475 148.922 10.3878L148.828 10.4348V10.3408L149.582 10.2468L152.973 10.2938H153.632L156.411 10.2468L157.117 10.9518H159.048C159.519 10.7638 159.849 10.5758 160.084 10.3408C160.179 10.1998 160.273 10.1058 160.32 9.91774C160.414 9.77673 160.414 9.63572 160.461 9.4007C160.461 9.4007 160.461 9.3537 160.461 9.3067C160.461 9.16569 160.414 8.97767 160.32 8.83666C160.226 8.60164 159.99 8.41363 159.755 8.27262C159.519 8.13161 159.237 8.0846 159.001 8.0846C158.954 8.0846 158.954 8.0846 158.907 8.0846L158.907 7.9906H158.954L159.095 8.64865V8.78966H159.001V8.69565L158.907 8.64865H159.001L158.907 8.69565L158.766 7.89659H158.86C158.907 7.89659 158.954 7.89659 159.001 7.89659C159.189 7.89659 159.378 7.94359 159.566 7.9906C159.849 8.13161 160.131 8.27262 160.32 8.50764C160.414 8.60164 160.508 8.74265 160.555 8.88366C160.602 9.02467 160.65 9.16569 160.65 9.3067C160.65 9.3537 160.65 9.4007 160.65 9.44771C160.602 9.68272 160.555 9.82374 160.508 10.0118C160.367 10.2468 160.226 10.4818 159.99 10.6228C159.755 10.8108 159.472 10.9518 159.095 11.1398H157.023L156.317 10.4348L153.632 10.4818H152.973L149.582 10.4348L148.781 10.5288L148.734 10.4348C148.64 10.0117 148.498 9.63572 148.216 9.16569C148.122 9.07168 148.027 8.93067 147.886 8.78966L147.933 8.74265V8.83666L147.698 8.78966L146.567 8.46063L145.861 8.27262L148.263 7.52056V8.27262H149.864L150.1 8.93067L153.585 8.93067L153.679 8.64865L153.726 8.60164H159.001V8.69565Z" fill="white"></path><path fill-rule="evenodd" clip-rule="evenodd" d="M152.313 7.23854H148.734V4.23032H151.324L152.313 7.23854ZM152.973 7.33255L151.701 3.66627L148.263 3.71328V8.64865L153.302 8.64865L154.338 7.33255H152.973Z" fill="white"></path><path fill-rule="evenodd" clip-rule="evenodd" d="M152.313 7.23854V7.33255H148.64V4.18331H151.371L152.455 7.33255H152.313V7.23854L152.266 7.28554L151.23 4.32432H148.828V7.14454H152.313V7.23854ZM152.973 7.33255H152.878L151.654 3.76028L148.357 3.80728V8.55464L153.255 8.55464L154.15 7.42656H152.926L152.878 7.33255H152.973V7.23854H154.527L153.349 8.74266L148.169 8.74266V3.61927L151.748 3.57227L153.067 7.28555L152.973 7.33255Z" fill="white"></path><path fill-rule="evenodd" clip-rule="evenodd" d="M153.02 10.4348L149.44 10.3878C149.346 11.2338 149.346 11.3279 149.111 11.7039L153.491 11.7039C153.302 11.4689 153.067 10.7168 153.02 10.4348Z" fill="white"></path><path fill-rule="evenodd" clip-rule="evenodd" d="M153.02 10.4348V10.5288L149.44 10.4818V10.3878H149.535C149.487 10.8108 149.487 11.0458 149.44 11.2338C149.393 11.3279 149.393 11.4219 149.346 11.4689C149.299 11.5629 149.252 11.6569 149.205 11.7509L149.111 11.7039V11.6099H153.491V11.7039L153.444 11.7509C153.349 11.6569 153.302 11.5629 153.255 11.4689C153.161 11.3279 153.114 11.0928 153.02 10.9048C152.973 10.7168 152.926 10.5288 152.926 10.4348H153.02L153.114 10.3878C153.114 10.4818 153.114 10.5758 153.161 10.6698C153.208 10.8578 153.255 11.0458 153.349 11.2338C153.397 11.3279 153.396 11.4219 153.444 11.4689C153.491 11.5159 153.538 11.6099 153.538 11.6099L153.679 11.7509L148.969 11.7979L149.064 11.6569C149.111 11.5629 149.158 11.4689 149.158 11.4219C149.205 11.2808 149.252 11.1868 149.252 11.0458C149.299 10.9048 149.299 10.6698 149.346 10.3878V10.2938L153.114 10.3408V10.3878L153.02 10.4348Z" fill="white"></path><path fill-rule="evenodd" clip-rule="evenodd" d="M196.114 17.8613V17.9554L188.107 17.9554L188.06 17.9083C187.731 17.6263 187.26 17.2033 186.93 16.6863C186.6 16.1222 186.318 15.4642 186.318 14.7591C186.318 14.7121 186.318 14.7121 186.318 14.7121C186.318 14.0541 186.459 13.49 186.694 12.973C187.071 12.2209 187.683 11.6569 188.202 11.2809C188.484 11.0928 188.767 10.9048 189.002 10.8108C189.238 10.6698 189.426 10.5758 189.614 10.5288L193.005 10.6228L196.208 15.0411V17.9554H196.114V17.8613H196.02V15.0881L192.911 10.8108L189.614 10.7168V10.6228L189.662 10.7168C189.473 10.7638 189.191 10.9048 188.861 11.0928C188.343 11.3749 187.731 11.7979 187.307 12.4089C186.836 13.02 186.459 13.772 186.459 14.7121C186.459 14.7121 186.459 14.7121 186.459 14.7591C186.506 15.4172 186.742 16.0752 187.071 16.5923C187.401 17.1093 187.825 17.4853 188.202 17.8143L188.107 17.8613V17.7673H196.114V17.8613Z" fill="white"></path><path fill-rule="evenodd" clip-rule="evenodd" d="M192.77 9.2597V9.16569H194.56L209.537 2.39718C209.631 2.30317 209.772 2.20917 209.819 2.06816C209.913 1.97415 209.961 1.83314 209.961 1.73913C209.961 1.64512 209.961 1.55112 209.913 1.50411L210.008 1.45711V1.55112C204.45 3.14924 199.081 4.79436 193.571 7.14454L193.524 7.05053L193.618 7.09753L192.864 9.2597H192.77L192.676 9.21269L193.429 7.00353H193.476C199.034 4.60635 204.403 2.96122 209.961 1.3631H210.055V1.41011C210.102 1.50411 210.149 1.59812 210.149 1.73913C210.149 1.88014 210.102 2.06816 210.008 2.20917C209.913 2.35018 209.772 2.44418 209.631 2.53819L194.56 9.35371H192.629L192.676 9.21269L192.77 9.2597Z" fill="white"></path><path fill-rule="evenodd" clip-rule="evenodd" d="M192.958 10.7168L189.614 10.6228C188.861 10.8578 186.365 12.1739 186.365 14.7591C186.412 16.1692 187.448 17.2973 188.107 17.8613H196.114V15.0881L192.958 10.7168Z" fill="white"></path><path fill-rule="evenodd" clip-rule="evenodd" d="M192.958 10.7168V10.8108L189.614 10.7168V10.6228L189.662 10.7168C189.473 10.7638 189.191 10.9048 188.861 11.0928C188.343 11.3749 187.731 11.7979 187.307 12.4089C186.836 13.02 186.459 13.772 186.459 14.7121C186.459 14.7121 186.459 14.7121 186.459 14.7591C186.506 15.4172 186.742 16.0752 187.071 16.5923C187.401 17.1093 187.825 17.4853 188.202 17.8143L188.107 17.8613V17.7673H196.02V15.0881L192.911 10.7638L192.958 10.7168L193.053 10.6698L196.208 15.0411V17.9554L188.107 17.9554L188.06 17.9083C187.731 17.6263 187.26 17.2033 186.93 16.6863C186.6 16.1222 186.318 15.4642 186.318 14.7591C186.318 14.7121 186.318 14.7121 186.318 14.7121C186.318 14.0541 186.459 13.49 186.694 12.973C187.071 12.2209 187.683 11.6569 188.202 11.2809C188.484 11.0928 188.767 10.9048 189.002 10.8108C189.238 10.6698 189.426 10.5758 189.614 10.5288L193.005 10.6228L193.053 10.6698L192.958 10.7168Z" fill="white"></path><path fill-rule="evenodd" clip-rule="evenodd" d="M195.455 14.1481L192.958 10.7168L190.886 10.6698L189.614 10.6228C188.861 10.8578 186.365 12.1739 186.365 14.7591C186.412 16.1692 187.448 17.2973 188.107 17.8613H196.114V15.0881L195.455 14.1481Z" fill="white"></path><path fill-rule="evenodd" clip-rule="evenodd" d="M195.455 14.1481L195.407 14.1951L192.911 10.8108L190.886 10.7638L189.614 10.7168V10.6228L189.662 10.7168C189.473 10.7638 189.191 10.9048 188.861 11.0928C188.343 11.3749 187.731 11.7979 187.307 12.4089C186.836 13.02 186.459 13.772 186.459 14.7121C186.459 14.7121 186.459 14.7121 186.459 14.7591C186.506 15.4172 186.742 16.0752 187.071 16.5923C187.401 17.1093 187.825 17.4853 188.202 17.8143L188.107 17.8613V17.7673H196.02V15.0881L195.407 14.1951L195.455 14.1481L195.549 14.1011L196.208 15.0411V17.9554L188.107 17.9554L188.06 17.9083C187.731 17.6263 187.26 17.2033 186.93 16.6863C186.6 16.1222 186.318 15.4642 186.318 14.7591C186.318 14.7121 186.318 14.7121 186.318 14.7121C186.318 14.0541 186.459 13.49 186.694 12.973C187.071 12.2209 187.683 11.6569 188.202 11.2809C188.484 11.0928 188.767 10.9048 189.002 10.8108C189.238 10.6698 189.426 10.5758 189.614 10.5288L190.886 10.5758L193.005 10.6228L195.549 14.1011L195.455 14.1481Z" fill="white"></path><path fill-rule="evenodd" clip-rule="evenodd" d="M207.794 4.32432C207.888 4.55934 199.175 11.1398 195.455 14.1481L196.114 15.0881L210.243 3.57226L210.903 0.658044C205.439 2.11515 198.94 4.18331 192.864 6.29847C192.205 7.75558 191.545 9.21269 190.886 10.6698L192.958 10.7168L195.455 14.1481L193.618 11.4689C197.951 9.3537 207.606 3.94829 207.794 4.32432ZM194.56 9.25969L192.77 9.2597L193.429 7.33255C199.128 5.3114 202.095 4.37132 209.819 1.73913C210.008 2.11515 209.913 2.25617 209.584 2.44418L194.56 9.25969Z" fill="white"></path><path fill-rule="evenodd" clip-rule="evenodd" d="M207.794 4.32432L207.841 4.27732C207.888 4.27732 207.888 4.32432 207.888 4.32432C207.888 4.37132 207.841 4.37132 207.841 4.37132C207.841 4.41833 207.841 4.41833 207.794 4.46533C207.747 4.51233 207.653 4.60634 207.559 4.70035C207.182 5.02937 206.475 5.64042 205.533 6.39248C202.708 8.64865 197.998 12.2209 195.549 14.2421L195.455 14.1481L195.549 14.1011L196.114 14.9471L210.196 3.52526L210.808 0.658044H210.903V0.752051C205.439 2.20916 198.987 4.27732 192.911 6.34547L192.864 6.29847H192.958C192.299 7.75558 191.64 9.21269 190.98 10.6698L190.886 10.6698V10.5758L193.005 10.6228L195.549 14.1011L195.455 14.1481L195.407 14.1951L193.524 11.4219L193.618 11.3749C195.69 10.3408 199.034 8.55464 201.907 7.05053C203.367 6.25147 204.733 5.54641 205.769 5.02937C206.287 4.79436 206.711 4.60634 207.041 4.41833C207.229 4.37132 207.37 4.32432 207.464 4.27732C207.511 4.23031 207.559 4.23031 207.606 4.23031C207.653 4.23031 207.7 4.23031 207.747 4.23031H207.841V4.27732L207.794 4.32432L207.7 4.37132L207.747 4.32432V4.37132C207.747 4.37132 207.747 4.37132 207.7 4.37132L207.747 4.32432V4.37132C207.7 4.37132 207.7 4.37132 207.653 4.41833C207.606 4.41833 207.464 4.46533 207.37 4.51234C206.852 4.70035 206.004 5.12338 204.921 5.68742C201.671 7.33255 196.538 10.1528 193.665 11.5159L193.618 11.4689L193.712 11.4219L195.549 14.1011L195.407 14.1951L192.911 10.8108L190.745 10.7638L190.792 10.6228C191.451 9.16569 192.111 7.70858 192.77 6.25147L192.817 6.20446C198.94 4.0893 205.392 2.06815 210.855 0.564037L210.997 0.517033L210.337 3.66627L196.114 15.1821L195.36 14.1481L195.407 14.1011C197.244 12.5969 200.353 10.1998 202.943 8.17861C204.262 7.14453 205.439 6.20446 206.334 5.49941C206.758 5.17038 207.088 4.84136 207.323 4.65335C207.464 4.55934 207.559 4.46533 207.606 4.37132C207.653 4.37132 207.653 4.32432 207.7 4.32432V4.27732L207.747 4.32432H207.7C207.7 4.32432 207.7 4.32432 207.7 4.27732L207.747 4.32432L207.7 4.37132C207.7 4.32432 207.7 4.32432 207.7 4.32432H207.747L207.7 4.37132L207.794 4.32432ZM194.56 9.25969V9.35371H192.629L193.335 7.28554H193.382C199.128 5.21739 202.048 4.27732 209.819 1.64512L209.866 1.59811L209.913 1.69212C209.961 1.83313 210.008 1.92714 210.008 2.06815C210.008 2.11515 210.008 2.16216 209.961 2.20916C209.961 2.25616 209.913 2.30317 209.866 2.39718C209.772 2.44418 209.725 2.49119 209.631 2.53819L194.56 9.35371V9.25969L194.513 9.16569L209.537 2.39718C209.631 2.30317 209.725 2.25616 209.772 2.20916C209.772 2.16216 209.819 2.16216 209.819 2.11515V2.06816C209.819 1.97415 209.819 1.88014 209.772 1.73913H209.819L209.866 1.83313C202.095 4.46533 199.175 5.4054 193.429 7.42655V7.33255L193.524 7.37955L192.911 9.16569L194.56 9.16569V9.25969Z" fill="white"></path><path fill-rule="evenodd" clip-rule="evenodd" d="M195.455 14.1481L192.958 10.7168L190.886 10.6698L189.614 10.6228C188.861 10.8578 186.365 12.1739 186.365 14.7591C186.412 16.1692 187.448 17.2973 188.107 17.8613H196.114V15.0881L195.455 14.1481Z" fill="white"></path><path fill-rule="evenodd" clip-rule="evenodd" d="M195.455 14.1481L195.407 14.1951L192.911 10.8108L190.886 10.7638L189.614 10.7168V10.6228L189.662 10.7168C189.473 10.7638 189.191 10.9048 188.861 11.0928C188.343 11.3749 187.731 11.7979 187.307 12.4089C186.836 13.02 186.459 13.772 186.459 14.7121C186.459 14.7121 186.459 14.7121 186.459 14.7591C186.506 15.4172 186.742 16.0752 187.071 16.5923C187.401 17.1093 187.825 17.4853 188.202 17.8143L188.107 17.8613V17.7673H196.02V15.0881L195.407 14.2421V14.1951L195.455 14.1481L195.549 14.1011L196.208 15.0411V17.9554L188.107 17.9554L188.06 17.9083C187.731 17.6263 187.26 17.2033 186.93 16.6863C186.6 16.1222 186.318 15.4642 186.318 14.7591C186.318 14.7121 186.318 14.7121 186.318 14.7121C186.318 14.0541 186.459 13.49 186.694 12.973C187.071 12.2209 187.683 11.6569 188.202 11.2809C188.484 11.0928 188.767 10.9048 189.002 10.8108C189.238 10.6698 189.426 10.5758 189.614 10.5288L190.886 10.5758L193.005 10.6228L195.549 14.1011L195.455 14.1481Z" fill="white"></path><path fill-rule="evenodd" clip-rule="evenodd" d="M212.457 1.3161C212.268 1.3161 212.127 1.3631 211.986 1.41011C211.75 1.50411 211.562 1.64512 211.421 1.83314C211.279 2.02115 211.232 2.25617 211.232 2.53819C211.232 2.6792 211.279 2.86722 211.326 3.00823C211.421 3.19624 211.562 3.38426 211.75 3.52527C211.939 3.66628 212.174 3.71328 212.457 3.71328C212.598 3.71328 212.786 3.71328 212.928 3.61927C213.116 3.52527 213.304 3.38426 213.446 3.19624C213.587 3.00823 213.634 2.77321 213.634 2.53819C213.634 2.35018 213.634 2.20917 213.54 2.06816C213.446 1.83314 213.304 1.64512 213.116 1.50411C212.928 1.41011 212.692 1.3161 212.457 1.3161V0C212.786 1.43821e-08 213.116 0.0470036 213.446 0.188014C213.87 0.376028 214.294 0.705053 214.529 1.08108C214.812 1.50411 215 2.02115 215 2.53819C215 2.86722 214.906 3.19624 214.765 3.52527C214.576 3.9953 214.294 4.37133 213.87 4.65335C213.446 4.88837 212.975 5.07638 212.457 5.07638C212.08 5.07638 211.75 4.98238 211.421 4.88837C210.997 4.70036 210.62 4.37133 210.337 3.9483C210.055 3.52527 209.866 3.05523 209.866 2.53819C209.866 2.16216 209.961 1.83314 210.102 1.55112C210.29 1.08108 210.62 0.705053 210.997 0.423032C211.421 0.141011 211.892 -2.46551e-08 212.457 0V1.3161Z" fill="white"></path><path fill-rule="evenodd" clip-rule="evenodd" d="M211.656 4.65334V4.46533H213.917V14.6181C213.917 14.9471 213.775 15.2291 213.54 15.4642C213.304 15.6992 213.022 15.8402 212.692 15.8402C212.315 15.8402 212.033 15.6992 211.797 15.4642C211.562 15.2291 211.468 14.9471 211.468 14.6181V4.46533H211.656V4.65334H211.892V14.6181C211.892 14.8061 211.986 14.9941 212.127 15.1351C212.268 15.2761 212.457 15.3702 212.692 15.3702C212.881 15.3702 213.069 15.2761 213.21 15.1351C213.352 14.9941 213.446 14.8061 213.446 14.6181V4.88836H211.656V4.65334Z" fill="white"></path><path fill-rule="evenodd" clip-rule="evenodd" d="M212.692 13.349C213.022 13.349 213.304 13.49 213.54 13.725C213.728 13.9601 213.87 14.2421 213.87 14.5711C213.87 14.9001 213.728 15.2291 213.54 15.4172C213.304 15.6522 213.022 15.7932 212.692 15.7932C212.363 15.7932 212.033 15.6522 211.797 15.4172C211.609 15.2291 211.468 14.9001 211.468 14.5711C211.468 14.2421 211.609 13.9601 211.797 13.725C212.033 13.49 212.363 13.349 212.692 13.349V13.819C212.457 13.819 212.268 13.9131 212.127 14.0541C211.986 14.1951 211.892 14.3831 211.892 14.5711C211.892 14.8061 211.986 14.9941 212.127 15.1351C212.268 15.2761 212.457 15.3232 212.692 15.3232C212.881 15.3232 213.069 15.2761 213.21 15.1351C213.352 14.9941 213.446 14.8061 213.446 14.5711C213.446 14.3831 213.352 14.1951 213.21 14.0541C213.069 13.9131 212.881 13.819 212.692 13.819V13.349Z" fill="white"></path><path fill-rule="evenodd" clip-rule="evenodd" d="M212.928 4.65334V13.631H212.41V4.65334H212.928Z" fill="white"></path><path fill-rule="evenodd" clip-rule="evenodd" d="M70.8346 15.9342V15.8402L82.3735 15.8402V10.9988C82.3735 10.9048 82.3264 10.8578 82.3264 10.7638C82.2793 10.6698 82.1851 10.5758 82.0909 10.5288C81.9967 10.4348 81.8554 10.3878 81.7612 10.3878H80.3954V5.73442C80.3954 5.59341 80.3012 5.4054 80.1599 5.21739C79.9715 5.07638 79.736 4.98237 79.4535 4.98237C79.1238 4.98237 78.747 4.98237 78.4173 4.98237C77.7109 4.98237 77.0044 4.98237 76.2979 4.98237V4.88836L76.3921 4.93536L70.9288 15.9812L70.8346 15.9342L70.7875 15.8872L76.2508 4.79435H76.2979C77.0044 4.79435 77.7109 4.79435 78.4173 4.79435C78.747 4.79435 79.1238 4.79435 79.4535 4.79435C79.7831 4.79435 80.0657 4.93536 80.2541 5.12338C80.4425 5.26439 80.5838 5.49941 80.5838 5.73442V10.1998H81.7612C81.8554 10.1998 81.9496 10.2468 82.0438 10.2938C82.1851 10.3408 82.3264 10.4348 82.3735 10.5758C82.4677 10.6698 82.5148 10.8108 82.5148 10.9988V16.0282L70.6933 16.0282L70.7875 15.8872L70.8346 15.9342Z" fill="white"></path><path fill-rule="evenodd" clip-rule="evenodd" d="M76.7689 6.20445V6.11045L79.4064 6.11045V12.1739H73.6605L76.7218 6.11045H76.7689V6.20445L76.8631 6.25146L73.943 11.9859H79.218V6.29846L76.7689 6.29846V6.20445Z" fill="white"></path><path fill-rule="evenodd" clip-rule="evenodd" d="M79.3122 12.0799L73.9902 12.0799L76.7689 6.20445H79.3122V12.0799ZM80.4896 10.2938V5.73442C80.4896 5.35839 80.0657 4.88835 79.4535 4.88835C78.4173 4.88835 77.3812 4.88836 76.2979 4.88836L70.8346 15.9342L82.4677 15.9342V10.9988C82.4677 10.6698 82.0909 10.2938 81.7612 10.2938H80.4896Z" fill="white"></path><path fill-rule="evenodd" clip-rule="evenodd" d="M79.3122 12.0799V12.1739H73.8489L76.7218 6.11045L79.4064 6.11045V12.1739H79.3122V12.0799L79.218 12.0799L79.218 6.29846L76.816 6.29846L74.1314 11.9859H79.3122V12.0799ZM80.4896 10.2938L80.3954 10.2938V5.73442C80.3954 5.59341 80.3012 5.4054 80.1599 5.21739C79.9715 5.07638 79.736 4.98237 79.4535 4.98237C79.1238 4.98237 78.747 4.98237 78.4173 4.98237C77.7109 4.98237 77.0044 4.98237 76.2979 4.98237V4.88836L76.3921 4.93536L70.9759 15.8402L82.3735 15.8402V10.9988C82.3735 10.9048 82.3264 10.8578 82.3264 10.7638C82.2793 10.6698 82.1851 10.5758 82.0909 10.5288C81.9967 10.4348 81.8554 10.3878 81.7612 10.3878H80.3954V10.2938L80.4896 10.2938V10.1998L81.7612 10.1998C81.8554 10.1998 81.9496 10.2468 82.0438 10.2938C82.1851 10.3408 82.3264 10.4348 82.3735 10.5758C82.4677 10.6698 82.5148 10.8108 82.5148 10.9988V16.0282L70.6933 16.0282L76.2508 4.79435H76.2979C77.0044 4.79435 77.7109 4.79435 78.4173 4.79435C78.747 4.79435 79.1238 4.79435 79.4535 4.79435C79.7831 4.79435 80.0657 4.93536 80.2541 5.12338C80.4425 5.26439 80.5838 5.49941 80.5838 5.73442L80.5838 10.2938L80.4896 10.2938Z" fill="white"></path><path fill-rule="evenodd" clip-rule="evenodd" d="M71.3056 5.78142V15.9342H70.5992V5.78142H71.3056Z" fill="white"></path><path fill-rule="evenodd" clip-rule="evenodd" d="M70.6462 5.82842V5.73442H71.3998V16.0282H70.552V5.73442H70.6462V5.82842H70.7404V15.8402H71.2114V5.92243H70.6462V5.82842Z" fill="white"></path><path fill-rule="evenodd" clip-rule="evenodd" d="M70.2695 6.43948V10.4348H64.4765V6.43948H70.2695Z" fill="white"></path><path fill-rule="evenodd" clip-rule="evenodd" d="M70.2695 6.43948L70.2695 6.53348H64.6178V10.2938H70.1753V6.43948H70.2695H70.3637V10.4818H64.4294V6.39247L70.3637 6.39247V6.43948H70.2695Z" fill="white"></path><path fill-rule="evenodd" clip-rule="evenodd" d="M64.3823 6.25146L70.4579 10.4348L70.3637 10.5758L64.2881 6.43948L64.3823 6.25146Z" fill="white"></path><path fill-rule="evenodd" clip-rule="evenodd" d="M70.4579 6.43948L64.3823 10.5758L64.2881 10.4348L70.3637 6.25146L70.4579 6.43948Z" fill="white"></path><path fill-rule="evenodd" clip-rule="evenodd" d="M70.2695 10.8108V14.7591H64.4765V10.8108H70.2695Z" fill="white"></path><path fill-rule="evenodd" clip-rule="evenodd" d="M70.2695 10.8108L70.2695 10.9048H64.6178V14.6651H70.1753V10.8108L70.2695 10.8108L70.3637 10.8108V14.8531H64.4294V10.7168H70.3637V10.8108L70.2695 10.8108Z" fill="white"></path><path fill-rule="evenodd" clip-rule="evenodd" d="M64.3823 10.6228L70.4578 14.8061L70.3636 14.9471L64.2881 10.7638L64.3823 10.6228Z" fill="white"></path><path fill-rule="evenodd" clip-rule="evenodd" d="M70.4578 10.7638L64.3823 14.9471L64.2881 14.8061L70.3636 10.6228L70.4578 10.7638Z" fill="white"></path><path fill-rule="evenodd" clip-rule="evenodd" d="M81.1019 15.9342C81.1019 15.6052 80.8193 15.3231 80.4896 15.3231C80.1128 15.3231 79.8303 15.6052 79.8303 15.9342C79.8303 16.2632 80.1128 16.5452 80.4896 16.5452C80.8193 16.5452 81.1019 16.2632 81.1019 15.9342Z" fill="white"></path><path fill-rule="evenodd" clip-rule="evenodd" d="M81.1019 15.9342H81.0077C81.0077 15.7932 80.9606 15.6522 80.8664 15.5582C80.7722 15.4642 80.6309 15.4172 80.4896 15.4172C80.3012 15.4172 80.207 15.4642 80.1128 15.5582C79.9715 15.6522 79.9244 15.7932 79.9244 15.9342C79.9244 16.0752 79.9715 16.2162 80.1128 16.3102C80.207 16.4042 80.3012 16.4512 80.4896 16.4512C80.6309 16.4512 80.7722 16.4042 80.8664 16.3102C80.9606 16.2162 81.0077 16.0752 81.0077 15.9342H81.1019H81.1961C81.1961 16.3102 80.8664 16.6392 80.4896 16.6392C80.0657 16.6392 79.7361 16.3102 79.7361 15.9342C79.7361 15.5582 80.0657 15.2291 80.4896 15.2291C80.8664 15.2291 81.1961 15.5582 81.1961 15.9342H81.1019Z" fill="white"></path><path fill-rule="evenodd" clip-rule="evenodd" d="M82.3264 15.9342C82.3264 14.9001 81.4787 14.1011 80.4896 14.1011C79.4535 14.1011 78.6057 14.9001 78.6057 15.9342C78.6057 16.9683 79.4535 17.7673 80.4896 17.7673C81.4787 17.7673 82.3264 16.9683 82.3264 15.9342ZM80.4896 15.3231C80.8193 15.3231 81.1019 15.6052 81.1019 15.9342C81.1019 16.2632 80.8193 16.5452 80.4896 16.5452C80.1128 16.5452 79.8303 16.2632 79.8303 15.9342C79.8303 15.6052 80.1128 15.3231 80.4896 15.3231Z" fill="white"></path><path fill-rule="evenodd" clip-rule="evenodd" d="M82.3264 15.9342H82.2322C82.2322 15.4642 82.0438 14.9941 81.7141 14.7121C81.3845 14.3831 80.9606 14.1951 80.4896 14.1951C79.9715 14.1951 79.5477 14.3831 79.218 14.7121C78.8883 14.9941 78.6999 15.4642 78.6999 15.9342C78.6999 16.4042 78.8883 16.8743 79.218 17.1563C79.5477 17.4853 79.9715 17.6733 80.4896 17.6733C80.9606 17.6733 81.3845 17.4853 81.7141 17.1563C82.0438 16.8743 82.2322 16.4042 82.2322 15.9342H82.3264H82.4206C82.4206 17.0153 81.5257 17.8613 80.4896 17.8613C79.4064 17.8613 78.5115 17.0153 78.5115 15.9342C78.5115 14.8531 79.4064 14.007 80.4896 14.007C81.5257 14.007 82.4206 14.8531 82.4206 15.9342H82.3264ZM80.4896 15.3231V15.2291C80.8664 15.2291 81.1961 15.5582 81.1961 15.9342C81.1961 16.3102 80.8664 16.6392 80.4896 16.6392C80.0657 16.6392 79.7361 16.3102 79.7361 15.9342C79.7361 15.5582 80.0657 15.2291 80.4896 15.2291V15.3231V15.4172C80.3012 15.4172 80.207 15.4642 80.1128 15.5582C79.9715 15.6522 79.9244 15.7932 79.9244 15.9342C79.9244 16.0752 79.9715 16.2162 80.1128 16.3102C80.207 16.4042 80.3012 16.4512 80.4896 16.4512C80.6309 16.4512 80.7722 16.4042 80.8664 16.3102C80.9606 16.2162 81.0077 16.0752 81.0077 15.9342C81.0077 15.7932 80.9606 15.6522 80.8664 15.5582C80.7722 15.4642 80.6309 15.4172 80.4896 15.4172V15.3231Z" fill="white"></path><path fill-rule="evenodd" clip-rule="evenodd" d="M72.8127 15.9342C72.8127 15.6052 72.5301 15.3231 72.1534 15.3231C71.8237 15.3231 71.5411 15.6052 71.5411 15.9342C71.5411 16.2632 71.8237 16.5452 72.1534 16.5452C72.5301 16.5452 72.8127 16.2632 72.8127 15.9342Z" fill="white"></path><path fill-rule="evenodd" clip-rule="evenodd" d="M72.8127 15.9342H72.7185C72.7185 15.7932 72.6714 15.6522 72.5772 15.5582C72.4359 15.4642 72.3417 15.4172 72.1534 15.4172C72.0121 15.4172 71.8708 15.4642 71.7766 15.5582C71.6824 15.6522 71.6353 15.7932 71.6353 15.9342C71.6353 16.0752 71.6824 16.2162 71.7766 16.3102C71.8708 16.4042 72.0121 16.4512 72.1534 16.4512C72.3417 16.4512 72.4359 16.4042 72.5772 16.3102C72.6714 16.2162 72.7185 16.0752 72.7185 15.9342H72.8127H72.9069C72.9069 16.3102 72.5772 16.6392 72.1534 16.6392C71.7766 16.6392 71.4469 16.3102 71.4469 15.9342C71.4469 15.5582 71.7766 15.2291 72.1534 15.2291C72.5772 15.2291 72.9069 15.5582 72.9069 15.9342H72.8127Z" fill="white"></path><path fill-rule="evenodd" clip-rule="evenodd" d="M74.0373 15.9342C74.0373 14.9001 73.1895 14.1011 72.1534 14.1011C71.1643 14.1011 70.3166 14.9001 70.3166 15.9342C70.3166 16.9683 71.1643 17.7673 72.1534 17.7673C73.1895 17.7673 74.0373 16.9683 74.0373 15.9342ZM72.1534 15.3231C72.5301 15.3231 72.8127 15.6052 72.8127 15.9342C72.8127 16.2632 72.5301 16.5452 72.1534 16.5452C71.8237 16.5452 71.5411 16.2632 71.5411 15.9342C71.5411 15.6052 71.8237 15.3231 72.1534 15.3231Z" fill="white"></path><path fill-rule="evenodd" clip-rule="evenodd" d="M74.0373 15.9342H73.9431C73.9431 15.4642 73.7547 14.9941 73.425 14.7121C73.0953 14.3831 72.6714 14.1951 72.1534 14.1951C71.6824 14.1951 71.2585 14.3831 70.9288 14.7121C70.5991 14.9941 70.4108 15.4642 70.4108 15.9342C70.4108 16.4042 70.5991 16.8743 70.9288 17.1563C71.2585 17.4853 71.6824 17.6733 72.1534 17.6733C72.6714 17.6733 73.0953 17.4853 73.425 17.1563C73.7547 16.8743 73.9431 16.4042 73.9431 15.9342H74.0373H74.1315C74.1315 17.0153 73.2366 17.8613 72.1534 17.8613C71.1172 17.8613 70.2224 17.0153 70.2224 15.9342C70.2224 14.8531 71.1172 14.007 72.1534 14.007C73.2366 14.007 74.1315 14.8531 74.1315 15.9342H74.0373ZM72.1534 15.3231V15.2291C72.5772 15.2291 72.9069 15.5582 72.9069 15.9342C72.9069 16.3102 72.5772 16.6392 72.1534 16.6392C71.7766 16.6392 71.4469 16.3102 71.4469 15.9342C71.4469 15.5582 71.7766 15.2291 72.1534 15.2291V15.3231V15.4172C72.0121 15.4172 71.8708 15.4642 71.7766 15.5582C71.6824 15.6522 71.6353 15.7932 71.6353 15.9342C71.6353 16.0752 71.6824 16.2162 71.7766 16.3102C71.8708 16.4042 72.0121 16.4512 72.1534 16.4512C72.3417 16.4512 72.4359 16.4042 72.5772 16.3102C72.6714 16.2162 72.7185 16.0752 72.7185 15.9342C72.7185 15.7932 72.6714 15.6522 72.5772 15.5582C72.4359 15.4642 72.3417 15.4172 72.1534 15.4172V15.3231Z" fill="white"></path><path fill-rule="evenodd" clip-rule="evenodd" d="M28.965 6.43947L3.06136 6.43947L3.06136 18.0493L28.965 18.0494V6.43947ZM3.72073 7.56756L28.3056 7.56756V16.9213L3.72073 16.9213L3.72073 7.56756Z" fill="white"></path><path fill-rule="evenodd" clip-rule="evenodd" d="M5.18075 7.14452L5.18075 16.9213H4.42719L4.42719 7.14452H5.18075ZM6.59369 7.14452L6.59369 16.9213H5.84013L5.84013 7.14452H6.59369ZM8.0066 7.14452V16.9213L7.25305 16.9213V7.14452H8.0066ZM9.41952 7.14452L9.41952 16.9213H8.66596V7.14452H9.41952ZM10.7854 7.14452L10.7854 16.9213H10.0789L10.0789 7.14452H10.7854ZM12.1983 7.14452V16.9213H11.4447L11.4447 7.14452H12.1983ZM13.6112 7.14452L13.6112 16.9213H12.8576V7.14452H13.6112ZM15.0241 7.14452V16.9213H14.2705L14.2706 7.14452H15.0241ZM16.4371 7.14452V16.9213H15.6835V7.14452H16.4371ZM17.8029 7.14452V16.9213H17.0493V7.14452H17.8029ZM19.2158 7.14452V16.9213H18.4622V7.14452H19.2158ZM20.6287 7.14452V16.9213H19.8752V7.14452H20.6287ZM22.0417 7.14452V16.9213H21.2881V7.14452H22.0417ZM23.4075 7.14452V16.9213H22.701V7.14452H23.4075ZM24.8204 7.14452V16.9213H24.0668V7.14452H24.8204ZM26.2333 7.14452V16.9213H25.4798V7.14452H26.2333ZM27.6462 7.14452V16.9213H26.8927V7.14452H27.6462Z" fill="white"></path><path fill-rule="evenodd" clip-rule="evenodd" d="M56.3286 6.43948L30.4721 6.43947V17.9083L56.3286 17.9083V6.43948ZM31.0844 7.61456L55.7163 7.61456V16.7803L31.0844 16.7803V7.61456Z" fill="white"></path><path fill-rule="evenodd" clip-rule="evenodd" d="M32.5915 7.05052V17.3443H31.8379V7.05052H32.5915ZM34.0044 7.05052V17.3443H33.2509V7.05052H34.0044ZM35.3702 7.05052V17.3443L34.6638 17.3443V7.05052H35.3702ZM36.7832 7.05052V17.3443H36.0296V7.05052H36.7832ZM38.1961 7.05052V17.3443H37.4425V7.05052H38.1961ZM39.609 7.05052V17.3443H38.8554V7.05052H39.609ZM41.0219 7.05052V17.3443H40.2684V7.05052H41.0219ZM42.3877 7.05052V17.3443H41.6342V7.05052H42.3877ZM43.8007 7.05052V17.3443H43.0471V7.05052H43.8007ZM45.2136 7.05052V17.3443H44.46V7.05052H45.2136ZM46.6265 7.05052V17.3443H45.873V7.05052H46.6265ZM47.9924 7.05052V17.3443H47.2859V7.05052H47.9924ZM49.4053 7.05052V17.3443H48.6517V7.05052H49.4053ZM50.8182 7.05052V17.3443H50.0647V7.05052H50.8182ZM52.2311 7.05052V17.3443H51.4776V7.05052H52.2311ZM53.644 7.05052V17.3443H52.8905V7.05052H53.644ZM55.0099 7.05052V17.3443H54.2563V7.05052H55.0099Z" fill="white"></path><path fill-rule="evenodd" clip-rule="evenodd" d="M12.2453 31.7274C12.057 33.2785 11.4918 34.4536 10.5027 35.2996C9.56079 36.1457 8.24205 36.5687 6.64073 36.5687C4.89813 36.5687 3.48521 35.9577 2.44906 34.7356C1.41292 33.4665 0.894836 31.7744 0.894836 29.7062L0.894836 28.2961C0.894837 26.886 1.13034 25.7109 1.60132 24.6768C2.11939 23.5958 2.77874 22.7967 3.67359 22.2797C4.61554 21.7156 5.6517 21.4336 6.82914 21.4336C8.38336 21.4336 9.65498 21.8566 10.5969 22.7497C11.5389 23.5958 12.1041 24.8179 12.2453 26.369L10.3143 26.369C10.126 25.1939 9.74918 24.3478 9.18401 23.8308C8.61884 23.2667 7.81819 23.0317 6.82914 23.0317C5.55751 23.0317 4.61556 23.4547 3.9091 24.3948C3.20263 25.3349 2.82585 26.604 2.82585 28.2961V29.7532C2.82585 31.3513 3.15552 32.6204 3.81488 33.5605C4.52134 34.5006 5.4633 34.9706 6.64073 34.9706C7.72398 34.9706 8.57172 34.7356 9.13689 34.2656C9.70206 33.7485 10.126 32.9025 10.3143 31.7274H12.2453Z" fill="white"></path><path fill-rule="evenodd" clip-rule="evenodd" d="M24.8204 23.2197L20.0635 23.2197V36.3807H18.1325V23.2197L13.4228 23.2197V21.6216L24.8204 21.6216V23.2197Z" fill="white"></path><path fill-rule="evenodd" clip-rule="evenodd" d="M32.0734 30.1763L35.5115 21.6216L37.7722 21.6216L32.5444 33.9365C32.1676 34.6886 31.8379 35.2526 31.5553 35.5817C31.2256 35.9107 30.896 36.1457 30.4721 36.3337C30.0482 36.5217 29.5301 36.5687 28.9179 36.5687C28.3998 36.5687 28.0701 36.5687 27.9288 36.4747L27.9759 34.9706H28.9179C29.6243 34.9706 30.1424 34.6416 30.4721 33.9835L30.7547 33.4665L31.1314 32.5264L26.092 21.6216L28.2585 21.6216L32.0734 30.1763Z" fill="white"></path><path fill-rule="evenodd" clip-rule="evenodd" d="M52.5608 40H50.6298V36.3807H39.9858V40H38.0548V34.7826H39.2322C39.8916 34.0776 40.4096 33.0905 40.7864 31.9154C41.1632 30.6933 41.3987 29.3772 41.4929 27.9201L41.8226 21.6216L50.6298 21.6216V34.7826H52.5608V40ZM41.4929 34.7826H48.6988V23.2197L43.6594 23.2197L43.471 27.5441C43.3768 29.2362 43.1413 30.6933 42.8116 31.9154C42.4348 33.0905 42.0109 34.0305 41.4929 34.7826Z" fill="white"></path><path fill-rule="evenodd" clip-rule="evenodd" d="M64.1939 21.6216L66.172 21.6216V36.3807H64.1939V25.0059L56.9408 36.3807H54.9628V21.6216L56.9408 21.6216V32.9965L64.1939 21.6216Z" fill="white"></path><path fill-rule="evenodd" clip-rule="evenodd" d="M77.4282 36.3807V30.6463H74.0372L70.9759 36.3807H68.9036L72.3417 30.0822C70.4107 29.3302 69.4688 28.0141 69.4688 26.0869C69.4688 24.6768 69.9397 23.5958 70.8346 22.7967C71.7765 21.9976 73.0482 21.6216 74.6966 21.6216L79.4063 21.6216V36.3807H77.4282ZM71.3998 26.0869C71.3998 26.98 71.6823 27.6851 72.2475 28.2021C72.8127 28.7661 73.5662 29.0482 74.6024 29.0482H77.4282V23.2197L74.6495 23.2197C73.6133 23.2197 72.8127 23.4547 72.2475 23.9718C71.6823 24.4888 71.3998 25.1939 71.3998 26.0869Z" fill="white"></path><path fill-rule="evenodd" clip-rule="evenodd" d="M104.509 36.3807H102.578V23.2197L95.2782 23.2197V36.3807H93.3472V21.6216L104.509 21.6216V36.3807Z" fill="white"></path><path fill-rule="evenodd" clip-rule="evenodd" d="M116.425 29.5652H110.02L110.02 34.7826H117.461V36.3807H108.042V21.6216L117.367 21.6216V23.2197L110.02 23.2197V27.9671H116.425V29.5652Z" fill="white"></path><path fill-rule="evenodd" clip-rule="evenodd" d="M121.841 30.5993V36.3807H119.863V21.6216L125.326 21.6216C126.928 21.6216 128.199 22.0446 129.141 22.8437C130.036 23.6898 130.507 24.7709 130.507 26.134C130.507 27.5911 130.036 28.6721 129.141 29.4712C128.246 30.2233 126.975 30.5993 125.326 30.5993H121.841ZM121.841 29.0012H125.326C126.363 29.0012 127.163 28.7662 127.728 28.2961C128.294 27.7791 128.576 27.074 128.576 26.134C128.576 25.2879 128.294 24.5828 127.728 24.0658C127.163 23.5018 126.41 23.2667 125.421 23.2197L121.841 23.2197V29.0012Z" fill="white"></path><path fill-rule="evenodd" clip-rule="evenodd" d="M141.34 29.5652H134.934V34.7826H142.376V36.3807H133.003L133.003 21.6216L142.281 21.6216V23.2197L134.934 23.2197V27.9671L141.34 27.9671V29.5652Z" fill="white"></path><path fill-rule="evenodd" clip-rule="evenodd" d="M144.825 36.3807V21.6216L149.629 21.6216C151.23 21.6216 152.455 21.9506 153.255 22.6087C154.056 23.2667 154.48 24.2538 154.48 25.5699C154.48 26.275 154.291 26.886 153.867 27.4031C153.491 27.9201 152.973 28.3431 152.266 28.6251C153.067 28.8602 153.726 29.2832 154.15 29.8942C154.621 30.5053 154.856 31.2573 154.856 32.1504C154.856 33.4665 154.433 34.5006 153.585 35.2526C152.737 36.0047 151.513 36.3807 149.911 36.3807H144.825ZM146.756 29.5182V34.7826H149.958C150.9 34.7826 151.607 34.5476 152.125 34.0776C152.643 33.6075 152.925 32.9965 152.925 32.1504C152.925 30.4113 151.936 29.5182 150.005 29.5182L146.756 29.5182ZM146.756 27.9201L149.676 27.9201C150.571 27.9201 151.23 27.6851 151.748 27.262C152.266 26.839 152.502 26.275 152.502 25.5229C152.502 24.7238 152.266 24.1598 151.795 23.7838C151.324 23.4077 150.618 23.2197 149.629 23.2197H146.756V27.9201Z" fill="white"></path><path fill-rule="evenodd" clip-rule="evenodd" d="M169.127 29.4712C169.127 30.9283 168.892 32.1974 168.373 33.2785C167.902 34.3596 167.196 35.1586 166.301 35.7227C165.406 36.2867 164.37 36.5687 163.193 36.5687C162.015 36.5687 160.979 36.2867 160.084 35.7227C159.189 35.1586 158.483 34.3596 158.012 33.2785C157.494 32.2444 157.258 31.0223 157.211 29.6122V28.5311C157.211 27.121 157.494 25.8519 157.965 24.7709C158.483 23.6898 159.142 22.8437 160.084 22.2797C160.979 21.7156 162.015 21.4336 163.146 21.4336C164.37 21.4336 165.406 21.7156 166.301 22.2797C167.196 22.8437 167.902 23.6898 168.373 24.7709C168.892 25.8519 169.127 27.121 169.127 28.5311V29.4712ZM167.196 28.5311C167.196 26.792 166.819 25.4289 166.113 24.4888C165.406 23.5488 164.417 23.0787 163.146 23.0787C161.921 23.0787 160.979 23.5488 160.273 24.4888C159.566 25.4289 159.189 26.745 159.142 28.3901V29.4712C159.142 31.1633 159.519 32.5264 160.226 33.4665C160.932 34.4536 161.921 34.9236 163.193 34.9236C164.464 34.9236 165.406 34.4536 166.113 33.5605C166.819 32.6204 167.149 31.3514 167.196 29.6122V28.5311Z" fill="white"></path><path fill-rule="evenodd" clip-rule="evenodd" d="M179.63 25.5699C179.63 24.8179 179.347 24.1598 178.782 23.6898C178.17 23.2667 177.369 23.0317 176.333 23.0317C175.485 23.0317 174.779 23.2667 174.166 23.7368C173.601 24.2068 173.319 24.8179 173.319 25.5229L171.341 25.5229C171.341 24.7239 171.576 24.0188 172 23.4078C172.424 22.7967 173.036 22.2797 173.79 21.9506C174.543 21.5746 175.438 21.4336 176.333 21.4336C177.981 21.4336 179.3 21.8096 180.195 22.5147C181.09 23.2667 181.561 24.3008 181.561 25.6169C181.561 26.322 181.372 26.933 180.948 27.4971C180.525 28.0611 179.912 28.4841 179.159 28.8132C180.901 29.3772 181.796 30.5523 181.796 32.2444C181.796 33.6075 181.278 34.6416 180.289 35.4407C179.3 36.1927 177.981 36.5687 176.333 36.5687C175.344 36.5687 174.496 36.4277 173.695 36.0517C172.895 35.7227 172.235 35.2056 171.812 34.5946C171.341 33.9365 171.152 33.1845 171.152 32.2914H173.083C173.083 33.0435 173.366 33.7015 174.025 34.2186C174.637 34.7356 175.391 34.9706 176.333 34.9706C177.416 34.9706 178.264 34.7356 178.876 34.2656C179.536 33.7485 179.818 33.0905 179.818 32.2914C179.818 30.5523 178.782 29.7062 176.616 29.6592H174.779V28.0611H176.616C177.605 28.0611 178.358 27.8261 178.876 27.4031C179.347 26.98 179.63 26.369 179.63 25.5699Z" fill="white"></path><path fill-rule="evenodd" clip-rule="evenodd" d="M195.737 29.4712C195.737 30.9283 195.502 32.1974 195.031 33.2785C194.513 34.3596 193.853 35.1586 192.958 35.7227C192.063 36.2867 191.027 36.5687 189.803 36.5687C188.625 36.5687 187.636 36.2867 186.741 35.7227C185.8 35.1586 185.14 34.3596 184.622 33.2785C184.104 32.2444 183.869 31.0223 183.869 29.6122V28.5311C183.869 27.121 184.104 25.8519 184.575 24.7709C185.093 23.6898 185.8 22.8437 186.694 22.2797C187.589 21.7156 188.625 21.4336 189.803 21.4336C190.98 21.4336 192.016 21.7156 192.911 22.2797C193.806 22.8437 194.513 23.6898 195.031 24.7709C195.502 25.8519 195.737 27.121 195.737 28.5311V29.4712ZM193.806 28.5311C193.806 26.792 193.429 25.4289 192.77 24.4888C192.063 23.5488 191.074 23.0787 189.803 23.0787C188.578 23.0787 187.589 23.5488 186.883 24.4888C186.176 25.4289 185.8 26.745 185.8 28.3901V29.4712C185.8 31.1633 186.129 32.5264 186.883 33.4665C187.589 34.4536 188.578 34.9236 189.803 34.9236C191.074 34.9236 192.063 34.4536 192.723 33.5605C193.429 32.6204 193.806 31.3514 193.806 29.6122V28.5311Z" fill="white"></path><path fill-rule="evenodd" clip-rule="evenodd" d="M202.519 29.7062H200.682L200.682 36.3807H198.751V21.6216L200.682 21.6216V28.1081H202.237L207.417 21.6216L209.819 21.6216L204.168 28.7662L210.243 36.3807H207.841L202.519 29.7062Z" fill="white"></path></svg>