<svg xmlns="http://www.w3.org/2000/svg" width="269" height="50" viewBox="0 0 269 50" fill="none"><path fill-rule="evenodd" clip-rule="evenodd" d="M235.016 22.2092L159.778 22.2092L159.778 23.6193L262.451 23.6193C262.863 23.6193 263.157 23.3255 263.157 22.9142C263.157 22.5617 262.863 22.2092 262.451 22.2092L245.142 22.2092V22.3267L235.134 22.3267C235.134 22.2679 235.075 22.2679 235.016 22.2092Z" fill="#101E31"></path><path fill-rule="evenodd" clip-rule="evenodd" d="M235.016 22.2092L235.016 22.3267L159.896 22.3267L159.896 23.5018L262.451 23.5018C262.627 23.5018 262.804 23.443 262.863 23.3255C262.981 23.2668 263.039 23.0905 263.039 22.9142C263.039 22.738 262.981 22.6205 262.863 22.503C262.804 22.3854 262.627 22.3267 262.451 22.3267L245.142 22.3267V22.2092L245.26 22.2092V22.4442L235.134 22.4442L235.075 22.3854C235.016 22.3854 235.016 22.3267 234.958 22.3267L235.016 22.2092L235.075 22.1504C235.134 22.1504 235.193 22.2092 235.252 22.2679L235.134 22.3267L235.134 22.2092L245.142 22.2092V22.3267L245.025 22.3267V22.0917L262.451 22.0917C262.922 22.0917 263.275 22.4442 263.275 22.9142C263.275 23.3843 262.922 23.7368 262.451 23.7368L159.719 23.7368L159.719 22.0917L235.075 22.0917V22.1504L235.016 22.2092Z" fill="#101E31"></path><path fill-rule="evenodd" clip-rule="evenodd" d="M145.884 22.2092V23.6193L1.11859 23.6193C0.529873 23.6193 0.0588844 23.3255 0.0588844 22.9142C0.0588844 22.5617 0.529873 22.2092 1.11859 22.2092L25.4915 22.3267C65.6421 22.3267 105.734 22.2092 145.884 22.2092Z" fill="#101E31"></path><path fill-rule="evenodd" clip-rule="evenodd" d="M145.884 22.2092L145.767 22.2092V23.5018L1.11858 23.5018C0.824225 23.5018 0.588702 23.443 0.470956 23.3255C0.353221 23.2668 0.294348 23.208 0.235478 23.1493C0.235478 23.0905 0.176608 23.0317 0.176608 22.9142C0.176608 22.8555 0.235478 22.7967 0.235478 22.6792C0.353224 22.6205 0.412116 22.503 0.588724 22.4442C0.706471 22.3854 0.883097 22.3267 1.11858 22.3267L25.4915 22.4442C65.6421 22.4442 105.734 22.3267 145.884 22.3267V22.2092V22.0917C105.734 22.0917 65.6421 22.2092 25.4915 22.2092L1.11858 22.0917C0.824225 22.0917 0.529831 22.2092 0.294347 22.3267C0.235477 22.3854 0.117743 22.503 0.0588695 22.6205C-3.85628e-06 22.6792 5.15103e-09 22.7967 0 22.9142C-5.14245e-09 23.0317 -3.87822e-06 23.1493 0.0588694 23.2668C0.176616 23.3843 0.294345 23.5605 0.470956 23.6193C0.647575 23.678 0.883097 23.7368 1.11858 23.7368L146.002 23.7368V22.0917L145.884 22.0917V22.2092Z" fill="#101E31"></path><path fill-rule="evenodd" clip-rule="evenodd" d="M159.837 22.7967L159.837 23.0905L145.826 23.0905L145.826 22.7967L159.837 22.7967Z" fill="#101E31"></path><path fill-rule="evenodd" clip-rule="evenodd" d="M266.101 19.4477V21.0928H265.865V20.8578C266.042 20.8578 266.219 20.9166 266.395 20.9753C266.572 21.0341 266.748 21.2104 266.866 21.3866C266.984 21.5629 267.043 21.7391 267.043 21.9742C267.043 22.2092 266.984 22.503 266.748 22.6792C266.69 22.7967 266.572 22.8555 266.454 22.9142C266.277 22.973 266.16 23.0317 265.983 23.0317C265.806 23.0317 265.689 22.973 265.512 22.9142C265.335 22.8555 265.159 22.738 264.982 22.6205L265.335 22.2092C265.453 22.2679 265.571 22.3854 265.689 22.3854C265.806 22.4442 265.924 22.4442 265.983 22.4442C266.101 22.4442 266.16 22.4442 266.219 22.4442C266.277 22.3854 266.395 22.3267 266.395 22.2092C266.454 22.1504 266.513 22.0329 266.513 21.9742C266.513 21.8567 266.513 21.7979 266.454 21.7391C266.454 21.6804 266.395 21.6216 266.277 21.5041C266.16 21.4454 266.042 21.3866 265.806 21.3866H265.571V19.4477H266.101Z" fill="#101E31"></path><path fill-rule="evenodd" clip-rule="evenodd" d="M127.458 16.6275V17.215H123.042V16.6275H127.458ZM127.458 17.6263V18.2139H123.042V17.6263H127.458ZM127.458 18.6251V19.2127H123.042V18.6251H127.458ZM127.458 19.624V20.2703H123.042V19.624H127.458Z" fill="#101E31"></path><path fill-rule="evenodd" clip-rule="evenodd" d="M193.571 18.0376V20.1528H187.154V18.0376H193.571Z" fill="#101E31"></path><path fill-rule="evenodd" clip-rule="evenodd" d="M193.512 18.0964V18.2139H187.33V20.0353H193.394V18.0964H193.512H193.63V20.2703H187.095V17.9789H193.63V18.0964H193.512Z" fill="#101E31"></path><path fill-rule="evenodd" clip-rule="evenodd" d="M228.011 16.6863L205.639 16.6863C205.227 16.6863 204.933 16.98 204.933 17.3913C204.933 17.7438 205.227 18.0964 205.639 18.0964L228.011 18.0964C228.364 18.0964 228.717 17.7438 228.717 17.3913C228.717 16.98 228.364 16.6863 228.011 16.6863Z" fill="#101E31"></path><path fill-rule="evenodd" clip-rule="evenodd" d="M228.011 16.6863V16.8038H205.639C205.463 16.8038 205.286 16.8625 205.227 16.98C205.11 17.0388 205.051 17.215 205.051 17.3913C205.051 17.5676 205.11 17.6851 205.227 17.8026C205.286 17.9201 205.463 17.9789 205.639 17.9789L228.011 17.9789C228.128 17.9789 228.305 17.9201 228.423 17.8026C228.541 17.6851 228.599 17.5676 228.599 17.3913C228.599 17.215 228.541 17.0388 228.423 16.98C228.305 16.8625 228.128 16.8038 228.011 16.8038V16.6863V16.5688C228.423 16.5688 228.835 16.9213 228.835 17.3913C228.835 17.8613 228.423 18.2139 228.011 18.2139L205.639 18.2139C205.168 18.2139 204.815 17.8613 204.815 17.3913C204.815 16.9213 205.168 16.5687 205.639 16.5687L228.011 16.5688V16.6863Z" fill="#101E31"></path><path fill-rule="evenodd" clip-rule="evenodd" d="M211.173 18.0964H207.17C206.876 18.5076 206.699 19.0364 206.699 19.5652C206.699 20.9753 207.759 22.0329 209.172 22.0329C210.526 22.0329 211.644 20.9753 211.644 19.5652C211.644 19.0364 211.468 18.5076 211.173 18.0964Z" fill="#101E31"></path><path fill-rule="evenodd" clip-rule="evenodd" d="M211.173 18.0964L211.173 18.2139H207.17L207.17 18.0964L207.229 18.1551C206.935 18.5664 206.758 19.0364 206.758 19.5652C206.758 20.2115 207.052 20.7991 207.464 21.2691C207.935 21.6804 208.524 21.9742 209.172 21.9742C209.819 21.9742 210.408 21.6804 210.82 21.2691C211.291 20.7991 211.527 20.2115 211.527 19.5652C211.527 19.0364 211.35 18.5664 211.056 18.1551L211.173 18.0964L211.232 18.0376C211.585 18.4489 211.762 18.9777 211.762 19.5652C211.762 21.0341 210.585 22.1504 209.172 22.1504C207.7 22.1504 206.581 21.0341 206.581 19.5652C206.581 18.9777 206.758 18.4489 207.052 18.0376L207.111 17.9789H211.232V18.0376L211.173 18.0964Z" fill="#101E31"></path><path fill-rule="evenodd" clip-rule="evenodd" d="M226.48 18.0964H222.477C222.182 18.5076 222.006 19.0364 222.006 19.5652C222.006 20.9753 223.124 22.0329 224.478 22.0329C225.891 22.0329 227.01 20.9753 227.01 19.5652C227.01 19.0364 226.774 18.5076 226.48 18.0964Z" fill="#101E31"></path><path fill-rule="evenodd" clip-rule="evenodd" d="M226.48 18.0964L226.48 18.2139H222.477L222.477 18.0964L222.594 18.1551C222.3 18.5664 222.124 19.0364 222.124 19.5652C222.124 20.2115 222.418 20.7991 222.83 21.2691C223.242 21.6804 223.831 21.9742 224.478 21.9742C225.126 21.9742 225.774 21.6804 226.186 21.2691C226.598 20.7991 226.892 20.2115 226.892 19.5652C226.892 19.0364 226.716 18.5664 226.421 18.1551L226.48 18.0964L226.598 18.0376C226.892 18.4489 227.069 18.9777 227.069 19.5652C227.069 21.0341 225.95 22.1504 224.478 22.1504C223.065 22.1504 221.888 21.0341 221.888 19.5652C221.888 18.9777 222.065 18.4489 222.418 18.0376L222.477 17.9789H226.539L226.598 18.0376L226.48 18.0964Z" fill="#101E31"></path><path fill-rule="evenodd" clip-rule="evenodd" d="M220.004 18.0376V20.1528H213.646V18.0376H220.004Z" fill="#101E31"></path><path fill-rule="evenodd" clip-rule="evenodd" d="M88.3078 18.8602V19.9177H82.9505V18.8602H88.3078Z" fill="#101E31"></path><path fill-rule="evenodd" clip-rule="evenodd" d="M83.0093 18.9189V18.8014H88.4255V20.0353H82.8916V18.8014H83.0093V18.9189H83.0682V19.8002H88.1901V19.0364H83.0093V18.9189Z" fill="#101E31"></path><path fill-rule="evenodd" clip-rule="evenodd" d="M118.038 16.6275L118.332 14.6298C119.157 15.0999 121.041 16.745 121.335 16.3337C121.512 16.1574 119.274 14.101 118.274 13.0435L117.037 12.7497C116.743 14.0423 116.213 16.2162 116.272 16.745C116.331 17.215 118.215 18.3901 118.156 18.8014V22.0916H120.157C120.099 21.5041 119.569 21.5041 119.216 21.3866V18.4489L118.038 16.6275Z" fill="#101E31"></path><path fill-rule="evenodd" clip-rule="evenodd" d="M118.038 16.6275H117.92L118.274 14.4536L118.391 14.5711C118.568 14.6886 118.803 14.8061 119.098 14.9824C119.451 15.2761 119.922 15.6287 120.275 15.8637C120.511 15.9812 120.687 16.0987 120.805 16.1574C120.923 16.2162 120.982 16.275 121.041 16.275C121.099 16.275 121.158 16.275 121.158 16.275C121.217 16.275 121.217 16.275 121.217 16.275L121.276 16.3337H121.217C121.217 16.3337 121.217 16.3337 121.217 16.275L121.276 16.3337H121.217V16.275C121.158 16.2162 121.099 16.1574 121.041 16.0399C120.923 15.8637 120.687 15.6287 120.452 15.3936C119.745 14.6886 118.745 13.6898 118.215 13.1022L118.274 13.0435V13.1022L117.037 12.8672V12.7497H117.155C117.037 13.396 116.861 14.1598 116.684 14.9236C116.625 15.2761 116.507 15.6287 116.507 15.9224C116.449 16.2162 116.39 16.4512 116.39 16.6275V16.6862C116.39 16.745 116.449 16.8037 116.507 16.8625C116.566 16.98 116.743 17.1563 116.92 17.3325C117.155 17.5676 117.508 17.8613 117.803 18.0963C117.92 18.2138 118.038 18.3314 118.097 18.4489C118.156 18.5076 118.215 18.5664 118.215 18.5664C118.274 18.6251 118.274 18.6839 118.274 18.7426V18.8014V22.0916H118.156V21.9741H120.157V22.0916H120.04C120.04 21.9741 119.981 21.9154 119.922 21.8566C119.922 21.7979 119.863 21.7391 119.804 21.7391C119.745 21.6804 119.628 21.6216 119.51 21.6216C119.451 21.5629 119.333 21.5629 119.216 21.5041H119.098V18.5076L117.92 16.6862V16.6275H118.038L118.097 16.5687L119.333 18.4489V21.3866H119.216L119.274 21.3278C119.333 21.3278 119.451 21.3278 119.569 21.3866C119.686 21.3866 119.863 21.4453 119.981 21.5629C120.099 21.6216 120.157 21.6804 120.157 21.7979C120.216 21.8566 120.275 21.9741 120.275 22.0916V22.2092H118.038V18.7426C118.038 18.6839 117.979 18.6251 117.92 18.5664C117.803 18.4489 117.685 18.2726 117.508 18.1551C117.214 17.9201 116.92 17.6263 116.684 17.3913C116.566 17.2738 116.449 17.1563 116.331 17.0388C116.331 16.98 116.272 16.9213 116.213 16.9213C116.213 16.8625 116.213 16.8037 116.154 16.745C116.154 16.6862 116.154 16.6862 116.154 16.6275C116.154 16.4512 116.213 16.2162 116.272 15.8637C116.39 14.9824 116.743 13.631 116.978 12.6909V12.5734L118.332 12.9259C118.803 13.4547 119.569 14.2185 120.216 14.8648C120.57 15.1586 120.864 15.5111 121.099 15.7462C121.158 15.8637 121.276 15.9812 121.335 16.0399C121.335 16.0987 121.394 16.1574 121.394 16.2162C121.453 16.2162 121.453 16.275 121.453 16.3337C121.453 16.3337 121.453 16.3337 121.453 16.3925H121.394C121.394 16.4512 121.335 16.4512 121.276 16.51C121.276 16.51 121.217 16.51 121.158 16.51C121.099 16.51 120.982 16.51 120.923 16.4512C120.687 16.3925 120.511 16.275 120.275 16.0987C119.922 15.9224 119.569 15.6287 119.216 15.3936C118.862 15.0999 118.509 14.8648 118.274 14.7473L118.332 14.6298L118.45 14.6886L118.156 16.6862L118.038 16.6275Z" fill="#101E31"></path><path fill-rule="evenodd" clip-rule="evenodd" d="M116.154 21.3278L117.39 18.3314L116.39 17.45C116.39 17.6851 116.331 17.9788 116.272 18.0963L114.918 22.0916H116.861C116.802 21.4453 116.449 21.5041 116.154 21.3278Z" fill="#101E31"></path><path fill-rule="evenodd" clip-rule="evenodd" d="M116.154 21.3278H116.036L117.273 18.3314L116.331 17.5088L116.39 17.45H116.507C116.507 17.5676 116.507 17.7438 116.449 17.8613C116.449 17.9788 116.39 18.0963 116.39 18.1551L115.094 21.9741H116.861V22.0916H116.743C116.743 21.9741 116.684 21.8566 116.625 21.7979C116.625 21.7391 116.566 21.6804 116.566 21.6804C116.507 21.6216 116.449 21.5629 116.331 21.5629C116.272 21.5041 116.213 21.5041 116.095 21.4453L116.036 21.3866V21.3278H116.154L116.213 21.2691C116.272 21.2691 116.331 21.3278 116.39 21.3278C116.449 21.3278 116.507 21.3866 116.566 21.3866C116.684 21.4453 116.743 21.5041 116.802 21.6216C116.92 21.7391 116.92 21.9154 116.978 22.0916V22.2092H114.741L116.154 18.0963C116.154 18.0376 116.213 17.9201 116.213 17.8026C116.272 17.6851 116.272 17.5676 116.272 17.45V17.1563L117.508 18.2726L116.272 21.3866L116.154 21.3278Z" fill="#101E31"></path><path fill-rule="evenodd" clip-rule="evenodd" d="M118.332 9.45944C119.274 9.45944 120.04 10.2233 120.04 11.1633C120.04 12.0446 119.274 12.8084 118.332 12.8084C117.449 12.8084 116.684 12.0446 116.684 11.1633C116.684 10.2233 117.449 9.45944 118.332 9.45944V9.69446C117.979 9.69446 117.626 9.87072 117.332 10.1057C117.096 10.3995 116.92 10.752 116.92 11.1633C116.92 11.5158 117.096 11.8684 117.332 12.1621C117.626 12.3972 117.979 12.5734 118.332 12.5734C118.745 12.5734 119.098 12.3972 119.392 12.1621C119.628 11.8684 119.804 11.5158 119.804 11.1633C119.804 10.752 119.628 10.3995 119.392 10.1057C119.098 9.87072 118.745 9.69446 118.332 9.69446V9.45944Z" fill="#101E31"></path><path fill-rule="evenodd" clip-rule="evenodd" d="M119.981 10.8108C119.981 9.98823 119.216 9.22442 118.391 9.22442C117.626 9.22442 116.802 9.6357 116.802 11.0458H120.57V10.8108C120.452 10.8108 120.334 10.8108 119.981 10.8108Z" fill="#101E31"></path><path fill-rule="evenodd" clip-rule="evenodd" d="M119.981 10.8108H119.863C119.863 10.4583 119.687 10.047 119.392 9.81196C119.157 9.51819 118.745 9.34193 118.391 9.34193C118.215 9.34193 118.038 9.40068 117.861 9.45944C117.567 9.51819 117.332 9.6357 117.155 9.92947C117.037 10.1645 116.92 10.517 116.92 11.0458H116.802V10.9871L120.452 10.9283V10.8108H120.57V10.9283C120.452 10.9283 120.334 10.9283 119.981 10.9283H119.863V10.8108H119.981V10.6933C120.334 10.6933 120.452 10.6933 120.57 10.6933H120.687V11.1633L116.684 11.1633L116.684 11.0458C116.684 10.6933 116.743 10.3995 116.802 10.1645C116.978 9.75321 117.214 9.51819 117.508 9.34193C117.744 9.16567 118.097 9.10691 118.391 9.10691C118.803 9.10691 119.274 9.34193 119.569 9.6357C119.863 9.92947 120.099 10.3408 120.099 10.8108H119.981Z" fill="#101E31"></path><path fill-rule="evenodd" clip-rule="evenodd" d="M121.158 15.9224C121.158 15.9224 121.158 15.9224 121.217 15.9224C121.217 15.9224 121.217 15.9224 121.276 15.9224C121.512 15.9224 122.277 15.9224 122.395 15.9224H122.689V20.6228H127.516V21.1516H122.1V16.2162H122.395V16.4512C122.277 16.4512 121.512 16.4512 121.276 16.4512C121.217 16.4512 121.217 16.4512 121.217 16.4512C121.158 16.4512 121.158 16.4512 121.158 16.4512V15.9224Z" fill="#101E31"></path><path fill-rule="evenodd" clip-rule="evenodd" d="M123.513 21.0341C123.808 21.0341 124.102 21.3278 124.102 21.6216C124.102 21.9154 123.808 22.2092 123.513 22.2092C123.219 22.2092 122.924 21.9154 122.924 21.6216C122.924 21.3278 123.219 21.0341 123.513 21.0341V21.2691C123.395 21.2691 123.337 21.3278 123.278 21.3866C123.219 21.4454 123.16 21.5041 123.16 21.6216C123.16 21.7391 123.219 21.7979 123.278 21.8566C123.337 21.9154 123.395 21.9741 123.513 21.9741C123.631 21.9741 123.69 21.9154 123.749 21.8566C123.808 21.7979 123.866 21.7391 123.866 21.6216C123.866 21.5041 123.808 21.4454 123.749 21.3866C123.69 21.3278 123.631 21.2691 123.513 21.2691V21.0341Z" fill="#101E31"></path><path fill-rule="evenodd" clip-rule="evenodd" d="M126.221 21.0928C126.516 21.0928 126.81 21.3278 126.81 21.6216C126.81 21.9741 126.516 22.2092 126.221 22.2092C125.927 22.2092 125.633 21.9741 125.633 21.6216C125.633 21.3278 125.927 21.0928 126.221 21.0928V21.3278C126.104 21.3278 126.045 21.3278 125.986 21.3866C125.927 21.4454 125.868 21.5629 125.868 21.6216C125.868 21.7391 125.927 21.8566 125.986 21.9154C126.045 21.9741 126.104 21.9741 126.221 21.9741C126.339 21.9741 126.398 21.9741 126.457 21.9154C126.516 21.8566 126.574 21.7391 126.574 21.6216C126.574 21.5629 126.516 21.4454 126.457 21.3866C126.398 21.3278 126.339 21.3278 126.221 21.3278V21.0928Z" fill="#101E31"></path><path fill-rule="evenodd" clip-rule="evenodd" d="M148.593 5.58166H152.89C153.243 5.58166 153.538 5.87543 153.538 6.22796V6.93301C153.538 7.34429 153.243 7.63807 152.89 7.63807H148.593C148.18 7.63807 147.886 7.34429 147.886 6.93301V6.22796C147.886 5.87543 148.18 5.58166 148.593 5.58166V5.81668C148.475 5.81668 148.357 5.87543 148.239 5.93419C148.18 5.99294 148.122 6.11045 148.122 6.22796V6.93301C148.122 7.05052 148.18 7.16803 148.239 7.28554C148.357 7.34429 148.475 7.40305 148.593 7.40305H152.89C153.008 7.40305 153.126 7.34429 153.185 7.28554C153.243 7.16803 153.302 7.05052 153.302 6.93301V6.22796C153.302 6.11045 153.243 5.99294 153.185 5.93419C153.126 5.87543 153.008 5.81668 152.89 5.81668H148.593V5.58166Z" fill="#101E31"></path><path fill-rule="evenodd" clip-rule="evenodd" d="M147.945 15.6287V15.5699H153.656C154.127 15.5699 154.539 15.9224 154.539 16.4512V18.0376C154.539 18.5076 154.127 18.9189 153.656 18.9189H147.945C147.474 18.9189 147.062 18.5076 147.062 18.0376V16.4512C147.062 15.9224 147.474 15.5699 147.945 15.5699V15.6287V15.7462C147.768 15.7462 147.592 15.8637 147.474 15.9812C147.356 16.0987 147.297 16.275 147.297 16.4512V18.0376C147.297 18.2139 147.356 18.3901 147.474 18.5076C147.592 18.6251 147.768 18.6839 147.945 18.6839H153.656C153.832 18.6839 154.009 18.6251 154.127 18.5076C154.244 18.3901 154.303 18.2139 154.303 18.0376V16.4512C154.303 16.275 154.244 16.0987 154.127 15.9812C154.009 15.8637 153.832 15.7462 153.656 15.7462H147.945V15.6287Z" fill="#101E31"></path><path fill-rule="evenodd" clip-rule="evenodd" d="M166.725 3.4665L140.292 3.46649C139.88 3.46649 139.526 3.81902 139.526 4.2303V5.17037C139.526 5.58165 139.88 5.93418 140.292 5.93418L166.725 5.93418C167.137 5.93418 167.49 5.58166 167.49 5.17037V4.2303C167.49 3.81902 167.137 3.4665 166.725 3.4665Z" fill="#101E31"></path><path fill-rule="evenodd" clip-rule="evenodd" d="M166.725 3.4665V3.584L140.292 3.584C140.115 3.584 139.938 3.64276 139.821 3.76027C139.703 3.87778 139.644 4.05404 139.644 4.2303V5.17037C139.644 5.34664 139.703 5.5229 139.821 5.64041C139.938 5.75792 140.115 5.81667 140.292 5.81667L166.725 5.81667C166.902 5.81667 167.078 5.75792 167.196 5.64041C167.314 5.5229 167.373 5.34664 167.373 5.17037V4.2303C167.373 4.05404 167.314 3.87778 167.196 3.76027C167.078 3.64276 166.902 3.584 166.725 3.584V3.4665V3.34899C167.196 3.34899 167.608 3.76027 167.608 4.2303V5.17037C167.608 5.64041 167.196 6.05169 166.725 6.05169L140.292 6.05169C139.821 6.05169 139.409 5.64041 139.409 5.17037V4.2303C139.409 3.76027 139.821 3.34899 140.292 3.34899L166.725 3.34899V3.4665Z" fill="#101E31"></path><path fill-rule="evenodd" clip-rule="evenodd" d="M150.889 7.46179V13.3372H150.594V7.46179H150.889Z" fill="#101E31"></path><path fill-rule="evenodd" clip-rule="evenodd" d="M153.067 15.8049L150.712 13.4548L148.475 15.6874L148.298 15.5699L150.712 13.161L153.185 15.6287L153.067 15.8049Z" fill="#101E31"></path><path fill-rule="evenodd" clip-rule="evenodd" d="M153.361 5.93419L148.122 5.93419C148.063 6.0517 148.004 6.11045 148.004 6.22796V6.93302C148.004 7.22679 148.239 7.52056 148.593 7.52056H152.89C153.185 7.52056 153.42 7.22679 153.42 6.93302V6.22796C153.42 6.11045 153.42 6.0517 153.361 5.93419Z" fill="#101E31"></path><path fill-rule="evenodd" clip-rule="evenodd" d="M153.361 5.93419V6.0517L148.122 6.0517V5.93419L148.18 5.99294C148.122 6.0517 148.122 6.16921 148.122 6.22796V6.93301C148.122 7.05052 148.18 7.16803 148.239 7.28554C148.357 7.34429 148.475 7.40305 148.593 7.40305H152.89C153.008 7.40305 153.126 7.34429 153.185 7.28554C153.243 7.16803 153.302 7.05052 153.302 6.93301V6.22796C153.302 6.16921 153.302 6.0517 153.243 5.99294L153.361 5.93419L153.42 5.87544C153.479 5.99294 153.538 6.11045 153.538 6.22796V6.93301C153.538 7.34429 153.243 7.63807 152.89 7.63807H148.593C148.18 7.63807 147.886 7.34429 147.886 6.93301V6.22796C147.886 6.11045 147.945 5.99294 148.004 5.87544L148.063 5.81668H153.42V5.87544L153.361 5.93419Z" fill="#101E31"></path><path fill-rule="evenodd" clip-rule="evenodd" d="M153.067 15.6287L147.945 15.6287C147.533 15.6287 147.18 15.9812 147.18 16.4512V18.0376C147.18 18.4489 147.533 18.8014 147.945 18.8014H153.656C154.068 18.8014 154.421 18.4489 154.421 18.0376V16.4512C154.421 15.9812 154.068 15.6287 153.656 15.6287H153.067Z" fill="#101E31"></path><path fill-rule="evenodd" clip-rule="evenodd" d="M153.067 15.6287V15.7462L147.945 15.7462C147.768 15.7462 147.592 15.8637 147.474 15.9812C147.356 16.0987 147.297 16.275 147.297 16.4512V18.0376C147.297 18.2139 147.356 18.3901 147.474 18.5076C147.592 18.6251 147.768 18.6839 147.945 18.6839H153.656C153.832 18.6839 154.009 18.6251 154.127 18.5076C154.244 18.3901 154.303 18.2139 154.303 18.0376V16.4512C154.303 16.275 154.244 16.0987 154.127 15.9812C154.009 15.8637 153.832 15.7462 153.656 15.7462L153.067 15.7462V15.6287V15.5699L153.656 15.5699C154.127 15.5699 154.539 15.9224 154.539 16.4512V18.0376C154.539 18.5076 154.127 18.9189 153.656 18.9189H147.945C147.474 18.9189 147.062 18.5076 147.062 18.0376V16.4512C147.062 15.9224 147.474 15.5699 147.945 15.5699L153.067 15.5699V15.6287Z" fill="#101E31"></path><path fill-rule="evenodd" clip-rule="evenodd" d="M140.88 5.46415L141.646 22.0329L141.116 22.0917L140.292 5.46415H140.88Z" fill="#101E31"></path><path fill-rule="evenodd" clip-rule="evenodd" d="M141.881 22.0329L147.18 5.4054L147.709 5.52291L142.411 22.2092L141.881 22.0329Z" fill="#101E31"></path><path fill-rule="evenodd" clip-rule="evenodd" d="M140.704 5.34664L146.238 10.1058L141.175 12.4559L144.295 15.9224L141.351 19.2714L141.116 19.0364L143.942 15.9224L140.704 12.3384L145.708 10.047L140.527 5.58166L140.704 5.34664Z" fill="#101E31"></path><path fill-rule="evenodd" clip-rule="evenodd" d="M166.725 5.46416L165.96 22.0917L165.371 22.0329L166.195 5.46416L166.725 5.46416Z" fill="#101E31"></path><path fill-rule="evenodd" clip-rule="evenodd" d="M164.665 22.2092L159.366 5.52291L159.896 5.4054L165.194 22.0329L164.665 22.2092Z" fill="#101E31"></path><path fill-rule="evenodd" clip-rule="evenodd" d="M166.548 5.58167L161.309 10.047L166.372 12.3384L163.134 15.9224L165.901 19.0364L165.724 19.2715L162.722 15.9224L165.901 12.4559L160.838 10.1058L166.372 5.34665L166.548 5.58167Z" fill="#101E31"></path><path fill-rule="evenodd" clip-rule="evenodd" d="M201.518 16.6863H179.147C178.794 16.6863 178.441 16.98 178.441 17.3913C178.441 17.7438 178.794 18.0964 179.147 18.0964L201.518 18.0964C201.93 18.0964 202.225 17.7438 202.225 17.3913C202.225 16.98 201.93 16.6863 201.518 16.6863Z" fill="#101E31"></path><path fill-rule="evenodd" clip-rule="evenodd" d="M201.518 16.6863V16.8038L179.147 16.8038C179.029 16.8038 178.853 16.8625 178.735 16.98C178.617 17.0388 178.558 17.215 178.558 17.3913C178.558 17.5676 178.617 17.6851 178.735 17.8026C178.853 17.9201 179.029 17.9789 179.147 17.9789H201.518C201.695 17.9789 201.813 17.9201 201.93 17.8026C202.048 17.6851 202.107 17.5676 202.107 17.3913C202.107 17.215 202.048 17.0388 201.93 16.98C201.813 16.8625 201.695 16.8038 201.518 16.8038V16.6863V16.5687C201.989 16.5687 202.343 16.9213 202.343 17.3913C202.343 17.8613 201.989 18.2139 201.518 18.2139L179.147 18.2139C178.735 18.2139 178.323 17.8613 178.323 17.3913C178.323 16.9213 178.735 16.5687 179.147 16.5687L201.518 16.5687V16.6863Z" fill="#101E31"></path><path fill-rule="evenodd" clip-rule="evenodd" d="M184.681 18.0964H180.678C180.383 18.5076 180.207 19.0364 180.207 19.5652C180.207 20.9753 181.325 22.0329 182.679 22.0329C184.092 22.0329 185.211 20.9753 185.211 19.5652C185.211 19.0364 184.975 18.5076 184.681 18.0964Z" fill="#101E31"></path><path fill-rule="evenodd" clip-rule="evenodd" d="M184.681 18.0964V18.2139H180.678V18.0964L180.795 18.1551C180.501 18.5664 180.325 19.0364 180.325 19.5652C180.325 20.2115 180.56 20.7991 181.031 21.2691C181.443 21.6804 182.032 21.9742 182.679 21.9742C183.327 21.9742 183.975 21.6804 184.387 21.2691C184.799 20.7991 185.093 20.2115 185.093 19.5652C185.093 19.0364 184.916 18.5664 184.622 18.1551L184.681 18.0964L184.799 18.0376C185.093 18.4489 185.27 18.9777 185.27 19.5652C185.27 21.0341 184.151 22.1504 182.679 22.1504C181.266 22.1504 180.089 21.0341 180.089 19.5652C180.089 18.9777 180.266 18.4489 180.619 18.0376L180.678 17.9788H184.74L184.799 18.0376L184.681 18.0964Z" fill="#101E31"></path><path fill-rule="evenodd" clip-rule="evenodd" d="M200.047 18.0964H196.043C195.749 18.5076 195.572 19.0364 195.572 19.5652C195.572 20.9753 196.691 22.0329 198.045 22.0329C199.399 22.0329 200.518 20.9753 200.518 19.5652C200.518 19.0364 200.341 18.5076 200.047 18.0964Z" fill="#101E31"></path><path fill-rule="evenodd" clip-rule="evenodd" d="M200.047 18.0964V18.2139L196.043 18.2139V18.0964L196.161 18.1551C195.867 18.5664 195.69 19.0364 195.69 19.5652C195.69 20.2115 195.926 20.7991 196.338 21.2691C196.809 21.6804 197.397 21.9742 198.045 21.9742C198.693 21.9742 199.281 21.6804 199.693 21.2691C200.164 20.7991 200.4 20.2115 200.4 19.5652C200.4 19.0364 200.223 18.5664 199.929 18.1551L200.047 18.0964L200.105 18.0376C200.459 18.4489 200.635 18.9777 200.635 19.5652C200.635 21.0341 199.458 22.1504 198.045 22.1504C196.632 22.1504 195.455 21.0341 195.455 19.5652C195.455 18.9777 195.631 18.4489 195.984 18.0376V17.9788L200.105 17.9789V18.0376L200.047 18.0964Z" fill="#101E31"></path><path fill-rule="evenodd" clip-rule="evenodd" d="M220.004 18.0964V18.2139H213.764V20.0353H219.886V18.0964H220.004H220.122V20.2703H213.528V17.9788H220.122V18.0964H220.004Z" fill="#101E31"></path><path fill-rule="evenodd" clip-rule="evenodd" d="M183.209 10.4583V10.2233C184.092 10.1645 184.858 10.517 185.446 11.1046C185.976 11.6334 186.329 12.4559 186.329 13.2785C186.329 14.1598 185.976 14.9236 185.446 15.4524C184.858 16.04 184.092 16.3925 183.209 16.3925C182.385 16.3925 181.62 16.04 181.031 15.4524C180.501 14.9236 180.148 14.1598 180.148 13.2785C180.148 12.4559 180.501 11.6334 181.031 11.1046C181.62 10.517 182.385 10.1645 183.209 10.2233V10.4583V10.7521C182.562 10.7521 181.914 11.0458 181.443 11.5159C180.972 11.9271 180.678 12.5734 180.678 13.2785C180.678 13.9835 180.972 14.6298 181.443 15.0999C181.914 15.5112 182.562 15.8049 183.209 15.8049C183.916 15.8049 184.563 15.5112 185.034 15.0999C185.505 14.6298 185.8 13.9836 185.8 13.2785C185.8 12.5734 185.505 11.9271 185.034 11.5159C184.563 11.0458 183.916 10.7521 183.209 10.7521V10.4583Z" fill="#101E31"></path><path fill-rule="evenodd" clip-rule="evenodd" d="M195.513 8.75441C196.573 8.75441 197.515 9.16569 198.222 9.87074C198.928 10.5758 199.34 11.5159 199.34 12.5734C199.34 13.631 198.928 14.5711 198.222 15.2761C197.515 15.9812 196.573 16.3925 195.513 16.3925C194.454 16.3925 193.512 15.9812 192.805 15.2761C192.099 14.5711 191.687 13.631 191.687 12.5734C191.687 11.5159 192.099 10.5758 192.805 9.87074C193.512 9.16569 194.454 8.75441 195.513 8.75441V9.34195C194.63 9.34195 193.806 9.69448 193.217 10.282C192.629 10.8696 192.217 11.6921 192.217 12.5734C192.217 13.4548 192.629 14.2773 193.217 14.8649C193.806 15.4524 194.63 15.8637 195.513 15.8637C196.396 15.8637 197.221 15.4524 197.809 14.8649C198.398 14.2773 198.751 13.4548 198.751 12.5734C198.751 11.6921 198.398 10.8696 197.809 10.282C197.221 9.69448 196.396 9.34195 195.513 9.34195V8.75441Z" fill="#101E31"></path><path fill-rule="evenodd" clip-rule="evenodd" d="M198.751 10.8696H192.217L192.04 11.2808L187.507 11.2808L187.271 10.4583H185.211V9.51821L182.738 10.3408L183.209 10.4583L184.681 10.8696L184.916 10.9283C185.093 11.1046 185.211 11.2221 185.329 11.3984C185.741 11.9859 185.917 12.5147 186.035 13.0435L186.977 12.926L191.216 12.9847H192.04L195.455 12.926L196.338 13.8073H198.81C200.105 13.2785 200.518 12.8085 200.694 11.8096C200.871 10.7521 199.517 9.87074 198.634 9.98825L198.751 10.8108V10.8696Z" fill="#101E31"></path><path fill-rule="evenodd" clip-rule="evenodd" d="M198.751 10.8696V10.9871H192.217V10.8696H192.334V10.9283L192.099 11.3984L187.448 11.3984L187.154 10.5758H185.093V9.69447L183.091 10.3408H183.268L184.681 10.7521L184.975 10.8108L185.034 10.8696C185.152 11.0458 185.329 11.1633 185.446 11.3396C185.858 11.9271 186.035 12.4559 186.153 12.9847L186.035 13.0435V12.926L186.977 12.8085L191.216 12.8672H192.04L195.513 12.8085L196.396 13.6898H198.81C199.399 13.4548 199.811 13.2197 200.105 12.926C200.223 12.7497 200.341 12.6322 200.4 12.3972C200.518 12.2209 200.518 12.0447 200.576 11.7509C200.576 11.7509 200.576 11.6921 200.576 11.6334C200.576 11.4571 200.518 11.2221 200.4 11.0458C200.282 10.7521 199.988 10.517 199.693 10.3408C199.399 10.1645 199.046 10.1058 198.751 10.1058C198.693 10.1058 198.693 10.1058 198.634 10.1058L198.634 9.98825H198.693L198.869 10.8108V10.9871H198.751V10.8696L198.634 10.8108H198.751L198.634 10.8696L198.457 9.87074H198.575C198.634 9.87074 198.693 9.87074 198.751 9.87074C198.987 9.87074 199.222 9.92949 199.458 9.98825C199.811 10.1645 200.164 10.3408 200.4 10.6345C200.518 10.7521 200.635 10.9283 200.694 11.1046C200.753 11.2808 200.812 11.4571 200.812 11.6334C200.812 11.6921 200.812 11.7509 200.812 11.8096C200.753 12.1034 200.694 12.2797 200.635 12.5147C200.459 12.8085 200.282 13.1022 199.988 13.2785C199.693 13.5135 199.34 13.6898 198.869 13.9248H196.279L195.396 13.0435L192.04 13.1022H191.216L186.977 13.0435L185.976 13.161L185.917 13.0435C185.8 12.5147 185.623 12.0447 185.27 11.4571C185.152 11.3396 185.034 11.1633 184.858 10.9871L184.916 10.9283V11.0458L184.622 10.9871L183.209 10.5758L182.326 10.3408L185.329 9.4007V10.3408H187.33L187.625 11.1633L191.981 11.1633L192.099 10.8108L192.158 10.7521H198.751V10.8696Z" fill="#101E31"></path><path fill-rule="evenodd" clip-rule="evenodd" d="M190.392 9.04818H185.917V5.28789H189.155L190.392 9.04818ZM191.216 9.16569L189.626 4.58284L185.329 4.6416V10.8108L191.628 10.8108L192.923 9.16569H191.216Z" fill="#101E31"></path><path fill-rule="evenodd" clip-rule="evenodd" d="M190.392 9.04818V9.16569H185.8V5.22914H189.214L190.568 9.16569H190.392V9.04818L190.333 9.10693L189.038 5.4054H186.035V8.93067H190.392V9.04818ZM191.216 9.16569H191.098L189.567 4.70035L185.446 4.7591V10.6933L191.569 10.6933L192.688 9.2832H191.157L191.098 9.16569H191.216V9.04818H193.159L191.687 10.9283L185.211 10.9283V4.52409L189.685 4.46533L191.334 9.10693L191.216 9.16569Z" fill="#101E31"></path><path fill-rule="evenodd" clip-rule="evenodd" d="M191.275 13.0435L186.8 12.9847C186.683 14.0423 186.683 14.1598 186.388 14.6299L191.863 14.6299C191.628 14.3361 191.334 13.396 191.275 13.0435Z" fill="#101E31"></path><path fill-rule="evenodd" clip-rule="evenodd" d="M191.275 13.0435V13.161L186.8 13.1022V12.9847H186.918C186.859 13.5135 186.859 13.8073 186.8 14.0423C186.742 14.1598 186.742 14.2773 186.683 14.3361C186.624 14.4536 186.565 14.5711 186.506 14.6886L186.388 14.6299V14.5123L191.863 14.5123V14.6299L191.804 14.6886C191.687 14.5711 191.628 14.4536 191.569 14.3361C191.451 14.1598 191.392 13.866 191.275 13.631C191.216 13.396 191.157 13.161 191.157 13.0435H191.275L191.392 12.9847C191.392 13.1022 191.392 13.2197 191.451 13.3373C191.51 13.5723 191.569 13.8073 191.687 14.0423C191.746 14.1598 191.746 14.2773 191.804 14.3361C191.863 14.3948 191.922 14.5123 191.922 14.5123L192.099 14.6886L186.212 14.7474L186.329 14.5711C186.388 14.4536 186.447 14.3361 186.447 14.2773C186.506 14.1011 186.565 13.9836 186.565 13.8073C186.624 13.631 186.624 13.3373 186.683 12.9847V12.8672L191.392 12.926V12.9847L191.275 13.0435Z" fill="#101E31"></path><path fill-rule="evenodd" clip-rule="evenodd" d="M245.142 22.3267V22.4442L235.134 22.4442L235.075 22.3854C234.663 22.0329 234.074 21.5041 233.662 20.8578C233.25 20.1528 232.897 19.3302 232.897 18.4489C232.897 18.3901 232.897 18.3901 232.897 18.3901C232.897 17.5676 233.074 16.8625 233.368 16.2162C233.839 15.2762 234.604 14.5711 235.252 14.1011C235.605 13.866 235.958 13.631 236.253 13.5135C236.547 13.3373 236.783 13.2197 237.018 13.161L241.257 13.2785L245.26 18.8014V22.4442H245.142V22.3267H245.025V18.8602L241.139 13.5135L237.018 13.396V13.2785L237.077 13.396C236.841 13.4548 236.488 13.631 236.076 13.866C235.429 14.2186 234.663 14.7474 234.133 15.5112C233.545 16.275 233.074 17.215 233.074 18.3901C233.074 18.3901 233.074 18.3901 233.074 18.4489C233.133 19.2715 233.427 20.094 233.839 20.7403C234.251 21.3866 234.781 21.8566 235.252 22.2679L235.134 22.3267V22.2092L245.142 22.2092V22.3267Z" fill="#101E31"></path><path fill-rule="evenodd" clip-rule="evenodd" d="M240.962 11.5746V11.4571H243.2L261.921 2.99648C262.039 2.87897 262.215 2.76146 262.274 2.58519C262.392 2.46769 262.451 2.29142 262.451 2.17391C262.451 2.0564 262.451 1.9389 262.392 1.88014L262.51 1.82139V1.9389C255.563 3.93655 248.851 5.99295 241.963 8.93067L241.904 8.81316L242.022 8.87192L241.08 11.5746H240.962L240.845 11.5159L241.787 8.75441H241.846C248.792 5.75793 255.504 3.70153 262.451 1.70388H262.568V1.76263C262.627 1.88014 262.686 1.99765 262.686 2.17391C262.686 2.35018 262.627 2.58519 262.51 2.76146C262.392 2.93772 262.215 3.05523 262.039 3.17274L243.2 11.6921H240.786L240.845 11.5159L240.962 11.5746Z" fill="#101E31"></path><path fill-rule="evenodd" clip-rule="evenodd" d="M241.198 13.396L237.018 13.2785C236.076 13.5723 232.956 15.2174 232.956 18.4489C233.015 20.2115 234.31 21.6216 235.134 22.3267L245.142 22.3267V18.8602L241.198 13.396Z" fill="#101E31"></path><path fill-rule="evenodd" clip-rule="evenodd" d="M241.198 13.396V13.5135L237.018 13.396V13.2785L237.077 13.396C236.841 13.4548 236.488 13.631 236.076 13.866C235.429 14.2186 234.663 14.7474 234.133 15.5112C233.545 16.275 233.074 17.215 233.074 18.3901C233.074 18.3901 233.074 18.3901 233.074 18.4489C233.133 19.2715 233.427 20.094 233.839 20.7403C234.251 21.3866 234.781 21.8566 235.252 22.2679L235.134 22.3267V22.2092H245.025V18.8602L241.139 13.4548L241.198 13.396L241.316 13.3373L245.26 18.8014V22.4442L235.134 22.4442L235.075 22.3854C234.663 22.0329 234.074 21.5041 233.662 20.8578C233.25 20.1528 232.897 19.3302 232.897 18.4489C232.897 18.3901 232.897 18.3901 232.897 18.3901C232.897 17.5676 233.074 16.8625 233.368 16.2162C233.839 15.2762 234.604 14.5711 235.252 14.1011C235.605 13.866 235.958 13.631 236.253 13.5135C236.547 13.3373 236.783 13.2197 237.018 13.161L241.257 13.2785L241.316 13.3373L241.198 13.396Z" fill="#101E31"></path><path fill-rule="evenodd" clip-rule="evenodd" d="M244.318 17.6851L241.198 13.396L238.608 13.3372L237.018 13.2785C236.076 13.5723 232.956 15.2174 232.956 18.4489C233.015 20.2115 234.31 21.6216 235.134 22.3267L245.142 22.3267V18.8602L244.318 17.6851Z" fill="#101E31"></path><path fill-rule="evenodd" clip-rule="evenodd" d="M244.318 17.6851L244.259 17.7438L241.139 13.5135L238.608 13.4548L237.018 13.396V13.2785L237.077 13.396C236.841 13.4548 236.488 13.631 236.076 13.866C235.429 14.2186 234.663 14.7474 234.133 15.5112C233.545 16.275 233.074 17.215 233.074 18.3901C233.074 18.3901 233.074 18.3901 233.074 18.4489C233.133 19.2715 233.427 20.094 233.839 20.7403C234.251 21.3866 234.781 21.8566 235.252 22.2679L235.134 22.3267V22.2092H245.025V18.8602L244.259 17.7438L244.318 17.6851L244.436 17.6263L245.26 18.8014V22.4442L235.134 22.4442L235.075 22.3854C234.663 22.0329 234.074 21.5041 233.662 20.8578C233.25 20.1528 232.897 19.3302 232.897 18.4489C232.897 18.3901 232.897 18.3901 232.897 18.3901C232.897 17.5676 233.074 16.8625 233.368 16.2162C233.839 15.2762 234.604 14.5711 235.252 14.1011C235.605 13.866 235.958 13.631 236.253 13.5135C236.547 13.3373 236.783 13.2197 237.018 13.161L238.608 13.2197L241.257 13.2785L244.436 17.6263L244.318 17.6851Z" fill="#101E31"></path><path fill-rule="evenodd" clip-rule="evenodd" d="M259.743 5.4054C259.86 5.69917 248.969 13.9248 244.318 17.6851L245.142 18.8602L262.804 4.46533L263.628 0.822555C256.799 2.64394 248.675 5.22914 241.08 7.87309C240.256 9.69448 239.432 11.5159 238.608 13.3372L241.198 13.396L244.318 17.6851L242.022 14.3361C247.438 11.6921 259.507 4.93537 259.743 5.4054ZM243.2 11.5746L240.962 11.5746L241.787 9.16568C248.91 6.63924 252.619 5.46416 262.274 2.17391C262.51 2.64394 262.392 2.82021 261.98 3.05523L243.2 11.5746Z" fill="#101E31"></path><path fill-rule="evenodd" clip-rule="evenodd" d="M259.743 5.4054L259.801 5.34665C259.86 5.34665 259.86 5.4054 259.86 5.4054C259.86 5.46416 259.801 5.46416 259.801 5.46416C259.801 5.52291 259.801 5.52291 259.743 5.58166C259.684 5.64042 259.566 5.75793 259.448 5.87544C258.977 6.28672 258.094 7.05053 256.917 7.9906C253.384 10.8108 247.497 15.2761 244.436 17.8026L244.318 17.6851L244.436 17.6263L245.142 18.6839L262.745 4.40658L263.51 0.822555L263.628 0.822555V0.940064C256.799 2.76145 248.734 5.34665 241.139 7.93184L241.08 7.87309H241.198C240.374 9.69448 239.55 11.5159 238.725 13.3372L238.608 13.3372V13.2197L241.257 13.2785L244.436 17.6263L244.318 17.6851L244.259 17.7438L241.904 14.2773L242.022 14.2186C244.613 12.926 248.792 10.6933 252.384 8.81316C254.209 7.81433 255.916 6.93302 257.211 6.28672C257.859 5.99295 258.389 5.75793 258.801 5.52291C259.036 5.46416 259.213 5.4054 259.331 5.34665C259.389 5.28789 259.448 5.28789 259.507 5.28789C259.566 5.28789 259.625 5.28789 259.684 5.28789H259.801V5.34665L259.743 5.4054L259.625 5.46416L259.684 5.4054V5.46416C259.684 5.46416 259.684 5.46416 259.625 5.46416L259.684 5.4054V5.46416C259.625 5.46416 259.625 5.46416 259.566 5.52291C259.507 5.52291 259.33 5.58167 259.213 5.64042C258.565 5.87544 257.505 6.40423 256.151 7.10928C252.089 9.16568 245.672 12.691 242.081 14.3948L242.022 14.3361L242.14 14.2773L244.436 17.6263L244.259 17.7438L241.139 13.5135L238.431 13.4548L238.49 13.2785C239.314 11.4571 240.138 9.63572 240.962 7.81433L241.021 7.75558C248.675 5.11163 256.74 2.58519 263.569 0.705046L263.746 0.646292L262.922 4.58284L245.142 18.9777L244.2 17.6851L244.259 17.6263C246.555 15.7462 250.441 12.7497 253.679 10.2233C255.327 8.93067 256.799 7.75558 257.918 6.87426C258.447 6.46298 258.86 6.0517 259.154 5.81668C259.33 5.69917 259.448 5.58166 259.507 5.46416C259.566 5.46416 259.566 5.4054 259.625 5.4054V5.34665L259.684 5.4054H259.625C259.625 5.4054 259.625 5.4054 259.625 5.34665L259.684 5.4054L259.625 5.46416C259.625 5.4054 259.625 5.4054 259.625 5.4054H259.684L259.625 5.46416L259.743 5.4054ZM243.2 11.5746V11.6921H240.786L241.669 9.10693H241.728C248.91 6.52173 252.56 5.34665 262.274 2.0564L262.333 1.99764L262.392 2.11515C262.451 2.29142 262.51 2.40892 262.51 2.58519C262.51 2.64394 262.51 2.7027 262.451 2.76145C262.451 2.82021 262.392 2.87896 262.333 2.99647C262.215 3.05522 262.156 3.11399 262.039 3.17274L243.2 11.6921V11.5746L243.141 11.4571L261.921 2.99648C262.039 2.87897 262.156 2.82021 262.215 2.76145C262.215 2.7027 262.274 2.7027 262.274 2.64394V2.58519C262.274 2.46769 262.274 2.35017 262.215 2.17391H262.274L262.333 2.29142C252.619 5.58166 248.969 6.75675 241.787 9.28319V9.16568L241.904 9.22444L241.139 11.4571L243.2 11.4571V11.5746Z" fill="#101E31"></path><path fill-rule="evenodd" clip-rule="evenodd" d="M244.318 17.6851L241.198 13.396L238.608 13.3372L237.018 13.2785C236.076 13.5723 232.956 15.2174 232.956 18.4489C233.015 20.2115 234.31 21.6216 235.134 22.3267L245.142 22.3267V18.8602L244.318 17.6851Z" fill="#101E31"></path><path fill-rule="evenodd" clip-rule="evenodd" d="M244.318 17.6851L244.259 17.7438L241.139 13.5135L238.608 13.4548L237.018 13.396V13.2785L237.077 13.396C236.841 13.4548 236.488 13.631 236.076 13.866C235.429 14.2186 234.663 14.7474 234.133 15.5112C233.545 16.275 233.074 17.215 233.074 18.3901C233.074 18.3901 233.074 18.3901 233.074 18.4489C233.133 19.2715 233.427 20.094 233.839 20.7403C234.251 21.3866 234.781 21.8566 235.252 22.2679L235.134 22.3267V22.2092H245.025V18.8602L244.259 17.8026V17.7438L244.318 17.6851L244.436 17.6263L245.26 18.8014V22.4442L235.134 22.4442L235.075 22.3854C234.663 22.0329 234.074 21.5041 233.662 20.8578C233.25 20.1528 232.897 19.3302 232.897 18.4489C232.897 18.3901 232.897 18.3901 232.897 18.3901C232.897 17.5676 233.074 16.8625 233.368 16.2162C233.839 15.2762 234.604 14.5711 235.252 14.1011C235.605 13.866 235.958 13.631 236.253 13.5135C236.547 13.3373 236.783 13.2197 237.018 13.161L238.608 13.2197L241.257 13.2785L244.436 17.6263L244.318 17.6851Z" fill="#101E31"></path><path fill-rule="evenodd" clip-rule="evenodd" d="M265.571 1.64512C265.335 1.64512 265.159 1.70388 264.982 1.76263C264.688 1.88014 264.452 2.05641 264.276 2.29142C264.099 2.52644 264.04 2.82021 264.04 3.17274C264.04 3.349 264.099 3.58402 264.158 3.76028C264.276 3.9953 264.452 4.23032 264.688 4.40658C264.923 4.58285 265.218 4.6416 265.571 4.6416C265.748 4.6416 265.983 4.6416 266.16 4.52409C266.395 4.40658 266.631 4.23032 266.807 3.9953C266.984 3.76028 267.043 3.46651 267.043 3.17274C267.043 2.93772 267.043 2.76146 266.925 2.5852C266.807 2.29142 266.631 2.05641 266.395 1.88014C266.16 1.76263 265.865 1.64512 265.571 1.64512V0C265.983 1.79777e-08 266.395 0.0587545 266.807 0.235018C267.337 0.470036 267.867 0.881317 268.161 1.35135C268.515 1.88014 268.75 2.52644 268.75 3.17274C268.75 3.58402 268.632 3.9953 268.456 4.40658C268.22 4.99413 267.867 5.46416 267.337 5.81669C266.807 6.11046 266.218 6.34548 265.571 6.34548C265.1 6.34548 264.688 6.22797 264.276 6.11046C263.746 5.87544 263.275 5.46416 262.922 4.93537C262.568 4.40658 262.333 3.81904 262.333 3.17274C262.333 2.7027 262.451 2.29142 262.627 1.9389C262.863 1.35135 263.275 0.881317 263.746 0.52879C264.276 0.176263 264.864 -3.08189e-08 265.571 0V1.64512Z" fill="#101E31"></path><path fill-rule="evenodd" clip-rule="evenodd" d="M264.57 5.81668V5.58166H267.396V18.2726C267.396 18.6839 267.219 19.0364 266.925 19.3302C266.631 19.624 266.277 19.8002 265.865 19.8002C265.394 19.8002 265.041 19.624 264.747 19.3302C264.452 19.0364 264.335 18.6839 264.335 18.2726V5.58166H264.57V5.81668H264.864V18.2726C264.864 18.5076 264.982 18.7427 265.159 18.9189C265.335 19.0952 265.571 19.2127 265.865 19.2127C266.101 19.2127 266.336 19.0952 266.513 18.9189C266.689 18.7427 266.807 18.5076 266.807 18.2726V6.11045H264.57V5.81668Z" fill="#101E31"></path><path fill-rule="evenodd" clip-rule="evenodd" d="M265.865 16.6863C266.277 16.6863 266.631 16.8625 266.925 17.1563C267.16 17.4501 267.337 17.8026 267.337 18.2139C267.337 18.6252 267.16 19.0364 266.925 19.2715C266.631 19.5652 266.277 19.7415 265.865 19.7415C265.453 19.7415 265.041 19.5652 264.747 19.2715C264.511 19.0364 264.335 18.6252 264.335 18.2139C264.335 17.8026 264.511 17.4501 264.747 17.1563C265.041 16.8625 265.453 16.6863 265.865 16.6863V17.2738C265.571 17.2738 265.335 17.3913 265.159 17.5676C264.982 17.7438 264.864 17.9789 264.864 18.2139C264.864 18.5076 264.982 18.7427 265.159 18.9189C265.335 19.0952 265.571 19.1539 265.865 19.1539C266.101 19.1539 266.336 19.0952 266.513 18.9189C266.689 18.7427 266.807 18.5076 266.807 18.2139C266.807 17.9789 266.689 17.7438 266.513 17.5676C266.336 17.3913 266.101 17.2738 265.865 17.2738V16.6863Z" fill="#101E31"></path><path fill-rule="evenodd" clip-rule="evenodd" d="M266.16 5.81668V17.0388H265.512V5.81668H266.16Z" fill="#101E31"></path><path fill-rule="evenodd" clip-rule="evenodd" d="M88.5433 19.9177V19.8002L102.967 19.8002V13.7485C102.967 13.631 102.908 13.5723 102.908 13.4548C102.849 13.3372 102.731 13.2197 102.614 13.161C102.496 13.0435 102.319 12.9847 102.202 12.9847H100.494V7.16803C100.494 6.99177 100.377 6.75675 100.2 6.52173C99.9644 6.34547 99.6701 6.22796 99.3168 6.22796C98.9047 6.22796 98.4337 6.22796 98.0216 6.22796C97.1386 6.22796 96.2555 6.22796 95.3724 6.22796V6.11045L95.4902 6.16921L88.661 19.9765L88.5433 19.9177L88.4844 19.859L95.3135 5.99294H95.3724C96.2555 5.99294 97.1386 5.99294 98.0216 5.99294C98.4337 5.99294 98.9047 5.99294 99.3168 5.99294C99.7289 5.99294 100.082 6.16921 100.318 6.40422C100.553 6.58049 100.73 6.87426 100.73 7.16803V12.7497H102.202C102.319 12.7497 102.437 12.8085 102.555 12.8672C102.731 12.926 102.908 13.0435 102.967 13.2197C103.085 13.3372 103.143 13.5135 103.143 13.7485V20.0353L88.3667 20.0353L88.4844 19.859L88.5433 19.9177Z" fill="#101E31"></path><path fill-rule="evenodd" clip-rule="evenodd" d="M95.9611 7.75557V7.63806L99.2579 7.63806V15.2174H92.0756L95.9022 7.63806H95.9611V7.75557L96.0789 7.81432L92.4288 14.9824H99.0225V7.87308L95.9611 7.87307V7.75557Z" fill="#101E31"></path><path fill-rule="evenodd" clip-rule="evenodd" d="M99.1402 15.0999L92.4877 15.0999L95.9611 7.75557H99.1402V15.0999ZM100.612 12.8672V7.16802C100.612 6.69799 100.082 6.11044 99.3168 6.11044C98.0216 6.11044 96.7265 6.11045 95.3724 6.11045L88.5433 19.9177L103.085 19.9177V13.7485C103.085 13.3372 102.614 12.8672 102.202 12.8672H100.612Z" fill="#101E31"></path><path fill-rule="evenodd" clip-rule="evenodd" d="M99.1402 15.0999V15.2174H92.3111L95.9022 7.63806L99.2579 7.63806V15.2174H99.1402V15.0999L99.0225 15.0999L99.0225 7.87308L96.02 7.87307L92.6643 14.9824H99.1402V15.0999ZM100.612 12.8672L100.494 12.8672L100.494 7.16803C100.494 6.99177 100.377 6.75675 100.2 6.52173C99.9644 6.34547 99.6701 6.22796 99.3168 6.22796C98.9047 6.22796 98.4337 6.22796 98.0216 6.22796C97.1386 6.22796 96.2555 6.22796 95.3724 6.22796V6.11045L95.4902 6.16921L88.7199 19.8002L102.967 19.8002V13.7485C102.967 13.631 102.908 13.5723 102.908 13.4548C102.849 13.3372 102.731 13.2197 102.614 13.161C102.496 13.0435 102.319 12.9847 102.202 12.9847H100.494L100.494 12.8672L100.612 12.8672V12.7497L102.202 12.7497C102.319 12.7497 102.437 12.8085 102.555 12.8672C102.731 12.926 102.908 13.0435 102.967 13.2197C103.085 13.3372 103.143 13.5135 103.143 13.7485V20.0353L88.3667 20.0353L95.3135 5.99294H95.3724C96.2555 5.99294 97.1386 5.99294 98.0216 5.99294C98.4337 5.99294 98.9047 5.99294 99.3168 5.99294C99.7289 5.99294 100.082 6.16921 100.318 6.40422C100.553 6.58049 100.73 6.87426 100.73 7.16803L100.73 12.8672L100.612 12.8672Z" fill="#101E31"></path><path fill-rule="evenodd" clip-rule="evenodd" d="M89.132 7.22677V19.9177H88.249V7.22677H89.132Z" fill="#101E31"></path><path fill-rule="evenodd" clip-rule="evenodd" d="M88.3078 7.28552V7.16802H89.2498V20.0352H88.1901V7.16802H88.3078V7.28552H88.4255V19.8002H89.0143V7.40304H88.3078V7.28552Z" fill="#101E31"></path><path fill-rule="evenodd" clip-rule="evenodd" d="M87.8368 8.04934V13.0435H80.5956V8.04934H87.8368Z" fill="#101E31"></path><path fill-rule="evenodd" clip-rule="evenodd" d="M87.8368 8.04934L87.8368 8.16685H80.7722V12.8672H87.7191V8.04934H87.8368H87.9546V13.1022H80.5367V7.99059L87.9546 7.99059V8.04934H87.8368Z" fill="#101E31"></path><path fill-rule="evenodd" clip-rule="evenodd" d="M80.4779 7.81432L88.0723 13.0435L87.9546 13.2197L80.3601 8.04934L80.4779 7.81432Z" fill="#101E31"></path><path fill-rule="evenodd" clip-rule="evenodd" d="M88.0723 8.04934L80.4779 13.2197L80.3601 13.0435L87.9546 7.81432L88.0723 8.04934Z" fill="#101E31"></path><path fill-rule="evenodd" clip-rule="evenodd" d="M87.8368 13.5135V18.4489H80.5956V13.5135H87.8368Z" fill="#101E31"></path><path fill-rule="evenodd" clip-rule="evenodd" d="M87.8368 13.5135L87.8368 13.631H80.7722V18.3314H87.7191V13.5135L87.8368 13.5135L87.9546 13.5135V18.5664H80.5367V13.396H87.9546V13.5135L87.8368 13.5135Z" fill="#101E31"></path><path fill-rule="evenodd" clip-rule="evenodd" d="M80.4779 13.2785L88.0723 18.5076L87.9546 18.6839L80.3601 13.4548L80.4779 13.2785Z" fill="#101E31"></path><path fill-rule="evenodd" clip-rule="evenodd" d="M88.0723 13.4548L80.4779 18.6839L80.3601 18.5076L87.9546 13.2785L88.0723 13.4548Z" fill="#101E31"></path><path fill-rule="evenodd" clip-rule="evenodd" d="M101.377 19.9177C101.377 19.5065 101.024 19.1539 100.612 19.1539C100.141 19.1539 99.7878 19.5065 99.7878 19.9177C99.7878 20.329 100.141 20.6816 100.612 20.6816C101.024 20.6816 101.377 20.329 101.377 19.9177Z" fill="#101E31"></path><path fill-rule="evenodd" clip-rule="evenodd" d="M101.377 19.9177H101.26C101.26 19.7415 101.201 19.5652 101.083 19.4477C100.965 19.3302 100.789 19.2714 100.612 19.2714C100.377 19.2714 100.259 19.3302 100.141 19.4477C99.9644 19.5652 99.9056 19.7415 99.9056 19.9177C99.9056 20.094 99.9644 20.2703 100.141 20.3878C100.259 20.5053 100.377 20.564 100.612 20.564C100.789 20.564 100.965 20.5053 101.083 20.3878C101.201 20.2703 101.26 20.094 101.26 19.9177H101.377H101.495C101.495 20.3878 101.083 20.7991 100.612 20.7991C100.082 20.7991 99.6701 20.3878 99.6701 19.9177C99.6701 19.4477 100.082 19.0364 100.612 19.0364C101.083 19.0364 101.495 19.4477 101.495 19.9177H101.377Z" fill="#101E31"></path><path fill-rule="evenodd" clip-rule="evenodd" d="M102.908 19.9177C102.908 18.6251 101.848 17.6263 100.612 17.6263C99.3168 17.6263 98.2571 18.6251 98.2571 19.9177C98.2571 21.2103 99.3168 22.2092 100.612 22.2092C101.848 22.2092 102.908 21.2103 102.908 19.9177ZM100.612 19.1539C101.024 19.1539 101.377 19.5065 101.377 19.9177C101.377 20.329 101.024 20.6816 100.612 20.6816C100.141 20.6816 99.7878 20.329 99.7878 19.9177C99.7878 19.5065 100.141 19.1539 100.612 19.1539Z" fill="#101E31"></path><path fill-rule="evenodd" clip-rule="evenodd" d="M102.908 19.9177H102.79C102.79 19.3302 102.555 18.7427 102.143 18.3901C101.731 17.9788 101.201 17.7438 100.612 17.7438C99.9644 17.7438 99.4346 17.9788 99.0225 18.3901C98.6104 18.7427 98.3749 19.3302 98.3749 19.9177C98.3749 20.5053 98.6104 21.0928 99.0225 21.4454C99.4346 21.8566 99.9644 22.0917 100.612 22.0917C101.201 22.0917 101.731 21.8566 102.143 21.4454C102.555 21.0928 102.79 20.5053 102.79 19.9177H102.908H103.026C103.026 21.2691 101.907 22.3267 100.612 22.3267C99.258 22.3267 98.1394 21.2691 98.1394 19.9177C98.1394 18.5664 99.258 17.5088 100.612 17.5088C101.907 17.5088 103.026 18.5664 103.026 19.9177H102.908ZM100.612 19.1539V19.0364C101.083 19.0364 101.495 19.4477 101.495 19.9177C101.495 20.3878 101.083 20.7991 100.612 20.7991C100.082 20.7991 99.6701 20.3878 99.6701 19.9177C99.6701 19.4477 100.082 19.0364 100.612 19.0364V19.1539V19.2714C100.377 19.2714 100.259 19.3302 100.141 19.4477C99.9644 19.5652 99.9056 19.7415 99.9056 19.9177C99.9056 20.094 99.9644 20.2703 100.141 20.3878C100.259 20.5053 100.377 20.564 100.612 20.564C100.789 20.564 100.965 20.5053 101.083 20.3878C101.201 20.2703 101.26 20.094 101.26 19.9177C101.26 19.7415 101.201 19.5652 101.083 19.4477C100.965 19.3302 100.789 19.2714 100.612 19.2714V19.1539Z" fill="#101E31"></path><path fill-rule="evenodd" clip-rule="evenodd" d="M91.0159 19.9177C91.0159 19.5065 90.6627 19.1539 90.1917 19.1539C89.7796 19.1539 89.4264 19.5065 89.4264 19.9177C89.4264 20.329 89.7796 20.6816 90.1917 20.6816C90.6627 20.6816 91.0159 20.329 91.0159 19.9177Z" fill="#101E31"></path><path fill-rule="evenodd" clip-rule="evenodd" d="M91.0159 19.9177H90.8982C90.8982 19.7415 90.8393 19.5652 90.7215 19.4477C90.5449 19.3302 90.4272 19.2714 90.1917 19.2714C90.0151 19.2714 89.8385 19.3302 89.7207 19.4477C89.603 19.5652 89.5441 19.7415 89.5441 19.9177C89.5441 20.094 89.603 20.2703 89.7207 20.3878C89.8385 20.5053 90.0151 20.564 90.1917 20.564C90.4272 20.564 90.5449 20.5053 90.7215 20.3878C90.8393 20.2703 90.8982 20.094 90.8982 19.9177H91.0159H91.1336C91.1336 20.3878 90.7215 20.7991 90.1917 20.7991C89.7207 20.7991 89.3086 20.3878 89.3086 19.9177C89.3086 19.4477 89.7207 19.0364 90.1917 19.0364C90.7215 19.0364 91.1336 19.4477 91.1336 19.9177H91.0159Z" fill="#101E31"></path><path fill-rule="evenodd" clip-rule="evenodd" d="M92.5466 19.9177C92.5466 18.6251 91.4869 17.6263 90.1917 17.6263C88.9554 17.6263 87.8957 18.6251 87.8957 19.9177C87.8957 21.2103 88.9554 22.2092 90.1917 22.2092C91.4869 22.2092 92.5466 21.2103 92.5466 19.9177ZM90.1917 19.1539C90.6627 19.1539 91.0159 19.5065 91.0159 19.9177C91.0159 20.329 90.6627 20.6816 90.1917 20.6816C89.7796 20.6816 89.4264 20.329 89.4264 19.9177C89.4264 19.5065 89.7796 19.1539 90.1917 19.1539Z" fill="#101E31"></path><path fill-rule="evenodd" clip-rule="evenodd" d="M92.5466 19.9177H92.4288C92.4288 19.3302 92.1933 18.7427 91.7812 18.3901C91.3691 17.9788 90.8393 17.7438 90.1917 17.7438C89.603 17.7438 89.0731 17.9788 88.661 18.3901C88.2489 18.7427 88.0135 19.3302 88.0135 19.9177C88.0135 20.5053 88.2489 21.0928 88.661 21.4454C89.0731 21.8566 89.603 22.0917 90.1917 22.0917C90.8393 22.0917 91.3691 21.8566 91.7812 21.4454C92.1933 21.0928 92.4288 20.5053 92.4288 19.9177H92.5466H92.6643C92.6643 21.2691 91.5458 22.3267 90.1917 22.3267C88.8965 22.3267 87.778 21.2691 87.778 19.9177C87.778 18.5664 88.8965 17.5088 90.1917 17.5088C91.5458 17.5088 92.6643 18.5664 92.6643 19.9177H92.5466ZM90.1917 19.1539V19.0364C90.7215 19.0364 91.1336 19.4477 91.1336 19.9177C91.1336 20.3878 90.7215 20.7991 90.1917 20.7991C89.7207 20.7991 89.3086 20.3878 89.3086 19.9177C89.3086 19.4477 89.7207 19.0364 90.1917 19.0364V19.1539V19.2714C90.0151 19.2714 89.8385 19.3302 89.7207 19.4477C89.603 19.5652 89.5441 19.7415 89.5441 19.9177C89.5441 20.094 89.603 20.2703 89.7207 20.3878C89.8385 20.5053 90.0151 20.564 90.1917 20.564C90.4272 20.564 90.5449 20.5053 90.7215 20.3878C90.8393 20.2703 90.8982 20.094 90.8982 19.9177C90.8982 19.7415 90.8393 19.5652 90.7215 19.4477C90.5449 19.3302 90.4272 19.2714 90.1917 19.2714V19.1539Z" fill="#101E31"></path><path fill-rule="evenodd" clip-rule="evenodd" d="M36.2062 8.04934L3.82671 8.04934L3.82671 22.5617L36.2062 22.5617V8.04934ZM4.65091 9.45945L35.382 9.45945V21.1516H4.65091L4.65091 9.45945Z" fill="#101E31"></path><path fill-rule="evenodd" clip-rule="evenodd" d="M6.47594 8.93065L6.47594 21.1516H5.53399L5.534 8.93065H6.47594ZM8.24211 8.93065L8.24211 21.1516H7.30017L7.30017 8.93065H8.24211ZM10.0083 8.93065L10.0083 21.1516L9.06631 21.1516L9.06631 8.93065H10.0083ZM11.7744 8.93065L11.7744 21.1516H10.8325L10.8325 8.93065H11.7744ZM13.4817 8.93065L13.4817 21.1516H12.5986L12.5986 8.93065H13.4817ZM15.2478 8.93065L15.2478 21.1516H14.3059L14.3059 8.93065H15.2478ZM17.014 8.93065L17.014 21.1516H16.072L16.072 8.93065H17.014ZM18.7802 8.93065L18.7802 21.1516H17.8382L17.8382 8.93065H18.7802ZM20.5463 8.93065V21.1516H19.6044V8.93065H20.5463ZM22.2536 8.93066V21.1516H21.3116V8.93066H22.2536ZM24.0198 8.93066V21.1516H23.0778V8.93066H24.0198ZM25.7859 8.93066V21.1516H24.844V8.93066H25.7859ZM27.5521 8.93066V21.1516H26.6101V8.93066H27.5521ZM29.2593 8.93066V21.1516H28.3763V8.93066H29.2593ZM31.0255 8.93066V21.1516H30.0835V8.93066H31.0255ZM32.7917 8.93066V21.1516H31.8497V8.93066H32.7917ZM34.5578 8.93066V21.1516H33.6159V8.93066H34.5578Z" fill="#101E31"></path><path fill-rule="evenodd" clip-rule="evenodd" d="M70.4108 8.04934L38.0901 8.04934V22.3854L70.4108 22.3854V8.04934ZM38.8554 9.5182L69.6454 9.51821V20.9753L38.8554 20.9753V9.5182Z" fill="#101E31"></path><path fill-rule="evenodd" clip-rule="evenodd" d="M40.7394 8.81315V21.6804H39.7974V8.81315H40.7394ZM42.5055 8.81315V21.6804H41.5636V8.81315H42.5055ZM44.2128 8.81315V21.6804L43.3297 21.6804V8.81315H44.2128ZM45.979 8.81315V21.6804H45.037V8.81315H45.979ZM47.7451 8.81315V21.6804H46.8032V8.81315H47.7451ZM49.5113 8.81315V21.6804H48.5693V8.81315H49.5113ZM51.2774 8.81315V21.6804H50.3355V8.81315H51.2774ZM52.9847 8.81315V21.6804H52.0427V8.81315H52.9847ZM54.7509 8.81315V21.6804H53.8089V8.81315H54.7509ZM56.517 8.81315V21.6804H55.5751V8.81315H56.517ZM58.2832 8.81315V21.6804H57.3412V8.81315H58.2832ZM59.9905 8.81315V21.6804H59.1074V8.81315H59.9905ZM61.7566 8.81315V21.6804H60.8147V8.81315H61.7566ZM63.5228 8.81315V21.6804H62.5808V8.81315H63.5228ZM65.2889 8.81315V21.6804H64.347V8.81315H65.2889ZM67.0551 8.81315V21.6804H66.1131V8.81315H67.0551ZM68.7624 8.81315V21.6804H67.8204V8.81315H68.7624Z" fill="#101E31"></path><path fill-rule="evenodd" clip-rule="evenodd" d="M15.3067 39.6592C15.0712 41.5981 14.3647 43.067 13.1284 44.1246C11.951 45.1821 10.3026 45.7109 8.30092 45.7109C6.12266 45.7109 4.35651 44.9471 3.06133 43.4195C1.76615 41.8331 1.11855 39.718 1.11855 37.1328L1.11855 35.3701C1.11855 33.6075 1.41293 32.1386 2.00165 30.8461C2.64924 29.4947 3.47343 28.4959 4.59199 27.8496C5.76943 27.1445 7.06463 26.792 8.53643 26.792C10.4792 26.792 12.0687 27.3208 13.2462 28.4371C14.4236 29.4947 15.1301 31.0223 15.3067 32.9612L12.8929 32.9612C12.6574 31.4924 12.1865 30.4348 11.48 29.7885C10.7736 29.0834 9.77273 28.7896 8.53643 28.7896C6.94689 28.7896 5.76945 29.3184 4.88637 30.4935C4.00329 31.6686 3.53231 33.255 3.53231 35.3701V37.1915C3.53231 39.1892 3.94439 40.7756 4.7686 41.9506C5.65168 43.1257 6.82912 43.7133 8.30092 43.7133C9.65497 43.7133 10.7147 43.4195 11.4211 42.832C12.1276 42.1857 12.6574 41.1281 12.8929 39.6592H15.3067Z" fill="#101E31"></path><path fill-rule="evenodd" clip-rule="evenodd" d="M31.0255 29.0247L25.0794 29.0247V45.4759H22.6657V29.0247L16.7785 29.0247V27.027L31.0255 27.027V29.0247Z" fill="#101E31"></path><path fill-rule="evenodd" clip-rule="evenodd" d="M40.0917 37.7203L44.3894 27.027L47.2152 27.027L40.6805 42.4207C40.2095 43.3607 39.7974 44.0658 39.4441 44.4771C39.032 44.8884 38.6199 45.1821 38.0901 45.4172C37.5602 45.6522 36.9127 45.7109 36.1473 45.7109C35.4997 45.7109 35.0876 45.7109 34.911 45.5934L34.9699 43.7133H36.1473C37.0304 43.7133 37.678 43.302 38.0901 42.4794L38.4433 41.8331L38.9143 40.658L32.615 27.027L35.3231 27.027L40.0917 37.7203Z" fill="#101E31"></path><path fill-rule="evenodd" clip-rule="evenodd" d="M65.701 50H63.2872V45.4759H49.9822V50H47.5685V43.4783H49.0402C49.8645 42.5969 50.512 41.3631 50.983 39.8942C51.454 38.3666 51.7483 36.7215 51.8661 34.9001L52.2782 27.027L63.2872 27.027V43.4783H65.701V50ZM51.8661 43.4783H60.8735V29.0247L54.5742 29.0247L54.3387 34.4301C54.221 36.5452 53.9266 38.3666 53.5145 39.8942C53.0435 41.3631 52.5137 42.5382 51.8661 43.4783Z" fill="#101E31"></path><path fill-rule="evenodd" clip-rule="evenodd" d="M80.2423 27.027L82.7149 27.027V45.4759H80.2423V31.2573L71.1761 45.4759H68.7035V27.027L71.1761 27.027V41.2456L80.2423 27.027Z" fill="#101E31"></path><path fill-rule="evenodd" clip-rule="evenodd" d="M96.7853 45.4759V38.3079H92.5465L88.7199 45.4759H86.1295L90.4271 37.6028C88.0134 36.6627 86.836 35.0176 86.836 32.6087C86.836 30.8461 87.4247 29.4947 88.5432 28.4959C89.7207 27.4971 91.3102 27.027 93.3707 27.027L99.2579 27.027V45.4759H96.7853ZM89.2497 32.6087C89.2497 33.725 89.6029 34.6063 90.3094 35.2526C91.0159 35.9577 91.9578 36.3102 93.253 36.3102H96.7853V29.0247L93.3119 29.0247C92.0167 29.0247 91.0159 29.3184 90.3094 29.9647C89.6029 30.611 89.2497 31.4924 89.2497 32.6087Z" fill="#101E31"></path><path fill-rule="evenodd" clip-rule="evenodd" d="M130.637 45.4759H128.223V29.0247L119.098 29.0247V45.4759H116.684V27.027L130.637 27.027V45.4759Z" fill="#101E31"></path><path fill-rule="evenodd" clip-rule="evenodd" d="M145.531 36.9565H137.525L137.525 43.4783H146.826V45.4759H135.052V27.027L146.709 27.027V29.0247L137.525 29.0247V34.9589H145.531V36.9565Z" fill="#101E31"></path><path fill-rule="evenodd" clip-rule="evenodd" d="M152.301 38.2491V45.4759H149.829V27.027L156.658 27.027C158.66 27.027 160.249 27.5558 161.427 28.5546C162.545 29.6122 163.134 30.9636 163.134 32.6674C163.134 34.4888 162.545 35.8402 161.427 36.839C160.308 37.7791 158.718 38.2491 156.658 38.2491H152.301ZM152.301 36.2515H156.658C157.953 36.2515 158.954 35.9577 159.66 35.3702C160.367 34.7239 160.72 33.8425 160.72 32.6674C160.72 31.6099 160.367 30.7286 159.66 30.0823C158.954 29.3772 158.012 29.0834 156.776 29.0247L152.301 29.0247V36.2515Z" fill="#101E31"></path><path fill-rule="evenodd" clip-rule="evenodd" d="M176.674 36.9565L168.668 36.9565V43.4783H177.97V45.4759H166.254L166.254 27.027L177.852 27.027V29.0247L168.668 29.0247V34.9589L176.674 34.9589V36.9565Z" fill="#101E31"></path><path fill-rule="evenodd" clip-rule="evenodd" d="M181.031 45.4759L181.031 27.027L187.036 27.027C189.037 27.027 190.568 27.4383 191.569 28.2609C192.57 29.0834 193.1 30.3173 193.1 31.9624C193.1 32.8437 192.864 33.6075 192.334 34.2538C191.863 34.9001 191.216 35.4289 190.333 35.7814C191.333 36.0752 192.158 36.604 192.688 37.3678C193.276 38.1316 193.571 39.0717 193.571 40.188C193.571 41.8331 193.041 43.1257 191.981 44.0658C190.921 45.0059 189.391 45.4759 187.389 45.4759H181.031ZM183.445 36.8978V43.4783H187.448C188.625 43.4783 189.508 43.1845 190.156 42.5969C190.804 42.0094 191.157 41.2456 191.157 40.188C191.157 38.0141 189.921 36.8978 187.507 36.8978L183.445 36.8978ZM183.445 34.9001L187.095 34.9001C188.213 34.9001 189.037 34.6063 189.685 34.0776C190.333 33.5488 190.627 32.8437 190.627 31.9036C190.627 30.9048 190.333 30.1998 189.744 29.7297C189.155 29.2597 188.272 29.0247 187.036 29.0247H183.445V34.9001Z" fill="#101E31"></path><path fill-rule="evenodd" clip-rule="evenodd" d="M211.409 36.839C211.409 38.6604 211.114 40.2468 210.467 41.5981C209.878 42.9495 208.995 43.9483 207.876 44.6534C206.758 45.3584 205.463 45.7109 203.991 45.7109C202.519 45.7109 201.224 45.3584 200.105 44.6534C198.987 43.9483 198.104 42.9495 197.515 41.5981C196.867 40.3055 196.573 38.7779 196.514 37.0153V35.6639C196.514 33.9013 196.867 32.3149 197.456 30.9636C198.104 29.6122 198.928 28.5546 200.105 27.8496C201.224 27.1445 202.519 26.792 203.932 26.792C205.463 26.792 206.758 27.1445 207.876 27.8496C208.995 28.5546 209.878 29.6122 210.467 30.9636C211.114 32.3149 211.409 33.9013 211.409 35.6639V36.839ZM208.995 35.6639C208.995 33.49 208.524 31.7861 207.641 30.611C206.758 29.436 205.522 28.8484 203.932 28.8484C202.401 28.8484 201.224 29.436 200.341 30.611C199.458 31.7861 198.987 33.4313 198.928 35.4877V36.839C198.928 38.9542 199.399 40.6581 200.282 41.8331C201.165 43.067 202.401 43.6545 203.991 43.6545C205.58 43.6545 206.758 43.067 207.641 41.9507C208.524 40.7756 208.936 39.1892 208.995 37.0153V35.6639Z" fill="#101E31"></path><path fill-rule="evenodd" clip-rule="evenodd" d="M224.537 31.9624C224.537 31.0223 224.184 30.1998 223.478 29.6122C222.712 29.0834 221.711 28.7897 220.416 28.7897C219.356 28.7897 218.473 29.0834 217.708 29.671C217.002 30.2585 216.648 31.0223 216.648 31.9036L214.176 31.9036C214.176 30.9048 214.47 30.0235 215 29.2597C215.53 28.4959 216.295 27.8496 217.237 27.4383C218.179 26.9683 219.298 26.792 220.416 26.792C222.477 26.792 224.125 27.262 225.244 28.1434C226.362 29.0834 226.951 30.376 226.951 32.0212C226.951 32.9025 226.715 33.6663 226.186 34.3713C225.656 35.0764 224.89 35.6052 223.948 36.0165C226.127 36.7215 227.245 38.1904 227.245 40.3055C227.245 42.0094 226.598 43.302 225.361 44.3008C224.125 45.2409 222.477 45.7109 220.416 45.7109C219.18 45.7109 218.12 45.5347 217.119 45.0646C216.119 44.6534 215.294 44.0071 214.764 43.2433C214.176 42.4207 213.94 41.4806 213.94 40.3643H216.354C216.354 41.3044 216.707 42.1269 217.531 42.7732C218.297 43.4195 219.239 43.7133 220.416 43.7133C221.77 43.7133 222.83 43.4195 223.595 42.832C224.419 42.1857 224.773 41.3631 224.773 40.3643C224.773 38.1904 223.478 37.1328 220.769 37.074H218.473V35.0764H220.769C222.006 35.0764 222.948 34.7826 223.595 34.2538C224.184 33.725 224.537 32.9612 224.537 31.9624Z" fill="#101E31"></path><path fill-rule="evenodd" clip-rule="evenodd" d="M244.671 36.839C244.671 38.6604 244.377 40.2468 243.788 41.5981C243.141 42.9495 242.316 43.9483 241.198 44.6534C240.079 45.3584 238.784 45.7109 237.254 45.7109C235.782 45.7109 234.545 45.3584 233.427 44.6534C232.249 43.9483 231.425 42.9495 230.778 41.5981C230.13 40.3055 229.836 38.7779 229.836 37.0153V35.6639C229.836 33.9013 230.13 32.3149 230.719 30.9636C231.366 29.6122 232.249 28.5546 233.368 27.8496C234.487 27.1445 235.782 26.792 237.254 26.792C238.725 26.792 240.02 27.1445 241.139 27.8496C242.258 28.5546 243.141 29.6122 243.788 30.9636C244.377 32.3149 244.671 33.9013 244.671 35.6639V36.839ZM242.258 35.6639C242.258 33.49 241.787 31.7861 240.962 30.611C240.079 29.436 238.843 28.8484 237.254 28.8484C235.723 28.8484 234.487 29.436 233.603 30.611C232.72 31.7861 232.249 33.4313 232.249 35.4877V36.839C232.249 38.9542 232.661 40.6581 233.603 41.8331C234.487 43.067 235.723 43.6545 237.254 43.6545C238.843 43.6545 240.079 43.067 240.904 41.9507C241.787 40.7756 242.258 39.1892 242.258 37.0153V35.6639Z" fill="#101E31"></path><path fill-rule="evenodd" clip-rule="evenodd" d="M253.149 37.1328H250.853L250.853 45.4759H248.439V27.027L250.853 27.027V35.1351H252.796L259.272 27.027L262.274 27.027L255.209 35.9577L262.804 45.4759H259.801L253.149 37.1328Z" fill="#101E31"></path></svg>