<svg xmlns="http://www.w3.org/2000/svg" width="18" height="18" viewBox="0 0 18 18" fill="none"><path d="M17.5173 13.3394L14.6785 10.487C14.0343 9.83575 12.9884 9.83449 12.3426 10.4842C12.3417 10.4851 12.3408 10.486 12.3398 10.487L10.7133 12.1271C10.5903 12.2515 10.3964 12.2687 10.2537 12.1679C9.36347 11.5405 8.53013 10.8348 7.76344 10.0591C7.07679 9.36825 6.44513 8.62403 5.87426 7.83319C5.77078 7.69112 5.78582 7.49414 5.9096 7.36969L7.57651 5.6888C8.22007 5.03859 8.22007 3.98577 7.57651 3.33556L4.73772 0.472974C4.08357 -0.157658 3.05317 -0.157658 2.39901 0.472974L1.49991 1.37961C0.142048 2.73346 -0.342695 4.74372 0.247178 6.57509C0.687347 7.91496 1.30954 9.18685 2.09594 10.3545C2.8039 11.425 3.61611 12.4215 4.52054 13.3292C5.50382 14.3278 6.59299 15.2143 7.76848 15.9728C9.06069 16.8231 10.4795 17.4593 11.9711 17.8574C12.3546 17.9527 12.7481 18.0006 13.143 18C14.4968 17.9916 15.792 17.4421 16.7445 16.4719L17.5174 15.6926C18.1609 15.0424 18.1609 13.9896 17.5173 13.3394ZM16.802 14.9979C16.8014 14.9986 16.8007 14.9993 16.8 14.9999L16.805 14.9847L16.0322 15.764C15.0392 16.7779 13.593 17.1951 12.2185 16.8642C10.8336 16.4904 9.51714 15.8954 8.31893 15.1018C7.20572 14.3844 6.17408 13.5458 5.24271 12.6009C4.38575 11.743 3.61587 10.8011 2.94437 9.78919C2.20989 8.70031 1.62854 7.51414 1.21684 6.2644C0.744884 4.79625 1.13598 3.18526 2.22711 2.10295L3.12621 1.1963C3.37619 0.943097 3.78239 0.942202 4.03343 1.19428C4.03408 1.19493 4.03479 1.19559 4.03544 1.1963L6.87423 4.05889C7.12533 4.31096 7.12622 4.72056 6.87624 4.97371C6.87559 4.97436 6.87494 4.97502 6.87423 4.97574L5.20731 6.65663C4.72902 7.13367 4.66888 7.89174 5.0659 8.43941C5.66879 9.27376 6.33597 10.0589 7.06116 10.7876C7.8697 11.6064 8.74868 12.3513 9.68779 13.0135C10.2304 13.3952 10.9661 13.3308 11.4355 12.8607L13.0468 11.2104C13.2968 10.9572 13.703 10.9563 13.9541 11.2083C13.9547 11.209 13.9554 11.2096 13.9561 11.2104L16.7999 14.0832C17.0511 14.3352 17.052 14.7447 16.802 14.9979Z" fill="#7C828C"></path></svg>