<svg width="62" height="56" viewBox="0 0 62 56" fill="none" xmlns="http://www.w3.org/2000/svg">
<path opacity="0.7" fill-rule="evenodd" clip-rule="evenodd" d="M37.9622 0.0771248C36.9339 0.344459 36.2593 0.869009 35.8243 1.73956L35.539 2.31037V12.6712C35.539 21.1387 35.5693 23.1175 35.7051 23.4997C35.9165 24.0951 36.5934 24.842 37.227 25.1792L37.7199 25.4416L48.5551 25.4743C60.7943 25.5111 60.1186 25.5588 61.0942 24.5888C62.0679 23.6206 62.0221 24.2404 61.9849 12.5419C61.9519 2.19002 61.9519 2.1899 61.69 1.708C61.3511 1.08466 60.7441 0.511077 60.1345 0.238321C59.6806 0.0351996 58.9719 0.0201402 48.9878 0.00194842C43.1236 -0.0086534 38.1621 0.0250795 37.9622 0.0771248ZM43.5678 5.75946L43.5999 9.08807L43.9175 9.40384C44.3992 9.88285 45.0069 9.83453 46.0541 9.23433L46.9007 8.74893L47.6498 9.23433C48.6472 9.88056 49.0679 9.88104 50.0924 9.2377C50.5145 8.97265 50.8824 8.7558 50.91 8.7558C50.9375 8.7558 51.3332 8.97265 51.7894 9.2377C52.7835 9.81538 53.3449 9.8673 53.8577 9.42901L54.1977 9.13843L54.2582 5.78464L54.3188 2.43085L56.6684 2.39808C58.6227 2.37085 59.0659 2.39663 59.3036 2.55145L59.5893 2.73758V12.6946C59.5893 21.7907 59.572 22.6708 59.3888 22.872C59.1975 23.0822 58.708 23.0924 48.7336 23.0924H38.2788L38.0903 22.8245C37.9233 22.5877 37.9016 21.4388 37.9016 12.833C37.9016 7.03228 37.9478 2.98853 38.0159 2.81023C38.0788 2.6459 38.2286 2.48542 38.3491 2.45374C38.4695 2.42205 39.6857 2.40398 41.0518 2.4135L43.5356 2.43085L43.5678 5.75946ZM51.835 4.42182V6.47291L51.4569 6.27847C50.9627 6.02438 50.4954 6.12113 49.6597 6.6505C49.2964 6.88072 48.9412 7.06915 48.8706 7.06915C48.8 7.06915 48.4568 6.87807 48.1081 6.64459C47.3152 6.11354 46.8942 6.02306 46.3995 6.27738L46.0193 6.47291V4.42182V2.37061H48.9272H51.835V4.42182ZM8.67753 11.6568C5.86164 12.0674 3.2395 13.7381 1.63255 16.1454C0.688709 17.5594 0.132826 19.248 0.0199048 21.0443C-0.28348 25.8717 2.908 30.1785 7.76229 31.4922C8.45556 31.6798 10.0989 31.703 26.9972 31.7621L45.4741 31.8268L46.1669 32.1497C46.9848 32.5309 47.9475 33.3895 48.3803 34.1238C48.5503 34.4123 48.778 35.0384 48.8864 35.5154C49.052 36.2448 49.0602 36.5063 48.9387 37.1622C48.5879 39.0554 47.2644 40.5142 45.4778 40.9769C44.8835 41.1309 43.8856 41.1636 39.7955 41.1636H34.8342L35.5736 40.3979C36.3897 39.553 36.5508 39.1722 36.3235 38.6266C36.118 38.1331 35.762 37.9108 35.1774 37.9108C34.7063 37.9108 34.6143 37.9843 32.6923 39.898C30.0319 42.5471 30.0304 42.2011 32.7143 44.8561C34.6171 46.7385 34.7269 46.826 35.1862 46.826C35.7624 46.826 36.1189 46.6017 36.3235 46.1102C36.5508 45.5646 36.3897 45.1838 35.5736 44.3389L34.8342 43.5731H39.9228C45.5726 43.5731 46.0093 43.5254 47.5806 42.7368C49.142 41.953 50.5933 40.2035 51.134 38.4529C51.4713 37.3612 51.4925 35.6368 51.1815 34.5977C50.4914 32.2917 48.7266 30.4353 46.5127 29.6866L45.7164 29.4173L27.2395 29.3571L8.76258 29.2968L7.76725 28.9617C5.38827 28.1604 3.47515 26.2288 2.72941 23.8754C2.32461 22.5977 2.35369 20.4739 2.79266 19.257C3.65556 16.8651 5.4228 15.1222 7.7933 14.3251L8.76258 13.9992L17.5269 13.9376L26.2914 13.876L26.5837 13.5379C26.8971 13.1756 26.9731 12.5345 26.7512 12.1225C26.4269 11.5199 26.5182 11.5256 17.6436 11.5414C13.0922 11.5495 9.05749 11.6014 8.67753 11.6568ZM30.6784 11.7126C29.9499 12.0793 29.8018 13.0088 30.3804 13.5841C30.9728 14.1732 31.9089 14.0084 32.2702 13.2513C32.7628 12.2191 31.7045 11.1961 30.6784 11.7126ZM41.9605 17.6904C41.2127 18.0993 41.062 19.0249 41.6483 19.6078L42.0024 19.96H44.7472H47.4919L47.8461 19.6078C48.2242 19.2318 48.3225 18.6053 48.0754 18.1462C47.7929 17.6212 47.3911 17.5503 44.7229 17.5541C43.1248 17.5565 42.1141 17.6063 41.9605 17.6904ZM17.9708 34.8306C16.1886 35.1804 14.8353 35.8885 13.5994 37.1178C12.6207 38.0916 11.9799 39.1103 11.5164 40.4292C11.2296 41.245 11.1948 41.521 11.1948 42.9708C11.1948 44.4349 11.2281 44.692 11.5283 45.5477C11.7117 46.0706 12.009 46.7483 12.1888 47.0537C12.4501 47.4977 18.3047 55.4255 18.6281 55.7733C18.8013 55.9597 19.4349 56.0603 19.8097 55.9611C20.136 55.8748 20.6726 55.22 23.3229 51.6739C25.0434 49.372 26.6294 47.1549 26.8473 46.7469C27.4204 45.6746 27.7245 44.3659 27.7223 42.9816C27.7187 40.6339 26.9783 38.8545 25.3051 37.1727C24.4213 36.2843 24.1039 36.0543 23.1201 35.5894C22.487 35.2902 21.7164 34.9862 21.4076 34.9137C20.4512 34.6893 18.8837 34.6515 17.9708 34.8306ZM20.6757 37.2507C21.8261 37.5203 22.7282 38.0103 23.5547 38.8144C25.3925 40.6023 25.8416 43.3813 24.664 45.6815C24.5283 45.9465 23.2977 47.6651 21.9293 49.5006L19.4413 52.8378L17.0313 49.6211C13.9745 45.5407 13.5467 44.7245 13.5499 42.979C13.5548 40.2435 15.5088 37.8279 18.1844 37.2499C19.1841 37.034 19.7518 37.0341 20.6757 37.2507ZM18.2594 39.4024C16.22 40.1271 15.199 42.2214 15.8933 44.2564C16.5205 46.0943 18.7688 47.1615 20.6827 46.5295C21.5163 46.2542 22.5166 45.338 22.8883 44.5092C23.2861 43.6224 23.2861 42.3191 22.8883 41.4323C22.5311 40.636 21.5577 39.7322 20.7493 39.4463C20.0531 39.2 18.8867 39.1794 18.2594 39.4024ZM20.3365 41.9915C20.9589 42.6104 20.9589 43.3311 20.3365 43.95C19.667 44.6157 18.4555 44.3054 18.1518 43.3904C17.7254 42.1056 19.3835 41.0439 20.3365 41.9915Z" fill="#D41D12"/>
</svg>
