<svg width="53" height="53" viewBox="0 0 53 53" fill="none" xmlns="http://www.w3.org/2000/svg">
<path fill-rule="evenodd" clip-rule="evenodd" d="M24.7724 0.0986156C23.7239 0.249546 22.3361 0.691564 21.2415 1.22319C18.3685 2.61834 16.1677 5.12863 15.1432 8.17894C14.2527 10.8299 14.3993 14.0503 15.5294 16.6626C15.9882 17.7232 25.8265 34.35 26.0734 34.4821C26.3621 34.6364 26.7479 34.6022 26.9828 34.4015C27.2984 34.1316 37.0963 17.49 37.4756 16.5795C37.655 16.1488 37.9222 15.3502 38.0694 14.8048C38.3118 13.9066 38.337 13.632 38.337 11.8966C38.337 10.1491 38.3129 9.89035 38.0624 8.96115C37.7523 7.81016 36.984 6.12662 36.3289 5.16251C34.5202 2.50056 31.3458 0.546539 28.0961 0.0947828C27.176 -0.0330472 25.6747 -0.0313897 24.7724 0.0986156ZM28.9657 1.94946C30.7049 2.37956 32.4888 3.40303 33.7926 4.71904C35.0153 5.9531 35.8532 7.38814 36.4028 9.18884C36.6498 9.9985 36.6766 10.2515 36.684 11.8448C36.6935 13.892 36.5242 14.719 35.7784 16.2672C35.3406 17.1763 26.5787 32.0906 26.4826 32.0905C26.3851 32.0904 17.4716 16.9122 17.1109 16.132C16.4327 14.665 16.2721 13.8345 16.2813 11.8448C16.2886 10.2515 16.3155 9.9985 16.5625 9.18884C16.9399 7.95229 17.2721 7.237 17.9229 6.25952C19.4847 3.91404 21.8972 2.32932 24.7222 1.79314C25.7888 1.59062 27.8167 1.66541 28.9657 1.94946ZM7.53786 3.32575C7.21592 3.66822 6.43015 5.38139 6.01731 6.64105C5.35333 8.66664 5.18521 9.80199 5.18521 12.2591C5.18521 14.7692 5.35965 15.9074 6.07442 18.0602C6.58355 19.5936 6.95576 20.3025 7.31874 20.4296C7.74516 20.579 8.12141 20.4298 8.30871 20.0371C8.47206 19.6948 8.46667 19.6682 7.999 18.5119C7.07755 16.2338 6.72286 14.1493 6.82195 11.595C6.9144 9.2107 7.38104 7.29066 8.4022 5.09175C8.93994 3.93383 8.97393 3.60876 8.58898 3.30617C8.23159 3.02514 7.81305 3.0329 7.53786 3.32575ZM44.3763 3.30617C43.9883 3.61114 44.0245 3.9734 44.5548 5.09144C45.5388 7.16635 46.0446 9.23546 46.142 11.5858C46.246 14.0943 45.8915 16.1755 44.9631 18.5054C44.5401 19.567 44.5087 19.7045 44.6252 19.9855C44.7686 20.3316 45.0066 20.4945 45.369 20.4945C45.9345 20.4945 46.1841 20.1055 46.8596 18.1709C47.9665 15.0005 48.1282 11.2999 47.3065 7.93696C46.8645 6.12817 45.957 3.90762 45.4213 3.32451C45.1532 3.03259 44.7336 3.02524 44.3763 3.30617ZM25.246 5.16551C23.1444 5.60887 21.3572 6.91473 20.4247 8.68829C19.4128 10.613 19.3723 13.0376 20.3204 14.9525C21.5012 17.3373 23.8104 18.7667 26.4826 18.7667C29.5484 18.7667 32.0437 16.9122 33.0783 13.8648C33.2301 13.4179 33.2712 12.9935 33.2694 11.8966C33.2675 10.6457 33.2381 10.4179 32.9918 9.73828C31.9844 6.95979 29.6174 5.20498 26.7418 5.1047C26.1717 5.08492 25.4986 5.11226 25.246 5.16551ZM10.6864 6.43822C10.4384 6.68611 9.91487 8.13025 9.64393 9.31387C9.38242 10.4567 9.27255 12.2094 9.38594 13.4323C9.52339 14.9157 9.97499 16.7458 10.2786 17.0502C10.6177 17.3902 11.1654 17.3666 11.4543 16.9995C11.7077 16.6776 11.6995 16.5219 11.3637 15.2749C10.7499 12.9963 10.9182 10.1791 11.8093 7.81285C12.139 6.93752 12.1403 6.77271 11.8208 6.45344C11.4909 6.12361 11.0077 6.11719 10.6864 6.43822ZM41.1445 6.45344C40.8337 6.7639 40.8243 7.06017 41.1048 7.69393C41.4419 8.45553 41.8106 10.0505 41.9226 11.2312C42.0451 12.5243 41.9208 14.0899 41.6014 15.2759C41.2658 16.5218 41.2576 16.6776 41.511 16.9995C41.6741 17.2069 41.8268 17.2833 42.0781 17.2833C42.6678 17.2833 42.847 17.0329 43.1932 15.7258C43.4696 14.6824 43.5138 14.3179 43.5575 12.7253C43.5955 11.3402 43.5677 10.6854 43.4399 9.95023C43.2116 8.63681 42.5892 6.74836 42.2841 6.4435C41.9575 6.11709 41.4768 6.12133 41.1445 6.45344ZM27.54 6.83155C29.9088 7.32526 31.6652 9.48045 31.6652 11.8936C31.6652 14.2288 30.2829 16.1391 28.0571 16.8797C25.3076 17.7946 22.1909 16.0996 21.459 13.2914C20.9751 11.4348 21.5353 9.46491 22.9138 8.17614C24.2061 6.96797 25.8717 6.4839 27.54 6.83155ZM25.8089 8.98363C24.8402 9.23918 23.9273 10.0764 23.6248 10.9867C23.1321 12.4691 23.9861 14.2497 25.4249 14.7397C26.0293 14.9454 26.936 14.9454 27.5404 14.7397C28.9816 14.2489 29.8332 12.4693 29.3387 10.9816C29.1185 10.3187 28.4011 9.50665 27.7765 9.21329C27.2569 8.96913 26.291 8.85642 25.8089 8.98363ZM27.0752 10.7229C27.6104 10.9767 27.8517 11.4186 27.7973 12.0455C27.7604 12.4725 27.6912 12.6138 27.3785 12.9002C27.0583 13.1934 26.9282 13.2432 26.4826 13.2432C26.037 13.2432 25.907 13.1934 25.5868 12.9002C24.8844 12.2569 25.0314 11.1415 25.8733 10.727C26.3194 10.5074 26.6186 10.5064 27.0752 10.7229ZM13.63 22.8364C12.7638 23.0688 1.77263 29.0056 1.21178 29.5442C0.963222 29.7828 0.595471 30.3152 0.382573 30.7446L0 31.5161V41.4143V51.3125L0.245444 51.7406C0.552145 52.2756 1.12087 52.6074 1.73086 52.6074C2.1353 52.6074 2.865 52.2429 7.88395 49.5339C11.0157 47.8434 13.8056 46.3995 14.0836 46.3251C14.4495 46.2271 14.7138 46.2178 15.0414 46.2911C15.2903 46.3469 20.4501 47.8677 26.5076 49.6705C38.6657 53.2891 38.4259 53.2321 39.609 52.7922C39.9591 52.6621 42.7478 51.2046 45.806 49.5533C49.7376 47.4305 51.4912 46.4291 51.7918 46.1348C52.0257 45.906 52.3854 45.3691 52.5911 44.9418L52.9653 44.1648L52.9938 34.4998C53.0133 27.8911 52.9873 24.7051 52.9117 24.4243C52.6812 23.569 51.8742 23.0018 51.0455 23.1129C50.7975 23.1461 48.5082 24.3212 44.8342 26.3009C39.1599 29.3585 39.001 29.4363 38.424 29.4386C37.9914 29.4404 37.2633 29.2688 35.7157 28.8006C34.5516 28.4484 33.465 28.1602 33.3012 28.1602C32.9339 28.1602 32.4944 28.5733 32.4944 28.9185C32.4944 29.4999 32.759 29.6399 35.2843 30.3938L37.6702 31.1061L37.6995 35.288L37.7287 39.4699L37.9734 39.6679C38.3356 39.9609 38.8578 39.9268 39.1204 39.5929C39.3297 39.3271 39.3353 39.2118 39.3353 35.1468V30.9736L39.6203 30.9096C39.777 30.8744 42.4474 29.475 45.5543 27.7997C48.6612 26.1246 51.2385 24.7888 51.2816 24.8313C51.3247 24.8739 51.348 28.7568 51.3334 33.46L51.3069 42.0112L48.0419 40.6227C44.7715 39.2318 44.2238 39.0562 43.5501 39.1825C43.3513 39.2198 42.17 39.8601 40.9251 40.6054C39.6801 41.3507 38.6003 41.9849 38.5253 42.0145C38.4505 42.0442 36.4366 41.5646 34.0499 40.9489L29.7106 39.8292V39.275C29.7106 38.0544 28.992 36.9339 27.8517 36.3763C27.3617 36.1366 27.1289 36.0881 26.4833 36.0914C25.6039 36.0955 24.9992 36.3128 24.3977 36.8406L24.0335 37.1603L21.6043 35.7512C18.7873 34.117 18.338 33.9171 17.6592 33.9962C17.3902 34.0275 15.8437 34.6032 14.1389 35.3065C11.9755 36.199 11.0025 36.552 10.766 36.5301C10.4876 36.5042 9.88647 35.9728 7.05133 33.2467C5.19091 31.4579 3.70612 29.9577 3.75193 29.913C3.79764 29.8684 6.00394 28.665 8.6548 27.2388L13.4745 24.6457L13.5264 28.464C13.5748 32.0326 13.5911 32.2965 13.7756 32.5002C14.072 32.8272 14.6917 32.7987 14.9699 32.4452C15.1785 32.1801 15.1848 32.0606 15.1848 28.2996V24.427L15.4698 24.4965C15.6265 24.5349 15.9356 24.6289 16.1566 24.7057C17.0342 25.0106 17.6724 24.7677 17.6724 24.1287C17.6724 23.4601 17.4802 23.3257 15.9599 22.9309C14.8203 22.635 14.4388 22.6196 13.63 22.8364ZM6.59122 35.1063C9.76375 38.1699 9.91073 38.2724 11.0093 38.1875C11.4742 38.1516 12.2957 37.8578 14.6665 36.8798C16.3482 36.186 17.7963 35.6185 17.8844 35.6186C17.9725 35.6186 19.2086 36.2905 20.6312 37.1116L23.2177 38.6044L23.2725 39.4683C23.3607 40.8572 23.9742 41.7587 25.2187 42.3281C25.7072 42.5515 25.8855 42.5782 26.6228 42.5378C27.5412 42.4873 28.0657 42.2829 28.696 41.7299C28.8904 41.5592 29.1133 41.4202 29.1912 41.4207C29.2692 41.4214 31.1987 41.9126 33.479 42.5125C35.7593 43.1123 37.8121 43.6293 38.0407 43.6615C38.7372 43.7596 39.2712 43.5305 41.5918 42.1374C42.8191 41.4009 43.9211 40.799 44.0409 40.8001C44.1606 40.8012 45.8212 41.4683 47.7309 42.2826C51.0072 43.6796 51.2017 43.7774 51.1759 44.0158C51.1092 44.6321 50.6377 45.0515 49.0266 45.9273C44.1296 48.5893 39.5178 51.0536 39.4329 51.0536C39.3743 51.0536 39.3353 49.9699 39.3353 48.341C39.3353 45.6985 39.3295 45.6222 39.1099 45.3887C38.7829 45.0408 38.1786 45.0573 37.8917 45.4219C37.6864 45.6826 37.6769 45.8192 37.6769 48.4848V51.2747L37.4531 51.2037C37.0172 51.0655 31.0958 49.3017 23.1922 46.9557L15.1856 44.5792L15.1852 41.7704C15.1848 39.0859 15.1752 38.9494 14.9699 38.6886C14.6665 38.303 14.0446 38.303 13.7412 38.6886C13.5356 38.9498 13.5264 39.0848 13.5264 41.8355V44.7094L13.1895 44.8465C13.0043 44.9218 10.6138 46.1901 7.87742 47.665C5.14105 49.14 2.64909 50.4825 2.33959 50.6483C2.0302 50.8143 1.73801 50.95 1.69022 50.95C1.64244 50.95 1.6158 46.6498 1.63094 41.3938L1.6584 31.8376L1.90229 31.3426L2.14629 30.8475L2.9388 31.5962C3.37475 32.0079 5.01833 33.5875 6.59122 35.1063ZM27.1716 37.905C28.6498 38.6202 28.1491 40.9018 26.5139 40.9018C24.808 40.9018 24.2628 38.6607 25.7855 37.9073C26.3354 37.6353 26.6131 37.6348 27.1716 37.905Z" fill="#D41D12"/>
</svg>
