<svg width="67" height="60" viewBox="0 0 67 60" fill="none" xmlns="http://www.w3.org/2000/svg">
<g clip-path="url(#clip0_1_12)">
<path d="M67.0002 52.6454C66.9454 52.7304 66.9013 52.8219 66.8691 52.9176C66.0827 56.6654 63.5307 59.1705 59.7704 59.8713C59.1894 59.965 58.6011 60.006 58.0127 59.9938C41.6911 59.9999 25.3686 59.9999 9.04525 59.9938C5.28356 59.9938 2.45246 58.3889 0.827201 54.968C-0.491356 52.192 -0.163683 49.4708 1.3659 46.8459C5.28661 40.1058 9.20253 33.3658 13.1136 26.6257C17.3463 19.3411 21.5759 12.0557 25.8025 4.76939C27.2167 2.32427 29.2103 0.707646 32.0427 0.210023C32.4857 0.13056 32.9339 0.0797553 33.3809 0.00680542H33.643C34.1109 0.081058 34.5789 0.146192 35.0441 0.229563C37.6734 0.701132 39.6316 2.13017 40.979 4.39813C42.4129 6.81199 43.8166 9.2493 45.2269 11.6918C45.6201 12.3718 45.5035 12.9645 44.9464 13.2628C44.3894 13.5612 43.8979 13.3579 43.5047 12.6779C42.1049 10.2836 40.7312 7.87497 39.317 5.48977C37.2291 1.97254 32.9497 0.95776 29.7136 3.28955C28.9109 3.88323 28.2384 4.63319 27.737 5.49368C19.4648 19.6564 11.2192 33.8343 3.00033 48.0274C0.753802 51.9055 2.59008 56.5104 6.81576 57.7297C7.44455 57.9016 8.09431 57.9857 8.74641 57.9798C25.2498 57.9929 41.7532 57.995 58.2565 57.9864C62.0274 57.9864 64.8532 55.2963 65.004 51.5668C65.059 50.2172 64.6029 48.9836 63.9226 47.815C57.8935 37.4596 51.8721 27.1016 45.8587 16.741C45.6706 16.4501 45.5054 16.1453 45.3645 15.8291C45.1679 15.3263 45.2925 14.8769 45.7761 14.5981C46.2597 14.3193 46.7015 14.4444 47.0501 14.8664C47.1678 15.0221 47.273 15.1868 47.3647 15.3589C53.4594 25.8497 59.5471 36.3445 65.6279 46.8433C66.2413 47.9088 66.5453 49.1477 67.0028 50.3058L67.0002 52.6454Z" fill="#D41D12"/>
<path d="M56.1561 50.1661L33.5113 11.1939L10.8651 50.17C11.9294 50.17 12.8731 50.1531 13.8155 50.17C14.5167 50.1856 14.923 50.6689 14.8064 51.315C14.7133 51.8361 14.3686 52.1071 13.8482 52.111C12.2754 52.1214 10.7026 52.1344 9.14022 52.111C8.304 52.0967 7.90817 51.3372 8.33153 50.5764C8.94231 49.4783 9.58979 48.401 10.2202 47.3197L32.3264 9.28157C32.4129 9.13176 32.4928 8.97804 32.5885 8.83345C33.1233 8.01016 33.9398 8.00625 34.4484 8.8595C35.434 10.5165 36.3922 12.1904 37.3608 13.8566C44.38 25.9315 51.3992 38.0099 58.4184 50.0918C58.5569 50.3115 58.6791 50.541 58.784 50.7783C58.8448 50.9173 58.8715 51.0687 58.862 51.22C58.8524 51.3713 58.8069 51.5181 58.7291 51.6485C58.6513 51.7788 58.5434 51.889 58.4145 51.9698C58.2855 52.0507 58.139 52.1 57.9871 52.1136C57.7917 52.1273 57.5957 52.1299 57.3999 52.1214H17.7017C16.6439 52.1214 16.1577 51.814 16.1564 51.1444C16.1551 50.4748 16.6466 50.1661 17.6951 50.1661H56.1508H56.1561Z" fill="#D41D12"/>
<path d="M37.0261 30.3018C37.0261 33.0713 37.0261 35.8416 37.0261 38.6129C37.0261 39.7123 36.6971 40.0315 35.5843 40.0328C34.1425 40.0328 32.71 40.0328 31.2721 40.0328C30.3782 40.0328 30.0008 39.6667 30.0008 38.7718C29.9946 33.1216 29.9946 27.4719 30.0008 21.8227C30.0008 20.8834 30.3599 20.5421 31.3115 20.5395C32.7698 20.5395 34.2291 20.5395 35.6892 20.5395C36.6774 20.5395 37.0261 20.8795 37.0274 21.8604C37.0309 24.6733 37.0304 27.4871 37.0261 30.3018ZM34.9394 38.0293V22.5274H32.0834V38.0293H34.9394Z" fill="#D41D12"/>
<path d="M33.5359 41.2104C35.4417 41.2195 37.0433 42.8218 37.0197 44.699C37.0042 45.6188 36.6249 46.4956 35.9638 47.1395C35.3027 47.7834 34.413 48.1426 33.4874 48.1394C31.5699 48.1198 29.9787 46.5279 30.0023 44.6508C30.0225 43.7322 30.4035 42.858 31.0639 42.2151C31.7242 41.5722 32.6115 41.2116 33.5359 41.2104V41.2104ZM34.9777 44.6677C34.9728 44.3808 34.8828 44.1016 34.7191 43.8652C34.5553 43.6288 34.3251 43.4457 34.0571 43.3387C33.7892 43.2317 33.4954 43.2056 33.2127 43.2637C32.9299 43.3219 32.6706 43.4616 32.4673 43.6654C32.264 43.8692 32.1258 44.1281 32.0698 44.4097C32.0138 44.6912 32.0426 44.983 32.1526 45.2483C32.2626 45.5137 32.4489 45.7409 32.6882 45.9015C32.9275 46.0622 33.2092 46.1491 33.4979 46.1515C33.6936 46.1518 33.8873 46.1136 34.068 46.039C34.2487 45.9645 34.4128 45.855 34.5506 45.717C34.6885 45.5791 34.7974 45.4153 34.8712 45.2351C34.945 45.055 34.982 44.8622 34.9803 44.6677H34.9777Z" fill="#D41D12"/>
</g>
<defs>
<clipPath id="clip0_1_12">
<rect width="67" height="60" fill="white"/>
</clipPath>
</defs>
</svg>
