<svg width="70" height="67" viewBox="0 0 70 67" fill="none" xmlns="http://www.w3.org/2000/svg">
<path d="M28.5097 0C32.097 2.0848 35.6849 4.16853 39.2733 6.25118C44.6543 9.36386 50.0482 12.4475 55.4114 15.5924C55.6227 15.7406 55.7994 15.9327 55.9292 16.1557C56.0591 16.3787 56.1391 16.6271 56.1638 16.884C56.2138 21.0977 56.1864 25.3115 56.1751 29.5268C56.1751 30.1968 55.9442 30.8184 55.2387 30.933C54.8076 30.996 54.1925 30.8378 53.9035 30.5407C53.6145 30.2436 53.5532 29.6608 53.55 29.2007C53.5209 26.1687 53.5338 23.1352 53.5338 20.1016V19.0716C53.1722 19.2605 52.9203 19.3832 52.6781 19.522C45.1354 23.8746 37.591 28.2256 30.0451 32.5749C29.5914 32.8365 29.3492 33.1045 29.3508 33.6905C29.3734 42.4936 29.3794 51.2978 29.3686 60.103C29.3686 60.3081 29.3912 60.5131 29.4138 60.857L32.5426 59.0617C32.914 58.8486 33.2788 58.6226 33.6582 58.4159C34.4122 58.0204 35.1726 58.2077 35.5326 58.8631C35.8926 59.5186 35.694 60.2225 34.9724 60.652C33.5 61.5291 32.0163 62.3902 30.5213 63.2351C27.6508 64.8625 28.4968 64.8818 25.6053 63.2157C17.4544 58.5166 9.30789 53.8099 1.16564 49.0957C0.737807 48.8487 0.385855 48.4725 0 48.156V16.2673C0.269614 16.0154 0.502096 15.699 0.807229 15.5198C9.51131 10.4924 18.2165 5.4714 26.9227 0.456892C27.1384 0.316571 27.346 0.164024 27.5443 0L28.5097 0ZM18.5453 28.2191C18.5453 30.4793 18.5372 32.5668 18.5453 34.6495C18.5453 35.221 18.4533 35.7166 17.9237 36.0347C17.3651 36.3705 16.8646 36.2123 16.3448 35.9039C14.7997 34.9885 13.2531 34.078 11.6838 33.2062C11.038 32.851 10.7717 32.3893 10.7813 31.6563C10.8104 29.2346 10.7813 26.8258 10.8072 24.4106C10.8286 24.2045 10.7847 23.997 10.6815 23.8173C10.5783 23.6376 10.4212 23.495 10.2324 23.4096C7.87694 22.0777 5.5392 20.7119 3.19178 19.3622C2.9989 19.2635 2.80115 19.1745 2.59928 19.0958C2.58798 19.3089 2.57506 19.4413 2.57506 19.5801C2.57506 28.492 2.57022 37.4032 2.56053 46.314C2.56053 46.837 2.78494 47.0598 3.18855 47.2923C10.8077 51.675 18.422 56.0664 26.0315 60.4663C26.2317 60.5825 26.4448 60.6762 26.7564 60.8328V51.4011C26.7564 45.4954 26.7521 39.5903 26.7435 33.6857C26.7435 33.3838 26.6369 32.9301 26.4206 32.8058C23.8746 31.2817 21.2931 29.8077 18.5453 28.2191ZM52.2503 16.7565C49.6026 15.2276 47.1147 13.8101 44.6494 12.3522C44.1893 12.0794 43.8664 12.1084 43.416 12.37C35.8184 16.7764 28.2137 21.172 20.6021 25.5569C20.3874 25.6812 20.1807 25.8216 19.9014 25.9976C22.4684 27.4765 24.9353 28.8794 27.378 30.3227C27.8768 30.6166 28.2385 30.6376 28.7567 30.3373C34.9864 26.7112 41.2225 23.1034 47.4651 19.514L52.2503 16.7565ZM3.90214 16.7565C6.48528 18.2498 8.92795 19.6399 11.3464 21.0719C11.8937 21.3948 12.3006 21.4077 12.8672 21.0719C20.3938 16.6967 27.9307 12.3377 35.4777 7.9948C35.7167 7.85595 35.9427 7.69773 36.2478 7.50077C33.6776 6.02031 31.2091 4.62058 28.7664 3.17402C28.2595 2.87373 27.8978 2.87696 27.3909 3.17402C21.5788 6.55255 15.7593 9.91654 9.93214 13.266L3.90214 16.7565ZM41.4286 10.5166C40.715 10.1 40.0951 9.782 39.5252 9.38646C39.0586 9.06357 38.7002 9.1346 38.2336 9.40583C31.0223 13.5862 23.8079 17.7542 16.5902 21.9098C16.0025 22.2472 15.4197 22.5943 14.7368 22.9947C15.4713 23.4242 16.1107 23.7584 16.7064 24.1587C17.1278 24.4445 17.4491 24.3799 17.864 24.1378C20.5682 22.5524 23.2902 20.9944 26.0041 19.4252L41.4286 10.5166ZM13.3871 25.2437C13.3871 27.181 13.3871 28.9569 13.3968 30.7167C13.3968 30.904 13.4791 31.1768 13.6163 31.264C14.3461 31.7289 15.1033 32.1487 15.9541 32.6427C15.9541 30.6973 15.9638 28.9295 15.9412 27.1649C15.9379 27.0525 15.9113 26.942 15.8629 26.8406C15.8146 26.7391 15.7455 26.6488 15.6602 26.5756C14.9709 26.13 14.2444 25.7377 13.3871 25.2437Z" fill="#D41D12"/>
<path d="M36.0859 50.2954C36.0859 41.0413 43.5576 33.5163 52.7601 33.505C54.9705 33.4963 57.1608 33.925 59.2048 34.7664C61.2488 35.6078 63.1061 36.8453 64.6698 38.4076C66.2335 39.97 67.4726 41.8262 68.3158 43.8695C69.159 45.9128 69.5895 48.1027 69.5827 50.3131C69.5827 59.3993 61.9076 67.0002 52.7471 67.0002C43.5867 67.0002 36.0908 59.4752 36.0859 50.2954ZM66.9996 50.2615C66.9705 42.4862 60.5417 36.0542 52.8715 36.1059C44.9429 36.164 38.6384 42.4749 38.6642 50.3357C38.6836 57.9721 45.1011 64.4348 52.6244 64.3896C60.5111 64.3428 67.0351 57.935 66.9996 50.2615Z" fill="#D41D12"/>
<path d="M54.1183 48.9665H62.4892C62.7582 48.9496 63.0281 48.9539 63.2965 48.9794C63.9923 49.0924 64.3927 49.509 64.4266 50.2258C64.4369 50.3866 64.4153 50.5479 64.3632 50.7005C64.311 50.853 64.2293 50.9937 64.1226 51.1146C64.016 51.2354 63.8866 51.3341 63.7418 51.4049C63.5969 51.4757 63.4396 51.5172 63.2787 51.527C62.825 51.5658 62.3665 51.5448 61.9113 51.5448C58.9616 51.5448 56.012 51.5448 53.0624 51.5448C51.963 51.5448 51.5545 51.1331 51.5545 50.0546C51.5545 46.7838 51.5545 43.5129 51.5545 40.242C51.5545 39.2168 52.0179 38.6598 52.8461 38.6646C53.6743 38.6695 54.1215 39.2297 54.1231 40.2581C54.1199 43.1205 54.1183 45.9862 54.1183 48.9665Z" fill="#D41D12"/>
</svg>
