<svg width="22" height="22" viewBox="0 0 22 22" fill="none" xmlns="http://www.w3.org/2000/svg">
<g id="Creative Commons Commercial">
<path id="Vector" d="M10.9997 1.83325C5.94762 1.83325 1.83301 5.94786 1.83301 10.9999C1.83301 16.052 5.94762 20.1666 10.9997 20.1666C16.0517 20.1666 20.1663 16.052 20.1663 10.9999C20.1663 5.94786 16.0517 1.83325 10.9997 1.83325ZM10.9997 3.66659C15.0611 3.66659 18.333 6.93848 18.333 10.9999C18.333 15.0614 15.0611 18.3333 10.9997 18.3333C6.93823 18.3333 3.66634 15.0614 3.66634 10.9999C3.66634 6.93848 6.93823 3.66659 10.9997 3.66659Z" fill="white" style="fill:white;fill:white;fill-opacity:1;"/>
<path id="Vector_2" d="M11 6L7 12H10V16L14 10H11V6Z" fill="white" style="fill:white;fill:white;fill-opacity:1;"/>
</g>
</svg>
