<svg width="44" height="44" viewBox="0 0 44 44" fill="none" xmlns="http://www.w3.org/2000/svg">
<rect width="44" height="44" rx="12" fill="#D41D12" style="fill:#D41D12;fill:color(display-p3 0.8314 0.1137 0.0706);fill-opacity:1;"/>
<path d="M14 18H30V16H14V18ZM12 16C12 15.45 12.1958 14.9792 12.5875 14.5875C12.9792 14.1958 13.45 14 14 14H30C30.55 14 31.0208 14.1958 31.4125 14.5875C31.8042 14.9792 32 15.45 32 16V22H14V28H18.1V30H14C13.45 30 12.9792 29.8042 12.5875 29.4125C12.1958 29.0208 12 28.55 12 28V16ZM24.95 32L20.7 27.75L22.1 26.35L24.95 29.15L30.6 23.5L32 24.95L24.95 32ZM14 16V28V23.5V26.325V16Z" fill="white" style="fill:white;fill-opacity:1;"/>
</svg>
