<svg width="27" height="37" viewBox="0 0 27 37" fill="none" xmlns="http://www.w3.org/2000/svg">
<path d="M24.4724 36.0039H2.5445C2.51561 35.9856 2.48884 35.956 2.45783 35.9504C0.96257 35.6659 2.17178e-05 34.3268 0.00354496 32.7686C0.0270332 22.9395 0.0258588 13.1115 2.17177e-05 3.28476C-0.00632011 1.38724 1.3769 -0.0181296 3.29848 0.000176794C8.35855 0.048055 13.4186 0.0205955 18.4787 0.00932999C18.6699 0.00246751 18.8603 0.0366229 19.0372 0.109496C19.214 0.182368 19.3732 0.292266 19.504 0.431785C21.7842 2.72572 24.0675 5.01448 26.3538 7.29809C26.5828 7.52762 26.7851 7.78391 27 8.02823V33.4734C26.9722 33.5346 26.9487 33.5977 26.9295 33.6621C26.7562 34.3662 26.4151 34.9773 25.8098 35.3737C25.4026 35.642 24.9213 35.7976 24.4724 36.0039ZM18.008 1.53862C17.8558 1.53158 17.7515 1.52313 17.6472 1.52313C12.8457 1.52313 8.04404 1.52313 3.2421 1.52313C2.08719 1.52313 1.52206 2.09344 1.52206 3.25519C1.52206 13.0942 1.52206 22.9329 1.52206 32.7714C1.52206 33.9304 2.08578 34.495 3.25056 34.4957C10.0899 34.4957 16.9294 34.4957 23.7692 34.4957C24.0024 34.5009 24.2352 34.4727 24.4604 34.412C25.1651 34.2007 25.4956 33.6522 25.4956 32.7362C25.4956 24.9598 25.4956 17.1826 25.4956 9.40473V9.01255H25.058C23.7229 9.01255 22.3878 9.01255 21.0528 9.01255C20.3685 9.02432 19.7015 8.79751 19.1664 8.37112C18.3822 7.74589 18.0108 6.92351 18.0108 5.92652L18.008 1.53862ZM24.2441 7.47341L19.5484 2.78064C19.5484 3.90296 19.5181 5.10414 19.5617 6.30109C19.5829 6.88619 20.16 7.44102 20.7484 7.46003C21.9364 7.50016 23.1266 7.47341 24.2441 7.47341V7.47341Z" fill="#25343F"/>
</svg>
