<svg width="95" height="23" viewBox="0 0 95 23" fill="none" xmlns="http://www.w3.org/2000/svg">
<path d="M26.8541 14.7432C27.2034 14.7432 27.5627 14.9029 27.9319 15.2322C28.7303 15.9308 29.6584 16.2801 30.7162 16.2801C31.7241 16.2801 32.6322 15.9607 33.4406 15.322C34.2489 14.6834 34.7878 13.875 35.0473 12.907H30.2871C29.9977 12.907 29.7382 12.7973 29.4887 12.5877C29.2392 12.3781 29.1195 12.1087 29.1195 11.7893C29.1195 11.47 29.2292 11.1906 29.4588 10.981C29.6783 10.7615 29.9577 10.6517 30.297 10.6517H35.0971C34.8477 9.64376 34.3188 8.81547 33.5104 8.15683C32.7021 7.50816 31.774 7.17884 30.7262 7.17884C29.7781 7.17884 28.9199 7.45827 28.1515 8.01711C27.8621 8.25662 27.5826 8.37637 27.3132 8.37637C27.0038 8.37637 26.7244 8.25662 26.4949 8.01711C26.2554 7.77761 26.1356 7.50816 26.1356 7.20878C26.1356 6.86948 26.2554 6.61002 26.4949 6.41043C27.6226 5.41249 29.0496 4.91351 30.7461 4.91351C32.6522 4.91351 34.2589 5.57216 35.5762 6.88944C36.1949 7.49818 36.6739 8.22668 37.0032 9.08491C37.3325 9.93316 37.5022 10.8213 37.5022 11.7394C37.5022 13.6954 36.8535 15.3121 35.5662 16.6094C34.2589 17.9167 32.6522 18.5654 30.7561 18.5654C29.858 18.5654 28.9997 18.3957 28.1615 18.0564C27.3232 17.7171 26.6047 17.2281 25.976 16.5894C25.8163 16.4298 25.7365 16.2102 25.7365 15.9408C25.7365 15.6314 25.8562 15.352 26.0957 15.1225C26.3053 14.863 26.5647 14.7432 26.8541 14.7432ZM51.184 5.47236C51.3836 5.12308 51.673 4.93347 52.0622 4.89355C52.4214 4.89355 52.7208 5.00333 52.9703 5.2129C53.2098 5.42246 53.3295 5.69191 53.3295 6.01125V17.5075C53.3295 17.8169 53.2198 18.0664 53.0002 18.246C52.7807 18.4256 52.5013 18.5155 52.1719 18.5155C51.8526 18.5155 51.5831 18.4256 51.3736 18.256C51.164 18.0863 51.0542 17.8369 51.0343 17.5275V10.003L47.6014 15.362C47.5415 15.4817 47.4118 15.6314 47.2221 15.7811C47.0325 15.9408 46.803 16.0106 46.5435 16.0106C46.1444 16.0106 45.8051 15.8011 45.5356 15.3919L42.0827 10.003V17.5375C42.0728 17.8369 41.953 18.0764 41.7335 18.246C41.5139 18.4157 41.2544 18.5055 40.9451 18.5055C40.6357 18.5055 40.3663 18.4157 40.1467 18.2261C39.9272 18.0365 39.8074 17.8069 39.8074 17.5175V6.04119C39.8074 5.73183 39.9072 5.46238 40.1168 5.23286C40.3264 5.00333 40.5958 4.88358 40.9251 4.88358C41.3642 4.88358 41.7135 5.10312 41.9929 5.53224L46.5435 12.907L51.184 5.47236ZM65.8737 4.98337C66.1731 4.98337 66.4126 5.08316 66.6022 5.28275C66.7918 5.48234 66.8816 5.73183 66.8816 6.03121V17.5574C66.8816 17.7969 66.7718 18.0165 66.5623 18.2061C66.3527 18.4057 66.0733 18.5055 65.724 18.5055C65.3747 18.5055 65.0953 18.4057 64.8957 18.2161C64.6861 18.0265 64.5863 17.8069 64.5863 17.5574V7.29859H58.8981V17.5574C58.8981 17.8169 58.7883 18.0464 58.5787 18.2261C58.3692 18.4157 58.0897 18.5055 57.7404 18.5055C57.4211 18.5055 57.1417 18.4157 56.9221 18.246C56.7026 18.0764 56.5828 17.8468 56.5828 17.5574V6.03121C56.5828 5.76176 56.6926 5.51228 56.9122 5.30271C57.1317 5.09314 57.3712 4.98337 57.6506 4.98337H65.8737ZM80.3538 5.35261C80.5634 5.54222 80.6732 5.80168 80.6732 6.14098V17.278C80.6732 17.5974 80.5634 17.8768 80.3438 18.0863C80.1243 18.3059 79.8548 18.4157 79.5355 18.4157C79.1962 18.4157 78.9268 18.3059 78.7172 18.0963C78.5076 17.8868 78.3978 17.6073 78.3978 17.278V9.51403L72.2505 17.9666C72.0909 18.1861 71.8713 18.3358 71.6019 18.3957C71.3324 18.4556 71.073 18.4256 70.8235 18.3059C70.6139 18.2061 70.4343 18.0564 70.3045 17.8468C70.1648 17.6373 70.095 17.4277 70.095 17.1982V5.97133C70.095 5.66197 70.1948 5.42246 70.4043 5.24283C70.6139 5.07318 70.9033 4.98337 71.2725 4.98337C71.5919 4.98337 71.8613 5.07318 72.0609 5.25281C72.2705 5.43244 72.3703 5.67195 72.3703 5.97133V13.8651L78.4877 5.48234C78.6873 5.18296 78.9767 5.02329 79.3559 4.99335C79.7551 4.97339 80.0844 5.09314 80.3538 5.35261ZM89.8842 16.2701C90.912 16.2701 91.8401 15.9208 92.6684 15.2223C92.9878 14.9029 93.347 14.7333 93.7362 14.7333C94.0256 14.7333 94.2851 14.853 94.5346 15.0825C94.7841 15.3121 94.9038 15.5815 94.9038 15.8909C94.9038 16.1603 94.814 16.3898 94.6443 16.5595C93.3271 17.8768 91.7304 18.5354 89.8642 18.5354C87.9981 18.5354 86.4013 17.8768 85.0841 16.5595C83.7768 15.2821 83.1281 13.6655 83.1281 11.7095C83.1281 10.8014 83.2977 9.92318 83.6271 9.07493C83.9664 8.22668 84.4454 7.49818 85.0641 6.86948C86.3914 5.54222 87.9981 4.8736 89.8642 4.8736C91.5807 4.8736 92.9977 5.37257 94.0955 6.37051C94.345 6.59006 94.4647 6.86948 94.4647 7.20878C94.4647 7.49818 94.3549 7.75765 94.1354 7.99715C93.9158 8.23666 93.6564 8.35641 93.357 8.35641C93.0876 8.35641 92.7782 8.24664 92.4389 8.03707C91.5208 7.44829 90.6626 7.15888 89.8642 7.15888C88.6367 7.15888 87.5789 7.60796 86.7107 8.50611C85.8425 9.40425 85.4034 10.4621 85.4034 11.6995C85.4034 12.9469 85.8425 14.0147 86.7107 14.9229C87.6089 15.821 88.6567 16.2701 89.8842 16.2701Z" fill="white" style="fill:white;fill-opacity:1;"/>
<path d="M9.78015 13.3664L22.7534 0.692505L15.3686 22.9466L9.78015 13.3664Z" fill="#0097D1" style="fill:#0097D1;fill:color(display-p3 0.0000 0.5922 0.8196);fill-opacity:1;"/>
<path d="M9.87963 13.4662L22.7531 0.792328L0 7.57833L9.87963 13.4662Z" fill="#0EB1F2" style="fill:#0EB1F2;fill:color(display-p3 0.0549 0.6941 0.9490);fill-opacity:1;"/>
<path d="M2.99341 20.1522L8.58188 14.5638L11.2763 19.2541L2.99341 20.1522Z" fill="#0097D1" style="fill:#0097D1;fill:color(display-p3 0.0000 0.5922 0.8196);fill-opacity:1;"/>
<path d="M3.09387 20.1524L8.58255 14.6637L3.99202 11.7697L3.09387 20.1524Z" fill="#0EB1F2" style="fill:#0EB1F2;fill:color(display-p3 0.0549 0.6941 0.9490);fill-opacity:1;"/>
</svg>
