<svg width="67" height="49" viewBox="0 0 67 49" fill="none" xmlns="http://www.w3.org/2000/svg">
<path fill-rule="evenodd" clip-rule="evenodd" d="M33.5367 0.090108C32.3646 0.270763 30.6607 0.82825 29.4836 1.41639C25.4541 3.42994 22.6851 7.30822 22.0857 11.7779C21.799 13.9158 22.141 16.9798 22.9352 19.3881C23.1121 19.9246 23.2324 20.388 23.2023 20.4179C23.1724 20.4478 22.3081 20.3394 21.2819 20.1771C19.3518 19.8718 17.961 19.4035 18.0765 19.098C18.5118 17.9469 18.8527 16.6385 18.7862 16.3742C18.7415 16.1963 18.1181 15.5165 17.3905 14.8522C16.341 13.8938 15.9962 13.6516 15.6815 13.6516C15.346 13.6516 14.8836 14.0419 12.5794 16.2707L9.87144 18.8897L7.68717 19.9859C6.48586 20.5889 5.44995 21.1859 5.38523 21.3127C5.32038 21.4394 5.01652 22.5562 4.70979 23.7945L4.15228 26.046L4.56034 27.6716C4.78484 28.5656 4.96841 29.354 4.96841 29.4235C4.96841 29.493 4.56963 29.678 4.08233 29.8345L3.19625 30.1193L2.25513 29.6464C1.14796 29.0901 0.756505 29.0592 0.320985 29.4938C0.0200044 29.794 0 29.9014 0 31.2135V32.6131L2.25539 36.0428C3.83247 38.441 4.6129 39.5148 4.85021 39.6132C5.43818 39.857 5.84311 39.6314 6.90085 38.4705C7.75555 37.5326 8.08477 37.2752 9.04891 36.7914C10.484 36.0712 10.7244 35.6712 10.2603 34.7759L10.0609 34.3911H11.071H12.0813L13.6683 35.9563C15.6795 37.9399 15.6808 37.9401 17.1261 36.537L18.1403 35.5524L19.6707 35.9383C20.5125 36.1505 21.2191 36.3441 21.2411 36.3685C21.2632 36.3929 21.4925 36.834 21.7509 37.3489C22.0093 37.8636 22.2956 38.3331 22.3872 38.3924C22.4789 38.4514 22.9612 38.5292 23.4589 38.5651L24.3639 38.6303L24.8125 39.9748L25.2611 41.3194L27.1101 42.5509C28.1271 43.2283 29.0771 43.7825 29.2212 43.7825C29.3652 43.7825 30.1254 43.569 30.9104 43.308L32.3378 42.8336L33.299 43.308C33.8277 43.569 34.4071 43.7825 34.5868 43.7825C34.7753 43.7825 35.1164 43.597 35.3932 43.3439L35.8731 42.9052L38.7549 43.8656C40.3398 44.3939 41.7423 44.826 41.8715 44.826C42.0008 44.826 42.5745 44.5912 43.1467 44.3043C44.1138 43.8192 44.2641 43.7825 45.2866 43.7825C46.7086 43.7825 46.8187 43.6897 47.3751 42.0216C47.8018 40.742 47.8183 40.7165 48.244 40.6749C48.6311 40.6372 48.7853 40.7379 49.6714 41.6087C50.4359 42.3599 50.9426 42.7226 51.8715 43.1836C53.188 43.8369 53.4271 43.8818 54.0053 43.5835C54.2173 43.474 54.391 43.4167 54.391 43.456C54.391 43.4953 54.1556 43.9944 53.868 44.5651C53.2693 45.7529 53.2159 46.2299 53.6392 46.6099C54.0628 46.9901 58.2872 49 58.6629 49C58.8368 49 59.1234 48.8559 59.2999 48.6798L59.6209 48.3597V43.8523V39.3449L58.4464 37.0042C57.7945 35.705 57.1584 34.6029 57.0168 34.5273C56.8764 34.4524 56.5286 34.3911 56.2438 34.3911H55.7259L56.0281 33.2063C56.1942 32.5548 56.3498 32.0047 56.3739 31.9843C56.3979 31.9636 57.3448 31.4802 58.4781 30.9098L60.5387 29.873L60.6653 30.3417C60.7597 30.6914 61.2514 31.2648 62.603 32.6007C64.1753 34.1551 64.4695 34.3911 64.8346 34.3911C65.1065 34.3911 65.3681 34.2781 65.5758 34.0709L65.8968 33.7508V30.8067V27.8627L65.4374 26.9529L64.9783 26.0431L65.4187 25.1627C65.694 24.6126 66.0731 23.414 66.4296 21.9681L67 19.6539L66.5751 18.7942L66.15 17.9345L66.5464 17.4842C66.7644 17.2365 66.9427 16.8882 66.9427 16.71C66.9427 16.168 65.6772 13.7955 65.2956 13.6221C65.0164 13.4952 64.5792 13.5634 62.586 14.045L60.2092 14.6192L58.7056 16.0792L57.202 17.5392L55.9599 17.1C55.2768 16.8583 54.5892 16.6586 54.432 16.6561C54.2749 16.6536 52.804 17.3199 51.1633 18.1367C49.5227 18.9534 48.1652 19.6081 48.1463 19.5918C48.1276 19.5754 48.2022 19.308 48.3119 18.9976C48.6628 18.0055 49.0344 15.9045 49.1186 14.4375C49.5013 7.76527 45.2835 2.02162 38.7666 0.340416C37.5619 0.0297155 34.7905 -0.102939 33.5367 0.090108ZM37.595 2.24297C41.9816 3.00602 45.5097 6.28468 46.7137 10.7168C47.0828 12.0753 47.1072 14.8443 46.7653 16.5565C45.7422 21.6783 42.1321 27.5812 36.8172 32.8232L35.5635 34.0596L34.3761 32.8884C31.0796 29.6365 28.2759 25.9581 26.6555 22.7589C25.621 20.7163 25.5236 20.4977 25.1124 19.2946C23.8379 15.5654 23.7481 12.1219 24.8534 9.36077C26.2325 5.91555 29.1657 3.32142 32.6869 2.43262C34.4117 1.99722 35.8606 1.94127 37.595 2.24297ZM34.1905 6.34064C31.4743 6.92604 29.4651 8.74146 28.5536 11.4342C28.378 11.9528 28.3106 12.531 28.3106 13.5212C28.3106 15.6283 28.9701 17.2337 30.4363 18.6964C33.2575 21.5108 37.8674 21.4987 40.7034 18.6695C42.951 16.4273 43.4898 13.1937 42.0969 10.3079C40.9331 7.89662 38.6113 6.38851 35.8902 6.27647C35.243 6.24973 34.4781 6.27868 34.1905 6.34064ZM37.7114 8.80198C38.8911 9.35282 39.6544 10.1018 40.2395 11.2829C40.7009 12.2142 40.7279 12.3375 40.7279 13.5212C40.7279 14.7049 40.7009 14.8282 40.2395 15.7595C39.6514 16.9467 38.8944 17.6862 37.6788 18.2606C36.889 18.6339 36.6866 18.6734 35.5633 18.6734C34.4401 18.6734 34.2377 18.6339 33.4478 18.2606C32.2323 17.6862 31.4752 16.9467 30.8871 15.7595C30.4263 14.8292 30.3988 14.7039 30.3988 13.528C30.3988 12.3997 30.4379 12.1997 30.8126 11.4107C31.338 10.3044 32.086 9.49447 33.0616 8.97572C34.0915 8.42815 34.655 8.30424 35.8574 8.36137C36.6421 8.39867 37.0601 8.49794 37.7114 8.80198ZM64.4619 16.1362C64.5821 16.3601 64.5404 16.4771 64.205 16.8581C63.9848 17.1083 63.8048 17.4566 63.8048 17.6323C63.8048 17.808 64.0234 18.3923 64.2905 18.9309L64.7762 19.9102L64.3373 21.7049C64.0404 22.9193 63.7142 23.8678 63.3286 24.6383C63.0152 25.2647 62.7588 25.8969 62.7588 26.0434C62.7588 26.1899 62.9942 26.7767 63.2818 27.3475C63.7794 28.3348 63.8048 28.4438 63.8048 29.593V30.8007L63.2234 30.2154C62.6591 29.6473 62.6266 29.5688 62.1187 27.5431C61.5601 25.3162 61.3813 24.9996 60.6815 24.9996C60.0268 24.9996 59.7949 25.3132 59.2696 26.9078L58.771 28.4215L56.7077 29.4526C55.293 30.1594 54.6051 30.575 54.5199 30.7743C54.3368 31.202 53.345 35.2466 53.345 35.565C53.345 35.715 53.4895 35.9818 53.666 36.1578C53.9459 36.4372 54.1044 36.4781 54.907 36.4781H55.8274L56.6781 38.1719L57.5289 39.8656V43.0561V46.2465L56.7771 45.9171C56.3636 45.7359 55.9765 45.5409 55.9171 45.4837C55.8574 45.4263 55.9603 45.0808 56.1459 44.7158C56.445 44.1267 56.4829 43.8967 56.4829 42.6722C56.4829 41.3811 56.4623 41.2717 56.1619 40.9723C55.7288 40.54 55.3351 40.5686 54.2564 41.1105L53.3439 41.5689L52.658 41.2264C52.2649 41.0301 51.4634 40.389 50.7804 39.7245L49.5885 38.5651H48.1471C46.9671 38.5651 46.6557 38.6064 46.429 38.7933C46.2667 38.9271 45.9721 39.5611 45.717 40.326L45.2818 41.6303L44.3777 41.7006C43.7072 41.7528 43.2509 41.8838 42.6118 42.2075L41.75 42.6441L38.7547 41.6481C37.1072 41.1002 35.629 40.652 35.4697 40.652C35.3105 40.652 34.976 40.8309 34.7264 41.0495L34.2727 41.4469L33.4835 41.0495C33.0494 40.8309 32.5899 40.652 32.462 40.652C32.3343 40.652 31.5989 40.8618 30.8278 41.1181L29.4259 41.5841L28.2212 40.7594L27.0166 39.9346L26.5186 38.4346C26.2145 37.5182 25.913 36.8458 25.7438 36.7063C25.5393 36.5378 25.2313 36.4781 24.5677 36.4781H23.6686L23.2053 35.5604C22.9339 35.0227 22.6219 34.5916 22.452 34.5192C22.0197 34.3352 17.9681 33.3476 17.6454 33.3476C17.4819 33.3476 17.0195 33.6803 16.5261 34.1529L15.6855 34.9582L14.3337 33.6312L12.9819 32.3041H10.4729C7.98318 32.3041 7.96122 32.3066 7.64285 32.6243C7.23374 33.0323 7.2374 33.4509 7.65749 34.278C7.84211 34.6414 7.97455 34.9551 7.95167 34.975C7.92892 34.9949 7.64546 35.1404 7.32186 35.2984C6.99826 35.4564 6.4367 35.9121 6.07401 36.3111L5.41452 37.0365L3.83953 34.6377C1.85138 31.6095 1.98109 31.8489 2.46328 32.0976C3.0336 32.3919 3.25823 32.3576 5.22742 31.6755C7.615 30.8484 7.54374 31.0017 6.84542 28.1949L6.30752 26.0328L6.73729 24.3326C6.97368 23.3975 7.18719 22.6139 7.21177 22.5916C7.23635 22.5692 8.10962 22.1264 9.15233 21.6076L11.0482 20.6644L13.3794 18.3818L15.7106 16.099L16.1426 16.5167L16.5746 16.9345L16.105 18.3527C15.4755 20.2536 15.4928 20.2982 17.1933 21.1695C18.4711 21.8241 18.5661 21.8504 21.3772 22.3171C22.9593 22.5796 24.2687 22.8369 24.2871 22.8886C24.3056 22.9404 24.7351 23.7153 25.2416 24.6108C26.345 26.5615 27.8848 28.7755 29.4745 30.697C30.9706 32.5053 34.8029 36.3159 35.234 36.4239C35.4151 36.4692 35.7149 36.4684 35.9 36.4221C36.3355 36.3129 40.1255 32.5404 41.6515 30.697C43.6162 28.3235 45.9945 24.7303 46.808 22.9064C46.9245 22.6451 47.7604 22.1737 50.7149 20.7028L54.4735 18.8315L55.9033 19.3068C56.6898 19.5682 57.4752 19.7822 57.6487 19.7822C57.877 19.7822 58.4188 19.3338 59.6096 18.16L61.2552 16.5378L62.4973 16.2154C64.0541 15.811 64.2825 15.8019 64.4619 16.1362Z" fill="#D41D12"/>
</svg>
