<svg width="74" height="53" viewBox="0 0 74 53" fill="none" xmlns="http://www.w3.org/2000/svg">
<path fill-rule="evenodd" clip-rule="evenodd" d="M0 0.725878V1.45176H20.0176H40.0352V19.018V36.5843H20.0176H0V37.3065V38.0288L2.34863 38.0687L4.69727 38.1086L4.73571 42.1615C4.76129 44.8552 4.82778 46.2792 4.93415 46.4079C5.04631 46.5436 5.49363 46.6014 6.43294 46.6014H7.77188L7.86539 47.2283C8.02683 48.3094 8.74443 49.6052 9.72016 50.5776C12.355 53.2037 16.3695 53.2091 18.9504 50.5899C20.0458 49.4785 20.527 48.5806 20.8746 47.0006L20.9625 46.6014H36.1915H51.4203L51.5138 47.2283C51.6753 48.3094 52.3929 49.6052 53.3686 50.5776C56.0034 53.2037 60.0179 53.2091 62.5988 50.5899C63.6942 49.4785 64.1755 48.5806 64.5231 47.0006L64.611 46.6014H69.132C72.4557 46.6014 73.6991 46.5552 73.8266 46.4272C73.9581 46.2951 74 43.8203 74 36.1769V26.101L70.8786 18.8212C69.1618 14.8174 67.5289 11.1168 67.2501 10.5978C65.7266 7.76312 63.2833 5.26436 60.5243 3.71955C60.0264 3.44081 57.966 2.48991 55.9456 1.60637L52.2719 0H49.0731C46.7778 0 45.8252 0.0492141 45.7008 0.17421C45.5677 0.307917 45.5273 4.56824 45.5273 18.4663V36.5843H43.5039H41.4805V18.6149C41.4805 2.58601 41.4562 0.610464 41.2554 0.322725L41.0305 0H20.5152H0V0.725878ZM51.3086 5.87961V10.3075H50.2246H49.1406V11.0333V11.7592H50.2246H51.3086V19.018V26.2768H52.0312H52.7539V20.6862V15.0957L60.2328 15.1333L67.7117 15.1709L70.1247 20.7601L72.5375 26.3494L72.5462 31.0313L72.5547 35.7132H71.3538C69.5116 35.7132 69.6006 35.5422 69.5453 39.1855L69.4986 42.2461H67.0521H64.6055V41.3531V40.4602L63.4854 39.073C62.8694 38.3101 62.1314 37.438 61.8456 37.1351L61.3261 36.5843H57.04H52.7539V32.8823V29.1803H52.0312H51.3086V32.8823V36.5843H49.1406H46.9727V19.018V1.45176H49.1406H51.3086V5.87961ZM55.6265 3.06263C57.107 3.70909 58.8544 4.5215 59.5097 4.86803C62.7573 6.58575 65.3079 9.4579 66.8216 13.1021L67.0478 13.6465H59.9008H52.7539V12.7029V11.7592H54.9219H57.0898V11.0333V10.3075H54.9219H52.7539V6.09738C52.7539 3.78183 52.7945 1.88728 52.8442 1.88728C52.894 1.88728 54.1459 2.41616 55.6265 3.06263ZM0 4.06492V4.7908H18.1387H36.2773V19.018V33.2452H32.7363H29.1953V33.9711V34.697H33.2319C36.7088 34.697 37.2999 34.6653 37.4956 34.4689C37.6991 34.2644 37.7227 32.6631 37.7227 19.0158V3.79097L37.4014 3.56508C37.1148 3.36328 35.0864 3.33904 18.54 3.33904H0V4.06492ZM56.8855 16.2457C56.662 16.4938 56.6412 16.8632 56.6826 19.8388C56.7285 23.1522 56.729 23.1562 57.1231 23.8299C57.5695 24.5926 58.2386 25.2102 58.9371 25.5042C59.1978 25.6139 61.913 26.0042 64.9708 26.3713C70.9258 27.0864 70.9648 27.0861 70.9648 26.3308C70.9648 25.8543 66.1262 16.1746 65.8312 16.0609C65.7004 16.0106 63.6903 15.9693 61.3641 15.9693C57.389 15.9693 57.1196 15.986 56.8855 16.2457ZM67.1004 21.4151L69.0871 25.4094L68.5445 25.3302C68.2461 25.2867 66.1336 25.027 63.85 24.7532C61.3278 24.4506 59.531 24.1684 59.2726 24.0343C59.0384 23.9126 58.6956 23.5999 58.5104 23.3392C58.1913 22.8898 58.1715 22.7235 58.1289 20.1431L58.0841 17.4211H61.5989H65.1138L67.1004 21.4151ZM57.3789 33.5356V34.2615H59.2578H61.1367V33.5356V32.8097H59.2578H57.3789V33.5356ZM0 33.9711V34.697H13.1523H26.3047V33.9711V33.2452H13.1523H0V33.9711ZM72.5547 39.7055V42.2461H71.832H71.1094V39.7055V37.165H71.832H72.5547V39.7055ZM49.8994 38.1809L51.3086 38.1812V41.6654V45.1496H49.1406H46.9727V42.3996C46.9727 39.7222 46.9641 39.6434 46.6514 39.4235C46.3717 39.2266 45.4507 39.1974 39.5293 39.1974C33.6079 39.1974 32.6869 39.2266 32.4072 39.4235C32.0945 39.6434 32.0859 39.7221 32.0859 42.4012V45.153L26.4962 45.1151L20.9066 45.077L20.7433 44.3512C20.4976 43.258 19.7125 41.9061 18.8444 41.0815C15.9917 38.3714 11.3613 38.7947 9.02742 41.9791C8.44944 42.7679 7.80469 44.3014 7.80469 44.8874C7.80469 45.1084 7.67981 45.1496 7.00977 45.1496H6.21484V41.666V38.1824L23.5947 38.1337C33.1537 38.107 42.6656 38.1066 44.7324 38.1329C46.7992 38.1591 49.1243 38.1808 49.8994 38.1809ZM61.9678 39.5125C62.7516 40.4779 63.1602 41.1052 63.1602 41.3431C63.1602 41.6865 63.1227 41.6701 62.4336 41.0226C60.6768 39.3719 57.9975 38.8499 55.6445 39.6997C54.8784 39.9764 54.1155 40.4635 53.3251 41.1808L52.7539 41.6992V39.9644C52.7539 39.0103 52.7973 38.186 52.8503 38.1329C52.9032 38.0796 54.7081 38.0378 56.861 38.0398L60.7754 38.0437L61.9678 39.5125ZM16.2371 41.0886C17.9612 41.7365 19.281 43.526 19.4608 45.459C19.532 46.2244 19.4845 46.6391 19.2294 47.4827C18.9453 48.4225 18.7974 48.6555 17.9368 49.5198C17.0762 50.3844 16.8442 50.5329 15.9087 50.8183C12.8311 51.7573 9.76569 49.8562 9.25275 46.6905C8.61189 42.7358 12.4431 39.6629 16.2371 41.0886ZM36.7109 42.8994V45.1496H35.1211H33.5312V42.8994V40.6492H35.1211H36.7109V42.8994ZM40.9023 42.8994V45.1496H39.5293H38.1562V42.8994V40.6492H39.5293H40.9023V42.8994ZM45.5273 42.8994V45.1496H43.9375H42.3477V42.8994V40.6492H43.9375H45.5273V42.8994ZM59.8855 41.0886C61.0029 41.5085 62.0325 42.482 62.6137 43.668C63.0374 44.5325 63.0879 44.7671 63.0872 45.8725C63.0866 46.9219 63.0247 47.2441 62.679 47.9965C62.1684 49.1084 61.1802 50.0953 60.0527 50.6197C59.3224 50.9593 58.9917 51.0234 57.957 51.026C56.8866 51.0288 56.6172 50.9744 55.8632 50.6024C54.8091 50.0827 53.8019 49.0991 53.3265 48.1257C52.8503 47.1501 52.7499 45.193 53.1228 44.1515C54.115 41.38 57.0835 40.0355 59.8855 41.0886ZM13.62 42.8207C12.8627 43.0061 12.0425 43.6394 11.6187 44.3657C10.6306 46.0592 11.5913 48.4238 13.4741 48.9331C15.8302 49.5704 17.9871 47.4039 17.3526 45.0373C16.9477 43.5271 15.1339 42.4499 13.62 42.8207ZM57.2685 42.8207C56.5111 43.0061 55.6909 43.6394 55.2672 44.3657C54.279 46.0592 55.2397 48.4238 57.1225 48.9331C59.4787 49.5704 61.6355 47.4039 61.001 45.0373C60.5962 43.5271 58.7823 42.4499 57.2685 42.8207ZM69.5195 44.4237V45.1496H67.0625H64.6055V44.4237V43.6979H67.0625H69.5195V44.4237ZM72.5547 44.4237V45.1496H71.832H71.1094V44.4237V43.6979H71.832H72.5547V44.4237ZM15.2823 44.5055C16.1238 45.0593 16.2423 46.3617 15.5175 47.0898C14.457 48.1548 12.6793 47.3943 12.6793 45.8755C12.6793 44.4901 14.1126 43.7358 15.2823 44.5055ZM58.9688 44.5483C59.7995 45.1608 59.8917 46.2967 59.1718 47.0513C58.1156 48.1587 56.3277 47.4196 56.3277 45.8755C56.3277 44.4616 57.8283 43.7076 58.9688 44.5483Z" fill="#D41D12"/>
</svg>
