<svg width="54" height="54" viewBox="0 0 54 54" fill="none" xmlns="http://www.w3.org/2000/svg">
<path fill-rule="evenodd" clip-rule="evenodd" d="M13.5587 3.1438C2.37656 5.80801 0.368663 6.3156 0.19935 6.52147C0.0243 6.73409 0 7.01854 0 8.85928C0 10.9368 0.00236249 10.9574 0.276187 11.2266C0.606262 11.5515 0.815738 11.5592 1.88437 11.2862L2.7 11.0777V16.6008V22.1238H3.6H4.5L4.50011 16.396L4.50022 10.6683L12.4032 8.79254C16.7499 7.76077 21.8164 6.55976 23.6621 6.12357L27.0181 5.33054L38.259 7.9984L49.5 10.6664V31.4477V52.2291H46.8H44.1V34.7918V17.3544L43.8238 17.0828L43.5477 16.8111H27H10.4523L10.1762 17.0828C9.90225 17.3522 9.9 17.3716 9.9 19.4674C9.9 21.5633 9.90225 21.5827 10.1762 21.852L10.4523 22.1238H26.3762H42.3V23.0092V23.8947H31.05H19.8V24.7801V25.6656H31.05H42.3V26.551V27.4365H31.05H19.8V28.3219V29.2074H31.05H42.3V30.0928V30.9783H31.05H19.8V31.8637V32.7492H31.05H42.3V42.4891V52.2291H39.15H36V53.1145V54H45H54V53.1145V52.2291H52.65H51.3V31.6534V11.0777L52.1156 11.2862C53.1843 11.5592 53.3937 11.5515 53.7238 11.2266C53.9976 10.9574 54 10.9368 54 8.85928C54 7.00525 53.9766 6.73519 53.7973 6.51726C53.6232 6.30586 51.7214 5.82583 40.3816 3.1313C33.1146 1.40445 27.0675 -0.00463715 26.9437 1.1469e-05C26.82 0.0045494 20.7967 1.41928 13.5587 3.1438ZM39.7125 4.80602C46.5497 6.42739 52.1586 7.76851 52.1768 7.78633C52.195 7.80415 52.195 8.19076 52.1768 8.64555L52.1437 9.47223L45.2812 7.84256C41.5069 6.94615 35.8527 5.6027 32.7166 4.85693L27.0144 3.50108L14.5478 6.45484C7.69117 8.07942 2.01802 9.42895 1.94062 9.45386C1.83622 9.4875 1.8 9.27732 1.8 8.63825V7.77737L4.92187 7.03226C22.2509 2.89665 26.968 1.78884 27.1125 1.82083C27.2053 1.84131 32.8753 3.18476 39.7125 4.80602ZM24.3 8.98667C23.7478 9.1579 22.8061 10.1173 22.6368 10.6811C22.3252 11.7188 22.5449 12.5462 23.3399 13.3284C24.1152 14.0911 24.3987 14.1547 27.0211 14.1547C29.6559 14.1547 30.0165 14.0692 30.7461 13.2706C31.7549 12.1668 31.7549 10.83 30.7461 9.72613C30.0087 8.91916 29.6635 8.83969 26.9518 8.8533C25.6532 8.85983 24.5265 8.9165 24.3 8.98667ZM29.4238 10.8846C29.598 11.0559 29.7 11.2828 29.7 11.4984C29.7 11.714 29.598 11.9409 29.4238 12.1121C29.15 12.3816 29.1303 12.3838 27 12.3838C24.8697 12.3838 24.85 12.3816 24.5762 12.1121C24.402 11.9409 24.3 11.714 24.3 11.4984C24.3 11.2828 24.402 11.0559 24.5762 10.8846C24.85 10.6151 24.8697 10.6129 27 10.6129C29.1303 10.6129 29.15 10.6151 29.4238 10.8846ZM42.3 19.4674V20.3529H27H11.7V19.4674V18.582H27H42.3V19.4674ZM0.276187 24.1664L0 24.438V38.9473V53.4567L0.276187 53.7283L0.552263 54H17.1H33.6477L33.9238 53.7283L34.2 53.4567V46.0309V38.6052L33.9238 38.3336L33.6477 38.0619H25.8238H18V31.25V24.438L17.7238 24.1664L17.4477 23.8947H9H0.552263L0.276187 24.1664ZM5.4 28.0502C5.4 30.4346 5.4 30.4349 5.67619 30.7066L5.95226 30.9783H9H12.0477L12.3238 30.7066C12.6 30.4349 12.6 30.4346 12.6 28.0502V25.6656H14.4H16.2V31.8637V38.0619H9H1.8V31.8637V25.6656H3.6H5.4V28.0502ZM10.8 27.4365V29.2074H9H7.2V27.4365V25.6656H9H10.8V27.4365ZM12.6 35.4055V36.291H13.5H14.4V35.4055V34.5201H13.5H12.6V35.4055ZM5.4 42.2174C5.4 44.6018 5.4 44.6022 5.67619 44.8738L5.95226 45.1455H9H12.0477L12.3238 44.8738C12.6 44.6022 12.6 44.6018 12.6 42.2174V39.8328H14.4H16.2V46.0309V52.2291H9H1.8V46.0309V39.8328H3.6H5.4V42.2174ZM10.8 41.6037V43.3746H9H7.2V41.6037V39.8328H9H10.8V41.6037ZM21.6 42.2174C21.6 44.6018 21.6 44.6022 21.8762 44.8738L22.1523 45.1455H25.2H28.2477L28.5238 44.8738C28.8 44.6022 28.8 44.6018 28.8 42.2174V39.8328H30.6H32.4V46.0309V52.2291H25.2H18V46.0309V39.8328H19.8H21.6V42.2174ZM27 41.6037V43.3746H25.2H23.4V41.6037V39.8328H25.2H27V41.6037ZM12.6 49.5727V50.4582H13.5H14.4V49.5727V48.6873H13.5H12.6V49.5727ZM28.8 49.5727V50.4582H29.7H30.6V49.5727V48.6873H29.7H28.8V49.5727Z" fill="#D41D12"/>
</svg>
