<svg width="24" height="24" viewBox="0 0 24 24" fill="none" xmlns="http://www.w3.org/2000/svg">
<g id="Frame" clip-path="url(#clip0_146_2084)">
<g id="Group 1632522173">
<path id="Vector (Stroke)" fill-rule="evenodd" clip-rule="evenodd" d="M12.5002 5.99626C10.182 5.99626 8.30278 7.87549 8.30278 10.1936C8.30278 12.5118 10.182 14.391 12.5002 14.391C14.8183 14.391 16.6975 12.5118 16.6975 10.1936C16.6975 7.87549 14.8183 5.99626 12.5002 5.99626ZM6.50391 10.1936C6.50391 6.882 9.18852 4.19739 12.5002 4.19739C15.8118 4.19739 18.4964 6.882 18.4964 10.1936C18.4964 13.5053 15.8118 16.1899 12.5002 16.1899C9.18852 16.1899 6.50391 13.5053 6.50391 10.1936Z" fill="#D41D12" style="fill:#D41D12;fill:color(display-p3 0.8314 0.1137 0.0706);fill-opacity:1;"/>
<path id="Vector (Stroke)_2" fill-rule="evenodd" clip-rule="evenodd" d="M5.13474 6.12714L3.55551 5.26575C2.76525 6.71455 2.3064 8.42134 2.3064 10.1936C2.3064 12.6991 3.23045 14.9959 4.72943 16.8208C4.736 16.8288 4.74294 16.8369 4.74978 16.8447L4.80019 16.9018L4.94391 17.0646C5.06831 17.2053 5.24746 17.4077 5.46671 17.6546C5.90514 18.1484 6.50431 18.8209 7.14691 19.5349C8.42013 20.9496 9.89968 22.5677 10.6191 23.2559L10.633 23.2689C11.673 24.2222 13.2861 24.2666 14.3126 23.2643C14.8055 22.8292 15.448 22.1328 16.0996 21.4266L16.219 21.2972L14.9087 20.0647L14.8972 20.077L14.8287 20.1513C14.121 20.9179 13.5274 21.5611 13.107 21.929C13.092 21.9421 13.0774 21.9558 13.0633 21.9699C12.771 22.2622 12.2456 22.3013 11.8548 21.9485C11.1916 21.3127 9.76914 19.7594 8.484 18.3315C7.8449 17.6214 7.24857 16.9521 6.81192 16.4603C6.59363 16.2145 6.41535 16.013 6.2917 15.8732L6.14904 15.7116L6.10978 15.6671C4.8563 14.1361 4.10527 12.2401 4.10527 10.1936C4.10527 8.72795 4.48589 7.31669 5.13474 6.12714ZM5.42445 16.2499C4.74955 16.8444 4.74978 16.8447 4.74978 16.8447L5.42445 16.2499Z" fill="#D41D12" style="fill:#D41D12;fill:color(display-p3 0.8314 0.1137 0.0706);fill-opacity:1;"/>
<path id="Vector (Stroke)_3" fill-rule="evenodd" clip-rule="evenodd" d="M8.03564 1.04677C9.39846 0.397814 10.9091 0 12.4998 0C18.1533 0 22.6934 4.54011 22.6934 10.1936C22.6934 12.7519 21.774 15.0543 20.263 16.8297L20.2579 16.8358L20.2357 16.8621C20.2165 16.8849 20.1885 16.9181 20.1522 16.9607C20.0796 17.0459 19.974 17.1688 19.84 17.3218C19.5723 17.6278 19.1905 18.0554 18.7325 18.544L17.4201 17.3136C17.8615 16.8428 18.2293 16.4309 18.4862 16.1373C18.6146 15.9905 18.7151 15.8736 18.7831 15.7938C18.8171 15.754 18.8429 15.7235 18.86 15.7032L18.879 15.6806L18.8834 15.6752L18.8843 15.6741L18.8907 15.6666C20.1362 14.2045 20.8946 12.3108 20.8946 10.1936C20.8946 5.5336 17.1598 1.79888 12.4998 1.79888C11.2123 1.79888 9.96466 2.12061 8.80904 2.67091L8.03564 1.04677Z" fill="#D41D12" style="fill:#D41D12;fill:color(display-p3 0.8314 0.1137 0.0706);fill-opacity:1;"/>
</g>
</g>
<defs>
<clipPath id="clip0_146_2084">
<rect width="24" height="24" fill="white" style="fill:white;fill-opacity:1;"/>
</clipPath>
</defs>
</svg>
