<svg width="22" height="22" viewBox="0 0 22 22" fill="none" xmlns="http://www.w3.org/2000/svg">
<g id="In Transit">
<path id="Vector" d="M0 4.58334V6.41668H12.8333V10.0833V11.9167V14.6667H7.53564C7.03233 14.1081 6.31117 13.75 5.5 13.75C4.68883 13.75 3.96767 14.1081 3.46436 14.6667H2.75V13.75L4.58333 11.9167H0.916667V16.5H2.75C2.75 18.0189 3.98108 19.25 5.5 19.25C7.01892 19.25 8.25 18.0189 8.25 16.5H13.75C13.75 18.0189 14.9811 19.25 16.5 19.25C18.0189 19.25 19.25 18.0189 19.25 16.5H20.1667H21.0833V11.9167L18.5858 6.92335C18.4309 6.6126 18.115 6.41668 17.7676 6.41668H14.6667V4.58334H0ZM0.916667 8.25001V10.0833H7.33333V8.25001H0.916667ZM14.6667 8.25001H17.2L18.1167 10.0833H14.6667V8.25001ZM14.6667 11.9167H19.0334L19.25 12.3499V14.6667H18.5356C18.0323 14.1081 17.3112 13.75 16.5 13.75C15.7923 13.75 15.154 14.0252 14.6667 14.4644V11.9167ZM5.5 15.3542C6.13158 15.3542 6.64583 15.8684 6.64583 16.5C6.64583 17.1316 6.13158 17.6458 5.5 17.6458C4.86842 17.6458 4.35417 17.1316 4.35417 16.5C4.35417 15.8684 4.86842 15.3542 5.5 15.3542ZM16.5 15.3542C17.1316 15.3542 17.6458 15.8684 17.6458 16.5C17.6458 17.1316 17.1316 17.6458 16.5 17.6458C15.8684 17.6458 15.3542 17.1316 15.3542 16.5C15.3542 15.8684 15.8684 15.3542 16.5 15.3542Z" fill="#D41D12" style="fill:#D41D12;fill:color(display-p3 0.8314 0.1137 0.0706);fill-opacity:1;"/>
</g>
</svg>
