<svg width="69" height="49" viewBox="0 0 69 49" fill="none" xmlns="http://www.w3.org/2000/svg">
<path fill-rule="evenodd" clip-rule="evenodd" d="M0 0.676832V1.35366H18.665H37.3301V17.733V34.1124H18.665H0V34.7858V35.4593L2.18994 35.4965L4.37988 35.5337L4.41573 39.3127C4.43958 41.8245 4.50158 43.1523 4.60076 43.2722C4.70534 43.3988 5.12244 43.4526 5.99828 43.4526H7.24675L7.33395 44.0372C7.48448 45.0452 8.15359 46.2535 9.06339 47.1602C11.5202 49.6088 15.2634 49.6138 17.6699 47.1717C18.6913 46.1353 19.1401 45.2981 19.4642 43.8249L19.5461 43.4526H33.7461H47.946L48.0332 44.0372C48.1837 45.0452 48.8528 46.2535 49.7626 47.1602C52.2194 49.6088 55.9626 49.6138 58.3691 47.1717C59.3905 46.1353 59.8393 45.2981 60.1634 43.8249L60.2454 43.4526H64.461C67.56 43.4526 68.7194 43.4096 68.8383 43.2902C68.9609 43.167 69 40.8594 69 33.7325V24.3374L66.0895 17.5495C64.4887 13.8162 62.9661 10.3657 62.7062 9.88175C61.2856 7.23859 59.0074 4.90866 56.4349 3.46822C55.9706 3.20832 54.0494 2.32167 52.1655 1.49783L48.74 0H45.7574C43.6172 0 42.7289 0.0458888 42.6129 0.162439C42.4888 0.287112 42.4512 4.25958 42.4512 17.2186V34.1124H40.5645H38.6777V17.3571C38.6777 2.41128 38.6551 0.569216 38.4679 0.30092L38.2582 0H19.129H0V0.676832ZM47.8418 5.48234V9.61102H46.8311H45.8203V10.2879V10.9647H46.8311H47.8418V17.733V24.5013H48.5156H49.1895V19.2885V14.0757L56.163 14.1107L63.1366 14.1458L65.3865 19.3574L67.6363 24.569L67.6444 28.9346L67.6523 33.3002H66.5326C64.8149 33.3002 64.8979 33.1407 64.8463 36.5379L64.8027 39.3916H62.5215H60.2402V38.559V37.7264L59.1958 36.4329C58.6214 35.7216 57.9333 34.9084 57.6669 34.6259L57.1824 34.1124H53.1859H49.1895V30.6605V27.2087H48.5156H47.8418V30.6605V34.1124H45.8203H43.7988V17.733V1.35366H45.8203H47.8418V5.48234ZM51.8679 2.85569C53.2485 3.45848 54.8778 4.21599 55.4888 4.53911C58.517 6.14076 60.8952 8.81886 62.3066 12.2168L62.5175 12.7244H55.8535H49.1895V11.8446V10.9647H51.2109H53.2324V10.2879V9.61102H51.2109H49.1895V5.68539C49.1895 3.5263 49.2273 1.75976 49.2737 1.75976C49.32 1.75976 50.4874 2.2529 51.8679 2.85569ZM0 3.79026V4.46709H16.9131H33.8262V17.733V30.9989H30.5244H27.2227V31.6758V32.3526H30.9865C34.2284 32.3526 34.7796 32.3231 34.9621 32.1399C35.1519 31.9492 35.1738 30.4561 35.1738 17.731V3.53482L34.8742 3.32419C34.607 3.13604 32.7157 3.11343 17.2873 3.11343H0V3.79026ZM53.0419 15.1481C52.8335 15.3794 52.8141 15.7238 52.8527 18.4984C52.8955 21.5878 52.8959 21.5916 53.2634 22.2197C53.6797 22.9309 54.3035 23.5068 54.9549 23.7809C55.198 23.8832 57.7297 24.2471 60.5809 24.5895C66.1335 25.2563 66.1699 25.256 66.1699 24.5517C66.1699 24.1074 61.6582 15.0817 61.3832 14.9757C61.2612 14.9288 59.3869 14.8903 57.2178 14.8903C53.5114 14.8903 53.2602 14.9059 53.0419 15.1481ZM62.5666 19.9682L64.419 23.6925L63.9131 23.6187C63.6348 23.5781 61.6651 23.336 59.5358 23.0807C57.184 22.7986 55.5086 22.5354 55.2677 22.4103C55.0493 22.2969 54.7297 22.0053 54.557 21.7622C54.2595 21.3432 54.241 21.1881 54.2013 18.7821L54.1595 16.244H57.4368H60.7142L62.5666 19.9682ZM53.502 31.2697V31.9465H55.2539H57.0059V31.2697V30.5928H55.2539H53.502V31.2697ZM0 31.6758V32.3526H12.2637H24.5273V31.6758V30.9989H12.2637H0V31.6758ZM67.6523 37.0227V39.3916H66.9785H66.3047V37.0227V34.6538H66.9785H67.6523V37.0227ZM46.5278 35.6011L47.8418 35.6014V38.8502V42.099H45.8203H43.7988V39.5347C43.7988 37.0383 43.7909 36.9648 43.4992 36.7597C43.2385 36.5762 42.3797 36.549 36.8584 36.549C31.3371 36.549 30.4783 36.5762 30.2176 36.7597C29.9259 36.9648 29.918 37.0382 29.918 39.5362V42.1021L24.7059 42.0668L19.494 42.0313L19.3417 41.3545C19.1126 40.3352 18.3805 39.0746 17.5711 38.3057C14.9111 35.7787 10.5937 36.1734 8.41746 39.1427C7.87853 39.8782 7.27734 41.308 7.27734 41.8545C7.27734 42.0605 7.16091 42.099 6.53613 42.099H5.79492V38.8507V35.6025L22.0005 35.5571C30.9136 35.5322 39.7828 35.5318 41.71 35.5563C43.6371 35.5808 45.8051 35.601 46.5278 35.6011ZM57.7808 36.8427C58.5116 37.7429 58.8926 38.3278 58.8926 38.5497C58.8926 38.8698 58.8577 38.8545 58.2151 38.2508C56.577 36.7117 54.0788 36.2249 51.8848 37.0173C51.1704 37.2753 50.4591 37.7295 49.722 38.3983L49.1895 38.8817V37.2641C49.1895 36.3745 49.2299 35.6059 49.2793 35.5563C49.3287 35.5066 51.0116 35.4676 53.0191 35.4695L56.6689 35.4732L57.7808 36.8427ZM15.14 38.3124C16.7476 38.9165 17.9783 40.585 18.1459 42.3874C18.2122 43.1011 18.168 43.4878 17.9302 44.2745C17.6652 45.1507 17.5273 45.3679 16.7248 46.1739C15.9224 46.98 15.7061 47.1185 14.8338 47.3846C11.9641 48.2602 9.10584 46.4876 8.62756 43.5358C8.03001 39.8482 11.6024 36.9829 15.14 38.3124ZM34.2305 40.0008V42.099H32.748H31.2656V40.0008V37.9026H32.748H34.2305V40.0008ZM38.1387 40.0008V42.099H36.8584H35.5781V40.0008V37.9026H36.8584H38.1387V40.0008ZM42.4512 40.0008V42.099H40.9688H39.4863V40.0008V37.9026H40.9688H42.4512V40.0008ZM55.8392 38.3124C56.8811 38.7039 57.8411 39.6116 58.383 40.7174C58.7782 41.5235 58.8252 41.7423 58.8245 42.773C58.824 43.7515 58.7663 44.0519 58.4439 44.7535C57.9678 45.7903 57.0464 46.7105 55.9951 47.1994C55.3141 47.5161 55.0058 47.5759 54.041 47.5783C53.0429 47.5809 52.7917 47.5302 52.0887 47.1833C51.1058 46.6987 50.1666 45.7816 49.7234 44.874C49.2793 43.9643 49.1857 42.1395 49.5334 41.1683C50.4585 38.5841 53.2265 37.3304 55.8392 38.3124ZM12.6998 39.9274C11.9936 40.1003 11.2288 40.6908 10.8337 41.368C9.91228 42.947 10.8081 45.1519 12.5637 45.6268C14.7606 46.221 16.7717 44.2009 16.1801 41.9942C15.8026 40.5861 14.1113 39.5817 12.6998 39.9274ZM53.399 39.9274C52.6928 40.1003 51.928 40.6908 51.5329 41.368C50.6115 42.947 51.5073 45.1519 53.2629 45.6268C55.4598 46.221 57.4709 44.2009 56.8793 41.9942C56.5018 40.5861 54.8105 39.5817 53.399 39.9274ZM64.8223 41.4221V42.099H62.5312H60.2402V41.4221V40.7453H62.5312H64.8223V41.4221ZM67.6523 41.4221V42.099H66.9785H66.3047V41.4221V40.7453H66.9785H67.6523V41.4221ZM14.2497 41.4984C15.0343 42.0148 15.1448 43.2292 14.469 43.908C13.4802 44.9011 11.8226 44.192 11.8226 42.7758C11.8226 41.484 13.1591 40.7806 14.2497 41.4984ZM54.9844 41.5383C55.759 42.1094 55.845 43.1685 55.1737 43.8721C54.1889 44.9047 52.5218 44.2156 52.5218 42.7758C52.5218 41.4575 53.9209 40.7544 54.9844 41.5383Z" fill="#D41D12"/>
</svg>
