<svg width="62" height="61" viewBox="0 0 62 61" fill="none" xmlns="http://www.w3.org/2000/svg">
<path fill-rule="evenodd" clip-rule="evenodd" d="M56.4212 0.0290734C53.3674 0.411577 50.4419 1.53307 48.1255 3.20904C47.5399 3.63272 45.1929 5.82677 42.382 8.57805L37.6285 13.2308L35.9487 13.0914C33.5667 12.8938 33.734 12.9602 33.8731 12.2688C34.0749 11.2655 33.5169 9.74609 32.6744 9.00448C32.5499 8.8948 32.1475 8.65527 31.7803 8.47208C31.225 8.19507 30.9597 8.13934 30.2024 8.14041C28.8022 8.1422 28.3929 8.37839 26.3671 10.3531L24.6461 12.0307L23.2669 11.8984C22.5082 11.8256 21.6637 11.7379 21.3903 11.7036L20.8928 11.6413L20.947 10.7807C21.042 9.2699 20.3486 8.01522 19.0179 7.29055C18.4314 6.97118 18.26 6.93645 17.275 6.93717C15.7995 6.93836 15.486 7.11726 13.3865 9.1576L11.683 10.8132L9.14509 10.571C7.7493 10.4378 6.46543 10.3594 6.29185 10.3969C6.09193 10.4401 4.89594 11.5279 3.02894 13.3647C0.36226 15.9882 0.0756736 16.3089 0.0181378 16.7322C-0.0304157 17.0906 0.0138894 17.2738 0.207375 17.5151C0.36226 17.7083 1.88162 18.5601 4.13353 19.7162C8.27404 21.8422 8.47603 21.9035 9.09399 21.2233C9.28747 21.0106 9.44576 20.7003 9.44576 20.534C9.44576 19.8212 9.1843 19.6087 6.81186 18.3941C5.55663 17.7516 4.23719 17.0652 3.87971 16.8688L3.2297 16.5118L5.13409 14.6366C6.59713 13.1961 7.09941 12.7707 7.3014 12.8009C7.44596 12.8226 13.7367 13.4095 21.2807 14.1052C28.8246 14.8009 35.0763 15.3949 35.1731 15.4253C35.2864 15.4607 33.2601 17.5347 29.4891 21.243L23.6289 27.0058L20.5127 25.4052C16.9497 23.5753 16.5887 23.4657 16.0063 24.0384C15.6068 24.4312 15.529 24.8938 15.7738 25.4221C15.9086 25.7128 16.4364 26.0131 20.4453 28.0795L21.795 28.7752L20.0557 30.5427C18.1857 32.443 16.9684 33.8739 15.7706 35.5793C15.036 36.6253 15.0012 36.6555 14.4463 36.7325C14.1327 36.776 12.5653 36.8216 10.9631 36.8339C9.36079 36.8463 7.10827 36.8913 5.95756 36.9339L3.86527 37.0115L2.22489 38.6211C1.24278 39.5848 0.534504 40.38 0.45961 40.603C0.306181 41.0603 0.449656 41.4844 0.867216 41.8074C1.03254 41.9353 3.34441 42.7563 6.00478 43.632C8.66502 44.5075 10.8604 45.2384 10.8831 45.256C10.9059 45.2737 10.73 46.0574 10.4922 46.9977C9.83589 49.5928 9.72992 50.3597 9.97669 50.7301C10.3883 51.3477 10.6846 51.4405 11.725 51.2776C12.2406 51.1969 13.4169 50.9425 14.339 50.7123C15.2611 50.4821 16.0309 50.3127 16.0498 50.336C16.0686 50.3592 16.8139 52.5222 17.706 55.1425C18.7198 58.1199 19.4321 60.0282 19.6052 60.2303C19.9418 60.6238 20.4287 60.7328 20.9165 60.524C21.1168 60.4384 21.9908 59.6638 22.8586 58.8028L24.4366 57.2374L24.5167 55.0012C24.5608 53.7713 24.6056 51.3956 24.6163 49.7218C24.627 48.048 24.6728 46.5877 24.7182 46.4767C24.7636 46.3658 25.2924 45.9409 25.8932 45.5327C27.6307 44.352 29.0847 43.156 31.0187 41.3162L32.8191 39.6034L38.3777 50.0821C41.4348 55.8455 44.0472 60.6596 44.1829 60.7804C44.3437 60.9234 44.6156 61 44.9622 61H45.4949L48.4656 58.0809C50.3484 56.2309 51.4617 55.0483 51.5057 54.8517C51.5438 54.681 51.464 53.4187 51.3286 52.0463L51.0823 49.551L52.7661 47.8761C54.8413 45.8118 55.0232 45.5037 55.0244 44.0529C55.0252 43.0844 54.9899 42.9159 54.665 42.3392C53.9286 41.032 52.6516 40.3491 51.1182 40.4423L50.2457 40.4954L50.1803 40.0663C50.1443 39.8302 50.0548 38.9992 49.9811 38.2195L49.8473 36.802L51.5519 35.1117C53.5648 33.1156 53.8026 32.7158 53.7936 31.3426C53.7854 30.0761 53.1958 28.9498 52.2041 28.3062C51.5087 27.8548 50.3214 27.5935 49.6018 27.7334C48.8994 27.87 48.9685 28.0374 48.7611 25.6969L48.6149 24.0495L53.3467 19.3716C58.716 14.0634 59.1514 13.5561 60.3397 11.2211C61.5964 8.75182 62.0015 6.9639 62 3.89301C61.9987 0.846354 61.8679 0.428166 60.8397 0.182433C60.3157 0.057239 57.0904 -0.0548267 56.4212 0.0290734ZM59.5529 2.48473C59.7546 2.68309 59.7389 4.516 59.5232 5.92237C59.1902 8.0947 58.4765 9.89969 57.1904 11.8224C56.4526 12.9253 55.2364 14.1545 42.2328 26.9375C33.5086 35.5137 27.5756 41.2538 26.7684 41.8991C22.9526 44.9493 18.413 47.2269 13.8922 48.359C13.2333 48.5241 12.6708 48.636 12.6422 48.608C12.4399 48.4091 13.8997 43.9886 14.7966 42.0837C16.5258 38.4111 18.31 35.8526 21.3935 32.6243C24.1417 29.747 48.5466 5.87427 49.3203 5.30643C51.3543 3.81377 53.7588 2.81413 56.137 2.47244C57.2605 2.31109 59.3841 2.31872 59.5529 2.48473ZM17.925 9.43365C18.526 9.73917 18.7477 10.6701 18.3371 11.1628C18.1283 11.4134 18.0976 11.4154 16.5467 11.2754C15.6788 11.1971 14.9446 11.1139 14.9152 11.0905C14.8317 11.024 16.1396 9.74036 16.5467 9.48914C16.9814 9.22097 17.4681 9.2014 17.925 9.43365ZM30.7513 10.6452C31.2446 10.8755 31.5867 11.5166 31.4775 12.0059C31.342 12.6123 31.2178 12.6425 29.5084 12.4847C28.655 12.406 27.9326 12.319 27.903 12.2913C27.8041 12.1987 29.2872 10.7912 29.6561 10.6278C30.1309 10.4174 30.2674 10.4196 30.7513 10.6452ZM41.1402 18.9779C40.088 19.5513 40.5282 21.1982 41.7338 21.1982C42.3488 21.1982 42.9476 20.6152 42.9476 20.0163C42.9476 19.1202 41.9405 18.5416 41.1402 18.9779ZM12.0207 21.6167C11.5858 21.8024 11.2175 22.4598 11.3395 22.8325C11.5763 23.5568 11.9203 23.8238 12.6168 23.8238C12.8614 23.8238 13.1033 23.7069 13.3394 23.4749C13.9614 22.8634 13.7476 21.842 12.9398 21.5652C12.4836 21.4088 12.5107 21.4073 12.0207 21.6167ZM37.7281 22.3407C37.2188 22.6804 27.7709 31.9765 27.5847 32.3212C27.3008 32.8466 27.369 33.2351 27.8232 33.6817C28.2773 34.1282 28.6722 34.1953 29.207 33.9168C29.7234 33.648 39.2763 24.1655 39.4258 23.7732C39.8085 22.7697 38.6061 21.755 37.7281 22.3407ZM47.7548 40.2733L49.1025 54.0779L47.2123 55.9554C46.1727 56.9879 45.2782 57.7896 45.2247 57.737C45.171 57.6842 42.7598 53.1874 39.8663 47.744L34.6054 37.8469L40.4403 32.0932C43.6495 28.9287 46.3047 26.3686 46.341 26.4041C46.3773 26.4396 47.0135 32.6808 47.7548 40.2733ZM50.6582 30.218C51.2227 30.4815 51.5165 31.1135 51.3411 31.6879C51.2188 32.0882 49.7052 33.7338 49.5791 33.6034C49.4782 33.4993 49.24 30.5155 49.3221 30.3849C49.414 30.2387 49.8331 30.0492 50.0909 30.0373C50.181 30.0332 50.4361 30.1145 50.6582 30.218ZM13.4514 39.282C13.4514 39.3165 13.2666 39.7058 13.0407 40.1473C12.6723 40.867 12.1421 42.0466 11.8637 42.7656C11.7625 43.0271 11.726 43.018 8.38827 41.9076C6.53316 41.2905 4.75101 40.695 4.42812 40.5845L3.84099 40.3834L4.35869 39.8647L4.87627 39.3461L6.22035 39.3083C8.76698 39.2366 13.4514 39.2195 13.4514 39.282ZM52.0338 42.9698C52.6174 43.2666 52.8245 44.0532 52.4855 44.6854C52.2997 45.0315 50.8726 46.461 50.8004 46.3733C50.7765 46.3442 50.6918 45.6223 50.6122 44.769C50.4698 43.2441 50.4718 43.2139 50.7266 43.0086C51.0405 42.7557 51.5812 42.7397 52.0338 42.9698ZM22.1505 52.0142L22.0706 56.2161L21.5591 56.7286C21.2065 57.0818 21.0217 57.1945 20.9643 57.0915C20.9183 57.0094 20.3029 55.2621 19.5966 53.2086L18.3123 49.4751L18.6434 49.3524C19.2216 49.1382 21.143 48.2875 21.5841 48.0505C21.8178 47.9249 22.0587 47.82 22.1197 47.8173C22.1858 47.8143 22.1982 49.5043 22.1505 52.0142Z" fill="#D41D12"/>
</svg>
