<svg width="22" height="22" viewBox="0 0 22 22" fill="none" xmlns="http://www.w3.org/2000/svg">
<g id="Math">
<path id="Vector" d="M5.5 2.75V5.5H2.75V7.33333H5.5V10.0833H7.33333V7.33333H10.0833V5.5H7.33333V2.75H5.5ZM11.9167 5.5V7.33333H19.25V5.5H11.9167ZM4.31478 12.1852L3.01855 13.4814L5.12044 15.5833L3.01855 17.6852L4.31478 18.9814L6.41667 16.8796L8.51855 18.9814L9.81478 17.6852L7.71289 15.5833L9.81478 13.4814L8.51855 12.1852L6.41667 14.2871L4.31478 12.1852ZM11.9167 12.8333V14.6667H19.25V12.8333H11.9167ZM11.9167 16.5V18.3333H19.25V16.5H11.9167Z" fill="white" style="fill:white;fill-opacity:1;"/>
</g>
</svg>
