<svg width="30" height="30" viewBox="0 0 30 30" fill="none" xmlns="http://www.w3.org/2000/svg">
<g id="PDF">
<path id="Vector" d="M17.5 2.5H5V27.5H25V10L17.5 2.5ZM19.9038 22.1225C19.6025 22.8325 19.0013 23.1362 18.3 22.9337C17.6988 22.7312 16.9963 22.2237 16.295 21.4137C15.5938 21.515 14.8913 21.7175 14.19 21.92C13.3875 23.3387 12.5863 24.555 11.7838 24.8587C11.5825 24.96 11.3825 25 11.1812 25C10.78 25 10.48 24.8587 10.2787 24.555C10.0787 24.2512 9.6775 23.6425 10.4788 22.7312C10.98 22.1225 12.1825 21.515 13.4862 21.11C13.8875 20.2987 14.1875 19.4887 14.4887 18.5762C13.7875 17.2587 13.3862 15.84 13.4862 15.0287C13.5875 14.2162 14.1025 13.75 14.79 13.75C15.4775 13.75 15.8925 14.2162 16.0938 14.9262C16.2937 15.7375 16.0938 17.055 15.5925 18.575C15.8938 19.1837 16.2937 19.7912 16.695 20.3987C17.8975 20.2975 18.9 20.2975 19.5025 20.7025C20.0037 21.0075 20.1038 21.5137 19.9038 22.1225ZM16.25 11.25V4.375L23.125 11.25H16.25Z" fill="#D41D12" style="fill:#D41D12;fill:color(display-p3 0.8314 0.1137 0.0706);fill-opacity:1;"/>
</g>
</svg>
