<svg width="64" height="63" viewBox="0 0 64 63" fill="none" xmlns="http://www.w3.org/2000/svg">
<path d="M0 30.8856C0.335348 29.6758 0.848306 28.5791 1.82702 27.7308C4.22538 25.6492 8.02599 26.1957 9.71018 28.8784C9.97473 29.2995 10.0704 29.7193 9.74744 30.1379C9.3177 30.6943 8.62217 30.6111 8.15765 29.9367C7.36275 28.7828 6.28218 28.2289 4.88117 28.3717C3.33361 28.5307 2.20336 29.6336 1.90776 31.2395C1.65935 32.5909 2.42941 34.0838 3.71367 34.7396C4.35946 35.0766 5.09713 35.1951 5.81599 35.0773C6.53485 34.9595 7.19612 34.6118 7.70058 34.0863C7.86785 33.904 8.02263 33.7106 8.16386 33.5075C8.56131 32.966 9.07551 32.8182 9.54002 33.1175C10.0045 33.4168 10.094 34.0105 9.70273 34.5868C8.61223 36.1903 7.09447 37.0274 5.15194 36.9839C2.70514 36.928 0.745217 35.3246 0.132897 32.9523C0.0957069 32.839 0.0513174 32.7283 0 32.6207L0 30.8856Z" fill="#D41D12"/>
<path d="M24.8888 41.5158C24.5969 40.7036 24.0392 40.1049 23.3686 39.6168C20.8141 37.7521 19.5535 35.2428 19.5866 32.0888C19.5953 31.1809 19.5866 30.2718 19.5866 29.3638C19.5928 27.0586 21.0981 25.4589 23.3872 25.3198C23.489 25.3136 23.5896 25.2987 23.7685 25.2788V24.5485C23.7685 22.2147 23.7536 19.8809 23.7846 17.5472C23.8033 16.1983 24.51 15.2333 25.7147 14.6905C26.9195 14.1477 28.1007 14.3179 29.1403 15.1538C29.9662 15.8121 30.3413 16.7113 30.3488 17.762C30.3587 19.1866 30.3488 20.6113 30.3488 22.0359V22.7525C32.1994 22.2445 33.6339 22.7078 34.6424 24.3671C35.5119 23.9498 36.4012 23.7871 37.3327 24.0728C38.2642 24.3585 38.9014 24.9509 39.3373 25.7818C39.8403 25.7011 40.3185 25.5669 40.8004 25.5558C41.2142 25.546 41.6257 25.6188 42.0111 25.7698C42.3964 25.9207 42.7478 26.1469 43.0448 26.4352C43.3418 26.7234 43.5785 27.0678 43.741 27.4485C43.9034 27.8291 43.9885 28.2383 43.9912 28.6521C44.0098 30.7785 44.0185 32.9061 43.985 35.0324C43.9626 36.4707 43.4745 37.7786 42.6635 38.9635C42.1221 39.7157 41.7759 40.5906 41.6562 41.5096C43.2224 41.8326 43.2224 41.8326 43.2224 43.4509C43.2224 44.8966 43.2224 46.3411 43.2224 47.7868C43.2224 48.7581 42.8895 49.0823 41.9083 49.0823C38.8728 49.0823 35.8373 49.0823 32.8018 49.0823C32.5782 49.0823 32.2863 49.1009 32.1472 48.9767C31.8988 48.7482 31.5585 48.4066 31.5771 48.1334C31.597 47.8266 31.9311 47.4937 32.2068 47.264C32.3658 47.1335 32.6813 47.1733 32.926 47.1733C35.4465 47.1683 37.9661 47.1683 40.485 47.1733H41.2649V43.5341H25.4241V47.1646C26.1147 47.1646 26.7903 47.1646 27.4635 47.1646C27.7121 47.1551 27.9611 47.1625 28.2087 47.1869C28.7403 47.264 29.1142 47.6738 29.0782 48.1483C29.0347 48.6662 28.7267 49.0314 28.2174 49.0475C26.939 49.0897 25.6593 49.0897 24.3783 49.0475C23.8045 49.0289 23.4841 48.6178 23.4791 48.0539C23.4629 46.2368 23.4567 44.4197 23.4791 42.6026C23.4853 41.9058 23.7697 41.722 24.8888 41.5158ZM39.6578 41.5643C39.8726 40.8191 40.0068 40.1273 40.2788 39.4901C40.5557 38.8306 40.9942 38.2406 41.3035 37.5923C41.5854 37.0011 41.9655 36.3825 41.9953 35.7603C42.1083 33.3917 42.1195 31.017 42.1195 28.6447C42.1165 28.4721 42.0781 28.3019 42.0067 28.1447C41.9353 27.9876 41.8323 27.8467 41.7042 27.731C41.5761 27.6152 41.4256 27.527 41.262 27.4718C41.0984 27.4166 40.9253 27.3956 40.7532 27.4101C40.1235 27.4573 39.6789 28.0063 39.6602 28.759C39.6602 28.8621 39.6602 28.9664 39.6602 29.0695C39.6342 29.6768 39.2553 30.1016 38.7337 30.109C38.212 30.1165 37.8183 29.693 37.8009 29.0831C37.7835 28.4733 37.8183 27.8411 37.7848 27.2201C37.7376 26.3395 37.1215 25.7619 36.3142 25.793C35.5342 25.8216 34.9803 26.414 34.9579 27.2698C34.943 27.8274 34.9579 28.3876 34.9579 28.9428C34.9579 29.6569 34.5977 30.0892 34.0252 30.0854C33.4526 30.0817 33.1073 29.6483 33.1036 28.9304C33.0974 27.8982 33.1197 26.8636 33.0849 25.8327C33.0539 24.9285 32.4726 24.397 31.6243 24.4168C30.858 24.4342 30.3711 24.982 30.3599 25.8663C30.3488 26.7966 30.3599 27.7293 30.3599 28.6546C30.3599 29.5799 30.0556 30.0569 29.4346 30.0854C28.795 30.109 28.4646 29.6259 28.4634 28.6521C28.4634 25.162 28.4634 21.6715 28.4634 18.1806C28.4634 16.9386 27.9429 16.2517 27.0301 16.2691C26.1172 16.2865 25.6489 16.9348 25.6489 18.157C25.6489 22.7624 25.6489 27.3683 25.6489 31.9746C25.6489 32.8216 25.3471 33.2414 24.7335 33.2563C24.0914 33.2725 23.7784 32.8539 23.7735 31.9622C23.7735 31.2803 23.7735 30.5959 23.7735 29.9178V27.2859C22.4855 27.0946 21.4968 27.9367 21.4583 29.221C21.4297 30.1699 21.4583 31.1201 21.4509 32.0702C21.4434 34.599 22.4196 36.626 24.4938 38.1102C25.5409 38.831 26.3282 39.8696 26.7394 41.0724C26.8798 41.4922 27.0648 41.5966 27.4784 41.5953C31.3821 41.5804 35.2858 41.5866 39.1895 41.5854C39.3497 41.5854 39.5124 41.5705 39.6578 41.5643Z" fill="#D41D12"/>
<path d="M31.7203 10.5448C28.8375 10.5386 26.4329 8.12537 26.4454 5.25007C26.4559 3.85209 27.0193 2.51511 28.0127 1.53134C29.006 0.54757 30.3483 -0.00298155 31.7463 1.21453e-05C34.6564 0.00746432 37.0386 2.38968 37.0237 5.27615C37.0068 6.67425 36.4415 8.0098 35.4496 8.99522C34.4577 9.98065 33.1184 10.5371 31.7203 10.5448ZM28.3568 5.25131C28.3576 5.91934 28.5564 6.57214 28.9282 7.12714C29.3 7.68214 29.8281 8.11441 30.4456 8.36925C31.0631 8.6241 31.7423 8.69008 32.3973 8.55885C33.0523 8.42762 33.6537 8.10508 34.1254 7.63202C34.5971 7.15895 34.9178 6.55663 35.0471 5.90124C35.1764 5.24584 35.1085 4.56682 34.8518 3.95007C34.5951 3.33331 34.1613 2.80654 33.6052 2.43637C33.0491 2.0662 32.3957 1.86928 31.7277 1.87051C30.8336 1.87574 29.9777 2.23393 29.3464 2.86711C28.7151 3.50028 28.3594 4.35719 28.3568 5.25131V5.25131Z" fill="#D41D12"/>
<path d="M13.0313 7.81057C15.9414 7.81927 18.3236 10.204 18.305 13.0892C18.2877 14.4873 17.7219 15.8226 16.7294 16.8074C15.7369 17.7923 14.3972 18.3477 12.999 18.3542C10.1175 18.3479 7.71173 15.9297 7.72663 13.0569C7.73779 11.6588 8.30211 10.322 9.29619 9.3389C10.2903 8.35576 11.6332 7.80626 13.0313 7.81057V7.81057ZM16.3948 13.1103C16.3974 12.4426 16.2022 11.789 15.8336 11.2322C15.4651 10.6754 14.9398 10.2402 14.3241 9.98176C13.7085 9.72329 13.03 9.65308 12.3744 9.77998C11.7188 9.90689 11.1156 10.2252 10.6408 10.6948C10.1661 11.1643 9.8411 11.7641 9.70699 12.4182C9.57287 13.0723 9.63561 13.7515 9.88728 14.37C10.139 14.9885 10.5683 15.5186 11.121 15.8932C11.6737 16.2679 12.3251 16.4703 12.9928 16.475C13.8894 16.4776 14.7506 16.1252 15.3881 15.4947C16.0256 14.8642 16.3875 14.0069 16.3948 13.1103V13.1103Z" fill="#D41D12"/>
<path d="M13.0205 55.9139C11.9788 55.9112 10.9613 55.6 10.0963 55.0196C9.23131 54.4392 8.55765 53.6155 8.16033 52.6526C7.763 51.6897 7.65982 50.6307 7.86379 49.6091C8.06776 48.5876 8.56975 47.6494 9.30641 46.913C10.0431 46.1765 10.9814 45.6747 12.0029 45.471C13.0245 45.2672 14.0835 45.3707 15.0463 45.7682C16.0092 46.1658 16.8327 46.8396 17.4129 47.7047C17.9931 48.5698 18.3041 49.5874 18.3065 50.6291C18.3103 53.5081 15.9057 55.9127 13.0205 55.9139ZM9.63965 50.5869C9.63191 51.0304 9.71159 51.471 9.87414 51.8837C10.0367 52.2964 10.2789 52.6731 10.5871 52.9921C11.2093 53.6365 12.0621 54.0073 12.9577 54.023C13.8534 54.0386 14.7186 53.6978 15.363 53.0756C16.0074 52.4533 16.3782 51.6005 16.3938 50.7049C16.4224 48.7797 14.9431 47.2496 13.0403 47.2409C12.5966 47.2346 12.1561 47.3165 11.7442 47.4818C11.3324 47.647 10.9575 47.8924 10.6411 48.2036C10.3248 48.5148 10.0734 48.8858 9.90152 49.2949C9.7296 49.704 9.6406 50.1431 9.63965 50.5869V50.5869Z" fill="#D41D12"/>
<path d="M50.7007 45.3691C52.0988 45.3701 53.4397 45.9244 54.4304 46.9109C55.4211 47.8975 55.9811 49.236 55.988 50.6341C55.988 53.5156 53.5834 55.9152 50.6982 55.914C49.2999 55.914 47.9588 55.3585 46.97 54.3697C45.9813 53.3809 45.4258 52.0399 45.4258 50.6416C45.4258 49.2432 45.9813 47.9022 46.97 46.9134C47.9588 45.9246 49.2999 45.3691 50.6982 45.3691H50.7007ZM54.0778 50.6552C54.0775 49.9875 53.8794 49.3348 53.5084 48.7796C53.1374 48.2244 52.6102 47.7915 51.9934 47.5358C51.3766 47.28 50.6978 47.2128 50.0428 47.3426C49.3878 47.4724 48.7859 47.7934 48.3132 48.265C47.8406 48.7367 47.5182 49.3378 47.387 49.9925C47.2558 50.6472 47.3215 51.3262 47.5759 51.9436C47.8303 52.5609 48.262 53.0891 48.8164 53.4613C49.3707 53.8335 50.023 54.0331 50.6907 54.0348C51.1359 54.0384 51.5774 53.9535 51.9895 53.7851C52.4015 53.6166 52.776 53.3679 53.0912 53.0535C53.4063 52.739 53.6558 52.3651 53.8252 51.9534C53.9945 51.5417 54.0804 51.1004 54.0778 50.6552V50.6552Z" fill="#D41D12"/>
<path d="M58.2113 36.9927C57.1671 36.9968 56.1451 36.6911 55.2747 36.114C54.4044 35.537 53.7248 34.7146 53.3221 33.7512C52.9194 32.7877 52.8117 31.7263 53.0126 30.7016C53.2135 29.6768 53.714 28.7347 54.4506 27.9946C55.1873 27.2544 56.127 26.7495 57.1508 26.5438C58.1746 26.3381 59.2364 26.4408 60.2018 26.839C61.1672 27.2371 61.9927 27.9128 62.5739 28.7804C63.155 29.648 63.4656 30.6685 63.4663 31.7128C63.4704 32.4052 63.3375 33.0916 63.0752 33.7324C62.8128 34.3732 62.4263 34.9558 61.9378 35.4466C61.4494 35.9373 60.8686 36.3266 60.2291 36.592C59.5895 36.8573 58.9037 36.9935 58.2113 36.9927V36.9927ZM58.1902 35.1122C58.8607 35.1103 59.5155 34.9095 60.0719 34.5353C60.6282 34.1611 61.0611 33.6303 61.3158 33.0101C61.5704 32.3898 61.6354 31.708 61.5025 31.0508C61.3696 30.3937 61.0447 29.7907 60.5691 29.3181C60.0934 28.8456 59.4883 28.5247 58.8302 28.3962C58.1722 28.2676 57.4908 28.3371 56.8723 28.5958C56.2537 28.8545 55.7258 29.2909 55.3553 29.8497C54.9848 30.4085 54.7883 31.0647 54.7908 31.7352C54.7999 32.6319 55.1617 33.4889 55.7979 34.1209C56.4341 34.7529 57.2935 35.109 58.1902 35.1122V35.1122Z" fill="#D41D12"/>
<path d="M54.233 12.9757C53.9709 12.3423 53.751 11.6865 53.4343 11.0816C53.1002 10.4457 53.1213 9.93646 53.6181 9.61726C54.0951 9.31047 54.5869 9.44958 54.9956 10.0048C56.2612 11.7287 56.3009 14.1842 55.0924 15.9901C54.4942 16.8894 53.6349 17.5841 52.6302 17.9806C51.6255 18.3772 50.5235 18.4566 49.4723 18.2084C47.3844 17.7116 45.7462 15.9094 45.4903 13.8079C45.1388 10.9686 46.8764 8.50937 49.661 7.90077C50.3789 7.74303 50.8869 8.00262 51.0211 8.59507C51.1453 9.13411 50.7987 9.5477 50.0796 9.72904C48.4265 10.1464 47.3844 11.3437 47.3273 12.8776C47.2689 14.4922 48.1607 15.7988 49.6511 16.2907C50.1614 16.4601 50.7049 16.5049 51.2361 16.4212C51.7673 16.3376 52.2707 16.1279 52.7043 15.8098C53.1378 15.4917 53.4888 15.0743 53.728 14.5927C53.9672 14.1111 54.0875 13.5792 54.0789 13.0415L54.233 12.9757Z" fill="#D41D12"/>
<path d="M31.17 52.9297C33.9484 52.9297 35.8984 54.2785 36.6734 56.3291C37.0535 57.3403 37.1144 58.4438 36.8479 59.4907C36.5814 60.5376 36.0003 61.4776 35.183 62.184C35.0431 62.3064 34.895 62.4189 34.7395 62.5206C34.2427 62.8423 33.7459 62.7777 33.418 62.3579C33.0901 61.9381 33.2081 61.4686 33.5956 61.0314C34.0788 60.485 34.6489 59.9422 34.9122 59.2926C35.5742 57.6544 34.6948 55.7677 33.0827 55.0697C32.3012 54.7282 31.4199 54.6932 30.6138 54.9718C29.8078 55.2503 29.136 55.822 28.7321 56.5731C28.3282 57.3242 28.2218 58.1998 28.4339 59.0259C28.646 59.8519 29.1612 60.5679 29.877 61.0314C29.9801 61.0998 30.0894 61.1556 30.1937 61.2252C30.7352 61.573 30.8967 62.0586 30.6309 62.5318C30.3651 63.005 29.8149 63.1404 29.2324 62.8398C26.3434 61.3494 25.5461 57.3998 27.6376 54.8784C28.7033 53.5979 30.0708 52.9347 31.17 52.9297Z" fill="#D41D12"/>
</svg>
