<svg width="58" height="59" viewBox="0 0 58 59" fill="none" xmlns="http://www.w3.org/2000/svg">
<path d="M48.7103 0.0102147C49.86 0.527758 50.2028 1.4414 50.1858 2.66149C50.137 5.95288 50.1608 9.24427 50.1858 12.5357C50.2096 12.8407 50.3242 13.1317 50.5149 13.371C51.9325 15.2448 53.8063 15.9916 56.1557 15.7794C57.5528 15.6534 58 16.2016 58 17.6271C58 21.542 58 25.4568 58 29.3717C58 30.5328 57.4688 31.0741 56.3112 31.0798C54.2932 31.0866 52.2752 31.0798 50.171 31.0798V33.5268C50.171 35.2372 49.4299 35.9795 47.7252 35.9795H13.8227C13.8091 36.2064 13.7898 36.3835 13.7898 36.5651C13.7898 39.7044 13.7898 42.8448 13.7796 45.9853C13.7687 46.1502 13.8022 46.315 13.8767 46.4625C13.9511 46.61 14.0638 46.7349 14.2029 46.824C14.6426 47.1491 15.0376 47.5307 15.3776 47.959C15.6455 48.3063 15.9269 48.388 16.331 48.3869C20.351 48.3755 24.3722 48.3801 28.3934 48.3801C28.525 48.3801 28.6578 48.3801 28.7895 48.3801C29.4557 48.3993 29.887 48.7614 29.8677 49.288C29.8484 49.8146 29.4477 50.1234 28.7883 50.1245C25.4099 50.1298 22.0311 50.1298 18.652 50.1245H16.6669V53.1753C16.8326 53.19 16.9927 53.215 17.1527 53.215H39.8043C40.5295 53.215 41.1572 53.0402 41.5067 52.3331C42.0231 51.2867 41.3115 50.1574 40.0733 50.1358C38.0723 50.1007 36.0714 50.1234 34.0704 50.1211C33.7867 50.1211 33.503 50.1358 33.2215 50.112C32.6767 50.0666 32.3567 49.7329 32.3601 49.2472C32.3635 48.7614 32.7005 48.4096 33.2328 48.3891C34.0273 48.3585 34.8218 48.3766 35.6106 48.3766C37.1019 48.3766 38.5944 48.3528 40.0846 48.3869C41.4659 48.4175 42.5202 49.052 43.0945 50.3288C43.6473 51.5579 43.4623 52.7349 42.6008 53.7723C41.9323 54.5747 41.0437 54.9311 40.004 54.9299C35.4551 54.9299 30.9058 54.9299 26.3561 54.9299C23.0715 54.9299 19.7869 54.9299 16.5024 54.922C16.3383 54.9081 16.1737 54.9416 16.0282 55.0187C15.8827 55.0958 15.7624 55.2131 15.6818 55.3567C15.2307 56.0458 14.6443 56.6361 13.9581 57.0917C13.2719 57.5472 12.5003 57.8586 11.6901 58.0068C11.6028 58.035 11.5191 58.0731 11.4404 58.1203H9.62448C9.56322 58.08 9.49729 58.0472 9.42814 58.0227C6.77232 57.4552 5.02902 55.8731 4.4343 53.2275C3.83958 50.5819 4.7362 48.388 6.90852 46.7582C7.19566 46.5426 7.25582 46.3269 7.25582 46.0057C7.24901 38.4022 7.24901 30.798 7.25582 23.193C7.25582 22.2793 7.52367 21.8571 8.10477 21.8503C8.68587 21.8435 8.96621 22.2555 8.96621 23.1782V45.6743H12.0442V6.98683C12.0442 6.72238 12.0442 6.4568 12.0261 6.19236C11.9409 5.04604 10.9694 3.99961 9.82764 3.97577C7.58269 3.92811 5.33546 3.94627 3.08937 3.96669C2.46173 3.97237 2.04066 4.35939 1.82048 4.93595C1.41643 5.99828 2.16097 6.9925 3.40943 7.01861C4.65789 7.04471 5.86435 7.00726 7.09011 7.03904C8.14563 7.06628 8.91513 7.87324 8.9628 8.92989C8.9628 9.04338 8.9628 9.15688 8.9628 9.27037V18.3501C8.95599 19.098 8.64161 19.5111 8.09115 19.493C7.56339 19.476 7.25809 19.0651 7.25809 18.358C7.25809 15.3878 7.24106 12.4188 7.27057 9.4497C7.27057 8.85952 7.08671 8.7063 6.5249 8.72673C5.41264 8.76645 4.2981 8.7517 3.18471 8.7324C2.5386 8.72059 1.91081 8.51573 1.38209 8.14417C0.85338 7.77262 0.447932 7.25137 0.217913 6.64748C0.149815 6.4795 0.0726376 6.30812 0 6.13901V4.77706C0.0272391 4.75209 0.0680978 4.73279 0.0794474 4.70329C0.739996 2.90891 1.75238 2.19615 3.64323 2.19502C5.18678 2.19502 6.73146 2.20864 8.27501 2.19502C9.55979 2.18026 10.8366 2.16891 11.9966 3.01219C12.0209 2.88036 12.0341 2.74672 12.0363 2.61268C11.9296 1.41643 12.3768 0.535702 13.48 0.0147545H39.4218C39.7804 0.312115 40.1028 0.62423 39.8939 1.15993C39.6851 1.69563 39.2561 1.73763 38.7783 1.7172C38.4764 1.70471 38.1745 1.7172 37.8703 1.7172H35.782C35.782 4.56709 35.782 7.32845 35.782 10.0887C35.782 10.7458 35.5947 11.2883 34.9875 11.597C34.3542 11.9171 33.7935 11.7366 33.2658 11.3031C32.5564 10.7197 31.8266 10.1681 31.0991 9.5893C30.3421 10.1886 29.6373 10.756 28.9189 11.3076C28.717 11.4762 28.4863 11.607 28.2379 11.6935C27.255 11.9829 26.4219 11.2679 26.4219 10.1284C26.4117 7.53729 26.4219 4.9473 26.4219 2.35618V1.71266H25.842C22.0671 1.71266 18.2922 1.72401 14.5173 1.70131C13.9498 1.70131 13.7762 1.8568 13.7773 2.43449C13.7932 12.8368 13.7977 23.238 13.7909 33.638C13.7909 33.8355 13.8136 34.033 13.8273 34.2668H47.631C47.7819 34.2668 47.9499 34.3008 48.0793 34.2475C48.2087 34.1942 48.4073 34.0512 48.4096 33.9433C48.4357 33.0059 48.4255 32.0672 48.4255 31.0821H47.6843C44.2874 31.0821 40.8893 31.09 37.4924 31.0821C35.6651 31.0764 34.428 29.7746 34.5608 28.0177C34.5952 27.7416 34.6448 27.4677 34.7094 27.1971C33.9354 26.9179 33.3679 26.4548 33.0274 25.7319C32.8579 25.3837 32.7652 25.0031 32.7556 24.616C32.746 24.2289 32.8198 23.8442 32.9718 23.4881C31.7063 23.0284 30.9391 22.2112 30.9028 20.8776C30.8642 19.4442 31.6587 18.568 32.8016 18.1537C32.8016 17.5704 32.7301 17.0574 32.8152 16.5716C33.0524 15.2176 34.134 14.3164 35.5232 14.3017C37.8635 14.279 40.2038 14.2926 42.5452 14.2903H43.2705C43.0015 14.0054 42.8165 13.8238 42.6508 13.632C42.0061 12.9023 41.77 12.0431 41.9823 11.1045C42.0851 10.6073 42.319 10.1466 42.6595 9.77008C43.0001 9.39355 43.4351 9.11484 43.9195 8.96279C44.4039 8.81073 44.9202 8.79084 45.4149 8.90518C45.9095 9.01951 46.3647 9.26393 46.7332 9.61313C47.2803 10.1137 47.7377 10.714 48.3222 11.3598C48.3718 11.2357 48.4117 11.1078 48.4413 10.9774C48.4413 8.06504 48.4413 5.15273 48.4504 2.23815C48.4504 1.8114 48.262 1.68996 47.8614 1.6945C46.3133 1.70925 44.7652 1.72741 43.2182 1.6752C42.9322 1.66613 42.5134 1.39487 42.4158 1.14291C42.3182 0.890946 42.5361 0.508463 42.6349 0.188404C42.6587 0.113496 42.7609 0.0624229 42.8278 0L48.7103 0.0102147ZM56.3021 17.5386C56.2454 17.5153 56.1864 17.4978 56.1262 17.4864C55.7675 17.4864 55.4089 17.4659 55.0502 17.4796C53.0867 17.5488 51.4603 16.8542 50.0995 15.4253C48.6786 13.9339 47.1997 12.4948 45.739 11.0455C45.1465 10.4553 44.5008 10.4031 43.9923 10.8854C43.4589 11.3916 43.4918 12.0556 44.0967 12.6775C44.6778 13.2734 45.268 13.8579 45.857 14.4447C46.1453 14.7318 46.311 15.0507 46.1408 15.4605C45.9705 15.8702 45.6255 16.0132 45.1863 16.0132C43.7324 16.0041 42.2796 16.0132 40.8257 16.0132C39.1085 16.0132 37.3902 16.0132 35.673 16.0132C34.9603 16.0132 34.4881 16.4343 34.4824 17.0347C34.4768 17.635 34.9364 18.0561 35.6537 18.0652C36.1815 18.072 36.7104 18.0652 37.2427 18.0652C38.658 18.0652 40.0744 18.0573 41.4897 18.0709C42.0118 18.0709 42.3614 18.4375 42.3636 18.913C42.3659 19.3886 42.0231 19.7359 41.4988 19.7642C41.3297 19.7745 41.1583 19.7642 40.9892 19.7642C38.6292 19.7642 36.2696 19.7642 33.9104 19.7642C33.0808 19.7642 32.6245 20.1297 32.6166 20.7857C32.6086 21.4417 33.0547 21.8072 33.882 21.814C34.6765 21.814 35.471 21.814 36.2655 21.814C37.9679 21.814 39.6624 21.814 41.3614 21.814C41.9789 21.814 42.3523 22.1409 42.3682 22.6516C42.3852 23.1896 42.0129 23.5221 41.3535 23.5244C39.4661 23.5312 37.5786 23.5244 35.6912 23.5312C34.9387 23.5369 34.4677 23.9761 34.4904 24.5946C34.5131 25.2132 34.9546 25.5662 35.7025 25.5673C37.5185 25.5673 39.3276 25.5673 41.139 25.5673C41.3085 25.5552 41.4787 25.5632 41.6463 25.5911C42.1003 25.7046 42.384 25.9827 42.3636 26.473C42.3443 26.927 42.0776 27.2005 41.6316 27.2754C41.4263 27.3038 41.219 27.3152 41.0119 27.3095C39.7634 27.3095 38.515 27.3095 37.2744 27.3197C36.724 27.3197 36.3869 27.6352 36.278 28.1527C36.2298 28.3581 36.2566 28.5739 36.3536 28.7613C36.4506 28.9486 36.6113 29.095 36.8068 29.1742C37.0853 29.2824 37.3835 29.3307 37.6819 29.3161C43.6843 29.3244 49.6868 29.3244 55.6892 29.3161C55.8878 29.3161 56.0853 29.2979 56.31 29.2866V17.5386H56.3021ZM28.2231 1.74217V9.60973C28.277 9.58936 28.3294 9.56508 28.3797 9.53709L29.8904 8.34538C30.8744 7.56907 31.3352 7.5702 32.3374 8.35673L34.0194 9.67896V1.74217H28.2231ZM10.5438 47.3279C9.33841 47.3204 8.17939 47.792 7.32172 48.6391C6.46406 49.4861 5.978 50.6391 5.97047 51.8445C5.96295 53.0499 6.43457 54.2089 7.2816 55.0666C8.12862 55.9243 9.28166 56.4103 10.4871 56.4179C12.9511 56.4383 15.0405 54.3749 15.0598 51.8905C15.0629 50.6875 14.5895 49.5323 13.7433 48.6774C12.897 47.8224 11.7467 47.3372 10.5438 47.3279V47.3279Z" fill="#D41D12"/>
<path d="M27.3881 43.8129C27.3881 44.3135 27.3994 44.7448 27.3881 45.1749C27.354 46.2293 26.7207 46.8546 25.6698 46.8694C24.9131 46.8808 24.1584 46.8808 23.4055 46.8694C22.3693 46.8546 21.7519 46.2701 21.6929 45.2328C21.6667 44.7788 21.6929 44.3316 21.6929 43.8107C21.4 43.8107 21.1606 43.8209 20.9222 43.8107C20.2344 43.7732 19.7464 43.4384 19.4933 42.7892C19.2402 42.14 19.3866 41.5748 19.8735 41.1322C21.1447 39.9753 22.431 38.8365 23.7324 37.7159C24.3532 37.1836 25.1295 37.2018 25.7413 37.7636C26.9523 38.8736 28.1428 40.0086 29.3198 41.1537C29.5483 41.3581 29.7048 41.6306 29.7661 41.931C29.8274 42.2313 29.7903 42.5434 29.6603 42.821C29.3947 43.4577 28.8976 43.7857 28.2087 43.8084C27.9647 43.8198 27.7206 43.8129 27.3881 43.8129ZM25.6482 45.1182C25.6482 44.3861 25.6312 43.7256 25.6539 43.0673C25.6766 42.409 25.9762 42.1196 26.647 42.1071C26.9875 42.1003 27.3359 42.1071 27.8364 42.1071L24.705 39.1369L21.3569 42.106H22.1968C23.1774 42.106 23.4248 42.3579 23.4271 43.3544C23.4271 43.9344 23.4271 44.5144 23.4271 45.1238L25.6482 45.1182Z" fill="#D41D12"/>
<path d="M40.4291 43.8105C40.4291 44.3326 40.437 44.7661 40.4291 45.1986C40.4075 46.2087 39.7697 46.8511 38.7539 46.8692C37.9594 46.8828 37.1706 46.8851 36.3784 46.8692C35.4114 46.8477 34.7951 46.2359 34.7588 45.2735C34.7418 44.807 34.7588 44.3394 34.7588 43.8139C34.4705 43.8139 34.2481 43.8196 34.0267 43.8139C33.3163 43.7923 32.7579 43.4155 32.5331 42.8026C32.2925 42.1432 32.4469 41.5542 32.9508 41.1002C34.1955 39.9721 35.453 38.859 36.7234 37.7611C37.3703 37.2016 38.1512 37.1868 38.7788 37.7611C40.0046 38.8802 41.2031 40.0311 42.3925 41.1899C42.8533 41.637 42.9475 42.2113 42.716 42.8106C42.4765 43.4348 41.9976 43.7628 41.337 43.8116C41.0556 43.8275 40.7752 43.8105 40.4291 43.8105ZM37.7551 39.1344L34.4024 42.1046H35.2275C36.2218 42.1046 36.4635 42.3464 36.4646 43.3304C36.4646 43.924 36.4646 44.5176 36.4646 45.0987H38.7164C38.7164 44.3712 38.7028 43.6925 38.7164 43.0149C38.7323 42.4099 39.0285 42.1251 39.63 42.1069C39.9921 42.0956 40.3553 42.1069 40.8785 42.1069L37.7551 39.1344Z" fill="#D41D12"/>
<path d="M19.3571 20.2721C19.1199 20.2516 18.9553 20.2335 18.7896 20.2244C18.1983 20.1915 17.8044 19.8748 17.5763 19.3505C17.33 18.783 17.4333 18.2416 17.8669 17.8387C18.9178 16.8649 19.9915 15.9153 21.0879 14.9899C21.6622 14.5064 22.3261 14.536 22.8902 15.0444C23.8833 15.9433 24.8526 16.8694 25.8105 17.8058C26.0244 17.9974 26.1702 18.2533 26.2259 18.535C26.2816 18.8167 26.2441 19.1089 26.1192 19.3675C26.0202 19.6256 25.8441 19.8469 25.6148 20.0013C25.3855 20.1556 25.1142 20.2355 24.8378 20.2301C24.688 20.2301 24.5393 20.2448 24.3191 20.2573C24.3055 20.4605 24.2817 20.6579 24.2817 20.8554C24.2817 22.1584 24.2817 23.4658 24.2817 24.7654C24.2749 25.9537 23.7732 26.4565 22.6019 26.4678C22.0344 26.4678 21.467 26.4769 20.8995 26.4678C19.903 26.4485 19.365 25.9174 19.3582 24.9231C19.3491 23.3909 19.3571 21.8621 19.3571 20.2721ZM24.0501 18.489L21.947 16.5074L19.7464 18.4527C20.9574 18.64 21.0606 18.7648 21.0606 19.9588V24.7257H22.5531V24.1446C22.5531 22.6328 22.5531 21.121 22.5531 19.6047C22.5531 18.8431 22.8539 18.5412 23.6007 18.5117C23.7108 18.5106 23.8175 18.5106 24.0501 18.489Z" fill="#D41D12"/>
<path d="M21.8308 28.2072C23.2472 28.2072 24.6625 28.1981 26.0778 28.2072C26.7792 28.2151 27.1571 28.6226 27.0686 29.2161C26.9971 29.694 26.626 29.9448 25.9564 29.9459C23.8998 29.9459 21.8425 29.9459 19.7844 29.9459C19.049 29.9459 18.309 29.955 17.5769 29.9459C16.922 29.9357 16.543 29.6054 16.543 29.0697C16.543 28.534 16.9152 28.2128 17.5837 28.2083C19.0002 28.2004 20.4155 28.2072 21.8308 28.2072Z" fill="#D41D12"/>
<path d="M7.5899 51.8504C7.58743 51.4636 7.66229 51.0802 7.8101 50.7228C7.9579 50.3654 8.17567 50.0411 8.45059 49.769C8.72551 49.4969 9.05204 49.2826 9.41099 49.1385C9.76995 48.9944 10.1541 48.9236 10.5408 48.9301C11.3122 48.9384 12.0498 49.2484 12.5954 49.7938C13.141 50.3392 13.4514 51.0767 13.4599 51.8481C13.4538 52.6293 13.1422 53.3771 12.5918 53.9316C12.0414 54.486 11.2959 54.803 10.5147 54.8149C9.73424 54.808 8.9883 54.4922 8.44015 53.9366C7.89199 53.381 7.58627 52.6308 7.5899 51.8504V51.8504ZM11.7178 51.8833C11.7211 51.7226 11.6927 51.5628 11.6343 51.4131C11.5758 51.2634 11.4884 51.1267 11.3771 51.0107C11.2658 50.8948 11.1328 50.8019 10.9856 50.7374C10.8384 50.6729 10.6799 50.6381 10.5192 50.6348C10.1953 50.6429 9.88686 50.7752 9.65782 51.0045C9.42879 51.2337 9.29671 51.5423 9.28894 51.8663C9.29559 52.1808 9.42182 52.4809 9.64193 52.7057C9.86205 52.9305 10.1595 53.0629 10.4738 53.0761C10.6348 53.0816 10.7951 53.0547 10.9455 52.9971C11.0958 52.9394 11.233 52.8522 11.349 52.7405C11.465 52.6288 11.5574 52.495 11.6208 52.347C11.6841 52.199 11.7171 52.0397 11.7178 51.8787V51.8833Z" fill="#D41D12"/>
</svg>
