<svg width="54" height="54" viewBox="0 0 54 54" fill="none" xmlns="http://www.w3.org/2000/svg">
<path fill-rule="evenodd" clip-rule="evenodd" d="M10.7653 0.184644C10.5664 0.285997 10.3054 0.50294 10.1853 0.666729C9.97686 0.950749 9.96684 1.09735 9.96684 3.86625V6.76825L10.2158 6.9699C10.5102 7.20836 10.9528 7.23093 11.2387 7.022C11.4292 6.88289 11.4471 6.69073 11.4961 4.25352L11.5489 1.63459L13.9483 1.60622L16.3477 1.57785V3.33048C16.3477 6.00468 16.4812 6.15728 18.7697 6.09875C20.7758 6.04749 20.8829 5.90427 20.8829 3.27269V1.58186H23.2559H25.629V7.06113V12.5405L22.8246 12.5717C20.0218 12.603 20.0201 12.6031 19.8187 12.852C19.6297 13.0857 19.6173 13.3117 19.6173 16.517V19.9329H15.5567H11.4961V14.5619V9.19069L11.2182 8.97217C10.8565 8.68752 10.6253 8.69627 10.2628 9.00803L9.96684 9.26252L9.93762 14.5924L9.90851 19.9223L7.38748 19.954C5.03109 19.9835 4.84705 19.9999 4.56903 20.2041C3.88591 20.7056 3.90268 20.5328 3.90257 27.0782L3.90236 33.0107L2.50489 33.0109C0.890265 33.011 0.489693 33.1385 0.184782 33.749C0.0131836 34.0924 0.000316407 34.7936 0.000210938 43.7993L0 53.4807L0.258927 53.7395L0.517748 53.9984H4.93807C9.25017 53.9984 9.36513 53.993 9.63619 53.7798C9.98445 53.5059 10.0172 52.9414 9.70316 52.6274C9.49971 52.4239 9.35163 52.4164 5.53713 52.4164H1.58204V43.5046V34.5927H7.1719H12.7618V36.3909C12.7618 38.9928 12.8714 39.1277 14.9837 39.1277C17.063 39.1277 17.1915 38.9687 17.1915 36.3957V34.5927H22.7813H28.3712V43.5046V52.4164H20.2091C12.4339 52.4164 12.0355 52.4256 11.8066 52.6109C11.4586 52.8927 11.4812 53.4311 11.8545 53.7523L12.1426 54L32.8698 53.9728L53.597 53.9457L53.7986 53.6967C53.9929 53.4567 54.0002 53.1742 54 45.8922C53.9999 38.9104 53.9859 38.3087 53.8154 37.9676C53.4543 37.2447 53.3578 37.2297 49.0695 37.2295L45.2463 37.2293V31.0252V24.8212L45.0022 24.5918C44.6783 24.2876 44.245 24.2995 43.9232 24.6214L43.6642 24.8802V31.0548V37.2293H36.8087H29.9532V35.3789C29.9532 33.5548 29.9496 33.5247 29.6943 33.2696L29.4355 33.0107H25.3173H21.1993V23.5715V14.1323H25.6817H30.1642V15.8231C30.1642 17.6226 30.242 18.006 30.688 18.4037C30.9013 18.5938 31.0737 18.6146 32.4408 18.6146H33.9571L34.3018 18.27L34.6466 17.9256L34.6796 16.0289L34.7126 14.1323H39.1884H43.6642V18.0823C43.6642 20.7526 43.7022 22.1155 43.7813 22.2894C43.8987 22.5468 44.2742 22.7805 44.5705 22.7805C44.6574 22.7805 44.845 22.664 44.9873 22.5216L45.2463 22.2628L45.2458 17.9075C45.2455 13.8324 45.2328 13.5314 45.0474 13.2274C44.617 12.5217 45.0131 12.5503 35.659 12.5503H27.211L27.2106 6.77605C27.2103 1.17043 27.2041 0.991564 26.9974 0.652702C26.5884 -0.0181666 26.8202 -0.000131919 18.5923 7.90126e-05C11.6934 0.000184478 11.0996 0.0142114 10.7653 0.184644ZM19.3009 3.05838V4.5349H18.6153H17.9298V3.05838V1.58186H18.6153H19.3009V3.05838ZM33.1173 15.6088V17.0853H32.4318H31.7462V15.6088V14.1323H32.4318H33.1173V15.6088ZM10.336 23.3131C10.336 25.9417 10.4246 26.0502 12.5719 26.0495C13.6704 26.0492 13.9207 26.0178 14.2052 25.8443C14.7625 25.5045 14.8107 25.3179 14.8531 23.3342L14.892 21.5149H17.2546H19.6173V27.2628V33.0107H12.5508H5.4844V27.2628V21.5149H7.91019H10.336V23.3131ZM13.2657 23.0178L13.295 24.468H12.6065H11.918V22.9864V21.5049L12.5772 21.5362L13.2364 21.5676L13.2657 23.0178ZM15.6094 36.0692V37.5457H14.9766H14.3438V36.0692V34.5927H14.9766H15.6094V36.0692ZM38.9181 40.5568C38.9181 42.5027 38.9889 42.7778 39.5825 43.1396C39.8678 43.3137 40.116 43.3456 41.1857 43.3456C42.2554 43.3456 42.5036 43.3137 42.7889 43.1396C43.3825 42.7778 43.4533 42.5027 43.4533 40.5568V38.8113H47.9357H52.4182V45.6139V52.4164H41.1857H29.9532V45.6139V38.8113H34.4357H38.9181V40.5568ZM41.8713 40.2878V41.7644H41.1857H40.5002V40.2878V38.8113H41.1857H41.8713V40.2878Z" fill="#D41D12"/>
</svg>
