<svg width="65" height="50" viewBox="0 0 65 50" fill="none" xmlns="http://www.w3.org/2000/svg">
<path d="M42.1054 0C43.538 0.260764 44.9885 0.44167 46.3966 0.796961C56.1752 3.26607 63.2827 11.1183 64.7104 21.0975C65.8724 29.2089 63.5288 36.2772 57.8327 42.1102C53.729 46.3118 48.6049 48.6293 42.7312 49.2307C38.0326 49.7196 33.5816 48.8787 29.3475 46.8121C28.3696 46.3362 28.0437 45.6566 28.4348 44.8971C28.8259 44.1376 29.5105 43.9877 30.4574 44.4489C32.9089 45.6699 35.5704 46.4132 38.2998 46.6394C38.5101 46.6556 38.722 46.6394 39.0235 46.6394C39.0235 45.8522 39.0235 45.1025 39.0235 44.3577C39.0349 43.4466 39.5124 42.9088 40.2898 42.8909C41.1047 42.8762 41.6018 43.4238 41.6164 44.3805C41.6262 45.0845 41.6295 45.787 41.6393 46.491C41.6393 46.5139 41.6653 46.535 41.755 46.6752C46.7128 46.3493 51.0936 44.5157 55.0377 41.1633C54.4379 40.5945 53.8626 40.0779 53.3215 39.5335C52.6892 38.893 52.6451 38.1433 53.1699 37.5908C53.6947 37.0383 54.4998 37.0514 55.1762 37.6886C55.4516 37.9494 55.7222 38.2167 55.9813 38.4921C56.2404 38.7675 56.4849 39.0593 56.7962 39.4097C60.1731 35.5243 61.9952 31.1385 62.3374 25.995H60.838C59.0828 25.995 58.5156 25.669 58.5286 24.6765C58.5417 23.6839 59.0991 23.402 60.8804 23.402H62.3244C61.974 18.2812 60.1568 13.8906 56.7946 9.9775C56.2111 10.5936 55.6945 11.1852 55.1354 11.7344C54.508 12.3505 53.7289 12.3651 53.1895 11.8224C52.65 11.2797 52.6761 10.5186 53.2971 9.87971C53.843 9.32559 54.4265 8.80569 55.0426 8.22386C51.1311 4.83881 46.7307 3.05746 41.6148 2.69076C41.6148 3.54314 41.6148 4.29283 41.6148 5.04416C41.6018 5.94706 41.1177 6.48652 40.3338 6.49629C39.5499 6.50607 39.0381 5.96499 39.03 5.0735C39.0169 4.32054 39.03 3.56758 39.03 2.74455C37.1362 2.72988 35.3777 3.11125 33.6631 3.67026C32.563 4.02718 31.4988 4.50471 30.4329 4.9643C29.4876 5.37175 28.7901 5.21366 28.4267 4.44766C28.0844 3.72404 28.3729 3.04768 29.2415 2.61416C31.9013 1.27499 34.7876 0.443711 37.7522 0.162978C37.9611 0.125412 38.1666 0.0709058 38.3667 0L42.1054 0Z" fill="#D41D12"/>
<path d="M0 24.2036C0.409074 23.5908 0.959939 23.3773 1.7129 23.3789C10.1052 23.4039 18.4963 23.4093 26.8864 23.3952C27.1038 23.3789 27.3222 23.3849 27.5384 23.4131C28.1903 23.5549 28.5765 23.964 28.6075 24.6501C28.6264 24.9638 28.5271 25.2731 28.3292 25.5172C28.1313 25.7613 27.8491 25.9223 27.5384 25.9686C27.2963 25.9934 27.0528 25.9994 26.8098 25.9866C18.4719 25.9866 10.1345 25.9914 1.79764 26.0012C1.03165 26.0012 0.428632 25.8382 0.00488933 25.1863L0 24.2036Z" fill="#D41D12"/>
<path d="M35.8262 27.4453C35.1351 26.1659 34.9477 24.9192 35.2052 23.6382C35.8245 20.5416 39.0694 18.8222 42.1921 19.9483C42.7576 20.1521 43.0917 20.0983 43.5187 19.6599C45.4044 17.7204 47.3324 15.8201 49.2507 13.91C50.002 13.1603 50.7924 13.0837 51.3694 13.6884C51.9235 14.2669 51.8387 15.0313 51.1184 15.7533C49.0371 17.841 46.9494 19.9223 44.8519 22.0182C45.4811 23.1496 45.6852 24.4687 45.4272 25.7373C44.8062 28.816 41.6168 30.5566 38.5218 29.4597C37.8308 29.2153 37.4168 29.2967 37.0126 29.8427C36.894 29.9907 36.7577 30.1237 36.6068 30.2388C36.0283 30.7114 35.2557 30.6837 34.7766 30.1801C34.5522 29.9418 34.4256 29.6279 34.422 29.3006C34.4183 28.9733 34.5379 28.6566 34.757 28.4134C35.096 28.072 35.4529 27.7488 35.8262 27.4453V27.4453ZM40.3586 22.2447C38.7761 22.23 37.72 23.2079 37.7183 24.6894C37.7183 26.1285 38.7581 27.1243 40.2771 27.134C41.8531 27.1487 42.9173 26.1562 42.9173 24.6894C42.9173 23.2486 41.8857 22.2577 40.3586 22.2447Z" fill="#D41D12"/>
<path d="M19.0169 18.1906C15.7687 18.1906 12.5206 18.1906 9.27406 18.1906C8.64008 18.1906 8.07943 17.9999 7.93438 17.3757C7.84429 16.9191 7.9249 16.4453 8.16092 16.0442C8.3239 15.7769 8.84706 15.6058 9.2105 15.6041C15.7872 15.5781 22.3606 15.5732 28.9308 15.5895C29.8076 15.5895 30.3797 16.1273 30.3732 16.8933C30.3666 17.6593 29.7946 18.1759 28.9064 18.1776C25.6191 18.1955 22.327 18.1906 19.0169 18.1906Z" fill="#D41D12"/>
<path d="M19.0677 33.785C15.8473 33.785 12.6269 33.785 9.40643 33.785C8.36826 33.785 7.81087 33.3222 7.8125 32.4812C7.81413 31.6402 8.36989 31.1904 9.41295 31.1904C15.9082 31.1904 22.4034 31.1904 28.8986 31.1904C29.7298 31.1904 30.2806 31.5962 30.3654 32.2856C30.4501 32.975 30.1405 33.4509 29.5228 33.7003C29.2635 33.7744 28.9929 33.8009 28.7242 33.7785C25.5037 33.7861 22.2849 33.7883 19.0677 33.785Z" fill="#D41D12"/>
<path d="M23.8991 10.3925C21.6549 10.3925 19.4107 10.3925 17.1649 10.3925C16.1462 10.3925 15.5872 9.90352 15.61 9.05766C15.6329 8.25255 16.1756 7.80273 17.1632 7.80273C21.6799 7.80273 26.1955 7.80273 30.7099 7.80273C31.6715 7.80273 32.2256 8.29167 32.2256 9.09678C32.2256 9.90189 31.6715 10.3892 30.7132 10.3925C28.4413 10.3973 26.1694 10.3925 23.8991 10.3925Z" fill="#D41D12"/>
<path d="M23.9909 38.9894C26.2074 38.9894 28.4244 38.9894 30.642 38.9894C31.6704 38.9894 32.2343 39.4604 32.2294 40.2932C32.2245 41.126 31.6639 41.5807 30.6257 41.5824C26.1112 41.5824 21.5956 41.5824 17.079 41.5824C16.2413 41.5824 15.7149 41.1684 15.6122 40.4823C15.5655 40.1723 15.6321 39.8559 15.7997 39.591C15.9673 39.3261 16.2248 39.1305 16.5249 39.0399C16.7637 38.9938 17.0073 38.9779 17.2501 38.9926C19.5003 38.9883 21.7472 38.9872 23.9909 38.9894Z" fill="#D41D12"/>
</svg>
