<svg width="30" height="30" viewBox="0 0 30 30" fill="none" xmlns="http://www.w3.org/2000/svg">
<g id="Search">
<path id="Vector" d="M12.5999 1.79999C6.96084 1.79999 2.3999 6.36093 2.3999 12C2.3999 17.639 6.96084 22.2 12.5999 22.2C14.6132 22.2 16.4765 21.6094 18.0562 20.6062L25.4249 27.975L27.9749 25.425L20.6999 18.1687C22.0077 16.4531 22.7999 14.3273 22.7999 12C22.7999 6.36093 18.239 1.79999 12.5999 1.79999ZM12.5999 4.19999C16.9194 4.19999 20.3999 7.68046 20.3999 12C20.3999 16.3195 16.9194 19.8 12.5999 19.8C8.28037 19.8 4.7999 16.3195 4.7999 12C4.7999 7.68046 8.28037 4.19999 12.5999 4.19999Z" fill="#25343F" style="fill:#25343F;fill:color(display-p3 0.1451 0.2039 0.2471);fill-opacity:1;"/>
</g>
</svg>
