<svg width="22" height="22" viewBox="0 0 22 22" fill="none" xmlns="http://www.w3.org/2000/svg">
<g id="Security Energy">
<g id="Group 1632521883">
<path id="Vector" d="M11 0.916656L19.25 4.58332V10.0833C19.25 17.2608 13.3476 20.6122 11 21.0833C8.65242 20.6122 2.75 17.2608 2.75 10.0833V4.58332L11 0.916656ZM11 2.92366L4.58333 5.77571V10.0833C4.58333 15.7062 8.96958 18.5666 11 19.1927C13.0304 18.5666 17.4167 15.7062 17.4167 10.0833V5.77571L11 2.92366Z" fill="#25343F" style="fill:#25343F;fill:color(display-p3 0.1451 0.2039 0.2471);fill-opacity:1;"/>
</g>
<path id="Vector_2" d="M11.0394 5.00116C11.4024 5.02219 11.679 5.3247 11.6573 5.67679C11.6421 5.92429 11.6299 6.20658 11.6188 6.49975L12.0065 6.1196C12.0293 6.09729 12.0568 6.07479 12.0844 6.05652C12.3342 5.88866 12.6765 5.94917 12.8496 6.1914C13.0226 6.43363 12.9602 6.7662 12.7105 6.93384L11.5858 7.68874C11.5683 8.48898 11.5617 9.01455 11.5572 9.56374C12.0497 9.28281 12.5233 9.01081 13.218 8.60259L13.3297 7.28038C13.3325 7.24914 13.3385 7.21471 13.3472 7.18326C13.4274 6.89917 13.7298 6.73179 14.023 6.80934C14.3159 6.88711 14.4887 7.18034 14.4085 7.46464L14.263 7.98008C14.519 7.82431 14.7647 7.67326 14.9785 7.53644C14.9991 7.52347 15.024 7.50909 15.0466 7.49825C15.3717 7.34038 15.7675 7.46845 15.9303 7.78378C16.0931 8.0991 15.961 8.48248 15.6359 8.64035C15.4073 8.75127 15.1491 8.8821 14.8818 9.01926L15.415 9.15496C15.4464 9.16325 15.4802 9.17498 15.5105 9.18858C15.785 9.31458 15.9023 9.63262 15.7724 9.89907C15.6424 10.1653 15.3149 10.2791 15.0402 10.1531L13.8039 9.58615C13.0804 9.97161 12.6071 10.2287 12.1144 10.4996C12.6116 10.7728 13.0917 11.0343 13.8039 11.4138L15.0402 10.8469C15.0695 10.8336 15.103 10.8212 15.1352 10.8129C15.429 10.7379 15.7299 10.9085 15.807 11.1935C15.8844 11.4784 15.7089 11.7698 15.415 11.8446L14.8818 11.9807C15.1488 12.1178 15.4068 12.2485 15.6359 12.3596C15.6578 12.3705 15.6829 12.3844 15.7039 12.3978C16.0074 12.592 16.0912 12.9883 15.8909 13.2826C15.6906 13.5769 15.282 13.6578 14.9785 13.4636C14.7652 13.327 14.5192 13.1758 14.263 13.0199L14.4085 13.5354C14.4169 13.5657 14.4237 13.6002 14.4265 13.6325C14.4513 13.9261 14.2261 14.1837 13.9232 14.2077C13.6204 14.2317 13.3545 14.0133 13.3297 13.7196L13.218 12.3978C12.5116 11.9827 12.0447 11.7143 11.5563 11.4358C11.5602 11.9765 11.5668 12.4902 11.585 13.3108L12.7105 14.0666C12.7368 14.0844 12.7647 14.1065 12.7884 14.1297C13.0022 14.3392 13.0003 14.6772 12.7845 14.8845C12.5685 15.0919 12.2204 15.0901 12.0065 14.8808L11.6179 14.5003C11.6292 14.7917 11.6419 15.0729 11.6573 15.3232C11.6586 15.347 11.6588 15.3751 11.6573 15.3996C11.6356 15.7517 11.3237 16.0199 10.9606 15.9988C10.5976 15.9778 10.321 15.6753 10.3427 15.3232C10.3579 15.0755 10.3704 14.7935 10.3816 14.5003L9.99349 14.8804C9.9707 14.9027 9.94321 14.9252 9.9156 14.9435C9.66582 15.1113 9.32354 15.0508 9.15045 14.8086C8.97736 14.5664 9.03975 14.2338 9.28953 14.0662L10.4146 13.3108C10.4327 12.4902 10.4391 11.9767 10.4433 11.4346C9.96237 11.7082 9.50656 11.9703 8.78242 12.3962L8.6703 13.7196C8.66745 13.7509 8.66152 13.7853 8.65276 13.8167C8.57257 14.1008 8.2702 14.2682 7.97704 14.1907C7.6841 14.1129 7.51128 13.8197 7.59147 13.5354L7.73697 13.0187C7.48212 13.174 7.23703 13.3253 7.02103 13.4636C7.00043 13.4765 6.97555 13.4907 6.95299 13.5017C6.62783 13.6596 6.23252 13.5315 6.06972 13.2162C5.90693 12.9009 6.03899 12.5175 6.36414 12.3596C6.59291 12.2487 6.85082 12.1179 7.11817 11.9807L6.58496 11.845C6.55363 11.8368 6.51976 11.825 6.48953 11.8114C6.21499 11.6854 6.0977 11.3674 6.22763 11.1009C6.35756 10.8347 6.68508 10.7209 6.95983 10.8469L8.19657 11.4143C8.93872 11.0191 9.40067 10.7676 9.88693 10.5C9.40211 10.2329 8.94002 9.98108 8.19743 9.58574L6.95983 10.1531C6.93047 10.1664 6.89704 10.1788 6.86483 10.1871C6.57101 10.2621 6.27009 10.0915 6.19297 9.80652C6.11562 9.52158 6.29114 9.23017 6.58496 9.15538L7.1186 9.01926C6.85261 8.88294 6.59503 8.7526 6.36371 8.64035C6.3418 8.62952 6.31671 8.61556 6.29567 8.60217C5.99221 8.40796 5.90883 8.01167 6.10909 7.71738C6.30935 7.42309 6.718 7.34223 7.02146 7.53644C7.23512 7.67316 7.48062 7.82483 7.73697 7.98091L7.59147 7.46464C7.58314 7.43425 7.57634 7.39982 7.5735 7.36753C7.54874 7.07388 7.77395 6.81634 8.07675 6.79233C8.37955 6.76832 8.64554 6.98672 8.6703 7.28038L8.78199 8.60259C9.50527 9.02785 9.9603 9.28957 10.4424 9.56416C10.4378 9.01 10.4313 8.47608 10.4142 7.68833L9.28953 6.93343C9.26324 6.91558 9.23531 6.89351 9.21165 6.87035C8.9978 6.66084 8.99968 6.32284 9.2155 6.11545C9.43153 5.90807 9.77964 5.90989 9.99349 6.11919L10.3816 6.49933C10.3705 6.20661 10.358 5.92468 10.3427 5.67679C10.3414 5.65299 10.3412 5.62486 10.3427 5.60043C10.3644 5.24834 10.6763 4.98012 11.0394 5.00116Z" fill="#25343F" style="fill:#25343F;fill:color(display-p3 0.1451 0.2039 0.2471);fill-opacity:1;"/>
</g>
</svg>
