<svg width="22" height="22" viewBox="0 0 22 22" fill="none" xmlns="http://www.w3.org/2000/svg">
<g id="Security Energy" clip-path="url(#clip0_38_7499)">
<g id="Group 1632521883">
<path id="Vector" d="M11 0.916687L19.25 4.58335V10.0834C19.25 17.2609 13.3476 20.6122 11 21.0834C8.65242 20.6122 2.75 17.2609 2.75 10.0834V4.58335L11 0.916687ZM11 2.92369L4.58333 5.77574V10.0834C4.58333 15.7062 8.96958 18.5666 11 19.1927C13.0304 18.5666 17.4167 15.7062 17.4167 10.0834V5.77574L11 2.92369Z" fill="#25343F" style="fill:#25343F;fill:color(display-p3 0.1451 0.2039 0.2471);fill-opacity:1;"/>
</g>
<path id="Vector_2" d="M11.0394 5.00116C11.4024 5.02219 11.679 5.3247 11.6573 5.67679C11.6421 5.92429 11.6299 6.20658 11.6188 6.49975L12.0065 6.1196C12.0293 6.09729 12.0568 6.07479 12.0844 6.05652C12.3342 5.88866 12.6765 5.94917 12.8496 6.1914C13.0226 6.43363 12.9602 6.7662 12.7105 6.93384L11.5858 7.68874C11.5683 8.48898 11.5617 9.01455 11.5572 9.56374C12.0497 9.28281 12.5233 9.01081 13.218 8.60259L13.3297 7.28038C13.3325 7.24914 13.3385 7.21471 13.3472 7.18326C13.4274 6.89917 13.7298 6.73179 14.023 6.80934C14.3159 6.88711 14.4887 7.18034 14.4085 7.46464L14.263 7.98008C14.519 7.82431 14.7647 7.67326 14.9785 7.53644C14.9991 7.52347 15.024 7.50909 15.0466 7.49825C15.3717 7.34038 15.7675 7.46845 15.9303 7.78378C16.0931 8.0991 15.961 8.48248 15.6359 8.64035C15.4073 8.75127 15.1491 8.8821 14.8818 9.01926L15.415 9.15496C15.4464 9.16325 15.4802 9.17498 15.5105 9.18858C15.785 9.31458 15.9023 9.63262 15.7724 9.89907C15.6424 10.1653 15.3149 10.2791 15.0402 10.1531L13.8039 9.58615C13.0804 9.97161 12.6071 10.2287 12.1144 10.4996C12.6116 10.7728 13.0917 11.0343 13.8039 11.4138L15.0402 10.8469C15.0695 10.8336 15.103 10.8212 15.1352 10.8129C15.429 10.7379 15.7299 10.9085 15.807 11.1935C15.8844 11.4784 15.7089 11.7698 15.415 11.8446L14.8818 11.9807C15.1488 12.1178 15.4068 12.2485 15.6359 12.3596C15.6578 12.3705 15.6829 12.3844 15.7039 12.3978C16.0074 12.592 16.0912 12.9883 15.8909 13.2826C15.6906 13.5769 15.282 13.6578 14.9785 13.4636C14.7652 13.327 14.5192 13.1758 14.263 13.0199L14.4085 13.5354C14.4169 13.5657 14.4237 13.6002 14.4265 13.6325C14.4513 13.9261 14.2261 14.1837 13.9232 14.2077C13.6204 14.2317 13.3545 14.0133 13.3297 13.7196L13.218 12.3978C12.5116 11.9827 12.0447 11.7143 11.5563 11.4358C11.5602 11.9765 11.5668 12.4902 11.585 13.3108L12.7105 14.0666C12.7368 14.0844 12.7647 14.1065 12.7884 14.1297C13.0022 14.3392 13.0003 14.6772 12.7845 14.8845C12.5685 15.0919 12.2204 15.0901 12.0065 14.8808L11.6179 14.5003C11.6292 14.7917 11.6419 15.0729 11.6573 15.3232C11.6586 15.347 11.6588 15.3751 11.6573 15.3996C11.6356 15.7517 11.3237 16.0199 10.9606 15.9988C10.5976 15.9778 10.321 15.6753 10.3427 15.3232C10.3579 15.0755 10.3704 14.7935 10.3816 14.5003L9.99349 14.8804C9.9707 14.9027 9.94321 14.9252 9.9156 14.9435C9.66582 15.1113 9.32354 15.0508 9.15045 14.8086C8.97736 14.5664 9.03975 14.2338 9.28953 14.0662L10.4146 13.3108C10.4327 12.4902 10.4391 11.9767 10.4433 11.4346C9.96237 11.7082 9.50656 11.9703 8.78242 12.3962L8.6703 13.7196C8.66745 13.7509 8.66152 13.7853 8.65276 13.8167C8.57257 14.1008 8.2702 14.2682 7.97704 14.1907C7.6841 14.1129 7.51128 13.8197 7.59147 13.5354L7.73697 13.0187C7.48212 13.174 7.23703 13.3253 7.02103 13.4636C7.00043 13.4765 6.97555 13.4907 6.95299 13.5017C6.62783 13.6596 6.23252 13.5315 6.06972 13.2162C5.90693 12.9009 6.03899 12.5175 6.36414 12.3596C6.59291 12.2487 6.85082 12.1179 7.11817 11.9807L6.58496 11.845C6.55363 11.8368 6.51976 11.825 6.48953 11.8114C6.21499 11.6854 6.0977 11.3674 6.22763 11.1009C6.35756 10.8347 6.68508 10.7209 6.95983 10.8469L8.19657 11.4143C8.93872 11.0191 9.40067 10.7676 9.88693 10.5C9.40211 10.2329 8.94002 9.98108 8.19743 9.58574L6.95983 10.1531C6.93047 10.1664 6.89704 10.1788 6.86483 10.1871C6.57101 10.2621 6.27009 10.0915 6.19297 9.80652C6.11562 9.52158 6.29114 9.23017 6.58496 9.15538L7.1186 9.01926C6.85261 8.88294 6.59503 8.7526 6.36371 8.64035C6.3418 8.62952 6.31671 8.61556 6.29567 8.60217C5.99221 8.40796 5.90883 8.01167 6.10909 7.71738C6.30935 7.42309 6.718 7.34223 7.02146 7.53644C7.23512 7.67316 7.48062 7.82483 7.73697 7.98091L7.59147 7.46464C7.58314 7.43425 7.57634 7.39982 7.5735 7.36753C7.54874 7.07388 7.77395 6.81634 8.07675 6.79233C8.37955 6.76832 8.64554 6.98672 8.6703 7.28038L8.78199 8.60259C9.50527 9.02785 9.9603 9.28957 10.4424 9.56416C10.4378 9.01 10.4313 8.47608 10.4142 7.68833L9.28953 6.93343C9.26324 6.91558 9.23531 6.89351 9.21165 6.87035C8.9978 6.66084 8.99968 6.32284 9.2155 6.11545C9.43153 5.90807 9.77964 5.90989 9.99349 6.11919L10.3816 6.49933C10.3705 6.20661 10.358 5.92468 10.3427 5.67679C10.3414 5.65299 10.3412 5.62486 10.3427 5.60043C10.3644 5.24834 10.6763 4.98012 11.0394 5.00116Z" fill="#25343F" style="fill:#25343F;fill:color(display-p3 0.1451 0.2039 0.2471);fill-opacity:1;"/>
<g id="x3">
<path id="Vector_3" d="M17.3853 16.1812H18.106C18.2905 16.1812 18.4414 16.1489 18.5586 16.0845C18.6787 16.0171 18.7681 15.9233 18.8267 15.8032C18.8853 15.6802 18.9146 15.5352 18.9146 15.3682C18.9146 15.2393 18.8867 15.1206 18.8311 15.0122C18.7783 14.9038 18.6963 14.8174 18.585 14.7529C18.4736 14.6855 18.3315 14.6519 18.1587 14.6519C18.0415 14.6519 17.9272 14.6768 17.8159 14.7266C17.7046 14.7734 17.6123 14.8408 17.5391 14.9287C17.4688 15.0166 17.4336 15.1235 17.4336 15.2495H15.9482C15.9482 14.8862 16.0479 14.5757 16.2471 14.3179C16.4492 14.0571 16.7144 13.8579 17.0425 13.7202C17.3735 13.5796 17.7295 13.5093 18.1104 13.5093C18.5645 13.5093 18.9629 13.5796 19.3057 13.7202C19.6484 13.8579 19.915 14.063 20.1055 14.3354C20.2988 14.605 20.3955 14.939 20.3955 15.3374C20.3955 15.5571 20.3442 15.7637 20.2417 15.957C20.1392 16.1504 19.9956 16.3203 19.811 16.4668C19.6265 16.6133 19.4097 16.729 19.1606 16.814C18.9146 16.896 18.645 16.937 18.3521 16.937H17.3853V16.1812ZM17.3853 17.2842V16.5459H18.3521C18.6714 16.5459 18.9629 16.5825 19.2266 16.6558C19.4902 16.7261 19.7173 16.8315 19.9077 16.9722C20.0981 17.1128 20.2446 17.2871 20.3472 17.4951C20.4497 17.7002 20.501 17.936 20.501 18.2026C20.501 18.5015 20.4409 18.7681 20.3208 19.0024C20.2007 19.2368 20.0322 19.4346 19.8154 19.5957C19.5986 19.7568 19.3452 19.8799 19.0552 19.9648C18.7651 20.0469 18.4502 20.0879 18.1104 20.0879C17.8438 20.0879 17.5771 20.0527 17.3105 19.9824C17.0439 19.9092 16.8008 19.7979 16.5811 19.6484C16.3613 19.4961 16.1841 19.3027 16.0493 19.0684C15.9175 18.8311 15.8516 18.5483 15.8516 18.2202H17.3369C17.3369 18.355 17.3735 18.478 17.4468 18.5894C17.5229 18.6978 17.624 18.7842 17.75 18.8486C17.876 18.9131 18.0122 18.9453 18.1587 18.9453C18.3403 18.9453 18.4941 18.9116 18.6201 18.8442C18.749 18.7739 18.8472 18.6802 18.9146 18.563C18.9819 18.4458 19.0156 18.3154 19.0156 18.1719C19.0156 17.9551 18.979 17.7822 18.9058 17.6533C18.8354 17.5244 18.7314 17.4307 18.5938 17.3721C18.459 17.3135 18.2964 17.2842 18.106 17.2842H17.3853Z" fill="#25343F" style="fill:#25343F;fill:color(display-p3 0.1451 0.2039 0.2471);fill-opacity:1;"/>
<path id="Vector_4" d="M12.6743 15.2451L13.3423 16.5547L14.0322 15.2451H15.5703L14.3223 17.561L15.6362 20H14.085L13.3423 18.5938L12.604 20H11.0527L12.3667 17.561L11.123 15.2451H12.6743Z" fill="#25343F" style="fill:#25343F;fill:color(display-p3 0.1451 0.2039 0.2471);fill-opacity:1;"/>
</g>
<g id="x3 (Stroke)">
<path id="Stroke" fill-rule="evenodd" clip-rule="evenodd" d="M16.2471 14.3179C16.284 14.2702 16.323 14.2247 16.3641 14.1812C16.3988 14.1445 16.4349 14.1093 16.4726 14.0755C16.4794 14.0694 16.4863 14.0633 16.4933 14.0572C16.6509 13.92 16.834 13.8077 17.0425 13.7202C17.1334 13.6816 17.2263 13.6483 17.321 13.6202C17.3296 13.6177 17.3383 13.6152 17.3469 13.6127C17.3756 13.6045 17.4045 13.5968 17.4336 13.5896C17.6497 13.5361 17.8753 13.5093 18.1104 13.5093C18.1265 13.5093 18.1426 13.5094 18.1587 13.5095C18.5495 13.5139 18.8983 13.5712 19.2052 13.6816C19.2129 13.6844 19.2206 13.6872 19.2283 13.69C19.2544 13.6997 19.2802 13.7098 19.3057 13.7202C19.6484 13.8579 19.915 14.063 20.1055 14.3354C20.1094 14.3409 20.1132 14.3463 20.117 14.3518C20.1231 14.3605 20.129 14.3692 20.1348 14.378C20.2437 14.5421 20.3185 14.7289 20.3592 14.9385C20.3834 15.0634 20.3955 15.1964 20.3955 15.3374C20.3955 15.3477 20.3954 15.3579 20.3952 15.3682C20.3906 15.5764 20.3394 15.7727 20.2417 15.957C20.2226 15.993 20.2021 16.0281 20.1802 16.0625C20.1168 16.1619 20.0416 16.2544 19.9544 16.3402C19.9514 16.3432 19.9484 16.3461 19.9455 16.349C19.9034 16.3898 19.8586 16.4291 19.811 16.4668C19.6974 16.557 19.5716 16.6355 19.4336 16.7023C19.4262 16.7059 19.4188 16.7094 19.4114 16.7129C19.4188 16.7156 19.4262 16.7182 19.4336 16.7209C19.611 16.7861 19.7691 16.8698 19.9077 16.9722C19.9361 16.9931 19.9635 17.0148 19.9899 17.0373C19.9958 17.0423 20.0017 17.0473 20.0074 17.0524C20.0872 17.1223 20.1577 17.1993 20.2191 17.2832C20.2675 17.3495 20.3102 17.4201 20.3472 17.4951C20.4457 17.6923 20.4969 17.9179 20.5007 18.1719C20.5009 18.1821 20.501 18.1923 20.501 18.2026C20.501 18.2724 20.4977 18.3403 20.4912 18.4065C20.4697 18.6241 20.4129 18.8228 20.3208 19.0024C20.2715 19.0986 20.2141 19.1886 20.1485 19.2725C20.0543 19.393 19.9433 19.5007 19.8154 19.5957C19.6368 19.7285 19.4333 19.8354 19.205 19.9164C19.2018 19.9176 19.1986 19.9187 19.1954 19.9198C19.1497 19.9358 19.1029 19.9509 19.0552 19.9648C18.7789 20.043 18.4801 20.0839 18.1587 20.0876C18.1426 20.0878 18.1265 20.0879 18.1104 20.0879C17.8525 20.0879 17.5947 20.055 17.3369 19.9893C17.3281 19.987 17.3193 19.9847 17.3105 19.9824C17.2694 19.9711 17.2287 19.9589 17.1887 19.9458C16.9694 19.8739 16.7668 19.7748 16.5811 19.6484C16.4753 19.5751 16.3794 19.4923 16.2933 19.3999C16.2833 19.3893 16.2735 19.3785 16.2639 19.3676C16.2399 19.3406 16.2168 19.3128 16.1944 19.2842C16.1415 19.2166 16.0932 19.1446 16.0493 19.0684C16.0258 19.026 16.0044 18.9822 15.985 18.937C15.8961 18.7287 15.8516 18.4898 15.8516 18.2202H17.3369C17.3369 18.2555 17.3394 18.29 17.3444 18.3237C17.3456 18.3314 17.3469 18.3391 17.3483 18.3467C17.3561 18.3886 17.3678 18.4291 17.3834 18.4684C17.384 18.4699 17.3846 18.4714 17.3853 18.4729C17.3863 18.4756 17.3874 18.4782 17.3886 18.4809C17.3888 18.4815 17.3891 18.4821 17.3893 18.4827C17.393 18.4913 17.3969 18.4998 17.4009 18.5083C17.407 18.521 17.4135 18.5335 17.4204 18.5459C17.4286 18.5606 17.4374 18.5751 17.4468 18.5894C17.4968 18.6606 17.5576 18.7223 17.6291 18.7745C17.6328 18.7772 17.6365 18.7799 17.6402 18.7825C17.6744 18.8066 17.711 18.8287 17.75 18.8486C17.8056 18.8771 17.8632 18.8993 17.9228 18.9152C17.9271 18.9163 17.9314 18.9174 17.9357 18.9185C17.9674 18.9264 17.9997 18.9326 18.0326 18.937C18.0567 18.9403 18.0812 18.9426 18.106 18.9439C18.1074 18.944 18.1089 18.9441 18.1104 18.9441C18.1263 18.9449 18.1425 18.9453 18.1587 18.9453C18.2107 18.9453 18.2605 18.9425 18.308 18.937C18.3229 18.9353 18.3376 18.9333 18.3521 18.931C18.4522 18.9152 18.5416 18.8862 18.6201 18.8442C18.6521 18.8268 18.6822 18.8079 18.7103 18.7876C18.7136 18.7852 18.7169 18.7828 18.7202 18.7804C18.801 18.7202 18.8658 18.6477 18.9146 18.563C18.9349 18.5276 18.9521 18.4911 18.9663 18.4533C18.9817 18.4124 18.9935 18.3701 19.0017 18.3264C19.0081 18.2919 19.0124 18.2565 19.0143 18.2202C19.0146 18.2144 19.0149 18.2085 19.0151 18.2026C19.0154 18.1952 19.0155 18.1878 19.0156 18.1803C19.0156 18.1775 19.0156 18.1747 19.0156 18.1719C19.0156 18.1682 19.0156 18.1645 19.0156 18.1609C19.0156 18.1578 19.0155 18.1547 19.0155 18.1516C19.0151 18.1172 19.0138 18.084 19.0116 18.0519C19.0027 17.9257 18.9792 17.817 18.9412 17.7259C18.9388 17.7202 18.9364 17.7146 18.934 17.7091C18.9253 17.6897 18.9159 17.6711 18.9058 17.6533C18.9026 17.6475 18.8993 17.6417 18.896 17.6359C18.8869 17.6205 18.8774 17.6055 18.8673 17.5911C18.7994 17.4938 18.7082 17.4208 18.5938 17.3721C18.57 17.3617 18.5454 17.3523 18.5199 17.3438C18.4676 17.3264 18.4116 17.3127 18.3521 17.3029C18.2914 17.293 18.2269 17.287 18.1587 17.2849C18.1414 17.2844 18.1238 17.2842 18.106 17.2842H17.3853V16.1812H18.106C18.1239 16.1812 18.1414 16.1808 18.1587 16.1802C18.2283 16.1778 18.2927 16.1704 18.3521 16.1581C18.3728 16.1538 18.393 16.1489 18.4125 16.1434C18.4236 16.1403 18.4346 16.1369 18.4453 16.1334C18.486 16.1199 18.5238 16.1036 18.5586 16.0845C18.6316 16.0435 18.6932 15.9928 18.7435 15.9324C18.7502 15.9244 18.7567 15.9162 18.7629 15.9078C18.7844 15.8792 18.8034 15.8487 18.8202 15.8161C18.8218 15.813 18.8234 15.8099 18.8249 15.8068C18.8255 15.8056 18.8261 15.8044 18.8267 15.8032C18.8841 15.6826 18.9134 15.5408 18.9145 15.3779C18.9145 15.3747 18.9146 15.3714 18.9146 15.3682C18.9146 15.3578 18.9144 15.3476 18.914 15.3374C18.914 15.3371 18.914 15.3377 18.914 15.3374C18.913 15.3078 18.9104 15.278 18.9063 15.2495C18.9062 15.2493 18.9063 15.2497 18.9063 15.2495C18.904 15.2336 18.9011 15.2172 18.8979 15.2017C18.8966 15.1953 18.8952 15.1888 18.8937 15.1824C18.8797 15.1231 18.8589 15.0664 18.8311 15.0122C18.8232 14.9961 18.8147 14.9804 18.8055 14.9652C18.8034 14.9617 18.8013 14.9583 18.7991 14.9549C18.7473 14.8729 18.6759 14.8056 18.585 14.7529C18.5183 14.7126 18.4407 14.6843 18.3521 14.6682C18.2926 14.6573 18.2281 14.6519 18.1587 14.6519C18.1425 14.6519 18.1264 14.6523 18.1104 14.6533C18.1089 14.6534 18.1074 14.6535 18.106 14.6535C18.0072 14.6599 17.9105 14.6843 17.8159 14.7266C17.8148 14.727 17.8137 14.7275 17.8125 14.728C17.8085 14.7297 17.8045 14.7314 17.8006 14.7332C17.7016 14.7773 17.6182 14.8381 17.5503 14.9156C17.5489 14.9172 17.5475 14.9188 17.5461 14.9204C17.5437 14.9231 17.5414 14.9259 17.5391 14.9287C17.5369 14.9315 17.5347 14.9342 17.5326 14.937C17.4894 14.9935 17.4603 15.0576 17.4454 15.1294C17.4444 15.1343 17.4434 15.1392 17.4426 15.1441C17.4374 15.1732 17.4344 15.2034 17.4338 15.2349C17.4337 15.2358 17.4337 15.2368 17.4337 15.2378C17.4336 15.2417 17.4336 15.2456 17.4336 15.2495H15.9482C15.9482 14.9876 16 14.753 16.1036 14.5459C16.1437 14.4658 16.1915 14.3898 16.2471 14.3179ZM21.7379 13.1799C22.2153 13.8506 22.3955 14.6105 22.3955 15.3374C22.3955 15.7783 22.31 16.2083 22.1418 16.6122C22.3999 17.1334 22.501 17.6799 22.501 18.2026C22.501 18.7756 22.3839 19.362 22.1007 19.9146C21.837 20.4291 21.4649 20.8617 21.0085 21.2009C20.5804 21.519 20.1078 21.7405 19.6174 21.8842L19.6085 21.8868L19.5995 21.8894C19.1115 22.0274 18.6112 22.0879 18.1104 22.0879C17.6658 22.0879 17.2279 22.029 16.8005 21.9163L16.7906 21.9137L16.7807 21.911C16.3108 21.7819 15.8653 21.5803 15.4564 21.3023L15.4489 21.2972L15.4415 21.292C14.9754 20.9689 14.5963 20.5536 14.3155 20.0653L14.3082 20.0525L14.301 20.0396C14.2937 20.0265 14.2864 20.0132 14.2793 20H15.6362L14.3223 17.561L15.5703 15.2451H14.0322L13.9482 15.4045V15.2495C13.9482 14.4973 14.1636 13.7433 14.6645 13.095L14.6665 13.0925C15.0953 12.5394 15.6461 12.138 16.2646 11.8777C16.8561 11.6271 17.4783 11.5093 18.1104 11.5093C18.7654 11.5093 19.4286 11.6101 20.058 11.8671C20.7136 12.1318 21.3026 12.5615 21.7379 13.1799Z" fill="white" style="fill:white;fill-opacity:1;"/>
<path id="Stroke_2" fill-rule="evenodd" clip-rule="evenodd" d="M7.77904 13.2451L10.0959 17.5595L7.70361 22H18.9856L17.9533 20.0838C17.7391 20.0727 17.5249 20.0389 17.3107 19.9824C17.0441 19.9092 16.8009 19.7979 16.5812 19.6484C16.5391 19.6193 16.4986 19.5886 16.4597 19.5564C16.2952 19.4206 16.1584 19.2579 16.0494 19.0684C15.9407 18.8726 15.8768 18.646 15.8578 18.3884C15.8537 18.3338 15.8517 18.2777 15.8517 18.2202H16.9493L16.5942 17.5612L18.1621 14.6519C18.161 14.6519 18.1599 14.6519 18.1588 14.6519C18.0416 14.6519 17.9274 14.6768 17.816 14.7266C17.7047 14.7734 17.6124 14.8408 17.5392 14.9287C17.4689 15.0166 17.4337 15.1235 17.4337 15.2495H15.9484C15.9484 14.8862 16.048 14.5757 16.2472 14.3179C16.4493 14.0571 16.7145 13.8579 17.0426 13.7202C17.3737 13.5796 17.7296 13.5093 18.1105 13.5093C18.3374 13.5093 18.5503 13.5268 18.7494 13.5619L18.9202 13.2451H7.77904ZM14.0324 15.2451L13.3424 16.5547L12.6744 15.2451H11.1232L12.3668 17.561L11.0529 20H12.6041L13.3424 18.5938L14.0851 20H15.6364L14.3224 17.561L15.5704 15.2451H14.0324Z" fill="white" style="fill:white;fill-opacity:1;"/>
</g>
</g>
<defs>
<clipPath id="clip0_38_7499">
<rect width="22" height="22" fill="white" style="fill:white;fill-opacity:1;" transform="matrix(-1 0 0 1 22 0)"/>
</clipPath>
</defs>
</svg>
