<svg width="22" height="22" viewBox="0 0 22 22" fill="none" xmlns="http://www.w3.org/2000/svg">
<g id="Security Energy" clip-path="url(#clip0_38_7478)">
<g id="Group 1632521883">
<path id="Vector" d="M11 0.916687L19.25 4.58335V10.0834C19.25 17.2609 13.3476 20.6122 11 21.0834C8.65242 20.6122 2.75 17.2609 2.75 10.0834V4.58335L11 0.916687ZM11 2.92369L4.58333 5.77574V10.0834C4.58333 15.7062 8.96958 18.5666 11 19.1927C13.0304 18.5666 17.4167 15.7062 17.4167 10.0834V5.77574L11 2.92369Z" fill="#25343F" style="fill:#25343F;fill:color(display-p3 0.1451 0.2039 0.2471);fill-opacity:1;"/>
</g>
<path id="Vector_2" d="M11.0394 5.00116C11.4024 5.02219 11.679 5.3247 11.6573 5.67679C11.6421 5.92429 11.6299 6.20658 11.6188 6.49975L12.0065 6.1196C12.0293 6.09729 12.0568 6.07479 12.0844 6.05652C12.3342 5.88866 12.6765 5.94917 12.8496 6.1914C13.0226 6.43363 12.9602 6.7662 12.7105 6.93384L11.5858 7.68874C11.5683 8.48898 11.5617 9.01455 11.5572 9.56374C12.0497 9.28281 12.5233 9.01081 13.218 8.60259L13.3297 7.28038C13.3325 7.24914 13.3385 7.21471 13.3472 7.18326C13.4274 6.89917 13.7298 6.73179 14.023 6.80934C14.3159 6.88711 14.4887 7.18034 14.4085 7.46464L14.263 7.98008C14.519 7.82431 14.7647 7.67326 14.9785 7.53644C14.9991 7.52347 15.024 7.50909 15.0466 7.49825C15.3717 7.34038 15.7675 7.46845 15.9303 7.78378C16.0931 8.0991 15.961 8.48248 15.6359 8.64035C15.4073 8.75127 15.1491 8.8821 14.8818 9.01926L15.415 9.15496C15.4464 9.16325 15.4802 9.17498 15.5105 9.18858C15.785 9.31458 15.9023 9.63262 15.7724 9.89907C15.6424 10.1653 15.3149 10.2791 15.0402 10.1531L13.8039 9.58615C13.0804 9.97161 12.6071 10.2287 12.1144 10.4996C12.6116 10.7728 13.0917 11.0343 13.8039 11.4138L15.0402 10.8469C15.0695 10.8336 15.103 10.8212 15.1352 10.8129C15.429 10.7379 15.7299 10.9085 15.807 11.1935C15.8844 11.4784 15.7089 11.7698 15.415 11.8446L14.8818 11.9807C15.1488 12.1178 15.4068 12.2485 15.6359 12.3596C15.6578 12.3705 15.6829 12.3844 15.7039 12.3978C16.0074 12.592 16.0912 12.9883 15.8909 13.2826C15.6906 13.5769 15.282 13.6578 14.9785 13.4636C14.7652 13.327 14.5192 13.1758 14.263 13.0199L14.4085 13.5354C14.4169 13.5657 14.4237 13.6002 14.4265 13.6325C14.4513 13.9261 14.2261 14.1837 13.9232 14.2077C13.6204 14.2317 13.3545 14.0133 13.3297 13.7196L13.218 12.3978C12.5116 11.9827 12.0447 11.7143 11.5563 11.4358C11.5602 11.9765 11.5668 12.4902 11.585 13.3108L12.7105 14.0666C12.7368 14.0844 12.7647 14.1065 12.7884 14.1297C13.0022 14.3392 13.0003 14.6772 12.7845 14.8845C12.5685 15.0919 12.2204 15.0901 12.0065 14.8808L11.6179 14.5003C11.6292 14.7917 11.6419 15.0729 11.6573 15.3232C11.6586 15.347 11.6588 15.3751 11.6573 15.3996C11.6356 15.7517 11.3237 16.0199 10.9606 15.9988C10.5976 15.9778 10.321 15.6753 10.3427 15.3232C10.3579 15.0755 10.3704 14.7935 10.3816 14.5003L9.99349 14.8804C9.9707 14.9027 9.94321 14.9252 9.9156 14.9435C9.66582 15.1113 9.32354 15.0508 9.15045 14.8086C8.97736 14.5664 9.03975 14.2338 9.28953 14.0662L10.4146 13.3108C10.4327 12.4902 10.4391 11.9767 10.4433 11.4346C9.96237 11.7082 9.50656 11.9703 8.78242 12.3962L8.6703 13.7196C8.66745 13.7509 8.66152 13.7853 8.65276 13.8167C8.57257 14.1008 8.2702 14.2682 7.97704 14.1907C7.6841 14.1129 7.51128 13.8197 7.59147 13.5354L7.73697 13.0187C7.48212 13.174 7.23703 13.3253 7.02103 13.4636C7.00043 13.4765 6.97555 13.4907 6.95299 13.5017C6.62783 13.6596 6.23252 13.5315 6.06972 13.2162C5.90693 12.9009 6.03899 12.5175 6.36414 12.3596C6.59291 12.2487 6.85082 12.1179 7.11817 11.9807L6.58496 11.845C6.55363 11.8368 6.51976 11.825 6.48953 11.8114C6.21499 11.6854 6.0977 11.3674 6.22763 11.1009C6.35756 10.8347 6.68508 10.7209 6.95983 10.8469L8.19657 11.4143C8.93872 11.0191 9.40067 10.7676 9.88693 10.5C9.40211 10.2329 8.94002 9.98108 8.19743 9.58574L6.95983 10.1531C6.93047 10.1664 6.89704 10.1788 6.86483 10.1871C6.57101 10.2621 6.27009 10.0915 6.19297 9.80652C6.11562 9.52158 6.29114 9.23017 6.58496 9.15538L7.1186 9.01926C6.85261 8.88294 6.59503 8.7526 6.36371 8.64035C6.3418 8.62952 6.31671 8.61556 6.29567 8.60217C5.99221 8.40796 5.90883 8.01167 6.10909 7.71738C6.30935 7.42309 6.718 7.34223 7.02146 7.53644C7.23512 7.67316 7.48062 7.82483 7.73697 7.98091L7.59147 7.46464C7.58314 7.43425 7.57634 7.39982 7.5735 7.36753C7.54874 7.07388 7.77395 6.81634 8.07675 6.79233C8.37955 6.76832 8.64554 6.98672 8.6703 7.28038L8.78199 8.60259C9.50527 9.02785 9.9603 9.28957 10.4424 9.56416C10.4378 9.01 10.4313 8.47608 10.4142 7.68833L9.28953 6.93343C9.26324 6.91558 9.23531 6.89351 9.21165 6.87035C8.9978 6.66084 8.99968 6.32284 9.2155 6.11545C9.43153 5.90807 9.77964 5.90989 9.99349 6.11919L10.3816 6.49933C10.3705 6.20661 10.358 5.92468 10.3427 5.67679C10.3414 5.65299 10.3412 5.62486 10.3427 5.60043C10.3644 5.24834 10.6763 4.98012 11.0394 5.00116Z" fill="#25343F" style="fill:#25343F;fill:color(display-p3 0.1451 0.2039 0.2471);fill-opacity:1;"/>
<g id="x2">
<path id="Vector_3" d="M20.501 18.8574V20H16.0361V19.0332L18.0928 16.8711C18.2744 16.6631 18.4209 16.4771 18.5322 16.313C18.6436 16.146 18.7241 15.9951 18.7739 15.8604C18.8267 15.7256 18.853 15.604 18.853 15.4956C18.853 15.311 18.8252 15.1572 18.7695 15.0342C18.7168 14.9082 18.6377 14.813 18.5322 14.7485C18.4297 14.6841 18.3022 14.6519 18.1499 14.6519C17.9976 14.6519 17.8643 14.6958 17.75 14.7837C17.6357 14.8716 17.5464 14.9917 17.4819 15.144C17.4204 15.2964 17.3896 15.4678 17.3896 15.6582H15.9043C15.9043 15.2656 15.9995 14.9067 16.1899 14.5815C16.3833 14.2563 16.6514 13.9971 16.9941 13.8037C17.3369 13.6074 17.7339 13.5093 18.1851 13.5093C18.6567 13.5093 19.0522 13.5825 19.3716 13.729C19.6909 13.8755 19.9312 14.0879 20.0923 14.3662C20.2563 14.6416 20.3384 14.9741 20.3384 15.3638C20.3384 15.5864 20.3032 15.8003 20.2329 16.0054C20.1626 16.2104 20.0615 16.4141 19.9297 16.6162C19.7979 16.8154 19.6367 17.0205 19.4463 17.2314C19.2588 17.4424 19.0449 17.6665 18.8047 17.9038L17.9785 18.8574H20.501Z" fill="#25343F" style="fill:#25343F;fill:color(display-p3 0.1451 0.2039 0.2471);fill-opacity:1;"/>
<path id="Vector_4" d="M12.6743 15.2451L13.3423 16.5547L14.0322 15.2451H15.5703L14.3223 17.561L15.6362 20H14.085L13.3423 18.5938L12.604 20H11.0527L12.3667 17.561L11.123 15.2451H12.6743Z" fill="#25343F" style="fill:#25343F;fill:color(display-p3 0.1451 0.2039 0.2471);fill-opacity:1;"/>
</g>
<g id="x2 (Stroke)">
<path id="Stroke" fill-rule="evenodd" clip-rule="evenodd" d="M22.501 16.8574V22H14.0361V20.8574H13.5996L14.0361 20.3536V19.9075L14.085 20H15.6362L14.4502 17.7986L14.5838 17.6582H14.3746L14.3223 17.561L15.5703 15.2451H14.0322L13.9079 15.4812C13.935 14.8115 14.117 14.1636 14.4641 13.5709L14.4708 13.5594C14.8489 12.9236 15.3743 12.4224 16.0059 12.0649C16.6906 11.6743 17.4376 11.5093 18.1851 11.5093C18.8511 11.5093 19.5511 11.611 20.2055 11.9111C20.8609 12.2118 21.4291 12.6891 21.8168 13.3532C22.1966 13.9958 22.3384 14.6951 22.3384 15.3638C22.3384 15.8011 22.2686 16.2345 22.1248 16.654C22.1013 16.7227 22.0761 16.7905 22.0494 16.8574H22.501ZM16.9941 13.8037C16.6514 13.9971 16.3833 14.2563 16.1899 14.5815C16.1875 14.5858 16.185 14.59 16.1825 14.5943C16.1786 14.6011 16.1748 14.6078 16.171 14.6146C15.9932 14.931 15.9043 15.2789 15.9043 15.6582H17.3896C17.3896 15.6425 17.3899 15.627 17.3903 15.6115C17.3908 15.592 17.3917 15.5726 17.3929 15.5534C17.3931 15.5491 17.3934 15.5448 17.3937 15.5404C17.3948 15.5254 17.3961 15.5104 17.3976 15.4956C17.4023 15.4489 17.4091 15.4034 17.418 15.3592C17.4198 15.3501 17.4217 15.341 17.4238 15.332C17.4249 15.3271 17.426 15.3221 17.4272 15.3172C17.4279 15.3139 17.4287 15.3107 17.4295 15.3074C17.4434 15.2507 17.4608 15.1963 17.4819 15.144C17.5193 15.0557 17.565 14.9783 17.6191 14.9116C17.621 14.9093 17.6228 14.9071 17.6247 14.9048C17.6625 14.8593 17.7042 14.8189 17.75 14.7837C17.8643 14.6958 17.9976 14.6519 18.1499 14.6519C18.1618 14.6519 18.1735 14.6521 18.1851 14.6524C18.322 14.6571 18.4377 14.6891 18.5322 14.7485C18.6377 14.813 18.7168 14.9082 18.7695 15.0342C18.7701 15.0354 18.7706 15.0366 18.7712 15.0379C18.782 15.0621 18.7917 15.0875 18.8004 15.1141C18.8024 15.1202 18.8043 15.1263 18.8061 15.1324C18.827 15.2018 18.8409 15.2789 18.8479 15.3638C18.8513 15.4058 18.853 15.4498 18.853 15.4956C18.853 15.5076 18.8527 15.5197 18.8521 15.5319C18.85 15.5723 18.8444 15.6144 18.8353 15.6582C18.8333 15.668 18.8311 15.6779 18.8287 15.6879C18.8269 15.6957 18.825 15.7035 18.8229 15.7114C18.811 15.7569 18.7956 15.8042 18.7767 15.8532C18.7758 15.8556 18.7749 15.858 18.7739 15.8604C18.7737 15.8609 18.7735 15.8615 18.7733 15.862C18.7543 15.9132 18.7309 15.9668 18.703 16.0226C18.6578 16.1133 18.6008 16.2101 18.5322 16.313C18.5194 16.3318 18.5062 16.351 18.4925 16.3704C18.4906 16.3731 18.4887 16.3758 18.4867 16.3785C18.4275 16.4619 18.3599 16.5506 18.2837 16.6446C18.2285 16.7128 18.1688 16.7837 18.1047 16.8574C18.1007 16.862 18.0968 16.8665 18.0928 16.8711L16.0361 19.0332V20H20.501V18.8574H17.9785L18.8047 17.9038C18.8671 17.8421 18.9278 17.7813 18.9867 17.7214C18.999 17.7088 19.0113 17.6963 19.0235 17.6838C19.0319 17.6753 19.0402 17.6667 19.0485 17.6582C19.1702 17.5331 19.2839 17.4119 19.3896 17.2947C19.4088 17.2735 19.4277 17.2524 19.4463 17.2314C19.5032 17.1684 19.5575 17.1058 19.6092 17.0438C19.6115 17.0411 19.6138 17.0383 19.6161 17.0356C19.6658 16.9757 19.7131 16.9163 19.7579 16.8574C19.8198 16.7761 19.8771 16.6957 19.9297 16.6162C19.9832 16.5342 20.0316 16.4519 20.075 16.3695C20.0791 16.3615 20.0832 16.3536 20.0873 16.3457C20.1453 16.2327 20.1939 16.1193 20.2329 16.0054C20.2892 15.8411 20.323 15.6712 20.3342 15.4956C20.337 15.452 20.3384 15.4081 20.3384 15.3638C20.3384 15.0169 20.2734 14.7154 20.1434 14.4591C20.137 14.4465 20.1305 14.434 20.1237 14.4216C20.1136 14.4029 20.1031 14.3844 20.0923 14.3662C19.9312 14.0879 19.6909 13.8755 19.3716 13.729C19.3208 13.7057 19.2681 13.6843 19.2135 13.6647C19.2083 13.6628 19.2031 13.661 19.1979 13.6592C18.9123 13.5592 18.5747 13.5093 18.1851 13.5093C18.1733 13.5093 18.1616 13.5093 18.1499 13.5095C17.8427 13.513 17.561 13.5626 17.3047 13.6582C17.1972 13.6983 17.0941 13.7466 16.9956 13.8029C16.9951 13.8032 16.9946 13.8034 16.9941 13.8037Z" fill="white" style="fill:white;fill-opacity:1;"/>
<path id="Stroke_2" fill-rule="evenodd" clip-rule="evenodd" d="M7.77904 13.2451L10.0959 17.5595L7.70361 22H18.9856L17.9081 20H16.0363V19.0332L16.8988 18.1265L16.5942 17.5612L18.162 14.6519C18.1581 14.6519 18.1541 14.6519 18.15 14.6519C17.9977 14.6519 17.8644 14.6958 17.7501 14.7837C17.6359 14.8716 17.5465 14.9917 17.4821 15.144C17.4205 15.2964 17.3898 15.4678 17.3898 15.6582H15.9044C15.9044 15.5812 15.9081 15.5055 15.9154 15.431C15.9455 15.1261 16.037 14.8429 16.1901 14.5815C16.3834 14.2563 16.6515 13.9971 16.9943 13.8037C17.337 13.6074 17.734 13.5093 18.1852 13.5093C18.3896 13.5093 18.5798 13.523 18.7556 13.5506L18.9202 13.2451H7.77904ZM14.0324 15.2451L13.3424 16.5547L12.6744 15.2451H11.1232L12.3668 17.561L11.0529 20H12.6041L13.3424 18.5938L14.0851 20H15.6364L14.3224 17.561L15.5704 15.2451H14.0324Z" fill="white" style="fill:white;fill-opacity:1;"/>
</g>
</g>
<defs>
<clipPath id="clip0_38_7478">
<rect width="22" height="22" fill="white" style="fill:white;fill-opacity:1;" transform="matrix(-1 0 0 1 22 0)"/>
</clipPath>
</defs>
</svg>
