<?xml version="1.0" encoding="UTF-8"?>
<svg viewBox="0 0 50 48" xmlns="http://www.w3.org/2000/svg">
<path d="m45.672 36.094c0.0053 0.4015-0.0645 0.8003-0.2057 1.1755-0.133 0.3475-0.3407 0.6608-0.608 0.9173-0.2849 0.2663-0.6226 0.4681-0.9908 0.592-0.4319 0.1456-0.8851 0.2165-1.3404 0.2097h-1.7796v3.0026c0 0.2616-0.1028 0.5124-0.2858 0.6974-0.1831 0.185-0.4313 0.2889-0.6902 0.2889-0.2588 0-0.5071-0.1039-0.6901-0.2889-0.1831-0.185-0.2859-0.4358-0.2859-0.6974v-8.5911c-0.0014-0.129 0.0229-0.2569 0.0714-0.3762s0.1202-0.2275 0.2109-0.3183c0.0891-0.095 0.1968-0.1701 0.3162-0.2207 0.1195-0.0505 0.248-0.0754 0.3775-0.0729h2.6753c0.6151 0 1.1267 0.0882 1.5351 0.2647 0.3749 0.1522 0.7128 0.3843 0.9908 0.6805 0.2461 0.2715 0.4292 0.5951 0.536 0.9471 0.1073 0.3432 0.1624 0.7009 0.1633 1.0609v0.7289zm-1.9373-0.6795c4e-4 -0.1408-0.0211-0.2808-0.0637-0.4149-0.0444-0.1365-0.1225-0.2594-0.2269-0.357-0.1284-0.1172-0.2804-0.205-0.4456-0.2573-0.2333-0.0737-0.4771-0.1077-0.7214-0.1006h-1.5296v2.9028h1.7122c0.4816 0 0.8143-0.1143 0.9982-0.343 0.1796-0.2166 0.2777-0.4903 0.2768-0.7728v-0.6572z" fill="#8596A3"/>
<path d="m41.778 37.221h-4.2298c-0.4784 0-0.8663 0.3919-0.8663 0.8753 0 0.4835 0.3879 0.8754 0.8663 0.8754h4.2298c0.4784 0 0.8662-0.3919 0.8662-0.8754 0-0.4834-0.3878-0.8753-0.8662-0.8753z" fill="#8596A3"/>
<path d="m42.482 39.664h-4.9337c-0.4784 0-0.8663 0.3919-0.8663 0.8753s0.3879 0.8753 0.8663 0.8753h4.9337c0.4784 0 0.8662-0.3919 0.8662-0.8753s-0.3878-0.8753-0.8662-0.8753z" fill="#8596A3"/>
<path d="m30.857 37.723c0-5.3433 4.2695-9.6892 9.5279-9.6948 1.2631-0.0053 2.5148 0.242 3.6829 0.7277 1.1682 0.4856 2.2297 1.2001 3.1233 2.1021 0.8937 0.902 1.602 1.9738 2.0839 3.1536 0.482 1.1798 0.7282 2.4444 0.7244 3.7208 0 5.2473-4.3838 9.6379-9.6182 9.6333-5.2344-0.0047-9.5214-4.3422-9.5242-9.6427zm17.666-0.0195c-0.0166-4.4895-3.6901-8.2034-8.073-8.1745-4.5306 0.0345-8.133 3.6785-8.1183 8.2164 0.0102 4.4102 3.6781 8.1418 7.9771 8.1157 4.5047-0.027 8.2317-3.726 8.2142-8.1576z" fill="#8596A3"/>
<path d="m28.061 26.692-0.2887-0.261-4.6966 0.0056c-2.5831 0-4.7768 0.0391-4.8746 0.0801-0.5535 0.2284-0.703 0.9993-0.2768 1.43l0.2362 0.2396 4.8036 0.0242 4.8026 0.0252 0.2916-0.2629c0.2417-0.2181 0.2915-0.3281 0.2915-0.6413 0-0.3133-0.0498-0.4242-0.2888-0.6395z" fill="#8596A3"/>
<path d="m29.386 41.19h-9.4956c-6.0969 0-11.086-0.0215-11.086-0.0466 0-0.0252 0.14576-0.4298 0.32288-0.8996l0.32381-0.8539h19.581c-0.0533-0.456-0.0801-0.9148-0.0802-1.374 0-0.1436 0-0.2862 0.0083-0.4279h-6.1717c-6.9642 0-12.65-0.0345-12.633-0.0765 0.0166-0.0419 0.3478-0.9116 0.738-1.9343 0.3903-1.0226 0.7215-1.8588 0.7381-1.8588s0.5018 0.399 1.0747 0.8884 1.1292 0.9322 1.2362 0.9891c0.214 0.1118 10.437 0.1379 15.245 0.0774 0.1227-0.6033 0.2933-1.1956 0.5102-1.7712h-1.2999v-0.7262c0-1.0469-0.2417-1.4356-0.8911-1.4356-0.6495 0-0.8903 0.3887-0.8903 1.4356v0.7243h-2.6753v-0.5733c0.0024-0.2856-0.0161-0.571-0.0553-0.8539-0.1449-0.7327-1.0388-1.0049-1.4955-0.4558-0.2103 0.2526-0.2306 0.3477-0.2306 1.0804v0.8026h-2.7574v-0.8166c0-0.783-0.0102-0.8278-0.2602-1.0804-0.4557-0.4614-1.2177-0.302-1.4243 0.2964-0.0526 0.1529-0.0923 0.5752-0.0923 0.9388v0.6618h-2.9881l-3.4917-2.9476-3.4881-2.9467v-10.053l-0.31458-0.317c-0.27676-0.2796-0.35149-0.3113-0.64024-0.2638-0.20577 0.042-0.39679 0.1385-0.55351 0.2797l-0.22787 0.2293-0.02398 5.3135c-0.02122 4.6852-0.00738 5.3461 0.11624 5.5997 0.07657 0.1585 0.46126 0.549 0.84687 0.8679l0.70666 0.5789-0.43174 0.8156c-2.084 3.9218-7.0776 13.781-7.1182 14.036-0.045204 0.2796-0.011993 0.3607 0.26292 0.6385 0.20111 0.2033 0.39853 0.3179 0.55075 0.3179 0.60056 0 0.52307 0.1305 4.3608-7.3485 2.0028-3.9031 3.6716-7.1313 3.7095-7.1779 0.0655-0.0746 1.2214 0.8166 1.2343 0.9509 0 0.0344-1.0581 2.8693-2.3598 6.2988-2.5831 6.805-2.5203 6.5897-1.988 7.0418 0.31458 0.2675 0.61624 0.2927 0.97142 0.0802 0.27675-0.1641 0.34041-0.2937 0.92252-1.829l0.39023-1.0347 11.498-0.0457 10.473-0.041c-0.2657-0.5658-0.4854-1.1526-0.6568-1.7544z" fill="#8596A3"/>
<path d="m6.491 13.034c-0.69927 0.2797-0.8192 1.0627-0.23616 1.5391 0.43635 0.3579 1.2104 0.0689 1.3524-0.5034 0.15683-0.6311-0.53138-1.2687-1.1163-1.0357z" fill="#8596A3"/>
<path d="m28.074 22.373-0.2251-0.2135-4.7353-0.0186c-2.6329-0.0093-4.8221 0.0177-4.93 0.0634-0.2851 0.1175-0.5092 0.5146-0.4982 0.8856 0.0065 0.2423 0.0785 0.3878 0.286 0.5742l0.2768 0.2498h4.7233c5.1754 0 5.1145 0.0066 5.3341-0.5294 0.0688-0.1723 0.0836-0.3617 0.0421-0.5427-0.0414-0.181-0.137-0.3446-0.2737-0.4688z" fill="#8596A3"/>
<path d="m5.9113 10.14 0.22786 0.2293c0.15672 0.1412 0.34775 0.2377 0.55351 0.2797 0.28876 0.0475 0.36256 0.0168 0.64024-0.2638l0.31458-0.317v-1.9632c0-2.2373 0.08395-2.7593 0.58765-3.7288 0.61348-1.182 1.8644-2.1562 3.1606-2.4657 0.857-0.20415 21.924-0.20415 22.78 0 1.2971 0.30949 2.5471 1.2836 3.1615 2.4657 0.6144 1.182 0.5858 0.57889 0.5849 12.695v9.6277c0.5807-0.1313 1.1708-0.216 1.7648-0.2536 0.0129-1.663 0.0092-4.5127 0-9.4347-0.0249-10.758-0.0378-11.536-0.1845-12.041-0.326-1.1362-0.9312-2.1706-1.7593-3.0068-0.8282-0.83617-1.8523-1.4469-2.977-1.7754-0.5-0.15195-1.25-0.16313-11.756-0.18085-9.7013-0.01678-11.306-9.322e-4 -11.846 0.11652-1.2816 0.27295-2.4552 0.92158-3.3741 1.8648-0.91884 0.94323-1.5422 2.1392-1.792 3.4384-0.11439 0.57237-0.1393 1.1494-0.11808 2.7201l0.03137 1.994z" fill="#8596A3"/>
<path d="m33.842 19.534c0.5822-0.3011 1.0557-0.7799 1.3533-1.3684 0.1845-0.4111 0.1919-0.5006 0.1919-5.0525 0-4.5519 0-4.6424-0.1919-5.0534-0.2976-0.58854-0.7711-1.0674-1.3533-1.3685l-0.4142-0.19297-10.508-0.02051c-9.7862-0.01864-10.54-0.00932-10.955 0.1361-0.4289 0.14745-0.8135 0.40296-1.1174 0.7424-0.304 0.33944-0.5173 0.75159-0.6197 1.1975-0.0683 0.31788-0.0923 1.8411-0.072 4.8288 0.0277 4.2443 0.0341 4.3766 0.2205 4.7831 0.2976 0.5885 0.7711 1.0673 1.3533 1.3684l0.4143 0.193h21.284l0.4142-0.193zm-11.947-6.4191v4.8624l-9.4365-0.0504-0.2473-0.2489-0.2463-0.2461v-4.3114c0-4.1818 0-4.3142 0.1781-4.509 0.1009-0.11255 0.2216-0.20517 0.3561-0.27314 0.0977-0.04101 2.2518-0.07644 4.7869-0.07923l4.6127-0.00559-0.0037 4.8614zm11.217 4.812-9.4366 0.0504v-9.7284l4.7178 0.02424 4.7188 0.02517 0.2463 0.2489 0.2472 0.24983v8.6349l-0.2472 0.2499-0.2463 0.2451z" fill="#8596A3"/>
<path d="m12.431 22.205c-0.4371 0.1161-0.8436 0.3281-1.1905 0.6208-0.3469 0.2928-0.6258 0.6591-0.8169 1.073-0.1975 0.425-0.2362 0.6339-0.2362 1.2733 0 0.6395 0.0387 0.8483 0.2362 1.2734 0.3103 0.6579 0.8355 1.1876 1.4871 1.4999 0.7223 0.3375 1.7214 0.3393 2.429 0 2.405-1.1391 2.4124-4.4335 0.012-5.5437-0.5462-0.2471-1.3792-0.3347-1.9207-0.1967zm1.6827 3.7204c-0.1553 0.2059-0.3708 0.3572-0.6159 0.4326-0.2451 0.0753-0.5075 0.0709-0.75-0.0127s-0.4528-0.2421-0.6012-0.4532c-0.1484-0.211-0.2274-0.4639-0.2258-0.7228 0-0.9238 0.8709-1.4915 1.7261-1.1354 0.7066 0.3011 0.9456 1.2613 0.4668 1.8915z" fill="#8596A3"/>
<path d="m30.385 27.397c0.5046 0.4661 0.7805 0.6115 1.4668 0.7551 0.3631 0.0943 0.744 0.0943 1.1071 0 0.6863-0.1436 0.9631-0.2862 1.4677-0.7551 0.8008-0.7458 1.1384-1.7591 0.929-2.7845-0.1421-0.6917-0.2832-0.9732-0.738-1.4756-0.81-0.8884-1.894-1.2119-3.0259-0.8931-0.5489 0.1529-0.9502 0.4111-1.3903 0.8931-0.4612 0.5024-0.5996 0.7839-0.738 1.4756-0.2186 1.0226 0.1209 2.0378 0.9216 2.7845zm0.9511-2.8339c0.2288-0.3784 0.6753-0.6525 1.0693-0.6525 0.2115 0.0117 0.4174 0.073 0.6014 0.179 0.8405 0.5173 0.8405 1.6425 0 2.1608-1.0406 0.6432-2.3053-0.6348-1.6707-1.6873z" fill="#8596A3"/>
</svg>
