<?xml version="1.0" encoding="UTF-8"?>
<svg fill="none" viewBox="0 0 66 38" xmlns="http://www.w3.org/2000/svg">
<g fill="#25343F" opacity=".5">
<path d="m60.418 25.982c0.0055 0.4277-0.0697 0.8526-0.2218 1.2526-0.1439 0.3708-0.3692 0.705-0.6594 0.9782-0.308 0.2848-0.6735 0.501-1.0721 0.6342-0.467 0.1538-0.9567 0.2284-1.4486 0.2207h-1.9303v3.202c0.0043 0.1409-0.0198 0.2812-0.071 0.4127-0.0512 0.1314-0.1284 0.2513-0.227 0.3525s-0.2167 0.1817-0.3472 0.2366c-0.1304 0.055-0.2707 0.0833-0.4123 0.0833-0.1417 0-0.282-0.0283-0.4124-0.0833-0.1305-0.0549-0.2486-0.1354-0.3472-0.2366s-0.1758-0.2211-0.227-0.3525c-0.0512-0.1315-0.0754-0.2718-0.071-0.4127v-9.1616c-0.0015-0.1376 0.0249-0.2741 0.0776-0.4014 0.0527-0.1272 0.1306-0.2426 0.2291-0.3392 0.0963-0.1013 0.2127-0.1815 0.342-0.2354 0.1292-0.0539 0.2683-0.0804 0.4084-0.0777h2.8973c0.6661 0 1.2203 0.0941 1.6625 0.2823 0.4059 0.1624 0.7716 0.4103 1.0721 0.7267 0.2679 0.2886 0.4679 0.6329 0.5854 1.008 0.1155 0.3661 0.1748 0.7475 0.1759 1.1313l-3e-3 0.7793zm-2.0981-0.7256c3e-4 -0.1502-0.023-0.2994-0.069-0.4424-0.0481-0.1454-0.1322-0.2764-0.2447-0.3808-0.1395-0.1249-0.3045-0.2185-0.4836-0.2743-0.2526-0.0787-0.5167-0.115-0.7813-0.1074h-1.6555v3.0956h1.8543c0.5209 0 0.8809-0.1219 1.08-0.3658 0.1946-0.2309 0.3008-0.5228 0.2998-0.8241v-0.7008z"/>
<path d="m56.203 27.181h-4.5809c-0.5181 0-0.9381 0.4179-0.9381 0.9334 0 0.5156 0.42 0.9335 0.9381 0.9335h4.5809c0.5181 0 0.9382-0.4179 0.9382-0.9335 0-0.5155-0.4201-0.9334-0.9382-0.9334z"/>
<path d="m56.965 29.788h-5.3432c-0.5181 0-0.9381 0.4179-0.9381 0.9334 0 0.5156 0.42 0.9335 0.9381 0.9335h5.3432c0.5182 0 0.9382-0.4179 0.9382-0.9335 0-0.5155-0.42-0.9334-0.9382-0.9334z"/>
<path d="m44.375 27.718c0-5.6982 4.6238-10.332 10.319-10.339 1.3677-0.0051 2.723 0.259 3.9877 0.7772s2.4138 1.2803 3.3813 2.2422c0.9675 0.962 1.7341 2.1049 2.2558 3.3629 0.5216 1.2581 0.788 2.6063 0.7838 3.9672 0 5.5948-4.7477 10.277-10.417 10.272s-10.308-4.6305-10.311-10.283zm19.135-0.0209c-0.0169-4.7876-3.9963-8.748-8.7431-8.7162-4.9065 0.0358-8.808 3.9217-8.792 8.7609 0.0119 4.7031 3.9834 8.6825 8.6392 8.6546 4.8776-0.0288 8.9139-3.9744 8.8959-8.6993z"/>
<path d="m50.892 0h-1.3328c-0.0899 0-0.1628 0.072547-0.1628 0.16204v1.4603c0 0.08949 0.0729 0.16204 0.1628 0.16204h1.3328c0.09 0 0.1629-0.07255 0.1629-0.16204v-1.4603c0-0.089491-0.0729-0.16204-0.1629-0.16204z"/>
<path d="m47.482 0.070312h-11.571c-0.0899 0-0.1629 0.072546-0.1629 0.16204v1.342c0 0.08949 0.073 0.16204 0.1629 0.16204h11.571c0.0899 0 0.1628-0.07255 0.1628-0.16204v-1.342c0-0.089491-0.0729-0.16204-0.1628-0.16204z"/>
<path d="m10.862 30.53h-1.3008c-0.08994 0-0.16285 0.0725-0.16285 0.162v1.3291c0 0.0895 0.07291 0.1621 0.16285 0.1621h1.3008c0.09 0 0.1629-0.0726 0.1629-0.1621v-1.3291c0-0.0895-0.0729-0.162-0.1629-0.162z"/>
<path d="m39.789 30.545h-1.3038c-0.0899 0-0.1628 0.0726-0.1628 0.1621v1.3301c0 0.0895 0.0729 0.162 0.1628 0.162h1.3038c0.09 0 0.1629-0.0725 0.1629-0.162v-1.3301c0-0.0895-0.0729-0.1621-0.1629-0.1621z"/>
<path d="m45.349 30.304h-1.0041c-0.0354-2e-4 -0.0697-0.0118-0.0978-0.0332-0.0281-0.0213-0.0485-0.0512-0.058-0.0851-0.6934-2.4166-2.234-3.9664-4.8507-4.0509-2.8134-0.0895-4.4809 1.4782-5.2482 4.0559-0.0101 0.0334-0.0307 0.0628-0.0587 0.0837-0.0281 0.0209-0.0621 0.0324-0.0972 0.0326h-14.986c-0.0215 1e-4 -0.0427-4e-3 -0.0626-0.012-0.0199-0.0081-0.038-0.02-0.0532-0.0351s-0.0273-0.033-0.0355-0.0527c-0.0083-0.0197-0.0125-0.0409-0.0125-0.0622v-1.344c0-0.0214 0.0042-0.0426 0.0125-0.0623 0.0082-0.0197 0.0203-0.0376 0.0355-0.0527 0.0152-0.015 0.0333-0.027 0.0532-0.035 0.0199-0.0081 0.0411-0.0122 0.0626-0.0121h14.055c0.0432 0 0.0847-0.0171 0.1152-0.0474 0.0305-0.0304 0.0477-0.0716 0.0477-0.1146v-1.3788c0-0.043-0.0172-0.0842-0.0477-0.1146s-0.072-0.0475-0.1152-0.0475h-14.068c-0.0432 0-0.0846-0.017-0.1151-0.0474-0.0306-0.0304-0.0477-0.0716-0.0477-0.1146v-18.291c0-0.04297 0.0171-0.08419 0.0477-0.11458 0.0305-0.03038 0.0719-0.04746 0.1151-0.04746h28.549c0.0215 0 0.0427-0.00422 0.0625-0.01242 0.0199-0.00821 0.0379-0.02023 0.053-0.03539 0.0151-0.01515 0.0271-0.03313 0.0352-0.0529 0.0082-0.01978 0.0123-0.04095 0.0121-0.06232v-1.3579c2e-4 -0.02136-0.0039-0.04254-0.0121-0.06232-0.0081-0.01977-0.0201-0.03775-0.0352-0.0529-0.0151-0.01516-0.0331-0.02718-0.053-0.03538-0.0198-0.00821-0.041-0.01243-0.0625-0.01243h-28.552c-0.0432 0-0.0846-0.01708-0.1151-0.04746-0.0306-0.03039-0.0477-0.07161-0.0477-0.11458v-1.3003c0-0.04297 0.0171-0.08419 0.0477-0.11458 0.0305-0.03038 0.0719-0.04746 0.1151-0.04746h30.23c0.0432 0 0.0846 0.01708 0.1151 0.04746 0.0306 0.03039 0.0477 0.07161 0.0477 0.11458v15.07c0.5449-0.3464 1.1249-0.6346 1.7305-0.8599v-15.54c-1e-4 -0.03288-0.0098-0.06502-0.028-0.09245-0.2917-0.41752-0.7134-0.49705-1.2109-0.49705-5.898 0.00994-11.796 0.01193-17.693 0.00597h-13.905c-0.9572 0-1.2039 0.24952-1.2069 1.2078v2.7258 1.8083c-3e-4 0.04343-0.0178 0.08499-0.0486 0.1157-0.0309 0.0307-0.0727 0.04807-0.1163 0.04833h-0.4276c-2.4978 0-4.9885 0.00895-7.4833-0.00696-0.27254-0.00203-0.54116 0.06475-0.78071 0.1941s-0.44222 0.31704-0.58905 0.54551c-2.4148 3.7587-4.8476 7.5044-7.2585 11.264-0.18858 0.2949-0.29002 0.6366-0.29274 0.9862-0.018983 2.9137-0.012988 5.8283-0.012988 8.742 0 0.8808 0.26876 1.1482 1.157 1.1492h3.8645c0.03469 1e-4 0.06847 0.011 0.09648 0.0314s0.0488 0.0491 0.05938 0.0819c0.03397 0.0994 0.06394 0.1989 0.09092 0.2893 0.57448 2.0071 1.8983 3.2308 3.9285 3.7219 0.25576 0.0616 0.51753 0.0994 0.7763 0.1461l0.44959-0.0129c0.1109-0.0268 0.2208-0.0576 0.3337-0.0735 2.166-0.2983 3.5968-1.4842 4.3271-3.5211 0.0619-0.175 0.1109-0.3539 0.1629-0.5329 0.0098-0.0337 0.0304-0.0634 0.0587-0.0844s0.0628-0.0322 0.0981-0.0319h18.635c0.025 0.0263 0.0465 0.0557 0.0639 0.0875 0.034 0.0925 0.065 0.1869 0.092 0.2823 0.5685 2.0081 1.8883 3.2408 3.9154 3.7348 0.2838 0.0686 0.5765 0.0995 0.8663 0.1492 0.0086 1e-3 0.0173 1e-3 0.0259 0h0.3627c0.0155 0 0.031-2e-3 0.046-6e-3 0.1002-0.0362 0.2036-0.0635 0.3087-0.0815 0.9805-0.0985 1.9086-0.4881 2.6636-1.1184 0.9451-0.7615 1.5056-1.7585 1.7864-2.9385 0.0085-0.0356 0.0288-0.0673 0.0576-0.09s0.0645-0.0352 0.1012-0.0353h1.6695c-0.2749-0.5548-0.4925-1.1361-0.6494-1.7347zm-42.189-10.41c1.145-1.7775 2.2849-3.5579 3.4489-5.3214 0.0687-0.0822 0.15384-0.1492 0.25-0.1967 0.09616-0.0476 0.20122-0.0747 0.3085-0.0797 1.9922-0.0199 3.9844-0.0129 5.9776-0.0109 0.089 0 0.1779 0.0089 0.2628 0.0169 0.0403 0.0037 0.0777 0.0223 0.1049 0.0521s0.0422 0.0687 0.042 0.1089v5.5172c0 0.0431-0.0171 0.0844-0.0477 0.115-0.0305 0.0305-0.0719 0.0478-0.1152 0.0481h-10.094c-0.02957 8e-4 -0.05879-0.0065-0.08446-0.0211s-0.04679-0.036-0.06104-0.0618-0.02108-0.055-0.01974-0.0844c0.00135-0.0294 0.01081-0.0578 0.02736-0.0822zm7.0316 14.65c-0.4448-0.0016-0.88491-0.0906-1.2952-0.2617-0.41023-0.1711-0.78254-0.4209-1.0956-0.7353s-0.56081-0.6871-0.729-1.0968c-0.16819-0.4098-0.25354-0.8485-0.25117-1.2911 0.02298-1.8609 1.5676-3.3799 3.416-3.359 0.898 0.0094 1.7555 0.3733 2.3841 1.0115 0.6285 0.6383 0.9766 1.4987 0.9678 2.3923 1e-3 0.4422-0.0865 0.8803-0.2573 1.2886-0.1709 0.4083-0.4217 0.7786-0.7379 1.0895-0.3161 0.3109-0.6913 0.556-1.1037 0.7212-0.4123 0.1652-0.8535 0.247-1.298 0.2408zm6.5941-4.2418h-1.3728c-0.0354-2e-4 -0.0697-0.0118-0.0978-0.0332-0.0281-0.0213-0.0485-0.0512-0.0581-0.0851-0.6993-2.4236-2.2419-3.9704-4.8616-4.0489-2.8104-0.0835-4.4709 1.4911-5.2362 4.046-0.00977 0.0336-0.03026 0.0631-0.05838 0.0841-0.02811 0.0209-0.06233 0.0322-0.09748 0.0322h-3.1042c-0.04319 0-0.08462-0.0171-0.11516-0.0475s-0.0477-0.0716-0.0477-0.1146v-1.3271c0-0.043 0.01716-0.0842 0.0477-0.1146s0.07197-0.0474 0.11516-0.0474h2.177c0.04319 0 0.08462-0.0171 0.11516-0.0475s0.0477-0.0716 0.0477-0.1146v-1.3768c0-0.043-0.01716-0.0842-0.0477-0.1146s-0.07197-0.0474-0.11516-0.0474h-2.213c-0.04346 0-0.08513-0.0172-0.11586-0.0478-0.03073-0.0305-0.04799-0.072-0.04799-0.1153v-4.2209c0-0.6392 0.02897-0.667 0.67839-0.668h11.765c0.9082 0 1.193-0.2873 1.193-1.188v-6.9397c0-0.9305-0.2828-1.2118-1.2209-1.2128h-5.584-0.32271c-0.0294-2e-4 -0.05821-0.0082-0.08343-0.0232s-0.04591-0.0365-0.05991-0.0622c-0.014-0.0258-0.02078-0.0547-0.01964-0.084 0.00113-0.0292 0.01015-0.0576 0.0261-0.0821 0.24878-0.3788 0.47058-0.6959 0.65941-1.0409 0.16085-0.2863 0.36467-0.3668 0.68338-0.3658 2.3599 0.0129 4.7198 7e-3 7.0796 8e-3 0.0999 0 0.1998 0.0089 0.3057 0.0179 0.0409 0.0034 0.0789 0.022 0.1066 0.052 0.0278 0.03 0.0432 0.0692 0.0433 0.11v19.058c0 0.0214-0.0042 0.0425-0.0125 0.0622-0.0082 0.0198-0.0203 0.0377-0.0355 0.0527-0.0153 0.0151-0.0333 0.027-0.0532 0.0351s-0.0412 0.0122-0.0626 0.012zm22.369 4.2418c-0.4452 0.0057-0.887-0.0768-1.2997-0.2428-0.4128-0.166-0.7882-0.4121-1.1044-0.7239s-0.5668-0.6831-0.7373-1.0923c-0.1704-0.4092-0.2573-0.8481-0.2555-1.2911-0.0034-0.666 0.1919-1.3182 0.5611-1.8738s0.8958-0.9898 1.513-1.2476c0.6173-0.2578 1.2976-0.3277 1.9547-0.2007 0.6572 0.1269 1.2618 0.445 1.7372 0.9139 0.4755 0.4689 0.8005 1.0676 0.9339 1.7203 0.1334 0.6528 0.0693 1.3302-0.1843 1.9467-0.2537 0.6164-0.6854 1.1442-1.2405 1.5164-0.5551 0.3723-1.2088 0.5724-1.8782 0.5749z"/>
</g>
</svg>
