<?xml version="1.0" encoding="UTF-8"?>
<svg fill="none" viewBox="0 0 47 44" xmlns="http://www.w3.org/2000/svg">
<g fill="#fff" opacity="1">
<path d="m42.758 33.652c0.0048 0.3685-0.0593 0.7345-0.1891 1.0792-0.123 0.3191-0.315 0.6067-0.5621 0.8422-0.2631 0.2443-0.575 0.4296-0.9148 0.5434-0.3982 0.1325-0.8157 0.1967-1.2351 0.19h-1.6456v2.7567c0.0037 0.1213-0.0168 0.2422-0.0605 0.3553-0.0436 0.1132-0.1094 0.2164-0.1935 0.3035-0.0841 0.0872-0.1848 0.1564-0.296 0.2037s-0.2308 0.0717-0.3516 0.0717-0.2403-0.0244-0.3516-0.0717c-0.1112-0.0473-0.2118-0.1165-0.2959-0.2037-0.0841-0.0871-0.1499-0.1903-0.1936-0.3035-0.0436-0.1131-0.0642-0.234-0.0605-0.3553v-7.8849c-0.0013-0.1185 0.0212-0.236 0.0661-0.3456 0.045-0.1095 0.1114-0.2088 0.1954-0.292 0.0818-0.0869 0.1806-0.1558 0.2903-0.2022s0.2278-0.0694 0.3468-0.0674h2.4702c0.5678 0 1.0402 0.081 1.4173 0.2431 0.3461 0.1397 0.6581 0.3528 0.9148 0.6247 0.2281 0.2492 0.3983 0.5462 0.4983 0.8696 0.0986 0.3149 0.1494 0.6429 0.1507 0.9731v0.6701zm-1.7887-0.6239c4e-4 -0.1293-0.0194-0.2578-0.0587-0.3809-0.041-0.1253-0.1131-0.2382-0.2096-0.3278-0.1185-0.1076-0.2589-0.1882-0.4114-0.2362-0.2154-0.0677-0.4405-0.0989-0.6661-0.0924h-1.4122v2.6651h1.58c0.4447 0 0.7519-0.105 0.9216-0.3149 0.1659-0.1988 0.2564-0.4502 0.2556-0.7095l8e-4 -0.6034z"/>
<path d="m39.162 34.685h-3.9054c-0.4417 0-0.7998 0.3598-0.7998 0.8036 0 0.4439 0.3581 0.8037 0.7998 0.8037h3.9054c0.4417 0 0.7998-0.3598 0.7998-0.8037 0-0.4438-0.3581-0.8036-0.7998-0.8036z"/>
<path d="m39.812 36.929h-4.5553c-0.4417 0-0.7998 0.3598-0.7998 0.8037 0 0.4438 0.3581 0.8036 0.7998 0.8036h4.5553c0.4417 0 0.7998-0.3598 0.7998-0.8036 0-0.4439-0.3581-0.8037-0.7998-0.8037z"/>
<path d="m29.078 35.147c0-4.9057 3.942-8.8957 8.7971-8.9008 1.1659-0.0045 2.3212 0.2229 3.3994 0.669 1.0781 0.4461 2.0578 1.1021 2.8826 1.9302 0.8247 0.8281 1.4784 1.812 1.9231 2.8949 0.4448 1.083 0.672 2.2437 0.6685 3.4152 0 4.8176-4.0475 8.8486-8.8805 8.8444-4.8329-0.0043-8.7876-3.9866-8.7902-8.8529zm16.313-0.018c-0.0153-4.1218-3.407-7.5315-7.4538-7.5041-4.183 0.0308-7.5091 3.3763-7.4955 7.5426 0.0102 4.049 3.396 7.475 7.3652 7.451 4.1575-0.0248 7.5995-3.4208 7.5841-7.4895z"/>
<path d="m27.776 37.431-5.3117 2.8072c-0.0979 0.0522-0.1984 0.0984-0.3356 0.1661v-17.81c0.8978 0.9055 1.7359 1.7527 2.5758 2.5975 0.511 0.5135 0.7512 0.5571 1.3935 0.2524l9.8804-4.7011 0.5724-0.2696v4.1859c0.5214-0.0781 1.0478-0.1173 1.5749-0.1172h0.1201c0-1.4801-0.0022-2.9601-0.0068-4.4402 0-0.3329 0.0929-0.5006 0.3961-0.6384 1.0809-0.4913 2.1507-1.0091 3.2197-1.526 0.7666-0.3706 0.8705-0.9894 0.2717-1.5953-1.0545-1.0724-2.1192-2.1353-3.1797-3.2034-0.0988-0.0993-0.1907-0.2037-0.3347-0.3578 0.4676-0.457 0.9259-0.896 1.3756-1.3445 0.7144-0.7115 1.4242-1.4247 2.1294-2.1396 0.6141-0.62306 0.5068-1.2384-0.2887-1.6176-5.2821-2.5219-10.565-5.0407-15.85-7.5563-0.0758-0.035946-0.1465-0.085585-0.2189-0.12324h-0.511c-0.1959 0.16004-0.4072 0.30554-0.5852 0.4827-1.034 1.027-2.0604 2.066-3.0902 3.099-0.0971 0.09757-0.2019 0.18914-0.3313 0.30982-0.7947-0.79765-1.5664-1.5808-2.3501-2.3562-0.534-0.52378-1.0902-1.0219-1.6362-1.5354h-0.5111c-1.8738 0.8995-3.7418 1.8041-5.6165 2.6985-3.4948 1.6663-6.9964 3.325-10.487 5.0041-0.24957 0.11981-0.42588 0.38513-0.64138 0.58283v0.51351c0.15928 0.19684 0.30408 0.40909 0.4804 0.58882 1.0221 1.039 2.0562 2.0703 3.0842 3.105 0.09795 0.0976 0.18909 0.2028 0.3407 0.3723-0.41992 0.4005-0.83899 0.778-1.2376 1.1708-0.73479 0.7269-1.4639 1.4601-2.1873 2.1995-0.17632 0.1798-0.32112 0.3911-0.4804 0.588v0.5135c0.23764 0.2097 0.44632 0.4776 0.71889 0.6162 1.034 0.5264 2.0826 1.027 3.1388 1.502 0.30153 0.137 0.40459 0.2961 0.40289 0.6342-0.01363 4.3263 0 8.6526-0.01619 12.979 0 0.5366 0.18484 0.8644 0.66097 1.1126 5.2599 2.7741 10.514 5.555 15.764 8.3428 0.1759 0.1046 0.3765 0.1598 0.5809 0.1598s0.405-0.0552 0.5809-0.1598c2.151-1.1411 4.302-2.2799 6.453-3.4165-0.2147-0.5436-0.3845-1.1041-0.5076-1.6758zm12.39-20.634c-0.1252 0.077-0.2121 0.1438-0.3083 0.1892-4.5848 2.1841-9.1695 4.3699-13.754 6.5575-0.3245 0.1557-0.5111 0.1146-0.753-0.1378-0.8458-0.879-1.7171-1.7331-2.6294-2.648 1.4736-0.7035 2.8747-1.3745 4.2767-2.0429 3.281-1.5628 6.562-3.127 9.843-4.6926 0.2862-0.137 0.4583-0.1164 0.6814 0.1198 0.8595 0.8892 1.7445 1.7528 2.6439 2.6548zm-16.672-12.704c0.6235-0.62049 1.2563-1.2341 1.8577-1.8769 0.2427-0.25675 0.431-0.29013 0.7546-0.13436 4.1175 1.9781 8.242 3.9457 12.374 5.9028l1.7036 0.81305c-0.9659 0.96968-1.8841 1.8777-2.7836 2.8038-0.2002 0.2071-0.3484 0.0907-0.5213 0.0085l-9.1914-4.3768-4.4436-2.1148c-0.1508-0.07189-0.299-0.15063-0.5392-0.2713 0.2879-0.27387 0.5434-0.50837 0.7896-0.754zm-21.159 4.7217c0.18057-0.09757 0.32196-0.18144 0.46932-0.25162 4.5473-2.1653 9.0923-4.3314 13.635-6.4984 0.287-0.13694 0.4591-0.11554 0.6856 0.12067 0.8518 0.89009 1.7359 1.7554 2.6609 2.6839l-3.4317 1.6347c-3.5507 1.6906-7.0998 3.384-10.647 5.0803-0.32537 0.1567-0.51105 0.1139-0.75296-0.1386-0.85091-0.8772-1.7223-1.7322-2.6192-2.6309zm0.40884 8.211c-0.12435-0.059-0.24445-0.1258-0.40458-0.2079 0.95994-0.9663 1.8815-1.9077 2.827-2.8243 0.07922-0.0771 0.34071-0.0351 0.47784 0.0308 3.0698 1.4521 6.1361 2.9107 9.1991 4.3759 1.4815 0.7064 2.9635 1.411 4.4462 2.114 0.149 0.0701 0.293 0.1523 0.4778 0.249-0.9633 0.9688-1.8858 1.9085-2.8296 2.8243-0.0732 0.0719-0.3117 0.0368-0.4386-0.0231-1.9454-0.914-3.8849-1.8409-5.8261-2.7644l-7.9291-3.7743zm17.644 23.389c-0.7078-0.3714-1.3798-0.7232-2.0502-1.0766-4.0277-2.1282-8.0557-4.2576-12.084-6.3881-0.17973-0.095-0.3126-0.1797-0.31175-0.4373 0.01022-3.942 0.01306-7.8838 0.00852-11.825 0.00418-0.0651 0.01186-0.1299 0.023-0.1942 0.13543 0.0564 0.25042 0.0992 0.36115 0.1514l10.039 4.7791c0.6661 0.3175 0.9148 0.279 1.4318-0.2413 0.8381-0.8439 1.6737-1.6895 2.5825-2.6078v17.84zm1.1925-21.036c-0.1964 0.0847-0.418 0.089-0.6175 0.012-4.486-2.119-8.9697-4.2484-13.451-6.388-0.09965-0.0479-0.19505-0.1019-0.38414-0.1994l3.7946-1.8059c3.319-1.5804 6.6381-3.1623 9.9571-4.7456 0.2206-0.10526 0.4089-0.16603 0.6712-0.04108 4.5041 2.1567 9.0122 4.3046 13.524 6.4437 0.0733 0.035 0.1431 0.0796 0.2692 0.1489-0.1559 0.0907-0.2666 0.1643-0.385 0.2208-4.4565 2.1225-8.9157 4.2407-13.378 6.3546h-9e-4z"/>
</g>
</svg>
