<svg width="22" height="22" viewBox="0 0 22 22" fill="none" xmlns="http://www.w3.org/2000/svg">
<g id="My Location" clip-path="url(#clip0_38_7336)">
<path id="Vector" d="M10.0832 0.916656V2.8037C6.23841 3.22195 3.22179 6.23857 2.80355 10.0833H0.916504V11.9167H2.80355C3.22179 15.7614 6.23841 18.778 10.0832 19.1963V21.0833H11.9165V19.1963C15.7613 18.778 18.7779 15.7614 19.1961 11.9167H21.0832V10.0833H19.1961C18.7779 6.23857 15.7613 3.22195 11.9165 2.8037V0.916656H10.0832ZM10.9998 4.58332C14.5748 4.58332 17.4165 7.42499 17.4165 11C17.4165 14.575 14.5748 17.4167 10.9998 17.4167C7.42484 17.4167 4.58317 14.575 4.58317 11C4.58317 7.42499 7.42484 4.58332 10.9998 4.58332ZM10.9998 8.24999C10.2705 8.24999 9.57102 8.53972 9.05529 9.05545C8.53957 9.57117 8.24984 10.2706 8.24984 11C8.24984 11.7293 8.53957 12.4288 9.05529 12.9445C9.57102 13.4603 10.2705 13.75 10.9998 13.75C11.7292 13.75 12.4287 13.4603 12.9444 12.9445C13.4601 12.4288 13.7498 11.7293 13.7498 11C13.7498 10.2706 13.4601 9.57117 12.9444 9.05545C12.4287 8.53972 11.7292 8.24999 10.9998 8.24999Z" fill="#25343F" style="fill:#25343F;fill:color(display-p3 0.1451 0.2039 0.2471);fill-opacity:1;"/>
</g>
<defs>
<clipPath id="clip0_38_7336">
<rect width="22" height="22" fill="white" style="fill:white;fill:white;fill-opacity:1;"/>
</clipPath>
</defs>
</svg>
