<svg width="22" height="22" viewBox="0 0 22 22" fill="none" xmlns="http://www.w3.org/2000/svg">
<g id="Tracks">
<path id="Vector" d="M5.49984 2.75V4.58333H3.6665V6.41667H5.49984V8.25H3.6665V10.0833H5.49984V11.9167H3.6665V13.75H5.49984V15.5833H3.6665V17.4167H5.49984V19.25H7.33317V2.75H5.49984ZM14.6665 2.75V4.58333H9.1665V6.41667H14.6665V8.25H9.1665V10.0833H14.6665V11.9167H9.1665V13.75H14.6665V15.5833H9.1665V17.4167H14.6665V19.25H16.4998V17.4167H18.3332V15.5833H16.4998V13.75H18.3332V11.9167H16.4998V10.0833H18.3332V8.25H16.4998V6.41667H18.3332V4.58333H16.4998V2.75H14.6665Z" fill="#25343F" style="fill:#25343F;fill:color(display-p3 0.1451 0.2039 0.2471);fill-opacity:1;"/>
</g>
</svg>
