<svg width="22" height="22" viewBox="0 0 22 22" fill="none" xmlns="http://www.w3.org/2000/svg">
<g id="Tracks">
<path id="Vector" d="M5.50033 2.75V4.58333H3.66699V6.41667H5.50033V8.25H3.66699V10.0833H5.50033V11.9167H3.66699V13.75H5.50033V15.5833H3.66699V17.4167H5.50033V19.25H7.33366V2.75H5.50033ZM14.667 2.75V4.58333H9.16699V6.41667H14.667V8.25H9.16699V10.0833H14.667V11.9167H9.16699V13.75H14.667V15.5833H9.16699V17.4167H14.667V19.25H16.5003V17.4167H18.3337V15.5833H16.5003V13.75H18.3337V11.9167H16.5003V10.0833H18.3337V8.25H16.5003V6.41667H18.3337V4.58333H16.5003V2.75H14.667Z" fill="#D41D12" style="fill:#D41D12;fill:color(display-p3 0.8314 0.1137 0.0706);fill-opacity:1;"/>
</g>
</svg>
