<svg width="22" height="22" viewBox="0 0 22 22" fill="none" xmlns="http://www.w3.org/2000/svg">
<g id="Tracking">
<path id="Vector" d="M2.75 1.83334V3.66668H6.51335C5.97641 4.19236 5.53663 4.8136 5.20996 5.50001H2.75V7.33334H4.65674C4.61362 7.63373 4.58333 7.9377 4.58333 8.25001C4.58333 8.54464 4.6107 8.852 4.66032 9.16668H2.75V11H5.15983C5.38181 11.6048 5.65926 12.2202 5.96908 12.8333H2.75V14.6667H7.00749C8.82686 17.6553 11 20.1667 11 20.1667C11 20.1667 17.4167 12.8333 17.4167 8.25001C17.4167 4.70618 14.5438 1.83334 11 1.83334H2.75ZM11 3.66668C13.5273 3.66668 15.5833 5.72276 15.5833 8.25001C15.5833 10.5582 13.1487 14.4722 11 17.2681C8.85133 14.4722 6.41667 10.5582 6.41667 8.25001C6.41667 5.72276 8.47275 3.66668 11 3.66668ZM11 6.41668C10.5138 6.41668 10.0475 6.60983 9.70364 6.95365C9.35982 7.29746 9.16667 7.76378 9.16667 8.25001C9.16667 8.73624 9.35982 9.20256 9.70364 9.54637C10.0475 9.89019 10.5138 10.0833 11 10.0833C11.4862 10.0833 11.9525 9.89019 12.2964 9.54637C12.6402 9.20256 12.8333 8.73624 12.8333 8.25001C12.8333 7.76378 12.6402 7.29746 12.2964 6.95365C11.9525 6.60983 11.4862 6.41668 11 6.41668Z" fill="#25343F" style="fill:#25343F;fill:color(display-p3 0.1451 0.2039 0.2471);fill-opacity:1;"/>
</g>
</svg>
