<svg width="26" height="21" viewBox="0 0 26 21" fill="none" xmlns="http://www.w3.org/2000/svg">
<g id="Group 1632521933">
<path id="Vector" d="M8.53825 0L0 3.92985L2.84131 6.91797V7.12744V13.8771L10.2713 17.4041L10.2373 17.3862C10.7716 17.668 11.4129 17.668 11.9471 17.3862L11.9131 17.4041L19.3413 13.8771V6.91797L22.1826 3.92985L13.6444 0L11.0913 2.55306L8.53825 0ZM8.14437 2.19857L9.38509 3.43929L4.34163 5.83659L3.09375 4.52425L8.14437 2.19857ZM14.0382 2.19857L19.0889 4.52425L17.841 5.83659L12.7957 3.44108L14.0382 2.19857ZM11.0913 4.66032L11.1074 4.66927L16.2189 7.09521L11.12 9.33496L11.0913 9.34928L11.0627 9.33496L5.9637 7.09521L11.0734 4.66927L11.0913 4.66032ZM4.67464 8.53109L10.1746 10.9481V15.3291L4.67464 12.7188V8.53109ZM17.508 8.53109V12.7188L12.008 15.3309V10.9463L17.508 8.53109Z" fill="#D41D12" style="fill:#D41D12;fill:color(display-p3 0.8314 0.1137 0.0706);fill-opacity:1;"/>
<g id="Vector_2">
<path d="M18.5894 9C16.605 9 15 10.6205 15 12.6241C15 14.6276 16.605 16.2481 18.5894 16.2481C19.2979 16.2481 19.9536 16.0383 20.5095 15.6819L23.1026 18.3L24 17.394L21.4399 14.8158C21.9001 14.2063 22.1789 13.451 22.1789 12.6241C22.1789 10.6205 20.5739 9 18.5894 9ZM18.5894 9.85272C20.1095 9.85272 21.3343 11.0893 21.3343 12.6241C21.3343 14.1588 20.1095 15.3954 18.5894 15.3954C17.0694 15.3954 15.8446 14.1588 15.8446 12.6241C15.8446 11.0893 17.0694 9.85272 18.5894 9.85272Z" fill="#25343F" style="fill:#25343F;fill:color(display-p3 0.1451 0.2039 0.2471);fill-opacity:1;"/>
<path d="M18.5894 9.85272C20.1095 9.85272 21.3343 11.0893 21.3343 12.6241C21.3343 14.1588 20.1095 15.3954 18.5894 15.3954C17.0694 15.3954 15.8446 14.1588 15.8446 12.6241C15.8446 11.0893 17.0694 9.85272 18.5894 9.85272Z" fill="white" style="fill:white;fill-opacity:1;"/>
</g>
<path id="Vector (Stroke)" fill-rule="evenodd" clip-rule="evenodd" d="M20.5096 15.6819C19.9537 16.0383 19.298 16.2481 18.5895 16.2481C16.6051 16.2481 15.0001 14.6276 15.0001 12.6241C15.0001 10.6205 16.6051 9.00001 18.5895 9.00001C20.574 9.00001 22.179 10.6205 22.179 12.6241C22.179 13.451 21.9002 14.2063 21.44 14.8158L24.0001 17.394L23.1027 18.3L20.5096 15.6819ZM21.9577 14.7695C22.3481 14.1499 22.579 13.4168 22.579 12.6241C22.579 10.4032 20.7985 8.60001 18.5895 8.60001C16.3806 8.60001 14.6001 10.4032 14.6001 12.6241C14.6001 14.8449 16.3806 16.6481 18.5895 16.6481C19.2616 16.6481 19.8908 16.4783 20.4437 16.1837L23.1027 18.8684L24.5634 17.3936L21.9577 14.7695Z" fill="#25343F" style="fill:#25343F;fill:color(display-p3 0.1451 0.2039 0.2471);fill-opacity:1;"/>
<path id="Vector (Stroke) (Stroke)" fill-rule="evenodd" clip-rule="evenodd" d="M19.8528 16.4398C20.0578 16.3701 20.2552 16.2842 20.4437 16.1837L23.1027 18.8684L24.5634 17.3936L21.9577 14.7695C22.069 14.5929 22.1673 14.4071 22.251 14.2133C22.461 13.7272 22.579 13.1908 22.579 12.6241C22.579 10.4032 20.7985 8.60001 18.5895 8.60001C16.3806 8.60001 14.6001 10.4032 14.6001 12.6241C14.6001 14.8449 16.3806 16.6481 18.5895 16.6481C19.0325 16.6481 19.4567 16.5744 19.8528 16.4398ZM18.5895 17.6481C19.1601 17.6481 19.7064 17.5504 20.2141 17.373L23.1027 20.2895L25.9718 17.3927L23.1809 14.5821C23.4355 13.9827 23.579 13.3217 23.579 12.6241C23.579 9.86029 21.3601 7.60001 18.5895 7.60001C15.819 7.60001 13.6001 9.86029 13.6001 12.6241C13.6001 15.3879 15.819 17.6481 18.5895 17.6481Z" fill="white" style="fill:white;fill-opacity:1;"/>
</g>
</svg>
