<svg width="22" height="22" viewBox="0 0 22 22" fill="none" xmlns="http://www.w3.org/2000/svg">
<g id="Wooden Box">
<path id="Vector" d="M4.58333 2.75C3.58136 2.75 2.75 3.58136 2.75 4.58333V17.4167C2.75 18.4186 3.58136 19.25 4.58333 19.25H17.4167C18.4186 19.25 19.25 18.4186 19.25 17.4167V4.58333C19.25 3.58136 18.4186 2.75 17.4167 2.75H4.58333ZM4.58333 4.58333H6.41667V11.6589L8.25 9.82552V4.58333H10.0833V7.99219L11.9167 6.15885V4.58333H16.1204L4.58333 16.1204V4.58333ZM17.4167 5.87956V17.4167H15.5833V7.71289L17.4167 5.87956ZM13.75 9.54622V17.4167H11.9167V11.3796L13.75 9.54622ZM10.0833 13.2129V17.4167H8.25V15.0462L10.0833 13.2129ZM6.41667 16.8796V17.4167H5.87956L6.41667 16.8796Z" fill="#25343F" style="fill:#25343F;fill:color(display-p3 0.1451 0.2039 0.2471);fill-opacity:1;"/>
</g>
</svg>
