<svg width="22" height="22" viewBox="0 0 22 22" fill="none" xmlns="http://www.w3.org/2000/svg">
<g id="Open Parcel" clip-path="url(#clip0_38_7408)">
<path id="Vector" d="M8.44694 2.56738L-0.0913086 6.49723L2.75 9.48535V9.69482V16.4445L10.18 19.9715L10.146 19.9536C10.6802 20.2354 11.3215 20.2354 11.8558 19.9536L11.8218 19.9715L19.25 16.4445V9.48535L22.0913 6.49723L13.5531 2.56738L11 5.12044L8.44694 2.56738ZM8.05306 4.76595L9.29378 6.00667L4.25033 8.40397L3.00244 7.09163L8.05306 4.76595ZM13.9469 4.76595L18.9976 7.09163L17.7497 8.40397L12.7044 6.00846L13.9469 4.76595ZM11 7.2277L11.0161 7.23665L16.1276 9.6626L11.0286 11.9023L11 11.9167L10.9714 11.9023L5.8724 9.6626L10.9821 7.23665L11 7.2277ZM4.58333 11.0985L10.0833 13.5155V17.8965L4.58333 15.2861V11.0985ZM17.4167 11.0985V15.2861L11.9167 17.8983V13.5137L17.4167 11.0985Z" fill="#25343F" style="fill:#25343F;fill:color(display-p3 0.1451 0.2039 0.2471);fill-opacity:1;"/>
</g>
<defs>
<clipPath id="clip0_38_7408">
<rect width="22" height="22" fill="white" style="fill:white;fill-opacity:1;"/>
</clipPath>
</defs>
</svg>
