<svg width="50" height="36" viewBox="0 0 50 36" fill="none" xmlns="http://www.w3.org/2000/svg">
<path fill-rule="evenodd" clip-rule="evenodd" d="M1.02501 0.0975691C0.661179 0.214691 0.241023 0.532481 0.103868 0.794244C0.0467599 0.903201 0 1.36542 0 1.82138C0 2.55311 0.0266502 2.6867 0.226966 2.96057C0.465939 3.28716 1.0418 3.58425 1.43989 3.58637L1.65954 3.58749V14.1758V24.764L1.45346 24.8112C1.13346 24.8844 0.496494 25.3319 0.261426 25.6486C0.0692125 25.9074 0.0488099 26.0398 0.0488099 27.0259C0.0488099 27.9635 0.0753625 28.1555 0.2379 28.3915C0.638922 28.9744 1.40865 29.3493 2.31847 29.405C2.6004 29.4223 2.83098 29.4427 2.83098 29.4504C2.83098 29.458 2.76001 29.6145 2.67322 29.7982C2.55784 30.0423 2.52591 30.3062 2.55471 30.7798C2.58927 31.3496 2.63564 31.4877 2.9405 31.9283L3.28696 32.4291L2.4976 32.4601C1.59345 32.4956 1.2385 32.6045 0.684217 33.0164C-0.468185 33.8726 -0.084734 35.2747 1.4643 35.8689C1.79474 35.9957 2.56633 36 24.9907 36H48.1754L48.5659 35.8478C49.4631 35.4981 49.924 34.9546 49.929 34.2404C49.933 33.6764 49.7472 33.3371 49.2294 32.9639C48.726 32.6009 48.3574 32.4945 47.4838 32.4601L46.6944 32.4291L47.0384 31.9318C47.3278 31.5136 47.3893 31.3417 47.425 30.8506C47.4626 30.3349 47.3849 29.8988 47.1905 29.5336C47.1404 29.4395 47.1991 29.419 47.5181 29.419C48.4589 29.419 49.2536 29.046 49.6972 28.3963L50 27.9528L49.9641 26.9439C49.9332 26.0775 49.8984 25.8944 49.7178 25.6486C49.4856 25.3327 48.8492 24.8847 48.5279 24.8112L48.3218 24.764V14.1758V3.58749L48.5415 3.58637C48.9426 3.58425 49.5154 3.28709 49.7604 2.95402C49.9776 2.6589 49.9914 2.5745 49.963 1.71679C49.935 0.870331 49.9129 0.775452 49.6885 0.536774C49.5543 0.394033 49.2658 0.214409 49.0475 0.137548C48.6549 -0.000689003 48.3973 -0.0021671 24.9842 0.00057793C5.42864 0.00283027 1.26701 0.0197228 1.02501 0.0975691ZM48.3218 1.79266V2.39094H24.9907H1.65954V1.79266V1.19439H24.9907H48.3218V1.79266ZM6.63815 14.1101V24.6327H4.97861H3.31907V14.1101V3.58749H4.97861H6.63815V14.1101ZM11.6173 6.84282C11.6176 8.92546 11.6552 10.1953 11.7217 10.3677C11.8019 10.5761 11.9014 10.6602 12.1604 10.7382C12.4512 10.8258 12.5395 10.8258 12.8303 10.7382C13.0893 10.6602 13.1887 10.5761 13.269 10.3677C13.3355 10.1953 13.373 8.92546 13.3733 6.84282L13.3739 3.58749H15.0335H16.693V7.02413V10.4607L16.9126 10.6033C17.2249 10.806 17.4259 10.842 17.767 10.7562C18.3533 10.6089 18.3525 10.6139 18.3525 6.93432V3.58749H20.0121H21.6716V6.98549C21.6716 10.6869 21.6615 10.6168 22.2231 10.7708C22.5205 10.8523 23.0736 10.7006 23.2257 10.4958C23.2971 10.3997 23.3311 9.25943 23.3311 6.97064V3.58749H24.9907H26.6502V6.68987V9.79225L26.9356 9.99799C27.3031 10.263 27.7028 10.2702 28.0524 10.0182L28.3098 9.83258V6.71007V3.58749H29.9658H31.6218L31.6497 6.12756L31.6776 8.66756L31.9516 8.8374C32.3095 9.05926 32.7385 9.05813 33.0487 8.83438L33.2884 8.66165V6.12454V3.58749H34.9479H36.6074L36.608 7.4411C36.6083 9.92394 36.6451 11.3897 36.7114 11.5617C36.8568 11.9393 37.2977 12.0924 37.8022 11.9404C38.0809 11.8564 38.1778 11.7767 38.2597 11.5643C38.3272 11.389 38.3637 9.9464 38.364 7.4411L38.3646 3.58749H40.0241H41.6837V14.1101V24.6327H40.0241H38.3646L38.3644 21.6238C38.3643 18.8998 38.3481 18.5916 38.1936 18.3692C37.9923 18.0795 37.6122 17.9577 37.2176 18.0565C37.0615 18.0955 36.8777 18.2264 36.7785 18.3692C36.6239 18.5916 36.6077 18.8998 36.6076 21.6238L36.6074 24.6327H34.9479H33.2884V23.0107V21.3886L33.0487 21.2159C32.7854 21.026 32.2777 20.9856 32.0108 21.1333C31.6646 21.325 31.6288 21.507 31.6288 23.0796V24.6327H29.9693H28.3098V22.4124V20.1921L28.0701 20.0193C27.7751 19.8066 27.2582 19.7892 26.9295 19.981L26.699 20.1155L26.6707 22.3741L26.6424 24.6327H24.9868H23.3311V22.1286V19.6245L23.0458 19.4188C22.7412 19.1992 22.4727 19.163 22.1289 19.2949C21.6781 19.4681 21.6779 19.4689 21.6747 22.1165L21.6716 24.6327H20.0121H18.3525L18.3511 22.1869C18.35 20.3718 18.3182 19.6961 18.2277 19.5671C17.9607 19.1867 17.3122 19.1185 16.8858 19.426C16.701 19.5592 16.693 19.6697 16.693 22.0989V24.6327H15.0335H13.3739L13.3737 22.222C13.3736 20.0677 13.3555 19.7852 13.2029 19.5658C13.1037 19.423 12.9199 19.292 12.7638 19.253C12.3691 19.1543 11.9891 19.2761 11.7878 19.5658C11.6352 19.7852 11.6171 20.0677 11.617 22.222L11.6168 24.6327H9.95722H8.29769V14.1101V3.58749H9.95722H11.6168L11.6173 6.84282ZM46.6623 14.1101V24.6327H45.0027H43.3432V14.1101V3.58749H45.0027H46.6623V14.1101ZM30.2747 10.3883C29.9404 10.5085 29.6695 10.6725 29.4991 10.858C29.2653 11.1125 29.2335 11.2211 29.2039 11.87L29.1706 12.5968H21.5318C13.1644 12.5968 13.3475 12.5882 12.6009 13.0146C12.3752 13.1435 12.0983 13.4043 11.9392 13.638C11.6805 14.0178 11.6656 14.0915 11.6656 14.9899C11.6656 16.098 11.7598 16.3539 12.3323 16.8019C13.0854 17.3909 12.361 17.3436 21.2323 17.383L29.1395 17.4182L29.1883 18.1221C29.2207 18.5897 29.2915 18.8968 29.3993 19.0371C29.9742 19.7859 31.3381 20.0295 32.2634 19.5486C32.4244 19.4648 33.7539 18.6245 35.2177 17.6812C38.1086 15.8181 38.2809 15.6689 38.2809 15.0279C38.2809 14.3092 38.2378 14.2742 34.0576 11.5983C31.7164 10.0996 31.3788 9.99165 30.2747 10.3883ZM33.8997 13.1111C35.8709 14.3793 36.5661 14.8676 36.5878 14.9988C36.6129 15.1511 36.2467 15.4134 33.9601 16.8811C32.0283 18.1208 31.2476 18.5806 31.0999 18.5653C30.9083 18.5456 30.8938 18.49 30.8479 17.5942C30.7942 16.5481 30.7196 16.3824 30.2497 16.2643C30.0333 16.2099 27.5139 16.1865 21.883 16.1865H13.8258L13.5998 16.0335C13.3886 15.8903 13.3739 15.8268 13.3739 15.0538C13.3739 14.5992 13.4013 14.1759 13.4345 14.1133C13.6059 13.7914 13.552 13.7934 22.1949 13.7934H30.3424L30.5951 13.5768C30.838 13.3687 30.8479 13.3255 30.8479 12.4647C30.8479 11.6108 30.9099 11.4003 31.1614 11.4003C31.2051 11.4003 32.4372 12.1702 33.8997 13.1111ZM48.0365 26.035C48.3177 26.2378 48.3218 26.252 48.3218 27.0259C48.3218 27.7997 48.3177 27.8139 48.0365 28.0167L47.7511 28.2224H40.7761C33.1859 28.2224 33.365 28.2137 32.626 28.62C32.4423 28.7211 32.0748 29.0505 31.8092 29.352C31.4551 29.7543 31.2459 29.9205 31.0238 29.9763C30.6034 30.082 19.3779 30.082 18.9576 29.9763C18.7355 29.9205 18.5263 29.7543 18.1721 29.352C17.9066 29.0505 17.5391 28.7211 17.3553 28.62C16.6164 28.2137 16.7955 28.2224 9.20526 28.2224H2.23022L1.94488 28.0167C1.66364 27.8139 1.65954 27.7997 1.65954 27.0259C1.65954 26.252 1.66364 26.2378 1.94488 26.035L2.23022 25.8293H24.9907H47.7511L48.0365 26.035ZM19.4611 27.1927C19.2562 27.3198 19.1921 27.4226 19.1921 27.6241C19.1921 27.8256 19.2562 27.9285 19.4611 28.0556L19.7301 28.2224H24.9907H30.2512L30.5203 28.0556C30.7252 27.9285 30.7893 27.8256 30.7893 27.6241C30.7893 27.4226 30.7252 27.3198 30.5203 27.1927L30.2512 27.0259H24.9907H19.7301L19.4611 27.1927ZM8.6828 29.606C8.79506 29.7089 8.95682 29.9666 9.04243 30.1787C9.51969 31.3627 8.09903 32.5584 6.39 32.4111C5.39564 32.3254 4.40392 31.703 4.23651 31.0596C4.12532 30.6321 4.24412 30.0925 4.52585 29.7459L4.79157 29.419H6.63522H8.47877L8.6828 29.606ZM13.6179 29.5421C13.4124 29.9044 13.3563 30.2176 13.392 30.8043C13.427 31.3825 13.4702 31.5085 13.7841 31.9497L14.1369 32.4455H12.0878C10.9608 32.4455 10.0532 32.4214 10.0711 32.3919C10.089 32.3623 10.2277 32.1592 10.3794 31.9405C10.8737 31.2276 10.9424 30.4408 10.5856 29.5773L10.5202 29.419H12.1039C13.5737 29.419 13.6827 29.4278 13.6179 29.5421ZM16.4489 29.6567C16.5563 29.7488 16.8052 30.0159 17.0019 30.2502C17.5645 30.9205 18.3797 31.249 19.4799 31.249C19.6652 31.249 19.8168 31.2733 19.8168 31.303C19.8168 31.433 19.2833 31.9053 18.925 32.0925C17.3124 32.9347 15.0284 32.0902 15.0356 30.6545C15.0377 30.2483 15.2556 29.7555 15.5441 29.5049C15.704 29.366 16.2088 29.4506 16.4489 29.6567ZM34.6794 29.8363C35.2889 30.7038 34.8621 31.7295 33.7036 32.1817C32.8363 32.5202 31.9191 32.4992 31.1155 32.1222C30.7847 31.967 30.1645 31.4432 30.1645 31.319C30.1645 31.2917 30.4463 31.2504 30.7907 31.2272C31.4935 31.1799 32.1726 30.9777 32.5194 30.7126C32.647 30.615 32.9305 30.3236 33.1493 30.0651C33.7998 29.2963 34.2526 29.2286 34.6794 29.8363ZM39.3958 29.5773C39.039 30.4408 39.1077 31.2276 39.6019 31.9405C39.7536 32.1592 39.8923 32.3623 39.9102 32.3919C39.9282 32.4214 39.0206 32.4455 37.8936 32.4455H35.8444L36.1972 31.9497C36.5126 31.5065 36.5542 31.3839 36.5901 30.793C36.6195 30.3064 36.5885 30.044 36.4723 29.7982C36.3855 29.6145 36.3146 29.4541 36.3146 29.4416C36.3146 29.4292 37.0225 29.419 37.8879 29.419H39.4612L39.3958 29.5773ZM45.459 29.7502C46.021 30.4417 45.8519 31.3442 45.0525 31.9207C43.8513 32.7868 41.8631 32.5238 41.0382 31.3898C40.7918 31.051 40.7923 30.2494 41.0391 29.9117C41.4129 29.4002 41.3248 29.419 43.3542 29.419H45.1898L45.459 29.7502ZM28.5082 31.5129C28.5721 31.6581 28.7292 31.9092 28.8575 32.0709C28.9858 32.2327 29.0907 32.3832 29.0907 32.4053C29.0907 32.4274 27.2457 32.4455 24.9907 32.4455C22.7357 32.4455 20.8906 32.4255 20.8906 32.4011C20.8906 32.3766 20.9727 32.2578 21.0732 32.1371C21.1735 32.0164 21.3333 31.7672 21.428 31.5833L21.6005 31.249H24.9963H28.3922L28.5082 31.5129ZM47.9398 33.7323C48.3876 33.9802 48.4274 34.351 48.0365 34.6329L47.7511 34.8386H24.9907H2.23022L1.94488 34.6329C1.55391 34.351 1.59374 33.9802 2.04152 33.7323C2.26771 33.6071 47.7136 33.6071 47.9398 33.7323Z" fill="#D41D12"/>
</svg>
