<svg width="47" height="48" viewBox="0 0 47 48" fill="none" xmlns="http://www.w3.org/2000/svg">
<path d="M28.0939 47.011C27.5523 46.7296 27.4043 46.2754 27.4061 45.685C27.4178 40.0451 27.4202 34.4031 27.4135 28.7589C27.4135 27.7262 27.7197 27.42 28.7523 27.42C34.3922 27.42 40.0321 27.4176 45.672 27.4127C46.2578 27.4127 46.7176 27.5579 46.9971 28.1005V47.011H28.0939ZM29.396 45.0036H45.0072V29.4099H29.396V45.0036Z" fill="#D41D12"/>
<path d="M47.0001 18.9206C46.7243 19.4383 46.2967 19.6167 45.7192 19.6094C44.0217 19.5873 42.3242 19.602 40.6258 19.6002C40.4778 19.6002 40.3288 19.5855 40.1559 19.5763V17.6452H45.0047V2.02301H29.4064V17.6333H34.2488V19.5763C34.0796 19.5855 33.9177 19.6002 33.7559 19.6002C32.0731 19.6002 30.3906 19.6002 28.7085 19.6002C27.7365 19.6002 27.4147 19.2783 27.4137 18.3073C27.4137 12.6312 27.4137 6.95516 27.4137 1.27909C27.4137 0.332877 27.7402 0.0110346 28.6772 0.0110346C34.3361 0.0119541 40.0005 0.0193105 45.6548 0C46.2479 0 46.6912 0.146208 47.0001 0.65288V18.9206Z" fill="#D41D12"/>
<path d="M0.65288 47.011C0.149887 46.7002 0 46.2597 0 45.6657C0.0202301 40.005 0.0119541 34.3442 0.0119541 28.6835C0.0119541 27.7465 0.333796 27.4209 1.28001 27.42C6.95486 27.42 12.6294 27.42 18.3036 27.42C19.2756 27.42 19.591 27.741 19.591 28.7148C19.5947 30.4135 19.5947 32.1116 19.591 33.8091C19.591 33.9442 19.579 34.0794 19.5698 34.2514H17.6388V29.4063H2.00646V45.0128H17.6388V40.165H19.5956V40.6818C19.5956 42.3489 19.5818 44.017 19.602 45.6841C19.6094 46.2699 19.4586 46.7315 18.9142 47.011H0.65288Z" fill="#D41D12"/>
<path d="M19.5662 13.7013H17.6435V2.00183H2.01112V17.6342H13.6894V19.5772C13.5193 19.5864 13.3574 19.6011 13.1956 19.6011C9.23295 19.6011 5.27123 19.6011 1.31042 19.6011C0.312713 19.6002 0.0120201 19.2903 0.0120201 18.2779V1.24964C0.0120201 0.323656 0.323747 0.0119286 1.25065 0.0119286C6.97147 0.0119286 12.692 0.0119286 18.4122 0.0119286C19.2186 0.0119286 19.5911 0.344805 19.592 1.12918C19.5999 5.22914 19.5999 9.3291 19.592 13.4291C19.5947 13.5036 19.58 13.578 19.5662 13.7013Z" fill="#D41D12"/>
<path d="M19.5927 26.4444V24.4987H23.0539L14.0092 15.454L15.3784 14.0986L24.3063 23.0347L24.4617 22.9593V19.6021H26.4397V20.9897C26.4397 22.4609 26.4397 23.9267 26.4397 25.3961C26.4397 26.0049 26.0783 26.4352 25.5201 26.4389C23.5606 26.4536 21.6029 26.4444 19.5927 26.4444Z" fill="#D41D12"/>
<path d="M34.0868 14.4452L32.6349 12.9739C33.331 12.2779 34.0519 11.5578 34.7719 10.8369C35.3347 10.2751 35.8892 9.70403 36.4611 9.1523C36.9209 8.7054 37.4542 8.66954 37.8919 9.10173C39.1968 10.3891 40.4795 11.7022 41.7448 12.9785L40.3526 14.345L38.1908 12.1841V25.4495H36.2303V12.2769L34.0868 14.4452Z" fill="#D41D12"/>
<path d="M12.2117 38.1806C12.996 38.965 13.7059 39.6739 14.4029 40.3719L12.9721 41.7632C12.9082 41.7133 12.8468 41.6602 12.7882 41.6041C11.6063 40.4264 10.4265 39.2482 9.24887 38.0693C8.64472 37.4615 8.64564 36.9769 9.24887 36.37C10.4884 35.1222 11.7317 33.878 12.9427 32.6615L14.3524 34.0868L12.2227 36.2017H25.4274V38.1788L12.2117 38.1806Z" fill="#D41D12"/>
</svg>
