<svg width="50" height="49" viewBox="0 0 50 49" fill="none" xmlns="http://www.w3.org/2000/svg">
<path fill-rule="evenodd" clip-rule="evenodd" d="M2.1833 0.0680219C1.65742 0.280275 1.66016 0.254886 1.66016 4.85733V9.11572H2.49023H3.32031V5.37065V1.62558H6.64062H9.96094V3.72009C9.96094 6.17452 10.0155 6.41421 10.6123 6.57928C11.131 6.72276 17.3475 6.71994 17.7618 6.57607C18.3112 6.38522 18.3594 6.15945 18.3594 3.77048V1.62558H21.6797H25V5.37065V9.11572H25.8301H26.6602V5.37065V1.62558H29.9805H33.3008V3.77048C33.3008 6.22715 33.3439 6.4111 33.9602 6.58152C34.4491 6.71673 40.5509 6.71673 41.0398 6.58152C41.6561 6.4111 41.6992 6.22715 41.6992 3.77048V1.62558H45.0195H48.3398V9.11572V16.6058H41.1187H33.8977L33.6236 16.8406L33.3496 17.0754V19.9132V22.751L33.6236 22.9858L33.8977 23.2205H37.5H41.1023L41.3764 22.9859L41.6504 22.7514L41.6799 20.5054L41.7095 18.2595H45.0246H48.3398V25.7497V33.2398H43.75H39.1602V34.0691V34.8984L44.3444 34.8717L49.5287 34.8448L49.7644 34.5719L50 34.2989V17.4327V0.566456L49.7644 0.293504L49.5286 0.020552L25.9606 0.00206986C12.8135 -0.00824124 2.3 0.0209411 2.1833 0.0680219ZM16.6771 3.30357L16.7039 4.93291H14.1625H11.6211V3.34413C11.6211 2.47021 11.6512 1.72538 11.6878 1.68881C11.7245 1.65223 12.8562 1.63395 14.2024 1.64825L16.6504 1.67422L16.6771 3.30357ZM40.017 3.30357L40.0438 4.93291H37.5023H34.9609V3.34413C34.9609 2.47021 34.991 1.72538 35.0276 1.68881C35.0644 1.65223 36.196 1.63395 37.5423 1.64825L39.9902 1.67422L40.017 3.30357ZM0.285449 11.0537L0 11.338V29.8709V48.4037L0.235645 48.6767L0.471387 48.9496L15.7545 48.9748L31.0376 49L31.3391 48.7473L31.6406 48.4946V47.2873C31.6406 46.6233 31.673 46.08 31.7126 46.08C31.7521 46.08 32.3794 46.6713 33.1063 47.3941L34.4281 48.7082L35.0093 48.1233L35.5903 47.5384L32.8394 44.7907C29.5704 41.5259 29.541 41.4823 29.541 39.9031C29.541 38.7327 29.6839 38.3013 30.3848 37.3555C30.795 36.8019 30.8649 36.6474 30.8161 36.4021C30.7734 36.1875 30.205 35.5578 28.6847 34.0414L26.6113 31.9736V31.5393C26.6113 30.9938 26.8644 30.7171 27.4325 30.6411L27.843 30.5863L29.8669 32.594L31.8908 34.6017L32.471 34.0177L33.0512 33.4337L32.3424 32.723L31.6336 32.0123L31.6615 30.948L31.6895 29.8838L32.7148 29.8536C34.6297 29.7971 35.2044 29.9854 35.6201 30.805C35.8375 31.2336 35.8398 31.2819 35.8398 35.274V39.3097L38.0597 41.5285L40.2794 43.7473L40.8663 43.1627L41.4532 42.578L39.4797 40.6083L37.5062 38.6385L37.4787 34.6989L37.4512 30.7593L37.1938 30.2126C36.6934 29.1495 35.8509 28.4929 34.7232 28.2872C34.4046 28.2291 33.5806 28.1815 32.8922 28.1815H31.6406L31.6375 19.743C31.6343 10.8179 31.6503 11.1304 31.1832 10.8825C31.0236 10.7979 27.1388 10.7694 15.7704 10.7694H0.570898L0.285449 11.0537ZM9.17969 13.2455V14.068L6.48555 14.0967L3.79141 14.1254L3.55586 14.3983L3.32031 14.6713V29.7857C3.32031 39.5619 3.35459 44.9899 3.41738 45.1543C3.63105 45.7141 3.14346 45.6939 15.8426 45.667L27.4902 45.6423L27.5186 44.8402L27.547 44.038L16.2881 44.0133L5.0293 43.9886V29.8838V15.779L7.09902 15.7528L9.16885 15.7266L9.35645 16.149C9.58926 16.6733 10.0962 17.1607 10.5469 17.2937C10.7696 17.3593 12.68 17.3841 16.0317 17.365L21.1748 17.3354L21.5981 17.0393C21.8771 16.8442 22.1048 16.5709 22.2656 16.2382L22.5098 15.7332L24.585 15.7318L26.6602 15.7304V21.5668V27.4033H27.4902H28.3203V21.0373V14.6713L28.0848 14.3983L27.8492 14.1254L25.1512 14.0967L22.4532 14.0679L22.4814 13.2698L22.5098 12.4717L26.2451 12.4462L29.9805 12.4207V21.3921V30.3636L29.4678 29.8665C28.7197 29.1414 28.4185 29.0111 27.4902 29.0111C26.6265 29.0111 26.2667 29.1446 25.6994 29.6758C25.1357 30.2038 24.9546 30.6563 24.9542 31.5375C24.954 32.1086 25.002 32.4063 25.135 32.6561C25.2346 32.8434 26.1087 33.7929 27.0775 34.766L28.8389 36.5355L28.4848 37.2069C28.0158 38.0958 27.832 38.8411 27.832 39.8544C27.832 41.3681 28.3006 42.527 29.3701 43.6585L29.9805 44.3041V45.8244V47.3446H15.8203H1.66016V29.8838V12.423H5.41992H9.17969V13.2455ZM20.7787 14.0524L20.752 15.6817L15.9291 15.707C12.449 15.7252 11.0691 15.7016 10.973 15.6221C10.8708 15.5376 10.8398 15.1533 10.8398 13.9676V12.423H15.8227H20.8055L20.7787 14.0524ZM41.6992 14.1254V14.9522H42.5293H43.3594V14.1254V13.2985H42.5293H41.6992V14.1254ZM45.0195 14.1254V14.9522H45.8496H46.6797V14.1254V13.2985H45.8496H45.0195V14.1254ZM40.0391 19.9132V21.5668H37.5H34.9609V19.9132V18.2595H37.5H40.0391V19.9132ZM15.0391 21.6155V22.4423H19.5801H24.1211V21.6155V20.7887H19.5801H15.0391V21.6155ZM10.5234 22.4162L9.18262 23.7517L8.66533 23.243C8.38086 22.9631 8.1041 22.7341 8.0502 22.7341C7.99639 22.7341 7.71328 22.9752 7.42119 23.2698L6.89004 23.8056L7.80957 24.7253C8.76279 25.6788 9.08359 25.8549 9.49131 25.6485C9.61533 25.5856 10.4744 24.7848 11.4005 23.8687L13.0842 22.203L12.5266 21.6417C12.2199 21.333 11.9454 21.0805 11.9167 21.0805C11.8879 21.0805 11.2609 21.6815 10.5234 22.4162ZM15.0391 24.9228V25.7497H18.75H22.4609V24.9228V24.096H18.75H15.0391V24.9228ZM15.0391 28.2301V29.057H19.5801H24.1211V28.2301V27.4033H19.5801H15.0391V28.2301ZM10.5234 29.0308L9.18262 30.3664L8.64287 29.8355L8.10312 29.3044L7.51572 29.8896L6.92842 30.4746L7.89385 31.4195C9.25879 32.7552 9.06826 32.8015 11.298 30.5922L13.0865 28.8201L12.5278 28.2576C12.2204 27.9482 11.9454 27.6951 11.9167 27.6951C11.8879 27.6951 11.2609 28.2962 10.5234 29.0308ZM41.6992 30.7106V31.594L42.5049 31.5657L43.3105 31.5375V30.7106V29.8838L42.5049 29.8556L41.6992 29.8273V30.7106ZM45.0195 30.7106V31.594L45.8252 31.5657L46.6309 31.5375V30.7106V29.8838L45.8252 29.8556L45.0195 29.8273V30.7106ZM15.0391 31.5375V32.3643H18.75H22.4609V31.5375V30.7106H18.75H15.0391V31.5375ZM15.0391 34.8448V35.6716H19.5801H24.1211V34.8448V34.018H19.5801H15.0391V34.8448ZM10.5234 35.6455L9.18262 36.9811L8.64287 36.4501L8.10312 35.9191L7.51768 36.5023L6.93223 37.0854L7.84199 38.0322C9.17344 39.4179 9.03252 39.4515 11.298 37.2068L13.0865 35.4348L12.5278 34.8722C12.2204 34.5629 11.9454 34.3098 11.9167 34.3098C11.8879 34.3098 11.2609 34.9109 10.5234 35.6455ZM15.0391 38.1521V38.979H18.75H22.4609V38.1521V37.3253H18.75H15.0391V38.1521Z" fill="#D41D12"/>
</svg>
