<svg width="57" height="41" viewBox="0 0 57 41" fill="none" xmlns="http://www.w3.org/2000/svg">
<path fill-rule="evenodd" clip-rule="evenodd" d="M0 0.559122V1.11824H15.4189H30.8379V14.649V28.1798H15.4189H0V28.7361V29.2924L1.80908 29.3232L3.61816 29.3539L3.64778 32.4757C3.66748 34.5506 3.71869 35.6475 3.80063 35.7466C3.88702 35.8512 4.23158 35.8957 4.9551 35.8957H5.98645L6.05848 36.3785C6.18283 37.2113 6.73557 38.2094 7.48715 38.9584C9.51666 40.9812 12.6089 40.9854 14.5969 38.9679C15.4407 38.1118 15.8114 37.4202 16.0791 36.2032L16.1468 35.8957H27.8772H39.6075L39.6796 36.3785C39.8039 37.2113 40.3567 38.2094 41.1082 38.9584C43.1378 40.9812 46.23 40.9854 48.218 38.9679C49.0617 38.1118 49.4325 37.4202 49.7002 36.2032L49.7679 35.8957H53.2504C55.8105 35.8957 56.7682 35.8601 56.8664 35.7615C56.9677 35.6597 57 33.7534 57 27.866V20.1048L54.5956 14.4974C53.2733 11.4134 52.0155 8.56296 51.8008 8.16319C50.6272 5.9797 48.7452 4.05498 46.6201 2.86506C46.2366 2.65035 44.6495 1.9179 43.0932 1.23734L40.2635 0H37.7996C36.0316 0 35.2978 0.0379082 35.202 0.134189C35.0994 0.237179 35.0684 3.51878 35.0684 14.2241V28.1798H33.5098H31.9512V14.3385C31.9512 1.99193 31.9325 0.470222 31.7778 0.248586L31.6046 0H15.8022H0V0.559122ZM39.5215 4.52889V7.93954H38.6865H37.8516V8.49866V9.05778H38.6865H39.5215V14.649V20.2402H40.0781H40.6348V15.934V11.6277L46.3956 11.6567L52.1563 11.6857L54.015 15.9909L55.8735 20.2961L55.8802 23.9025L55.8867 27.5088H54.9617C53.5427 27.5088 53.6113 27.3771 53.5686 30.1834L53.5327 32.5409H51.6482H49.7637V31.8531V31.1653L48.9009 30.0968C48.4264 29.5091 47.858 28.8374 47.6379 28.604L47.2376 28.1798H43.9362H40.6348V25.3282V22.4767H40.0781H39.5215V25.3282V28.1798H37.8516H36.1816V14.649V1.11824H37.8516H39.5215V4.52889ZM42.8474 2.35905C43.9879 2.857 45.3338 3.48277 45.8386 3.7497C48.3401 5.07281 50.3047 7.28514 51.4707 10.0922L51.6449 10.5115H46.1398H40.6348V9.78464V9.05778H42.3047H43.9746V8.49866V7.93954H42.3047H40.6348V4.69663C40.6348 2.91303 40.666 1.45372 40.7043 1.45372C40.7426 1.45372 41.707 1.8611 42.8474 2.35905ZM0 3.13109V3.69021H13.9717H27.9434V14.649V25.6078H25.2158H22.4883V26.1669V26.7261H25.5976C28.2757 26.7261 28.731 26.7017 28.8817 26.5504C29.0385 26.3928 29.0566 25.1594 29.0566 14.6473V2.92007L28.8092 2.74607C28.5884 2.59064 27.026 2.57196 14.2808 2.57196H0V3.13109ZM43.8172 12.5136C43.6451 12.7047 43.629 12.9892 43.6609 15.2813C43.6963 17.8334 43.6966 17.8366 44.0002 18.3554C44.3441 18.943 44.8594 19.4187 45.3975 19.6451C45.5983 19.7296 47.6897 20.0302 50.0451 20.313C54.6321 20.8639 54.6621 20.8637 54.6621 20.2818C54.6621 19.9148 50.9351 12.4588 50.7078 12.3713C50.6071 12.3325 49.0587 12.3007 47.2669 12.3007C44.2051 12.3007 43.9975 12.3136 43.8172 12.5136ZM51.6854 16.4955L53.2157 19.5721L52.7978 19.5111C52.5679 19.4776 50.9407 19.2775 49.1818 19.0666C47.239 18.8336 45.8549 18.6162 45.6559 18.5129C45.4755 18.4192 45.2115 18.1783 45.0689 17.9775C44.823 17.6314 44.8078 17.5032 44.7749 15.5156L44.7404 13.4189H47.4478H50.1552L51.6854 16.4955ZM44.1973 25.8315V26.3906H45.6445H47.0918V25.8315V25.2723H45.6445H44.1973V25.8315ZM0 26.1669V26.7261H10.1309H20.2617V26.1669V25.6078H10.1309H0V26.1669ZM55.8867 30.584V32.5409H55.3301H54.7734V30.584V28.6271H55.3301H55.8867V30.584ZM38.436 29.4096L39.5215 29.4098V32.0936V34.7774H37.8516H36.1816V32.6591C36.1816 30.5969 36.1751 30.5361 35.9342 30.3667C35.7187 30.2151 35.0094 30.1926 30.4482 30.1926C25.8871 30.1926 25.1777 30.2151 24.9623 30.3667C24.7214 30.5361 24.7148 30.5967 24.7148 32.6604V34.78L20.4092 34.7508L16.1037 34.7215L15.9779 34.1624C15.7887 33.3203 15.1839 32.279 14.5153 31.6439C12.3179 29.5563 8.75128 29.8824 6.95355 32.3353C6.50835 32.9428 6.01172 34.124 6.01172 34.5755C6.01172 34.7457 5.91553 34.7774 5.39941 34.7774H4.78711V32.0941V29.4107L18.1743 29.3733C25.5373 29.3527 32.8641 29.3524 34.4561 29.3726C36.048 29.3928 37.839 29.4095 38.436 29.4096ZM47.7319 30.4353C48.3357 31.1789 48.6504 31.6621 48.6504 31.8454C48.6504 32.1098 48.6216 32.0972 48.0907 31.5985C46.7375 30.327 44.6738 29.9249 42.8613 30.5795C42.2712 30.7927 41.6836 31.1678 41.0747 31.7204L40.6348 32.1197V30.7834C40.6348 30.0485 40.6682 29.4135 40.709 29.3726C40.7498 29.3316 42.14 29.2994 43.7984 29.3009L46.8135 29.3039L47.7319 30.4353ZM12.5069 31.6494C13.835 32.1484 14.8516 33.5268 14.9901 35.0157C15.0449 35.6053 15.0084 35.9247 14.8119 36.5746C14.593 37.2984 14.4791 37.4779 13.8162 38.1437C13.1533 38.8096 12.9746 38.924 12.254 39.1438C9.88338 39.8671 7.52222 38.4028 7.12711 35.9643C6.63349 32.9181 9.58457 30.5511 12.5069 31.6494ZM28.2773 33.0441V34.7774H27.0527H25.8281V33.0441V31.3109H27.0527H28.2773V33.0441ZM31.5059 33.0441V34.7774H30.4482H29.3906V33.0441V31.3109H30.4482H31.5059V33.0441ZM35.0684 33.0441V34.7774H33.8438H32.6191V33.0441V31.3109H33.8438H35.0684V33.0441ZM46.128 31.6494C46.9887 31.9727 47.7818 32.7226 48.2295 33.6361C48.5559 34.3021 48.5947 34.4828 48.5942 35.3342C48.5937 36.1426 48.5461 36.3907 48.2798 36.9703C47.8865 37.8268 47.1253 38.5869 46.2568 38.9909C45.6943 39.2524 45.4396 39.3018 44.6426 39.3039C43.8181 39.306 43.6106 39.264 43.0298 38.9775C42.2179 38.5772 41.442 37.8196 41.0758 37.0698C40.709 36.3184 40.6316 34.8109 40.9189 34.0086C41.6831 31.8738 43.9697 30.8382 46.128 31.6494ZM10.4911 32.9835C9.90776 33.1263 9.27597 33.6141 8.94956 34.1736C8.18841 35.478 8.9284 37.2994 10.3787 37.6917C12.1935 38.1826 13.8549 36.5138 13.3662 34.6909C13.0543 33.5277 11.6572 32.6979 10.4911 32.9835ZM44.1122 32.9835C43.5289 33.1263 42.8971 33.6141 42.5707 34.1736C41.8095 35.478 42.5495 37.2994 43.9998 37.6917C45.8146 38.1826 47.476 36.5138 46.9873 34.6909C46.6754 33.5277 45.2783 32.6979 44.1122 32.9835ZM53.5488 34.2183V34.7774H51.6562H49.7637V34.2183V33.6592H51.6562H53.5488V34.2183ZM55.8867 34.2183V34.7774H55.3301H54.7734V34.2183V33.6592H55.3301H55.8867V34.2183ZM11.7715 34.2813C12.4197 34.7079 12.5109 35.711 11.9526 36.2718C11.1358 37.0922 9.76648 36.5064 9.76648 35.3365C9.76648 34.2694 10.8705 33.6884 11.7715 34.2813ZM45.4219 34.3142C46.0618 34.786 46.1328 35.6609 45.5783 36.2422C44.7647 37.0952 43.3876 36.5259 43.3876 35.3365C43.3876 34.2475 44.5434 33.6667 45.4219 34.3142Z" fill="#D41D12"/>
</svg>
