<svg width="63" height="42" viewBox="0 0 63 42" fill="none" xmlns="http://www.w3.org/2000/svg">
<path d="M0.00123207 39.0076V36.3057C0.692421 34.375 2.12408 33.6986 4.07937 33.8489C4.74099 33.8995 5.40877 33.8563 6.04328 33.8563C5.73403 33.1577 5.41493 32.5257 5.18084 31.8641C5.05763 31.5203 4.91964 31.3848 4.54509 31.3934C3.85144 31.4094 3.1393 31.4526 2.46413 31.3269C1.14705 31.0805 0.432455 30.1355 0 28.9342V2.40045C0.740472 0.461179 2.2325 -0.0156305 4.19026 0.000386347C12.0582 0.0644538 19.9287 0.0324201 27.7979 0.0250277C30.8768 0.0213315 33.9385 0.2468 36.9632 0.845584C43.2467 2.08381 49.0375 4.49743 54.2996 8.1542C56.2709 9.52056 58.2077 10.9313 59.7638 12.7892C62.4953 16.053 63.3134 19.8835 62.8982 23.9912C62.6296 26.6574 61.0378 28.5018 58.6525 29.6833C56.6988 30.6639 54.5686 31.2432 52.3874 31.3873L51.249 33.8514H51.8885C54.4906 33.8514 57.0927 33.844 59.6961 33.8514C61.2977 33.8576 62.5495 34.736 62.8403 36.2404C63.0138 37.1423 63.0167 38.0688 62.8489 38.9719C62.5471 40.5464 61.3175 41.3645 59.5334 41.3695C56.234 41.3785 52.9345 41.3785 49.635 41.3695C49.4317 41.3695 49.173 41.4163 49.035 41.3128C48.7652 41.1132 48.4633 40.8594 48.3561 40.5625C48.2107 40.1633 48.435 39.7826 48.849 39.6273C49.1196 39.5372 49.4041 39.4955 49.6892 39.5041C52.9468 39.4967 56.2056 39.5041 59.4644 39.4943C59.7494 39.5086 60.0346 39.4728 60.3072 39.3883C60.9614 39.1419 61.1265 38.5813 61.1228 37.9493C61.1166 37.1607 61.2768 36.2823 60.3663 35.8547C60.0349 35.6983 59.6074 35.7044 59.2242 35.7044C40.7432 35.6987 22.2581 35.6987 3.76889 35.7044C3.44227 35.6924 3.11555 35.7255 2.79802 35.803C2.56023 35.872 2.27686 36.0223 2.15735 36.2219C1.66452 37.0535 1.71627 37.9702 2.0403 38.8203C2.30766 39.5251 3.01733 39.5066 3.67402 39.5054C16.8514 39.5004 30.0287 39.5004 43.2061 39.5054C43.4912 39.495 43.7763 39.5261 44.0525 39.5978C44.501 39.7357 44.6932 40.0844 44.6451 40.5501C44.6378 40.7475 44.5586 40.9355 44.4225 41.0786C44.2864 41.2218 44.1027 41.3103 43.9059 41.3276C43.6199 41.363 43.3316 41.3766 43.0435 41.3682H3.75903C3.47196 41.3682 3.18489 41.3621 2.89659 41.3399C1.61154 41.2537 0.740472 40.5834 0.223004 39.4129C0.161401 39.2725 0.075156 39.1419 0.00123207 39.0076ZM15.3762 7.42482H14.6369C13.2238 7.42482 11.8032 7.43221 10.3962 7.42482C9.73455 7.42482 9.30333 7.0552 9.28731 6.52171C9.26514 5.95373 9.68157 5.59643 10.3962 5.56686H10.5194C17.7738 5.56686 25.0274 5.56686 32.2801 5.56686C33.4949 5.56686 34.4978 5.99439 35.3702 6.82973C36.9361 8.33285 38.5292 9.80763 40.0988 11.3071C40.3866 11.5615 40.6295 11.8626 40.8171 12.1978C41.5798 13.7515 40.4894 15.4012 38.6844 15.4086C35.8975 15.4259 33.1105 15.4086 30.3236 15.4086H29.6349V25.1801C29.8702 25.19 30.0698 25.2072 30.2706 25.2072C40.1879 25.2072 50.1052 25.2117 60.0226 25.2208C60.5277 25.2208 60.7753 25.0803 60.8678 24.5937C61.4678 21.4236 61.0279 18.4173 59.4435 15.5996C59.3757 15.4764 59.1022 15.4197 58.9236 15.4172C57.551 15.4037 56.1773 15.4456 54.806 15.3975C53.7422 15.3781 52.6812 15.283 51.631 15.1129C47.3853 14.3564 44.2188 11.8134 41.3913 8.76654C40.668 7.98787 40.8233 6.78784 41.6093 6.06708C42.0849 5.63093 42.6554 5.55084 43.2603 5.55331C44.0131 5.55331 44.7647 5.55331 45.685 5.55331C45.585 5.47906 45.4809 5.41037 45.3733 5.34755C40.1666 3.16803 34.7455 1.97169 29.0965 1.91255C24.6302 1.86327 20.1628 1.89777 15.6953 1.8953C11.5974 1.8953 7.49959 1.8953 3.40173 1.8953C2.47276 1.8953 1.95159 2.24891 1.88013 3.05714C1.80867 3.86538 1.86412 4.68101 1.86412 5.52127C2.08589 5.53483 2.26577 5.55454 2.44565 5.55577C3.28592 5.55577 4.12619 5.54345 4.96523 5.56809C5.58126 5.58657 5.92747 5.92909 5.95088 6.44779C5.97429 6.96649 5.58126 7.3706 4.97385 7.41373C4.70896 7.43344 4.4416 7.41373 4.17547 7.41373C3.40789 7.41373 2.63909 7.41373 1.88629 7.41373V13.5223H15.3762V7.42482ZM15.3589 25.1875V15.4542H1.88876V25.1875H15.3589ZM27.6722 15.4542H17.345V25.1629H27.6722V15.4542ZM29.6275 27.1058V29.517C29.8135 29.5305 29.9725 29.5515 30.1314 29.5515C37.3636 29.5515 44.5959 29.5712 51.8281 29.5392C54.2245 29.5281 56.4656 28.8529 58.5244 27.611C58.7301 27.4878 58.9186 27.3301 59.2291 27.1058H29.6275ZM27.6697 7.46424H17.3586V13.5297H27.6697V7.46424ZM42.8476 7.42482C44.809 9.57477 46.8222 11.5411 49.5364 12.5995C52.226 13.6431 55.0142 13.6344 57.8948 13.5445C57.8405 13.4651 57.7821 13.3886 57.7198 13.3153C55.3555 11.0163 52.6548 9.17435 49.8026 7.54433C49.6239 7.44206 49.3713 7.4359 49.1533 7.43467C47.4727 7.42605 45.7922 7.43467 44.1117 7.43467L42.8476 7.42482ZM29.6287 13.5704C32.6769 13.5704 35.6437 13.5704 38.6105 13.558C38.799 13.558 39.0972 13.4127 39.144 13.2697C39.1908 13.1268 39.0331 12.8533 38.8902 12.7165C37.2318 11.1337 35.5628 9.5645 33.883 8.00882C33.6095 7.7624 33.2239 7.50244 32.8752 7.48026C31.8021 7.4125 30.7228 7.45562 29.6312 7.45562L29.6287 13.5704ZM15.3565 29.5552V27.1231H1.84933C1.84933 27.3067 1.84933 27.4471 1.84933 27.5876C1.83578 29.1757 2.20663 29.5589 3.77998 29.5589H15.3614L15.3565 29.5552ZM27.6697 27.1169H17.3463V29.5096H27.6697V27.1169ZM7.04495 31.4366C7.33818 32.8941 8.82898 33.9339 10.4467 33.8514C11.9708 33.775 13.3852 32.3791 13.3408 31.4366H7.04495ZM19.3188 31.4304C19.7192 32.9495 21.1139 33.9216 22.7082 33.8514C24.2508 33.7836 25.6048 32.4567 25.6565 31.4304H19.3188ZM31.6099 31.4304C32.0226 32.9594 33.4186 33.9303 35.0092 33.8526C36.4199 33.7849 37.7517 32.697 37.9501 31.4304H31.6099ZM43.9133 31.4304C44.2768 32.9089 45.6628 33.8884 47.2337 33.8539C48.6617 33.8231 50.1365 32.6144 50.2498 31.4304H43.9133ZM14.3893 33.8033H18.3221L17.2292 31.4255H15.4834L14.3893 33.8033ZM27.7769 31.4181C27.3987 32.2436 27.0377 33.037 26.6779 33.8095H30.6969C30.4579 33.3968 30.2324 33.037 30.0378 32.6625C29.8234 32.2509 29.7408 31.6448 29.4106 31.4538C29.041 31.2407 28.4595 31.4008 27.9704 31.4021C27.9056 31.404 27.8411 31.4094 27.7769 31.4181V31.4181ZM38.9974 33.8144H42.9929C42.7552 33.4042 42.5149 33.0518 42.3399 32.6698C42.165 32.2879 42.0356 31.8394 41.8792 31.4008C41.3333 31.4008 40.8023 31.3811 40.2775 31.4144C40.1977 31.4301 40.1224 31.4636 40.0572 31.5122C39.9919 31.5608 39.9384 31.6233 39.9005 31.6953C39.5814 32.3926 39.3041 33.1011 38.9974 33.8181V33.8144Z" fill="#D41D12"/>
<path d="M56.1576 24.3694C54.3095 24.3805 53.3238 23.7361 52.608 22.0383C52.2815 21.2683 51.9439 20.5032 51.6371 19.7258C51.0999 18.3619 51.8909 17.184 53.3509 17.152C55.645 17.1027 57.3687 18.1844 58.3038 20.2716C58.5061 20.6947 58.6818 21.1301 58.8299 21.5751C58.9273 21.8831 58.9539 22.2091 58.908 22.5289C58.862 22.8486 58.7445 23.1539 58.5644 23.422C58.3842 23.6901 58.1459 23.9142 57.8673 24.0776C57.5886 24.241 57.2767 24.3395 56.9547 24.3657C56.6911 24.3953 56.4299 24.3694 56.1576 24.3694ZM53.3657 19.0247C53.6774 19.7713 53.9497 20.428 54.2282 21.0835C54.7604 22.355 55.2138 22.6322 56.5691 22.5324C56.9978 22.5004 57.1851 22.3451 56.9818 21.9078C56.8044 21.5184 56.6603 21.1143 56.4644 20.7348C55.8335 19.5212 54.8011 19.0075 53.3657 19.0247Z" fill="#D41D12"/>
<path d="M24.5785 19.0974C24.1435 19.0715 23.716 19.0728 23.2909 19.0136C22.7981 18.9434 22.5271 18.6132 22.5246 18.129C22.5221 17.6448 22.7981 17.2666 23.2835 17.2432C24.1375 17.1945 24.9935 17.1945 25.8475 17.2432C26.3403 17.269 26.6089 17.6473 26.6089 18.1253C26.6089 18.6034 26.3563 18.9508 25.8536 19.0161C25.4298 19.0617 25.001 19.0654 24.5785 19.0974Z" fill="#D41D12"/>
</svg>
